<svg width="311" height="297" viewBox="0 0 311 297" fill="none" xmlns="http://www.w3.org/2000/svg">
<path fill-rule="evenodd" clip-rule="evenodd" d="M292.664 262.841C269.787 284.294 229.163 237.758 197.569 243.435C170.612 248.28 161.339 285.457 134.631 291.241C103.59 297.963 62.1689 302.135 39.7201 277.617C16.592 252.357 39.9119 212.804 32.854 180.084C26.9414 152.674 -4.91998 128.821 1.94311 102.487C8.89078 75.8284 41.0759 65.7192 65.7585 53.8277C84.8958 44.6077 108.227 49.3854 128.117 41.6989C150.841 32.9175 165.56 10.1775 189.822 5.8849C220.234 0.504244 256.934 -5.67924 282.137 14.4484C307.018 34.3192 312.137 71.7727 310.551 102.302C309.137 129.501 276.963 144.839 273.959 171.804C270.541 202.482 314.684 242.193 292.664 262.841Z" fill="#BF6E52" fill-opacity="0.5"/>
</svg>
