<svg width="277" height="312" viewBox="0 0 277 312" fill="none" xmlns="http://www.w3.org/2000/svg">
<path fill-rule="evenodd" clip-rule="evenodd" d="M4.13516 256.822C-12.3874 230.165 41.2426 199.51 41.9033 167.417C42.4671 140.035 7.84632 123.615 7.44023 96.2912C6.96827 64.5352 11.0418 23.1038 39.5033 5.92766C68.826 -11.7682 103.007 18.89 136.477 18.4194C164.514 18.0251 194.179 -8.51004 218.644 3.4087C243.41 15.4743 246.977 49.0206 253.771 75.5627C259.038 96.1418 249.756 118.073 253.371 139.089C257.502 163.098 276.894 182.01 276.321 206.642C275.602 237.517 274.431 274.717 249.731 295.458C225.346 315.935 187.618 313.572 158 305.999C131.614 299.253 122.917 264.687 97.0737 256.427C67.6714 247.03 20.0384 282.48 4.13516 256.822Z" fill="#BF6E52" fill-opacity="0.6"/>
</svg>
