<svg width="331" height="327" viewBox="0 0 331 327" fill="none" xmlns="http://www.w3.org/2000/svg">
<path d="M109.358 280.403C155.429 305.045 151.416 282.522 182.67 286.267C213.923 290.012 229.221 250.849 265.619 232.621C302.017 214.394 282.105 196.989 290.844 168.18C288.514 97.657 276.614 95.1912 245.661 72.1029C214.709 49.0146 134.389 14.5566 81.1979 75.2265C-3.93182 129.852 44.54 200.481 54.9255 229.434C63.3555 252.934 88.0512 269.006 109.358 280.403Z" fill="white" fill-opacity="0.5" style="mix-blend-mode:soft-light"/>
<path d="M237.503 225.867C237.575 225.749 237.636 225.629 237.684 225.509C238.243 224.109 237.857 222.516 236.733 221.268C235.671 220.082 234.409 219.186 232.996 218.007C232.746 217.861 232.58 217.68 232.422 217.469C232.064 217.624 231.685 217.72 231.297 217.741C229.618 217.834 226.999 217.788 223.454 217.786C223.19 218.41 222.991 218.882 222.991 218.882C222.708 219.551 222.935 220.882 223.259 221.627C223.756 222.757 224.618 223.874 225.735 224.661C227.362 225.798 229.01 226.839 230.886 227.543C231.589 227.805 233.051 227.998 234.561 227.881C235.552 227.69 236.905 226.846 237.503 225.867Z" fill="white"/>
<path d="M224.297 231.289C224.467 231.094 224.617 230.89 224.742 230.68C225.618 229.191 224.991 227.632 223.949 226.246C222.865 224.802 221.6 223.8 220.094 222.756C217.601 223.283 212.766 223.865 209.737 222.989C209.228 224.027 209.2 225.337 209.38 226.199C209.704 227.736 210.628 228.695 211.504 229.35C213.034 230.508 215.248 231.729 216.785 232.418C217.923 232.928 220.336 233.053 221.578 232.866C222.57 232.717 223.599 232.089 224.297 231.289V231.289Z" fill="white"/>
<path d="M87.1299 198.195V124.163C87.1299 123.409 87.5319 122.712 88.1849 122.335L176.985 71.0662C178.392 70.2539 180.151 71.2689 180.151 72.8935V144.489C180.151 145.242 180.553 145.939 181.206 146.316L243.209 182.113C244.616 182.926 244.616 184.956 243.209 185.769L154.409 237.037C153.756 237.414 152.952 237.414 152.299 237.037L88.1849 200.023C87.5319 199.645 87.1299 198.949 87.1299 198.195V198.195Z" fill="white"/>
<path d="M207.721 174.007L135.458 215.728C135.245 215.852 134.981 215.852 134.768 215.728L105.55 198.86C105.09 198.594 105.09 197.931 105.55 197.665L177.813 155.944C178.026 155.821 178.29 155.821 178.503 155.944L207.721 172.813C208.181 173.078 208.181 173.742 207.721 174.007Z" fill="#6F595D" fill-opacity="0.5"/>
<path d="M194.002 184.374C193.079 183.841 192.358 183.424 191.883 183.151C178.584 190.83 165.284 198.509 151.984 206.188C156.145 208.59 179.909 222.31 179.914 222.313C189.987 216.497 211.203 204.248 219.813 199.277C219.813 199.277 201.149 188.501 194.002 184.374Z" fill="white"/>
<path d="M180.15 145.39V72.8935C180.15 71.2689 178.392 70.2539 176.984 71.0662L88.1849 122.334C87.5319 122.711 87.1299 123.408 87.1299 124.161V199.097" fill="white"/>
<path d="M207.024 172.816C202.558 175.395 198.092 177.973 193.626 180.552C184.289 185.942 174.953 191.332 165.616 196.723L140.779 211.063L135.097 214.343C135.021 214.387 134.817 214.457 134.768 214.534C135.246 213.792 135.654 214.758 135.384 214.491C135.289 214.397 135.113 214.334 134.997 214.268L131.175 212.061C123.035 207.361 114.894 202.661 106.754 197.962C106.634 197.893 106.498 197.783 106.365 197.737C106.337 197.728 106.301 197.684 106.271 197.683C106.766 197.713 106.534 198.868 106.246 198.856C106.317 198.859 106.455 198.729 106.516 198.7C107.18 198.381 107.812 197.952 108.45 197.584L116.901 192.704C125.965 187.472 135.028 182.239 144.092 177.006C152.813 171.971 161.533 166.936 170.254 161.901L177.413 157.768C177.658 157.627 178.352 157.388 178.505 157.137C177.939 158.055 177.603 156.898 177.905 157.192C178.007 157.292 178.192 157.358 178.315 157.429L179.808 158.291C188.212 163.144 196.618 167.996 205.023 172.849L206.515 173.711C206.636 173.78 206.772 173.89 206.904 173.936C207.428 174.113 206.299 173.378 206.745 173.033C206.155 173.489 206.266 174.504 206.745 174.983C207.327 175.565 208.104 175.44 208.695 174.983C209.929 174.029 209.477 172.302 208.307 171.559C207.951 171.334 207.574 171.136 207.209 170.926L202.255 168.066L187.717 159.672L181.839 156.278C180.968 155.775 180.11 155.212 179.211 154.761C178.138 154.223 177.349 154.62 176.469 155.128L173.971 156.57L164.484 162.047L151.006 169.829C146.006 172.716 141.005 175.603 136.005 178.491L121.719 186.739L110.614 193.15C108.773 194.213 106.903 195.239 105.085 196.342C103.6 197.242 103.404 199.125 104.964 200.114C105.998 200.77 107.094 201.344 108.155 201.957C112.741 204.604 117.326 207.251 121.912 209.899L133.301 216.475C134.26 217.028 135.116 217.459 136.251 216.864C136.797 216.577 137.323 216.244 137.857 215.936L145.947 211.265C150.182 208.82 154.417 206.375 158.652 203.93C163.619 201.062 168.586 198.195 173.552 195.327L188.253 186.84C192.272 184.52 196.291 182.2 200.31 179.879L207.457 175.752L208.417 175.199C209.954 174.311 208.567 171.927 207.025 172.817L207.024 172.816Z" fill="#211715"/>
<path d="M180.608 221.12L171.189 215.684C166.178 212.791 161.166 209.899 156.155 207.007L152.676 204.999C151.135 204.11 149.745 206.493 151.283 207.381C154.423 209.193 157.563 211.005 160.702 212.817C165.714 215.709 170.725 218.601 175.737 221.494L179.216 223.502C180.757 224.391 182.147 222.008 180.608 221.12Z" fill="#211715"/>
<path d="M190.566 183.982C193.783 185.84 197 187.697 200.217 189.554L215.595 198.433L219.118 200.467C220.658 201.356 222.049 198.973 220.51 198.085C217.294 196.228 214.076 194.371 210.86 192.513L195.482 183.635L191.958 181.601C190.418 180.712 189.028 183.094 190.566 183.982Z" fill="#211715"/>
<path d="M88.5089 198.194V192.758C88.5089 188.248 88.5089 183.739 88.5089 179.229V161.522C88.5089 155.594 88.5089 149.667 88.5089 143.739C88.5089 139.155 88.5089 134.57 88.5089 129.985V125.823C88.5089 125.288 88.442 124.704 88.5089 124.171C88.5813 123.591 89.0701 123.417 89.5204 123.157L91.8544 121.81C94.8091 120.104 97.7637 118.398 100.718 116.692L113.757 109.164C118.85 106.223 123.942 103.283 129.035 100.343C134.313 97.2961 139.591 94.2491 144.869 91.2014C149.698 88.4129 154.528 85.6245 159.358 82.836C163.114 80.6675 166.87 78.4989 170.626 76.3303L176.953 72.6772C177.328 72.4607 177.863 72.0249 178.31 72.209C178.951 72.4724 178.771 73.4736 178.771 74.0315C178.771 77.2633 178.771 80.4958 178.771 83.7276C178.771 86.9594 178.771 94.5063 178.771 99.895C178.771 105.983 178.771 112.07 178.771 118.158C178.771 123.472 178.771 128.786 178.771 134.1C178.771 137.245 178.771 140.39 178.771 143.535C178.771 144.892 178.86 146.182 180.022 147.155C180.525 147.577 181.144 147.875 181.71 148.201L190.45 153.247C195.173 155.974 199.897 158.701 204.621 161.429C209.89 164.471 215.159 167.513 220.429 170.556C224.971 173.177 229.512 175.8 234.053 178.421L241.865 182.932C242.485 183.289 243.458 183.862 242.511 184.58C242.222 184.799 241.857 184.958 241.543 185.139L234.805 189.029L223.194 195.733C218.334 198.539 213.473 201.345 208.614 204.151C203.327 207.203 198.041 210.255 192.755 213.307C187.673 216.24 182.593 219.174 177.512 222.108C173.265 224.56 169.018 227.012 164.771 229.464L156.237 234.392L154.146 235.599C153.728 235.84 153.426 236.045 152.918 235.804C150.953 234.874 149.089 233.594 147.208 232.508C143.082 230.126 138.955 227.743 134.829 225.361L119.298 216.394C114.263 213.487 109.228 210.58 104.194 207.674L92.8715 201.137L89.8527 199.394C89.379 199.12 88.5461 198.82 88.5089 198.196C88.4047 196.432 85.6459 196.42 85.7507 198.196C85.8528 199.924 86.885 200.866 88.233 201.645L91.2518 203.387C95.0159 205.56 98.7794 207.733 102.544 209.906C107.64 212.849 112.735 215.791 117.832 218.733C123.056 221.749 128.28 224.766 133.505 227.782L145.95 234.967C147.815 236.044 149.657 237.189 151.557 238.204C153.773 239.389 155.575 237.959 157.417 236.895L165.857 232.022L178.703 224.605L194.072 215.732L210.078 206.491L224.836 197.97C228.711 195.733 232.587 193.496 236.462 191.258L243.069 187.444C243.568 187.155 244.104 186.887 244.533 186.496C246.281 184.896 245.819 182.138 243.904 180.924C243.795 180.855 243.678 180.793 243.565 180.728C241.188 179.356 238.81 177.983 236.432 176.61C231.942 174.018 227.454 171.426 222.964 168.834C217.655 165.769 212.347 162.704 207.037 159.639C202.201 156.847 197.365 154.055 192.528 151.263C189.457 149.489 186.385 147.716 183.314 145.942C182.858 145.68 182.32 145.45 181.903 145.128C181.375 144.721 181.529 143.935 181.529 143.329C181.529 140.019 181.529 136.71 181.529 133.4C181.529 127.928 181.529 122.456 181.529 116.985V98.5601C181.529 93.2403 181.529 87.9206 181.529 82.6009C181.529 79.5953 181.529 76.5896 181.529 73.5839C181.529 71.8146 180.904 70.086 178.996 69.5371C177.761 69.182 176.713 69.6309 175.691 70.2211L169.531 73.7777C165.758 75.9559 161.985 78.1341 158.213 80.3124C153.349 83.1201 148.485 85.9286 143.622 88.7363C138.296 91.8116 132.97 94.8862 127.644 97.9615C122.483 100.941 117.324 103.92 112.163 106.899C107.797 109.42 103.431 111.941 99.0648 114.461C96.1212 116.161 93.1776 117.86 90.2341 119.56C88.3261 120.661 85.8583 121.592 85.7514 124.163C85.6735 126.032 85.7514 127.921 85.7514 129.791V161.609C85.7514 167.559 85.7514 173.509 85.7514 179.459V198.195C85.7514 199.97 88.5095 199.972 88.5095 198.195L88.5089 198.194Z" fill="#211715"/>
<path d="M178.872 145.225C175.829 146.982 172.786 148.739 169.743 150.496C162.438 154.714 155.133 158.931 147.828 163.149C139.02 168.234 130.211 173.319 121.403 178.405C113.788 182.802 106.174 187.197 98.5595 191.594C94.8561 193.732 91.0623 195.765 87.4278 198.021C87.3775 198.052 87.3251 198.08 87.2733 198.11C85.7364 198.997 87.1237 201.382 88.6655 200.491C91.7084 198.734 94.7513 196.978 97.7942 195.221C105.099 191.003 112.405 186.786 119.709 182.568C128.517 177.483 137.326 172.397 146.134 167.311L168.978 154.123C172.681 151.984 176.475 149.951 180.109 147.696C180.16 147.665 180.212 147.636 180.264 147.607C181.801 146.719 180.413 144.335 178.872 145.225Z" fill="#211715"/>
<path d="M191.153 189.946C191.2 191.59 191.504 193.04 192.248 194.501C193.567 197.106 194.829 198.395 197.735 199.945C200.314 201.32 202.338 202.36 204.985 203.594C208.213 205.097 208.334 208.187 208.231 209.732C207.949 214.003 207.859 216.991 207.752 220.247C207.706 222.01 208.634 222.648 209.611 222.951C212.837 223.946 218.252 223.202 220.579 222.647C220.897 222.573 221.215 222.303 221.438 222.065C221.729 221.761 222.121 221.261 222.175 220.841C222.314 219.672 222.43 218.685 222.534 217.785C226.548 217.779 229.475 217.842 231.296 217.741C233.068 217.642 234.634 216.003 234.902 214.252C234.902 214.252 235.102 212.886 235.116 212.804C235.695 208.294 235.985 204.336 236.275 199.53C236.413 197.144 236.502 194.628 235.42 192.504C234.634 190.98 233.392 189.691 231.944 188.76L191.152 189.946L191.153 189.946Z" fill="#F3D075"/>
<path d="M194.646 157.043C192.511 158.335 191.386 159.539 189.736 162.287C187.109 166.664 186.18 172.364 186.078 177.648C186.049 179.1 186.233 180.983 186.505 182.41C187.148 185.731 189.205 187.975 192.477 189.932C194.481 191.133 197.279 191.622 199.22 192.255L220.931 184.638L229.021 167.252C226.55 161.736 222.768 156.514 218.216 153.037L214.19 151.071L200.207 154.558L194.646 157.043L194.646 157.043Z" fill="white"/>
<path d="M210.35 128.163C205.473 125.847 199.451 126.537 194.689 129.693C189.025 133.445 188.812 140.774 190.843 146.024C189.882 146.595 189.17 147.603 189.063 148.743C188.908 150.388 189.872 152.119 191.259 153.092C192.729 154.122 194.75 154.611 196.474 154.414C200.695 157.398 206.716 157.684 211.227 155.091C212.613 154.294 213.848 153.245 214.883 152.029C219.775 146.278 219.687 136.901 214.571 131.296C213.331 129.938 211.898 128.899 210.35 128.163Z" fill="white"/>
<path d="M219.578 224.071C220.571 224.772 221.517 225.526 222.329 226.434C222.998 227.182 223.903 228.28 223.776 229.365C223.661 230.352 222.538 231.187 221.647 231.439C220.876 231.658 219.743 231.599 218.819 231.493C216.715 231.253 214.695 229.88 212.98 228.716C212.176 228.17 211.378 227.564 210.965 226.654C210.559 225.758 210.522 224.584 210.928 223.679C211.234 223.001 211.124 222.196 210.433 221.793C209.844 221.448 208.854 221.605 208.547 222.288C207.458 224.709 207.787 227.492 209.591 229.481C211.173 231.226 213.606 232.444 215.707 233.432C217.591 234.318 219.892 234.546 221.943 234.195C224.503 233.757 226.837 231.268 226.483 228.596C226.086 225.579 223.292 223.329 220.969 221.689C220.36 221.26 219.435 221.58 219.082 222.185C218.679 222.874 218.967 223.641 219.578 224.071Z" fill="#211715"/>
<path d="M231.449 218.444C232.193 219.387 233.4 220.073 234.315 220.856C235.1 221.529 236.005 222.273 236.385 223.264C236.722 224.142 236.578 225.007 235.896 225.649C235.136 226.366 234.337 226.559 233.315 226.531C231.006 226.469 229.047 225.24 227.177 223.981C226.252 223.359 225.438 222.689 224.86 221.722C224.439 221.018 224.052 220.028 224.321 219.249C224.902 217.568 222.239 216.846 221.661 218.516C220.919 220.661 222.244 223.169 223.677 224.694C224.523 225.593 225.607 226.271 226.645 226.926C227.727 227.608 228.852 228.196 230.035 228.683C232.087 229.524 234.776 229.654 236.707 228.469C238.779 227.197 239.851 224.912 239.044 222.531C238.594 221.203 237.671 220.161 236.644 219.239C236.097 218.748 235.521 218.291 234.949 217.83C234.428 217.41 233.814 217.021 233.399 216.494C232.937 215.909 231.932 216.011 231.449 216.494C230.871 217.072 230.986 217.858 231.449 218.444V218.444Z" fill="#211715"/>
<path d="M218.97 164.957V175.102C218.97 176.876 221.728 176.879 221.728 175.102V164.957C221.728 163.182 218.97 163.18 218.97 164.957Z" fill="#211715"/>
<path d="M231.249 189.951C233.459 191.412 234.784 193.561 234.946 196.218C235.122 199.094 234.755 202.053 234.534 204.92C234.336 207.497 234.109 210.148 233.752 212.667C233.522 214.289 233.122 216.192 231.136 216.371C228.505 216.608 225.787 216.408 223.15 216.407C221.375 216.406 221.372 219.164 223.15 219.165C225.805 219.166 228.485 219.288 231.136 219.129C233.803 218.969 235.881 216.924 236.277 214.308C236.689 211.596 236.968 208.863 237.195 206.129C237.467 202.871 237.901 199.488 237.704 196.219C237.482 192.546 235.699 189.592 232.639 187.57C231.154 186.589 229.772 188.976 231.247 189.952L231.249 189.951Z" fill="#211715"/>
<path d="M221.254 197.078C221.762 197.431 222.128 197.952 222.377 198.514C222.486 198.758 222.562 199.021 222.63 199.279C222.666 199.42 222.701 199.562 222.727 199.706C222.75 199.834 222.71 199.472 222.727 199.749C222.793 200.777 222.744 201.81 222.688 202.836C222.542 205.461 222.239 208.071 221.949 210.683C221.696 212.966 221.447 215.249 221.185 217.53C221.119 218.104 221.053 218.678 220.985 219.252C220.912 219.875 220.96 220.514 220.54 221.006C219.983 221.659 218.552 221.659 217.748 221.771C215.317 222.109 212.576 222.356 210.182 221.68C209.165 221.393 209.114 220.797 209.149 219.734C209.194 218.367 209.239 217.001 209.295 215.635C209.356 214.155 209.43 212.675 209.519 211.197C209.583 210.141 209.692 209.096 209.569 208.042C209.271 205.492 207.866 203.442 205.53 202.332C203.904 201.558 202.287 200.773 200.689 199.943C199.19 199.165 197.607 198.434 196.251 197.414C193.945 195.678 192.643 192.783 192.532 189.946C192.463 188.177 189.704 188.169 189.774 189.946C189.896 193.086 191.085 196.155 193.275 198.443C195.466 200.732 198.665 202.035 201.445 203.416C202.837 204.107 204.598 204.621 205.707 205.745C206.382 206.431 206.746 207.438 206.839 208.291C206.972 209.505 206.784 210.76 206.715 211.971C206.622 213.625 206.547 215.281 206.486 216.937C206.433 218.374 206.185 219.988 206.476 221.405C206.764 222.804 207.766 223.765 209.082 224.227C211.702 225.147 214.833 224.899 217.536 224.557C218.725 224.408 220.052 224.312 221.183 223.888C221.953 223.599 222.557 222.964 223.012 222.297C223.517 221.558 223.566 220.752 223.668 219.888C223.961 217.403 224.239 214.917 224.514 212.43C224.87 209.198 225.277 205.969 225.451 202.721C225.517 201.501 225.609 200.233 225.395 199.022C225.085 197.264 224.107 195.711 222.646 194.696C221.186 193.681 219.805 196.071 221.254 197.078Z" fill="#211715"/>
<path d="M199.587 190.926C198.262 190.503 196.902 190.199 195.578 189.774C194.253 189.348 193.069 188.734 191.924 187.936C189.93 186.547 188.409 184.69 187.885 182.284C187.255 179.387 187.401 176.34 187.727 173.414C188.056 170.453 188.728 167.42 190.005 164.715C191.238 162.103 192.855 159.758 195.342 158.234C196.853 157.308 195.469 154.921 193.95 155.852C188.541 159.169 186.059 165.706 185.186 171.728C184.691 175.139 184.518 178.566 185.04 181.983C185.482 184.877 186.881 187.378 189.135 189.255C190.546 190.431 192.086 191.403 193.801 192.068C195.444 192.705 197.178 193.051 198.854 193.586C200.548 194.127 201.274 191.465 199.587 190.927L199.587 190.926Z" fill="#211715"/>
<path d="M229.023 189.495C223.705 192.57 216.272 196.825 212.737 198.923C212.305 199.18 211.776 199.182 211.343 198.929C208.674 197.368 202.381 193.757 199.9 192.295L213.819 184.389C214.083 181.773 214.316 179.461 214.316 179.461C214.36 179.023 214.61 178.632 214.99 178.41C220.086 175.432 228.379 170.688 233.372 167.783C234.346 167.217 235.548 167.994 235.434 169.115C234.862 174.777 234.292 180.438 233.724 186.101C233.68 186.538 233.435 186.925 233.057 187.148C232.006 187.767 230.609 188.578 229.023 189.495Z" fill="white"/>
<path d="M195.929 172.097C195.409 174.769 195.163 177.5 194.922 180.208C194.858 180.929 195.602 181.618 196.301 181.587C197.103 181.551 197.611 180.98 197.68 180.208C197.808 178.767 197.949 177.327 198.123 175.891C198.16 175.582 198.198 175.274 198.24 174.966C198.194 175.308 198.262 174.811 198.271 174.751C198.289 174.622 198.308 174.492 198.328 174.362C198.405 173.85 198.49 173.339 198.589 172.83C198.726 172.124 198.39 171.308 197.625 171.134C196.944 170.979 196.075 171.34 195.929 172.097Z" fill="#211715"/>
<path d="M199.204 193.485C202.024 195.146 204.866 196.77 207.7 198.409C208.35 198.785 209.001 199.161 209.65 199.539C210.399 199.974 211.136 200.497 212.04 200.496C213.424 200.494 214.939 199.224 216.1 198.549C221.887 195.179 227.781 191.967 233.502 188.486C234.292 188.004 234.876 187.402 235.054 186.466C235.307 185.132 235.342 183.714 235.478 182.363C235.74 179.758 236.002 177.154 236.264 174.55C236.39 173.304 236.515 172.058 236.642 170.813C236.758 169.662 237.043 168.482 236.357 167.45C235.841 166.673 234.91 166.175 233.971 166.217C232.998 166.262 232.176 166.883 231.363 167.354C227.884 169.37 224.398 171.372 220.915 173.381C219.219 174.359 217.524 175.338 215.831 176.322C214.426 177.139 213.129 177.762 212.929 179.536C212.471 183.593 212.109 187.663 211.699 191.725C211.624 192.467 212.387 193.104 213.078 193.104C213.887 193.104 214.382 192.469 214.457 191.725C214.818 188.153 215.178 184.58 215.539 181.008C215.584 180.558 215.53 179.916 215.692 179.488C215.67 179.545 215.733 179.583 215.686 179.6C216.043 179.467 216.396 179.185 216.726 178.993C217.45 178.572 218.175 178.151 218.9 177.73C222.155 175.845 225.416 173.97 228.675 172.091C230.165 171.232 231.654 170.373 233.142 169.51C233.45 169.331 233.77 169.166 234.068 168.973C234.081 168.964 234.064 168.998 234.071 168.95C233.953 169.795 233.85 171.142 233.746 172.171C233.506 174.549 233.266 176.926 233.026 179.305C232.906 180.493 232.787 181.683 232.668 182.872C232.611 183.438 232.554 184.004 232.498 184.57C232.462 184.922 232.542 185.725 232.325 186.007C232.235 186.123 231.362 186.541 231.063 186.715C230.495 187.046 229.926 187.376 229.356 187.707C228.018 188.482 226.677 189.255 225.337 190.027C222.457 191.687 219.574 193.344 216.698 195.01C215.361 195.784 214.024 196.56 212.692 197.345C212.56 197.423 212.186 197.728 212.039 197.736C211.872 197.745 211.493 197.419 211.348 197.335C210.692 196.953 210.035 196.573 209.377 196.193C206.448 194.498 203.51 192.82 200.594 191.102C199.061 190.2 197.672 192.583 199.202 193.484L199.204 193.485Z" fill="#211715"/>
<path d="M192.005 145.204C190.606 141.176 190.478 136.082 193.404 132.66C196.477 129.067 202.136 127.502 206.696 128.409C211.608 129.386 215.315 133.095 216.594 137.899C217.83 142.542 216.832 147.89 213.534 151.476C209.339 156.038 202.309 156.744 197.214 153.252C195.746 152.246 194.365 154.635 195.822 155.634C201.111 159.258 208.55 159.069 213.611 155.132C218.366 151.433 220.478 145.256 219.681 139.368C218.886 133.494 215.129 128.361 209.491 126.322C204.046 124.353 197.505 125.666 193.004 129.229C188.025 133.17 187.374 140.264 189.345 145.937C189.923 147.603 192.589 146.886 192.004 145.204H192.005Z" fill="#211715"/>
<path d="M191.869 144.211C190.384 144.412 188.997 145.437 188.279 146.741C187.49 148.177 187.521 149.847 188.15 151.335C189.437 154.386 192.865 155.956 196.058 155.827C196.778 155.798 197.471 155.213 197.437 154.448C197.404 153.726 196.83 153.038 196.058 153.069C195.75 153.081 195.443 153.079 195.136 153.056C195.086 153.052 194.637 152.996 194.855 153.03C194.71 153.007 194.566 152.98 194.423 152.95C194.135 152.888 193.851 152.812 193.571 152.72C193.431 152.675 193.293 152.624 193.156 152.572C192.895 152.471 193.176 152.597 192.948 152.479C192.669 152.334 192.395 152.193 192.132 152.021C192.087 151.992 191.737 151.728 191.914 151.873C191.81 151.787 191.708 151.697 191.611 151.603C191.514 151.509 191.419 151.411 191.328 151.31C191.324 151.306 191.064 150.98 191.202 151.166C191.028 150.93 190.875 150.676 190.743 150.414C190.712 150.354 190.683 150.294 190.655 150.232C190.697 150.335 190.701 150.342 190.666 150.252C190.611 150.105 190.562 149.958 190.522 149.807C190.488 149.68 190.46 149.55 190.437 149.42C190.48 149.661 190.432 149.339 190.429 149.266C190.424 149.134 190.429 149.006 190.432 148.874C190.437 148.552 190.372 149.013 190.451 148.736C190.484 148.616 190.517 148.495 190.55 148.374C190.606 148.224 190.606 148.217 190.549 148.356C190.575 148.299 190.603 148.244 190.633 148.189C190.69 148.079 190.755 147.972 190.824 147.869C190.857 147.816 190.893 147.765 190.93 147.715C190.843 147.831 190.85 147.828 190.952 147.707C191.041 147.622 191.131 147.531 191.217 147.443C191.459 147.191 191.036 147.542 191.328 147.35C191.432 147.282 191.535 147.214 191.644 147.153C191.713 147.116 191.987 146.994 191.763 147.082C192.034 146.976 192.315 146.912 192.603 146.873C193.32 146.776 193.774 145.819 193.566 145.177C193.311 144.387 192.638 144.109 191.87 144.213L191.869 144.211Z" fill="#211715"/>
<path d="M209.974 145.673C209.981 145.773 210.064 146.775 210.843 147.303C211.354 147.649 211.857 147.555 212.015 147.523C212.137 147.498 212.928 147.32 213.274 146.471C213.602 145.666 213.419 144.532 212.7 143.918C211.956 143.282 210.996 143.475 210.466 144.082C209.988 144.628 209.944 145.163 209.973 145.674L209.974 145.673Z" fill="#211715"/>
<path d="M201.502 147.948C201.51 148.048 201.592 149.05 202.423 149.573C202.968 149.916 203.507 149.819 203.676 149.786C203.807 149.761 204.655 149.577 205.031 148.726C205.386 147.918 205.197 146.785 204.432 146.175C203.639 145.543 202.611 145.742 202.04 146.352C201.526 146.9 201.475 147.438 201.502 147.948Z" fill="#211715"/>
<path d="M208.463 185.768C208.264 185.473 208.027 185.199 207.756 184.952C205.893 183.252 202.223 182.925 200.66 185.145C199.506 186.786 198.839 188.585 198.77 190.791C198.763 191.002 198.71 191.292 199.031 191.613C199.672 192.088 201.023 192.992 202.996 193.28C204.304 193.47 205.183 193.331 206.3 192.647C209.431 190.732 209.815 187.773 208.463 185.768Z" fill="white"/>
<path d="M209.653 185.071C208.132 182.897 205.493 181.897 202.895 182.302C200.146 182.731 198.604 185.277 197.863 187.75C197.647 188.469 197.525 189.213 197.447 189.96C197.373 190.669 197.302 191.425 197.664 192.074C198.222 193.076 199.702 193.691 200.711 194.093C202.074 194.636 203.635 194.887 205.087 194.619C206.475 194.362 207.844 193.419 208.796 192.402C210.663 190.408 211.2 187.423 209.655 185.07C209.247 184.448 208.435 184.185 207.768 184.575C207.151 184.936 206.863 185.837 207.273 186.462C207.382 186.628 207.475 186.799 207.57 186.973C207.61 187.047 207.687 187.276 207.583 186.986C207.619 187.087 207.657 187.187 207.688 187.289C207.741 187.46 207.766 187.637 207.812 187.809C207.739 187.536 207.8 187.671 207.806 187.762C207.814 187.907 207.826 188.049 207.824 188.194C207.823 188.285 207.815 188.376 207.812 188.467C207.81 188.555 207.757 188.795 207.817 188.485C207.781 188.671 207.744 188.855 207.689 189.036C207.656 189.148 207.616 189.256 207.576 189.366C207.666 189.12 207.601 189.311 207.575 189.364C207.46 189.584 207.346 189.801 207.208 190.007C207.197 190.022 206.945 190.354 207.114 190.146C207.043 190.233 206.969 190.317 206.893 190.401C206.716 190.593 206.524 190.766 206.333 190.942C206.076 191.177 205.497 191.552 205.041 191.762C205.208 191.685 204.936 191.803 204.896 191.816C204.785 191.854 204.673 191.887 204.559 191.915C204.542 191.919 204.103 191.984 204.377 191.957C204.282 191.967 204.187 191.971 204.092 191.974C203.497 191.992 203.11 191.927 202.535 191.784C201.562 191.541 201.003 191.286 200.135 190.706C200.022 190.63 199.908 190.526 199.788 190.463L200.047 190.68C200.124 191.092 200.157 191.185 200.144 190.96C200.157 190.917 200.15 190.828 200.151 190.788C200.17 190.151 200.21 189.79 200.332 189.227C200.577 188.092 200.904 187.317 201.514 186.348C201.568 186.262 201.623 186.177 201.68 186.092C201.693 186.072 201.991 185.669 201.783 185.925C201.908 185.771 202.049 185.639 202.192 185.503C202.447 185.26 201.976 185.611 202.281 185.44C202.348 185.402 202.411 185.357 202.478 185.319C202.578 185.262 202.681 185.211 202.785 185.161C202.507 185.292 202.82 185.154 202.888 185.132C203.112 185.059 203.34 185.009 203.572 184.968C203.239 185.027 203.624 184.968 203.678 184.964C203.798 184.956 203.918 184.952 204.038 184.952C204.159 184.952 204.279 184.956 204.4 184.965C204.503 184.971 204.764 185.005 204.516 184.967C204.756 185.003 204.994 185.054 205.229 185.119C205.345 185.151 205.461 185.187 205.576 185.227C205.651 185.253 205.727 185.28 205.802 185.309C205.676 185.253 205.658 185.247 205.749 185.287C205.964 185.385 206.173 185.495 206.375 185.62C206.458 185.671 206.536 185.726 206.618 185.78C206.837 185.923 206.495 185.651 206.742 185.884C206.964 186.093 207.167 186.304 207.275 186.459C207.702 187.068 208.482 187.351 209.162 186.954C209.765 186.601 210.086 185.68 209.657 185.067L209.653 185.071Z" fill="#211715"/>
<path d="M217.519 154.228C222.088 157.749 225.477 162.734 227.83 167.948C228.136 168.627 229.122 168.79 229.716 168.443C230.415 168.035 230.519 167.238 230.212 166.556C227.644 160.869 223.873 155.67 218.912 151.847C218.321 151.392 217.367 151.757 217.025 152.342C216.608 153.054 216.928 153.773 217.52 154.229L217.519 154.228Z" fill="#211715"/>
<path d="M216.067 136.478C214.526 137.705 211.689 136.337 210.142 135.762C207.922 134.936 206.227 135.806 204.489 137.185C203.809 137.724 203.174 138.321 202.448 138.798C201.488 139.428 200.489 140.008 199.489 140.57C197.395 141.746 195.232 142.794 192.981 143.632C191.332 144.245 192.045 146.912 193.714 146.291C198.111 144.656 202.399 142.449 206.031 139.466C206.622 138.981 207.396 138.255 208.187 138.143C208.641 138.079 209.127 138.317 209.546 138.473C210.101 138.681 210.654 138.877 211.22 139.052C213.568 139.78 215.987 140.048 218.019 138.429C218.602 137.965 218.503 136.964 218.019 136.479C217.443 135.904 216.653 136.014 216.069 136.479L216.067 136.478Z" fill="#211715"/>
<mask id="mask0_713_929" style="mask-type:alpha" maskUnits="userSpaceOnUse" x="108" y="160" width="94" height="55">
<path d="M201.405 176.759L136.069 214.328C135.877 214.439 135.638 214.439 135.446 214.328L109.029 199.138C108.613 198.899 108.613 198.302 109.029 198.063L174.364 160.494C174.557 160.383 174.795 160.383 174.988 160.494L201.405 175.684C201.821 175.923 201.821 176.52 201.405 176.759Z" fill="white"/>
</mask>
<g mask="url(#mask0_713_929)">
<g filter="url(#filter0_f_713_929)">
<ellipse cx="139.717" cy="192.911" rx="5" ry="11.5" fill="#FFD3C3"/>
</g>
<g filter="url(#filter1_f_713_929)">
<ellipse cx="117.717" cy="202.911" rx="5" ry="11.5" fill="#FFD3C3"/>
</g>
<g filter="url(#filter2_f_713_929)">
<ellipse cx="170.717" cy="186.911" rx="5" ry="11.5" fill="#FFD3C3"/>
</g>
</g>
<mask id="mask1_713_929" style="mask-type:alpha" maskUnits="userSpaceOnUse" x="83" y="72" width="94" height="129">
<path d="M176.737 147.021V74.5243C176.737 72.8998 174.979 71.8848 173.571 72.6971L84.7718 123.965C84.1188 124.342 83.7168 125.038 83.7168 125.792V200.728" fill="white"/>
</mask>
<g mask="url(#mask1_713_929)">
<path d="M134.714 157.151C131.723 157.151 128.75 158.748 127.375 161.411C125.673 164.71 126.534 168.184 128.239 171.253C129.837 174.071 131.683 176.74 133.755 179.231L134.063 179.609C134.142 179.705 134.241 179.782 134.353 179.835C134.465 179.888 134.588 179.916 134.712 179.916C134.836 179.916 134.959 179.888 135.071 179.835C135.183 179.782 135.282 179.705 135.361 179.609L135.669 179.231C137.741 176.74 139.587 174.071 141.185 171.253C142.891 168.184 143.752 164.71 142.049 161.411C140.678 158.748 137.731 157.151 134.714 157.151Z" fill="#CE917B"/>
<path d="M134.714 156.411C130.579 156.44 126.774 159.189 125.912 163.316C124.944 167.949 127.759 172.296 130.302 175.91C130.959 176.843 131.646 177.755 132.351 178.653C132.652 179.036 132.957 179.416 133.266 179.793C133.46 180.077 133.714 180.315 134.011 180.488C134.245 180.603 134.503 180.66 134.763 180.652C135.024 180.644 135.278 180.573 135.505 180.445C135.771 180.262 136.002 180.032 136.186 179.766C136.882 178.913 137.56 178.045 138.219 177.164C139.637 175.297 140.909 173.324 142.024 171.263C143.062 169.296 143.809 167.086 143.708 164.837C143.666 163.655 143.384 162.495 142.877 161.426C142.37 160.358 141.65 159.405 140.761 158.626C139.066 157.203 136.926 156.42 134.714 156.413C133.761 156.407 133.76 157.887 134.714 157.893C136.37 157.899 137.984 158.417 139.334 159.376C140.764 160.424 141.748 161.971 142.089 163.711C142.478 165.584 142.071 167.534 141.341 169.273C140.534 171.195 139.346 172.992 138.169 174.704C137.584 175.553 136.977 176.385 136.347 177.201C136.041 177.598 135.73 177.99 135.415 178.38C135.239 178.622 135.05 178.855 134.848 179.076C134.716 179.204 134.719 179.205 134.589 179.086C134.413 178.899 134.25 178.699 134.102 178.489C133.462 177.699 132.84 176.895 132.236 176.077C130.979 174.382 129.835 172.605 128.814 170.759C127.879 169.046 127.179 167.14 127.193 165.167C127.192 164.145 127.407 163.134 127.826 162.202C128.244 161.27 128.855 160.437 129.62 159.758C131.043 158.552 132.849 157.891 134.715 157.892C135.666 157.885 135.668 156.405 134.714 156.411Z" fill="#211715"/>
<path d="M134.714 162.19C134.332 162.182 133.953 162.252 133.598 162.394C133.244 162.536 132.922 162.748 132.651 163.017C132.38 163.286 132.166 163.607 132.022 163.96C131.878 164.314 131.807 164.693 131.812 165.074C131.812 166.814 133.023 168.012 134.714 168.012C136.469 168.012 137.616 166.803 137.616 165.074C137.621 164.693 137.55 164.313 137.406 163.96C137.262 163.606 137.048 163.285 136.777 163.016C136.506 162.747 136.184 162.535 135.829 162.393C135.475 162.251 135.095 162.182 134.714 162.19Z" fill="white"/>
<path d="M134.714 161.45C133.94 161.448 133.186 161.692 132.561 162.147C131.936 162.602 131.471 163.244 131.235 163.981C131.013 164.69 131.006 165.449 131.216 166.162C131.426 166.875 131.843 167.509 132.414 167.985C133.015 168.432 133.732 168.697 134.48 168.747C135.228 168.797 135.974 168.631 136.63 168.268C137.966 167.505 138.521 165.927 138.3 164.454C138.154 163.61 137.714 162.845 137.058 162.295C136.401 161.744 135.57 161.445 134.714 161.45C133.761 161.438 133.761 162.918 134.714 162.93C135.216 162.92 135.706 163.083 136.101 163.393C135.994 163.31 136.178 163.465 136.178 163.465C136.214 163.498 136.249 163.533 136.283 163.568C136.335 163.62 136.384 163.674 136.431 163.731C136.357 163.641 136.454 163.762 136.469 163.786C136.616 163.982 136.724 164.204 136.787 164.441C136.915 164.894 136.911 165.374 136.776 165.825C136.759 165.883 136.741 165.941 136.721 165.998C136.717 166.009 136.624 166.219 136.689 166.084C136.639 166.189 136.584 166.291 136.522 166.389C136.413 166.569 136.27 166.726 136.101 166.852C136.217 166.754 136.043 166.891 136.031 166.899C135.993 166.924 135.953 166.949 135.914 166.972C135.852 167.008 135.791 167.038 135.729 167.071C135.536 167.175 135.8 167.048 135.678 167.095C135.553 167.143 135.424 167.182 135.294 167.212C135.245 167.223 135.195 167.232 135.146 167.243C135.056 167.257 135.046 167.259 135.115 167.25C135.063 167.256 135.011 167.261 134.958 167.264C134.824 167.273 134.69 167.274 134.556 167.268C134.478 167.264 134.399 167.26 134.322 167.249C134.359 167.254 134.435 167.274 134.292 167.241C134.159 167.21 134.027 167.182 133.897 167.139C133.84 167.12 133.783 167.101 133.728 167.078C133.851 167.131 133.639 167.028 133.615 167.016C133.501 166.956 133.393 166.886 133.291 166.808C133.381 166.879 133.162 166.685 133.128 166.649C132.977 166.49 132.853 166.308 132.761 166.11C132.658 165.919 132.792 166.229 132.722 166.02C132.706 165.974 132.689 165.928 132.674 165.881C132.628 165.736 132.593 165.588 132.57 165.438C132.575 165.473 132.577 165.554 132.567 165.4C132.561 165.319 132.555 165.239 132.553 165.158C132.551 165.091 132.553 165.025 132.553 164.959C132.553 164.931 132.576 164.685 132.559 164.813C132.611 164.295 132.857 163.816 133.247 163.471C133.323 163.391 133.411 163.324 133.507 163.271C133.571 163.231 133.636 163.194 133.703 163.159C133.71 163.155 133.911 163.064 133.803 163.108C133.949 163.05 134.099 163.005 134.253 162.973C134.245 162.973 134.502 162.933 134.376 162.949C134.488 162.937 134.6 162.931 134.712 162.931C135.665 162.918 135.668 161.438 134.714 161.45Z" fill="#211715"/>
<path d="M157.714 100.151C154.723 100.151 151.75 101.748 150.375 104.411C148.673 107.71 149.534 111.184 151.239 114.253C152.837 117.071 154.683 119.74 156.755 122.231L157.063 122.609C157.142 122.705 157.241 122.782 157.353 122.835C157.465 122.888 157.588 122.916 157.712 122.916C157.836 122.916 157.959 122.888 158.071 122.835C158.183 122.782 158.282 122.705 158.361 122.609L158.669 122.231C160.741 119.74 162.587 117.071 164.185 114.253C165.891 111.184 166.752 107.71 165.049 104.411C163.678 101.748 160.731 100.151 157.714 100.151Z" fill="#CE917B"/>
<path d="M157.714 99.4112C153.579 99.4395 149.774 102.189 148.912 106.316C147.944 110.949 150.759 115.296 153.302 118.91C153.959 119.843 154.646 120.755 155.351 121.653C155.652 122.036 155.957 122.416 156.266 122.793C156.46 123.077 156.714 123.315 157.011 123.488C157.245 123.603 157.503 123.66 157.763 123.652C158.024 123.644 158.278 123.573 158.505 123.445C158.771 123.262 159.002 123.032 159.186 122.766C159.882 121.913 160.56 121.045 161.219 120.164C162.637 118.297 163.909 116.324 165.024 114.263C166.062 112.296 166.809 110.086 166.708 107.837C166.666 106.655 166.384 105.495 165.877 104.426C165.37 103.358 164.65 102.405 163.761 101.626C162.066 100.203 159.926 99.42 157.714 99.413C156.761 99.4065 156.76 100.887 157.714 100.893C159.37 100.899 160.984 101.417 162.334 102.376C163.764 103.424 164.748 104.971 165.089 106.711C165.478 108.584 165.071 110.534 164.341 112.273C163.534 114.195 162.346 115.992 161.169 117.704C160.584 118.553 159.977 119.385 159.347 120.201C159.041 120.598 158.73 120.99 158.415 121.38C158.239 121.622 158.05 121.855 157.848 122.076C157.716 122.204 157.719 122.205 157.589 122.086C157.413 121.899 157.25 121.699 157.102 121.489C156.462 120.699 155.84 119.895 155.236 119.077C153.979 117.382 152.835 115.605 151.814 113.759C150.879 112.046 150.179 110.14 150.193 108.167C150.192 107.145 150.407 106.134 150.826 105.202C151.244 104.27 151.855 103.437 152.62 102.758C154.043 101.552 155.849 100.891 157.715 100.892C158.666 100.885 158.668 99.4047 157.714 99.4112Z" fill="#211715"/>
<path d="M157.714 105.19C157.332 105.182 156.953 105.252 156.598 105.394C156.244 105.536 155.922 105.748 155.651 106.017C155.38 106.286 155.166 106.607 155.022 106.96C154.878 107.314 154.807 107.693 154.812 108.074C154.812 109.814 156.023 111.012 157.714 111.012C159.469 111.012 160.616 109.803 160.616 108.074C160.621 107.693 160.55 107.313 160.406 106.96C160.262 106.606 160.048 106.285 159.777 106.016C159.506 105.747 159.184 105.535 158.829 105.393C158.475 105.251 158.095 105.182 157.714 105.19Z" fill="white"/>
<path d="M157.714 104.45C156.94 104.448 156.186 104.692 155.561 105.147C154.936 105.602 154.471 106.244 154.235 106.981C154.013 107.69 154.006 108.449 154.216 109.162C154.426 109.875 154.843 110.509 155.414 110.985C156.015 111.432 156.732 111.697 157.48 111.747C158.228 111.797 158.974 111.631 159.63 111.268C160.966 110.505 161.521 108.927 161.3 107.454C161.154 106.61 160.714 105.845 160.058 105.295C159.401 104.744 158.57 104.445 157.714 104.45C156.761 104.438 156.761 105.918 157.714 105.93C158.216 105.92 158.706 106.083 159.101 106.393C158.994 106.31 159.178 106.465 159.178 106.465C159.214 106.498 159.249 106.533 159.283 106.568C159.335 106.62 159.384 106.674 159.431 106.731C159.357 106.641 159.454 106.762 159.469 106.786C159.616 106.982 159.724 107.204 159.787 107.441C159.915 107.894 159.911 108.374 159.776 108.825C159.759 108.883 159.741 108.941 159.721 108.998C159.717 109.009 159.624 109.219 159.689 109.084C159.639 109.189 159.584 109.291 159.522 109.389C159.413 109.569 159.27 109.726 159.101 109.852C159.217 109.754 159.043 109.891 159.031 109.899C158.993 109.924 158.953 109.949 158.914 109.972C158.852 110.008 158.791 110.038 158.729 110.071C158.536 110.175 158.8 110.048 158.678 110.095C158.553 110.143 158.424 110.182 158.294 110.212C158.245 110.223 158.195 110.232 158.146 110.243C158.056 110.257 158.046 110.259 158.115 110.25C158.063 110.256 158.011 110.261 157.958 110.264C157.824 110.273 157.69 110.274 157.556 110.268C157.478 110.264 157.399 110.26 157.322 110.249C157.359 110.254 157.435 110.274 157.292 110.241C157.159 110.21 157.027 110.182 156.897 110.139C156.84 110.12 156.783 110.101 156.728 110.078C156.851 110.131 156.639 110.028 156.615 110.016C156.501 109.956 156.393 109.886 156.291 109.808C156.381 109.879 156.162 109.685 156.128 109.649C155.977 109.49 155.853 109.308 155.761 109.11C155.658 108.919 155.792 109.229 155.722 109.02C155.706 108.974 155.689 108.928 155.674 108.881C155.628 108.736 155.593 108.588 155.57 108.438C155.575 108.473 155.577 108.554 155.567 108.4C155.561 108.319 155.555 108.239 155.553 108.158C155.551 108.091 155.553 108.025 155.553 107.959C155.553 107.931 155.576 107.685 155.559 107.813C155.611 107.295 155.857 106.816 156.247 106.471C156.323 106.391 156.411 106.324 156.507 106.271C156.571 106.231 156.636 106.194 156.703 106.159C156.71 106.155 156.911 106.064 156.803 106.108C156.949 106.05 157.099 106.005 157.253 105.973C157.245 105.973 157.502 105.933 157.376 105.949C157.488 105.937 157.6 105.931 157.712 105.931C158.665 105.918 158.668 104.438 157.714 104.45Z" fill="#211715"/>
<path d="M106.714 139.151C103.723 139.151 100.75 140.748 99.3753 143.411C97.6729 146.71 98.5339 150.184 100.239 153.253C101.837 156.071 103.683 158.74 105.755 161.231L106.063 161.609C106.142 161.705 106.241 161.782 106.353 161.835C106.465 161.888 106.588 161.916 106.712 161.916C106.836 161.916 106.959 161.888 107.071 161.835C107.183 161.782 107.282 161.705 107.361 161.609L107.669 161.231C109.741 158.74 111.587 156.071 113.185 153.253C114.891 150.184 115.752 146.71 114.049 143.411C112.678 140.748 109.731 139.151 106.714 139.151Z" fill="#CE917B"/>
<path d="M106.714 138.411C102.579 138.44 98.7742 141.189 97.9121 145.316C96.9442 149.949 99.7587 154.296 102.302 157.91C102.959 158.843 103.646 159.755 104.351 160.653C104.652 161.036 104.957 161.416 105.266 161.793C105.46 162.077 105.714 162.315 106.011 162.488C106.245 162.603 106.503 162.66 106.763 162.652C107.024 162.644 107.278 162.573 107.505 162.445C107.771 162.262 108.002 162.032 108.186 161.766C108.882 160.913 109.56 160.045 110.219 159.164C111.637 157.297 112.909 155.324 114.024 153.263C115.062 151.296 115.809 149.086 115.708 146.837C115.666 145.655 115.384 144.495 114.877 143.426C114.37 142.358 113.65 141.405 112.761 140.626C111.066 139.203 108.926 138.42 106.714 138.413C105.761 138.407 105.76 139.887 106.714 139.893C108.37 139.899 109.984 140.417 111.334 141.376C112.764 142.424 113.748 143.971 114.089 145.711C114.478 147.584 114.071 149.534 113.341 151.273C112.534 153.195 111.346 154.992 110.169 156.704C109.584 157.553 108.977 158.385 108.347 159.201C108.041 159.598 107.73 159.99 107.415 160.38C107.239 160.622 107.05 160.855 106.848 161.076C106.716 161.204 106.719 161.205 106.589 161.086C106.413 160.899 106.25 160.699 106.102 160.489C105.462 159.699 104.84 158.895 104.236 158.077C102.979 156.382 101.835 154.605 100.814 152.759C99.8787 151.046 99.1794 149.14 99.1932 147.167C99.1919 146.145 99.4074 145.134 99.8257 144.202C100.244 143.27 100.855 142.437 101.62 141.758C103.043 140.552 104.849 139.891 106.715 139.892C107.666 139.885 107.668 138.405 106.714 138.411Z" fill="#211715"/>
<path d="M106.714 144.19C106.332 144.182 105.953 144.252 105.598 144.394C105.244 144.536 104.922 144.748 104.651 145.017C104.38 145.286 104.166 145.607 104.022 145.96C103.878 146.314 103.807 146.693 103.812 147.074C103.812 148.814 105.023 150.012 106.714 150.012C108.469 150.012 109.616 148.803 109.616 147.074C109.621 146.693 109.55 146.313 109.406 145.96C109.262 145.606 109.048 145.285 108.777 145.016C108.506 144.747 108.184 144.535 107.829 144.393C107.475 144.251 107.095 144.182 106.714 144.19Z" fill="white"/>
<path d="M106.714 143.45C105.94 143.448 105.186 143.692 104.561 144.147C103.936 144.602 103.471 145.244 103.235 145.981C103.013 146.69 103.006 147.449 103.216 148.162C103.426 148.875 103.843 149.509 104.414 149.985C105.015 150.432 105.732 150.697 106.48 150.747C107.228 150.797 107.974 150.631 108.63 150.268C109.966 149.505 110.521 147.927 110.3 146.454C110.154 145.61 109.714 144.845 109.058 144.295C108.401 143.744 107.57 143.445 106.714 143.45C105.761 143.438 105.761 144.918 106.714 144.93C107.216 144.92 107.706 145.083 108.101 145.393C107.994 145.31 108.178 145.465 108.178 145.465C108.214 145.498 108.249 145.533 108.283 145.568C108.335 145.62 108.384 145.674 108.431 145.731C108.357 145.641 108.454 145.762 108.469 145.786C108.616 145.982 108.724 146.204 108.787 146.441C108.915 146.894 108.911 147.374 108.776 147.825C108.759 147.883 108.741 147.941 108.721 147.998C108.717 148.009 108.624 148.219 108.689 148.084C108.639 148.189 108.584 148.291 108.522 148.389C108.413 148.569 108.27 148.726 108.101 148.852C108.217 148.754 108.043 148.891 108.031 148.899C107.993 148.924 107.953 148.949 107.914 148.972C107.852 149.008 107.791 149.038 107.729 149.071C107.536 149.175 107.8 149.048 107.678 149.095C107.553 149.143 107.424 149.182 107.294 149.212C107.245 149.223 107.195 149.232 107.146 149.243C107.056 149.257 107.046 149.259 107.115 149.25C107.063 149.256 107.011 149.261 106.958 149.264C106.824 149.273 106.69 149.274 106.556 149.268C106.478 149.264 106.399 149.26 106.322 149.249C106.359 149.254 106.435 149.274 106.292 149.241C106.159 149.21 106.027 149.182 105.897 149.139C105.84 149.12 105.783 149.101 105.728 149.078C105.851 149.131 105.639 149.028 105.615 149.016C105.501 148.956 105.393 148.886 105.291 148.808C105.381 148.879 105.162 148.685 105.128 148.649C104.977 148.49 104.853 148.308 104.761 148.11C104.658 147.919 104.792 148.229 104.722 148.02C104.706 147.974 104.689 147.928 104.674 147.881C104.628 147.736 104.593 147.588 104.57 147.438C104.575 147.473 104.577 147.554 104.567 147.4C104.561 147.319 104.555 147.239 104.553 147.158C104.551 147.091 104.553 147.025 104.553 146.959C104.553 146.931 104.576 146.685 104.559 146.813C104.611 146.295 104.857 145.816 105.247 145.471C105.323 145.391 105.411 145.324 105.507 145.271C105.571 145.231 105.636 145.194 105.703 145.159C105.71 145.155 105.911 145.064 105.803 145.108C105.949 145.05 106.099 145.005 106.253 144.973C106.245 144.973 106.502 144.933 106.376 144.949C106.488 144.937 106.6 144.931 106.712 144.931C107.665 144.918 107.668 143.438 106.714 143.45Z" fill="#211715"/>
</g>
<defs>
<filter id="filter0_f_713_929" x="125.617" y="172.311" width="28.2" height="41.2" filterUnits="userSpaceOnUse" color-interpolation-filters="sRGB">
<feFlood flood-opacity="0" result="BackgroundImageFix"/>
<feBlend mode="normal" in="SourceGraphic" in2="BackgroundImageFix" result="shape"/>
<feGaussianBlur stdDeviation="4.55" result="effect1_foregroundBlur_713_929"/>
</filter>
<filter id="filter1_f_713_929" x="103.617" y="182.311" width="28.2" height="41.2" filterUnits="userSpaceOnUse" color-interpolation-filters="sRGB">
<feFlood flood-opacity="0" result="BackgroundImageFix"/>
<feBlend mode="normal" in="SourceGraphic" in2="BackgroundImageFix" result="shape"/>
<feGaussianBlur stdDeviation="4.55" result="effect1_foregroundBlur_713_929"/>
</filter>
<filter id="filter2_f_713_929" x="156.617" y="166.311" width="28.2" height="41.2" filterUnits="userSpaceOnUse" color-interpolation-filters="sRGB">
<feFlood flood-opacity="0" result="BackgroundImageFix"/>
<feBlend mode="normal" in="SourceGraphic" in2="BackgroundImageFix" result="shape"/>
<feGaussianBlur stdDeviation="4.55" result="effect1_foregroundBlur_713_929"/>
</filter>
</defs>
</svg>
