<svg width="347" height="343" viewBox="0 0 347 343" fill="none" xmlns="http://www.w3.org/2000/svg">
<path d="M114.211 294.57C162.612 320.459 158.397 296.797 191.232 300.731C224.067 304.666 240.139 263.521 278.378 244.371C316.618 225.221 295.699 206.936 304.88 176.669C302.432 102.578 289.93 99.9871 257.411 75.7305C224.892 51.4739 140.508 15.2723 84.6255 79.0121C-4.81177 136.402 46.1128 210.605 57.0237 241.022C65.8802 265.712 91.8255 282.597 114.211 294.57Z" fill="white" fill-opacity="0.5" style="mix-blend-mode:soft-light"/>
<path d="M102.793 164.735C102.129 164.289 101.309 164.205 100.638 164.328C99.1774 164.594 98.6637 165.443 98.4612 165.926C97.8572 167.372 98.2528 169.807 99.0176 171.24C99.5566 172.253 100.374 173.655 102.053 174.605C102.549 174.885 103.755 175.259 104.901 175.167C104.998 175.388 105.076 175.566 105.076 175.566C105.455 176.3 106.337 177.576 106.337 177.576C107.11 178.65 107.928 179.672 108.886 180.661C108.608 181.474 108.329 182.287 108.05 183.1C107.81 183.794 107.569 184.497 107.188 185.128C106.158 186.824 103.972 187.722 102.189 188.593C101.885 188.742 101.547 188.893 101.193 189.044C101.357 189.173 102.108 189.765 102.108 189.765C107.22 193.53 113.287 195.578 119.373 195.587C121.704 195.587 124.068 195.291 126.236 194.316C128.246 193.411 130.091 191.881 131.247 189.804C130.166 189.442 129.119 189.081 128.372 188.766C127.351 188.435 126.412 187.614 125.972 186.634C125.972 186.634 125.959 186.605 125.941 186.564C128.982 186.186 131.648 184.931 134.167 182.741C137.36 179.966 138.658 175.701 139.032 171.017C139.248 168.316 139.418 165.382 139.717 162.447C139.717 162.447 142.022 147.814 126.223 147.814C101.655 147.814 102.794 164.736 102.794 164.736L102.793 164.735Z" fill="white"/>
<path d="M104.603 138.564C101.908 140.616 99.7042 143.25 97.844 146.129L97.0206 150.1C95.4666 154.378 95.6879 159.316 97.5943 163.441L98.6247 165.602C98.9056 165.129 99.4679 164.541 100.638 164.328C101.309 164.205 102.129 164.289 102.793 164.735L107.114 165.239C107.63 162.862 110.805 162.027 112.905 161.217C113.583 160.881 114.285 160.517 114.993 160.121H118.372C123.959 160.96 129.461 156.518 131.686 151.68L133.434 150.101C135.938 153.068 137.622 156.766 138.234 160.652C138.309 161.127 138.368 161.605 138.416 162.085H140.412C141.386 156.666 141.482 151.193 139.717 146.914C137.639 141.876 133.308 138.187 127.486 137.062L123.837 136.059C119.484 133.83 114.064 133.963 109.587 135.734C109.106 135.925 108.632 136.134 108.166 136.361C106.89 136.983 105.706 137.725 104.604 138.564H104.603Z" fill="#6F595D"/>
<path d="M107.881 180.537C107.472 181.729 107.143 183.005 106.592 184.142C106.136 185.081 105.412 185.732 104.533 186.274C102.656 187.432 100.566 188.232 98.5317 189.061C98.0354 189.263 97.6845 189.722 97.8383 190.282C97.9674 190.752 98.56 191.179 99.0593 190.975C101.331 190.049 103.723 189.181 105.787 187.828C106.806 187.161 107.713 186.327 108.265 185.226C108.924 183.913 109.32 182.45 109.796 181.064C110.211 179.853 108.294 179.333 107.881 180.537Z" fill="#211715"/>
<path d="M135.026 190.049C133.503 189.476 131.943 189.005 130.406 188.471C129.002 187.984 127.514 187.583 126.829 186.133C126.6 185.648 125.904 185.523 125.471 185.777C124.974 186.067 124.884 186.648 125.114 187.134C125.542 188.039 126.289 188.809 127.155 189.304C127.88 189.718 128.734 189.981 129.519 190.259C131.172 190.845 132.856 191.345 134.498 191.963C135 192.152 135.587 191.753 135.719 191.27C135.872 190.713 135.53 190.239 135.026 190.049L135.026 190.049Z" fill="#211715"/>
<path d="M126.769 176.917C126.691 176.96 126.611 176.999 126.531 177.038C126.396 177.104 126.546 177.008 126.575 177.02C126.555 177.012 126.463 177.062 126.44 177.07C126.238 177.142 126.031 177.199 125.822 177.245C125.719 177.268 125.616 177.288 125.512 177.305C125.488 177.309 125.313 177.337 125.446 177.317C125.579 177.298 125.402 177.322 125.378 177.324C125.151 177.348 124.922 177.361 124.693 177.362C124.482 177.362 124.272 177.349 124.062 177.331C123.891 177.316 124.096 177.322 124.099 177.338C124.098 177.331 123.964 177.316 123.951 177.313C123.855 177.296 123.761 177.276 123.666 177.252C123.576 177.229 123.488 177.203 123.4 177.173C123.377 177.165 123.163 177.083 123.279 177.13C123.381 177.171 123.21 177.097 123.192 177.09C122.95 176.978 122.71 176.861 122.465 176.756C121.989 176.552 121.379 176.598 121.107 177.112C120.882 177.538 120.954 178.252 121.464 178.47C122.007 178.703 122.53 179.004 123.104 179.157C123.617 179.293 124.163 179.348 124.693 179.346C125.743 179.344 126.843 179.141 127.77 178.631C128.226 178.38 128.412 177.715 128.127 177.273C127.829 176.811 127.256 176.648 126.769 176.916V176.917Z" fill="#211715"/>
<path d="M121.028 167.661C121.257 166.701 120.928 164.546 119.132 164.477C116.774 164.643 116.817 167.271 117.691 168.452C118.406 169.418 120.345 169.714 121.028 167.661L121.028 167.661Z" fill="#211715"/>
<path d="M135.06 167.197C135.267 166.235 134.96 164.072 133.314 163.997C131.155 164.157 131.203 166.793 132.006 167.981C132.664 168.952 134.44 169.255 135.06 167.197Z" fill="#211715"/>
<path d="M126.189 170.614C126.36 170.884 126.525 171.157 126.687 171.432C126.861 171.728 127.043 172.027 127.182 172.342L127.082 172.105C127.112 172.178 127.134 172.25 127.146 172.328L127.111 172.064C127.114 172.101 127.114 172.134 127.11 172.171L127.145 171.907C127.142 171.93 127.136 171.952 127.128 171.974L127.229 171.736C127.22 171.758 127.209 171.779 127.196 171.798L127.351 171.597C127.296 171.666 127.23 171.725 127.16 171.779L127.361 171.624C127.302 171.666 127.24 171.702 127.173 171.732L127.41 171.632C127.328 171.664 127.244 171.683 127.156 171.696L127.42 171.66C127.267 171.68 127.113 171.695 126.961 171.722C126.729 171.763 126.482 171.982 126.368 172.178C126.243 172.391 126.19 172.705 126.267 172.943C126.345 173.183 126.494 173.415 126.723 173.536C126.972 173.667 127.212 173.685 127.488 173.636C127.512 173.632 127.535 173.629 127.558 173.625L127.294 173.661C127.499 173.635 127.712 173.626 127.908 173.557C128.207 173.453 128.476 173.294 128.698 173.065C129.044 172.708 129.145 172.278 129.061 171.799C129.019 171.561 128.902 171.341 128.792 171.127C128.522 170.608 128.217 170.105 127.904 169.612C127.767 169.396 127.56 169.224 127.311 169.155C127.073 169.09 126.757 169.12 126.546 169.256C126.107 169.538 125.892 170.145 126.189 170.614L126.189 170.614Z" fill="#211715"/>
<path d="M111.876 182.03C109.482 180.119 107.356 177.776 105.934 175.066C105.684 174.591 105.023 174.448 104.576 174.709C104.095 174.991 103.97 175.591 104.219 176.067C104.841 177.252 105.653 178.35 106.477 179.4C107.652 180.895 108.985 182.247 110.472 183.434C110.891 183.768 111.467 183.843 111.876 183.434C112.222 183.087 112.297 182.366 111.876 182.03Z" fill="#211715"/>
<path d="M114.589 185.54C117.29 186.682 120.076 187.516 123.02 187.657C125.753 187.787 128.467 187.295 130.935 186.102C133.341 184.939 135.556 183.16 137.054 180.936C138.559 178.7 139.355 176.031 139.751 173.387C140.292 169.771 140.343 166.083 140.709 162.447C140.763 161.913 140.214 161.454 139.716 161.454C139.135 161.454 138.778 161.911 138.724 162.447C138.417 165.502 138.286 168.571 137.985 171.626C137.748 174.046 137.216 176.52 136.08 178.688C133.829 182.989 129.015 185.606 124.231 185.69C121.237 185.742 118.335 184.986 115.592 183.826C115.098 183.618 114.528 183.678 114.234 184.182C113.99 184.598 114.093 185.33 114.589 185.54Z" fill="#211715"/>
<path d="M103.294 163.878C101.827 162.964 99.8304 163.144 98.5042 164.235C97.4564 165.096 97.1487 166.508 97.1765 167.807C97.24 170.772 98.9042 174.105 101.623 175.499C103.131 176.273 105.106 176.448 106.643 175.685C107.787 175.117 106.783 173.404 105.641 173.971C104.458 174.558 102.873 174.035 101.964 173.372C100.942 172.627 100.12 171.449 99.6606 170.276C99.3827 169.568 99.2104 168.799 99.1702 168.039C99.1519 167.692 99.1454 167.328 99.1961 166.982C99.2169 166.841 99.2521 166.697 99.2909 166.56C99.3147 166.475 99.3415 166.392 99.3718 166.309C99.3345 166.388 99.335 166.387 99.3732 166.305C99.5018 166.033 99.5231 166 99.6651 165.859C99.8313 165.693 99.9832 165.576 100.242 165.464C100.918 165.172 101.669 165.204 102.292 165.592C103.38 166.27 104.377 164.553 103.294 163.878Z" fill="#211715"/>
<path d="M127.222 138.019C130.75 138.719 133.952 140.434 136.306 143.18C138.865 146.163 139.949 149.978 140.091 153.851C140.189 156.522 139.92 159.193 139.454 161.821C139.36 162.348 139.597 162.89 140.148 163.042C140.628 163.174 141.275 162.879 141.369 162.348C142.213 157.591 142.607 152.446 141.087 147.776C139.864 144.017 137.373 140.747 134.049 138.604C132.139 137.373 129.974 136.546 127.749 136.104C126.502 135.856 125.968 137.769 127.222 138.018V138.019Z" fill="#211715"/>
<path d="M132.404 150.419C134.11 152.364 135.446 154.643 136.307 157.083C137.27 159.816 137.511 162.619 137.642 165.495C137.7 166.767 139.685 166.774 139.627 165.495C139.485 162.382 139.222 159.31 138.151 156.359C137.171 153.656 135.704 151.178 133.809 149.016C132.965 148.053 131.565 149.462 132.404 150.419Z" fill="#211715"/>
<path d="M130.829 151.179C128.744 155.635 123.874 159.895 118.635 159.163C118.105 159.09 117.569 159.293 117.414 159.857C117.287 160.321 117.573 161.003 118.108 161.078C124.241 161.934 130.027 157.557 132.543 152.18C132.771 151.695 132.679 151.11 132.187 150.822C131.757 150.571 131.057 150.691 130.829 151.179Z" fill="#211715"/>
<path d="M123.165 151.011C122.03 153.864 119.535 156.033 117.046 157.705C115.755 158.572 114.402 159.343 113.018 160.051C111.814 160.666 110.486 161.001 109.27 161.599C107.848 162.299 106.546 163.371 106.157 164.974C105.855 166.215 107.769 166.745 108.071 165.502C108.365 164.291 109.508 163.661 110.564 163.175C111.834 162.591 113.165 162.214 114.409 161.563C117.205 160.103 119.954 158.352 122.138 156.05C123.394 154.728 124.405 153.235 125.08 151.539C125.278 151.04 124.863 150.449 124.386 150.318C123.821 150.162 123.364 150.511 123.165 151.011V151.011Z" fill="#211715"/>
<path d="M98.4511 162.941C96.6604 159 96.5308 154.429 97.9776 150.365C98.4069 149.159 96.4891 148.64 96.0633 149.837C94.4304 154.426 94.7296 159.525 96.7373 163.943C96.9591 164.431 97.6664 164.55 98.0952 164.299C98.597 164.006 98.6739 163.431 98.4516 162.942L98.4511 162.941Z" fill="#211715"/>
<path d="M98.7011 146.63C100.692 143.565 103.117 140.709 106.172 138.657C109.39 136.496 113.18 135.288 117.069 135.396C119.238 135.455 121.392 135.941 123.335 136.917C124.473 137.489 125.48 135.777 124.337 135.203C120.488 133.268 116.024 132.97 111.864 133.974C107.819 134.949 104.192 137.224 101.29 140.172C99.6625 141.825 98.249 143.685 96.9868 145.628C96.289 146.703 98.0068 147.699 98.7011 146.63Z" fill="#211715"/>
<path d="M99.5856 240.556H96.1103C93.7582 241.673 91.3496 242.594 89.2993 243.105C85.2612 244.11 81.23 243.052 79.6308 242.142C76.3159 240.202 74.8919 236.404 75.0875 231.433C75.2483 227.339 76.232 222.904 77.1765 219.651C78.6744 214.653 80.9029 206.756 83.4466 201.787C85.3937 197.984 87.0549 196.244 88.3667 195.145C91.4429 192.566 95.8061 190.452 100.746 188.691C101.006 188.896 101.157 189.016 101.157 189.016L102.108 189.765C107.221 193.531 113.287 195.579 119.374 195.588C121.704 195.588 124.068 195.292 126.236 194.317C128.404 193.341 130.378 191.638 131.506 189.308C132.052 189.446 132.924 189.671 133.297 189.78C137.298 190.957 142.745 193.002 145.543 195.805C146.305 196.569 148.17 198.487 149.805 201.408C150.723 203.398 151.686 206.176 152.193 207.849C153.384 211.785 157.027 232.077 157.32 240.557H99.5856V240.556Z" fill="white"/>
<path d="M130.65 188.805C129.748 190.621 128.333 192.072 126.558 193.048C124.471 194.195 122.065 194.562 119.712 194.592C115.221 194.65 110.738 193.533 106.751 191.479C104.989 190.571 103.378 189.51 101.858 188.313C101.437 187.982 100.865 187.903 100.455 188.313C100.11 188.658 100.031 189.383 100.455 189.717C103.904 192.435 107.776 194.5 112.039 195.619C116.803 196.868 122.437 197.237 126.986 195.057C129.286 193.954 131.228 192.094 132.364 189.807C132.931 188.666 131.219 187.66 130.65 188.805Z" fill="#211715"/>
<path d="M102.876 186.921C99.4062 188.048 95.9667 189.354 92.7436 191.074C90.3667 192.342 87.9972 193.858 86.1792 195.873C84.1164 198.159 82.6414 200.943 81.4417 203.759C80.1319 206.835 79.0723 210.01 78.0801 213.201C77.157 216.171 76.2055 219.153 75.4794 222.178C74.6217 225.75 73.9318 229.529 74.0961 233.217C74.2262 236.133 75.0014 239.111 77.0185 241.307C79.0182 243.485 81.9405 244.274 84.8058 244.468C88.3005 244.705 91.5931 243.594 94.7631 242.245C97.7172 240.987 100.607 239.469 103.222 237.599C103.788 237.195 104.34 236.77 104.873 236.324C105.854 235.502 104.443 234.104 103.47 234.92C101.263 236.768 98.6796 238.206 96.1017 239.463C93.4106 240.775 90.4163 242.119 87.4091 242.441C84.7761 242.723 81.475 242.435 79.311 240.736C77.3287 239.18 76.408 236.692 76.1579 234.251C75.8109 230.865 76.3698 227.378 77.083 224.073C77.7163 221.138 78.6132 218.268 79.4842 215.396C80.4049 212.36 81.3653 209.331 82.5098 206.371C83.5903 203.576 84.8773 200.813 86.6661 198.395C88.2732 196.222 90.4724 194.641 92.7992 193.312C96.1394 191.403 99.7547 190.021 103.405 188.836C104.615 188.443 104.098 186.525 102.878 186.922L102.876 186.921Z" fill="#211715"/>
<path d="M102.023 221.282C102.481 219.766 102.739 218.073 103.484 216.662C103.542 216.552 103.608 216.445 103.671 216.337C103.697 216.29 103.848 216.091 103.707 216.273C103.836 216.106 103.979 215.949 104.123 215.794C104.494 215.396 104.89 215.021 105.291 214.654C106.237 213.787 107.224 212.963 108.22 212.154C108.663 211.794 109.109 211.438 109.557 211.085C109.739 210.942 109.92 210.8 110.101 210.658C110.187 210.592 110.598 210.273 110.375 210.445C110.656 210.229 110.937 209.982 111.255 209.826C111.931 209.496 112.767 209.835 112.662 210.657C112.594 211.189 113.167 211.649 113.655 211.649C114.248 211.649 114.579 211.191 114.647 210.657C114.774 209.663 114.207 208.651 113.36 208.145C112.36 207.548 111.179 207.587 110.182 208.153C109.425 208.582 108.747 209.212 108.068 209.748C106.959 210.625 105.86 211.516 104.793 212.443C103.835 213.274 102.825 214.127 102.077 215.161C100.941 216.732 100.657 218.939 100.108 220.753C99.7377 221.979 101.653 222.503 102.023 221.281V221.282Z" fill="#211715"/>
<path d="M117.55 219.988C118.467 219.371 119.383 218.755 120.3 218.139L122.079 216.943C122.453 216.692 122.868 216.454 123.188 216.134C123.744 215.577 124.125 214.804 124.133 214.008C124.137 213.591 124.024 213.162 123.817 212.8C123.635 212.482 123.417 212.259 123.071 212.128C122.996 212.099 122.919 212.075 122.843 212.048C122.352 211.878 121.735 212.243 121.622 212.742C121.496 213.296 121.789 213.78 122.315 213.963L122.543 214.042L122.105 213.787C121.986 213.638 122.103 213.782 122.103 213.802L122.142 213.877C122.104 213.78 122.096 213.765 122.119 213.833C122.119 213.833 122.186 214.052 122.145 213.899C122.106 213.751 122.145 213.995 122.147 214.008C122.152 214.055 122.124 214.203 122.161 213.988C122.151 214.042 122.14 214.096 122.126 214.149C122.113 214.202 122.09 214.256 122.077 214.309C122.12 214.125 122.07 214.323 122.039 214.381C122.008 214.438 121.837 214.688 121.956 214.537C121.875 214.639 121.777 214.722 121.69 214.818C121.587 214.932 121.894 214.685 121.748 214.778C121.415 214.989 121.092 215.218 120.765 215.438L117.415 217.691L116.547 218.274C116.116 218.563 115.888 219.162 116.19 219.632C116.467 220.061 117.088 220.298 117.548 219.988L117.55 219.988Z" fill="#211715"/>
<path d="M112.311 214.078C113.716 213.173 115.15 212.312 116.587 211.458C117.283 211.045 117.98 210.635 118.684 210.233C119.266 209.901 119.91 209.479 120.612 209.542C120.851 209.563 120.89 209.601 120.985 209.818C121.036 209.933 121.069 210.297 121.018 210.5C120.909 210.932 120.372 211.205 119.964 211.497C118.757 212.36 117.555 213.231 116.355 214.103C115.557 214.682 114.76 215.261 113.963 215.842C113.53 216.157 113.317 216.704 113.607 217.2C113.856 217.627 114.529 217.873 114.965 217.556C117.071 216.021 119.176 214.486 121.299 212.973C122.064 212.427 122.75 211.888 122.958 210.912C123.164 209.946 122.935 208.786 122.159 208.12C120.505 206.701 118.286 208.162 116.764 209.05C114.927 210.122 113.097 211.212 111.309 212.364C110.238 213.054 111.232 214.773 112.311 214.079V214.078Z" fill="#211715"/>
<path d="M122.06 216.922C122.088 216.968 122.114 217.016 122.136 217.065C122.086 216.943 122.077 216.933 122.109 217.034C122.126 217.123 122.127 217.123 122.112 217.034C122.101 216.946 122.097 216.945 122.101 217.031C122.094 217.141 122.098 217.115 122.115 216.952C122.107 216.992 122.096 217.031 122.085 217.07C122.045 217.247 122.193 216.889 122.092 217.053C122.051 217.119 122.011 217.186 121.97 217.252C121.874 217.408 122.114 217.084 121.991 217.229C121.936 217.293 121.883 217.357 121.825 217.418C121.545 217.714 121.227 217.979 120.914 218.24C120.526 218.564 120.13 218.878 119.731 219.189C119.689 219.221 119.648 219.254 119.606 219.286C119.812 219.128 119.468 219.394 119.606 219.286C119.52 219.352 119.433 219.419 119.346 219.485C119.207 219.591 119.068 219.696 118.928 219.801C118.714 219.962 118.546 220.125 118.472 220.394C118.407 220.632 118.437 220.948 118.573 221.159C118.836 221.568 119.487 221.849 119.931 221.515C120.794 220.866 121.654 220.207 122.479 219.508C122.799 219.235 123.127 218.959 123.394 218.632C123.663 218.302 123.906 217.958 124.015 217.539C124.162 216.98 124.059 216.415 123.773 215.919C123.513 215.469 122.864 215.274 122.415 215.563C121.961 215.856 121.781 216.439 122.059 216.921L122.06 216.922Z" fill="#211715"/>
<path d="M121.857 220.134C121.895 220.154 122.032 220.252 121.897 220.144C121.738 220.018 121.954 220.241 121.825 220.067C121.692 219.886 121.831 220.072 121.823 220.078C121.817 220.082 121.73 219.83 121.767 219.96C121.804 220.088 121.742 219.828 121.752 219.82C121.75 219.822 121.753 219.913 121.754 219.924C121.756 219.965 121.737 220.084 121.762 219.896C121.788 219.705 121.769 219.84 121.759 219.884C121.693 220.174 121.564 220.455 121.455 220.73C121.423 220.808 121.392 220.887 121.359 220.965C121.339 221.015 121.318 221.065 121.297 221.116C121.247 221.239 121.374 220.937 121.321 221.061C121.241 221.246 121.161 221.431 121.077 221.615C120.912 221.98 120.738 222.341 120.549 222.694C120.304 223.152 120.419 223.796 120.905 224.052C121.366 224.296 122.002 224.185 122.263 223.696C122.722 222.838 123.107 221.937 123.458 221.031C123.599 220.667 123.726 220.321 123.74 219.924C123.761 219.299 123.412 218.709 122.859 218.42C122.399 218.18 121.759 218.287 121.501 218.776C121.259 219.234 121.365 219.878 121.857 220.134Z" fill="#211715"/>
<path d="M121.074 222.411C121.056 223.17 121.123 223.943 120.896 224.678C120.721 225.245 120.372 225.745 119.963 226.167C119.074 227.084 117.897 227.698 116.707 228.13C113.961 229.128 111.064 229.737 108.225 230.404C106.982 230.696 107.509 232.611 108.753 232.318C111.874 231.585 115.136 230.964 118.097 229.703C119.453 229.125 120.775 228.323 121.72 227.172C122.202 226.585 122.584 225.933 122.81 225.205C123.093 224.3 123.038 223.346 123.06 222.41C123.089 221.132 121.104 221.133 121.074 222.41V222.411Z" fill="#211715"/>
<path d="M98.8687 225.279C99.8613 224.411 100.774 223.456 101.595 222.425C101.765 222.211 101.885 222.008 101.885 221.723C101.885 221.479 101.777 221.189 101.595 221.021C101.405 220.847 101.157 220.718 100.893 220.73C100.647 220.741 100.351 220.82 100.191 221.021C99.37 222.052 98.4577 223.008 97.4651 223.875C97.073 224.218 97.0884 224.933 97.4651 225.279C97.8835 225.663 98.4503 225.645 98.8687 225.279Z" fill="#211715"/>
<path d="M97.0201 224.671C97.2152 226.818 98.459 228.836 99.5241 230.665C100.61 232.531 101.841 234.301 103.179 235.994C103.512 236.415 104.235 236.342 104.583 235.994C104.999 235.578 104.916 235.012 104.583 234.59C103.391 233.082 102.309 231.485 101.335 229.828C100.85 229.004 100.393 228.164 99.9638 227.31C99.5479 226.481 99.0903 225.609 99.0054 224.671C98.9568 224.137 98.5841 223.679 98.0128 223.679C97.5135 223.679 96.9715 224.134 97.0201 224.671Z" fill="#211715"/>
<path d="M138.765 226.04C138.118 229.131 137.47 232.222 136.822 235.314C136.713 235.838 136.976 236.387 137.516 236.535C138.009 236.67 138.626 236.369 138.737 235.842C139.384 232.75 140.032 229.659 140.68 226.568C140.789 226.044 140.526 225.495 139.986 225.347C139.494 225.211 138.876 225.513 138.765 226.04Z" fill="#211715"/>
<path d="M130.755 190.14C135.069 191.224 139.53 192.622 143.224 195.172C144.865 196.304 146.241 197.88 147.402 199.488C148.265 200.682 148.988 201.914 149.536 203.282C150.03 204.513 150.478 205.764 150.891 207.025C151.774 209.72 152.281 212.529 152.812 215.31C153.61 219.492 154.318 223.691 154.943 227.902C155.563 232.09 156.174 236.32 156.326 240.556C156.372 241.83 158.358 241.836 158.312 240.556C158.172 236.679 157.634 232.808 157.089 228.971C156.467 224.593 155.745 220.229 154.934 215.882C154.409 213.069 153.944 210.185 153.106 207.443C152.304 204.819 151.43 202.042 149.95 199.716C148.764 197.851 147.333 196.004 145.65 194.553C143.428 192.635 140.696 191.376 137.982 190.32C135.794 189.469 133.557 188.798 131.283 188.226C130.043 187.915 129.514 189.829 130.755 190.141L130.755 190.14Z" fill="#211715"/>
<path d="M197.064 197.981C198.484 196.937 199.476 195.63 200.283 194.088C200.891 192.924 201.072 191.6 201.211 190.302C201.917 183.74 202.239 174.588 201.955 167.332C201.601 156.565 204.406 148.756 208.828 144.481C211.493 141.904 217.499 138.394 224.247 138.394C228.3 138.394 233.04 138.795 237.554 142.755C243.005 146.366 246.127 150.896 246.747 159.232C246.832 160.373 246.851 163.042 246.882 166.713C246.598 174.255 246.758 184.386 247.463 191.206C247.602 192.555 247.783 193.931 248.391 195.14C249.198 196.744 250.665 197.884 252.085 198.969" fill="#645D5C"/>
<path d="M238.852 167.437C239.483 167.029 240.254 166.963 240.882 167.09C242.25 167.364 242.718 168.17 242.9 168.627C243.444 169.994 243.032 172.274 242.291 173.607C241.768 174.549 240.978 175.852 239.385 176.717C238.884 176.988 237.625 177.347 236.492 177.172C237.333 176.622 235.314 179.437 235.314 179.437C234.64 180.339 233.932 181.201 233.123 182.035C233.406 182.865 233.692 183.697 233.977 184.527C234.203 185.179 234.429 185.84 234.786 186.432C235.753 188.025 237.807 188.869 239.481 189.687C239.757 189.822 240.063 189.958 240.383 190.095C240.179 190.257 239.557 190.746 239.557 190.746C234.756 194.282 229.058 196.205 223.343 196.214C221.154 196.214 218.933 195.936 216.897 195.02C214.994 194.164 213.25 192.71 212.165 190.736C213.19 190.394 214.184 190.052 214.892 189.753C215.85 189.442 216.732 188.671 217.146 187.751C217.154 187.733 217.171 187.682 217.195 187.608C214.161 187.273 211.545 186.034 209.097 183.831C206.145 181.173 204.996 177.147 204.721 172.742C204.601 170.813 204.508 168.759 204.368 166.672C204.665 165.57 205.361 163.706 206.048 162.667H216.704C218.664 161.965 220.29 160.413 221.297 158.59C222.112 157.116 222.561 155.944 222.939 153.974L227.842 154.532C228.406 156.784 229.098 158.941 229.726 160.139C231 162.57 233.228 165.929 235.531 166.839L238.853 167.438L238.852 167.437Z" fill="white"/>
<path d="M232.279 182.631C232.719 183.913 233.09 185.255 233.684 186.477C234.207 187.555 235.079 188.37 236.07 189.019C238.014 190.293 240.265 191.11 242.404 191.981C242.9 192.184 243.494 191.761 243.624 191.288C243.781 190.719 243.43 190.27 242.931 190.067C241.025 189.29 239.068 188.54 237.309 187.456C236.521 186.97 235.856 186.389 235.436 185.552C234.895 184.472 234.584 183.244 234.193 182.104C233.78 180.902 231.862 181.418 232.279 182.631Z" fill="#211715"/>
<path d="M209.153 192.814C210.696 192.234 212.277 191.764 213.83 191.214C214.573 190.951 215.379 190.702 216.065 190.311C216.887 189.843 217.598 189.109 218.003 188.252C218.232 187.767 218.138 187.181 217.647 186.894C217.215 186.641 216.518 186.763 216.289 187.25C215.649 188.605 214.292 188.958 212.965 189.419C211.521 189.92 210.056 190.362 208.625 190.901C208.124 191.089 207.781 191.571 207.932 192.122C208.064 192.602 208.649 193.005 209.153 192.815L209.153 192.814Z" fill="#211715"/>
<path d="M215.154 180.136C216.014 180.63 217.044 180.832 218.027 180.858C218.522 180.871 219.027 180.825 219.51 180.716C219.754 180.66 219.985 180.572 220.215 180.474C220.361 180.413 220.506 180.35 220.651 180.285C220.705 180.261 220.758 180.236 220.812 180.212C220.829 180.204 221.099 180.092 220.903 180.172C221.382 179.977 221.775 179.503 221.596 178.951C221.447 178.489 220.89 178.048 220.375 178.258C220.09 178.374 219.81 178.5 219.529 178.625C219.51 178.633 219.341 178.703 219.451 178.659C219.56 178.616 219.397 178.678 219.378 178.685C219.29 178.717 219.201 178.745 219.111 178.77C219.013 178.796 218.914 178.817 218.815 178.835C218.772 178.843 218.718 178.843 218.678 178.857C218.733 178.837 218.865 178.837 218.73 178.848C218.521 178.865 218.313 178.877 218.103 178.874C217.9 178.871 217.7 178.85 217.498 178.836C217.354 178.826 217.678 178.866 217.537 178.843C217.487 178.834 217.437 178.827 217.388 178.819C217.278 178.8 217.168 178.778 217.06 178.753C216.874 178.71 216.69 178.657 216.511 178.593C216.475 178.58 216.289 178.536 216.44 178.57C216.568 178.598 216.445 178.573 216.407 178.554C216.323 178.512 216.239 178.47 216.157 178.423C215.706 178.165 215.051 178.302 214.799 178.779C214.549 179.252 214.674 179.862 215.155 180.137L215.154 180.136Z" fill="#211715"/>
<path d="M221.682 169.885C221.482 168.98 221.826 166.962 223.515 166.926C225.726 167.121 225.642 169.588 224.803 170.682C224.115 171.578 222.29 171.824 221.682 169.885L221.682 169.885Z" fill="#211715"/>
<path d="M208.512 169.22C208.334 168.312 208.658 166.286 210.204 166.243C212.229 166.429 212.141 168.904 211.367 170.005C210.734 170.907 209.061 171.162 208.512 169.22Z" fill="#211715"/>
<path d="M215.134 171.588C214.833 172.042 214.537 172.505 214.281 172.986C214.176 173.183 214.063 173.386 214.015 173.605C213.913 174.07 214.014 174.495 214.329 174.854C214.54 175.095 214.806 175.245 215.097 175.361C215.287 175.436 215.493 175.447 215.694 175.474L215.43 175.439C215.46 175.443 215.489 175.448 215.518 175.453C215.783 175.505 216.044 175.493 216.283 175.353C216.489 175.232 216.686 174.997 216.739 174.76C216.797 174.506 216.784 174.22 216.639 173.995C216.505 173.787 216.297 173.588 216.046 173.539C215.914 173.513 215.78 173.5 215.647 173.483L215.911 173.518C215.812 173.505 215.717 173.485 215.625 173.447L215.862 173.547C215.8 173.518 215.743 173.483 215.687 173.442L215.888 173.598C215.823 173.545 215.763 173.489 215.712 173.423L215.867 173.624C215.855 173.606 215.845 173.587 215.837 173.566L215.938 173.804C215.93 173.783 215.925 173.762 215.923 173.74L215.958 174.005C215.955 173.97 215.956 173.939 215.959 173.904L215.924 174.168C215.934 174.108 215.952 174.051 215.973 173.994L215.873 174.231C216.001 173.93 216.188 173.645 216.358 173.366C216.517 173.105 216.68 172.846 216.848 172.591C216.986 172.383 217.013 172.061 216.949 171.826C216.885 171.596 216.707 171.346 216.493 171.233C215.995 170.97 215.44 171.126 215.135 171.589L215.134 171.588Z" fill="#211715"/>
<path d="M231.189 185.055C232.652 183.928 233.981 182.673 235.153 181.244C235.967 180.251 236.769 179.2 237.388 178.07C237.645 177.6 237.503 176.988 237.031 176.713C236.577 176.447 235.931 176.597 235.673 177.069C235.377 177.611 235.025 178.123 234.672 178.63C234.343 179.102 234.111 179.398 233.749 179.84C232.694 181.127 231.495 182.334 230.186 183.341C229.762 183.668 229.535 184.195 229.83 184.699C230.074 185.117 230.76 185.385 231.188 185.056L231.189 185.055Z" fill="#211715"/>
<path d="M226.714 185.009C222.325 186.774 217.282 187.582 212.911 185.307C210.914 184.268 209.07 182.766 207.896 180.827C206.715 178.876 206.12 176.599 205.856 174.348C205.48 171.146 205.478 167.896 205.211 164.682C205.106 163.418 203.12 163.406 203.226 164.682C203.481 167.766 203.51 170.873 203.827 173.95C204.092 176.516 204.662 179.08 205.911 181.359C208.336 185.784 213.34 188.486 218.299 188.684C221.384 188.808 224.396 188.068 227.242 186.923C227.739 186.723 228.089 186.261 227.935 185.702C227.806 185.23 227.215 184.808 226.714 185.009Z" fill="#211715"/>
<path d="M239.353 168.294C239.926 167.951 240.613 167.946 241.219 168.223C241.677 168.433 241.784 168.593 241.994 169.011C241.844 168.713 242.038 169.167 242.057 169.239C242.09 169.365 242.117 169.495 242.133 169.622C242.179 169.996 242.164 170.387 242.128 170.762C242.066 171.396 241.906 172.052 241.662 172.642C241.189 173.787 240.353 174.929 239.311 175.605C239.152 175.708 238.989 175.806 238.82 175.893C238.591 176.009 239.016 175.829 238.731 175.929C238.437 176.033 238.135 176.117 237.828 176.169C237.247 176.268 236.579 176.28 236.043 176.002C234.911 175.414 233.906 177.126 235.041 177.716C236.338 178.39 237.954 178.329 239.304 177.827C240.702 177.306 241.821 176.195 242.631 174.97C243.42 173.779 243.904 172.474 244.08 171.056C244.241 169.757 244.114 168.333 243.236 167.301C242.072 165.932 239.859 165.676 238.351 166.579C237.256 167.236 238.253 168.952 239.353 168.294Z" fill="#211715"/>
<path d="M226.885 154.795C227.566 157.49 228.415 160.054 229.889 162.424C231.217 164.558 232.879 166.801 235.268 167.796C235.763 168.002 236.36 167.573 236.489 167.102C236.645 166.531 236.293 166.088 235.795 165.881C234.89 165.505 234.138 164.732 233.499 164.015C232.702 163.121 232.025 162.126 231.407 161.101C230.122 158.971 229.407 156.671 228.8 154.268C228.487 153.03 226.572 153.555 226.886 154.796L226.885 154.795Z" fill="#211715"/>
<path d="M221.982 153.709C221.352 156.938 219.771 160.481 216.44 161.71C215.937 161.895 215.596 162.383 215.746 162.931C215.879 163.415 216.462 163.81 216.967 163.624C220.968 162.149 223.118 158.229 223.896 154.237C223.999 153.712 223.748 153.166 223.203 153.016C222.716 152.882 222.085 153.18 221.982 153.709Z" fill="#211715"/>
<path d="M215.107 153.872C214.959 157.083 213.459 160.056 210.985 162.101C210.572 162.443 210.631 163.151 210.985 163.504C211.394 163.913 211.974 163.847 212.389 163.504C215.262 161.129 216.921 157.576 217.092 153.872C217.117 153.336 216.618 152.879 216.1 152.879C215.541 152.879 215.132 153.335 215.107 153.872Z" fill="#211715"/>
<path d="M204.76 169.886C205.114 167.357 205.74 164.819 207.233 162.706C208.964 160.256 210.3 157.341 209.801 154.283C209.714 153.753 209.057 153.459 208.58 153.59C208.017 153.744 207.799 154.279 207.886 154.811C208.344 157.613 206.565 160.032 205.141 162.243C203.792 164.337 203.186 166.926 202.846 169.358C202.772 169.888 202.975 170.424 203.54 170.579C204.004 170.706 204.686 170.42 204.76 169.885V169.886Z" fill="#211715"/>
<path d="M252.587 198.111C251.028 196.92 249.46 195.642 248.889 193.686C248.359 191.875 248.315 189.89 248.181 188.017C247.891 183.967 247.774 179.905 247.747 175.847C247.719 171.76 247.889 167.679 247.847 163.593C247.812 160.235 247.72 156.9 246.841 153.632C245.871 150.027 243.963 146.821 241.197 144.309C240.253 143.451 238.845 144.851 239.793 145.713C242.153 147.856 243.84 150.503 244.757 153.561C245.72 156.779 245.824 160.066 245.859 163.395C245.904 167.511 245.735 171.624 245.761 175.741C245.787 179.835 245.903 183.933 246.195 188.017C246.35 190.184 246.378 192.555 247.104 194.62C247.909 196.911 249.717 198.397 251.585 199.826C252.011 200.152 252.696 199.892 252.943 199.469C253.241 198.958 253.014 198.438 252.586 198.111H252.587Z" fill="#211715"/>
<path d="M197.565 198.838C198.81 197.903 199.838 196.783 200.652 195.453C201.514 194.043 201.925 192.582 202.129 190.953C202.501 187.98 202.682 184.975 202.828 181.984C202.986 178.745 203.062 175.502 203.049 172.259C203.036 169.079 202.816 165.898 202.995 162.72C203.28 157.645 204.379 152.385 207.176 148.064C209.768 144.057 214.105 141.49 218.63 140.201C221.703 139.326 224.937 139.192 228.1 139.585C231.459 140.003 234.538 141.391 237.064 143.645C238.014 144.493 239.423 143.094 238.467 142.242C236.081 140.111 233.258 138.59 230.119 137.925C227.38 137.345 224.426 137.22 221.651 137.571C216.426 138.23 210.856 140.651 207.3 144.641C204.002 148.342 202.287 153.23 201.512 158.06C200.999 161.258 200.862 164.491 200.977 167.726C201.093 170.962 201.089 174.207 201.009 177.446C200.921 180.998 200.744 184.55 200.434 188.09C200.286 189.781 200.259 191.645 199.596 193.231C198.968 194.731 197.861 196.15 196.563 197.125C196.135 197.446 195.914 197.982 196.207 198.483C196.453 198.905 197.133 199.163 197.565 198.839V198.838Z" fill="#211715"/>
<path d="M265.332 230.173C265.177 226.607 264.663 224.338 263.925 221.36C262.618 216.09 261.316 213.15 259.907 208.964C259.038 206.44 258.087 203.996 257.084 202.037C255.255 198.465 253.695 196.831 252.463 195.798C249.574 193.377 245.476 191.391 240.837 189.738C240.593 189.93 240.451 190.042 240.451 190.042L239.557 190.746C234.756 194.283 229.058 196.206 223.343 196.214C221.154 196.214 218.933 195.936 216.897 195.02C214.873 194.109 213.028 192.522 211.973 190.35C211.457 190.481 210.62 190.696 210.266 190.8C206.509 191.906 201.394 193.826 198.766 196.459C198.254 196.972 197.213 198.039 196.1 199.61C195.109 200.44 188.785 212.795 187.026 218.65C186.362 220.86 184.96 225.611 184.631 229.166C184.504 230.54 184.799 232.172 185.375 233.44C186.647 236.241 191.441 238.114 196.073 236.005C196.073 236.005 199.63 234.378 202.917 232.874C203.404 235.268 203.838 237.671 204.218 240.083C204.218 240.083 204.261 240.339 204.334 240.781H261.866C264.652 238.442 265.52 234.505 265.332 230.172V230.173Z" fill="#CE917B"/>
<path d="M258.951 209.227C260.344 213.352 261.915 217.389 262.968 221.622C264 225.772 264.895 230.256 264.1 234.528C263.703 236.665 262.839 238.642 261.165 240.078C260.194 240.912 261.603 242.31 262.568 241.482C266.024 238.518 266.547 233.631 266.283 229.363C265.991 224.662 264.759 220.004 263.274 215.552C262.508 213.255 261.64 210.993 260.865 208.699C260.459 207.495 258.54 208.012 258.951 209.227V209.227Z" fill="#211715"/>
<path d="M195.573 235.147C193.862 235.904 191.9 236.141 190.074 235.698C188.728 235.371 187.308 234.679 186.53 233.482C185.542 231.96 185.488 229.973 185.73 228.237C185.99 226.378 186.424 224.542 186.9 222.729C187.608 220.028 188.428 217.384 189.492 214.801C190.657 211.971 191.97 209.198 193.345 206.464C194.007 205.147 194.686 203.836 195.405 202.548C195.829 201.788 196.248 200.997 196.781 200.305C197.108 199.881 196.845 199.194 196.424 198.947C195.912 198.648 195.395 198.878 195.066 199.304C194.567 199.951 194.172 200.688 193.773 201.399C193.11 202.58 192.483 203.78 191.871 204.986C190.363 207.959 188.944 210.981 187.666 214.061C186.504 216.86 185.616 219.731 184.866 222.666C184.364 224.628 183.933 226.612 183.696 228.624C183.467 230.575 183.74 232.871 184.855 234.543C187.376 238.32 192.782 238.541 196.576 236.862C197.066 236.645 197.181 235.929 196.932 235.504C196.636 234.999 196.066 234.93 195.574 235.147L195.573 235.147Z" fill="#211715"/>
<path d="M211.09 190.815C215.569 199.819 228.563 197.843 235.922 194.143C237.796 193.2 239.509 192.038 241.153 190.743C241.574 190.411 241.5 189.687 241.153 189.339C240.737 188.923 240.172 189.006 239.749 189.339C236.874 191.605 233.513 193.364 229.913 194.335C227.904 194.878 225.843 195.18 223.761 195.217C221.586 195.256 219.317 195.041 217.316 194.124C215.354 193.226 213.768 191.749 212.805 189.813C212.235 188.669 210.523 189.674 211.09 190.815Z" fill="#211715"/>
<path d="M238.325 189.93C242.304 191.223 246.281 192.759 249.798 195.06C250.985 195.835 252.11 196.703 253.071 197.749C254.26 199.043 255.186 200.561 256.005 202.109C257.208 204.383 258.111 206.8 258.951 209.227C259.366 210.427 261.284 209.911 260.865 208.699C259.427 204.543 257.783 200.27 254.926 196.859C252.668 194.165 249.438 192.34 246.292 190.884C243.878 189.766 241.381 188.837 238.853 188.015C237.635 187.62 237.113 189.536 238.325 189.93L238.325 189.93Z" fill="#211715"/>
<path d="M205.383 240.517C204.766 236.909 204.056 233.317 203.264 229.742C202.987 228.495 201.073 229.023 201.349 230.27C202.142 233.844 202.851 237.436 203.469 241.045C203.559 241.574 204.21 241.87 204.69 241.738C205.249 241.585 205.474 241.048 205.383 240.517Z" fill="#211715"/>
<path d="M212.142 189.283C209.529 189.939 206.971 190.749 204.489 191.805C201.758 192.965 199.228 194.43 197.219 196.641C195.95 198.038 194.836 199.577 193.906 201.219C193.275 202.333 194.99 203.334 195.62 202.221C196.563 200.559 197.686 199.02 199.003 197.635C200.174 196.405 201.53 195.475 203.028 194.681C206.058 193.076 209.355 192.029 212.67 191.197C213.908 190.885 213.383 188.971 212.142 189.283Z" fill="#211715"/>
<path d="M185.239 225.439C186.271 225.508 187.649 225.331 188.671 225.178C190.035 224.974 192.107 224.644 193.452 224.344L195.585 223.579C198.128 222.128 199.894 219.811 199.734 216.387C199.7 215.665 199.53 214.284 199.079 213.157C198.426 211.488 197.13 209.994 195.646 208.922C194.157 207.846 192.518 206.993 190.955 206.029C190.186 205.555 189.388 205.07 188.493 204.951C187.598 204.833 186.575 205.183 186.19 206C185.627 207.197 186.65 208.505 187.605 209.42C188.116 209.909 188.63 210.395 189.148 210.877C187.058 212.07 184.237 212.756 181.808 212.47L181.827 212.418C179.544 212.123 177.384 211.786 175.3 211.555C174.6 211.477 173.841 211.606 173.281 212.034C172.585 212.566 172.407 213.663 172.9 214.388L173.121 214.799C172.996 214.835 172.879 214.885 172.778 214.952C172.45 215.171 172.311 215.873 172.583 216.229L173.615 218.128C173.474 218.183 173.333 218.274 173.194 218.412C172.965 218.638 172.799 219.17 173.072 219.667C173.279 220.042 173.892 220.584 174.346 220.778L177.748 222.173C177.736 222.202 177.729 222.233 177.724 222.265C177.66 222.658 177.885 223.084 178.223 223.294C179.168 223.878 179.891 224.176 181.374 224.623C182.977 225.105 184.151 225.303 185.986 225.453" fill="white"/>
<path d="M181.807 213.462C184.367 213.748 187.042 213.099 189.311 211.919C189.787 211.672 189.928 211.008 189.667 210.561C189.386 210.079 188.786 209.957 188.309 210.205C186.348 211.224 184.053 211.728 181.807 211.477C181.274 211.417 180.814 211.976 180.814 212.47C180.814 213.056 181.272 213.403 181.807 213.462Z" fill="#211715"/>
<path d="M189.978 210.294C189.371 209.73 188.756 209.171 188.17 208.585C187.724 208.138 187.121 207.529 187.028 206.867C186.951 206.317 187.409 206.005 187.904 205.934C188.552 205.842 189.184 206.15 189.734 206.456C191.242 207.295 192.749 208.194 194.197 209.133C195.476 209.96 196.65 210.935 197.484 212.227C198.856 214.353 199.272 217.508 198.059 219.8C197.5 220.856 196.652 221.719 195.657 222.372C195.569 222.429 195.458 222.484 195.374 222.551C195.045 222.812 195.351 222.601 195.29 222.633C195.184 222.688 195.055 222.717 194.943 222.758L193.708 223.2C192.588 223.601 191.383 223.746 190.213 223.938C188.579 224.206 186.902 224.533 185.239 224.445C183.963 224.378 183.966 226.363 185.239 226.43C186.978 226.522 188.739 226.175 190.45 225.899C191.714 225.695 193.026 225.548 194.235 225.114C195.25 224.75 196.186 224.446 197.068 223.802C198.276 222.919 199.322 221.806 199.952 220.435C201.341 217.414 200.848 213.478 198.909 210.803C197.74 209.191 196.203 208.023 194.519 206.991C193.669 206.47 192.801 205.982 191.947 205.47C191.114 204.97 190.298 204.421 189.362 204.13C187.516 203.557 185.151 204.435 185.043 206.606C184.935 208.761 187.173 210.396 188.574 211.699C189.509 212.568 190.916 211.167 189.978 210.295V210.294Z" fill="#211715"/>
<path d="M181.827 211.426C180.662 211.275 179.499 211.108 178.336 210.948C177.209 210.795 176.015 210.529 174.875 210.541C173.798 210.553 172.659 210.983 172.063 211.923C171.5 212.811 171.485 213.996 172.042 214.889C172.717 215.971 174.435 214.976 173.756 213.887C173.545 213.548 173.543 213.074 173.896 212.81C174.515 212.346 175.404 212.556 176.105 212.641C178.015 212.874 179.918 213.163 181.827 213.411C182.359 213.48 182.819 212.905 182.819 212.418C182.819 211.824 182.361 211.495 181.827 211.425V211.426Z" fill="#211715"/>
<path d="M181.81 214.314C179.621 214.193 177.437 214.015 175.253 213.837C174.313 213.76 173.254 213.556 172.382 214.034C171.466 214.536 171.174 215.859 171.724 216.73C172.406 217.807 174.124 216.812 173.439 215.728C173.27 215.462 173.473 215.758 173.422 215.747C173.458 215.625 173.464 215.6 173.44 215.672C173.418 215.696 173.4 215.721 173.383 215.749C173.619 215.704 173.904 215.714 174.168 215.734C174.964 215.795 175.759 215.864 176.555 215.928C178.305 216.069 180.056 216.202 181.809 216.299C182.345 216.329 182.801 215.822 182.801 215.306C182.801 214.744 182.346 214.344 181.809 214.314H181.81Z" fill="#211715"/>
<path d="M183.454 217.514C180.67 217.718 177.826 217.498 175.061 217.147C174.472 217.072 173.908 216.964 173.332 217.174C172.684 217.411 172.175 217.926 172.001 218.6C171.663 219.906 172.737 221.108 173.844 221.635C174.328 221.864 174.915 221.769 175.202 221.278C175.455 220.845 175.332 220.151 174.845 219.92C174.639 219.822 173.66 219.204 173.993 219.028C174.086 218.979 174.306 219.035 174.409 219.046C174.721 219.079 175.032 219.129 175.343 219.167C175.852 219.229 176.362 219.283 176.873 219.33C179.056 219.528 181.265 219.66 183.455 219.499C183.99 219.46 184.448 219.071 184.448 218.507C184.448 218 183.993 217.475 183.455 217.514H183.454Z" fill="#211715"/>
<path d="M184.084 220.383C182.776 220.448 181.467 220.443 180.158 220.488C179.53 220.51 178.814 220.411 178.204 220.581C177.564 220.76 176.983 221.246 176.791 221.895C176.587 222.583 176.842 223.344 177.332 223.846C177.684 224.206 178.21 224.454 178.66 224.671C179.709 225.177 180.839 225.528 181.964 225.821C183.281 226.164 184.631 226.333 185.985 226.446C186.52 226.491 186.977 225.958 186.977 225.454C186.977 224.88 186.521 224.506 185.985 224.461C184.779 224.36 183.602 224.2 182.428 223.89C181.357 223.608 180.268 223.283 179.382 222.816C179.185 222.713 178.873 222.597 178.722 222.437C178.776 222.494 178.679 222.347 178.678 222.347C178.7 222.324 178.709 222.452 178.702 222.446C178.701 222.466 178.695 222.486 178.686 222.505C178.634 222.551 178.659 222.541 178.76 222.474C178.666 222.466 178.852 222.482 178.871 222.483C179.201 222.506 179.53 222.499 179.859 222.485C181.267 222.426 182.676 222.439 184.083 222.369C184.619 222.342 185.076 221.932 185.076 221.376C185.076 220.859 184.621 220.357 184.083 220.384L184.084 220.383Z" fill="#211715"/>
<path d="M228.195 234.45C227.689 233.992 225.338 231.856 224.843 231.334C223.24 229.648 222.414 226.146 224.486 225.015C224.893 224.815 225.409 224.732 225.635 224.339C225.762 224.118 225.761 223.849 225.798 223.597C225.891 222.976 226.263 222.414 226.774 222.051C227.284 221.688 227.562 221.085 227.538 220.46C227.525 220.126 227.526 219.837 227.533 219.774C227.638 218.758 228.09 217.772 228.828 217.06C228.85 217.038 228.878 217.015 228.909 216.992C229.374 216.648 229.68 216.131 229.712 215.553C229.742 215.024 229.786 214.504 229.775 214.315C229.742 213.771 229.962 213.191 230.191 212.787C230.561 212.133 231.268 211.842 231.957 211.87C232.568 211.895 233.116 212.119 233.402 212.688C234.109 214.1 235.917 219.333 237.797 222.246C238.745 221.862 239.723 221.455 240.117 221.255C241.706 220.448 242.847 221.416 243.245 222.062C243.543 222.545 243.641 223.165 243.665 223.733C243.731 225.309 243.702 226.631 243.589 228.288C243.575 228.499 243.542 228.718 243.618 228.916C243.684 229.087 243.807 229.233 243.95 229.348C244.307 229.635 244.651 229.909 244.986 230.171C245.717 230.741 245.917 231.762 245.455 232.567C244.212 234.737 242.869 236.869 241.256 238.719C240.306 239.808 238.693 240.062 237.466 239.3C235.95 238.359 234.367 237.578 232.694 236.746C231.3 236.097 229.595 235.699 228.29 234.537C228.29 234.537 228.256 234.506 228.194 234.45H228.195Z" fill="white"/>
<path d="M232.194 237.603C233.378 238.192 234.565 238.778 235.719 239.424C236.743 239.997 237.656 240.669 238.869 240.727C241.416 240.848 242.904 238.389 244.162 236.546C244.886 235.483 245.569 234.386 246.2 233.265C246.764 232.263 246.891 231.111 246.244 230.103C245.928 229.608 245.457 229.289 245.005 228.928C244.834 228.792 244.598 228.607 244.566 228.502C244.482 228.221 244.622 227.668 244.638 227.374C244.7 226.164 244.724 224.944 244.658 223.733C244.598 222.611 244.31 221.502 243.4 220.772C242.378 219.952 241.063 219.869 239.853 220.298C238.658 220.722 239.172 222.641 240.381 222.212C241.023 221.984 241.698 221.885 242.232 222.378C242.711 222.821 242.681 223.801 242.697 224.502C242.721 225.535 242.698 226.566 242.64 227.597C242.61 228.113 242.502 228.674 242.66 229.18C242.818 229.685 243.204 230.015 243.601 230.332C244.14 230.763 244.983 231.219 244.619 232.03C244.189 232.987 243.52 233.909 242.949 234.789C242.381 235.663 241.785 236.522 241.129 237.332C240.606 237.978 240.097 238.65 239.21 238.738C238.211 238.838 237.349 238.056 236.525 237.601C235.432 236.998 234.313 236.445 233.195 235.889C232.054 235.322 231.047 237.034 232.193 237.603H232.194Z" fill="#211715"/>
<path d="M239.557 222.897C238.586 221.926 237.921 220.555 237.311 219.296C236.6 217.83 235.979 216.322 235.368 214.813C234.917 213.698 234.539 212.057 233.497 211.34C232.673 210.774 231.507 210.746 230.612 211.147C229.618 211.593 229.016 212.587 228.838 213.64C228.756 214.122 228.778 214.623 228.748 215.11C228.713 215.669 228.624 215.909 228.208 216.291C227.449 216.987 226.906 217.941 226.672 218.944C226.49 219.719 226.784 220.763 226.125 221.31C225.723 221.643 225.374 222 225.137 222.473C225.016 222.718 224.916 222.975 224.86 223.242C224.835 223.36 224.811 223.777 224.779 223.817C224.678 223.939 224.27 224.03 224.143 224.088C223.984 224.161 223.84 224.245 223.698 224.347C223.327 224.61 223.013 224.94 222.78 225.332C222.368 226.024 222.221 226.877 222.268 227.674C222.365 229.31 223.076 230.948 224.223 232.121C225.188 233.106 226.241 234.014 227.261 234.941C227.763 235.398 228.285 235.826 228.878 236.164C229.93 236.763 231.097 237.105 232.195 237.604C232.683 237.826 233.263 237.743 233.553 237.248C233.802 236.821 233.687 236.112 233.197 235.89C231.741 235.228 230.103 234.829 228.887 233.74C228.051 232.991 227.226 232.23 226.407 231.464C225.534 230.647 224.802 229.845 224.448 228.666C224.271 228.077 224.163 227.431 224.304 226.825C224.462 226.147 224.87 225.936 225.471 225.675C225.879 225.497 226.267 225.241 226.492 224.841C226.741 224.399 226.67 223.893 226.868 223.444C227.044 223.046 227.39 222.866 227.688 222.574C228.045 222.224 228.311 221.759 228.438 221.275C228.66 220.431 228.434 219.634 228.801 218.805C229.178 217.952 230.016 217.519 230.413 216.694C230.854 215.778 230.583 214.803 230.817 213.864C230.97 213.246 231.608 212.51 232.326 212.941C232.491 213.039 232.554 213.206 232.634 213.373C232.681 213.47 232.723 213.569 232.767 213.668C232.788 213.718 232.903 213.987 232.855 213.873C233.087 214.424 233.308 214.98 233.532 215.534C234.192 217.162 234.861 218.791 235.632 220.371C236.307 221.753 237.055 223.202 238.154 224.301C239.059 225.206 240.463 223.802 239.558 222.897L239.557 222.897Z" fill="#211715"/>
<path d="M215.589 179.257C216.11 180.661 216.805 183.295 218.37 183.672C219.616 183.971 220.993 180.113 220.993 178.864" stroke="#211715" stroke-width="2" stroke-linecap="round"/>
<g filter="url(#filter0_f_713_926)">
<circle cx="176.072" cy="92.4111" r="27" fill="#FFDC78" fill-opacity="0.5"/>
</g>
<path d="M160.342 88.5376C160.086 87.6294 159.951 86.6457 159.951 85.6012C159.951 80.6806 163.72 76.5371 169.124 76.5371C173.106 76.5371 176.183 78.7892 177.538 81.9203C178.691 81.2417 180.064 80.8477 181.595 80.8477C186.181 80.8477 189.52 84.2793 189.348 88.59C189.688 88.5483 190.037 88.5241 190.395 88.5241C194.981 88.5241 198.151 92.0559 198.151 96.1887C198.151 100.813 194.913 103.997 190.395 103.997H160.815C156.123 103.997 153.059 100.783 153.059 96.1887C153.059 92.173 156.028 88.7706 160.343 88.5382L160.342 88.5376Z" fill="white"/>
<path d="M161.433 88.2378C160.576 85.0482 161.339 81.5654 163.966 79.4151C166.432 77.3965 170.196 77.0943 172.999 78.5822C174.63 79.4483 175.816 80.8163 176.561 82.4877C176.811 83.0476 177.627 83.1664 178.11 82.8917C180.362 81.6104 183.259 81.6661 185.443 83.0713C187.328 84.284 188.277 86.3959 188.215 88.5895C188.2 89.15 188.749 89.7797 189.347 89.715C192.272 89.3982 195.08 90.6165 196.388 93.3267C197.501 95.634 197.176 98.7825 195.456 100.723C193.907 102.471 191.819 102.871 189.582 102.871H163.201C161.447 102.871 159.612 103.026 157.953 102.351C155.157 101.213 153.851 98.1162 154.245 95.2451C154.671 92.1523 157.236 89.8675 160.341 89.6632C161.788 89.5681 161.798 87.316 160.341 87.4123C156.896 87.6396 153.904 89.6148 152.583 92.8231C151.386 95.7274 151.814 99.3745 153.744 101.873C155.58 104.248 158.367 105.122 161.287 105.122H189.421C192.096 105.122 194.642 104.649 196.646 102.74C198.996 100.501 199.808 96.8844 198.962 93.7994C198.099 90.6514 195.445 88.1568 192.201 87.5715C191.253 87.4004 190.306 87.3599 189.347 87.464L190.479 88.5895C190.563 85.5912 189.131 82.7623 186.585 81.1275C183.733 79.2958 179.89 79.2851 176.967 80.948L178.515 81.3521C176.805 77.5119 172.798 75.2165 168.609 75.4241C164.593 75.6233 161.09 78.0156 159.567 81.7263C158.645 83.9705 158.626 86.513 159.25 88.8366C159.626 90.2344 161.81 89.6413 161.433 88.2384V88.2378Z" fill="#211715"/>
<path d="M207.07 112.096C213.826 115.971 220.69 119.658 227.446 123.534C228.71 124.26 229.851 122.315 228.589 121.591C221.832 117.714 214.969 114.027 208.213 110.152C206.948 109.428 205.807 111.372 207.07 112.096Z" fill="#211715"/>
<path d="M142.997 110.153C136.24 114.027 129.377 117.715 122.621 121.591C121.359 122.315 122.498 124.261 123.764 123.535C130.52 119.659 137.383 115.971 144.139 112.096C145.401 111.373 144.262 109.427 142.997 110.153Z" fill="#211715"/>
<defs>
<filter id="filter0_f_713_926" x="138.972" y="55.3111" width="74.2" height="74.2" filterUnits="userSpaceOnUse" color-interpolation-filters="sRGB">
<feFlood flood-opacity="0" result="BackgroundImageFix"/>
<feBlend mode="normal" in="SourceGraphic" in2="BackgroundImageFix" result="shape"/>
<feGaussianBlur stdDeviation="5.05" result="effect1_foregroundBlur_713_926"/>
</filter>
</defs>
</svg>
