<svg width="1172" height="1110" viewBox="0 0 1172 1110" fill="none" xmlns="http://www.w3.org/2000/svg">
<path d="M1127.23 879.236C1165.12 835.467 1224.63 809.081 1269.02 770.805C1346.92 657.987 1317.02 544.099 1273.03 494.397C1230.32 446.146 1179.62 405.385 1148.78 349.799C1119.21 296.488 1082.6 239.631 1017.16 218.467C918.818 186.665 816.418 203.423 724.126 229.241C591.057 266.466 477.685 168.331 365.356 235.623C339.941 250.849 259.908 270.382 240.246 373.722C222.705 427.962 207.89 483.943 182.362 535.221C137.794 624.745 100.239 697.914 121.663 804.03C136.933 879.664 194.335 950.397 242.399 1014.35C299.638 1090.51 361.066 1183.13 468.562 1202.41C521.168 1211.85 567.1 1194.83 615.85 1184.31C660.72 1174.62 701.017 1178.76 745.899 1193.27C785.969 1206.23 825.901 1220.19 866.259 1232.19C883.328 1237.27 912.701 1238.92 928.49 1232.19C963.756 1217.16 998.574 1189.44 1027.78 1166.19L1029.82 1164.57C1069.03 1133.36 1062.09 1075.5 1069.54 1031.4C1078.1 980.687 1092.28 919.61 1127.23 879.236Z" stroke="#483D3F" stroke-opacity="0.4" stroke-width="3" stroke-linecap="round" stroke-linejoin="round" stroke-dasharray="10 20"/>
<path fill-rule="evenodd" clip-rule="evenodd" d="M142.885 708.981C147.653 709.121 150.989 702.025 154.841 697.33C158.067 693.397 162.359 687.525 163.108 682.078C163.915 676.203 161.551 673.62 158.606 669.936C155.399 665.925 151.287 662.796 146.532 664.175C141.477 665.642 137.041 670.731 134.336 676.976C131.589 683.319 130.82 690.541 132.458 696.674C134.143 702.981 137.677 708.828 142.885 708.981Z" fill="#483D3F" fill-opacity="0.3" style="mix-blend-mode:plus-darker"/>
<path fill-rule="evenodd" clip-rule="evenodd" d="M142.139 659.43C140.844 659.955 140.748 661.434 140.244 662.601C139.822 663.579 139.332 664.979 139.745 665.906C140.19 666.906 141.116 667.033 142.322 667.264C143.635 667.516 145.092 667.527 146.213 666.769C147.404 665.962 148.021 664.667 148.043 663.392C148.065 662.097 147.457 660.893 146.326 660.134C145.162 659.353 143.555 658.856 142.139 659.43Z" fill="#483D3F" fill-opacity="0.3" style="mix-blend-mode:plus-darker"/>
<path fill-rule="evenodd" clip-rule="evenodd" d="M150.649 658.14C149.673 658.629 149.77 660.42 149.503 661.783C149.28 662.925 149.051 664.572 149.491 665.75C149.965 667.021 150.721 667.285 151.713 667.708C152.794 668.169 153.961 668.353 154.77 667.56C155.629 666.717 155.971 665.211 155.839 663.66C155.705 662.085 155.077 660.547 154.082 659.489C153.06 658.402 151.714 657.607 150.649 658.14Z" fill="#483D3F" fill-opacity="0.3" style="mix-blend-mode:plus-darker"/>
<path fill-rule="evenodd" clip-rule="evenodd" d="M155.461 662.049C154.486 662.537 154.583 664.328 154.316 665.691C154.092 666.833 153.864 668.48 154.303 669.659C154.777 670.929 155.534 671.193 156.526 671.616C157.607 672.077 158.774 672.261 159.582 671.468C160.441 670.625 160.783 669.119 160.651 667.568C160.517 665.993 159.889 664.455 158.895 663.398C157.872 662.31 156.527 661.515 155.461 662.049Z" fill="#483D3F" fill-opacity="0.3" style="mix-blend-mode:plus-darker"/>
<path fill-rule="evenodd" clip-rule="evenodd" d="M160.917 665.361C159.942 665.85 160.039 667.64 159.772 669.003C159.548 670.145 159.32 671.793 159.759 672.971C160.233 674.242 160.99 674.506 161.982 674.929C163.063 675.389 164.23 675.574 165.038 674.781C165.897 673.938 166.239 672.432 166.107 670.881C165.973 669.306 165.345 667.768 164.351 666.71C163.328 665.622 161.983 664.827 160.917 665.361Z" fill="#483D3F" fill-opacity="0.3" style="mix-blend-mode:plus-darker"/>
<path fill-rule="evenodd" clip-rule="evenodd" d="M168.69 671.04C167.715 670.55 166.337 671.698 165.085 672.299C164.036 672.802 162.578 673.603 161.896 674.66C161.161 675.799 161.401 676.563 161.655 677.612C161.931 678.753 162.481 679.799 163.6 679.974C164.79 680.159 166.201 679.533 167.366 678.5C168.549 677.451 169.407 676.029 169.66 674.599C169.921 673.129 169.754 671.576 168.69 671.04Z" fill="#483D3F" fill-opacity="0.3" style="mix-blend-mode:plus-darker"/>
<path fill-rule="evenodd" clip-rule="evenodd" d="M115.211 635.982C110.534 635.045 108.881 627.38 106.185 621.938C103.928 617.38 101.068 610.692 101.564 605.217C102.1 599.311 104.986 597.327 108.685 594.4C112.712 591.214 117.423 589.091 121.745 591.506C126.341 594.073 129.517 600.03 130.746 606.724C131.994 613.522 131.117 620.732 128.141 626.338C125.079 632.104 120.32 637.006 115.211 635.982Z" fill="#483D3F" fill-opacity="0.3" style="mix-blend-mode:plus-darker"/>
<path fill-rule="evenodd" clip-rule="evenodd" d="M127.094 587.871C128.237 588.674 127.998 590.137 128.226 591.387C128.418 592.435 128.58 593.909 127.969 594.719C127.309 595.593 126.378 595.509 125.151 595.463C123.816 595.412 122.394 595.096 121.473 594.104C120.493 593.05 120.184 591.649 120.45 590.402C120.72 589.135 121.583 588.099 122.856 587.614C124.165 587.115 125.844 586.993 127.094 587.871Z" fill="#483D3F" fill-opacity="0.3" style="mix-blend-mode:plus-darker"/>
<path fill-rule="evenodd" clip-rule="evenodd" d="M119.093 584.7C119.933 585.395 119.436 587.118 119.389 588.507C119.35 589.669 119.201 591.326 118.508 592.375C117.76 593.507 116.964 593.594 115.901 593.782C114.745 593.988 113.566 593.905 112.957 592.95C112.31 591.935 112.316 590.391 112.793 588.909C113.279 587.405 114.237 586.048 115.444 585.241C116.685 584.412 118.175 583.94 119.093 584.7Z" fill="#483D3F" fill-opacity="0.3" style="mix-blend-mode:plus-darker"/>
<path fill-rule="evenodd" clip-rule="evenodd" d="M113.525 587.424C114.365 588.119 113.868 589.842 113.821 591.23C113.781 592.393 113.633 594.05 112.939 595.099C112.191 596.23 111.395 596.317 110.333 596.506C109.177 596.711 107.998 596.628 107.389 595.674C106.741 594.658 106.747 593.115 107.225 591.633C107.71 590.129 108.668 588.771 109.875 587.965C111.117 587.135 112.607 586.664 113.525 587.424Z" fill="#483D3F" fill-opacity="0.3" style="mix-blend-mode:plus-darker"/>
<path fill-rule="evenodd" clip-rule="evenodd" d="M107.462 589.422C108.303 590.117 107.805 591.84 107.758 593.228C107.719 594.391 107.57 596.048 106.877 597.097C106.129 598.228 105.333 598.315 104.271 598.504C103.114 598.709 101.935 598.626 101.326 597.672C100.679 596.657 100.685 595.113 101.163 593.631C101.648 592.127 102.606 590.769 103.813 589.963C105.054 589.133 106.544 588.662 107.462 589.422Z" fill="#483D3F" fill-opacity="0.3" style="mix-blend-mode:plus-darker"/>
<path fill-rule="evenodd" clip-rule="evenodd" d="M98.6107 593.206C99.6706 592.948 100.755 594.376 101.84 595.243C102.748 595.97 103.988 597.079 104.415 598.262C104.875 599.538 104.469 600.228 103.985 601.192C103.459 602.242 102.688 603.138 101.558 603.056C100.358 602.968 99.1232 602.041 98.221 600.772C97.3048 599.484 96.7891 597.905 96.8637 596.455C96.9405 594.964 97.4528 593.488 98.6107 593.206Z" fill="#483D3F" fill-opacity="0.3" style="mix-blend-mode:plus-darker"/>
</svg>
