<svg width="196" height="28" viewBox="0 0 196 28" fill="none" xmlns="http://www.w3.org/2000/svg">
<path d="M173.574 26.4141L173.457 25.6406L173.574 24.6094H173.199V23.5781L173.715 22.5469L173.082 22.2891V21.7734L173.34 20.625L173.715 20.1094L173.34 19.9688L173.199 18.8203L173.34 18.3047L172.566 17.9062C172.238 18.3438 171.816 18.4766 171.301 18.3047V18.8203L170.668 18.9375L170.551 19.4531L169.801 19.5938L169.402 19.4531C169.574 20.0625 169.41 20.4531 168.91 20.625L168.652 20.1094L168.395 19.5938L169.285 18.6797V18.3047L170.035 18.1641L170.176 17.6484L171.301 17.0156C171.723 16.3281 172.27 15.7656 172.941 15.3281L173.574 15.0703L173.715 14.2969L173.949 14.0391L173.832 13.0078L173.949 11.8359L173.457 11.5781L173.34 11.9766H172.707L171.934 11.8359C171.934 12.2734 171.723 12.4922 171.301 12.4922C170.629 12.0547 169.918 11.7969 169.168 11.7188L168.793 10.6875C170.215 10.0781 171.684 9.51562 173.199 9L173.574 9.14062V8.74219L174.207 8.36719L174.348 6.67969L174.207 6.16406L174.723 5.90625L174.84 5.01562L174.465 4.875L174.348 5.39062H173.715L173.199 5.13281L172.824 5.27344V5.78906L172.191 6.04688L171.934 6.5625H171.559L171.184 6.42188V6.67969L171.301 6.9375L169.918 6.67969L169.801 5.90625L170.176 5.39062L170.926 5.13281L171.066 4.5L172.309 3.98438V3.72656H173.082V3.46875C173.754 3.03125 174.512 2.8125 175.355 2.8125V2.41406H174.98C175.73 2.33594 176.488 2.21094 177.254 2.03906L178.895 3.58594C178.223 3.58594 177.543 3.71875 176.855 3.98438V4.24219L175.73 4.61719L175.613 5.64844H175.355V6.16406H175.848L175.988 7.33594L175.848 7.85156H176.223C176.566 7.58594 176.949 7.5 177.371 7.59375V7.33594H177.746L177.254 7.45312V7.71094L178.379 8.10938L178.496 9.51562H178.754V9.77344L177.887 10.4297L177.371 10.1719L177.254 10.6875H176.738L176.363 12.0938C176.785 12.6094 177.332 12.8281 178.004 12.75L178.379 13.2656C179.395 13.9531 180.449 14.5078 181.543 14.9297L181.801 15.8438C181.207 16.1094 180.574 16.2812 179.902 16.3594V16.6172C178.559 16.5859 177.418 16.1172 176.48 15.2109V14.8125H176.223L176.105 17.3906L176.223 17.7891H175.848V18.1641L175.988 19.1953H175.73V20.1094L175.988 21.1406L175.73 22.1719C175.98 22.9375 176.066 23.75 175.988 24.6094L176.363 25.0078L175.473 25.6406L175.355 25.8984C174.684 25.8203 174.09 25.9922 173.574 26.4141ZM179.129 23.5781V23.3203L179.27 22.9453L179.129 22.5469L180.16 22.2891L180.277 21.7734C180.871 21.6953 181.457 21.5703 182.035 21.3984L182.551 21.5156C183.723 21.3438 184.816 21 185.832 20.4844V20.1094L185.715 19.3359L185.949 18.6797L185.457 18.5625L185.34 18.3047L185.457 17.6484C185.113 17.3047 184.652 17.1797 184.074 17.2734C184.074 17.6172 183.863 17.7891 183.441 17.7891L182.434 17.5312C182.09 17.7812 181.668 17.8672 181.168 17.7891L180.395 17.6484L180.793 17.5312V17.2734L181.543 16.875H181.918V17.1328H182.293L182.434 16.7578L184.074 16.3594L184.449 16.6172L185.199 15.9844L185.34 15.0703H185.082V14.5547L185.199 14.1562L184.941 13.3828L184.566 13.125H184.191V13.3828L182.035 13.7812L181.543 13.125L181.801 12.75C183.473 12.0625 185.191 11.5703 186.957 11.2734C188.738 10.9609 190.512 10.6797 192.277 10.4297L192.793 11.2031L191.762 11.3203L191.645 11.7188L190.121 12.4922L189.488 12.3516L188.621 12.75V13.0078L188.738 13.6406L188.621 14.1562L188.855 14.4141L187.988 14.5547L187.613 14.4141V14.8125C188.613 15.0781 189.621 15.25 190.637 15.3281L190.895 16.2422L190.496 16.7578L190.895 17.1328L190.004 17.3906L189.629 18.9375L188.996 19.4531L190.004 19.7109L190.121 20.1094C190.715 20.1094 191.184 20.3203 191.527 20.7422V20.1094H191.902L192.91 20.625V20.2266L192.793 19.8516L193.66 20.3672V20.625H194.035H193.027V21L193.543 21.5156L192.793 21.3984V21.9141L193.402 22.2891C191.137 22.6328 188.863 22.6797 186.582 22.4297V22.6875C186.082 22.6875 185.621 22.7734 185.199 22.9453L184.707 22.5469V23.0625H184.449L183.676 22.8047L183.184 22.9453L182.293 22.1719L182.176 23.0625H180.91C180.238 23.0625 179.645 23.2344 179.129 23.5781ZM180.91 22.6875V22.4297H180.652V22.6875H180.91ZM187.215 21.2578L186.98 21V21.2578H187.215ZM189.371 21.1406V20.8828L188.996 20.7422L188.855 21.1406H189.371ZM188.363 21V20.625H187.988V21H188.363ZM188.738 18.8203L189.254 18.5625L189.629 18.6797V18.1641L188.996 18.0469V18.3047H188.621L188.48 18.8203H188.738ZM185.949 18.4219V18.0469H185.574V18.4219H185.949ZM173.832 18.1641L173.457 17.7891V18.3047L173.832 18.1641ZM191.762 16.3594L191.902 16.1016L192.02 16.3594H191.762ZM185.832 16.2422L185.34 15.9844V16.3594L185.832 16.2422ZM178.637 15.4688L178.262 15.3281V15.5859L178.637 15.4688ZM185.949 15.3281V15.0703L185.715 15.3281H185.949ZM189.113 12.4922L189.254 12.0938H188.855V12.4922H189.113ZM178.004 9.91406L177.629 9.77344V10.0312L178.004 9.91406ZM182.434 9.77344L182.293 9.25781H182.035L181.66 9.39844L180.793 9.14062C181.199 9.14062 181.402 8.96875 181.402 8.625L181.027 8.10938L180.652 7.33594L180.91 6.82031L180.395 6.5625V6.30469H180.652V4.875L181.168 4.75781L181.285 4.35938C182.973 3.67188 184.66 3.02344 186.348 2.41406L186.465 2.8125H186.723L186.98 2.29688L187.473 2.15625L188.996 2.29688C189.746 1.85938 190.59 1.64062 191.527 1.64062L191.645 2.15625H191.902L192.16 2.03906V2.29688L191.902 3.21094L191.527 3.32812V3.58594L191.762 4.5L191.527 5.39062L190.895 6.04688V6.42188L191.527 6.82031V7.07812L190.895 7.33594L190.637 7.85156L190.004 7.96875L189.887 8.22656C188.777 8.57031 187.598 8.78906 186.348 8.88281L185.574 8.74219L185.199 8.88281V9.25781H184.824L183.934 8.88281V9.39844L182.809 9.51562V9.77344H182.434ZM181.66 8.36719L181.402 8.10938V8.36719H181.66ZM187.473 7.45312L187.73 6.82031H187.988C188.316 5.96094 188.566 5.05469 188.738 4.10156C188.238 3.75781 187.691 3.63281 187.098 3.72656L186.723 3.84375L186.09 3.72656L185.832 4.24219H184.824L184.449 4.10156L184.074 4.75781H183.676V5.01562L182.809 5.39062L182.668 5.90625H182.926L183.441 5.78906L183.676 6.16406L183.559 6.67969H184.309V6.9375L183.816 7.19531L183.676 7.59375L185.832 7.71094L187.473 7.45312ZM182.809 6.9375L182.926 6.5625H182.551V6.9375H182.809ZM190.496 6.30469L190.121 5.90625V6.16406L190.496 6.30469ZM182.293 5.78906L182.434 5.39062H181.801V5.64844L182.293 5.78906ZM188.996 3.72656V3.32812H188.621V3.72656H188.996ZM191.129 2.8125L191.27 2.41406H191.012L190.895 2.8125H191.129Z" fill="black"/>
<path d="M153.896 23.4844L153.521 23.3438V22.8281H153.122L153.005 21.6797H152.606V21.4219L152.724 21.0469H152.466L152.606 20.5312H153.263L153.38 19.2422L153.638 19.875L154.036 20.0156L153.778 20.6484L154.552 20.9062V20.3906H155.208L155.981 20.7891V20.3906L154.95 19.875V19.6172L156.356 18.9844L156.614 18.4688H157.013L157.411 18.6094V18.3516L157.153 18.2109V17.9531H156.755H157.153L157.411 18.0938V18.3516H157.786V18.0938H158.044L158.7 18.2109L158.841 17.5781H159.356L159.474 18.7266H158.7L158.302 18.4688L157.927 19.1016L157.669 18.8672L157.271 20.2734L156.755 20.7891H156.497L156.099 21.6797L155.067 22.0547L154.81 22.7109L153.896 22.9688V23.2266V23.4844ZM157.927 22.9688L157.786 22.4531L158.185 22.9688H157.927ZM159.731 22.7109L159.989 22.4531V22.7109H159.731ZM158.442 22.5703L158.302 22.1953L158.841 21.9375V21.5625L158.185 20.7891L158.583 20.3906L158.302 20.1328H158.583V19.3594L159.216 19.7578L159.989 19.3594V19.6172L159.216 19.875L159.099 20.2734H158.7V20.6484L159.216 22.1953L159.099 22.4531L158.442 22.5703ZM159.989 22.1953V21.6797H160.247L159.989 22.1953ZM145.458 21.7969L145.341 21.4219H145.083L144.685 21.5625L144.567 21.1641C144.13 21.2578 143.825 21.1328 143.653 20.7891L143.513 20.0156L143.653 19.6172L143.513 19.2422L143.653 18.6094C143.481 17.4844 143.263 16.3672 142.997 15.2578L143.513 14.8828C143.435 14.4453 143.567 14.1406 143.911 13.9688H144.31C144.653 14.2344 144.825 14.5781 144.825 15L145.997 15.2578V14.625L145.458 14.2266V13.7344L145.997 13.5938L147.028 13.9688V14.3672H147.286C147.896 14.1953 148.458 14.0234 148.974 13.8516V13.5938H149.231L149.888 14.1094V13.8516H150.146V14.8828H150.521L150.005 16.1719L150.263 16.2891V16.8047L150.661 17.0625L150.403 17.4375H150.146L149.747 17.3203V17.8359L149.888 18.2109H150.263L150.521 18.0938C150.786 18.6094 150.919 19.1172 150.919 19.6172L150.005 19.7578L149.747 20.6484L149.091 20.7891L148.458 20.5312L148.2 21.0469L148.575 21.4219L147.427 21.5625L145.997 21.4219L145.458 21.7969ZM154.552 21.5625L154.669 21.1641L153.778 21.0469L153.638 21.6797L154.552 21.5625ZM159.356 21.3047V20.9062H159.872L159.989 21.1641L159.356 21.3047ZM164.794 20.1328L163.763 19.7578L163.622 19.3594L160.528 16.9219H159.614V17.3203V17.0625H158.7L158.442 17.4375L157.669 17.6953V17.4375H157.927V17.1797L157.669 16.8047L158.185 16.9219V16.5469L157.786 16.4062L157.528 15.3984L156.614 15.1406L155.583 15.2578L155.325 14.1094H154.95L154.669 15L154.153 15.2578L153.778 14.625C153.263 14.625 152.786 14.4531 152.349 14.1094V13.7344H152.606V12.9609L152.466 12.7031H152.724L152.864 13.2188H153.122L154.153 13.0781L154.552 13.2188V12.7031L156.099 12.5625L156.239 13.0781H156.614L156.896 12.9609L157.013 13.2188H157.271L157.411 12.4453L157.528 12.7031H157.927L158.185 12.1875H157.786V11.9297L158.044 11.0391L157.411 10.8984C157.489 10.3828 157.317 10.0859 156.896 10.0078L156.614 10.125L156.239 9.49219H155.981L155.466 9.75V10.0078L155.724 10.125V10.3828H155.325L154.552 10.0078L154.294 9.23438L154.411 8.57812H154.669L154.81 9.09375H155.325V8.71875L156.896 8.46094L157.013 8.08594H157.528L158.044 8.20312L158.185 7.6875L158.044 6.91406H157.669L157.271 7.05469V6.39844H157.528V5.88281L157.013 5.64844V5.39062H156.239L156.099 5.76562L155.583 5.88281L155.325 6.53906L154.81 6.65625L154.669 7.3125L154.81 7.6875L154.552 8.20312H154.036L153.896 8.57812H153.122L152.864 8.08594C152.864 7.10156 152.864 6.11719 152.864 5.13281L152.606 3.84375L153.005 1.26562L153.778 1.00781L153.896 0.632812L154.95 0.492188V0.75L155.981 1.00781L156.099 0.117188C156.817 -0.0703125 157.513 -0.0234375 158.185 0.257812V0C158.794 0.046875 159.396 0.171875 159.989 0.375L160.13 0H163.247L163.364 0.375L163.247 0.632812H162.989V0.890625C163.333 2 163.458 3.24219 163.364 4.61719L162.989 5.88281L163.364 7.3125C162.942 7.5625 162.771 7.90625 162.849 8.34375H163.364V8.71875L162.731 9.23438V9.75L162.849 10.0078L161.419 10.2656L161.302 9.86719H160.903L160.646 10.2656L159.989 11.1562L159.356 10.8984V11.7891L159.872 12.4453L160.247 12.5625L160.646 12.4453V12.0469L161.56 12.4453L162.216 12.1875V12.7031H162.591L162.731 11.9297L163.106 11.7891L163.763 12.4453H163.247V12.9609L163.763 13.0781V13.3359L162.591 13.8516V14.2266H162.989V14.4844L162.591 14.625L161.935 14.2266L161.56 13.8516C161.56 14.2734 161.427 14.6562 161.161 15H160.388V15.3984L160.528 15.7734H160.786L161.161 15.6562C162.208 16.6719 163.333 17.5703 164.536 18.3516L164.935 18.4688L165.708 19.1016L165.966 19.875C165.622 20.1406 165.231 20.2266 164.794 20.1328ZM144.685 19.7578L144.31 19.6172V19.875L144.685 19.7578ZM148.458 19.6172V19.2422H148.06V19.6172H148.458ZM154.411 19.5L154.153 18.8672L154.669 19.3594L154.411 19.5ZM146.771 19.3594L147.427 19.1016L148.2 19.2422L148.716 18.9844C148.669 18.0781 148.755 17.1797 148.974 16.2891L148.716 16.1719V15.6562L149.091 15.5156V15.2578L148.2 15.1406L147.942 15.6562H147.685V15.3984L148.06 15.2578V14.7422L147.427 14.625L146.372 15.1406L146.255 15.5156L145.739 15.7734L145.599 16.0312L145.458 16.4062L145.856 18.3516L146.255 19.1016L146.771 19.3594ZM155.067 19.1016L154.95 18.7266L155.466 18.4688L155.724 17.9531H156.099L155.981 18.8672L155.067 19.1016ZM145.599 18.4688V18.0938H145.2V18.4688H145.599ZM149.63 17.9531V17.5781H149.231V17.9531H149.63ZM144.052 17.4375V17.0625H143.653V17.4375H144.052ZM158.841 16.9219V16.4062H158.583L158.442 16.8047L158.841 16.9219ZM145.2 16.6641L144.942 16.4062V16.6641H145.2ZM149.091 15V14.1094H148.458V14.3672L148.716 15H149.091ZM156.239 15V14.625L155.583 14.4844V14.7422L156.239 15ZM156.896 14.8828V14.625L157.013 14.2266L156.614 14.1094L156.356 14.8828H156.896ZM146.255 14.4844V14.2266L145.856 14.1094V14.4844H146.255ZM163.364 14.3672V14.1094H163.622V14.3672H163.364ZM153.38 13.5938L153.005 13.4766V13.7344L153.38 13.5938ZM161.677 13.4766V13.2188L161.817 12.7031L161.419 12.5625L161.161 13.0781L161.302 13.4766H161.677ZM160.646 13.2188L160.786 12.8203H160.528L160.247 13.3359L160.646 13.2188ZM160.13 13.0781V12.7031H159.872V13.0781H160.13ZM159.356 12.9609V12.1875H158.958L158.583 12.3047V12.7031L159.356 12.9609ZM143.255 12.4453V11.9297L142.997 11.1562L145.458 10.6406L145.856 10.8984L145.997 10.2656H146.255V10.5234H146.63V10.2656H146.888L147.286 10.3828L147.942 10.125L148.317 10.2656L148.716 10.125L149.63 11.0391L149.372 11.1562L149.231 11.7891H148.833C148.489 11.5391 148.106 11.4531 147.685 11.5312V11.7891L146.513 12.0469L143.794 11.7891V12.0469L143.255 12.4453ZM161.935 9.49219L161.56 9.35156V9.60938L161.935 9.49219ZM160.903 9.35156L160.388 8.83594V9.09375L160.903 9.35156ZM162.333 9.23438V8.97656H162.075V9.23438H162.333ZM156.896 8.97656V8.71875H156.614V8.97656H156.896ZM159.474 8.34375L161.419 7.6875C161.466 6.67188 161.513 5.64844 161.56 4.61719H161.302L160.786 4.73438L159.989 4.47656V4.73438L160.13 5.13281L158.185 6.02344V6.39844L158.958 7.05469L159.099 6.39844L159.731 6.28125L159.989 6.39844L160.13 7.05469L159.989 7.3125V6.65625H159.731L159.099 6.91406V7.17188H158.7L158.442 7.05469L158.302 7.42969L159.474 8.34375ZM143.396 8.08594L142.997 7.94531V7.42969C144.388 6.91406 145.817 6.57031 147.286 6.39844L148.317 6.53906L149.372 6.28125L149.888 6.53906L150.005 7.05469L149.372 7.3125L149.091 7.82812L147.427 7.94531L146.888 7.6875L145.599 7.82812L145.083 7.6875L144.942 7.94531H144.567L144.052 7.82812L143.396 8.08594ZM155.067 6.14062V5.76562H154.669L154.552 6.14062H155.067ZM162.474 5.76562L162.075 5.39062V5.76562H162.474ZM156.896 5.25V4.875H156.497V5.13281L156.896 5.25ZM144.942 4.35938V3.96094L142.739 3.70312L142.622 2.55469C143.31 2.30469 144.083 2.21875 144.942 2.29688L145.2 0.375H145.856V0H146.63L146.771 0.257812H147.028L147.146 0H147.544L148.06 1.78125L150.005 1.92188L150.778 1.78125L151.177 2.17969L151.317 1.78125L151.692 1.66406L151.833 2.4375L151.575 2.95312H151.317C151.396 3.375 151.263 3.625 150.919 3.70312L150.263 3.58594V3.84375L150.403 4.21875H150.005L149.091 3.84375L148.575 3.96094L148.06 4.10156L147.544 3.96094V4.21875L146.513 3.96094L145.997 4.21875V3.84375L146.114 3.44531L145.458 2.95312C145.552 3.54688 145.38 4.01562 144.942 4.35938ZM160.13 4.21875L160.528 3.70312L161.56 3.58594L161.817 1.40625L160.786 1.14844V1.40625L161.161 2.29688H160.528L159.872 1.78125L159.731 2.17969L159.872 2.69531L159.356 2.95312V3.32812L159.872 3.58594L159.614 3.70312V4.10156L160.13 4.21875ZM154.552 4.10156L154.669 3.70312H154.294L154.153 4.10156H154.552ZM158.302 3.96094L158.442 3.32812L157.528 3.1875L157.153 3.32812L156.497 1.66406L155.583 1.40625V2.17969L156.099 2.4375V2.69531H155.841L155.067 2.4375L154.552 3.44531L154.669 3.84375C155.278 4.09375 155.974 4.17969 156.755 4.10156L157.927 3.70312L158.302 3.96094ZM148.06 3.84375L148.716 3.70312V3.32812L147.286 3.07031V3.32812L147.802 3.58594L148.06 3.84375ZM150.661 2.55469V2.29688L150.263 2.17969V2.4375L150.661 2.55469ZM154.81 2.03906V1.78125H154.552V2.03906H154.81ZM156.755 1.26562V1.00781L156.497 0.375H156.099V1.00781L156.755 1.26562ZM159.356 0.890625L159.099 0.632812V0.890625H159.356Z" fill="black"/>
<path d="M116.007 22.3125L115.233 21.9375L115.116 21.5625L115.233 21.0469C114.733 20.7031 114.437 20.2266 114.343 19.6172L114.858 18.8672L114.343 18.2109L114.601 17.4375L114.976 16.9219L114.343 15.9141L115.491 15.5156V15.1406H114.858V14.4844L115.233 13.4766H114.741L114.483 13.5938L114.343 13.0781L114.741 11.6719L115.116 11.4141V11.0391L114.858 10.0078C115.202 9.66406 115.327 9.1875 115.233 8.57812H114.976L115.116 8.20312L114.741 7.6875L114.601 6.91406L114.226 6.14062H114.601V5.64844L114.858 6.02344L115.233 6.14062V5.88281L115.116 5.39062L116.007 5.25L116.124 4.875H115.866L115.608 4.21875L116.007 4.10156L116.265 4.99219L116.64 5.13281V4.35938L116.499 3.96094L116.897 3.84375L117.015 4.10156H117.272L117.53 3.96094L117.788 4.10156L118.022 3.32812H117.647V3.07031H117.905L118.28 3.58594H118.655L118.796 3.1875H119.171V2.69531L120.179 2.55469V2.29688L120.062 1.92188L120.694 1.78125V1.40625H120.437L121.069 1.14844L121.468 1.26562L121.585 0.75H122.358V1.00781L122.218 1.52344H122.476V1.92188H122.851V2.8125H123.366L123.483 3.70312L122.593 4.61719L121.069 5.25L120.835 5.13281L120.577 5.64844L119.546 6.14062L119.429 6.91406H119.687L120.179 6.65625L120.694 7.17188L121.21 6.91406L121.585 7.17188L122.101 6.91406H122.593C123.03 6.49219 123.538 6.28125 124.116 6.28125V6.53906H123.741V6.79688L124.257 6.91406V8.08594H124.515L124.89 7.94531V7.57031L125.007 7.94531L124.515 8.20312L124.374 9.75L124.632 11.2734L124.116 12.1875L124.515 12.3047L124.632 13.0781L124.257 14.1094H123.999L123.882 14.7422L124.116 15.5156L123.882 16.0312L123.483 16.2891V16.6641L123.882 17.4375L123.624 18.2109C123.108 18.3828 122.937 18.7656 123.108 19.3594L123.249 20.1328H122.476L122.218 21.1641L121.468 21.3047L120.835 20.7891H121.21L120.694 20.2734V19.875L120.952 19.7578V19.3594L120.835 18.9844H120.062V18.4688H119.054L118.913 18.8672L118.163 18.9844V18.7266L118.28 18.3516H117.788L117.647 19.2422L118.022 19.6172L117.53 20.5312H117.272L117.015 20.3906V20.7891L117.39 21.1641H117.788V21.4219L117.39 21.6797V21.9375L116.007 21.6797V21.9375V22.3125ZM115.749 21.7969V21.4219H115.374V21.7969H115.749ZM129.835 21.4219L129.577 21.3047L129.46 20.7891L128.054 20.3906V19.7578C129.663 19.1641 131.358 18.6953 133.14 18.3516V17.9531H132.882L133.397 15.7734L134.147 15.6562V15.3984L133.655 15.1406L133.772 14.7422H134.147V13.9688V13.0781H134.663V12.7031L134.546 12.1875L134.804 11.6719L134.546 10.7812C134.874 9.75 135.171 8.71875 135.437 7.6875V7.42969L135.179 6.65625L134.921 6.53906L134.663 6.02344L133.913 5.88281L133.655 6.53906L132.624 6.65625L131.874 6.53906L131.101 6.79688L130.351 6.02344L130.233 6.79688L129.343 6.91406L129.085 8.97656H128.71L128.569 9.35156L127.304 9.86719L126.671 9.35156L126.53 8.20312L126.671 7.82812L126.53 6.79688C126.952 6.70312 127.124 6.44531 127.046 6.02344L127.304 5.64844L127.163 5.25L127.421 4.21875C127.765 4.04688 127.897 3.75 127.819 3.32812L128.312 1.26562H128.71L130.093 1.52344L130.608 1.40625L130.726 1.78125L130.608 2.17969L130.726 2.55469L130.468 3.84375L130.983 4.10156L131.358 5.39062L131.241 5.76562H131.499L132.132 4.99219L133.022 4.73438L133.515 4.875L134.03 4.47656L134.546 4.61719L135.671 3.96094L136.187 4.21875L136.562 4.10156L136.819 4.47656H137.218L137.452 5.25H137.851V5.50781L137.218 6.02344V6.39844H137.71L137.851 5.88281L138.085 6.02344C137.663 6.36719 137.499 6.79688 137.593 7.3125L137.077 7.05469V7.42969L137.851 8.08594V8.46094L137.452 8.71875V9.09375H137.71L138.085 8.83594V9.09375L137.077 9.75V10.3828H136.819V11.4141L137.452 12.5625H137.077V12.9609L136.96 13.3359L137.077 14.1094L136.327 14.3672V14.7422L136.819 14.8828V15.2578H136.562L136.187 15.1406L135.671 15.2578V15.7734L136.327 15.9141H136.819L136.187 16.4062L136.444 17.0625L136.819 17.4375H136.327V17.1797H136.069L135.812 17.8359L135.437 17.6953C135.171 18.0391 135.085 18.4688 135.179 18.9844H135.929V19.2422L134.804 19.5L134.405 20.6484L133.772 20.7891L133.515 20.2734H133.14V20.7891L132.765 20.6484L131.358 21.3047V20.9062L130.233 20.6484L129.976 21.3047L129.835 21.4219ZM117.788 18.2109V17.8359H117.39V18.0938L117.788 18.2109ZM118.421 18.2109V17.8359H118.022V18.2109H118.421ZM121.069 18.0938V17.6953L120.835 18.0938H121.069ZM117.132 17.5781V17.1797L116.757 17.5781H117.132ZM118.913 17.3203V17.0625H118.655V17.3203H118.913ZM134.147 17.0625V16.6641H133.655V16.9219L134.147 17.0625ZM121.726 16.8047V16.2891C121.804 15.5234 121.968 14.7969 122.218 14.1094L122.101 13.7344H121.21V14.2266H120.952L120.835 13.8516H120.577L120.179 14.7422H119.804L119.429 14.625L118.655 15L118.163 14.625L118.022 14.8828L117.272 15.1406L117.132 15.7734C117.476 16.0391 117.905 16.125 118.421 16.0312L119.546 15.7734V16.1719L119.312 16.4062L119.687 16.5469C120.015 15.9531 120.522 15.7422 121.21 15.9141V16.1719L120.952 16.8047H121.726ZM115.608 16.4062L115.233 16.0312V16.5469L115.608 16.4062ZM134.405 16.4062L134.03 15.9141V16.5469L134.405 16.4062ZM117.132 16.1719V15.7734H116.757V16.1719H117.132ZM136.069 14.2266L135.437 13.9688V14.3672L135.812 14.4844L136.069 14.2266ZM119.312 14.1094V13.8516H119.054V14.1094H119.312ZM119.804 13.9688L120.062 12.9609H119.804L119.546 13.9688H119.804ZM136.702 13.5938L136.444 13.0781L136.069 12.9609V13.4766L136.702 13.5938ZM132.507 13.4766L131.757 13.0781L131.241 13.2188V12.9609C130.647 12.7891 130.054 12.6172 129.46 12.4453L129.343 11.4141L129.577 11.1562H129.835L129.976 10.7812L130.351 10.6406C130.694 10.9062 131.077 10.9922 131.499 10.8984V11.1562L130.726 11.4141V11.0391H130.351L129.976 11.7891L131.874 12.0469V12.3047H132.132V11.7891L131.874 11.4141L132.765 11.2734L132.882 12.0469L132.765 12.5625L133.14 12.8203L132.624 13.2188L132.507 13.4766ZM117.647 13.3359V12.5625H117.39L117.272 13.3359H117.647ZM122.101 12.7031L122.358 11.9297H121.843V12.4453L121.726 12.7031H122.101ZM120.835 12.0469L121.21 11.7891L121.327 12.4453H121.843V12.0469L121.726 11.2734L122.733 11.5312L122.991 8.97656L122.851 8.57812H122.593L122.358 9.09375H121.585L120.952 8.83594L120.835 9.23438L119.687 9.35156L119.171 9.09375L118.163 9.23438L117.788 9.09375C117.444 9.78125 117.272 10.5078 117.272 11.2734L118.538 11.9297L118.796 11.7891C118.968 12.0547 119.218 12.1406 119.546 12.0469L119.687 11.5312H120.179L120.835 12.0469ZM132.624 12.0469V11.6719H132.249V12.0469H132.624ZM136.819 11.9297L135.812 11.4141V11.6719L136.819 11.9297ZM137.593 10.6406L137.452 10.125H137.851V10.5234L137.593 10.6406ZM115.608 10.125L115.749 9.49219H115.491L115.233 10.0078L115.608 10.125ZM136.819 9.86719V9.49219H136.562L136.444 10.0078L136.819 9.86719ZM120.179 8.83594V8.46094H119.804V8.83594H120.179ZM115.608 7.82812V7.57031L115.374 7.82812H115.608ZM123.249 7.17188L122.733 6.91406V7.17188H123.249ZM117.788 6.53906V6.14062H117.39V6.53906H117.788ZM132.882 5.64844L132.624 5.39062V5.64844H132.882ZM137.077 5.64844V5.39062H136.819V5.64844H137.077ZM130.983 4.99219L131.101 4.47656H130.608V5.13281L130.983 4.99219ZM135.929 4.35938L135.554 4.21875V4.47656L135.929 4.35938ZM118.538 4.10156V3.70312H118.163V4.10156H118.538ZM119.804 3.32812V3.07031H119.546V3.32812H119.804Z" fill="black"/>
<path d="M92.5088 26.0391L92.626 25.4062L93.0244 25.2656V24.8906C92.5869 24.9688 92.3291 24.8359 92.251 24.4922L92.626 24.375V24.1172L92.3682 23.6016L92.5088 22.8281L92.3682 22.3125L92.5088 21.7969L92.251 21.4219H92.7666V21.1641C92.501 20.3984 92.3291 19.5859 92.251 18.7266C92.501 18.1328 92.5869 17.4062 92.5088 16.5469L93.0244 15.5156L92.7666 15.3984L92.8838 14.8828L92.3682 14.625V14.3672L92.5088 13.9688H93.1416V13.4766H92.3682L92.251 12.8203H92.5088V13.2188H92.7666L93.0244 12.7031L92.7666 12.0469H92.5088L92.8838 11.9297V11.5312H93.2588L93.3994 11.1562H93.915V10.8984L93.3994 10.7812L92.7666 11.0391V10.6406L93.5166 10.5234V10.0078L92.8838 9.09375H93.3994L93.5166 8.71875H95.0635L95.8135 8.83594L95.6963 9.35156C96.1182 9.69531 96.3291 10.1719 96.3291 10.7812L96.7275 10.8984L97.1025 11.6719L95.6963 11.9297L95.3213 11.7891V12.0469C95.4932 12.8281 95.6572 13.5547 95.8135 14.2266L95.5791 15L95.9541 16.2891L95.8135 16.9219L96.2119 17.4375C97.1494 17.4375 98.04 17.5703 98.8838 17.8359L99.0244 18.2109L100.173 18.0938C100.767 18.4375 101.446 18.6094 102.212 18.6094L102.728 16.4062C102.462 16.1562 102.329 15.8203 102.329 15.3984L101.321 15.2578L101.063 14.7422L100.806 14.625C100.462 14.4531 100.118 14.2344 99.7744 13.9688L99.5166 13.2188H99.2588L99.5166 13.0781L100.032 13.2188L100.173 12.8203H100.431L100.548 13.2188H101.181L101.954 12.9609L102.728 13.0781V12.8203C102.384 12.3984 102.001 12.1406 101.579 12.0469L101.438 11.4141H101.063V11.6719L100.173 11.7891L99.3994 11.5312L99.0244 11.2734L98.5088 11.9297H98.1104L97.876 10.5234L97.6182 10.3828L96.8447 9.60938H96.5869V9.09375L97.2197 8.83594L97.7354 9.23438H97.4775V10.0078L97.876 10.125V10.3828L98.8838 10.125V9.86719H99.5166L98.8838 10.125L99.5166 10.7812L99.915 10.125H100.173L100.29 10.5234H100.665V10.2656L101.181 10.3828L102.071 10.0078L102.47 10.125V9.86719L103.735 9.49219L104.251 9.75L104.368 10.8984L104.251 11.2734H103.735L103.618 12.0469L104.368 12.3047V11.7891L104.626 12.3047L104.509 13.3359C104.931 13.2578 105.181 13.3906 105.259 13.7344L105.142 14.3672L105.399 15L105.657 15.1406V15.3984H105.142L104.767 16.5469H105.142V17.3203L105.024 17.5781L105.399 17.6953L105.657 18.0938L105.142 18.4688V19.3594H105.517L105.915 19.2422V19.7578L105.774 20.0156L105.399 20.1328V20.6484H105.774V21.6797H105.259V21.9375L106.032 22.8281L105.517 23.3438L103.478 24.1172C103.056 23.8672 102.884 23.5234 102.962 23.0859L103.103 22.4531H102.845V22.1953L103.103 21.5625L102.845 21.0469H103.103V20.6484C102.165 20.3047 101.274 19.9609 100.431 19.6172L99.7744 19.875L98.7666 18.8672V19.5H98.5088L97.876 19.1016L97.7354 19.3594H96.8447L95.9541 19.1016L95.8135 20.2734L95.5791 20.9062L95.6963 21.5625L95.5791 22.0547L95.9541 22.9688L95.5791 23.0859V23.3438L95.6963 23.6016L96.0713 24L95.8135 24.4922L95.9541 25.0078L95.5791 25.6641L95.1807 25.7812L94.5479 25.6641L92.5088 26.0391ZM95.5791 25.1484V24.6328H95.1807V25.1484H95.5791ZM95.3213 23.7422L95.4385 23.2266H95.0635L94.9229 23.6016L95.3213 23.7422ZM105.259 23.0859L105.517 22.4531L105.024 22.3125L104.626 22.9688L105.024 23.3438L105.259 23.0859ZM95.3213 20.1328L95.4385 19.7578H95.1807L94.8057 19.875V20.2734L95.3213 20.1328ZM95.4385 18.7266V18.4688H95.1807V18.7266H95.4385ZM96.3291 18.7266V18.4688L96.2119 17.8359H95.9541V18.7266H96.3291ZM97.4775 18.4688L97.6182 18.0938H97.2197V18.6094L97.4775 18.4688ZM95.4385 17.6953L95.5791 17.3203H95.3213L95.1807 17.6953H95.4385ZM85.876 16.5469L85.4775 15.5156H85.1025V16.2891H84.8447V14.3672H85.2197L85.6182 13.0781H85.876L85.9932 12.5625H86.251L86.626 11.5312L87.2588 11.0391L88.29 9.60938L88.665 9.49219C89.0088 8.72656 89.4385 8.03906 89.9541 7.42969L90.7275 6.53906L90.8447 6.02344H91.1025L91.2197 5.50781H91.4775L91.9932 4.47656L91.2197 4.35938V4.61719L89.9541 4.875V4.35938H89.5791L88.9229 4.47656V4.875L89.0635 5.25H88.665L87.2588 4.73438C88.1182 4.3125 89.0166 4.05469 89.9541 3.96094L90.0713 3.58594L89.5791 3.32812H89.3213L89.0635 3.44531L88.665 3.32812L88.29 3.44531L88.4307 2.95312C88.5088 2.51562 88.7197 2.29688 89.0635 2.29688V2.69531L88.9229 3.07031H89.3213L89.4385 2.69531L90.7275 2.4375L91.3604 2.69531L92.251 2.29688V3.07031H93.0244V2.55469H92.7666L93.7744 2.03906C94.1182 1.41406 94.415 0.773438 94.665 0.117188L97.4775 0V0.257812L97.2197 1.40625H96.5869V1.78125L96.7275 2.55469H97.2197L98.5088 2.03906L99.0244 2.29688L99.1416 1.92188H99.7744L99.915 2.29688H100.173L100.548 2.03906V2.55469H100.923L101.181 1.66406H102.071V1.92188H102.47L102.587 1.52344H103.618L103.735 2.4375H104.11L104.626 1.40625H104.884L105.774 1.66406V2.4375H106.173L105.517 2.69531L105.259 2.55469L105.142 2.03906H104.767L104.626 2.8125L105.142 3.07031L105.774 3.1875V3.58594H106.032V3.84375L105.024 3.96094L104.884 4.47656H104.626L104.251 4.35938V4.61719L104.368 4.99219H104.884L104.11 5.13281L103.993 4.47656L104.509 4.21875V3.84375C103.821 3.75 103.228 3.53125 102.728 3.1875V3.58594L102.845 3.96094L103.618 4.10156V4.35938L103.103 4.61719V4.10156L102.728 3.96094L102.47 3.1875L102.845 2.17969H103.103V1.92188H102.587V2.29688L102.212 2.4375L102.071 3.07031L101.696 2.69531H101.321L101.181 3.07031C101.353 3.58594 101.735 3.84375 102.329 3.84375V4.47656L102.212 4.875H101.813L101.438 3.70312L100.548 3.1875L100.431 3.58594L100.806 3.70312V4.875L100.032 3.84375L99.5166 3.70312L99.3994 4.21875L99.7744 4.35938L100.032 5.13281C99.6885 4.86719 99.2666 4.73438 98.7666 4.73438L98.626 5.13281H98.3682V4.875L98.5088 4.47656L98.1104 4.35938L97.876 4.73438H97.6182L96.7275 4.47656V4.21875H96.0713L95.9541 4.61719L96.3291 4.99219H96.0713L95.0635 4.73438V4.99219L95.1807 5.25L94.665 5.39062L94.4307 6.02344H94.1729L94.0322 6.65625H93.6572L93.2588 6.53906C92.8994 7.17969 92.6494 7.85938 92.5088 8.57812H92.251V9.09375H91.7354L91.4775 9.60938L91.3604 9.23438L90.9619 9.09375V9.49219L91.1025 9.86719L90.7275 10.0078C90.4619 10.8672 90.0322 11.6328 89.4385 12.3047L89.5791 12.7031L89.0635 12.9609L88.665 13.9688L87.6572 14.1094V14.3672H88.0322V14.7422L87.7744 15.2578H87.0244V16.2891L86.626 16.1719L85.876 16.5469ZM94.0322 15.9141V15.5156H93.7744V15.9141H94.0322ZM99.1416 15.1406L98.3682 14.7422L98.251 14.4844H97.7354L97.3604 14.1094V13.8516L97.876 13.3359V13.0781H98.251L98.3682 13.3359L99.0244 13.4766V13.7344H98.3682V14.2266L99.0244 14.625L99.1416 15.1406ZM93.3994 14.4844L93.6572 13.9688H93.3994L93.0244 14.625L93.3994 14.4844ZM96.8447 14.3672V13.3359H97.1025V13.7344L96.9619 14.1094L96.8447 14.3672ZM101.579 13.7344V13.3359H101.181V13.7344H101.579ZM94.0322 13.4766V13.0781H93.6572L93.5166 13.4766H94.0322ZM94.5479 11.7891L94.1729 11.5312V11.9297L94.5479 11.7891ZM101.321 11.0391L101.063 10.7812V11.0391H101.321ZM102.845 10.7812L102.47 10.3828V10.7812H102.845ZM95.0635 10.125L94.5479 10.0078V10.2656L95.0635 10.3828V10.125ZM102.071 4.47656V4.10156H101.813V4.47656H102.071ZM99.2588 3.84375L99.5166 3.32812L99.3994 2.69531H99.1416L98.8838 3.70312L99.2588 3.84375ZM105.024 3.84375V3.44531H104.509V3.84375H105.024ZM96.5869 3.1875V2.8125H96.2119V3.1875H96.5869ZM96.2119 1.66406V1.40625L95.8135 1.26562V1.52344L96.2119 1.66406ZM96.5869 0.75V0.492188L96.0713 0.257812L96.5869 0.75Z" fill="black"/>
<path d="M62.5879 25.6641L62.3301 25.0078L61.1816 24.4922L61.6973 24.1172V23.7422H61.4395L60.666 22.9688L60.5488 23.4844L60.4082 23.2266C59.5645 23.0547 58.7676 22.75 58.0176 22.3125V21.7969L59.2832 21.4219L59.4004 20.7891H59.916L60.0332 20.3906L61.1816 19.875C61.2285 19.4531 61.1426 19.0703 60.9238 18.7266L61.4395 18.0938H61.6973V17.8359L61.5566 17.4375L62.1895 17.3203L62.3301 16.2891L61.6973 14.1094L62.8223 13.7344L63.3379 14.4844L63.7129 14.625L63.8535 14.2266H64.1113L63.9707 14.625L64.1113 15.2578H64.6035C64.5254 14.5703 64.6973 14.0156 65.1191 13.5938H64.6035V13.3359L65.4941 13.2188V12.5625H65.2363L64.8613 12.7031L65.4941 11.5312L66.127 11.2734L66.2676 10.8984L66.6426 10.7812L66.7598 10.0078L66.6426 9.35156L65.752 9.23438L64.1113 9.60938L63.3379 9.35156C62.666 9.69531 61.9082 9.91406 61.0645 10.0078L61.2988 9.86719L61.5566 8.97656L61.9316 8.71875V8.34375L62.4473 8.20312L62.5879 7.94531L62.8223 8.20312H63.3379V7.6875H64.9785L65.2363 7.42969L65.377 7.82812H65.8691L67.1582 7.42969L67.5332 7.94531H67.9082L68.6816 6.91406H68.166L67.6504 7.3125L68.166 6.91406L68.2832 6.28125L68.4238 6.79688H68.6816V7.17188L69.4316 7.3125L70.3223 7.05469L70.4395 6.28125H69.9473V6.53906H69.1738V6.28125H69.5723V5.88281L68.916 5.64844L68.7988 4.875H69.0566L69.9473 5.50781L70.5801 4.73438H70.2051L70.8379 4.10156L71.2129 4.21875V3.96094L70.6973 3.70312L71.4707 3.58594C71.377 3.16406 71.502 2.90625 71.8457 2.8125L72.1035 3.44531L71.7285 4.10156L71.8457 4.47656L71.0957 5.25L71.4707 5.64844C71.2207 6.14844 71.1348 6.74219 71.2129 7.42969H71.4707L71.7285 7.05469L74.002 6.91406V7.17188L75.1504 7.3125V7.05469H74.8926V6.65625L75.1504 7.05469L75.5254 7.17188V7.57031H76.1582V7.17188L76.041 6.79688L76.791 6.53906L77.1895 6.65625L77.3066 6.28125H78.1973L78.3145 6.79688L78.7129 7.05469L78.3145 7.3125L78.1973 7.6875H77.9395V7.94531L78.1973 8.08594V8.34375L77.8223 7.3125H77.3066L77.0488 7.82812L77.4238 8.71875L77.0488 9.23438H76.791L76.5566 8.83594L75.5254 8.57812V8.97656L75.666 10.0078H75.0332V10.5234L75.7832 10.7812V11.0391L74.7754 12.7031H75.1504L75.5254 12.1875H75.9004L76.1582 13.2188H77.9395L79.8379 13.0781L80.8691 13.5938H80.4707V13.8516L80.7285 14.3672H80.2363L80.0957 15C79.0488 15.4062 77.9941 15.3672 76.9316 14.8828C76.7285 15.9766 76.6426 17.0859 76.6738 18.2109H76.041V18.6094L76.1582 19.1016L75.9004 19.2422V19.5L76.041 21.1641H75.7832L75.4082 21.0469V21.4219C76.0801 21.6719 76.752 21.8438 77.4238 21.9375L78.1973 21.6797C78.791 21.9297 79.4238 22.0547 80.0957 22.0547L80.6113 21.7969L81.3613 22.0547L81.7598 21.9375V22.1953H82.3926L83.1426 22.0547L83.4004 22.7109L82.6504 23.8594L81.7598 23.6016L80.6113 24L79.3457 23.6016L78.9473 23.7422L78.1973 23.3438L77.5645 23.6016L77.4238 23.2266L77.0488 23.0859C76.627 23.5234 76.1191 23.6562 75.5254 23.4844L74.6348 23.2266L74.5176 23.6016H74.1426C73.877 23.2578 73.5332 23.1328 73.1113 23.2266V23.4844H72.8535L72.1035 23.3438V23.0859H71.7285L71.3301 23.2266L70.5801 22.9688L70.3223 23.3438H70.0645L69.8066 22.8281C69.0566 22.9219 68.4238 22.7969 67.9082 22.4531L67.2754 22.8281V22.5703C68.8066 21.8984 70.502 21.6406 72.3613 21.7969L72.8535 22.0547L72.9941 21.5625L72.7363 21.0469C73.252 20.7031 73.4629 20.2266 73.3691 19.6172H73.1113V19.1016L73.7441 18.9844L73.8848 18.6094L73.3691 18.2109L73.1113 17.3203L73.252 15.9141L72.2207 15.6562L71.7285 14.4844H71.3301V15.2578L70.5801 14.7422L70.8379 14.625V14.2266H70.5801L70.2051 14.4844V13.9688C71.2207 13.7188 72.2754 13.4688 73.3691 13.2188C73.791 12.0156 74.0488 10.7266 74.1426 9.35156L73.252 8.97656L72.2207 9.23438L70.9551 9.09375L69.9473 9.60938L69.5723 11.0391H68.7988L68.4238 10.8984L68.166 11.9297C67.7441 11.8359 67.5332 11.9609 67.5332 12.3047L67.6504 12.8203L67.3926 13.3359L67.0176 12.9609L66.6426 12.8203V13.2188L66.7598 13.5938L66.0098 14.1094L65.8691 15.2578L65.377 16.2891L64.8613 16.6641L64.9785 17.1797L64.6035 17.4375L64.2285 19.5L64.4863 20.5312L64.1113 21.3047L64.3457 21.4219V21.9375L64.1113 22.5703L64.2285 23.4844C63.9785 24.0781 63.8535 24.7188 63.8535 25.4062L62.5879 25.6641ZM62.4473 24.2578V23.8594H61.9316V24.2578H62.4473ZM61.2988 22.8281L61.1816 22.4531H60.9238V22.7109L61.2988 22.8281ZM59.6582 22.3125L59.2832 21.9375V22.4531L59.6582 22.3125ZM74.8926 21.6797L75.0332 21.3047H73.627L73.5098 21.7969L74.8926 21.6797ZM75.666 20.5312V20.2734L75.4082 19.5L75.5254 18.9844H75.2676L74.8926 20.1328L75.666 20.5312ZM62.0723 18.8672V18.4688H61.6973V18.8672H62.0723ZM74.5176 18.8672V18.4688H74.1426V18.8672H74.5176ZM75.5254 18.2109L75.2676 17.9531V18.2109H75.5254ZM75.4082 16.4062L75.0332 16.2891V16.5469L75.4082 16.4062ZM72.9941 15.1406L73.1113 14.7422L72.9941 14.3672H72.3613L72.1035 14.8828L72.9941 15.1406ZM71.9629 14.2266L71.7285 13.9688V14.2266H71.9629ZM74.5176 13.2188V12.9609L73.8848 12.7031V12.9609L74.5176 13.2188ZM66.127 12.5625V12.0469H65.752V12.7031L66.127 12.5625ZM67.9082 11.6719L67.3926 11.1562H66.9004L66.7598 11.5312H67.1582V11.9297L67.9082 11.6719ZM69.3145 10.7812V10.3828H68.916V10.7812H69.3145ZM72.4785 9.09375V8.83594L71.9629 8.71875V8.97656L72.4785 9.09375ZM73.5098 8.34375V8.08594L72.8535 7.6875V8.08594L73.5098 8.34375ZM74.002 8.08594V7.6875H73.7441L73.627 8.08594H74.002ZM71.9629 7.6875V7.42969L71.7285 7.6875H71.9629ZM77.6816 6.91406L77.3066 6.79688V7.05469L77.6816 6.91406ZM69.4316 3.58594V2.95312L69.8066 2.8125L69.6895 3.32812H69.9473V3.58594H69.4316Z" fill="black"/>
<path d="M53.0117 24.75L52.1211 24.3516L51.6289 24.4922L50.3633 24.0938L49.9883 24.4922L49.4727 24.0938H49.9883V23.8359L49.2148 23.5781C48.793 24.0156 48.293 24.2734 47.7148 24.3516V23.8359L46.8242 23.3203L46.707 22.5469H46.1914L46.707 22.2891V22.0312C46.2852 21.4375 46.1523 20.75 46.3086 19.9688C46.5742 19.2031 46.8711 18.4766 47.1992 17.7891L47.5742 17.6484V17.3906L46.8242 17.1328V16.5L47.082 15.7266L46.8242 14.6719C46.1523 14.25 45.3945 13.9922 44.5508 13.8984L43.8008 14.0391L43.6602 13.7812H43.4023L43.0273 13.8984V13.5234L43.4023 13.3828V13.0078H42.6523V12.3516L42.9102 11.3203L42.793 10.5469C42.8711 8.75 43.207 7.03125 43.8008 5.39062L43.6602 4.75781C43.6602 3.72656 43.832 2.73438 44.1758 1.78125L45.5586 1.64062L46.0742 1.78125L46.5664 1.64062L46.9414 1.78125V1.52344L47.7148 1.89844V1.52344L48.7227 2.03906L48.9805 1.52344L48.7227 1.26562H48.9805L49.9883 1.52344C50.3164 1.08594 50.7773 0.953125 51.3711 1.125L51.7461 1.89844L52.3789 2.03906L52.6367 1.125L52.1211 0.867188V1.38281L51.8867 1.00781L53.0117 0.75L53.1289 1.125C53.082 2 53.043 2.86719 53.0117 3.72656L53.2695 4.24219L53.1289 4.61719L53.3867 5.64844L53.0117 7.33594L53.1289 7.71094H52.7539V7.96875C53.0977 8.14062 53.2227 8.48438 53.1289 9L53.0117 9.51562L53.1289 9.91406C52.8789 10.5078 52.7539 11.1094 52.7539 11.7188L52.8945 12.0938H52.6367V12.75H52.0039V13.2656C52.5039 13.0938 52.8008 13.2188 52.8945 13.6406L52.3789 14.0391L51.6289 14.1562V14.5547H51.3711L50.8555 14.4141L50.4805 14.5547L49.4727 14.4141L48.9805 16.2422L48.582 16.6172C48.7539 17.3984 48.8867 18.1719 48.9805 18.9375L48.4648 19.3359L48.7227 20.2266L48.582 21.3984L48.8398 21.9141L50.1055 22.0312L50.7383 21.9141L52.0039 22.2891V22.0312H52.7539V21.2578C52.6758 20.3203 52.4648 19.4609 52.1211 18.6797H52.3789L52.6367 17.1328H52.8945L53.6445 16.875L53.9023 18.0469L53.7617 19.7109H54.0195L54.6523 19.3359L54.793 19.5938H54.5352L54.2773 21.2578L54.6523 21.3984V21.7734H54.1602L54.0195 22.6875L54.2773 22.8047L53.9023 23.0625L53.7617 23.5781L53.2695 23.4609L53.0117 24.4922V24.75ZM52.1211 24.0938L52.2617 23.7188H52.0039L51.8867 24.0938H52.1211ZM39.2539 23.2031L37.8477 22.9453L37.0977 23.0625L36.582 22.6875V22.0312H36.8398L36.9805 21.1406H37.9883V20.4844H38.4805L38.9961 20.625L39.2539 19.7109L40.4961 19.4531V18.9375L40.8945 18.6797L41.0117 18.3047L41.5273 18.1641V17.9062L41.3867 17.6484L42.5352 16.7578C42.5352 16.2422 42.7461 15.7656 43.168 15.3281H43.543C44.043 15.7656 44.293 16.2812 44.293 16.875C43.9648 18 43.543 19.0781 43.0273 20.1094L42.5352 19.9688V20.4844H42.0195L41.6445 21.6562L41.1289 21.7734L40.7539 22.5469L40.3789 22.6875L40.0039 22.5469L39.2539 23.2031ZM49.4727 23.3203V22.8047H49.0977V23.3203H49.4727ZM51.2539 23.3203V23.0625L50.7383 22.9453V23.2031L51.2539 23.3203ZM47.1992 21.9141L46.8242 21.3984L46.707 21.7734L47.1992 21.9141ZM48.207 21.5156V21.1406H47.5742V21.3984L48.207 21.5156ZM46.9414 20.8828L47.082 20.4844H46.5664L46.3086 21L46.9414 20.8828ZM48.0898 20.4844V20.2266L47.5742 19.9688L47.457 20.4844H48.0898ZM39.7461 20.1094V19.7109H39.4883L39.3711 20.1094H39.7461ZM47.1992 19.0781V18.8203H46.9414V19.0781H47.1992ZM30.9102 18.8203L30.6523 18.6797V18.4219H30.9102L31.168 17.3906H30.793L30.6523 17.0156L30.3945 16.875L30.9102 16.7578V16.1016L32.1758 15.9844V16.2422L32.0352 16.6172H32.293L33.4414 15.9844V16.3594H33.8164L34.0742 15.9844L34.8242 15.8438L34.9414 15.2109L34.8242 14.8125L34.9414 14.2969L34.707 12.6094L34.0742 12.3516L33.4414 12.4922L32.8086 12.0938V12.3516C32.168 12.2578 31.5352 12.2578 30.9102 12.3516L30.793 11.7188L30.3945 11.3203L31.4023 11.2031L31.8008 11.3203L31.918 10.9453L32.8086 10.8047L33.3008 10.9453L34.0742 10.6875L34.4492 10.9453L34.5664 10.6875L35.1992 10.2891L35.5742 8.48438L34.707 8.22656L34.3086 8.36719L33.5586 8.22656V7.96875H33.3008C32.5508 8.23438 31.793 8.40625 31.0273 8.48438L30.5352 8.10938L30.2773 7.71094C31.3711 7.36719 32.4883 7.13281 33.6289 7.00781C34.7695 6.88281 35.8867 6.6875 36.9805 6.42188L37.8477 6.67969L38.8555 6.30469L39.4883 6.42188L40.0039 6.30469L40.4961 6.42188L41.0117 6.30469L41.1289 6.9375H41.3867V7.19531C41.2148 7.53906 40.8789 7.67188 40.3789 7.59375C40.0508 7.84375 39.6758 7.92969 39.2539 7.85156L38.8555 7.71094C38.4336 8.14844 37.9336 8.40625 37.3555 8.48438V8.88281L37.7305 9.25781L36.9805 9.39844V9.65625L37.2148 10.1719H37.6133L38.6211 10.4297L39.4883 10.2891L40.0039 10.4297L40.2617 10.0312L40.4961 10.9453L40.0039 11.8359L39.6289 11.9766L39.2539 11.8359L39.1133 12.0938L37.7305 12.6094L37.4727 13.7812H37.0977L36.7227 13.6406L36.4648 14.1562H37.2148V14.9297L37.0977 15.3281H37.4727L38.2227 15.0703L38.8555 15.3281V15.5859L39.4883 15.8438V16.2422H39.1133V15.5859H38.6211V16.3594L37.8477 16.2422V16.5H37.4727L37.2148 17.5312L36.4648 17.7891L35.5742 17.3906L35.1992 18.1641L33.9336 18.3047L33.5586 17.6484L33.3008 16.875L32.8086 17.3906L31.6602 17.7891V18.4219L30.9102 18.8203ZM53.3867 18.5625L53.7617 18.4219V18.1641L53.0117 17.7891V18.3047L53.3867 18.5625ZM42.3945 18.1641V17.9062L42.1602 18.1641H42.3945ZM34.1914 17.3906L33.6758 17.1328V17.6484L35.082 18.0469V17.7891C34.9102 17.4453 34.6133 17.3125 34.1914 17.3906ZM31.543 17.3906V16.6172L31.4023 16.2422H31.0273V16.5L31.168 17.3906H31.543ZM32.4336 17.1328L32.0352 16.7578L31.8008 17.2734L32.4336 17.1328ZM46.8242 14.0391V13.7812L46.4492 13.6406V13.8984L46.8242 14.0391ZM45.9336 13.7812L46.0742 13.2656H45.6758V13.7812H45.9336ZM50.6211 12.8672V12.6094L50.9961 11.9766L50.8555 11.5781L51.1133 9L50.6211 8.88281L50.4805 9.25781L50.6211 9.51562L49.8477 9.91406L49.6133 10.4297H49.3555L48.582 9.91406L48.0898 9.51562L47.3398 9.91406V9.65625C47.7461 9.65625 47.9102 9.4375 47.832 9L46.707 8.48438L45.3008 8.74219V9.51562L44.9258 9.65625V10.1719H45.1836V10.9453L45.0664 11.3203H44.5508V11.7188L45.1836 11.9766L45.4414 12.6094L46.5664 12.2344L48.207 12.6094L48.582 12.4922L49.7305 12.75L50.2227 12.4922L50.3633 12.8672H50.6211ZM35.082 11.2031V10.8047H34.707V11.2031H35.082ZM44.5508 10.9453V10.6875H44.293V10.9453H44.5508ZM46.707 9.91406L46.1914 9.77344L45.9336 9.65625L46.707 9.25781V9.91406ZM48.8398 9.51562V9.25781H48.582V9.51562H48.8398ZM44.293 9.14062V8.625H43.918V9.14062H44.293ZM51.2539 8.48438V7.96875L51.4883 7.07812L50.2227 6.5625L49.2148 7.07812L48.9805 6.9375C49.0586 6.51562 48.9258 6.25781 48.582 6.16406V6.42188H48.207L47.9492 6.30469L47.5742 6.04688L47.457 6.30469H46.9414V6.04688H46.5664V6.30469L45.6758 5.90625L45.0664 6.30469L44.8086 7.07812H44.5508V7.45312C45.0508 7.54688 45.5117 7.67969 45.9336 7.85156L47.1992 7.59375L48.3477 7.71094L48.4648 8.10938H48.7227L49.3555 7.85156L49.4727 8.36719H49.7305L50.4805 8.10938V8.48438H51.2539ZM49.9883 6.5625L50.1055 5.90625H49.8477V5.53125L49.3555 6.04688L49.9883 6.5625ZM51.4883 6.5625L51.6289 5.64844L50.6211 5.39062V5.64844L51.2539 5.78906V6.16406L51.1133 6.67969L51.4883 6.5625ZM48.4648 6.16406L48.8398 5.53125H48.582L48.207 6.16406H48.4648ZM50.4805 5.39062V5.01562H50.1055V5.39062H50.4805ZM51.6289 5.27344C51.8008 4.58594 51.9258 3.89844 52.0039 3.21094L51.2539 3.07031V3.46875L51.4883 3.72656L50.1055 3.84375L49.3555 3.46875L49.0977 3.84375L49.3555 3.21094L49.4727 2.92969L48.9805 2.67188V3.32812L48.0898 3.58594H47.832L47.1992 3.21094L46.8242 4.10156H46.4492L46.3086 4.61719V4.24219H45.5586L45.4414 4.61719L45.8164 4.75781L46.1914 5.27344H46.707L47.1992 4.61719V4.875H47.457L47.7148 4.61719V4.875C48.2148 4.79688 48.6758 4.92969 49.0977 5.27344V4.75781H49.3555V5.01562H49.7305L50.3633 4.61719L50.7383 4.75781L50.8555 5.13281H51.3711L51.6289 5.27344ZM50.9961 3.58594L50.8555 2.92969L50.9961 2.55469L50.4805 2.41406V2.92969H50.2227V2.67188H49.8477V3.32812L50.9961 3.58594ZM46.9414 3.07031L46.707 2.8125V3.07031H46.9414ZM48.3477 2.8125L48.207 2.55469L48.0898 2.92969L48.3477 2.8125ZM46.0742 2.67188L45.5586 1.89844H45.1836V2.41406L46.0742 2.67188ZM46.5664 2.55469V2.15625L46.1914 2.03906V2.41406L46.5664 2.55469ZM50.3633 2.15625V1.78125H49.9883V2.15625H50.3633Z" fill="black"/>
<path d="M3.24902 20.5312V20.2734L3.62402 18.2109L3.36621 17.5781L1.86621 16.8047L1.72559 16.4062L3.62402 15.3984L4.13965 15.6562L4.51465 14.3672H3.88184V13.5938L4.13965 13.0781C4.21777 12.1406 4.00684 11.3281 3.50684 10.6406C2.41309 10.7344 1.44434 10.5234 0.600586 10.0078L0.459961 9.49219L0.834961 8.57812H3.1084L3.62402 8.71875L3.99902 7.6875L3.74121 5.76562L4.74902 4.99219C5.34277 6.19531 5.63965 7.52344 5.63965 8.97656L6.01465 9.09375L6.90527 8.71875L7.02246 9.23438H7.28027L7.53809 8.71875L8.05371 8.57812L7.7959 7.82812L7.91309 7.42969H7.16309C7.45996 6.33594 7.58496 5.22656 7.53809 4.10156H8.1709L8.42871 3.32812L8.9209 4.35938H8.5459V4.73438L9.2959 4.875V5.39062L9.69434 5.50781V5.88281L9.2959 6.14062V6.53906L9.81152 9.49219H10.0693L10.5615 9.23438L10.8193 9.75L10.7021 10.3828L11.0771 11.2734L10.96 11.5312H10.7021L10.3271 11.4141C9.56152 11.8359 9.26465 12.4766 9.43652 13.3359L9.55371 14.625H10.96V15.1406L10.0693 15.3984L9.81152 16.5469L9.92871 17.1797L9.69434 17.8359L9.81152 18.3516L9.69434 18.8672L9.81152 19.2422L9.55371 19.3594V19.7578L9.81152 20.2734L9.17871 20.5312L8.05371 20.2734L7.4209 20.3906L7.16309 20.2734V19.875C7.49121 19.2812 7.61621 18.6406 7.53809 17.9531L7.28027 17.4375H5.63965C5.38965 18.3906 5.09277 19.3359 4.74902 20.2734L3.99902 20.3906L3.62402 20.2734L3.24902 20.5312ZM6.78809 15.3984C7.20996 15.2266 7.63184 15.0547 8.05371 14.8828L8.1709 14.3672L7.7959 13.5938L7.4209 12.9609L7.53809 11.5312H6.01465C5.90527 12.6562 5.78027 13.7734 5.63965 14.8828L6.78809 15.3984ZM10.5615 11.0391V10.7812L10.3271 11.0391H10.5615ZM7.16309 10.2656V9.86719H6.78809V10.2656H7.16309ZM3.88184 9.09375L3.62402 8.83594L3.50684 9.23438L3.88184 9.09375ZM8.68652 7.42969L8.28809 7.3125V7.57031L8.68652 7.42969ZM9.69434 4.10156L9.55371 3.58594L10.1865 3.44531V4.10156H9.69434Z" fill="black"/>
</svg>
