<svg width="231" height="48" viewBox="0 0 231 48" fill="none" xmlns="http://www.w3.org/2000/svg">
<path d="M31.7093 43.9974H16.0538C14.382 43.8637 10.6048 42.8099 8.86983 39.6646C6.70109 35.7329 6.94485 32.0303 8.86983 29.0732C10.3323 26.8265 14.5628 25.9439 16.6637 26.0241H29.4728C34.0136 25.4625 35.9112 26.8265 37.1312 28.1906C41.1975 32.5234 40.5803 39.039 38.2082 41.6066C36.3106 43.6607 32.7259 44.0242 31.7093 43.9974Z" fill="#483D3F"/>
<path d="M28.0836 29.5991H18.8737C15.2795 29.5991 14.0441 26.4828 13.5948 25.5595C12.6963 22.674 14.2687 19.4423 15.9534 17.5956C19.7722 12.7481 22.0298 11.6323 24.5007 12.094C35.957 14.6332 35.2718 20.3657 33.4748 22.0969C31.6777 23.8282 33.5871 25.3287 32.6886 27.4062C31.9697 29.0682 29.3191 29.5607 28.0836 29.5991Z" fill="#BF6E52"/>
<path d="M32.9576 9.6652C32.9576 15.5585 30.5588 14.7342 27.6401 14.7342C24.1979 16.014 21.3333 12.3309 21.3333 9.36637C21.3333 7.54136 24.1538 6.80033 25.5241 5.83049C26.3797 5.2249 26.5182 3.99854 27.6401 3.99854C30.5588 3.99854 32.9576 8.33187 32.9576 9.6652Z" fill="#ECD8A3"/>
<g clip-path="url(#clip0_1822_7524)">
<path d="M178.667 39.4177C178.2 39.4177 177.867 39.0177 177.867 38.6177L178.867 20.0844C178.867 19.8844 178.933 19.6844 179.133 19.551C179.6 19.151 180.2 18.8177 180.933 18.551C181.8 18.2177 182.8 17.951 183.867 17.751C184.933 17.551 185.867 17.4844 186.867 17.4844C189.6 17.4844 191.6 18.2177 192.933 19.751C194.267 21.2177 194.933 23.2177 194.933 25.6844C194.933 27.551 194.6 29.0844 193.867 30.2844C193.2 31.4844 192.267 32.4177 191.067 33.0177C189.867 33.6177 188.6 33.8844 187.2 33.8844C186.533 33.8844 185.867 33.8177 185.333 33.6844C184.733 33.551 184.067 34.0844 184.2 34.6844L184.867 38.4844C184.933 38.951 184.6 39.4177 184.067 39.4177H178.667ZM186.667 29.551C187.6 29.551 188.333 29.2177 188.867 28.551C189.4 27.8844 189.667 26.951 189.667 25.751C189.667 24.351 189.333 23.2844 188.667 22.6177C188 21.8844 187.2 21.551 186.2 21.551C185.533 21.551 184.933 21.6844 184.333 21.8844C184.067 22.0177 183.867 22.2844 183.867 22.551V26.8177C183.867 27.8177 184.133 28.4844 184.733 28.8844C185.333 29.351 186 29.551 186.667 29.551Z" fill="white"/>
<path d="M200.4 33.9507C199.933 33.9507 199.6 33.5507 199.6 33.084L201 19.5507C201.067 19.1507 201.4 18.8174 201.8 18.8174H205.4C205.8 18.8174 206.133 19.1507 206.2 19.5507L207.6 33.084C207.667 33.5507 207.267 33.9507 206.8 33.9507H200.4Z" fill="white"/>
<path d="M149.8 33.8843C148.6 33.8843 147.533 33.6843 146.6 33.2843C145.667 32.8843 144.933 32.2843 144.4 31.351C143.867 30.4843 143.6 29.351 143.6 27.8843V22.6843C143.6 22.2843 143.267 21.8843 142.8 21.8843H141.8C141.4 21.8843 141 21.551 141 21.0843V18.951C141 18.551 141.333 18.151 141.8 18.151H142.933C143.333 18.151 143.733 17.8176 143.733 17.351V14.551C143.733 14.151 144.067 13.751 144.533 13.751H148C148.4 13.751 148.8 14.0843 148.8 14.551V17.4176C148.8 17.8176 149.133 18.2176 149.6 18.2176H152.267C152.667 18.2176 153.067 18.551 153.067 19.0176V21.2176C153.067 21.6176 152.733 22.0176 152.267 22.0176H149.6C149.2 22.0176 148.8 22.351 148.8 22.8176V27.8176C148.8 28.6176 149 29.151 149.333 29.4176C149.733 29.6843 150.2 29.8843 150.733 29.8843C151.067 29.8843 151.4 29.8843 151.8 29.8176C152.267 29.751 152.867 30.0176 153 30.4843L153.467 32.6176C153.533 32.951 153.4 33.2843 153.067 33.4176C152.667 33.551 152.267 33.6843 151.8 33.8176C151.133 33.8176 150.467 33.8843 149.8 33.8843Z" fill="white"/>
<path d="M125.133 33.6844C124.667 33.6844 124.267 33.2844 124.333 32.8177L125.133 26.2844C125.2 25.8177 124.8 25.4177 124.333 25.4177H123.4C123 25.4177 122.6 25.0844 122.6 24.6177V22.2177C122.6 21.8177 122.933 21.4177 123.4 21.4177H124.4C124.8 21.4177 125.2 21.0844 125.2 20.6177V19.6177C125.2 18.1511 125.467 17.0177 126.067 16.0844C126.667 15.1511 127.467 14.4177 128.533 14.0177C129.6 13.6177 130.733 13.3511 132 13.3511C132.867 13.3511 133.8 13.4844 134.8 13.6844C135.6 13.8177 136.333 14.0844 136.933 14.3511C137.267 14.4844 137.4 14.8844 137.267 15.2177L136.6 17.3511C136.467 17.8177 135.867 18.0177 135.4 17.8844C135.2 17.8177 135 17.7511 134.8 17.6844C134.2 17.5511 133.667 17.4844 133.067 17.4844C131.133 17.4844 130.133 18.2844 130.133 19.8844V20.7511C130.133 21.1511 130.467 21.5511 130.933 21.5511H134.533C134.933 21.5511 135.333 21.8844 135.333 22.3511V24.7511C135.333 25.1511 135 25.5511 134.533 25.5511H131.2C130.733 25.5511 130.333 25.9511 130.4 26.4177L131.2 32.9511C131.267 33.4177 130.867 33.8177 130.4 33.8177H125.133V33.6844Z" fill="white"/>
<path d="M115.667 34.8175C115.333 35.0841 114.867 35.0175 114.533 34.6841L113.467 33.4175C113.2 33.1508 112.8 33.0841 112.467 33.2175C111.6 33.6175 110.6 33.8175 109.4 33.8175C107.467 33.8175 105.933 33.2841 104.867 32.2841C103.8 31.2841 103.267 29.9508 103.267 28.2841C103.267 26.7508 103.733 25.6175 104.667 24.8175C105.6 23.9508 106.933 23.5508 108.667 23.5508H112C112.267 23.5508 112.533 23.3508 112.533 23.0175C112.533 22.4175 112.267 21.9508 111.733 21.6841C111.2 21.3508 110.4 21.2175 109.4 21.2175C108.6 21.2175 107.933 21.2841 107.267 21.4841C106.933 21.5508 106.6 21.6841 106.267 21.8175C105.8 22.0175 105.267 21.8175 105.133 21.3508L104.333 19.3508C104.2 19.0175 104.333 18.6175 104.733 18.4175C105.4 18.1508 106.067 17.8841 106.8 17.7508C107.8 17.5508 108.733 17.4175 109.733 17.4175C112.133 17.4175 114.067 17.9508 115.4 18.9508C116.8 19.9508 117.467 21.3508 117.467 23.0841V30.0175C117.467 30.2175 117.533 30.3508 117.667 30.4841L118.467 31.4175C118.733 31.7508 118.667 32.2175 118.333 32.4841L115.667 34.8175ZM110.267 29.9508C111.067 29.9508 111.667 29.6841 112 29.2175C112.4 28.6841 112.533 28.1508 112.533 27.6841V27.6175C112.533 27.2175 112.2 26.8175 111.733 26.8175H110.2C109.533 26.8175 109.067 26.9508 108.733 27.2175C108.4 27.4841 108.267 27.8841 108.267 28.3508C108.267 28.8841 108.467 29.2841 108.8 29.5508C109.2 29.8175 109.667 29.9508 110.267 29.9508Z" fill="white"/>
<path d="M224.733 34.8175C224.4 35.0842 223.933 35.0175 223.667 34.6842L222.6 33.4175C222.333 33.1508 221.933 33.0842 221.6 33.2175C220.733 33.6175 219.667 33.8175 218.467 33.8175C216.533 33.8175 215 33.2842 213.867 32.2842C212.8 31.2842 212.2 29.9508 212.2 28.2842C212.2 26.7508 212.667 25.6175 213.6 24.8175C214.533 23.9508 215.867 23.5508 217.667 23.5508H221.067C221.333 23.5508 221.6 23.3508 221.6 23.0175C221.6 22.4175 221.333 21.9508 220.8 21.6842C220.267 21.3508 219.467 21.2175 218.467 21.2175C217.667 21.2175 216.933 21.2842 216.267 21.4842C215.933 21.5508 215.533 21.6842 215.2 21.8175C214.733 22.0175 214.2 21.8175 214.067 21.3508L213.333 19.2175C213.2 18.8842 213.333 18.4842 213.733 18.2842C214.4 18.0175 215.067 17.7508 215.867 17.6175C216.867 17.4175 217.867 17.2842 218.867 17.2842C221.333 17.2842 223.267 17.8175 224.667 18.8175C226.067 19.8175 226.733 21.2175 226.733 22.9508V30.0175C226.733 30.2175 226.8 30.3508 226.933 30.5508L227.733 31.4842C228 31.8175 227.933 32.2842 227.6 32.6175L224.733 34.8175ZM219.2 29.9508C220 29.9508 220.6 29.6842 221 29.2175C221.4 28.6842 221.6 28.1508 221.6 27.6842V27.6175C221.6 27.2175 221.267 26.8175 220.8 26.8175H219.267C218.6 26.8175 218.133 26.9508 217.8 27.2175C217.467 27.4842 217.333 27.8842 217.333 28.3508C217.333 28.8842 217.533 29.2842 217.867 29.5508C218.133 29.8175 218.6 29.9508 219.2 29.9508Z" fill="white"/>
<path d="M88.4667 33.6841C88 33.6841 87.6667 33.2841 87.6667 32.8175L88.6 20.6841C88.6 20.4841 88.6667 20.3508 88.8 20.2175C89.4667 19.4841 90.3333 18.8175 91.3333 18.2841C92.4 17.7508 93.6667 17.4175 95.0667 17.4175C96.5333 17.4175 97.8667 17.7508 99.0667 18.4175C99.4 18.6175 99.4667 18.9508 99.4 19.2841L98.6667 21.3508C98.4667 21.8175 97.9333 22.0175 97.4 21.8841C97.3333 21.8841 97.2667 21.8175 97.2 21.8175C96.8 21.6841 96.4 21.6841 96.0667 21.6841C95.6 21.6841 95.2 21.7508 94.8667 21.8841C94.6667 21.9508 94.5333 22.0175 94.4 22.0175C94.2 22.1508 94.0667 22.3508 94.0667 22.6175L95 32.6841C95.0667 33.1508 94.6667 33.5508 94.2 33.5508H88.4667V33.6841Z" fill="white"/>
<path d="M76.6667 33.8174C74.6667 33.8174 72.9333 33.4174 71.4667 32.6841C69.9333 31.8841 68.8 30.7507 67.9333 29.2174C67.0667 27.6841 66.6667 25.8174 66.6667 23.5507C66.6667 20.4841 67.4667 18.0841 69.1333 16.3507C70.7333 14.5507 73.2 13.6841 76.4 13.6841C77.5333 13.6841 78.6667 13.8174 79.7333 14.0841C80.6667 14.2841 81.4667 14.6174 82.2667 15.0174C82.6 15.2174 82.7333 15.5507 82.6 15.9507L81.7333 18.3507C81.5333 18.8174 81 19.0174 80.5333 18.8174C80.2 18.6841 79.8667 18.6174 79.5333 18.5507C78.8 18.3507 78.0667 18.2841 77.4 18.2841C75.8 18.2841 74.5333 18.8174 73.6 19.8174C72.7333 20.8174 72.2667 22.1507 72.2667 23.8174C72.2667 25.6841 72.8 27.0174 73.8 28.0174C74.8 28.9507 76.1333 29.4174 77.7333 29.4174C78.6 29.4174 79.4667 29.2841 80.2667 29.0174C80.7333 28.8841 81.1333 28.6841 81.5333 28.4841C81.9333 28.2841 82.5333 28.4174 82.7333 28.8841L83.7333 30.9507C83.8667 31.2841 83.8 31.6841 83.4667 31.8841C82.8 32.3507 82 32.7507 81.1333 33.1507C79.9333 33.5507 78.4667 33.8174 76.6667 33.8174Z" fill="white"/>
<path d="M167.133 17.6174C164.067 17.0174 162 18.0174 159.6 22.6174C158.133 24.4174 156.333 27.1508 157.133 29.9508C157.533 30.8174 158.6 33.8841 161.667 33.8841H169.6C170.667 33.8174 172.933 33.3507 173.6 31.7507C174.4 29.7507 174.733 28.8174 174.8 26.4174C174.8 23.7508 175.733 20.3507 167.133 17.6174ZM166.8 29.7508C164.667 30.5508 162.733 28.8174 162.4 27.0174C162.2 25.9508 162.933 25.5508 163.667 24.8174C164.133 24.3508 164.733 23.6174 165.4 23.4841C167.133 23.1508 168.733 24.5508 169.067 25.4174C170.333 28.8174 168.467 29.0841 166.8 29.7508Z" fill="white"/>
<path d="M204.2 8.75091C202.8 8.48425 201.667 8.75091 200.533 10.8176C199.867 11.6176 199.267 13.0842 199.6 14.3509C199.8 14.7509 200.267 16.1509 201.667 16.1509H205.267C205.733 16.1509 206.8 15.8842 207.067 15.1509C207.4 14.2176 207.6 13.8176 207.6 12.6842C207.667 11.5509 208.133 10.0176 204.2 8.75091ZM204.067 14.2842C203.133 14.6176 202.2 13.8842 202.067 13.0176C202 12.4842 202.4 12.0176 202.733 11.6842C202.933 11.4842 203.2 11.2842 203.533 11.2176C204.333 11.0842 205.133 12.0176 205.267 12.4176C205.8 14.0176 204.8 14.0176 204.067 14.2842Z" fill="white"/>
</g>
<defs>
<clipPath id="clip0_1822_7524">
<rect width="166.667" height="32" fill="white" transform="translate(64 7.99854)"/>
</clipPath>
</defs>
</svg>
