<svg width="135" height="44" viewBox="0 0 135 44" fill="none" xmlns="http://www.w3.org/2000/svg">
<path fill-rule="evenodd" clip-rule="evenodd" d="M7.24276 17.6782C3.53367 22.0659 -1.12949 26.7432 0.246733 31.9459C1.65637 37.2749 5.74647 40.587 13.9571 43.0613C22.1678 45.5357 108.401 42.4418 114.164 41.5034C120.643 40.4485 128.62 41.6541 132.525 37.3275C136.558 32.8584 134.979 25.521 132.609 22.2628C128.879 17.1338 125.802 14.1359 120.568 10.3634C93.8807 -8.87365 30.6849 3.5005 18.5643 9.17282C12.8429 11.8504 10.5583 13.7561 7.24276 17.6782Z" fill="#D4AB8E"/>
<path d="M36.908 22.096V24.32H45.212V22.096H36.908ZM35.628 21.104H46.572V25.296H35.628V21.104ZM38.3 19.376H43.916V20.4H38.3V19.376ZM40.412 21.456H41.66V24.816H40.412V21.456ZM37.692 22.512L38.764 22.192C39.116 22.736 39.452 23.472 39.58 23.968L38.444 24.336C38.348 23.84 38.044 23.072 37.692 22.512ZM43.26 22.128L44.524 22.48C44.172 23.168 43.804 23.872 43.5 24.336L42.46 24.016C42.732 23.488 43.084 22.672 43.26 22.128ZM36.54 25.968H45.772V31.28H44.22V26.992H38.028V31.344H36.54V25.968ZM37.404 27.872H44.876V28.912H37.404V27.872ZM37.42 29.824H44.876V30.848H37.42V29.824ZM40.876 16.4L42.22 16.896C40.492 19.12 37.468 20.688 34.444 21.632C34.284 21.328 33.868 20.72 33.612 20.448C36.556 19.696 39.404 18.304 40.876 16.4ZM41.82 17.04C43.276 18.496 46.124 19.76 48.748 20.336C48.428 20.608 47.996 21.152 47.788 21.504C45.148 20.8 42.316 19.296 40.684 17.504L41.82 17.04ZM55.164 18.272V19.648H62.284V18.272H55.164ZM53.644 17.072H63.884V20.864H53.644V17.072ZM54.444 24.656V25.6H62.924V24.656H54.444ZM54.444 26.608V27.552H62.924V26.608H54.444ZM54.444 22.72V23.648H62.924V22.72H54.444ZM52.94 21.648H64.492V28.624H52.94V21.648ZM56.012 28.464L57.388 29.408C56.108 30.176 54.028 30.96 52.396 31.36C52.124 31.04 51.612 30.56 51.26 30.272C52.94 29.872 55.004 29.12 56.012 28.464ZM59.756 29.504L61.068 28.544C62.748 29.008 64.892 29.776 66.172 30.304L64.86 31.376C63.644 30.816 61.452 30 59.756 29.504ZM69.772 19.328H82.812V27.072H81.228V20.816H71.292V27.152H69.772V19.328ZM70.572 24.72H82.124V26.208H70.572V24.72ZM75.452 16.496H77.052V31.344H75.452V16.496ZM90.604 21.024H92.188V28.736C92.188 29.504 92.348 29.632 93.196 29.632C93.596 29.632 95.436 29.632 95.932 29.632C96.844 29.632 96.988 29.088 97.1 26.432C97.468 26.704 98.124 26.976 98.54 27.088C98.348 30.128 97.9 31.056 96.028 31.056C95.612 31.056 93.42 31.056 93.036 31.056C91.148 31.056 90.604 30.528 90.604 28.736V21.024ZM87.9 22.096L89.372 22.384C89.132 24.368 88.684 27.104 88.076 28.88L86.54 28.24C87.18 26.576 87.692 24.112 87.9 22.096ZM97.9 22.208L99.308 21.648C100.236 23.552 101.1 26 101.436 27.664L99.916 28.272C99.628 26.64 98.78 24.096 97.9 22.208ZM91.276 17.936L92.3 16.928C93.788 17.904 95.756 19.376 96.7 20.368L95.596 21.536C94.716 20.544 92.78 18.976 91.276 17.936Z" fill="#222222"/>
</svg>
