<svg width="379" height="41" viewBox="0 0 379 41" fill="none" xmlns="http://www.w3.org/2000/svg">
<path d="M4.18359 33.2051V32.8184L4.74609 29.7246L4.35938 28.7754L2.10938 27.6152L1.89844 27.0176L4.74609 25.5059L5.51953 25.8926L6.08203 23.959H5.13281V22.7988L5.51953 22.0254C5.63672 20.6191 5.32031 19.4004 4.57031 18.3691C2.92969 18.5098 1.47656 18.1934 0.210938 17.4199L0 16.6465L0.5625 15.2754H3.97266L4.74609 15.4863L5.30859 13.9395L4.92188 11.0566L6.43359 9.89648C7.32422 11.7012 7.76953 13.6934 7.76953 15.873L8.33203 16.0488L9.66797 15.4863L9.84375 16.2598H10.2305L10.6172 15.4863L11.3906 15.2754L11.0039 14.1504L11.1797 13.5527H10.0547C10.5 11.9121 10.6875 10.248 10.6172 8.56055H11.5664L11.9531 7.40039L12.6914 8.94727H12.1289V9.50977L13.2539 9.7207V10.4941L13.8516 10.6699V11.2324L13.2539 11.6191V12.2168L14.0273 16.6465H14.4141L15.1523 16.2598L15.5391 17.0332L15.3633 17.9824L15.9258 19.3184L15.75 19.7051H15.3633L14.8008 19.5293C13.6523 20.1621 13.207 21.123 13.4648 22.4121L13.6406 24.3457H15.75V25.1191L14.4141 25.5059L14.0273 27.2285L14.2031 28.1777L13.8516 29.1621L14.0273 29.9355L13.8516 30.709L14.0273 31.2715L13.6406 31.4473V32.0449L14.0273 32.8184L13.0781 33.2051L11.3906 32.8184L10.4414 32.9941L10.0547 32.8184V32.2207C10.5469 31.3301 10.7344 30.3691 10.6172 29.3379L10.2305 28.5645H7.76953C7.39453 29.9941 6.94922 31.4121 6.43359 32.8184L5.30859 32.9941L4.74609 32.8184L4.18359 33.2051ZM9.49219 25.5059C10.125 25.248 10.7578 24.9902 11.3906 24.7324L11.5664 23.959L11.0039 22.7988L10.4414 21.8496L10.6172 19.7051H8.33203C8.16797 21.3926 7.98047 23.0684 7.76953 24.7324L9.49219 25.5059ZM15.1523 18.9668V18.5801L14.8008 18.9668H15.1523ZM10.0547 17.8066V17.209H9.49219V17.8066H10.0547ZM5.13281 16.0488L4.74609 15.6621L4.57031 16.2598L5.13281 16.0488ZM12.3398 13.5527L11.7422 13.377V13.7637L12.3398 13.5527ZM13.8516 8.56055L13.6406 7.78711L14.5898 7.57617V8.56055H13.8516Z" fill="#483D3F"/>
<path d="M54.3711 40.6055L54.1953 40.2188L54.582 38.6719H53.9844V37.8984L54.9336 37.3359V36.5625H54.3711L54.1953 35.4023L54.582 33.6797H53.8086V33.293L53.9844 32.6953H53.2109V33.082H52.8242L51.875 32.6953L51.3125 32.9062L51.1016 33.4688H50.3633L49.7656 32.9062L49.2031 33.082V33.4688H48.8164L48.043 33.293C47.1523 33.668 46.2031 33.7969 45.1953 33.6797L43.4727 33.293L42.875 33.4688L41.9258 33.082V32.6953H42.6992L44.5977 31.957L44.9844 32.1328C45.875 31.875 46.6484 31.4883 47.3047 30.9727L48.8164 31.1836L49.2031 29.6367L48.6406 28.3008L48.8164 27.5273H49.5898V27.1406L49.0273 26.9297L48.6406 25.7695L49.3789 25.3828V24.8203L48.4297 24.2578V24.8203L48.2539 23.6602L48.4297 22.7109H49.2031V22.3242L48.4297 21.9375L48.2539 21.1641H49.0273V20.6016H48.6406V18.8438L49.2031 18.668V18.0703L48.4297 17.5078V17.1211L47.4805 16.9102L46.918 17.1211L46.3203 16.9102L44.5977 17.8945V17.5078L44.8086 16.9102L45.3711 16.7344V15.3984L45.1953 15.0117H44.5977L44.2109 15.7852L43.8242 17.5078L43.6484 16.7344H42.875L42.4883 17.1211V16.5586L43.8242 15.7852L44.5977 14.0273H45.7578V14.4141H46.5312V15.0117H47.0938C48.125 14.2383 49.2734 13.9102 50.5391 14.0273L51.1016 14.2383V14.625L50.9258 15.3984H51.3125L51.875 14.4141L52.4727 14.2383L52.6484 14.8008L53.2109 15.0117V14.4141L55.918 13.8516L58.9766 14.2383L59.9258 13.8516L62.2109 14.4141V14.0273L61.8242 12.8672H62.2109V13.4648H62.5977L62.9844 12.5156L61.0859 12.1289L60.6992 12.8672L59.5391 12.1289L58.9766 13.2539L58.0273 12.8672L57.043 13.2539L56.3047 12.1289L54.9336 11.5312V12.3047L54.582 11.7422L53.9844 11.5312L53.5977 12.3047L52.2617 11.5312L52.0859 10.582H53.2109V10.1953L51.3125 9.42188L51.6992 9.21094L52.2617 9.42188V8.64844L51.6992 7.69922H52.0859V7.3125C51.5703 6.39844 51.3711 5.4375 51.4883 4.42969L52.4727 0C58.6602 0.492188 64.9062 0.492188 71.2109 0L71.5977 2.28516H71.0352V2.67188L71.4219 3.44531L70.8242 3.65625V4.21875L71.0352 5.37891L71.5977 5.55469V8.08594L71.2109 8.64844L71.5977 9.42188L71.4219 9.80859H70.8242V9.03516H69.875L69.6992 10.1953H69.1016L68.75 9.98438L69.4883 9.80859V9.21094L68.75 9.03516V8.08594L69.1016 6.32812L68.9258 5.55469L69.875 0.386719H69.4883L68.9258 0.738281L68.1523 0.5625L67.9766 0.949219H67.5898L66.043 0.175781C65.668 0.691406 65.1641 0.878906 64.5312 0.738281L63.582 0.386719L60.4883 0.949219L60.1016 0.738281L59.1523 0.175781V0.5625L57.4297 0.949219L55.1445 0.738281C54.3711 1.39453 54.0547 2.16797 54.1953 3.05859L55.5312 3.83203V4.21875H56.0938L56.8672 4.04297L57.2539 4.60547L58.5898 4.78125L60.6992 4.21875L61.0859 4.42969L61.8242 4.04297L62.5977 4.21875L63.1953 4.04297V4.42969H63.9336V3.83203H65.8672L66.2539 4.60547H66.8164L67.0273 3.44531H67.7656V4.04297L68.3633 4.60547L66.6406 5.37891L66.4297 5.76562H66.043L65.3047 4.99219L64.707 5.16797V5.94141H64.1445L62.8086 6.53906L60.6992 5.94141V6.32812C60.0898 6.77344 59.4453 6.84375 58.7656 6.53906L58.2031 7.10156L57.6406 6.92578V6.53906H56.8672L56.0938 6.15234V5.76562H55.5312L53.9844 5.94141V7.3125L54.3711 8.64844L53.9844 10.1953C55.6016 9.65625 57.1953 9.71484 58.7656 10.3711L59.9258 10.1953L60.4883 10.3711L63.1953 9.98438C64.3438 10.125 65.4219 10.3828 66.4297 10.7578V10.1953L67.3789 9.98438L67.5898 10.582L67.7656 10.9688H67.3789L67.2031 12.6914H66.4297L65.3047 12.3047V12.8672L64.918 12.3047H64.5312L63.7578 13.2539L62.9844 13.4648V13.8516L64.3203 14.625L66.043 15.1875L67.2031 15.0117L68.9258 15.3984V15.7852H69.4883V15.3984L69.3125 16.3477L70.4727 16.7344V16.3477L70.2617 15.7852L71.4219 15.3984L71.9844 15.5742L73.707 15.1875L74.4805 16.3477H73.707V17.5078L72.7578 17.8945L72.582 18.457L72.7578 19.0547H71.9844L71.4219 17.8945L70.8242 17.6836V18.668H69.6992L68.9258 17.5078H68.3633V18.0703L68.9258 18.8438H68.5391L66.6406 18.668L66.8164 18.0703L65.4805 17.8945L64.707 17.2969V17.8945H64.3203L62.0352 16.9102L61.8242 16.3477L60.6992 17.2969H60.3125L59.75 16.5586L57.8164 15.9609L57.2539 16.9102L57.4297 17.2969H56.0938L55.5312 16.5586H54.7578L55.3203 17.8945H55.918V18.668L56.0938 19.6172L56.8672 20.0039H57.8164L58.5898 19.8281V20.3906L59.5391 20.6016V21.9375H59.1523V23.6602H57.6406L57.4297 22.8867H56.8672L56.4805 23.6602L57.6406 24.0469V25.207L59.1523 25.5938V26.1562L58.3789 26.3672L58.2031 27.9141L59.1523 28.0898L59.3633 30.1992L59.1523 30.7969L59.3633 31.5703L58.9766 32.5195H59.5391V32.9062L59.1523 33.6797H59.5391V34.4531L58.9766 35.6133L58.5898 35.7891L57.6406 36.1758V36.7383L59.75 36.9492V38.1094L59.3633 38.8828H58.9766L59.1523 38.1094L57.6406 37.3359V37.8984L58.0273 38.4961H57.4297V39.832H58.0273L59.5391 39.4453L59.75 40.6055H59.3633V40.043H58.2031L58.0273 40.6055H55.5312V40.043H54.7578V40.6055H54.3711ZM56.6562 40.2188L56.0938 40.043V40.4297L56.6562 40.2188ZM57.043 38.4961L56.4805 37.7227L55.918 38.6719L57.043 38.4961ZM70.8242 37.3359V36.9492L70.2617 35.6133C69.1133 35.2148 68.0352 34.7578 67.0273 34.2422V33.6797L67.3789 33.082L66.2539 33.6797L65.8672 34.4531L65.4805 35.4023L64.3203 35.6133L63.9336 34.6289L63.582 34.4531V33.8555L64.3203 33.6797V33.293L63.9336 32.6953H64.3203L65.0938 33.293L65.6562 33.082V32.5195L65.4805 32.1328H66.2539V31.7461L65.8672 31.1836L66.043 30.5859L65.8672 30.1992L66.8164 29.8125V29.4258L65.4805 29.25C65.7383 28.4766 65.5508 28.0312 64.918 27.9141L64.707 28.6523L64.1445 26.7539H63.582L63.3711 27.7031H62.9844L62.5977 26.3672H62.2109L60.875 26.7539V25.9805L61.4727 25.7695L61.6484 25.207H60.6992V24.8203L60.875 24.2578L61.8242 24.0469L62.4219 24.2578L63.3711 23.6602L63.1953 24.4336C63.9453 24.4102 64.6484 24.2227 65.3047 23.8711L66.043 24.0469L66.2539 23.0977L67.2031 22.8867V23.6602H67.9766V23.2734H68.5391L69.6992 23.6602V23.2734H70.0859L71.4219 23.4844V23.0977H72.3711L73.1445 23.6602L73.3203 24.4336L74.3047 25.3828H74.8672L75.043 26.9297H74.3047L73.5312 26.7539V27.3164L73.918 28.0898H72.9336V29.25L72.7578 30.4102H72.3711L71.8086 30.1992L71.5977 30.9727L71.2109 31.5703H71.8086L72.3711 31.3594C73.1445 32.3906 73.5898 33.5508 73.707 34.8398L73.5312 35.4023L74.0938 35.6133L73.3203 35.7891L72.9336 36.9492L71.9844 36.1758L71.4219 36.3867L71.2109 37.3359H70.8242ZM58.0273 35.4023L58.2031 35.0156L58.5898 34.2422L57.6406 33.4688L57.4297 32.9062H57.043L56.6562 33.8555L57.043 35.0156H56.6562L55.707 34.6289V35.0156L57.4297 35.7891L58.0273 35.4023ZM58.3789 31.7461L58.0273 31.3594V31.7461H58.3789ZM52.0859 31.3594V30.9727H51.6992V31.3594H52.0859ZM56.8672 30.9727L56.4805 30.5859V30.9727H56.8672ZM57.8164 30.5859V29.8125L57.043 29.6367V30.5859H57.8164ZM54.7578 30.1992L55.707 30.0234V29.4258L54.7578 29.25C54.6406 27.8438 54.1953 26.625 53.4219 25.5938H52.4727L52.0859 27.1406L52.6484 27.9141L52.4727 28.4766H52.0859V29.0391L52.6484 30.4102L54.7578 30.1992ZM72.3711 29.4258L71.8086 29.25V29.6367L72.3711 29.4258ZM56.8672 29.0391V28.4766H56.3047V29.0391H56.8672ZM72.582 28.6523L71.9844 28.4766V28.8633L72.582 28.6523ZM69.1016 28.3008L69.3125 27.5273L68.75 27.1406V26.7539L69.1016 26.3672L67.5898 25.7695V25.207H67.0273V25.9805L66.043 24.9961H65.3047L64.707 26.543L65.6562 26.7539V27.5273H66.2539L66.8164 27.3164V28.4766L68.5391 28.6523L69.1016 28.3008ZM50.9258 27.7031L51.3125 26.9297L50.5391 26.7539L49.7656 28.0898H50.3633L50.9258 27.7031ZM63.3711 25.9805V25.207L62.4219 24.9961L61.8242 25.207V25.7695L63.3711 25.9805ZM54.3711 25.7695V25.207L53.0352 24.8203V25.5938L54.3711 25.7695ZM67.7656 24.6094L67.9766 24.0469L66.8164 23.8711V24.4336L67.7656 24.6094ZM55.918 24.4336L56.0938 23.4844L55.3203 23.0977L54.9336 24.4336H55.918ZM53.5977 24.2578L54.7578 23.4844V22.8867L54.582 21.3398L54.9336 20.6016L54.582 20.2148L55.3203 18.8438L54.7578 18.457V18.0703H55.1445V17.5078H54.3711L53.4219 15.5742H52.8242V16.3477H52.0859L51.4883 15.5742H50.75L50.3633 16.1719L49.5898 15.9609L49.3789 16.7344C49.8945 17.1094 50.1523 17.7539 50.1523 18.668C50.668 19.4414 51.4414 19.7578 52.4727 19.6172V20.0039L53.5977 19.8281L53.8086 20.3906H53.2109V20.7773L53.9844 20.9531V21.3398L53.4219 21.5508L52.6484 21.1641V21.5508H52.0859V20.9531H51.3125L51.1016 21.9375L51.6992 23.2734L51.4883 24.0469L53.5977 24.2578ZM66.8164 23.6602V23.0977H66.2539V23.6602H66.8164ZM56.4805 22.3242L56.6562 21.7266H55.918V22.5L56.4805 22.3242ZM56.8672 21.7266L57.2539 20.9531H57.6406V20.2148L55.918 20.0039V20.7773L56.8672 21.7266ZM57.8164 19.2305L57.043 18.457L58.5898 17.6836V17.2969L58.3789 16.7344H58.9766V17.6836H58.5898L58.3789 19.2305H57.8164ZM51.6992 17.6836L51.1016 17.5078V16.9102H51.4883L51.6992 17.6836ZM67.2031 17.1211L66.8164 16.7344V17.1211H67.2031ZM65.8672 16.9102L64.918 16.3477V17.1211L65.8672 17.2969V16.9102ZM72.1953 16.7344V16.3477H71.8086V16.7344H72.1953ZM60.3125 16.1719L59.75 15.7852V16.1719H60.3125ZM46.1445 15.9609L45.7578 15.5742V15.9609H46.1445ZM60.4883 15.7852V15.3984L60.3125 14.0273H59.9258L59.5391 15.1875L60.4883 15.7852ZM46.707 15.5742V15.1875L45.9336 14.8008V15.5742H46.707ZM55.918 15.1875L55.5312 14.8008L55.3203 15.3984L55.918 15.1875ZM58.9766 15.0117L58.5898 14.625V15.0117H58.9766ZM66.8164 11.918L66.043 11.5312L65.8672 12.1289L66.8164 11.918ZM59.75 11.918V11.1445H59.1523V11.918H59.75ZM53.8086 11.7422V11.3555L53.0352 11.1445L52.8242 11.7422H53.8086ZM56.3047 5.16797L55.707 4.42969V4.99219L56.3047 5.16797Z" fill="#483D3F"/>
<path d="M129.625 39.0762L129.027 38.8652V37.916L129.238 36.5449L128.852 35.209L129.238 34.0488L129.027 32.502C129.285 30.8145 129.473 29.1738 129.59 27.5801C129.73 25.9629 129.93 24.3105 130.188 22.623L129.977 21.6387L130.574 21.4629V20.8652H129.801V20.4785L129.977 19.7051C129.742 19.1895 129.297 19.002 128.641 19.1426L127.902 17.5957L128.852 17.3848V16.998L127.34 16.6113L126.953 17.3848L125.793 18.1582L125.617 18.9316H126.355V19.3184L124.668 19.7051V20.3027L124.844 20.6895H125.23V20.0918H125.617L125.793 20.8652H125.23L125.055 21.8496L125.406 22.2363L124.281 23.0098V23.3965L124.668 24.1699L124.457 25.3301H124.844V25.7168L125.406 26.3145L125.055 26.877L125.23 27.4746L124.281 27.2637L124.07 28.0371H124.457L125.406 29.0215V29.7949L124.844 29.9707L123.895 29.7949L122.77 30.1816V30.5684L122.172 31.7285H121.785V32.1152V31.5176V30.3574H121.223V28.8105H121.609L121.785 30.1816H122.559V29.7949L122.383 29.1973L122.559 28.6348L121.434 28.0371V27.2637L122.383 26.7012V25.9277H121.996L121.609 26.1035V25.7168L122.383 25.3301L122.559 24.7676H121.434L122.172 23.959V23.3965L121.223 21.8496H121.609L121.785 21.252L122.945 20.8652V20.3027L122.559 18.9316H121.785V17.9824L122.77 16.6113L121.996 14.8887L122.559 14.6777L124.07 15.2754L124.281 15.8379H125.055L125.23 14.8887L124.668 14.502L123.895 13.9043V13.5176H123.121V13.9043H122.559V13.5176H123.332L123.508 12.3574L123.332 11.4082L123.895 10.6348H124.281L125.617 11.1973V10.4238H124.844V9.65039L124.281 9.47461L123.895 8.31445L124.457 8.10352V7.54102H125.055L126.18 7.92773L126.742 7.7168L128.641 8.31445L129.238 8.10352L130.188 8.49023L130.75 8.31445V9.08789H131.137L131.523 8.31445H132.473L133.809 8.87695L133.598 9.65039H134.195V10.0371L134.758 9.26367L134.547 8.70117L135.707 8.49023V8.87695L135.32 9.65039H135.707L135.32 11.0215H135.883L136.48 10.0371L136.656 11.1973H135.883L135.707 13.5176H134.547L134.371 12.9551H133.984L133.035 13.1309L132.859 12.5684H132.262L131.699 12.7441L129.977 12.1816V13.3418C129.344 12.9434 128.652 12.8145 127.902 12.9551L127.516 12.1816L126.742 11.9707V11.584L126.953 11.0215L126.742 10.4238H126.18C125.898 11.2207 125.957 11.9941 126.355 12.7441L124.844 12.9551L124.281 12.7441V13.1309C124.656 13.7871 125.16 14.0449 125.793 13.9043V14.6777L125.617 15.4512L126.953 15.6621V15.2754L127.34 15.6621L127.902 15.0645H128.289L128.465 16.0488H128.852L129.625 15.0645H130.188V15.4512H129.625V15.8379L129.977 17.209H130.363L130.926 15.8379H131.523V15.2754L133.422 15.0645L133.598 15.8379H134.195L134.371 15.0645L135.32 15.4512L135.707 15.2754L136.094 15.8379L136.656 16.4355L136.27 17.5957L136.656 18.5449L135.531 18.7559V19.3184L135.883 20.0918L134.547 19.3184V18.5449L133.984 18.3691C134.125 17.7129 133.938 17.3262 133.422 17.209L133.246 18.3691L133.422 18.7559H133.035V19.1426L133.246 20.3027L132.859 20.8652L133.246 21.0762L132.648 21.6387V20.8652H131.91L131.699 22.7988H132.648L133.246 22.623V23.1855H132.262V23.5723L133.035 25.3301L132.473 24.5566L131.91 24.3809L131.312 22.0254L130.75 21.8496L130.363 22.623C130.738 23.1387 130.996 23.7832 131.137 24.5566L132.086 25.1543V25.541H131.699V25.9277L132.473 27.6504L131.699 27.8613V28.4238L132.648 30.9551L132.262 31.7285L132.859 31.9043L133.035 33.2754L132.648 34.0488H132.262V34.6113C132.66 35.2676 132.789 35.9824 132.648 36.7559L132.262 38.0918C131.254 38.0918 130.375 38.4199 129.625 39.0762ZM110.957 37.7051L110.746 36.9316H110.359L110.184 35.5957L110.57 34.6113H110.008V33.8379L110.359 32.8887H109.797V32.291L110.57 32.1152V31.3418L111.52 30.7441L111.695 30.1816H111.309L110.359 30.3574L110.008 29.4082L110.57 28.4238L109.41 28.248V27.8613L110.008 26.877L109.621 26.7012V25.9277H110.008V25.541L109.234 25.3301L108.848 26.3145H107.512L106.387 26.1035L105.789 27.2637L106.176 28.0371L106 28.8105L107.125 29.0215L107.512 28.248V29.584L105.789 29.9707L105.227 30.9551L104.102 31.1309L103.117 29.584H102.379C102.121 29.209 101.676 29.0215 101.043 29.0215V28.248L101.43 27.2637C102.18 26.748 103.07 26.4316 104.102 26.3145V25.9277H104.84L105.402 25.3301L106.562 25.9277V25.1543H106.949V24.3809H107.512L108.074 24.5566L108.672 23.1855L110.008 23.3965L110.184 22.7988L109.621 21.8496L108.848 21.6387V20.8652H108.461L107.512 21.4629L106.562 21.252L105.789 21.6387L104.453 21.252L103.891 21.4629V21.8496H103.328L102.555 21.4629L102.168 20.3027L101.605 20.0918L101.43 21.252H101.043V20.8652L101.219 19.916H101.605V19.1426H102.379V18.7559H102.766L103.328 19.1426L103.504 18.3691H104.102L104.664 18.5449L104.84 17.9824H105.227L105.051 18.3691L106 18.9316L106.738 17.9824L107.898 18.1582L108.285 17.9824L108.461 18.7559H108.848L110.184 18.1582L110.746 16.0488L110.008 14.502L109.41 14.291L109.234 13.5176H108.848L107.898 14.6777H109.023L108.074 15.0645L106.949 14.8887L106 15.0645L105.402 14.8887L104.664 14.291L104.102 14.502L103.328 14.291V13.9043H105.051V13.1309L104.453 12.9551L103.891 13.1309V12.7441H103.504L103.117 13.3418H102.555L102.168 12.7441H101.605L102.379 12.3574L102.941 11.7949L103.715 11.9707L105.402 11.4082L105.789 10.248L106.562 9.65039L105.613 9.47461L105.227 9.65039L105.789 9.47461V9.08789H106.387L108.285 10.4238V9.86133L108.461 11.1973L109.023 11.4082L109.621 11.7949L112.082 11.584L112.293 12.3574H113.031L113.242 11.1973L113.805 11.0215V10.248H113.418V9.47461L113.594 8.87695L112.855 7.33008L111.695 6.94336V7.7168H110.359L109.797 7.54102V7.1543L108.461 6.94336V8.10352H106.949L106.387 6.94336L105.402 6.76758V7.54102L103.891 7.33008L103.117 7.7168L102.941 6.94336L102.379 6.76758L102.168 7.1543H101.605V6.76758L102.379 6.38086L102.766 5.7832L103.504 6.16992L104.102 6.76758L104.664 5.39648L103.328 5.00977L104.453 4.79883L105.402 5.57227L107.512 4.62305L108.672 5.00977V4.62305L108.461 4.02539L108.848 3.25195L110.008 2.47852L110.184 2.0918H110.57V2.47852H111.309L111.52 1.5293H113.805V2.30273L113.594 3.46289L113.98 4.79883L114.578 5.18555H115.141V4.23633L116.477 4.62305V4.23633H117.426L117.602 6.55664H117.988L118.164 7.92773H117.215L116.477 8.87695L115.527 9.08789L115.316 9.65039L116.09 10.0371L115.527 10.248V10.6348L116.652 11.0215V11.7949H117.812L118.938 11.4082L119.5 12.5684L119.324 13.1309L119.5 14.1152L118.551 14.291L117.988 14.1152L117.039 14.291V14.6777L116.09 14.291L115.703 14.8887L114.754 14.291L113.98 14.6777L113.242 15.4512L111.309 14.502L110.957 16.0488H111.695V16.6113H112.082V16.998L111.906 17.5957L112.082 18.1582H112.645L113.031 17.3848L112.855 16.998L113.98 18.5449H114.93V18.1582H115.879V17.5957H116.266C116.266 18.4863 116.523 19.0605 117.039 19.3184V18.3691H117.602V18.7559L118.551 19.1426L120.098 19.5293L120.484 20.4785H119.887V20.8652L120.484 21.252V21.8496L119.887 22.0254L119.711 22.4121L118.551 23.0098L117.602 22.623L117.215 21.4629L117.988 19.5293H117.602C117.109 20.1621 116.863 20.8652 116.863 21.6387H116.09L115.527 21.252V22.0254L114.578 22.4121L114.367 21.6387H113.98L113.242 23.1855L115.141 25.9277L114.93 26.3145L117.039 26.4902L117.602 27.4746L117.988 27.6504L118.164 28.4238L118.938 28.6348L119.324 29.9707L118.551 29.7949V30.9551H118.164V30.1816L117.426 30.9551H116.863L116.652 30.3574L115.879 30.1816L115.703 29.1973L115.141 29.0215L114.191 29.1973V29.584L113.594 28.8105L113.805 28.0371L113.031 27.8613L112.293 28.8105L111.133 29.1973V29.584L112.293 29.9707V30.3574L111.906 31.1309L112.855 32.1152V33.0645L112.469 34.8223L113.242 35.7715H112.469L111.906 35.5957V35.9824L112.082 36.5449H111.695V36.9316L111.906 37.5293L110.957 37.7051ZM111.695 36.7559V36.1582H111.133V36.7559H111.695ZM131.91 35.9824V35.5957H131.523V35.9824H131.91ZM131.312 35.209L130.75 34.998V35.3848L131.312 35.209ZM131.91 34.0488L131.523 33.6621V34.0488H131.91ZM129.625 33.8379L129.238 33.4512V33.8379H129.625ZM111.133 33.8379V33.2754H110.359V33.8379H111.133ZM112.082 33.2754L111.52 32.6777V33.0645L112.082 33.2754ZM132.262 32.1152L131.699 31.5176V31.9043L132.262 32.1152ZM123.508 31.7285L123.332 30.9551L124.668 30.5684V30.9551L123.508 31.7285ZM131.699 31.1309V30.5684H131.137V30.9551L131.699 31.1309ZM105.227 30.3574V29.7949H104.664V30.3574H105.227ZM117.602 30.1816V29.7949L118.551 28.6348L117.988 28.4238L117.812 28.8105L117.039 29.1973L116.863 29.9707L117.602 30.1816ZM124.07 28.6348V27.6504H123.508V28.4238L124.07 28.6348ZM112.293 28.0371L112.645 27.0879H111.52V27.6504L111.695 28.248L112.293 28.0371ZM110.57 27.4746V27.0879H110.184V27.4746H110.57ZM123.895 27.4746L124.281 26.3145L124.844 25.7168H124.281L123.508 26.3145L123.332 27.6504L123.895 27.4746ZM105.613 27.2637L105.227 26.4902L103.891 26.3145V26.7012L105.613 27.2637ZM110.008 24.9434L109.41 23.7832H108.848V24.1699L109.234 24.9434H110.008ZM123.332 24.5566V23.7832H122.77V24.5566H123.332ZM122.945 22.623L123.332 21.8496H122.945L122.559 22.623H122.945ZM119.324 22.4121V21.4629H118.938L118.762 22.4121H119.324ZM112.855 21.4629V20.8652H112.293V21.4629H112.855ZM115.703 20.8652V20.0918H115.141V20.8652L115.527 21.252L115.703 20.8652ZM131.699 19.5293L131.91 18.9316L130.926 18.5449L130.75 19.5293H131.699ZM113.242 19.5293V18.7559L112.645 18.5449L112.469 19.5293H113.242ZM132.648 19.1426V18.5449H132.086V19.1426H132.648ZM124.07 18.7559L125.055 17.9824H124.457L123.895 18.1582L123.332 17.3848H122.383V17.9824L122.559 18.5449L124.07 18.7559ZM129.625 18.3691L129.801 17.209H129.238V18.3691H129.625ZM124.457 17.3848L124.668 16.2246L123.121 16.0488V16.6113L124.457 17.3848ZM125.406 17.3848L125.617 16.8223H125.23L125.055 17.3848H125.406ZM111.695 17.3848V16.6113H111.309L111.133 17.209L111.695 17.3848ZM131.699 16.6113V16.0488H131.312V16.6113H131.699ZM111.133 14.8887V14.291L110.184 13.5176V13.9043L110.57 14.8887H111.133ZM110.957 13.1309V12.3574H110.184V12.7441L110.957 13.1309ZM118.551 13.1309V12.5684L118.938 11.7949H118.375L117.426 12.5684L117.812 12.7441V13.1309H118.551ZM125.793 12.9551V12.1816C125.301 12.041 124.797 11.8418 124.281 11.584V11.9707L124.457 12.3574H124.844V12.7441L125.793 12.9551ZM114.93 12.3574L115.316 11.584H114.578L114.191 11.7949L114.93 12.3574ZM128.641 12.3574C129.156 11.8418 129.414 11.1387 129.414 10.248L128.641 10.0371C128.523 10.8105 128.277 11.5254 127.902 12.1816L128.641 12.3574ZM134.547 12.3574L134.758 11.7949H134.195V12.3574H134.547ZM132.648 12.1816L132.262 11.7949V12.1816H132.648ZM131.699 11.7949L132.473 11.1973V10.0371L131.91 9.86133L131.523 11.4082L130.926 11.9707L131.699 11.7949ZM106.562 11.584L106.738 11.0215L106 10.8105V11.4082L106.562 11.584ZM107.688 11.584L107.898 10.8105L107.336 10.0371H106.738V10.4238L107.688 11.584ZM124.07 11.584L123.508 11.4082V11.9707H124.07V11.584ZM133.422 11.4082L132.859 11.1973V11.584L133.422 11.4082ZM127.691 11.0215L127.129 10.8105V11.1973L127.691 11.0215ZM126.004 10.4238V9.86133H125.617V10.4238H126.004ZM125.23 8.87695L124.844 8.49023V8.87695H125.23ZM116.652 8.10352L116.266 7.7168V8.10352H116.652ZM117.812 7.7168L117.988 7.1543H117.426V7.7168H117.812ZM113.805 6.76758L113.031 6.38086V6.94336L113.805 6.76758ZM111.906 6.55664L111.133 5.7832V6.16992L111.906 6.55664ZM118.375 6.55664V6.16992L118.164 5.7832L118.938 5.00977V5.7832L118.762 6.55664H118.375ZM117.039 6.16992V5.7832H116.652V6.16992H117.039ZM116.09 5.39648V5.00977L115.316 4.62305V5.00977L116.09 5.39648ZM113.242 4.23633L113.594 3.46289H112.645V4.41211L113.242 4.23633ZM111.309 3.25195V2.47852L110.184 2.30273V2.68945L111.309 3.25195Z" fill="#483D3F"/>
<path d="M190.184 33.082L189.234 32.8711L188.074 31.5352H187.512L186.738 32.4844L186.141 31.1484L185.578 30.9375L184.629 32.3086H183.645L183.082 32.0977L181.922 32.3086L181.359 32.0977C180.703 32.4961 179.988 32.625 179.215 32.4844L177.879 32.3086V31.9219L178.441 31.7109L178.652 31.1484H178.266L177.668 31.3242V30.9375L177.879 30.1641L177.668 29.3906H178.266L179.426 29.6016V29.0039H178.828V28.6172H177.879V28.2305L178.055 27.668L179.039 28.0547L179.215 28.8281H179.812V27.8438L179.039 27.457V27.0703H179.426L180.973 27.457V27.0703L179.426 26.5078L178.441 25.3477L179.215 25.1367V24.75L179.039 24.3633L179.215 24.75H179.602L179.812 22.8164L179.039 22.6406V22.2539L180.762 21.8672L180.199 23.4141H180.586L181.148 22.2539C182.555 21.8555 183.973 21.5273 185.402 21.2695V20.8828L184.242 20.4961L183.855 19.5117H183.469V18.9492L183.645 18.3516L183.258 17.4023L182.695 17.1914L182.098 17.4023L179.602 16.2422L179.039 15.2578L181.359 14.6953V15.082H181.922L183.258 13.7109H183.855L184.242 14.6953H184.805V13.9219L184.629 12.7617H184.031L184.242 11.9883L183.469 11.3906V11.0039C181.805 11.0039 180.258 10.6875 178.828 10.0547V9.66797C180.75 9.15234 182.684 8.69531 184.629 8.29688L187.301 9.07031V8.68359H187.688L188.285 8.89453L189.059 8.68359L190.008 9.28125L190.957 9.07031L191.941 9.28125L193.488 8.89453L194.438 10.2305L194.613 9.84375L194.824 10.2305L194.051 11.2148H193.277L191.941 10.6172L190.395 11.0039L189.445 10.6172L187.125 11.3906V10.8281H186.527L185.578 11.2148V11.6016L187.125 12.9375L187.512 12.7617C187.371 13.6523 187.559 14.4258 188.074 15.082H188.672L189.234 14.8711L189.797 15.082L190.957 14.8711L191.941 15.6445V16.8047L190.781 17.0156L189.797 17.5781L189.234 20.1094L187.898 20.2852V20.6719H187.512V21.2695L186.738 21.4453V20.8828H186.352L185.578 21.6562H184.242L183.645 22.043L184.418 22.6406L185.578 22.4297L186.352 22.6406L186.738 22.8164L187.301 22.6406V23.4141H187.688L189.445 22.6406L192.328 23.4141L192.504 23.9766L191.941 24.5742V24.9609L192.715 26.2969L191.941 26.1211V26.5078L192.715 27.0703C192.457 28.1016 192.715 28.8164 193.488 29.2148L193.84 30.375L193.277 31.5352H192.715L192.504 32.0977L190.184 33.082ZM163.641 32.4844L162.656 31.9219C164.977 30.375 167.484 29.2148 170.18 28.4414L170.355 29.3906L165.363 31.3242L164.977 31.1484L164.414 32.0977L163.641 32.4844ZM184.629 31.7109L184.031 31.5352V32.0977H184.629V31.7109ZM179.426 31.1484V30.375H178.441V31.1484H179.426ZM184.805 31.1484V30.375H184.418L184.031 31.1484H184.805ZM184.805 29.6016L185.402 29.3906L187.125 29.7773L189.234 28.6172L189.621 25.3477L188.461 24.9609L186.141 24.5742V25.1367H185.578L184.629 24.9609L183.258 25.7344L183.082 25.3477H182.695L182.309 26.1211L182.484 26.8945H182.871L183.258 26.2969H184.418L183.258 27.2812L182.871 28.2305H183.469V28.8281L182.484 28.6172V29.6016H183.469L184.242 29.3906V29.0039L184.805 29.6016ZM180.762 29.0039L182.484 28.2305L182.695 27.2812H182.309L181.711 28.0547L181.359 28.4414L179.812 28.6172V29.0039H180.762ZM181.535 28.0547V27.2812L181.711 26.6836L180.973 28.0547H181.535ZM192.504 27.8438V27.2812H191.941V27.8438H192.504ZM180.973 26.5078H181.922V25.9102L180.762 24.9609L180.199 26.5078H180.973ZM179.988 25.7344V25.3477H179.602V25.7344H179.988ZM182.309 25.1367V24.75L182.871 23.0273H182.484V23.4141H182.098L181.711 25.1367H182.309ZM178.652 23.5898L178.828 23.2031L179.039 23.5898H178.652ZM187.898 20.1094V19.5117H187.512V20.1094H187.898ZM165.574 19.7227L162.656 18.3516V17.9648L166.137 16.418L166.91 16.2422L169.02 16.6289V17.0156L169.969 17.1914V18.5625L168.633 18.9492L166.91 19.7227L165.926 19.3359L165.574 19.7227ZM168.633 17.5781L168.844 17.0156L168.246 16.8047L168.07 17.7891L168.633 17.5781ZM180.973 16.6289V16.0312H180.375V16.6289H180.973ZM183.082 15.6445L183.469 14.3086L182.871 14.0977L182.484 15.8555L183.082 15.6445ZM185.754 14.6953V14.0977L185.402 14.6953H185.754ZM187.301 13.9219V13.3242L186.141 13.1484V13.9219H187.301ZM169.617 12.5508L168.844 12.375L168.633 11.7773C167.859 11.918 167.215 11.7891 166.699 11.3906L166.523 10.8281L165.574 10.6172V10.2305H165.188L164.59 10.4414L164.027 9.45703C164.801 8.68359 165.762 8.03906 166.91 7.52344H168.246L168.457 8.12109L170.742 8.68359L171.516 9.66797L172.289 9.07031V9.45703L171.727 11.0039H172.5V11.3906L170.953 11.7773L170.566 12.5508H169.617ZM185.754 11.0039L184.805 10.2305L184.629 11.0039H185.754Z" fill="#483D3F"/>
<path d="M223.496 38.2818L222.16 37.8951L221.949 37.2974H222.723L223.496 37.5084V37.1216H224.445L224.621 36.1373H224.234L222.547 36.524L221.598 36.3482V35.7505H221.211L222.723 35.188V34.6255L224.445 34.4146L225.57 34.8013L225.781 34.2388L229.191 33.6412L230.352 33.8521L231.301 33.4654L231.477 30.5826L230.738 30.1959V29.4224H230.352L229.965 30.5826H228.453L227.68 30.1959L226.344 30.3716L225.57 30.1959L224.059 30.5826L223.109 29.9849V29.5982L221 29.0357L220.824 28.438L221.598 28.649L221.949 28.438L222.898 29.0357V27.8755H224.832L225.57 28.2623V27.8755H226.344V28.2623H226.73L228.066 27.4888V27.8755H228.629L229.402 27.6646L230.141 27.8755L231.301 26.5396L230.914 25.3795L230.141 25.1685V24.606H229.754L229.016 25.1685V25.942H228.242L227.469 25.3795V24.9927H226.344L226.168 25.7662H225.395L224.832 25.5552L224.059 25.7662V25.3795L224.621 24.2193L223.285 24.0084L222.723 22.8834L223.883 22.2857V21.899L223.109 21.5123V21.899L222.898 19.7896L223.109 18.8404L222.723 18.067H223.109V15.7466L223.285 15.3599L223.109 13.2505L224.445 12.6529V12.0904L225.184 11.8795L225.395 12.4771L226.168 12.6529L227.68 12.4771L228.242 12.6529L230.738 12.4771L231.09 10.5435L230.527 10.1568L229.965 9.20758L228.805 8.82086L228.629 9.38336L227.855 9.5943L226.52 9.20758L225.395 9.5943L224.832 9.38336L224.234 9.77008V8.99664H223.672L223.496 9.5943L222.336 9.77008L222.16 8.82086H221.598V9.38336H221.211V8.82086H220.824V7.83649L221 7.44977L222.16 7.27399L222.723 7.44977L223.672 7.27399L224.832 7.44977L227.117 6.71149V7.27399H227.68V6.71149H228.242L229.402 6.88727L231.09 5.72711L231.301 5.16461L230.141 4.95367V4.39117L230.738 3.4068C232.004 3.66461 233.082 3.99274 233.973 4.39117V4.00446H234.535L233.762 4.39117L233.586 5.16461L233.973 5.93805L235.098 6.11383L236.047 5.72711V6.32477H236.645L236.82 5.55133H237.207V6.32477H237.77L237.945 5.72711H238.332L239.105 5.34039V6.32477H239.492L238.93 7.83649L238.156 8.22321L237.945 7.44977L237.207 8.22321H236.645H235.871L234.922 9.38336L235.098 9.98102L234.922 11.7037L233.586 11.8795V12.4771H233.973L237.383 12.0904L239.105 13.2505V14.7974H239.492L239.668 16.3091H238.93V16.9068L240.055 17.0826V17.6802L239.492 18.067V18.6295L240.23 19.0162V18.067L241.777 18.8404L242.34 19.7896L243.5 19.9654V18.8404L244.836 18.4537V18.8404C245.844 18.442 246.793 18.1841 247.684 18.067L247.859 16.9068L247.473 15.9224L246.523 15.5357V15.149C247.25 15.0787 247.883 15.2779 248.422 15.7466L249.02 14.9732L249.406 15.5357H248.422L248.246 16.6959L248.809 16.9068L249.406 16.3091C249.523 17.3404 249.84 18.1841 250.355 18.8404L250.707 18.6295V19.192H251.691L251.867 19.7896L252.816 19.9654L252.992 19.192L252.641 18.4537L253.766 18.8404L255.102 18.4537V19.7896L254.715 21.1255L255.102 22.4966H254.715V23.0591H255.312C255.758 25.0279 255.758 27.0201 255.312 29.0357L255.875 30.7584L255.312 32.692L255.664 34.0279H254.926L254.715 34.6255L254.926 35.3638L253.59 35.7505L252.992 35.9615L252.816 34.8013L252.992 34.2388L252.641 32.8677L253.379 29.0357L252.992 27.1021L253.203 26.3287L252.43 22.8834V22.2857H251.691L250.355 22.8834V23.4459H249.406V24.0084L249.582 25.942L248.246 26.3287L248.07 27.4888H248.633L248.809 26.7154H249.758V27.2779L249.406 28.8248L248.633 29.0357L248.422 29.9849H247.859V30.7584H247.473L246.91 30.5826L246.523 31.3209H247.297V31.7076C247.93 31.5904 248.246 31.7896 248.246 32.3052L247.473 32.692L247.121 33.2545C246.605 33.6529 246.031 33.7818 245.398 33.6412L243.676 33.0787L243.5 31.7076L244.062 31.5318V30.3716H244.625C244.625 29.481 244.754 28.7076 245.012 28.0513L245.398 28.2623L245.574 27.2779L245.961 27.1021V26.1529L245.398 24.9927L245.574 24.2193H245.188V23.8326L245.574 22.4966L244.062 22.2857V21.899H243.289L242.727 21.3365L242.551 21.899H241.004L240.23 21.5123C239.363 21.9107 238.543 22.3677 237.77 22.8834V23.4459L238.543 23.8326L238.719 24.3951H238.332L237.945 24.2193L236.645 24.9927V25.3795H235.484V25.7662H234.922L234.711 26.5396L234.359 26.8912L234.535 27.6646H235.309L235.871 27.4888L236.82 27.8755L237.207 29.0357L237.945 29.4224V30.7584H237.207L236.82 30.1959H236.258V30.9341H235.871L235.098 30.5826L234.922 31.7076L234.535 31.9185V32.3052C235.051 32.6802 235.238 33.2545 235.098 34.0279H235.66L235.871 35.3638C234.723 35.3638 233.961 35.7505 233.586 36.524H234.148L234.922 36.1373L235.098 36.7349C233.574 36.9927 232.121 37.3091 230.738 37.6841L229.191 37.1216L228.805 37.5084L227.293 36.9107V37.8951L225.57 38.0709L225.008 37.8951C224.633 38.2701 224.129 38.399 223.496 38.2818ZM228.066 36.3482V35.9615L226.906 35.5748V36.524H227.469L228.066 36.3482ZM231.09 35.5748V34.9771L230.527 35.5748H231.09ZM228.805 35.3638V34.8013H229.191V34.2388H228.805L228.242 35.3638H228.805ZM230.527 34.4146V34.0279H230.141V34.4146H230.527ZM234.535 33.8521L234.148 33.4654L233.973 34.0279L234.535 33.8521ZM234.148 31.9185V31.3209H233.586V31.9185H234.148ZM238.719 29.9849L238.543 29.4224L238.719 28.8248H237.945V28.438L238.719 28.2623V29.9849ZM226.344 29.8091V29.4224L225.781 29.2115V29.8091H226.344ZM225.008 29.4224V29.0357H224.621V29.4224H225.008ZM227.855 29.2115L228.242 27.8755H227.855L227.293 29.4224L227.855 29.2115ZM224.059 29.0357V28.649H223.672V29.0357H224.059ZM247.473 25.1685L247.121 24.9927V25.3795L247.473 25.1685ZM234.922 23.2349L235.484 23.0591V23.4459H236.047L237.207 23.0591V22.4966L236.82 19.4029H236.047V19.0162H235.484L235.309 19.5787L234.711 19.9654L234.535 21.5123L233.586 21.899L233.375 22.4966H233.762L234.359 22.2857L234.535 22.6724L233.586 23.8326H233.973L234.922 23.2349ZM230.738 22.6724C230.738 21.2662 230.609 19.9888 230.352 18.8404H229.754L229.402 19.192L227.117 18.8404L226.73 20.7388H226.168V21.3365H226.906V21.899L226.73 22.6724L228.453 22.8834L229.402 22.6724H230.738ZM231.688 22.8834V22.4966L231.477 21.7232H230.914V22.2857L231.09 22.8834H231.688ZM233.023 22.1099V21.7232H232.637V22.1099H233.023ZM225.008 21.899V21.3365H224.621L224.445 22.1099L225.008 21.899ZM245.188 21.7232L245.012 20.9498H244.449V21.3365L245.188 21.7232ZM242.551 21.1255L242.727 20.3521H242.34L242.164 21.1255H242.551ZM231.477 21.1255V20.563H230.914V21.1255H231.477ZM245.398 21.1255V20.7388L244.836 19.7896H244.062V20.563L245.398 21.1255ZM223.672 20.3521V19.9654H223.285V20.3521H223.672ZM241.777 20.1763V19.4029H241.391L241.215 19.9654L241.777 20.1763ZM251.094 19.9654L250.531 19.7896V20.1763L251.094 19.9654ZM245.785 19.9654V19.4029H245.188V19.9654H245.785ZM247.297 19.5787L247.859 18.6295H247.121L246.734 19.5787H247.297ZM242.551 19.0162L242.164 18.2427H242.727L242.902 18.8404L242.551 19.0162ZM229.191 18.067V17.4693H228.805V18.067H229.191ZM246.91 17.6802L246.523 17.4693V16.3091H246.91L247.297 17.2935L246.91 17.6802ZM236.258 17.6802V17.2935C236.633 16.6373 236.762 15.9224 236.645 15.149L235.484 14.024H234.922V14.9732H234.535L233.973 14.7974L233.762 15.3599L234.148 15.5357C234.031 16.3091 234.219 16.8248 234.711 17.0826H235.484V17.6802H236.258ZM225.957 17.2935L225.395 16.9068V17.4693L225.957 17.2935ZM228.805 17.4693V16.9068L230.527 16.5201L230.738 15.5357L230.352 14.7974L227.469 14.5865L226.344 15.149V15.5357L226.73 17.0826L228.805 17.4693ZM231.863 16.6959L231.477 16.3091L231.301 16.9068L231.863 16.6959ZM238.93 14.7974V14.4107H238.543V14.7974H238.93ZM247.121 14.5865L248.07 13.4263V12.8638L247.859 11.8795H247.473V11.317L247.859 10.3677L248.633 12.2662L249.582 12.6529V13.2505H249.02C248.762 13.8834 248.316 14.3287 247.684 14.5865H247.121ZM232.812 12.2662L233.199 11.106L232.25 10.9302L232.074 11.7037H231.477V12.0904L232.25 12.4771L232.812 12.2662ZM223.496 8.43414V7.66071H223.109L222.898 8.22321L223.496 8.43414ZM234.148 6.71149V5.93805H233.762L233.586 6.50055L234.148 6.71149ZM232.074 5.93805L231.688 5.55133V5.93805H232.074ZM233.199 5.72711V5.16461H232.637V5.72711H233.199ZM225.781 4.39117L224.832 3.79352L224.621 2.45758L227.293 2.2818L226.344 2.66852V3.23102L226.73 4.00446L225.781 4.39117ZM234.148 3.23102C232.25 2.71539 230.223 2.45758 228.066 2.45758C230.973 2.36383 233.891 2.30524 236.82 2.2818L235.484 3.02008L234.535 2.66852L234.148 3.23102Z" fill="#483D3F"/>
<path d="M290.031 39.5684V38.9707L289.082 38.7949L288.695 38.584L287.781 38.9707L287.184 38.7949L287.957 38.1973L288.133 37.6348H288.52V37.0371L290.242 35.7012L291.367 35.4902V34.541H291.754L293.266 33.7676V33.3809H293.652V32.6074L294.777 32.7832L296.289 31.623L296.465 31.0605C295.598 30.5449 294.719 30.0879 293.828 29.6895L293.441 30.2871V29.5137L294.602 29.127L294.953 26.8066L294.215 26.9824L293.828 26.0332L294.391 23.8887L294.215 23.3262L295.164 22.9395L296.289 23.1152L296.852 22.166H296.465L295.727 22.3418L295.516 21.3574L294.602 20.9707L294.391 19.248L294.953 17.7012L294.602 17.4902L295.34 17.7012L296.465 17.3145V16.9277L296.289 16.1543L297.062 15.5566L297.238 14.0098H297.625L298.363 14.2207L298.574 13.623L298.363 12.8496H298.961V12.2871L298.574 10.7402H298.961L299.137 11.3027L299.875 11.5137V11.127L299.137 9.36914L299.523 8.5957L300.262 7.04883L299.312 6.87305V5.88867H299.699L299.875 4.72852L299.312 4.55273L298.75 5.88867L298.188 5.71289V5.32617H297.625C296.852 5.8418 296.535 6.48633 296.676 7.25977H296.289L295.902 9.36914L294.777 9.75586L293.652 8.5957L293.441 7.04883L293.652 6.48633L293.441 5.88867L294.602 5.32617L294.777 4.55273L294.602 3.95508L295.164 2.19727H296.465L296.852 2.9707C297.484 3.50977 298.188 3.7793 298.961 3.7793L302.934 2.79492L303.496 2.9707L304.059 2.58398L307.293 1.63477L307.855 2.02148C308.488 1.36523 309.309 1.03711 310.316 1.03711L310.879 2.02148L311.828 2.4082V2.9707L312.953 3.18164V3.56836L312.777 4.16602H313.164L312.602 4.55273V5.11523H313.516L312.391 5.50195V5.88867L312.602 6.27539L312.004 6.48633L311.652 7.25977H311.055L310.703 8.20898C308.922 8.60742 307.469 9.63867 306.344 11.3027L306.133 12.0762L307.293 12.2871L308.594 13.623H308.98L309.191 14.3965L308.98 14.9941L309.191 15.3809L310.105 14.9941V15.5566L311.055 16.1543L311.266 16.9277H310.105V17.3145L309.367 16.9277L309.191 17.3145L308.805 16.3301H308.418L308.031 17.7012H307.645L307.293 16.9277L307.469 16.3301H307.082L306.344 16.7168V17.3145L306.52 17.7012C305.77 17.4434 305.324 17.6309 305.184 18.2637L306.344 19.0371L307.082 18.6504L306.695 18.8613L306.344 20.584C306.977 21.0996 307.164 21.8848 306.906 22.9395L307.645 23.502V24.0996L307.469 24.4863L306.695 24.873V24.0996H305.781C305.758 25.1074 306.133 25.9395 306.906 26.5957L306.52 27.5801L306.695 28.3535L306.133 28.5293L305.957 29.3027H304.445L303.672 30.4629L300.473 30.8496L300.262 29.9004L299.523 29.6895L299.312 30.6738L299.523 31.0605L298.574 31.2363L298.363 30.4629H297.801L297.062 32.7832L298.188 33.3809V33.9434L298.012 34.3301H297.238L297.062 33.7676H296.465V34.541L296.676 34.9277L295.727 34.7168L295.34 35.877L295.164 36.6504H294.777V35.4902H294.215L294.004 36.2637L294.215 37.4238L293.828 36.6504H293.055V37.248L293.266 37.6348L292.316 39.1816H291.93V38.584H291.191L290.031 39.5684ZM304.445 39.5684V38.9707L304.621 38.1973H305.008V37.6348H304.445L303.109 38.4082L302.934 37.6348L303.285 37.248L303.109 35.4902L303.496 34.7168H302.547L305.781 33.1699L307.293 33.5566V33.9434H307.855L307.469 34.7168L308.242 34.9277L309.191 36.0879C309.801 36.0879 310.305 36.4043 310.703 37.0371L311.055 38.0215H311.441L312.004 38.9707L312.777 39.1816L306.133 39.5684L305.395 39.1816L304.445 39.5684ZM296.852 32.2207L296.676 31.834H296.289V32.3965L296.852 32.2207ZM298.363 30.0762V29.6895L298.188 29.127H297.625L297.414 30.2871H297.801L298.363 30.0762ZM301.773 29.6895V29.3027L301.598 28.7402L302.934 28.1426L303.496 26.8066L302.934 26.5957L302.371 27.5801L302.723 26.4199H303.109V25.6465H302.723L302.547 24.4863L301.984 24.2754L301.035 24.4863L300.824 25.4355H300.086L299.875 24.6621H299.137C297.871 24.8027 296.922 25.2598 296.289 26.0332L296.852 26.9824L296.113 27.5801V27.9668C296.98 28.7402 298.117 28.998 299.523 28.7402V29.5137H300.086L300.648 28.916L301.035 29.6895H301.773ZM305.781 26.4199L305.395 26.0332V26.4199H305.781ZM304.832 25.6465L304.445 25.4355V25.8223L304.832 25.6465ZM300.824 24.4863V23.7129L301.984 23.502L303.672 23.8887V23.3262L302.723 22.7285V21.7793L301.773 21.5684V21.1816L302.547 20.0215H302.934V19.4238H302.547V18.6504L300.262 18.4746L299.699 18.6504L298.012 17.877C297.496 18.6504 297.238 19.5527 297.238 20.584L297.414 21.1816H299.523L300.262 21.7793L300.473 20.7949H301.035L301.211 22.3418H300.824L298.188 21.9551L297.625 22.166V23.3262L298.363 23.7129L299.699 23.502L300.262 23.7129V24.4863H300.824ZM305.57 23.3262V22.166L304.059 21.7793V22.166L305.008 22.9395V23.3262H305.57ZM297.238 21.3574V20.7949H296.676V21.1816L297.238 21.3574ZM305.008 20.7949V20.1973L303.883 19.6348V20.1973L305.008 20.7949ZM303.496 20.1973L302.934 20.0215V20.4082L303.496 20.1973ZM282.473 18.6504L281.875 17.3145L283.422 16.541L283.598 16.1543C285.496 14.7246 287.641 13.8809 290.031 13.623C290.664 13.1074 291.484 12.791 292.492 12.6738L292.703 13.4473L291.754 14.0098L289.855 14.7832L289.293 15.3809V14.9941H288.906L288.52 15.7676H288.906C287.125 16.7988 285.227 17.5723 283.211 18.0879L283.035 18.6504H282.473ZM297.062 18.8613V18.2637H296.465V18.8613H297.062ZM295.902 18.4746V17.877H295.34V18.4746H295.902ZM301.422 17.4902L301.773 16.541H301.211L300.824 17.3145L301.422 17.4902ZM306.133 16.7168L307.082 16.541L307.855 16.1543V15.7676H306.906V15.3809H307.469V14.9941L306.344 14.7832V14.3965H305.008L305.184 13.623L304.621 13.4473L304.059 12.8496L303.109 13.2363L302.723 13.0605L301.598 12.0762L301.211 13.0605L301.984 13.4473V13.0605L300.824 15.3809L301.422 15.5566L301.984 15.3809L302.371 16.3301L302.934 16.541L304.832 15.7676L305.184 16.9277L306.133 16.7168ZM299.312 16.541V15.9434H298.75V16.541H299.312ZM300.262 15.3809L301.035 13.623H300.262L299.699 15.1699L300.262 15.3809ZM298.75 15.1699V14.7832L298.012 14.3965V15.1699H298.75ZM301.035 10.5293V10.1426L300.824 9.36914H300.262L300.086 10.5293H301.035ZM304.621 9.9668V8.98242L304.832 8.20898L305.957 7.82227L308.031 6.27539V5.71289L307.082 5.11523L306.695 5.32617L305.957 4.72852L304.832 3.7793L304.445 5.32617H303.496L303.285 4.55273L302.371 4.3418V3.95508H301.598L300.473 4.16602L300.262 5.11523H300.824L301.773 4.72852L302.16 4.93945V5.71289L301.211 5.88867V6.27539L303.672 6.66211V8.5957L302.934 9.9668L304.059 10.3535L304.621 9.9668ZM301.984 9.75586V9.36914L301.035 8.80664V9.19336L301.984 9.75586ZM302.723 8.5957L302.934 8.0332L301.984 7.64648L301.773 7.04883L300.824 6.87305L300.473 7.82227C301.223 7.96289 301.973 8.2207 302.723 8.5957ZM289.469 8.41992L285.496 7.25977L285.285 6.66211H284.16V6.09961C285.426 4.66992 287.008 4.1543 288.906 4.55273L290.418 4.93945V5.71289H291.191L291.543 5.50195V5.88867L290.805 7.64648L290.242 7.82227V7.43555H289.855L289.469 8.41992ZM310.105 7.04883L309.754 6.66211V7.04883H310.105ZM300.824 6.27539V5.71289H300.086V6.27539H300.824ZM312.391 4.3418V3.7793H311.828V4.3418H312.391Z" fill="#483D3F"/>
<path d="M342.961 39.1816L342.188 38.584L342.012 35.5254L342.188 34.752H341.801C342.059 32.9004 342.059 31.0371 341.801 29.1621L342.574 27.6152L342.398 27.0527L342.574 26.4551H343.137L346.195 28.002L348.867 27.8262L349.641 28.2129L350.766 27.8262L351.328 28.002L351.926 27.8262L352.102 28.3887H352.488L353.051 28.2129L353.438 30.498C353.812 31.0137 353.941 31.7168 353.824 32.6074L353.613 33.5918C354.012 33.8496 354.141 34.2363 354 34.752L352.664 34.9277L352.102 36.4746L349.43 37.4238C347.531 37.5645 345.75 38.1504 344.086 39.1816L343.348 38.9707L342.961 39.1816ZM375.164 35.7012L374.777 34.752L374.391 34.541L373.441 32.4316H372.879L372.105 32.6074C371.473 31.9746 370.77 31.5996 369.996 31.4824L368.871 27.6152V27.0527L368.098 25.8926L368.309 25.2949C368.051 24.1465 367.852 22.998 367.711 21.8496L367.922 21.252H367.324L366.586 20.8652L365.426 21.4629H364.477V21.8496L364.688 22.4121L363.738 23.0098L363.527 23.5723L363.738 24.1699H363.141L363.352 25.1191L362.754 25.6816L361.629 26.0684V26.4551L360.68 26.666C360.164 27.2988 359.461 27.4863 358.57 27.2285L358.184 24.9082L358.781 22.4121L357.832 21.6387C357.949 20.8887 357.75 20.3848 357.234 20.127H356.672L356.496 20.5137H355.898L355.336 19.916V20.8652L354.211 20.3027L354 19.7402L354.773 19.1426L354.949 18.1934C356.098 17.6777 357.305 17.3496 358.57 17.209L359.133 13.166L358.957 12.6035C359.074 11.7129 359.332 10.8809 359.73 10.1074L358.781 8.94727L352.875 8.17383L352.664 7.40039C353.93 6.50977 355.324 5.99414 356.848 5.85352L357.445 6.06445L358.008 5.85352L361.805 6.62695L362.402 6.45117V7.01367C364.84 6.61523 367.184 6.87305 369.434 7.78711C370.324 7.27148 371.273 7.08398 372.281 7.22461C372.727 8.0918 372.797 8.98242 372.492 9.89648H372.879V10.2832L372.281 10.4941V12.041L372.668 12.9902C372.551 13.5059 372.176 13.6934 371.543 13.5527V13.9395L372.668 14.3262V15.3105H371.895V15.873L372.492 16.2598L372.879 18.3691L372.668 19.1426L372.879 19.7402L372.668 20.6895C372.809 23.3848 373.57 25.8223 374.953 28.002L375.516 28.2129L376.113 26.666L378.012 25.2949L378.398 28.2129L377.801 31.0957L377.449 31.4824L377.625 32.0449H377.238V32.8184L378.012 33.2051V33.9785L377.625 35.5254L377.062 35.7012V34.9277H376.676L375.902 35.3145V35.7012H375.164ZM342.574 34.752V34.1543H342.012V34.752H342.574ZM349.641 34.3652C350.016 33.0762 350.133 31.7285 349.992 30.3223H348.867L345.633 30.498L345.07 31.8691H345.633L344.859 32.0449V32.4316L345.07 33.2051H345.633L346.02 34.3652L348.656 34.752L349.641 34.3652ZM377.238 33.3809L377.062 32.9941H376.676V33.5918L377.238 33.3809ZM370.945 31.0957L370.383 30.709V31.0957H370.945ZM348.48 24.5215L347.918 23.7832H346.371L346.02 23.959L344.859 23.3965L344.297 22.2363L344.473 21.4629L343.137 18.9668L342.012 18.5801L341.449 18.7559V18.3691L343.137 16.4707H344.297L345.809 17.209V17.5957H346.371L347.355 17.4199C348.48 17.6777 349.617 17.8652 350.766 17.9824L351.328 17.8066L352.664 18.1934V18.5801L351.926 20.3027L351.328 20.5137V20.127H350.379V20.5137H349.641L348.656 20.3027L347.531 20.5137L346.195 20.3027V20.6895C347.344 21.3223 348.68 21.5801 350.203 21.4629L351.328 22.0254V22.623H351.926V22.0254H352.488L353.262 22.4121V22.7988L353.051 23.1855L352.277 23.959L350.941 24.1699L350.379 23.959L350.203 24.5215H348.48ZM350.379 23.959V23.5723H349.992V23.959H350.379ZM366.973 19.7402L366.375 19.1426V19.916L366.973 19.7402ZM365.637 17.9824V17.4199H366.023C366.398 18.0527 366.902 18.3105 367.535 18.1934C368.051 15.7559 368.496 13.3184 368.871 10.8809L367.922 10.6699L366.586 11.0566C365.555 10.4238 364.477 10.1074 363.352 10.1074L363.141 9.50977H362.402L362.191 10.1074H360.855V10.6699L361.418 12.4277H361.805L361.242 14.5371L362.191 15.0996H361.242V15.6973L362.191 16.084L362.578 16.8223C363.727 17.0801 364.746 17.4668 365.637 17.9824ZM349.43 14.9238L348.48 14.3262L347.355 14.5371L345.809 14.3262L344.473 14.7129L343.523 14.3262L342.398 14.5371L340.5 13.5527L340.289 12.7793H339.516L340.852 11.6543L342.012 11.4434L343.734 12.041C344.227 11.6426 344.414 11.127 344.297 10.4941H344.684V9.12305L344.297 7.99805L344.859 7.78711C345.117 6.89648 345.434 5.99414 345.809 5.08008H345.422L345.07 5.4668L345.422 5.29102L345.633 3.74414L345.809 3.35742L345.633 2.79492L346.582 1.63477L348.305 1.42383L348.48 2.58398C347.73 5.41992 347.414 8.37305 347.531 11.4434C348.539 12.0996 349.676 12.2988 350.941 12.041L352.277 11.6543L353.051 11.8301L354 11.4434L354.773 11.6543V12.2168L354.562 12.6035C354.445 13.2363 354.199 13.8105 353.824 14.3262L352.664 14.5371L351.539 14.3262L350.59 14.7129L350.203 14.5371H349.816L349.43 14.9238Z" fill="#483D3F"/>
</svg>
