<svg width="278" height="41" viewBox="0 0 278 41" fill="none" xmlns="http://www.w3.org/2000/svg">
<path d="M4.98438 33.2051V32.8184L5.54688 29.7246L5.16016 28.7754L2.91016 27.6152L2.69922 27.0176L5.54688 25.5059L6.32031 25.8926L6.88281 23.959H5.93359V22.7988L6.32031 22.0254C6.4375 20.6191 6.12109 19.4004 5.37109 18.3691C3.73047 18.5098 2.27734 18.1934 1.01172 17.4199L0.800781 16.6465L1.36328 15.2754H4.77344L5.54688 15.4863L6.10938 13.9395L5.72266 11.0566L7.23438 9.89648C8.125 11.7012 8.57031 13.6934 8.57031 15.873L9.13281 16.0488L10.4688 15.4863L10.6445 16.2598H11.0312L11.418 15.4863L12.1914 15.2754L11.8047 14.1504L11.9805 13.5527H10.8555C11.3008 11.9121 11.4883 10.248 11.418 8.56055H12.3672L12.7539 7.40039L13.4922 8.94727H12.9297V9.50977L14.0547 9.7207V10.4941L14.6523 10.6699V11.2324L14.0547 11.6191V12.2168L14.8281 16.6465H15.2148L15.9531 16.2598L16.3398 17.0332L16.1641 17.9824L16.7266 19.3184L16.5508 19.7051H16.1641L15.6016 19.5293C14.4531 20.1621 14.0078 21.123 14.2656 22.4121L14.4414 24.3457H16.5508V25.1191L15.2148 25.5059L14.8281 27.2285L15.0039 28.1777L14.6523 29.1621L14.8281 29.9355L14.6523 30.709L14.8281 31.2715L14.4414 31.4473V32.0449L14.8281 32.8184L13.8789 33.2051L12.1914 32.8184L11.2422 32.9941L10.8555 32.8184V32.2207C11.3477 31.3301 11.5352 30.3691 11.418 29.3379L11.0312 28.5645H8.57031C8.19531 29.9941 7.75 31.4121 7.23438 32.8184L6.10938 32.9941L5.54688 32.8184L4.98438 33.2051ZM10.293 25.5059C10.9258 25.248 11.5586 24.9902 12.1914 24.7324L12.3672 23.959L11.8047 22.7988L11.2422 21.8496L11.418 19.7051H9.13281C8.96875 21.3926 8.78125 23.0684 8.57031 24.7324L10.293 25.5059ZM15.9531 18.9668V18.5801L15.6016 18.9668H15.9531ZM10.8555 17.8066V17.209H10.293V17.8066H10.8555ZM5.93359 16.0488L5.54688 15.6621L5.37109 16.2598L5.93359 16.0488ZM13.1406 13.5527L12.543 13.377V13.7637L13.1406 13.5527ZM14.6523 8.56055L14.4414 7.78711L15.3906 7.57617V8.56055H14.6523Z" fill="#483D3F"/>
<path d="M38.1719 40.6055L37.9961 40.2188L38.3828 38.6719H37.7852V37.8984L38.7344 37.3359V36.5625H38.1719L37.9961 35.4023L38.3828 33.6797H37.6094V33.293L37.7852 32.6953H37.0117V33.082H36.625L35.6758 32.6953L35.1133 32.9062L34.9023 33.4688H34.1641L33.5664 32.9062L33.0039 33.082V33.4688H32.6172L31.8438 33.293C30.9531 33.668 30.0039 33.7969 28.9961 33.6797L27.2734 33.293L26.6758 33.4688L25.7266 33.082V32.6953H26.5L28.3984 31.957L28.7852 32.1328C29.6758 31.875 30.4492 31.4883 31.1055 30.9727L32.6172 31.1836L33.0039 29.6367L32.4414 28.3008L32.6172 27.5273H33.3906V27.1406L32.8281 26.9297L32.4414 25.7695L33.1797 25.3828V24.8203L32.2305 24.2578V24.8203L32.0547 23.6602L32.2305 22.7109H33.0039V22.3242L32.2305 21.9375L32.0547 21.1641H32.8281V20.6016H32.4414V18.8438L33.0039 18.668V18.0703L32.2305 17.5078V17.1211L31.2812 16.9102L30.7188 17.1211L30.1211 16.9102L28.3984 17.8945V17.5078L28.6094 16.9102L29.1719 16.7344V15.3984L28.9961 15.0117H28.3984L28.0117 15.7852L27.625 17.5078L27.4492 16.7344H26.6758L26.2891 17.1211V16.5586L27.625 15.7852L28.3984 14.0273H29.5586V14.4141H30.332V15.0117H30.8945C31.9258 14.2383 33.0742 13.9102 34.3398 14.0273L34.9023 14.2383V14.625L34.7266 15.3984H35.1133L35.6758 14.4141L36.2734 14.2383L36.4492 14.8008L37.0117 15.0117V14.4141L39.7188 13.8516L42.7773 14.2383L43.7266 13.8516L46.0117 14.4141V14.0273L45.625 12.8672H46.0117V13.4648H46.3984L46.7852 12.5156L44.8867 12.1289L44.5 12.8672L43.3398 12.1289L42.7773 13.2539L41.8281 12.8672L40.8438 13.2539L40.1055 12.1289L38.7344 11.5312V12.3047L38.3828 11.7422L37.7852 11.5312L37.3984 12.3047L36.0625 11.5312L35.8867 10.582H37.0117V10.1953L35.1133 9.42188L35.5 9.21094L36.0625 9.42188V8.64844L35.5 7.69922H35.8867V7.3125C35.3711 6.39844 35.1719 5.4375 35.2891 4.42969L36.2734 0C42.4609 0.492188 48.707 0.492188 55.0117 0L55.3984 2.28516H54.8359V2.67188L55.2227 3.44531L54.625 3.65625V4.21875L54.8359 5.37891L55.3984 5.55469V8.08594L55.0117 8.64844L55.3984 9.42188L55.2227 9.80859H54.625V9.03516H53.6758L53.5 10.1953H52.9023L52.5508 9.98438L53.2891 9.80859V9.21094L52.5508 9.03516V8.08594L52.9023 6.32812L52.7266 5.55469L53.6758 0.386719H53.2891L52.7266 0.738281L51.9531 0.5625L51.7773 0.949219H51.3906L49.8438 0.175781C49.4688 0.691406 48.9648 0.878906 48.332 0.738281L47.3828 0.386719L44.2891 0.949219L43.9023 0.738281L42.9531 0.175781V0.5625L41.2305 0.949219L38.9453 0.738281C38.1719 1.39453 37.8555 2.16797 37.9961 3.05859L39.332 3.83203V4.21875H39.8945L40.668 4.04297L41.0547 4.60547L42.3906 4.78125L44.5 4.21875L44.8867 4.42969L45.625 4.04297L46.3984 4.21875L46.9961 4.04297V4.42969H47.7344V3.83203H49.668L50.0547 4.60547H50.6172L50.8281 3.44531H51.5664V4.04297L52.1641 4.60547L50.4414 5.37891L50.2305 5.76562H49.8438L49.1055 4.99219L48.5078 5.16797V5.94141H47.9453L46.6094 6.53906L44.5 5.94141V6.32812C43.8906 6.77344 43.2461 6.84375 42.5664 6.53906L42.0039 7.10156L41.4414 6.92578V6.53906H40.668L39.8945 6.15234V5.76562H39.332L37.7852 5.94141V7.3125L38.1719 8.64844L37.7852 10.1953C39.4023 9.65625 40.9961 9.71484 42.5664 10.3711L43.7266 10.1953L44.2891 10.3711L46.9961 9.98438C48.1445 10.125 49.2227 10.3828 50.2305 10.7578V10.1953L51.1797 9.98438L51.3906 10.582L51.5664 10.9688H51.1797L51.0039 12.6914H50.2305L49.1055 12.3047V12.8672L48.7188 12.3047H48.332L47.5586 13.2539L46.7852 13.4648V13.8516L48.1211 14.625L49.8438 15.1875L51.0039 15.0117L52.7266 15.3984V15.7852H53.2891V15.3984L53.1133 16.3477L54.2734 16.7344V16.3477L54.0625 15.7852L55.2227 15.3984L55.7852 15.5742L57.5078 15.1875L58.2812 16.3477H57.5078V17.5078L56.5586 17.8945L56.3828 18.457L56.5586 19.0547H55.7852L55.2227 17.8945L54.625 17.6836V18.668H53.5L52.7266 17.5078H52.1641V18.0703L52.7266 18.8438H52.3398L50.4414 18.668L50.6172 18.0703L49.2812 17.8945L48.5078 17.2969V17.8945H48.1211L45.8359 16.9102L45.625 16.3477L44.5 17.2969H44.1133L43.5508 16.5586L41.6172 15.9609L41.0547 16.9102L41.2305 17.2969H39.8945L39.332 16.5586H38.5586L39.1211 17.8945H39.7188V18.668L39.8945 19.6172L40.668 20.0039H41.6172L42.3906 19.8281V20.3906L43.3398 20.6016V21.9375H42.9531V23.6602H41.4414L41.2305 22.8867H40.668L40.2812 23.6602L41.4414 24.0469V25.207L42.9531 25.5938V26.1562L42.1797 26.3672L42.0039 27.9141L42.9531 28.0898L43.1641 30.1992L42.9531 30.7969L43.1641 31.5703L42.7773 32.5195H43.3398V32.9062L42.9531 33.6797H43.3398V34.4531L42.7773 35.6133L42.3906 35.7891L41.4414 36.1758V36.7383L43.5508 36.9492V38.1094L43.1641 38.8828H42.7773L42.9531 38.1094L41.4414 37.3359V37.8984L41.8281 38.4961H41.2305V39.832H41.8281L43.3398 39.4453L43.5508 40.6055H43.1641V40.043H42.0039L41.8281 40.6055H39.332V40.043H38.5586V40.6055H38.1719ZM40.457 40.2188L39.8945 40.043V40.4297L40.457 40.2188ZM40.8438 38.4961L40.2812 37.7227L39.7188 38.6719L40.8438 38.4961ZM54.625 37.3359V36.9492L54.0625 35.6133C52.9141 35.2148 51.8359 34.7578 50.8281 34.2422V33.6797L51.1797 33.082L50.0547 33.6797L49.668 34.4531L49.2812 35.4023L48.1211 35.6133L47.7344 34.6289L47.3828 34.4531V33.8555L48.1211 33.6797V33.293L47.7344 32.6953H48.1211L48.8945 33.293L49.457 33.082V32.5195L49.2812 32.1328H50.0547V31.7461L49.668 31.1836L49.8438 30.5859L49.668 30.1992L50.6172 29.8125V29.4258L49.2812 29.25C49.5391 28.4766 49.3516 28.0312 48.7188 27.9141L48.5078 28.6523L47.9453 26.7539H47.3828L47.1719 27.7031H46.7852L46.3984 26.3672H46.0117L44.6758 26.7539V25.9805L45.2734 25.7695L45.4492 25.207H44.5V24.8203L44.6758 24.2578L45.625 24.0469L46.2227 24.2578L47.1719 23.6602L46.9961 24.4336C47.7461 24.4102 48.4492 24.2227 49.1055 23.8711L49.8438 24.0469L50.0547 23.0977L51.0039 22.8867V23.6602H51.7773V23.2734H52.3398L53.5 23.6602V23.2734H53.8867L55.2227 23.4844V23.0977H56.1719L56.9453 23.6602L57.1211 24.4336L58.1055 25.3828H58.668L58.8438 26.9297H58.1055L57.332 26.7539V27.3164L57.7188 28.0898H56.7344V29.25L56.5586 30.4102H56.1719L55.6094 30.1992L55.3984 30.9727L55.0117 31.5703H55.6094L56.1719 31.3594C56.9453 32.3906 57.3906 33.5508 57.5078 34.8398L57.332 35.4023L57.8945 35.6133L57.1211 35.7891L56.7344 36.9492L55.7852 36.1758L55.2227 36.3867L55.0117 37.3359H54.625ZM41.8281 35.4023L42.0039 35.0156L42.3906 34.2422L41.4414 33.4688L41.2305 32.9062H40.8438L40.457 33.8555L40.8438 35.0156H40.457L39.5078 34.6289V35.0156L41.2305 35.7891L41.8281 35.4023ZM42.1797 31.7461L41.8281 31.3594V31.7461H42.1797ZM35.8867 31.3594V30.9727H35.5V31.3594H35.8867ZM40.668 30.9727L40.2812 30.5859V30.9727H40.668ZM41.6172 30.5859V29.8125L40.8438 29.6367V30.5859H41.6172ZM38.5586 30.1992L39.5078 30.0234V29.4258L38.5586 29.25C38.4414 27.8438 37.9961 26.625 37.2227 25.5938H36.2734L35.8867 27.1406L36.4492 27.9141L36.2734 28.4766H35.8867V29.0391L36.4492 30.4102L38.5586 30.1992ZM56.1719 29.4258L55.6094 29.25V29.6367L56.1719 29.4258ZM40.668 29.0391V28.4766H40.1055V29.0391H40.668ZM56.3828 28.6523L55.7852 28.4766V28.8633L56.3828 28.6523ZM52.9023 28.3008L53.1133 27.5273L52.5508 27.1406V26.7539L52.9023 26.3672L51.3906 25.7695V25.207H50.8281V25.9805L49.8438 24.9961H49.1055L48.5078 26.543L49.457 26.7539V27.5273H50.0547L50.6172 27.3164V28.4766L52.3398 28.6523L52.9023 28.3008ZM34.7266 27.7031L35.1133 26.9297L34.3398 26.7539L33.5664 28.0898H34.1641L34.7266 27.7031ZM47.1719 25.9805V25.207L46.2227 24.9961L45.625 25.207V25.7695L47.1719 25.9805ZM38.1719 25.7695V25.207L36.8359 24.8203V25.5938L38.1719 25.7695ZM51.5664 24.6094L51.7773 24.0469L50.6172 23.8711V24.4336L51.5664 24.6094ZM39.7188 24.4336L39.8945 23.4844L39.1211 23.0977L38.7344 24.4336H39.7188ZM37.3984 24.2578L38.5586 23.4844V22.8867L38.3828 21.3398L38.7344 20.6016L38.3828 20.2148L39.1211 18.8438L38.5586 18.457V18.0703H38.9453V17.5078H38.1719L37.2227 15.5742H36.625V16.3477H35.8867L35.2891 15.5742H34.5508L34.1641 16.1719L33.3906 15.9609L33.1797 16.7344C33.6953 17.1094 33.9531 17.7539 33.9531 18.668C34.4688 19.4414 35.2422 19.7578 36.2734 19.6172V20.0039L37.3984 19.8281L37.6094 20.3906H37.0117V20.7773L37.7852 20.9531V21.3398L37.2227 21.5508L36.4492 21.1641V21.5508H35.8867V20.9531H35.1133L34.9023 21.9375L35.5 23.2734L35.2891 24.0469L37.3984 24.2578ZM50.6172 23.6602V23.0977H50.0547V23.6602H50.6172ZM40.2812 22.3242L40.457 21.7266H39.7188V22.5L40.2812 22.3242ZM40.668 21.7266L41.0547 20.9531H41.4414V20.2148L39.7188 20.0039V20.7773L40.668 21.7266ZM41.6172 19.2305L40.8438 18.457L42.3906 17.6836V17.2969L42.1797 16.7344H42.7773V17.6836H42.3906L42.1797 19.2305H41.6172ZM35.5 17.6836L34.9023 17.5078V16.9102H35.2891L35.5 17.6836ZM51.0039 17.1211L50.6172 16.7344V17.1211H51.0039ZM49.668 16.9102L48.7188 16.3477V17.1211L49.668 17.2969V16.9102ZM55.9961 16.7344V16.3477H55.6094V16.7344H55.9961ZM44.1133 16.1719L43.5508 15.7852V16.1719H44.1133ZM29.9453 15.9609L29.5586 15.5742V15.9609H29.9453ZM44.2891 15.7852V15.3984L44.1133 14.0273H43.7266L43.3398 15.1875L44.2891 15.7852ZM30.5078 15.5742V15.1875L29.7344 14.8008V15.5742H30.5078ZM39.7188 15.1875L39.332 14.8008L39.1211 15.3984L39.7188 15.1875ZM42.7773 15.0117L42.3906 14.625V15.0117H42.7773ZM50.6172 11.918L49.8438 11.5312L49.668 12.1289L50.6172 11.918ZM43.5508 11.918V11.1445H42.9531V11.918H43.5508ZM37.6094 11.7422V11.3555L36.8359 11.1445L36.625 11.7422H37.6094ZM40.1055 5.16797L39.5078 4.42969V4.99219L40.1055 5.16797Z" fill="#483D3F"/>
<path d="M96.4258 39.0762L95.8281 38.8652V37.916L96.0391 36.5449L95.6523 35.209L96.0391 34.0488L95.8281 32.502C96.0859 30.8145 96.2734 29.1738 96.3906 27.5801C96.5312 25.9629 96.7305 24.3105 96.9883 22.623L96.7773 21.6387L97.375 21.4629V20.8652H96.6016V20.4785L96.7773 19.7051C96.543 19.1895 96.0977 19.002 95.4414 19.1426L94.7031 17.5957L95.6523 17.3848V16.998L94.1406 16.6113L93.7539 17.3848L92.5938 18.1582L92.418 18.9316H93.1562V19.3184L91.4688 19.7051V20.3027L91.6445 20.6895H92.0312V20.0918H92.418L92.5938 20.8652H92.0312L91.8555 21.8496L92.207 22.2363L91.082 23.0098V23.3965L91.4688 24.1699L91.2578 25.3301H91.6445V25.7168L92.207 26.3145L91.8555 26.877L92.0312 27.4746L91.082 27.2637L90.8711 28.0371H91.2578L92.207 29.0215V29.7949L91.6445 29.9707L90.6953 29.7949L89.5703 30.1816V30.5684L88.9727 31.7285H88.5859V32.1152V31.5176V30.3574H88.0234V28.8105H88.4102L88.5859 30.1816H89.3594V29.7949L89.1836 29.1973L89.3594 28.6348L88.2344 28.0371V27.2637L89.1836 26.7012V25.9277H88.7969L88.4102 26.1035V25.7168L89.1836 25.3301L89.3594 24.7676H88.2344L88.9727 23.959V23.3965L88.0234 21.8496H88.4102L88.5859 21.252L89.7461 20.8652V20.3027L89.3594 18.9316H88.5859V17.9824L89.5703 16.6113L88.7969 14.8887L89.3594 14.6777L90.8711 15.2754L91.082 15.8379H91.8555L92.0312 14.8887L91.4688 14.502L90.6953 13.9043V13.5176H89.9219V13.9043H89.3594V13.5176H90.1328L90.3086 12.3574L90.1328 11.4082L90.6953 10.6348H91.082L92.418 11.1973V10.4238H91.6445V9.65039L91.082 9.47461L90.6953 8.31445L91.2578 8.10352V7.54102H91.8555L92.9805 7.92773L93.543 7.7168L95.4414 8.31445L96.0391 8.10352L96.9883 8.49023L97.5508 8.31445V9.08789H97.9375L98.3242 8.31445H99.2734L100.609 8.87695L100.398 9.65039H100.996V10.0371L101.559 9.26367L101.348 8.70117L102.508 8.49023V8.87695L102.121 9.65039H102.508L102.121 11.0215H102.684L103.281 10.0371L103.457 11.1973H102.684L102.508 13.5176H101.348L101.172 12.9551H100.785L99.8359 13.1309L99.6602 12.5684H99.0625L98.5 12.7441L96.7773 12.1816V13.3418C96.1445 12.9434 95.4531 12.8145 94.7031 12.9551L94.3164 12.1816L93.543 11.9707V11.584L93.7539 11.0215L93.543 10.4238H92.9805C92.6992 11.2207 92.7578 11.9941 93.1562 12.7441L91.6445 12.9551L91.082 12.7441V13.1309C91.457 13.7871 91.9609 14.0449 92.5938 13.9043V14.6777L92.418 15.4512L93.7539 15.6621V15.2754L94.1406 15.6621L94.7031 15.0645H95.0898L95.2656 16.0488H95.6523L96.4258 15.0645H96.9883V15.4512H96.4258V15.8379L96.7773 17.209H97.1641L97.7266 15.8379H98.3242V15.2754L100.223 15.0645L100.398 15.8379H100.996L101.172 15.0645L102.121 15.4512L102.508 15.2754L102.895 15.8379L103.457 16.4355L103.07 17.5957L103.457 18.5449L102.332 18.7559V19.3184L102.684 20.0918L101.348 19.3184V18.5449L100.785 18.3691C100.926 17.7129 100.738 17.3262 100.223 17.209L100.047 18.3691L100.223 18.7559H99.8359V19.1426L100.047 20.3027L99.6602 20.8652L100.047 21.0762L99.4492 21.6387V20.8652H98.7109L98.5 22.7988H99.4492L100.047 22.623V23.1855H99.0625V23.5723L99.8359 25.3301L99.2734 24.5566L98.7109 24.3809L98.1133 22.0254L97.5508 21.8496L97.1641 22.623C97.5391 23.1387 97.7969 23.7832 97.9375 24.5566L98.8867 25.1543V25.541H98.5V25.9277L99.2734 27.6504L98.5 27.8613V28.4238L99.4492 30.9551L99.0625 31.7285L99.6602 31.9043L99.8359 33.2754L99.4492 34.0488H99.0625V34.6113C99.4609 35.2676 99.5898 35.9824 99.4492 36.7559L99.0625 38.0918C98.0547 38.0918 97.1758 38.4199 96.4258 39.0762ZM77.7578 37.7051L77.5469 36.9316H77.1602L76.9844 35.5957L77.3711 34.6113H76.8086V33.8379L77.1602 32.8887H76.5977V32.291L77.3711 32.1152V31.3418L78.3203 30.7441L78.4961 30.1816H78.1094L77.1602 30.3574L76.8086 29.4082L77.3711 28.4238L76.2109 28.248V27.8613L76.8086 26.877L76.4219 26.7012V25.9277H76.8086V25.541L76.0352 25.3301L75.6484 26.3145H74.3125L73.1875 26.1035L72.5898 27.2637L72.9766 28.0371L72.8008 28.8105L73.9258 29.0215L74.3125 28.248V29.584L72.5898 29.9707L72.0273 30.9551L70.9023 31.1309L69.918 29.584H69.1797C68.9219 29.209 68.4766 29.0215 67.8438 29.0215V28.248L68.2305 27.2637C68.9805 26.748 69.8711 26.4316 70.9023 26.3145V25.9277H71.6406L72.2031 25.3301L73.3633 25.9277V25.1543H73.75V24.3809H74.3125L74.875 24.5566L75.4727 23.1855L76.8086 23.3965L76.9844 22.7988L76.4219 21.8496L75.6484 21.6387V20.8652H75.2617L74.3125 21.4629L73.3633 21.252L72.5898 21.6387L71.2539 21.252L70.6914 21.4629V21.8496H70.1289L69.3555 21.4629L68.9688 20.3027L68.4062 20.0918L68.2305 21.252H67.8438V20.8652L68.0195 19.916H68.4062V19.1426H69.1797V18.7559H69.5664L70.1289 19.1426L70.3047 18.3691H70.9023L71.4648 18.5449L71.6406 17.9824H72.0273L71.8516 18.3691L72.8008 18.9316L73.5391 17.9824L74.6992 18.1582L75.0859 17.9824L75.2617 18.7559H75.6484L76.9844 18.1582L77.5469 16.0488L76.8086 14.502L76.2109 14.291L76.0352 13.5176H75.6484L74.6992 14.6777H75.8242L74.875 15.0645L73.75 14.8887L72.8008 15.0645L72.2031 14.8887L71.4648 14.291L70.9023 14.502L70.1289 14.291V13.9043H71.8516V13.1309L71.2539 12.9551L70.6914 13.1309V12.7441H70.3047L69.918 13.3418H69.3555L68.9688 12.7441H68.4062L69.1797 12.3574L69.7422 11.7949L70.5156 11.9707L72.2031 11.4082L72.5898 10.248L73.3633 9.65039L72.4141 9.47461L72.0273 9.65039L72.5898 9.47461V9.08789H73.1875L75.0859 10.4238V9.86133L75.2617 11.1973L75.8242 11.4082L76.4219 11.7949L78.8828 11.584L79.0938 12.3574H79.832L80.043 11.1973L80.6055 11.0215V10.248H80.2188V9.47461L80.3945 8.87695L79.6562 7.33008L78.4961 6.94336V7.7168H77.1602L76.5977 7.54102V7.1543L75.2617 6.94336V8.10352H73.75L73.1875 6.94336L72.2031 6.76758V7.54102L70.6914 7.33008L69.918 7.7168L69.7422 6.94336L69.1797 6.76758L68.9688 7.1543H68.4062V6.76758L69.1797 6.38086L69.5664 5.7832L70.3047 6.16992L70.9023 6.76758L71.4648 5.39648L70.1289 5.00977L71.2539 4.79883L72.2031 5.57227L74.3125 4.62305L75.4727 5.00977V4.62305L75.2617 4.02539L75.6484 3.25195L76.8086 2.47852L76.9844 2.0918H77.3711V2.47852H78.1094L78.3203 1.5293H80.6055V2.30273L80.3945 3.46289L80.7812 4.79883L81.3789 5.18555H81.9414V4.23633L83.2773 4.62305V4.23633H84.2266L84.4023 6.55664H84.7891L84.9648 7.92773H84.0156L83.2773 8.87695L82.3281 9.08789L82.1172 9.65039L82.8906 10.0371L82.3281 10.248V10.6348L83.4531 11.0215V11.7949H84.6133L85.7383 11.4082L86.3008 12.5684L86.125 13.1309L86.3008 14.1152L85.3516 14.291L84.7891 14.1152L83.8398 14.291V14.6777L82.8906 14.291L82.5039 14.8887L81.5547 14.291L80.7812 14.6777L80.043 15.4512L78.1094 14.502L77.7578 16.0488H78.4961V16.6113H78.8828V16.998L78.707 17.5957L78.8828 18.1582H79.4453L79.832 17.3848L79.6562 16.998L80.7812 18.5449H81.7305V18.1582H82.6797V17.5957H83.0664C83.0664 18.4863 83.3242 19.0605 83.8398 19.3184V18.3691H84.4023V18.7559L85.3516 19.1426L86.8984 19.5293L87.2852 20.4785H86.6875V20.8652L87.2852 21.252V21.8496L86.6875 22.0254L86.5117 22.4121L85.3516 23.0098L84.4023 22.623L84.0156 21.4629L84.7891 19.5293H84.4023C83.9102 20.1621 83.6641 20.8652 83.6641 21.6387H82.8906L82.3281 21.252V22.0254L81.3789 22.4121L81.168 21.6387H80.7812L80.043 23.1855L81.9414 25.9277L81.7305 26.3145L83.8398 26.4902L84.4023 27.4746L84.7891 27.6504L84.9648 28.4238L85.7383 28.6348L86.125 29.9707L85.3516 29.7949V30.9551H84.9648V30.1816L84.2266 30.9551H83.6641L83.4531 30.3574L82.6797 30.1816L82.5039 29.1973L81.9414 29.0215L80.9922 29.1973V29.584L80.3945 28.8105L80.6055 28.0371L79.832 27.8613L79.0938 28.8105L77.9336 29.1973V29.584L79.0938 29.9707V30.3574L78.707 31.1309L79.6562 32.1152V33.0645L79.2695 34.8223L80.043 35.7715H79.2695L78.707 35.5957V35.9824L78.8828 36.5449H78.4961V36.9316L78.707 37.5293L77.7578 37.7051ZM78.4961 36.7559V36.1582H77.9336V36.7559H78.4961ZM98.7109 35.9824V35.5957H98.3242V35.9824H98.7109ZM98.1133 35.209L97.5508 34.998V35.3848L98.1133 35.209ZM98.7109 34.0488L98.3242 33.6621V34.0488H98.7109ZM96.4258 33.8379L96.0391 33.4512V33.8379H96.4258ZM77.9336 33.8379V33.2754H77.1602V33.8379H77.9336ZM78.8828 33.2754L78.3203 32.6777V33.0645L78.8828 33.2754ZM99.0625 32.1152L98.5 31.5176V31.9043L99.0625 32.1152ZM90.3086 31.7285L90.1328 30.9551L91.4688 30.5684V30.9551L90.3086 31.7285ZM98.5 31.1309V30.5684H97.9375V30.9551L98.5 31.1309ZM72.0273 30.3574V29.7949H71.4648V30.3574H72.0273ZM84.4023 30.1816V29.7949L85.3516 28.6348L84.7891 28.4238L84.6133 28.8105L83.8398 29.1973L83.6641 29.9707L84.4023 30.1816ZM90.8711 28.6348V27.6504H90.3086V28.4238L90.8711 28.6348ZM79.0938 28.0371L79.4453 27.0879H78.3203V27.6504L78.4961 28.248L79.0938 28.0371ZM77.3711 27.4746V27.0879H76.9844V27.4746H77.3711ZM90.6953 27.4746L91.082 26.3145L91.6445 25.7168H91.082L90.3086 26.3145L90.1328 27.6504L90.6953 27.4746ZM72.4141 27.2637L72.0273 26.4902L70.6914 26.3145V26.7012L72.4141 27.2637ZM76.8086 24.9434L76.2109 23.7832H75.6484V24.1699L76.0352 24.9434H76.8086ZM90.1328 24.5566V23.7832H89.5703V24.5566H90.1328ZM89.7461 22.623L90.1328 21.8496H89.7461L89.3594 22.623H89.7461ZM86.125 22.4121V21.4629H85.7383L85.5625 22.4121H86.125ZM79.6562 21.4629V20.8652H79.0938V21.4629H79.6562ZM82.5039 20.8652V20.0918H81.9414V20.8652L82.3281 21.252L82.5039 20.8652ZM98.5 19.5293L98.7109 18.9316L97.7266 18.5449L97.5508 19.5293H98.5ZM80.043 19.5293V18.7559L79.4453 18.5449L79.2695 19.5293H80.043ZM99.4492 19.1426V18.5449H98.8867V19.1426H99.4492ZM90.8711 18.7559L91.8555 17.9824H91.2578L90.6953 18.1582L90.1328 17.3848H89.1836V17.9824L89.3594 18.5449L90.8711 18.7559ZM96.4258 18.3691L96.6016 17.209H96.0391V18.3691H96.4258ZM91.2578 17.3848L91.4688 16.2246L89.9219 16.0488V16.6113L91.2578 17.3848ZM92.207 17.3848L92.418 16.8223H92.0312L91.8555 17.3848H92.207ZM78.4961 17.3848V16.6113H78.1094L77.9336 17.209L78.4961 17.3848ZM98.5 16.6113V16.0488H98.1133V16.6113H98.5ZM77.9336 14.8887V14.291L76.9844 13.5176V13.9043L77.3711 14.8887H77.9336ZM77.7578 13.1309V12.3574H76.9844V12.7441L77.7578 13.1309ZM85.3516 13.1309V12.5684L85.7383 11.7949H85.1758L84.2266 12.5684L84.6133 12.7441V13.1309H85.3516ZM92.5938 12.9551V12.1816C92.1016 12.041 91.5977 11.8418 91.082 11.584V11.9707L91.2578 12.3574H91.6445V12.7441L92.5938 12.9551ZM81.7305 12.3574L82.1172 11.584H81.3789L80.9922 11.7949L81.7305 12.3574ZM95.4414 12.3574C95.957 11.8418 96.2148 11.1387 96.2148 10.248L95.4414 10.0371C95.3242 10.8105 95.0781 11.5254 94.7031 12.1816L95.4414 12.3574ZM101.348 12.3574L101.559 11.7949H100.996V12.3574H101.348ZM99.4492 12.1816L99.0625 11.7949V12.1816H99.4492ZM98.5 11.7949L99.2734 11.1973V10.0371L98.7109 9.86133L98.3242 11.4082L97.7266 11.9707L98.5 11.7949ZM73.3633 11.584L73.5391 11.0215L72.8008 10.8105V11.4082L73.3633 11.584ZM74.4883 11.584L74.6992 10.8105L74.1367 10.0371H73.5391V10.4238L74.4883 11.584ZM90.8711 11.584L90.3086 11.4082V11.9707H90.8711V11.584ZM100.223 11.4082L99.6602 11.1973V11.584L100.223 11.4082ZM94.4922 11.0215L93.9297 10.8105V11.1973L94.4922 11.0215ZM92.8047 10.4238V9.86133H92.418V10.4238H92.8047ZM92.0312 8.87695L91.6445 8.49023V8.87695H92.0312ZM83.4531 8.10352L83.0664 7.7168V8.10352H83.4531ZM84.6133 7.7168L84.7891 7.1543H84.2266V7.7168H84.6133ZM80.6055 6.76758L79.832 6.38086V6.94336L80.6055 6.76758ZM78.707 6.55664L77.9336 5.7832V6.16992L78.707 6.55664ZM85.1758 6.55664V6.16992L84.9648 5.7832L85.7383 5.00977V5.7832L85.5625 6.55664H85.1758ZM83.8398 6.16992V5.7832H83.4531V6.16992H83.8398ZM82.8906 5.39648V5.00977L82.1172 4.62305V5.00977L82.8906 5.39648ZM80.043 4.23633L80.3945 3.46289H79.4453V4.41211L80.043 4.23633ZM78.1094 3.25195V2.47852L76.9844 2.30273V2.68945L78.1094 3.25195Z" fill="#483D3F"/>
<path d="M139.984 33.082L139.035 32.8711L137.875 31.5352H137.312L136.539 32.4844L135.941 31.1484L135.379 30.9375L134.43 32.3086H133.445L132.883 32.0977L131.723 32.3086L131.16 32.0977C130.504 32.4961 129.789 32.625 129.016 32.4844L127.68 32.3086V31.9219L128.242 31.7109L128.453 31.1484H128.066L127.469 31.3242V30.9375L127.68 30.1641L127.469 29.3906H128.066L129.227 29.6016V29.0039H128.629V28.6172H127.68V28.2305L127.855 27.668L128.84 28.0547L129.016 28.8281H129.613V27.8438L128.84 27.457V27.0703H129.227L130.773 27.457V27.0703L129.227 26.5078L128.242 25.3477L129.016 25.1367V24.75L128.84 24.3633L129.016 24.75H129.402L129.613 22.8164L128.84 22.6406V22.2539L130.562 21.8672L130 23.4141H130.387L130.949 22.2539C132.355 21.8555 133.773 21.5273 135.203 21.2695V20.8828L134.043 20.4961L133.656 19.5117H133.27V18.9492L133.445 18.3516L133.059 17.4023L132.496 17.1914L131.898 17.4023L129.402 16.2422L128.84 15.2578L131.16 14.6953V15.082H131.723L133.059 13.7109H133.656L134.043 14.6953H134.605V13.9219L134.43 12.7617H133.832L134.043 11.9883L133.27 11.3906V11.0039C131.605 11.0039 130.059 10.6875 128.629 10.0547V9.66797C130.551 9.15234 132.484 8.69531 134.43 8.29688L137.102 9.07031V8.68359H137.488L138.086 8.89453L138.859 8.68359L139.809 9.28125L140.758 9.07031L141.742 9.28125L143.289 8.89453L144.238 10.2305L144.414 9.84375L144.625 10.2305L143.852 11.2148H143.078L141.742 10.6172L140.195 11.0039L139.246 10.6172L136.926 11.3906V10.8281H136.328L135.379 11.2148V11.6016L136.926 12.9375L137.312 12.7617C137.172 13.6523 137.359 14.4258 137.875 15.082H138.473L139.035 14.8711L139.598 15.082L140.758 14.8711L141.742 15.6445V16.8047L140.582 17.0156L139.598 17.5781L139.035 20.1094L137.699 20.2852V20.6719H137.312V21.2695L136.539 21.4453V20.8828H136.152L135.379 21.6562H134.043L133.445 22.043L134.219 22.6406L135.379 22.4297L136.152 22.6406L136.539 22.8164L137.102 22.6406V23.4141H137.488L139.246 22.6406L142.129 23.4141L142.305 23.9766L141.742 24.5742V24.9609L142.516 26.2969L141.742 26.1211V26.5078L142.516 27.0703C142.258 28.1016 142.516 28.8164 143.289 29.2148L143.641 30.375L143.078 31.5352H142.516L142.305 32.0977L139.984 33.082ZM113.441 32.4844L112.457 31.9219C114.777 30.375 117.285 29.2148 119.98 28.4414L120.156 29.3906L115.164 31.3242L114.777 31.1484L114.215 32.0977L113.441 32.4844ZM134.43 31.7109L133.832 31.5352V32.0977H134.43V31.7109ZM129.227 31.1484V30.375H128.242V31.1484H129.227ZM134.605 31.1484V30.375H134.219L133.832 31.1484H134.605ZM134.605 29.6016L135.203 29.3906L136.926 29.7773L139.035 28.6172L139.422 25.3477L138.262 24.9609L135.941 24.5742V25.1367H135.379L134.43 24.9609L133.059 25.7344L132.883 25.3477H132.496L132.109 26.1211L132.285 26.8945H132.672L133.059 26.2969H134.219L133.059 27.2812L132.672 28.2305H133.27V28.8281L132.285 28.6172V29.6016H133.27L134.043 29.3906V29.0039L134.605 29.6016ZM130.562 29.0039L132.285 28.2305L132.496 27.2812H132.109L131.512 28.0547L131.16 28.4414L129.613 28.6172V29.0039H130.562ZM131.336 28.0547V27.2812L131.512 26.6836L130.773 28.0547H131.336ZM142.305 27.8438V27.2812H141.742V27.8438H142.305ZM130.773 26.5078H131.723V25.9102L130.562 24.9609L130 26.5078H130.773ZM129.789 25.7344V25.3477H129.402V25.7344H129.789ZM132.109 25.1367V24.75L132.672 23.0273H132.285V23.4141H131.898L131.512 25.1367H132.109ZM128.453 23.5898L128.629 23.2031L128.84 23.5898H128.453ZM137.699 20.1094V19.5117H137.312V20.1094H137.699ZM115.375 19.7227L112.457 18.3516V17.9648L115.938 16.418L116.711 16.2422L118.82 16.6289V17.0156L119.77 17.1914V18.5625L118.434 18.9492L116.711 19.7227L115.727 19.3359L115.375 19.7227ZM118.434 17.5781L118.645 17.0156L118.047 16.8047L117.871 17.7891L118.434 17.5781ZM130.773 16.6289V16.0312H130.176V16.6289H130.773ZM132.883 15.6445L133.27 14.3086L132.672 14.0977L132.285 15.8555L132.883 15.6445ZM135.555 14.6953V14.0977L135.203 14.6953H135.555ZM137.102 13.9219V13.3242L135.941 13.1484V13.9219H137.102ZM119.418 12.5508L118.645 12.375L118.434 11.7773C117.66 11.918 117.016 11.7891 116.5 11.3906L116.324 10.8281L115.375 10.6172V10.2305H114.988L114.391 10.4414L113.828 9.45703C114.602 8.68359 115.562 8.03906 116.711 7.52344H118.047L118.258 8.12109L120.543 8.68359L121.316 9.66797L122.09 9.07031V9.45703L121.527 11.0039H122.301V11.3906L120.754 11.7773L120.367 12.5508H119.418ZM135.555 11.0039L134.605 10.2305L134.43 11.0039H135.555Z" fill="#483D3F"/>
<path d="M156.297 38.2819L154.961 37.8951L154.75 37.2975H155.523L156.297 37.5084V37.1217H157.246L157.422 36.1373H157.035L155.348 36.524L154.398 36.3483V35.7506H154.012L155.523 35.1881V34.6256L157.246 34.4147L158.371 34.8014L158.582 34.2389L161.992 33.6412L163.152 33.8522L164.102 33.4655L164.277 30.5826L163.539 30.1959V29.4225H163.152L162.766 30.5826H161.254L160.48 30.1959L159.145 30.3717L158.371 30.1959L156.859 30.5826L155.91 29.985V29.5983L153.801 29.0358L153.625 28.4381L154.398 28.649L154.75 28.4381L155.699 29.0358V27.8756H157.633L158.371 28.2623V27.8756H159.145V28.2623H159.531L160.867 27.4889V27.8756H161.43L162.203 27.6647L162.941 27.8756L164.102 26.5397L163.715 25.3795L162.941 25.1686V24.6061H162.555L161.816 25.1686V25.942H161.043L160.27 25.3795V24.9928H159.145L158.969 25.7662H158.195L157.633 25.5553L156.859 25.7662V25.3795L157.422 24.2194L156.086 24.0084L155.523 22.8834L156.684 22.2858V21.899L155.91 21.5123V21.899L155.699 19.7897L155.91 18.8405L155.523 18.067H155.91V15.7467L156.086 15.36L155.91 13.2506L157.246 12.653V12.0905L157.984 11.8795L158.195 12.4772L158.969 12.653L160.48 12.4772L161.043 12.653L163.539 12.4772L163.891 10.5436L163.328 10.1569L162.766 9.20764L161.605 8.82092L161.43 9.38342L160.656 9.59436L159.32 9.20764L158.195 9.59436L157.633 9.38342L157.035 9.77014V8.9967H156.473L156.297 9.59436L155.137 9.77014L154.961 8.82092H154.398V9.38342H154.012V8.82092H153.625V7.83655L153.801 7.44983L154.961 7.27405L155.523 7.44983L156.473 7.27405L157.633 7.44983L159.918 6.71155V7.27405H160.48V6.71155H161.043L162.203 6.88733L163.891 5.72717L164.102 5.16467L162.941 4.95374V4.39124L163.539 3.40686C164.805 3.66467 165.883 3.9928 166.773 4.39124V4.00452H167.336L166.562 4.39124L166.387 5.16467L166.773 5.93811L167.898 6.11389L168.848 5.72717V6.32483H169.445L169.621 5.55139H170.008V6.32483H170.57L170.746 5.72717H171.133L171.906 5.34045V6.32483H172.293L171.73 7.83655L170.957 8.22327L170.746 7.44983L170.008 8.22327H169.445H168.672L167.723 9.38342L167.898 9.98108L167.723 11.7037L166.387 11.8795V12.4772H166.773L170.184 12.0905L171.906 13.2506V14.7975H172.293L172.469 16.3092H171.73V16.9069L172.855 17.0826V17.6803L172.293 18.067V18.6295L173.031 19.0162V18.067L174.578 18.8405L175.141 19.7897L176.301 19.9655V18.8405L177.637 18.4537V18.8405C178.645 18.442 179.594 18.1842 180.484 18.067L180.66 16.9069L180.273 15.9225L179.324 15.5358V15.149C180.051 15.0787 180.684 15.278 181.223 15.7467L181.82 14.9733L182.207 15.5358H181.223L181.047 16.6959L181.609 16.9069L182.207 16.3092C182.324 17.3405 182.641 18.1842 183.156 18.8405L183.508 18.6295V19.192H184.492L184.668 19.7897L185.617 19.9655L185.793 19.192L185.441 18.4537L186.566 18.8405L187.902 18.4537V19.7897L187.516 21.1256L187.902 22.4967H187.516V23.0592H188.113C188.559 25.028 188.559 27.0201 188.113 29.0358L188.676 30.7584L188.113 32.692L188.465 34.028H187.727L187.516 34.6256L187.727 35.3639L186.391 35.7506L185.793 35.9615L185.617 34.8014L185.793 34.2389L185.441 32.8678L186.18 29.0358L185.793 27.1022L186.004 26.3287L185.23 22.8834V22.2858H184.492L183.156 22.8834V23.4459H182.207V24.0084L182.383 25.942L181.047 26.3287L180.871 27.4889H181.434L181.609 26.7155H182.559V27.278L182.207 28.8248L181.434 29.0358L181.223 29.985H180.66V30.7584H180.273L179.711 30.5826L179.324 31.3209H180.098V31.7076C180.73 31.5905 181.047 31.7897 181.047 32.3053L180.273 32.692L179.922 33.2545C179.406 33.653 178.832 33.7819 178.199 33.6412L176.477 33.0787L176.301 31.7076L176.863 31.5319V30.3717H177.426C177.426 29.4811 177.555 28.7076 177.812 28.0514L178.199 28.2623L178.375 27.278L178.762 27.1022V26.153L178.199 24.9928L178.375 24.2194H177.988V23.8326L178.375 22.4967L176.863 22.2858V21.899H176.09L175.527 21.3365L175.352 21.899H173.805L173.031 21.5123C172.164 21.9108 171.344 22.3678 170.57 22.8834V23.4459L171.344 23.8326L171.52 24.3951H171.133L170.746 24.2194L169.445 24.9928V25.3795H168.285V25.7662H167.723L167.512 26.5397L167.16 26.8912L167.336 27.6647H168.109L168.672 27.4889L169.621 27.8756L170.008 29.0358L170.746 29.4225V30.7584H170.008L169.621 30.1959H169.059V30.9342H168.672L167.898 30.5826L167.723 31.7076L167.336 31.9186V32.3053C167.852 32.6803 168.039 33.2545 167.898 34.028H168.461L168.672 35.3639C167.523 35.3639 166.762 35.7506 166.387 36.524H166.949L167.723 36.1373L167.898 36.735C166.375 36.9928 164.922 37.3092 163.539 37.6842L161.992 37.1217L161.605 37.5084L160.094 36.9108V37.8951L158.371 38.0709L157.809 37.8951C157.434 38.2701 156.93 38.399 156.297 38.2819ZM160.867 36.3483V35.9615L159.707 35.5748V36.524H160.27L160.867 36.3483ZM163.891 35.5748V34.9772L163.328 35.5748H163.891ZM161.605 35.3639V34.8014H161.992V34.2389H161.605L161.043 35.3639H161.605ZM163.328 34.4147V34.028H162.941V34.4147H163.328ZM167.336 33.8522L166.949 33.4655L166.773 34.028L167.336 33.8522ZM166.949 31.9186V31.3209H166.387V31.9186H166.949ZM171.52 29.985L171.344 29.4225L171.52 28.8248H170.746V28.4381L171.52 28.2623V29.985ZM159.145 29.8092V29.4225L158.582 29.2115V29.8092H159.145ZM157.809 29.4225V29.0358H157.422V29.4225H157.809ZM160.656 29.2115L161.043 27.8756H160.656L160.094 29.4225L160.656 29.2115ZM156.859 29.0358V28.649H156.473V29.0358H156.859ZM180.273 25.1686L179.922 24.9928V25.3795L180.273 25.1686ZM167.723 23.235L168.285 23.0592V23.4459H168.848L170.008 23.0592V22.4967L169.621 19.403H168.848V19.0162H168.285L168.109 19.5787L167.512 19.9655L167.336 21.5123L166.387 21.899L166.176 22.4967H166.562L167.16 22.2858L167.336 22.6725L166.387 23.8326H166.773L167.723 23.235ZM163.539 22.6725C163.539 21.2662 163.41 19.9889 163.152 18.8405H162.555L162.203 19.192L159.918 18.8405L159.531 20.7389H158.969V21.3365H159.707V21.899L159.531 22.6725L161.254 22.8834L162.203 22.6725H163.539ZM164.488 22.8834V22.4967L164.277 21.7233H163.715V22.2858L163.891 22.8834H164.488ZM165.824 22.11V21.7233H165.438V22.11H165.824ZM157.809 21.899V21.3365H157.422L157.246 22.11L157.809 21.899ZM177.988 21.7233L177.812 20.9498H177.25V21.3365L177.988 21.7233ZM175.352 21.1256L175.527 20.3522H175.141L174.965 21.1256H175.352ZM164.277 21.1256V20.5631H163.715V21.1256H164.277ZM178.199 21.1256V20.7389L177.637 19.7897H176.863V20.5631L178.199 21.1256ZM156.473 20.3522V19.9655H156.086V20.3522H156.473ZM174.578 20.1764V19.403H174.191L174.016 19.9655L174.578 20.1764ZM183.895 19.9655L183.332 19.7897V20.1764L183.895 19.9655ZM178.586 19.9655V19.403H177.988V19.9655H178.586ZM180.098 19.5787L180.66 18.6295H179.922L179.535 19.5787H180.098ZM175.352 19.0162L174.965 18.2428H175.527L175.703 18.8405L175.352 19.0162ZM161.992 18.067V17.4694H161.605V18.067H161.992ZM179.711 17.6803L179.324 17.4694V16.3092H179.711L180.098 17.2936L179.711 17.6803ZM169.059 17.6803V17.2936C169.434 16.6373 169.562 15.9225 169.445 15.149L168.285 14.024H167.723V14.9733H167.336L166.773 14.7975L166.562 15.36L166.949 15.5358C166.832 16.3092 167.02 16.8248 167.512 17.0826H168.285V17.6803H169.059ZM158.758 17.2936L158.195 16.9069V17.4694L158.758 17.2936ZM161.605 17.4694V16.9069L163.328 16.5201L163.539 15.5358L163.152 14.7975L160.27 14.5865L159.145 15.149V15.5358L159.531 17.0826L161.605 17.4694ZM164.664 16.6959L164.277 16.3092L164.102 16.9069L164.664 16.6959ZM171.73 14.7975V14.4108H171.344V14.7975H171.73ZM179.922 14.5865L180.871 13.4264V12.8639L180.66 11.8795H180.273V11.317L180.66 10.3678L181.434 12.2662L182.383 12.653V13.2506H181.82C181.562 13.8834 181.117 14.3287 180.484 14.5865H179.922ZM165.613 12.2662L166 11.1061L165.051 10.9303L164.875 11.7037H164.277V12.0905L165.051 12.4772L165.613 12.2662ZM156.297 8.4342V7.66077H155.91L155.699 8.22327L156.297 8.4342ZM166.949 6.71155V5.93811H166.562L166.387 6.50061L166.949 6.71155ZM164.875 5.93811L164.488 5.55139V5.93811H164.875ZM166 5.72717V5.16467H165.438V5.72717H166ZM158.582 4.39124L157.633 3.79358L157.422 2.45764L160.094 2.28186L159.145 2.66858V3.23108L159.531 4.00452L158.582 4.39124ZM166.949 3.23108C165.051 2.71545 163.023 2.45764 160.867 2.45764C163.773 2.36389 166.691 2.3053 169.621 2.28186L168.285 3.02014L167.336 2.66858L166.949 3.23108Z" fill="#483D3F"/>
<path d="M205.832 39.5684V38.9707L204.883 38.7949L204.496 38.584L203.582 38.9707L202.984 38.7949L203.758 38.1973L203.934 37.6348H204.32V37.0371L206.043 35.7012L207.168 35.4902V34.541H207.555L209.066 33.7676V33.3809H209.453V32.6074L210.578 32.7832L212.09 31.623L212.266 31.0605C211.398 30.5449 210.52 30.0879 209.629 29.6895L209.242 30.2871V29.5137L210.402 29.127L210.754 26.8066L210.016 26.9824L209.629 26.0332L210.191 23.8887L210.016 23.3262L210.965 22.9395L212.09 23.1152L212.652 22.166H212.266L211.527 22.3418L211.316 21.3574L210.402 20.9707L210.191 19.248L210.754 17.7012L210.402 17.4902L211.141 17.7012L212.266 17.3145V16.9277L212.09 16.1543L212.863 15.5566L213.039 14.0098H213.426L214.164 14.2207L214.375 13.623L214.164 12.8496H214.762V12.2871L214.375 10.7402H214.762L214.938 11.3027L215.676 11.5137V11.127L214.938 9.36914L215.324 8.5957L216.062 7.04883L215.113 6.87305V5.88867H215.5L215.676 4.72852L215.113 4.55273L214.551 5.88867L213.988 5.71289V5.32617H213.426C212.652 5.8418 212.336 6.48633 212.477 7.25977H212.09L211.703 9.36914L210.578 9.75586L209.453 8.5957L209.242 7.04883L209.453 6.48633L209.242 5.88867L210.402 5.32617L210.578 4.55273L210.402 3.95508L210.965 2.19727H212.266L212.652 2.9707C213.285 3.50977 213.988 3.7793 214.762 3.7793L218.734 2.79492L219.297 2.9707L219.859 2.58398L223.094 1.63477L223.656 2.02148C224.289 1.36523 225.109 1.03711 226.117 1.03711L226.68 2.02148L227.629 2.4082V2.9707L228.754 3.18164V3.56836L228.578 4.16602H228.965L228.402 4.55273V5.11523H229.316L228.191 5.50195V5.88867L228.402 6.27539L227.805 6.48633L227.453 7.25977H226.855L226.504 8.20898C224.723 8.60742 223.27 9.63867 222.145 11.3027L221.934 12.0762L223.094 12.2871L224.395 13.623H224.781L224.992 14.3965L224.781 14.9941L224.992 15.3809L225.906 14.9941V15.5566L226.855 16.1543L227.066 16.9277H225.906V17.3145L225.168 16.9277L224.992 17.3145L224.605 16.3301H224.219L223.832 17.7012H223.445L223.094 16.9277L223.27 16.3301H222.883L222.145 16.7168V17.3145L222.32 17.7012C221.57 17.4434 221.125 17.6309 220.984 18.2637L222.145 19.0371L222.883 18.6504L222.496 18.8613L222.145 20.584C222.777 21.0996 222.965 21.8848 222.707 22.9395L223.445 23.502V24.0996L223.27 24.4863L222.496 24.873V24.0996H221.582C221.559 25.1074 221.934 25.9395 222.707 26.5957L222.32 27.5801L222.496 28.3535L221.934 28.5293L221.758 29.3027H220.246L219.473 30.4629L216.273 30.8496L216.062 29.9004L215.324 29.6895L215.113 30.6738L215.324 31.0605L214.375 31.2363L214.164 30.4629H213.602L212.863 32.7832L213.988 33.3809V33.9434L213.812 34.3301H213.039L212.863 33.7676H212.266V34.541L212.477 34.9277L211.527 34.7168L211.141 35.877L210.965 36.6504H210.578V35.4902H210.016L209.805 36.2637L210.016 37.4238L209.629 36.6504H208.855V37.248L209.066 37.6348L208.117 39.1816H207.73V38.584H206.992L205.832 39.5684ZM220.246 39.5684V38.9707L220.422 38.1973H220.809V37.6348H220.246L218.91 38.4082L218.734 37.6348L219.086 37.248L218.91 35.4902L219.297 34.7168H218.348L221.582 33.1699L223.094 33.5566V33.9434H223.656L223.27 34.7168L224.043 34.9277L224.992 36.0879C225.602 36.0879 226.105 36.4043 226.504 37.0371L226.855 38.0215H227.242L227.805 38.9707L228.578 39.1816L221.934 39.5684L221.195 39.1816L220.246 39.5684ZM212.652 32.2207L212.477 31.834H212.09V32.3965L212.652 32.2207ZM214.164 30.0762V29.6895L213.988 29.127H213.426L213.215 30.2871H213.602L214.164 30.0762ZM217.574 29.6895V29.3027L217.398 28.7402L218.734 28.1426L219.297 26.8066L218.734 26.5957L218.172 27.5801L218.523 26.4199H218.91V25.6465H218.523L218.348 24.4863L217.785 24.2754L216.836 24.4863L216.625 25.4355H215.887L215.676 24.6621H214.938C213.672 24.8027 212.723 25.2598 212.09 26.0332L212.652 26.9824L211.914 27.5801V27.9668C212.781 28.7402 213.918 28.998 215.324 28.7402V29.5137H215.887L216.449 28.916L216.836 29.6895H217.574ZM221.582 26.4199L221.195 26.0332V26.4199H221.582ZM220.633 25.6465L220.246 25.4355V25.8223L220.633 25.6465ZM216.625 24.4863V23.7129L217.785 23.502L219.473 23.8887V23.3262L218.523 22.7285V21.7793L217.574 21.5684V21.1816L218.348 20.0215H218.734V19.4238H218.348V18.6504L216.062 18.4746L215.5 18.6504L213.812 17.877C213.297 18.6504 213.039 19.5527 213.039 20.584L213.215 21.1816H215.324L216.062 21.7793L216.273 20.7949H216.836L217.012 22.3418H216.625L213.988 21.9551L213.426 22.166V23.3262L214.164 23.7129L215.5 23.502L216.062 23.7129V24.4863H216.625ZM221.371 23.3262V22.166L219.859 21.7793V22.166L220.809 22.9395V23.3262H221.371ZM213.039 21.3574V20.7949H212.477V21.1816L213.039 21.3574ZM220.809 20.7949V20.1973L219.684 19.6348V20.1973L220.809 20.7949ZM219.297 20.1973L218.734 20.0215V20.4082L219.297 20.1973ZM198.273 18.6504L197.676 17.3145L199.223 16.541L199.398 16.1543C201.297 14.7246 203.441 13.8809 205.832 13.623C206.465 13.1074 207.285 12.791 208.293 12.6738L208.504 13.4473L207.555 14.0098L205.656 14.7832L205.094 15.3809V14.9941H204.707L204.32 15.7676H204.707C202.926 16.7988 201.027 17.5723 199.012 18.0879L198.836 18.6504H198.273ZM212.863 18.8613V18.2637H212.266V18.8613H212.863ZM211.703 18.4746V17.877H211.141V18.4746H211.703ZM217.223 17.4902L217.574 16.541H217.012L216.625 17.3145L217.223 17.4902ZM221.934 16.7168L222.883 16.541L223.656 16.1543V15.7676H222.707V15.3809H223.27V14.9941L222.145 14.7832V14.3965H220.809L220.984 13.623L220.422 13.4473L219.859 12.8496L218.91 13.2363L218.523 13.0605L217.398 12.0762L217.012 13.0605L217.785 13.4473V13.0605L216.625 15.3809L217.223 15.5566L217.785 15.3809L218.172 16.3301L218.734 16.541L220.633 15.7676L220.984 16.9277L221.934 16.7168ZM215.113 16.541V15.9434H214.551V16.541H215.113ZM216.062 15.3809L216.836 13.623H216.062L215.5 15.1699L216.062 15.3809ZM214.551 15.1699V14.7832L213.812 14.3965V15.1699H214.551ZM216.836 10.5293V10.1426L216.625 9.36914H216.062L215.887 10.5293H216.836ZM220.422 9.9668V8.98242L220.633 8.20898L221.758 7.82227L223.832 6.27539V5.71289L222.883 5.11523L222.496 5.32617L221.758 4.72852L220.633 3.7793L220.246 5.32617H219.297L219.086 4.55273L218.172 4.3418V3.95508H217.398L216.273 4.16602L216.062 5.11523H216.625L217.574 4.72852L217.961 4.93945V5.71289L217.012 5.88867V6.27539L219.473 6.66211V8.5957L218.734 9.9668L219.859 10.3535L220.422 9.9668ZM217.785 9.75586V9.36914L216.836 8.80664V9.19336L217.785 9.75586ZM218.523 8.5957L218.734 8.0332L217.785 7.64648L217.574 7.04883L216.625 6.87305L216.273 7.82227C217.023 7.96289 217.773 8.2207 218.523 8.5957ZM205.27 8.41992L201.297 7.25977L201.086 6.66211H199.961V6.09961C201.227 4.66992 202.809 4.1543 204.707 4.55273L206.219 4.93945V5.71289H206.992L207.344 5.50195V5.88867L206.605 7.64648L206.043 7.82227V7.43555H205.656L205.27 8.41992ZM225.906 7.04883L225.555 6.66211V7.04883H225.906ZM216.625 6.27539V5.71289H215.887V6.27539H216.625ZM228.191 4.3418V3.7793H227.629V4.3418H228.191Z" fill="#483D3F"/>
<path d="M241.762 39.1816L240.988 38.584L240.812 35.5254L240.988 34.752H240.602C240.859 32.9004 240.859 31.0371 240.602 29.1621L241.375 27.6152L241.199 27.0527L241.375 26.4551H241.938L244.996 28.002L247.668 27.8262L248.441 28.2129L249.566 27.8262L250.129 28.002L250.727 27.8262L250.902 28.3887H251.289L251.852 28.2129L252.238 30.498C252.613 31.0137 252.742 31.7168 252.625 32.6074L252.414 33.5918C252.812 33.8496 252.941 34.2363 252.801 34.752L251.465 34.9277L250.902 36.4746L248.23 37.4238C246.332 37.5645 244.551 38.1504 242.887 39.1816L242.148 38.9707L241.762 39.1816ZM273.965 35.7012L273.578 34.752L273.191 34.541L272.242 32.4316H271.68L270.906 32.6074C270.273 31.9746 269.57 31.5996 268.797 31.4824L267.672 27.6152V27.0527L266.898 25.8926L267.109 25.2949C266.852 24.1465 266.652 22.998 266.512 21.8496L266.723 21.252H266.125L265.387 20.8652L264.227 21.4629H263.277V21.8496L263.488 22.4121L262.539 23.0098L262.328 23.5723L262.539 24.1699H261.941L262.152 25.1191L261.555 25.6816L260.43 26.0684V26.4551L259.48 26.666C258.965 27.2988 258.262 27.4863 257.371 27.2285L256.984 24.9082L257.582 22.4121L256.633 21.6387C256.75 20.8887 256.551 20.3848 256.035 20.127H255.473L255.297 20.5137H254.699L254.137 19.916V20.8652L253.012 20.3027L252.801 19.7402L253.574 19.1426L253.75 18.1934C254.898 17.6777 256.105 17.3496 257.371 17.209L257.934 13.166L257.758 12.6035C257.875 11.7129 258.133 10.8809 258.531 10.1074L257.582 8.94727L251.676 8.17383L251.465 7.40039C252.73 6.50977 254.125 5.99414 255.648 5.85352L256.246 6.06445L256.809 5.85352L260.605 6.62695L261.203 6.45117V7.01367C263.641 6.61523 265.984 6.87305 268.234 7.78711C269.125 7.27148 270.074 7.08398 271.082 7.22461C271.527 8.0918 271.598 8.98242 271.293 9.89648H271.68V10.2832L271.082 10.4941V12.041L271.469 12.9902C271.352 13.5059 270.977 13.6934 270.344 13.5527V13.9395L271.469 14.3262V15.3105H270.695V15.873L271.293 16.2598L271.68 18.3691L271.469 19.1426L271.68 19.7402L271.469 20.6895C271.609 23.3848 272.371 25.8223 273.754 28.002L274.316 28.2129L274.914 26.666L276.812 25.2949L277.199 28.2129L276.602 31.0957L276.25 31.4824L276.426 32.0449H276.039V32.8184L276.812 33.2051V33.9785L276.426 35.5254L275.863 35.7012V34.9277H275.477L274.703 35.3145V35.7012H273.965ZM241.375 34.752V34.1543H240.812V34.752H241.375ZM248.441 34.3652C248.816 33.0762 248.934 31.7285 248.793 30.3223H247.668L244.434 30.498L243.871 31.8691H244.434L243.66 32.0449V32.4316L243.871 33.2051H244.434L244.82 34.3652L247.457 34.752L248.441 34.3652ZM276.039 33.3809L275.863 32.9941H275.477V33.5918L276.039 33.3809ZM269.746 31.0957L269.184 30.709V31.0957H269.746ZM247.281 24.5215L246.719 23.7832H245.172L244.82 23.959L243.66 23.3965L243.098 22.2363L243.273 21.4629L241.938 18.9668L240.812 18.5801L240.25 18.7559V18.3691L241.938 16.4707H243.098L244.609 17.209V17.5957H245.172L246.156 17.4199C247.281 17.6777 248.418 17.8652 249.566 17.9824L250.129 17.8066L251.465 18.1934V18.5801L250.727 20.3027L250.129 20.5137V20.127H249.18V20.5137H248.441L247.457 20.3027L246.332 20.5137L244.996 20.3027V20.6895C246.145 21.3223 247.48 21.5801 249.004 21.4629L250.129 22.0254V22.623H250.727V22.0254H251.289L252.062 22.4121V22.7988L251.852 23.1855L251.078 23.959L249.742 24.1699L249.18 23.959L249.004 24.5215H247.281ZM249.18 23.959V23.5723H248.793V23.959H249.18ZM265.773 19.7402L265.176 19.1426V19.916L265.773 19.7402ZM264.438 17.9824V17.4199H264.824C265.199 18.0527 265.703 18.3105 266.336 18.1934C266.852 15.7559 267.297 13.3184 267.672 10.8809L266.723 10.6699L265.387 11.0566C264.355 10.4238 263.277 10.1074 262.152 10.1074L261.941 9.50977H261.203L260.992 10.1074H259.656V10.6699L260.219 12.4277H260.605L260.043 14.5371L260.992 15.0996H260.043V15.6973L260.992 16.084L261.379 16.8223C262.527 17.0801 263.547 17.4668 264.438 17.9824ZM248.23 14.9238L247.281 14.3262L246.156 14.5371L244.609 14.3262L243.273 14.7129L242.324 14.3262L241.199 14.5371L239.301 13.5527L239.09 12.7793H238.316L239.652 11.6543L240.812 11.4434L242.535 12.041C243.027 11.6426 243.215 11.127 243.098 10.4941H243.484V9.12305L243.098 7.99805L243.66 7.78711C243.918 6.89648 244.234 5.99414 244.609 5.08008H244.223L243.871 5.4668L244.223 5.29102L244.434 3.74414L244.609 3.35742L244.434 2.79492L245.383 1.63477L247.105 1.42383L247.281 2.58398C246.531 5.41992 246.215 8.37305 246.332 11.4434C247.34 12.0996 248.477 12.2988 249.742 12.041L251.078 11.6543L251.852 11.8301L252.801 11.4434L253.574 11.6543V12.2168L253.363 12.6035C253.246 13.2363 253 13.8105 252.625 14.3262L251.465 14.5371L250.34 14.3262L249.391 14.7129L249.004 14.5371H248.617L248.23 14.9238Z" fill="#483D3F"/>
</svg>
