<svg width="684" height="46" viewBox="0 0 684 46" fill="none" xmlns="http://www.w3.org/2000/svg">
<path d="M652.129 41.6094L650.793 40.8359L651.18 40.625V39.6758L652.129 38.9023L652.34 37.918H653.676V37.5312L652.903 37.1445V36.582L653.676 35.9844L653.887 34.8242H654.274L654.66 32.7148H653.676C652.27 33.2305 650.793 33.6172 649.246 33.875L648.262 31.9414L650.582 31.3438L651.18 31.5547C652.469 30.5234 654.016 30.0078 655.821 30.0078V29.4102L655.61 28.8477H655.996C655.996 27.5586 656.196 26.3281 656.594 25.1562L656.383 24.5938L656.981 23.6094L656.383 23.2227V22.4492L656.77 21.6758H656.383L656.77 20.6914L656.383 19.1445H655.996L655.047 20.3047H654.449L653.887 20.1289V20.9023L652.727 21.0781V21.8516L650.969 23.0117V23.3984L649.633 24.1719L648.473 24.5938V24.9805L648.086 25.1562L647.313 24.7695L647.102 23.6094L647.489 22.8359H646.926V22.2383L649.246 20.9023L649.035 20.5156C649.809 19.7422 650.781 19.3555 651.953 19.3555L652.129 18.3711H652.727L652.903 17.8086L656.383 16.6484V16.0508L655.223 15.875V15.1016H654.836L654.449 15.6641H653.676L652.903 15.2773L652.727 16.0508L651.567 16.2617C651.168 15.8633 650.582 15.6641 649.809 15.6641L649.633 16.2617H650.196L649.809 16.4375L649.246 16.2617V15.6641H648.86L648.649 16.2617L647.489 16.0508V15.6641H646.926L646.715 16.8242L646.153 16.6484L645.766 15.2773L646.153 14.7148C646.926 14.7148 647.699 14.5859 648.473 14.3281L648.86 13.7305L650.406 13.5547L651.953 13.7305V13.168L649.809 10.8477C648.66 9.81641 647.957 8.58594 647.699 7.15625L649.246 6.17188L650.02 5.60938L650.406 6.59375L651.18 7.36719V7.75391L650.969 8.52734L651.953 9.08984L652.129 9.86328H652.516L652.903 9.6875L653.289 10.4609L654.274 10.6367L654.449 11.7969L656.981 12.0078L657.156 11.4102L655.996 11.2344V10.8477L656.594 10.25L656.207 9.30078L656.383 8.52734L656.981 8.31641V7.92969L655.996 6.59375L656.594 3.67578L657.543 3.28906L657.754 2.12891H658.317V1.74219L658.528 2.51562L657.543 5.99609L657.754 6.59375L657.367 7.36719L657.543 7.75391L657.156 8.52734L657.93 9.08984C657.813 10.2617 658.071 11.1055 658.703 11.6211C659.36 10.9648 660.203 10.7656 661.235 11.0234L662.219 11.2344L661.621 14.1172H660.25H659.301V15.1016L658.703 15.875L659.864 17.8086L660.25 17.9844L660.461 18.9688H661.235V19.3555H661.621V20.1289L662.781 20.9023L662.606 21.4648H663.168L663.379 20.6914H663.942L664.539 21.8516L665.102 22.4492L664.328 22.8359V23.3984H663.766L662.992 23.2227L662.395 23.3984V23.0117L662.606 22.4492H661.621L661.024 22.625L660.461 22.4492L659.09 23.0117L658.914 23.9961L658.317 24.5938L658.703 25.3672L658.528 26.3164C659.16 27.2305 659.418 28.2617 659.301 29.4102H659.688L662.008 28.4609L662.992 28.6367L664.153 28.25L664.539 29.6211L665.313 30.1836C664.539 30.957 663.438 31.2852 662.008 31.168L659.301 31.9414L659.09 32.8906L660.848 33.6641L661.41 34.6484L664.539 36.7578L664.715 37.5312L665.102 37.7422V38.1289L664.153 39.0781L662.395 39.2891L662.606 38.5156H662.219L661.832 38.6914L661.235 38.3047V37.5312H660.637L660.25 37.7422V36.9688H659.688L659.09 37.1445C659.09 36.5117 658.774 36.2539 658.141 36.3711V36.7578H657.754L655.996 36.582L655.61 37.7422L655.821 38.3047H656.207V39.2891L655.434 39.6758L655.223 40.4492L653.676 40.8359V41.2227L652.129 41.6094ZM677.477 41.0117L677.301 40.4492L677.477 39.6758L675.93 39.2891L675.754 37.918L676.914 36.3711H677.301L677.864 35.4219L678.461 35.2109V34.0508C679.164 34.8008 679.75 35.6445 680.219 36.582H680.992C681.25 37.6133 681.637 38.5156 682.153 39.2891L681.766 40.0625L680.219 40.2383V40.625H679.41V40.2383L679.621 39.4648H679.235L678.848 40.2383H678.074L677.477 41.0117ZM678.637 40.0625L678.848 39.4648L678.25 39.2891V40.0625H678.637ZM668.582 38.6914L668.02 38.3047V37.918H668.406L668.969 38.1289L669.18 37.5312L665.875 37.3555V36.9688L666.649 36.7578L667.246 36.9688L667.422 35.8086L667.246 35.2109L669.567 34.0508V34.4375H669.953L671.289 32.7148V33.2773H672.063L672.274 31.7305L670.34 31.168L670.129 30.3945L668.969 30.0078L668.582 28.8477H669.18L669.953 29.0234L670.727 28.6367V28.0742L670.34 27.3008H669.742L669.356 27.4766V27.8633L669.567 28.25L668.582 27.0898H668.196V26.7031L668.793 26.5273L668.969 27.0898H669.567L670.129 26.9141V26.3164H669.356V25.9297C670.27 25.1562 670.856 24.2539 671.114 23.2227H670.34V23.6094H669.742L669.356 25.1562L668.582 25.543L668.196 23.2227L668.406 22.625L668.196 22.0625H668.582V21.6758L668.406 20.5156H667.809V19.5312L668.793 19.7422V18.9688H668.196L667.633 17.0352L667.422 16.6484L668.02 15.4883C668.395 14.7148 668.711 13.8711 668.969 12.957C669.625 12.582 670.34 12.2656 671.114 12.0078C671.489 11.0938 671.934 10.1914 672.449 9.30078C671.418 9.04297 670.387 8.84375 669.356 8.70312L665.102 9.30078V8.70312C667.305 8.07031 669.496 7.42578 671.676 6.76953L672.274 6.98047L674.383 6.38281L675.156 6.59375C676.586 6.19531 677.946 5.79688 679.235 5.39844L680.008 5.60938L681.379 5.39844L681.766 6.17188L680.992 7.36719H680.008V7.75391H679.41L679.235 7.15625H678.848L678.074 7.75391L677.09 8.14062L675.754 7.92969L675.367 9.30078H674.594V10.0742L673.61 11.7969C673.094 12.4531 672.778 13.168 672.66 13.9414L671.676 14.1172V14.8906C672.074 15.4062 672.59 15.6055 673.223 15.4883L673.434 16.2617L673.996 16.4375V15.4883L673.821 14.8906C674.594 14.6328 675.367 14.375 676.141 14.1172C676 14.7734 676.188 15.1016 676.703 15.1016V14.5039H677.09L677.688 14.7148V14.3281L677.477 13.5547H678.461L679.235 13.7305V13.3438L681.766 12.5703L681.942 12.1836L682.328 13.7305L682.153 14.3281L682.539 15.4883L682.328 16.0508L683.102 17.0352L681.379 17.5977L681.168 18.1953H681.555L682.153 17.9844L682.539 19.7422L681.379 20.1289V21.4648H681.942V21.8516H682.328L682.715 22.625L682.153 22.8359V23.9961L682.539 24.7695H682.153L681.766 24.5938V25.3672H681.168V26.5273L681.379 27.0898L680.395 27.3008L680.219 28.0742H679.41L679.024 29.2344L677.301 29.7969L677.09 28.8477H676.703L676.528 29.4102L676.914 30.3945H677.301L676.703 30.5703V30.957H676.317L675.367 30.7812L675.156 31.3438L674.981 30.7812H674.594L674.383 31.3438H673.223L672.449 30.957V31.7305L673.996 33.1016V33.6641L673.61 34.8242L673.047 35.0352L672.836 36.1953H672.449V36.582L671.676 36.7578L670.34 36.582V36.9688L671.114 37.1445V37.5312L669.742 38.1289L669.18 37.918V38.6914H668.582ZM677.477 38.9023V37.918L676.703 37.7422L676.141 39.0781H676.528L677.477 38.9023ZM679.621 38.9023V38.3047H679.024V38.9023H679.621ZM679.235 38.1289V37.5312H678.461V36.582L678.637 35.8086H678.074L677.864 37.3555L678.074 38.3047L679.235 38.1289ZM677.09 37.3555L676.528 37.1445V37.5312L677.09 37.3555ZM659.864 35.5977L659.301 35.4219V35.8086L659.864 35.5977ZM664.715 30.3945L664.328 30.0078L664.153 30.5703L664.715 30.3945ZM673.821 30.3945L673.223 30.1836V30.5703L673.821 30.3945ZM674.383 30.0078V29.2344H673.996V30.0078H674.383ZM676.141 28.8477V28.0742L678.074 27.8633L678.25 26.9141H677.688V26.5273L677.864 25.7539L677.301 24.3828L675.754 23.9961L675.367 24.5938L673.61 23.9961L673.434 24.5938L672.836 25.1562L673.61 25.3672C673.492 26.1406 673.621 26.7852 673.996 27.3008L673.821 27.8633H674.77V28.4609H675.543L676.141 28.8477ZM672.063 28.4609L672.274 27.8633L671.5 27.6875L671.289 28.25L672.063 28.4609ZM673.047 27.8633L672.66 27.4766L672.449 28.0742L673.047 27.8633ZM672.274 27.3008V26.9141H672.66L673.223 27.0898V26.7031L672.836 25.7539H671.676L671.5 27.3008H672.274ZM680.992 25.1562L681.379 23.7852H680.606L680.219 24.5938L680.992 25.1562ZM658.914 23.0117L659.09 22.2383L658.141 22.0625V22.625L658.914 23.0117ZM660.074 22.625L660.637 21.2891H659.688L659.301 20.3047L658.703 20.1289V20.5156L660.074 22.625ZM650.02 22.625V22.0625H649.422V22.625H650.02ZM674.383 22.625V20.9023H675.156V20.3047L673.821 20.1289L673.223 19.5312L672.836 21.0781H671.676V21.6758C672.707 21.793 673.61 22.1094 674.383 22.625ZM662.395 21.8516V21.2891H661.832V21.8516H662.395ZM681.168 21.6758L680.781 21.2891V21.6758H681.168ZM651.742 21.6758V21.0781L650.406 20.9023V21.4648L651.742 21.6758ZM677.09 21.4648C677.746 20.832 678.004 20.0586 677.864 19.1445L676.914 18.7578V19.1445L677.09 19.7422H675.367L675.156 20.3047L675.543 21.2891L677.09 21.4648ZM671.676 20.5156L671.887 19.918H670.727L670.34 20.9023H670.903L671.676 20.5156ZM670.129 19.918L672.063 19.3555L672.274 18.7578L670.727 18.582L669.953 18.7578V19.5312H669.567V19.918H670.129ZM658.914 19.7422V19.1445H658.317V19.7422H658.914ZM674.981 19.3555V18.9688H674.594V19.3555H674.981ZM676.141 19.1445L675.93 17.9844H675.367L675.156 18.7578L676.141 19.1445ZM653.114 18.7578V18.1953H652.516V18.7578H653.114ZM674.207 18.582L675.367 17.2109H676.317L676.914 17.4219L677.864 17.0352L678.074 16.2617L677.09 15.6641L675.367 16.2617L674.383 15.4883V16.4375C673.75 16.6953 673.106 16.9531 672.449 17.2109L671.289 17.8086V18.3711L672.063 18.582L672.274 19.1445H672.836L674.207 18.582ZM676.317 17.9844L675.93 17.5977V17.9844H676.317ZM678.25 17.9844L678.461 17.4219H677.688V18.1953L678.25 17.9844ZM654.449 15.2773L654.063 14.8906V15.2773H654.449ZM678.848 14.8906L679.024 14.3281H678.461V15.1016L678.848 14.8906ZM660.848 13.9414L661.024 13.168L660.461 12.957L659.864 12.3945L659.688 13.3438L660.848 13.9414ZM672.449 13.5547V12.957H671.887V13.5547H672.449ZM654.063 11.6211V11.2344L653.289 10.8477V11.6211H654.063ZM657.367 9.86328V9.30078H656.77V9.86328H657.367ZM659.09 8.91406L658.914 7.75391L659.688 7.54297L660.074 6.59375L661.024 6.38281L661.621 5.22266L664.153 3.46484L664.328 3.07812L665.489 2.51562L666.262 2.90234L666.473 4.0625L665.875 4.83594L665.102 5.01172V5.39844L664.328 5.60938L664.153 6.38281L663.555 6.59375L663.379 7.15625L661.621 8.14062C660.965 8.65625 660.121 8.91406 659.09 8.91406Z" fill="#483D3F"/>
<path d="M606.253 41.8202L605.093 41.2226L604.917 40.0624H606.253V39.4999H605.479V39.1132L605.69 38.164H606.253V37.5663H605.69L604.53 38.3398L604.354 37.3905H604.741L605.304 37.5663L605.479 36.7929L605.304 36.2304L605.69 35.457H605.304L605.093 34.4726L605.69 32.5741L606.253 32.1874V31.414L605.479 29.4804L604.917 29.3046V30.078L603.581 30.2538V30.8163L602.843 31.0273V31.8007L602.069 31.9765L601.331 33.3476L598.87 34.6835L598.097 34.4726V30.2538L598.87 28.707L598.659 28.3202L598.87 27.7577L599.222 29.4804L599.046 30.2538L599.608 30.4296L599.995 28.5312H600.382V27.7577L600.558 27.1601H600.944V26.3866L600.733 26.0351L602.632 26.9843L602.843 26.2109L602.632 25.4374L602.28 25.2616L602.632 25.0507L603.019 24.1015L603.581 24.664V24.2773L604.354 24.664V23.8905L604.144 23.1171H604.53V22.7304L605.093 22.5546L605.69 20.832L602.069 20.4452L601.507 20.832L600.382 20.2343L600.171 19.6718L599.819 19.4609V18.1249L598.272 17.9491L598.097 16.9648L599.995 16.578L600.944 16.9648L601.507 16.0155H602.28L602.456 16.9648L602.28 17.7382L603.019 17.9491L603.405 17.1757H604.144L604.741 17.3515V16.789L604.53 16.1913L605.093 16.0155V16.578H605.69L606.253 14.8554L607.202 13.9062V13.3085L606.991 12.1484L608.714 11.9726L610.226 12.1484L610.788 13.6952L610.401 13.9062L610.226 14.2929L609.452 14.4687V14.8554L609.101 15.6288L610.05 15.4179L610.226 15.8046H610.612C610.987 15.289 611.55 15.1015 612.3 15.2421L613.073 15.4179C612.44 15.4179 612.124 15.6757 612.124 16.1913H612.511L612.687 17.3515H613.073L613.46 16.4023L613.812 16.9648L613.46 18.5116L612.862 18.6874L612.3 20.0585H611.913L611.562 18.8984L610.964 18.6874L610.788 19.2851L610.964 19.8476H610.226L609.663 19.6718L609.276 21.0077H608.89L607.94 20.621V21.2187C608.456 21.8515 609.089 22.1093 609.839 21.9921L610.226 21.7812L610.612 22.9413H611.351L611.737 22.7304L611.562 21.7812L612.511 24.664L613.636 24.8749L613.812 25.4374L613.636 26.0351H614.585L615.534 26.5976V26.0351H615.147L615.534 25.8241L615.71 26.3866L617.046 26.7734L617.222 27.371H618.171L618.733 27.1601V27.7577H619.331L620.069 27.371L621.792 27.7577V26.7734L620.456 26.0351L620.28 25.2616L618.944 24.8749L617.608 23.7148V22.9413L617.995 22.3788L617.046 21.9921V21.6054H617.608L618.171 21.7812V21.2187L617.433 20.832C617.644 20.0116 617.644 19.1796 617.433 18.3359H617.819V17.7382L617.433 16.578L617.608 15.6288H618.171V15.0312L617.819 13.6952C620.327 13.4374 622.847 13.0507 625.378 12.5351L625.765 10.8124L624.815 10.2499L624.429 10.6015V10.039L623.479 9.8632L622.741 10.4257V9.8632H622.354C621.604 10.496 620.714 10.8124 619.683 10.8124L619.331 10.039L619.683 8.70305C620.948 8.56242 622.155 8.30461 623.304 7.92961L624.429 8.10539L625.378 7.71867L625.554 8.31633H625.94L626.503 6.76945H625.765L625.378 5.22258L624.64 5.0468L624.042 5.22258L622.917 5.0468L621.581 5.22258L621.405 4.06242C623.163 3.03117 625.179 2.58586 627.452 2.72648L628.05 2.90227L629.175 2.72648L630.862 3.1132L631.636 2.90227L633.147 3.28898L633.71 3.1132L634.272 3.28898V3.6757L634.87 3.88664L635.046 4.66008L634.097 5.0468L633.71 5.82023H633.147V5.43352H632.585V5.82023H631.812L630.862 5.6093L629.562 5.99602L629.351 6.76945L629.913 7.54289H631.073L631.46 7.33195V8.49211H632.022C631.882 7.8593 632.069 7.47258 632.585 7.33195V7.71867L633.71 8.10539L634.272 7.92961V8.49211L633.921 9.26555H633.147V9.8632H632.585L632.022 9.65227L631.636 10.4257L630.511 10.039V9.65227H629.913L629.737 10.9882L628.788 12.1484H629.562L629.737 12.5351L629.562 13.1327L629.737 13.5195H630.124L630.511 12.1484L632.585 12.3593L634.097 12.1484L635.608 12.746L635.433 13.3085L635.819 14.2929L634.659 14.8554L634.483 15.4179L635.995 15.8046V16.578H636.382L636.171 17.5624H636.558L636.944 20.2343L636.733 21.6054H636.171V21.9921L636.558 22.9413H635.819L635.608 23.5038H634.483L633.71 23.328L632.972 23.5038L632.585 23.328L632.198 22.7304L631.46 22.5546L631.249 21.6054H631.636V20.0585L630.862 19.6718V18.6874H630.124L629.175 20.832H628.612V21.3945L628.788 21.9921L627.839 22.1679L627.663 23.5038H628.05L630.124 22.7304L630.862 23.1171V24.4882L628.401 25.8241L628.05 26.7734L629.351 26.9843V27.7577H630.124L630.862 27.5468L631.249 28.1445H631.812L632.022 29.4804L631.249 30.078L630.687 29.8671L630.511 30.6405L629.351 30.8163L628.788 30.6405L628.401 31.8007L627.839 32.1874L627.663 33.3476H628.401V33.7343H629.913L630.862 33.5234L631.073 34.8593H631.636C631.519 34.2265 631.706 33.9101 632.198 33.9101L632.972 34.2968L633.147 35.0702H633.534L633.921 33.5234H634.87L635.046 34.121L635.819 34.6835L635.995 35.6327L635.819 36.4062L636.171 36.6171L635.819 37.1796L634.659 37.3905L634.483 38.164H634.097L633.147 37.5663V37.1796L633.323 36.6171L632.374 35.8437L632.198 36.6171L631.812 37.3905L632.022 38.164L631.46 38.3398L631.249 37.7773L630.511 37.5663L629.737 37.0038V37.5663H629.351L628.226 37.0038V37.7773L627.101 38.164L626.89 38.5155C626.772 37.8827 626.327 37.6366 625.554 37.7773L625.202 37.1796H624.429L624.042 38.3398L621.968 37.7773V38.164H621.581L619.331 37.3905L619.12 36.7929H619.894L620.843 37.1796V36.2304L620.069 35.8437V35.457L620.28 35.0702H620.843L621.019 34.4726L622.144 33.9101L622.354 33.1366L622.917 32.9609C622.8 32.3046 622.987 31.9765 623.479 31.9765V32.7499H624.042L624.64 31.8007L624.253 31.5898L623.304 30.4296L623.69 28.9179H623.093L622.741 30.4296L622.917 31.203L622.53 31.414L621.792 29.4804H621.229L621.019 30.2538H620.069C619.062 29.621 617.925 29.2343 616.659 29.0937V29.4804H616.272L614.198 28.707L613.636 28.9179V29.3046L611.737 29.8671V30.6405C612.487 31.2734 612.862 32.0468 612.862 32.9609C612.487 33.2187 612.37 33.664 612.511 34.2968H611.562V34.8593L610.964 35.6327L611.351 36.7929L611.175 37.3905L611.562 38.3398H611.175L610.788 37.5663L610.05 37.3905V38.3398H609.276V38.9023H608.89V39.4999H609.663L610.226 39.289V39.6757L609.839 40.2734H608.89V41.0468L607.554 41.6093L606.815 41.0468V40.6601H606.253V41.4335V41.8202ZM609.101 40.2734V39.8866H608.714V40.2734H609.101ZM608.327 39.4999V38.7265L608.503 38.164C607.753 38.2812 607.437 38.6562 607.554 39.289L608.327 39.4999ZM608.89 37.7773L609.276 37.0038H608.89L608.327 37.953L608.89 37.7773ZM628.05 36.7929L628.401 36.0195H627.839L627.452 36.7929H628.05ZM608.503 36.6171L608.714 36.0195L608.327 35.246H607.94L607.554 36.0195L608.503 36.6171ZM610.05 35.8437V34.121L610.612 32.7499L611.175 32.5741L611.351 31.9765L610.612 31.203L610.226 32.5741H609.839L609.452 33.5234H608.503V33.9101L609.276 34.4726L610.05 35.8437ZM627.663 35.8437L627.101 35.246V35.6327L627.663 35.8437ZM635.222 35.6327L635.433 34.8593L634.483 34.2968L634.272 35.8437L635.222 35.6327ZM622.354 35.457L621.405 34.6835V35.0702L622.354 35.457ZM619.12 35.246L619.683 33.7343H620.28V34.121L619.894 34.8593L619.12 35.246ZM623.866 34.8593L624.042 34.121H623.304V33.5234H622.741L622.53 35.0702L623.866 34.8593ZM606.429 33.7343V33.3476H606.042V33.7343H606.429ZM607.94 33.5234V33.1366L607.378 32.9609L607.202 33.5234H607.94ZM627.276 32.9609V32.5741H626.89V32.9609H627.276ZM609.839 32.7499V31.9765L609.276 31.8007L609.101 32.3632L609.839 32.7499ZM607.765 32.5741V32.1874L607.202 31.9765V32.5741H607.765ZM625.765 31.9765L626.151 31.203L627.663 30.8163L627.839 30.2538L626.714 29.8671C626.573 30.3827 626.187 30.5702 625.554 30.4296V31.0273H624.815V31.5898L625.765 31.9765ZM606.815 31.414V30.8163H606.429V31.414H606.815ZM607.554 30.6405V29.8671L606.991 29.6913V29.3046L606.429 30.078L606.64 30.8163L607.554 30.6405ZM609.663 30.2538V29.6913L608.503 29.4804V30.078L609.663 30.2538ZM612.3 29.3046V28.707H611.913V29.3046H612.3ZM620.069 29.3046L620.632 28.5312H621.019V27.7577H620.456L619.507 29.0937L620.069 29.3046ZM607.94 29.0937L606.815 28.1445L606.64 28.707L607.94 29.0937ZM633.71 29.0937L632.761 28.3202V27.9335L632.972 27.371L632.198 26.9843L632.022 27.371H631.636V26.7734L632.761 26.5976L634.097 26.9843L634.659 26.7734L633.921 28.5312L634.097 29.0937H633.71ZM611.737 28.5312L610.964 29.3046H611.913V28.9179L611.737 28.5312ZM614.374 28.707V28.1445L613.46 27.9335V28.3202L614.374 28.707ZM615.921 28.707V27.7577H615.534L615.147 28.707H615.921ZM609.452 28.1445L608.89 27.5468V27.9335L609.452 28.1445ZM608.327 28.1445V27.371H607.765L607.554 27.9335L608.327 28.1445ZM612.3 27.9335C612.3 27.3007 611.983 27.0429 611.351 27.1601V27.7577L612.3 27.9335ZM622.354 28.1445V27.7577H622.741L623.093 27.9335L623.479 27.1601H622.144L621.792 28.1445H622.354ZM610.401 27.371V26.7734L609.839 27.371H610.401ZM606.64 26.5976L606.042 26.3866V26.7734L606.64 26.5976ZM608.89 26.5976L608.714 26.2109L608.503 26.5976H608.89ZM612.3 26.7734V26.3866L611.737 26.2109L611.562 26.7734H612.3ZM611.913 25.6484L611.351 25.0507L611.175 25.6484H611.913ZM628.226 25.6484L628.05 24.4882H627.663L626.89 24.8749V25.4374L628.226 25.6484ZM607.378 24.4882V23.7148H606.815V24.2773L607.378 24.4882ZM605.479 24.1015L605.304 23.5038L605.479 22.9413H604.741L604.53 23.5038L604.741 24.2773L605.479 24.1015ZM606.429 23.7148L605.866 23.5038V23.8905L606.429 23.7148ZM607.765 23.328H608.151L608.714 23.1171V22.7304H607.765L607.378 23.5038L607.765 23.328ZM623.304 23.1171L623.479 22.3788L622.741 21.7812L623.304 21.6054V21.0077L622.917 20.2343H622.354L621.581 21.2187L621.968 22.3788L621.405 22.5546V22.9413L623.304 23.1171ZM626.327 23.328V22.7304H625.765V23.328H626.327ZM610.401 22.7304L609.839 22.5546V22.9413L610.401 22.7304ZM620.456 22.7304V22.1679H619.683V22.7304H620.456ZM624.253 22.5546V21.9921H623.479V22.3788L624.253 22.5546ZM628.05 21.2187L627.663 20.832V21.2187H628.05ZM618.944 21.2187V20.621H618.382V21.0077L618.944 21.2187ZM626.503 21.0077L625.378 20.2343V20.621L626.503 21.0077ZM627.452 20.4452L627.663 19.8476H627.101V20.4452H627.452ZM614.374 20.0585L613.812 18.8984L614.585 18.6874L614.374 19.6718V20.0585ZM601.894 19.2851V18.6874H601.331V19.2851H601.894ZM633.147 19.0741L633.534 17.9491H633.147L632.374 19.0741H633.147ZM635.819 19.0741L635.222 18.3359L635.046 19.0741H635.819ZM619.12 18.3359L619.331 17.7382H618.944L618.558 18.5116L619.12 18.3359ZM623.479 18.3359L624.042 16.9648L623.304 14.8554L622.741 14.6445L621.581 15.2421L621.405 16.789L621.229 17.1757L623.479 18.3359ZM631.812 18.5116C631.718 17.6445 631.905 16.871 632.374 16.1913L631.812 16.0155V15.4179H632.198V14.6445L630.3 14.4687L628.788 15.2421L628.612 16.4023L628.788 16.9648L628.05 17.1757V17.7382H629.913V18.1249H630.511V17.7382H631.073C631.073 18.2538 631.319 18.5116 631.812 18.5116ZM611.737 18.3359V17.7382H611.175V18.3359H611.737ZM607.765 17.3515L607.94 16.789H607.554L607.202 17.5624L607.765 17.3515ZM619.507 17.3515V16.789L618.382 16.578V17.3515H619.507ZM611.913 17.1757V16.789L611.351 16.578V17.1757H611.913ZM602.28 16.9648V16.4023H601.507L601.331 16.9648H602.28ZM625.378 16.789V16.4023L624.64 16.1913L624.429 16.789H625.378ZM609.839 16.578V15.6288H609.276V16.578H609.839ZM632.585 16.0155L632.761 15.4179H632.374L632.198 16.0155H632.585ZM624.429 15.8046L623.866 15.4179V16.0155L624.429 15.8046ZM625.554 15.2421L625.765 14.2929H624.991V15.0312L625.554 15.2421ZM628.401 15.4179V15.0312L628.612 14.4687H628.05L627.839 15.2421L628.401 15.4179ZM632.374 14.6445L632.585 14.082H632.022V14.6445H632.374ZM631.46 14.2929V13.6952L630.687 13.5195L630.511 14.082L631.46 14.2929ZM633.921 13.9062V13.3085H633.534V13.9062H633.921ZM628.612 13.1327L628.05 12.746V13.3085L628.612 13.1327ZM626.503 12.5351V11.9726H625.94V12.5351H626.503ZM603.792 11.9726L603.581 10.9882H603.019V11.3749H602.632V10.8124L603.019 9.47648H602.632L603.405 9.26555L603.968 9.47648L604.917 7.71867L604.741 7.33195L604.917 7.92961H606.253V7.33195H607.202V6.38273L607.94 6.76945L608.151 6.38273C609.019 6.38273 609.769 6.19523 610.401 5.82023L611.562 6.38273L610.05 6.55852V7.15617L610.788 7.33195V7.71867H611.351L611.562 8.31633L612.687 8.70305L611.913 9.08977L611.562 9.65227V8.87883H610.964L610.612 10.4257L610.05 10.6015L609.452 10.4257L608.89 10.6015L609.452 9.65227L609.101 8.70305H608.503V9.26555L608.714 9.8632L608.151 10.6015C607.261 10.6015 606.499 10.8007 605.866 11.1991L605.093 11.5859V11.1991H604.53L603.792 11.9726ZM603.581 10.6015V10.039H603.019V10.6015H603.581ZM631.636 9.47648L631.46 8.87883H630.687V9.65227L631.636 9.47648ZM610.226 9.26555V8.49211H609.452V8.87883L610.226 9.26555ZM632.972 9.08977L633.147 8.31633H632.761L632.585 9.08977H632.972ZM606.991 8.31633L607.378 7.54289H606.991L606.64 8.31633H606.991ZM610.226 8.10539L609.663 7.92961V8.31633L610.226 8.10539ZM629.562 7.71867V7.33195L628.788 6.55852V7.33195L629.562 7.71867Z" fill="#483D3F"/>
<path d="M559.431 41.3984L559.255 40.2383L559.431 38.6914H558.869V37.1445L559.642 35.5977L558.693 35.2109V34.4375L559.08 32.7148L559.642 31.9414L559.08 31.7305L558.869 30.0078L559.08 29.2344L557.919 28.6367C557.427 29.293 556.794 29.4922 556.021 29.2344V30.0078L555.072 30.1836L554.896 30.957L553.771 31.168L553.173 30.957C553.431 31.8711 553.185 32.457 552.435 32.7148L552.048 31.9414L551.662 31.168L552.998 29.7969V29.2344L554.123 29.0234L554.333 28.25L556.021 27.3008C556.654 26.2695 557.474 25.4258 558.482 24.7695L559.431 24.3828L559.642 23.2227L559.994 22.8359L559.818 21.2891L559.994 19.5312L559.255 19.1445L559.08 19.7422H558.13L556.97 19.5312C556.97 20.1875 556.654 20.5156 556.021 20.5156C555.013 19.8594 553.947 19.4727 552.822 19.3555L552.259 17.8086C554.392 16.8945 556.595 16.0508 558.869 15.2773L559.431 15.4883V14.8906L560.38 14.3281L560.591 11.7969L560.38 11.0234L561.154 10.6367L561.33 9.30078L560.767 9.08984L560.591 9.86328H559.642L558.869 9.47656L558.306 9.6875V10.4609L557.357 10.8477L556.97 11.6211H556.408L555.845 11.4102V11.7969L556.021 12.1836L553.947 11.7969L553.771 10.6367L554.333 9.86328L555.458 9.47656L555.669 8.52734L557.533 7.75391V7.36719H558.693V6.98047C559.701 6.32422 560.837 5.99609 562.103 5.99609V5.39844H561.541C562.666 5.28125 563.802 5.09375 564.951 4.83594L567.412 7.15625C566.404 7.15625 565.384 7.35547 564.353 7.75391V8.14062L562.666 8.70312L562.49 10.25H562.103V11.0234H562.841L563.052 12.7812L562.841 13.5547H563.404C563.919 13.1562 564.494 13.0273 565.126 13.168V12.7812H565.689L564.951 12.957V13.3438L566.638 13.9414L566.814 16.0508H567.201V16.4375L565.9 17.4219L565.126 17.0352L564.951 17.8086H564.177L563.615 19.918C564.248 20.6914 565.068 21.0195 566.076 20.9023L566.638 21.6758C568.162 22.707 569.744 23.5391 571.384 24.1719L571.771 25.543C570.88 25.9414 569.931 26.1992 568.923 26.3164V26.7031C566.908 26.6562 565.197 25.9531 563.791 24.5938V23.9961H563.404L563.228 27.8633L563.404 28.4609H562.841V29.0234L563.052 30.5703H562.666V31.9414L563.052 33.4883L562.666 35.0352C563.041 36.1836 563.169 37.4023 563.052 38.6914L563.615 39.2891L562.279 40.2383L562.103 40.625C561.095 40.5078 560.205 40.7656 559.431 41.3984ZM567.763 37.1445V36.7578L567.974 36.1953L567.763 35.5977L569.31 35.2109L569.486 34.4375C570.376 34.3203 571.255 34.1328 572.123 33.875L572.896 34.0508C574.654 33.793 576.294 33.2773 577.818 32.5039V31.9414L577.642 30.7812L577.994 29.7969L577.255 29.6211L577.08 29.2344L577.255 28.25C576.74 27.7344 576.048 27.5469 575.181 27.6875C575.181 28.2031 574.865 28.4609 574.232 28.4609L572.72 28.0742C572.205 28.4492 571.572 28.5781 570.822 28.4609L569.662 28.25L570.259 28.0742V27.6875L571.384 27.0898H571.947V27.4766H572.509L572.72 26.9141L575.181 26.3164L575.744 26.7031L576.869 25.7539L577.08 24.3828H576.693V23.6094L576.869 23.0117L576.482 21.8516L575.919 21.4648H575.357V21.8516L572.123 22.4492L571.384 21.4648L571.771 20.9023C574.279 19.8711 576.857 19.1328 579.505 18.6875C582.177 18.2188 584.837 17.7969 587.486 17.4219L588.259 18.582L586.712 18.7578L586.537 19.3555L584.251 20.5156L583.302 20.3047L582.001 20.9023V21.2891L582.177 22.2383L582.001 23.0117L582.353 23.3984L581.052 23.6094L580.49 23.3984V23.9961C581.99 24.3945 583.501 24.6523 585.025 24.7695L585.412 26.1406L584.814 26.9141L585.412 27.4766L584.076 27.8633L583.513 30.1836L582.564 30.957L584.076 31.3438L584.251 31.9414C585.142 31.9414 585.845 32.2578 586.361 32.8906V31.9414H586.923L588.435 32.7148V32.1172L588.259 31.5547L589.56 32.3281V32.7148H590.123H588.611V33.2773L589.384 34.0508L588.259 33.875V34.6484L589.173 35.2109C585.775 35.7266 582.365 35.7969 578.943 35.4219V35.8086C578.193 35.8086 577.501 35.9375 576.869 36.1953L576.13 35.5977V36.3711H575.744L574.583 35.9844L573.845 36.1953L572.509 35.0352L572.333 36.3711H570.435C569.427 36.3711 568.537 36.6289 567.763 37.1445ZM570.435 35.8086V35.4219H570.048V35.8086H570.435ZM579.892 33.6641L579.541 33.2773V33.6641H579.892ZM583.126 33.4883V33.1016L582.564 32.8906L582.353 33.4883H583.126ZM581.615 33.2773V32.7148H581.052V33.2773H581.615ZM582.177 30.0078L582.951 29.6211L583.513 29.7969V29.0234L582.564 28.8477V29.2344H582.001L581.791 30.0078H582.177ZM577.994 29.4102V28.8477H577.431V29.4102H577.994ZM559.818 29.0234L559.255 28.4609V29.2344L559.818 29.0234ZM586.712 26.3164L586.923 25.9297L587.099 26.3164H586.712ZM577.818 26.1406L577.08 25.7539V26.3164L577.818 26.1406ZM567.025 24.9805L566.462 24.7695V25.1562L567.025 24.9805ZM577.994 24.7695V24.3828L577.642 24.7695H577.994ZM582.74 20.5156L582.951 19.918H582.353V20.5156H582.74ZM566.076 16.6484L565.513 16.4375V16.8242L566.076 16.6484ZM572.72 16.4375L572.509 15.6641H572.123L571.56 15.875L570.259 15.4883C570.869 15.4883 571.173 15.2305 571.173 14.7148L570.611 13.9414L570.048 12.7812L570.435 12.0078L569.662 11.6211V11.2344H570.048V9.08984L570.822 8.91406L570.998 8.31641C573.529 7.28516 576.06 6.3125 578.591 5.39844L578.767 5.99609H579.154L579.541 5.22266L580.279 5.01172L582.564 5.22266C583.689 4.56641 584.955 4.23828 586.361 4.23828L586.537 5.01172H586.923L587.31 4.83594V5.22266L586.923 6.59375L586.361 6.76953V7.15625L586.712 8.52734L586.361 9.86328L585.412 10.8477V11.4102L586.361 12.0078V12.3945L585.412 12.7812L585.025 13.5547L584.076 13.7305L583.9 14.1172C582.236 14.6328 580.466 14.9609 578.591 15.1016L577.431 14.8906L576.869 15.1016V15.6641H576.306L574.97 15.1016V15.875L573.283 16.0508V16.4375H572.72ZM571.56 14.3281L571.173 13.9414V14.3281H571.56ZM580.279 12.957L580.666 12.0078H581.052C581.544 10.7188 581.919 9.35938 582.177 7.92969C581.427 7.41406 580.607 7.22656 579.716 7.36719L579.154 7.54297L578.205 7.36719L577.818 8.14062H576.306L575.744 7.92969L575.181 8.91406H574.583V9.30078L573.283 9.86328L573.072 10.6367H573.458L574.232 10.4609L574.583 11.0234L574.408 11.7969H575.533V12.1836L574.794 12.5703L574.583 13.168L577.818 13.3438L580.279 12.957ZM573.283 12.1836L573.458 11.6211H572.896V12.1836H573.283ZM584.814 11.2344L584.251 10.6367V11.0234L584.814 11.2344ZM572.509 10.4609L572.72 9.86328H571.771V10.25L572.509 10.4609ZM582.564 7.36719V6.76953H582.001V7.36719H582.564ZM585.763 5.99609L585.974 5.39844H585.587L585.412 5.99609H585.763Z" fill="#483D3F"/>
<path d="M528.754 37.0039L528.191 36.793V36.0195H527.594L527.418 34.2969H526.82V33.9102L526.996 33.3477H526.609L526.82 32.5742H527.805L527.98 30.6406L528.367 31.5898L528.965 31.8008L528.578 32.75L529.738 33.1367V32.3633H530.723L531.883 32.9609V32.3633L530.336 31.5898V31.2031L532.445 30.2539L532.832 29.4805H533.43L534.027 29.6914V29.3047L533.641 29.0938V28.707H533.043H533.641L534.027 28.918V29.3047H534.59V28.918H534.977L535.961 29.0938L536.172 28.1445H536.945L537.121 29.8672H535.961L535.363 29.4805L534.801 30.4297L534.414 30.0781L533.816 32.1875L533.043 32.9609H532.656L532.059 34.2969L530.512 34.8594L530.125 35.8438L528.754 36.2305V36.6172V37.0039ZM534.801 36.2305L534.59 35.457L535.188 36.2305H534.801ZM537.508 35.8438L537.895 35.457V35.8438H537.508ZM535.574 35.6328L535.363 35.0703L536.172 34.6836V34.1211L535.188 32.9609L535.785 32.3633L535.363 31.9766H535.785V30.8164L536.734 31.4141L537.895 30.8164V31.2031L536.734 31.5898L536.559 32.1875H535.961V32.75L536.734 35.0703L536.559 35.457L535.574 35.6328ZM537.895 35.0703V34.2969H538.281L537.895 35.0703ZM516.098 34.4727L515.922 33.9102H515.535L514.938 34.1211L514.762 33.5234C514.105 33.6641 513.648 33.4766 513.391 32.9609L513.18 31.8008L513.391 31.2031L513.18 30.6406L513.391 29.6914C513.133 28.0039 512.805 26.3281 512.406 24.6641L513.18 24.1016C513.062 23.4453 513.262 22.9883 513.777 22.7305H514.375C514.891 23.1289 515.148 23.6445 515.148 24.2773L516.906 24.6641V23.7148L516.098 23.1172V22.3789L516.906 22.168L518.453 22.7305V23.3281H518.84C519.754 23.0703 520.598 22.8125 521.371 22.5547V22.168H521.758L522.742 22.9414V22.5547H523.129V24.1016H523.691L522.918 26.0352L523.305 26.2109V26.9844L523.902 27.3711L523.516 27.9336H523.129L522.531 27.7578V28.5312L522.742 29.0938H523.305L523.691 28.918C524.09 29.6914 524.289 30.4531 524.289 31.2031L522.918 31.4141L522.531 32.75L521.547 32.9609L520.598 32.5742L520.211 33.3477L520.773 33.9102L519.051 34.1211L516.906 33.9102L516.098 34.4727ZM529.738 34.1211L529.914 33.5234L528.578 33.3477L528.367 34.2969L529.738 34.1211ZM536.945 33.7344V33.1367H537.719L537.895 33.5234L536.945 33.7344ZM545.102 31.9766L543.555 31.4141L543.344 30.8164L538.703 27.1602H537.332V27.7578V27.3711H535.961L535.574 27.9336L534.414 28.3203V27.9336H534.801V27.5469L534.414 26.9844L535.188 27.1602V26.5977L534.59 26.3867L534.203 24.875L532.832 24.4883L531.285 24.6641L530.898 22.9414H530.336L529.914 24.2773L529.141 24.6641L528.578 23.7148C527.805 23.7148 527.09 23.457 526.434 22.9414V22.3789H526.82V21.2188L526.609 20.832H526.996L527.207 21.6055H527.594L529.141 21.3945L529.738 21.6055V20.832L532.059 20.6211L532.27 21.3945H532.832L533.254 21.2188L533.43 21.6055H533.816L534.027 20.4453L534.203 20.832H534.801L535.188 20.0586H534.59V19.6719L534.977 18.3359L534.027 18.125C534.145 17.3516 533.887 16.9062 533.254 16.7891L532.832 16.9648L532.27 16.0156H531.883L531.109 16.4023V16.7891L531.496 16.9648V17.3516H530.898L529.738 16.7891L529.352 15.6289L529.527 14.6445H529.914L530.125 15.418H530.898V14.8555L533.254 14.4688L533.43 13.9062H534.203L534.977 14.082L535.188 13.3086L534.977 12.1484H534.414L533.816 12.3594V11.375H534.203V10.6016L533.43 10.25V9.86328H532.27L532.059 10.4258L531.285 10.6016L530.898 11.5859L530.125 11.7617L529.914 12.7461L530.125 13.3086L529.738 14.082H528.965L528.754 14.6445H527.594L527.207 13.9062C527.207 12.4297 527.207 10.9531 527.207 9.47656L526.82 7.54297L527.418 3.67578L528.578 3.28906L528.754 2.72656L530.336 2.51562V2.90234L531.883 3.28906L532.059 1.95312C533.137 1.67188 534.18 1.74219 535.188 2.16406V1.77734C536.102 1.84766 537.004 2.03516 537.895 2.33984L538.105 1.77734H542.781L542.957 2.33984L542.781 2.72656H542.395V3.11328C542.91 4.77734 543.098 6.64062 542.957 8.70312L542.395 10.6016L542.957 12.7461C542.324 13.1211 542.066 13.6367 542.184 14.293H542.957V14.8555L542.008 15.6289V16.4023L542.184 16.7891L540.039 17.1758L539.863 16.5781H539.266L538.879 17.1758L537.895 18.5117L536.945 18.125V19.4609L537.719 20.4453L538.281 20.6211L538.879 20.4453V19.8477L540.25 20.4453L541.234 20.0586V20.832H541.797L542.008 19.6719L542.57 19.4609L543.555 20.4453H542.781V21.2188L543.555 21.3945V21.7812L541.797 22.5547V23.1172H542.395V23.5039L541.797 23.7148L540.812 23.1172L540.25 22.5547C540.25 23.1875 540.051 23.7617 539.652 24.2773H538.492V24.875L538.703 25.4375H539.09L539.652 25.2617C541.223 26.7852 542.91 28.1328 544.715 29.3047L545.312 29.4805L546.473 30.4297L546.859 31.5898C546.344 31.9883 545.758 32.1172 545.102 31.9766ZM514.938 31.4141L514.375 31.2031V31.5898L514.938 31.4141ZM520.598 31.2031V30.6406H520V31.2031H520.598ZM529.527 31.0273L529.141 30.0781L529.914 30.8164L529.527 31.0273ZM518.066 30.8164L519.051 30.4297L520.211 30.6406L520.984 30.2539C520.914 28.8945 521.043 27.5469 521.371 26.2109L520.984 26.0352V25.2617L521.547 25.0508V24.6641L520.211 24.4883L519.824 25.2617H519.438V24.875L520 24.6641V23.8906L519.051 23.7148L517.469 24.4883L517.293 25.0508L516.52 25.4375L516.309 25.8242L516.098 26.3867L516.695 29.3047L517.293 30.4297L518.066 30.8164ZM530.512 30.4297L530.336 29.8672L531.109 29.4805L531.496 28.707H532.059L531.883 30.0781L530.512 30.4297ZM516.309 29.4805V28.918H515.711V29.4805H516.309ZM522.355 28.707V28.1445H521.758V28.707H522.355ZM513.988 27.9336V27.3711H513.391V27.9336H513.988ZM536.172 27.1602V26.3867H535.785L535.574 26.9844L536.172 27.1602ZM515.711 26.7734L515.324 26.3867V26.7734H515.711ZM521.547 24.2773V22.9414H520.598V23.3281L520.984 24.2773H521.547ZM532.27 24.2773V23.7148L531.285 23.5039V23.8906L532.27 24.2773ZM533.254 24.1016V23.7148L533.43 23.1172L532.832 22.9414L532.445 24.1016H533.254ZM517.293 23.5039V23.1172L516.695 22.9414V23.5039H517.293ZM542.957 23.3281V22.9414H543.344V23.3281H542.957ZM527.98 22.168L527.418 21.9922V22.3789L527.98 22.168ZM540.426 21.9922V21.6055L540.637 20.832L540.039 20.6211L539.652 21.3945L539.863 21.9922H540.426ZM538.879 21.6055L539.09 21.0078H538.703L538.281 21.7812L538.879 21.6055ZM538.105 21.3945V20.832H537.719V21.3945H538.105ZM536.945 21.2188V20.0586H536.348L535.785 20.2344V20.832L536.945 21.2188ZM512.793 20.4453V19.6719L512.406 18.5117L516.098 17.7383L516.695 18.125L516.906 17.1758H517.293V17.5625H517.855V17.1758H518.242L518.84 17.3516L519.824 16.9648L520.387 17.1758L520.984 16.9648L522.355 18.3359L521.969 18.5117L521.758 19.4609H521.16C520.645 19.0859 520.07 18.957 519.438 19.0742V19.4609L517.68 19.8477L513.602 19.4609V19.8477L512.793 20.4453ZM540.812 16.0156L540.25 15.8047V16.1914L540.812 16.0156ZM539.266 15.8047L538.492 15.0312V15.418L539.266 15.8047ZM541.41 15.6289V15.2422H541.023V15.6289H541.41ZM533.254 15.2422V14.8555H532.832V15.2422H533.254ZM537.121 14.293L540.039 13.3086C540.109 11.7852 540.18 10.25 540.25 8.70312H539.863L539.09 8.87891L537.895 8.49219V8.87891L538.105 9.47656L535.188 10.8125V11.375L536.348 12.3594L536.559 11.375L537.508 11.1992L537.895 11.375L538.105 12.3594L537.895 12.7461V11.7617H537.508L536.559 12.1484V12.5352H535.961L535.574 12.3594L535.363 12.9219L537.121 14.293ZM513.004 13.9062L512.406 13.6953V12.9219C514.492 12.1484 516.637 11.6328 518.84 11.375L520.387 11.5859L521.969 11.1992L522.742 11.5859L522.918 12.3594L521.969 12.7461L521.547 13.5195L519.051 13.6953L518.242 13.3086L516.309 13.5195L515.535 13.3086L515.324 13.6953H514.762L513.988 13.5195L513.004 13.9062ZM530.512 10.9883V10.4258H529.914L529.738 10.9883H530.512ZM541.621 10.4258L541.023 9.86328V10.4258H541.621ZM533.254 9.65234V9.08984H532.656V9.47656L533.254 9.65234ZM515.324 8.31641V7.71875L512.02 7.33203L511.844 5.60938C512.875 5.23438 514.035 5.10547 515.324 5.22266L515.711 2.33984H516.695V1.77734H517.855L518.066 2.16406H518.453L518.629 1.77734H519.227L520 4.44922L522.918 4.66016L524.078 4.44922L524.676 5.04688L524.887 4.44922L525.449 4.27344L525.66 5.43359L525.273 6.20703H524.887C525.004 6.83984 524.805 7.21484 524.289 7.33203L523.305 7.15625V7.54297L523.516 8.10547H522.918L521.547 7.54297L520.773 7.71875L520 7.92969L519.227 7.71875V8.10547L517.68 7.71875L516.906 8.10547V7.54297L517.082 6.94531L516.098 6.20703C516.238 7.09766 515.98 7.80078 515.324 8.31641ZM538.105 8.10547L538.703 7.33203L540.25 7.15625L540.637 3.88672L539.09 3.5V3.88672L539.652 5.22266H538.703L537.719 4.44922L537.508 5.04688L537.719 5.82031L536.945 6.20703V6.76953L537.719 7.15625L537.332 7.33203V7.92969L538.105 8.10547ZM529.738 7.92969L529.914 7.33203H529.352L529.141 7.92969H529.738ZM535.363 7.71875L535.574 6.76953L534.203 6.55859L533.641 6.76953L532.656 4.27344L531.285 3.88672V5.04688L532.059 5.43359V5.82031H531.672L530.512 5.43359L529.738 6.94531L529.914 7.54297C530.828 7.91797 531.871 8.04688 533.043 7.92969L534.801 7.33203L535.363 7.71875ZM520 7.54297L520.984 7.33203V6.76953L518.84 6.38281V6.76953L519.613 7.15625L520 7.54297ZM523.902 5.60938V5.22266L523.305 5.04688V5.43359L523.902 5.60938ZM530.125 4.83594V4.44922H529.738V4.83594H530.125ZM533.043 3.67578V3.28906L532.656 2.33984H532.059V3.28906L533.043 3.67578ZM536.945 3.11328L536.559 2.72656V3.11328H536.945Z" fill="#483D3F"/>
<path d="M452.884 37.7773L450.81 37.3906V36.6172H449.263L448.138 37.0039L446.239 36.0195L445.677 36.2305V36.6172L446.239 37.1797H445.501L444.903 36.2305H443.603L442.091 36.4062L441.317 36.0195C440.942 35.3867 440.251 35.1289 439.243 35.2461V34.8594H438.856V35.8438H438.083L437.345 35.2461H438.083V34.8594L436.571 34.2969V35.457L436.009 34.6836C434.813 34.918 433.618 34.918 432.423 34.6836L432.81 34.4727V33.9102L430.313 32.9609V33.3477L430.911 34.2969H430.138L429.751 33.5234H428.063V32.75H427.29L426.903 31.4141H427.29L427.501 30.6406H429.013L429.962 30.8164V31.2031L429.751 31.9766H430.138L430.7 31.0273L432.423 30.8164L433.372 31.4141L434.11 31.0273C435.517 31.1445 436.911 31.4609 438.294 31.9766L438.856 31.8008L440.192 31.9766V31.4141H439.806V31.0273L440.192 30.0781H440.579V29.4805L440.192 28.1445H439.806L439.63 27.3711L439.806 26.7734C439.173 26.1406 438.985 25.25 439.243 24.1016H439.981V23.7148C439.606 22.6836 439.489 21.5234 439.63 20.2344L440.368 18.5117L440.192 17.7383C440.567 16.707 440.813 15.6758 440.931 14.6445L440.368 14.293V13.9062C438.774 13.7891 437.192 13.6602 435.622 13.5195V13.1328L433.935 13.5195L433.372 13.3086L431.474 13.5195V14.293L431.86 15.0312H431.263L429.962 14.082L429.188 11.5859L430.138 11.7617L430.7 11.1992L432.212 11.375L432.423 10.6016H432.81L433.935 11.1992L435.833 10.9883L436.571 11.1992L438.47 10.6016L438.856 10.8125L438.47 11.7617L439.63 11.9727V11.375L441.142 10.9883L440.931 11.375H441.493C442.126 11 442.888 10.8711 443.778 10.9883L443.989 11.375C445.372 11.375 446.696 11.6328 447.962 12.1484L448.313 11.9727L448.911 12.9219H449.474V12.5352H449.86L452.497 13.3086L452.673 14.8555H453.271L453.446 16.0156H452.11L451.935 17.5625H451.548V17.1758L450.036 16.4023L448.911 16.0156V16.4023H448.313L447.962 15.418H447.399L446.802 15.6289L446.45 15.418V14.8555H446.063L444.903 15.0312L444.728 14.4688H444.341L444.165 14.8555H443.778L443.603 14.293L443.04 14.082L442.653 15.8047L443.603 16.5781C443.485 17.5391 443.298 18.5 443.04 19.4609L442.442 19.6719L442.267 20.4453H443.04V21.9922H442.442V22.7305C442.841 23.5039 442.97 24.3477 442.829 25.2617H442.267V25.8242L443.216 26.0352L443.603 28.918L442.267 29.3047V29.8672H443.216V30.2539L441.704 30.8164L441.493 31.2031H440.579V32.1875H441.142L441.704 31.5898L442.442 32.3633C444.856 32.7617 447.13 33.1484 449.263 33.5234L450.423 33.3477L453.446 33.7344L454.22 33.5234L454.396 32.75H456.083L456.856 34.1211C456.224 34.2383 455.907 34.6133 455.907 35.2461H455.521L455.345 36.6172H454.571L453.833 36.2305L453.446 37.1797L453.271 36.793H452.673L452.11 37.0039V37.3906L452.884 37.7773ZM453.446 36.2305V35.8438H453.06V36.2305H453.446ZM439.806 34.8594V34.2969H439.243V34.8594H439.806ZM435.06 33.9102V33.3477H434.497V33.9102H435.06ZM429.751 33.1367V32.5742L428.626 32.3633V33.1367H429.751ZM443.216 27.9336L443.392 27.3711H442.829L442.267 27.5469V28.1445L443.216 27.9336ZM442.829 17.7383L442.267 17.5625V17.9492L442.829 17.7383ZM442.442 16.5781L442.653 16.0156L441.493 15.8047V16.4023L442.442 16.5781Z" fill="#483D3F"/>
<path d="M398.246 42.3828V41.9961L397.121 41.4336L396.734 40.4492H395.961L396.347 38.9023H397.121C397.871 36.207 398.621 33.582 399.371 31.0273L398.633 31.2031L398.246 29.8672H397.472V30.6406L397.683 31.0273H396.172L394.66 30.2539V30.8164L395.222 31.5898H394.836L394.66 31.0273H394.062L393.5 31.2031L393.113 31.0273L392.164 31.4141L391.812 30.4297C390.664 30.1953 389.644 29.75 388.754 29.0938L388.578 28.5312L390.863 28.3203L391.426 28.5312L397.121 27.7578V28.3203H397.683L398.246 27.5469L400.531 27.3711V26.5977L399.195 25.2617L399.019 25.8242L398.808 23.8906H398.07L397.683 25.2617H398.07V25.6484H397.683L397.297 24.6641L397.859 23.3281L397.683 22.9414C398.316 23.3164 399.008 23.5039 399.758 23.5039L400.32 22.5547H399.195V22.168H399.582L399.758 21.2188L398.808 20.2344L398.633 21.0078L398.07 21.2188V22.168L396.734 22.5547L395.785 22.168L395.961 21.2188H395.574C395.199 21.9922 395.011 22.7539 395.011 23.5039L395.222 24.1016L395.574 25.2617L395.398 24.6641H394.836L394.449 25.0508V24.4883L395.222 24.2773V23.8906C394.847 23.6328 394.719 23.2461 394.836 22.7305L395.011 21.3945L394.836 20.6211L396.523 20.2344L397.121 20.832L397.859 20.2344L398.246 19.6719L399.019 19.8477L400.144 18.8984V17.1758L399.195 16.0156L399.582 15.2422L398.422 14.293L397.859 14.6445L397.297 14.4688V13.5195H396.734V14.293L395.961 14.4688L394.273 14.8555L392.761 14.4688V13.6953H393.711V13.3086L393.113 12.9219V12.5352H394.062L395.011 13.3086V13.6953H395.785V13.3086L395.574 12.7461H396.172L397.683 13.1328V12.7461H398.633L398.808 11.9727H399.371L400.32 12.5352V11.9727L399.582 10.9883H400.707L401.48 11.1992L401.832 10.9883L400.32 11.375V11.9727H400.707L400.883 12.5352H402.219L402.429 11.7617L402.219 11.375H402.605L403.554 12.1484L404.117 11.375V11.9727L403.554 12.9219H403.941L405.066 11.9727L405.242 11.375H405.629V10.8125H407.14L407.527 11.9727H408.09H407.527L406.754 11.7617L406.402 13.1328H407.703L408.301 12.9219V14.082L408.09 14.6445L406.578 15.418L406.402 16.1914H405.242L404.293 15.8047L403.941 16.5781L404.293 17.3516L403.73 17.1758L402.605 17.5625L402.219 18.6875L402.781 18.8984V20.0586H403.941V21.0078H404.504L405.242 19.0742L405.84 18.8984L405.453 19.8477H405.84L406.754 19.0742V18.5117H407.351L407.914 19.8477L407.351 22.168L406.578 21.6055L406.402 22.5547L407.527 23.3281V22.9414H407.914L408.09 23.5039L407.351 23.7148V24.1016L407.527 24.6641H406.754L406.402 23.3281H405.629V24.4883L406.015 25.0508H405.242L404.504 24.875L404.293 26.3867H404.679L405.242 26.2109L406.191 26.3867L407.703 26.2109L408.301 26.3867L411.113 26.0352L411.886 27.3711H411.5V27.7578L411.711 28.3203L410.937 28.707V29.4805L410.761 28.707H409.988L408.476 29.0938L407.703 28.5312V29.6914H407.14L406.578 28.707L406.015 28.5312L405.242 28.707V29.0938L405.629 30.0781H405.242L404.679 29.8672L403.344 32.5742L402.605 31.9766L402.043 33.1367L402.219 33.5234L401.656 33.7344V37.1797H400.707V37.7773L400.883 38.3398L400.531 39.1133H401.269V39.5L400.531 39.6758L400.144 40.6602L399.582 40.8359V40.4492H399.019V40.8359L399.371 41.8203L398.246 42.3828ZM400.707 39.5L400.32 39.2891V39.6758L400.707 39.5ZM400.883 37.0039V36.6172L399.758 35.6328V36.2305L400.144 37.0039H400.883ZM401.269 36.0195V35.457H400.707V36.0195H401.269ZM397.121 30.4297L397.297 29.8672H396.523V30.2539L397.121 30.4297ZM398.633 29.3047L398.246 28.918V29.3047H398.633ZM403.941 25.2617V24.875L403.73 24.4883H403.344L403.168 25.2617H403.941ZM392.551 24.6641L391.426 24.2773V23.8906L392.164 23.7148V23.3281L391.988 22.5547L392.375 21.2188L393.711 20.832L393.886 20.0586H393.324V19.6719H394.273L394.449 20.2344C393.816 21.4062 393.312 22.5664 392.937 23.7148L393.711 23.8906V24.2773L392.551 24.6641ZM399.933 24.6641L399.195 23.7148V24.2773L399.371 24.875L399.933 24.6641ZM403.941 24.2773L404.293 22.5547L403.344 24.1016L403.941 24.2773ZM400.32 22.168L400.707 21.3945L401.269 20.6211H399.758V21.9922L400.32 22.168ZM406.015 21.0078L406.402 20.2344H405.629L405.453 20.832L406.015 21.0078ZM407.351 21.0078L406.578 20.6211V21.2188L407.351 21.0078ZM400.883 19.2852V18.6875L401.48 18.5117V18.125H400.883L400.144 19.2852H400.883ZM403.554 18.6875L404.117 18.125V18.5117L403.554 18.6875ZM397.121 16.5781L396.347 16.0156H396.91L398.246 16.1914L397.121 16.5781ZM392.937 16.4023C393.57 16.1445 394.203 15.8867 394.836 15.6289L395.398 15.8047L395.574 16.4023H392.937ZM403.554 16.4023L402.429 15.418V16.0156L403.554 16.4023ZM401.269 16.1914V15.8047H400.883V16.1914H401.269ZM407.14 14.293L406.191 13.6953V14.082L407.14 14.293ZM405.84 13.9062L406.015 12.1484L406.754 11.1992H405.84C405.324 11.832 405.125 12.6641 405.242 13.6953L405.84 13.9062ZM394.449 13.5195V13.1328H394.062V13.5195H394.449ZM399.371 12.5352L398.808 12.1484V12.7461L399.371 12.5352ZM395.011 12.1484L394.836 11.5859L395.398 11.375L395.574 11.9727L395.011 12.1484ZM393.324 11.7617L394.062 11.375L394.273 11.7617H393.324ZM397.683 11.5859L396.91 10.8125H397.683V11.1992H398.246V11.5859H397.683Z" fill="#483D3F"/>
<path d="M346.987 35.4219L345.826 35.2109V34.8242L346.037 34.4375C347.045 33.6641 348.123 33.2188 349.272 33.1016L349.658 31.5547H350.608L350.959 30.3945L352.506 30.1836V29.6211H352.119L351.17 29.7969L351.733 29.0234L351.557 27.8633L352.682 27.6875V26.3164H352.119H352.682L352.893 23.9961H353.455L353.631 22.8359L353.455 22.2383L354.405 19.5312H354.967V19.1445L354.58 18.9688V18.582H354.967V17.9844L352.682 17.8086L352.119 17.9844L350.959 17.8086C350.326 18.4414 349.635 18.8281 348.885 18.9688L348.674 17.9844L346.776 17.5977V18.3711L347.725 18.7578L347.162 18.9688L346.987 18.3711H346.213V18.7578L344.104 19.1445V18.7578L345.826 17.5977L346.037 17.0352H345.264L344.49 17.4219C343.342 17.5391 342.522 17.2109 342.03 16.4375C343.928 15.1484 346.143 14.6328 348.674 14.8906L350.01 15.4883L351.557 15.2773L352.119 15.4883L353.631 15.1016V15.6641H354.018L354.791 15.2773V15.6641H355.178L355.354 14.7148L354.791 13.7305H355.178V12.7812L355.354 12.3945L354.58 12.0078V11.6211H355.178L355.916 11.7969V10.4609C355.237 10.4844 354.604 10.6719 354.018 11.0234V9.6875L354.791 9.86328L354.967 9.08984H355.74L356.127 9.86328L356.69 10.0742L356.865 8.91406H357.639L357.815 10.6367L358.201 11.0234L358.026 11.7969L358.799 12.0078L359.151 14.1172L358.975 14.5039L358.799 14.8906L359.362 15.6641H359.748V16.0508H360.311L360.873 15.4883C362.397 15.7461 363.862 16.0625 365.268 16.4375L366.006 16.2617L366.78 16.6484L368.502 16.4375L369.838 16.8242V17.2109H370.401H370.014V17.5977L370.225 18.1953L369.627 18.7578L368.291 18.9688L366.006 18.582V18.9688H365.057L362.033 18.1953V17.8086H361.26V18.3711H360.698L360.135 18.1953L359.748 18.9688H358.975V19.3555H357.639V19.7422L358.799 20.3047C359.174 22.3672 359.994 24.2422 361.26 25.9297L361.823 26.1406L362.983 28.0742L363.545 28.25V29.0234L365.057 29.2344L365.444 30.3945L366.217 30.7812V31.3438L365.83 32.1172L364.319 32.7148C363.686 32.3164 362.924 32.1875 362.033 32.3281L361.084 30.7812L360.487 30.5703V31.168L359.748 29.6211L359.362 29.4102V29.0234L359.537 28.4609L359.362 27.4766H358.975L358.588 28.6367H358.201L357.463 27.4766L356.303 27.0898L355.74 28.6367L355.178 28.8477C354.92 30.2539 354.217 31.4727 353.069 32.5039L351.944 32.8906L351.733 34.0508C350.584 34.4492 349.448 34.8359 348.323 35.2109L347.549 35.0352L346.987 35.4219ZM364.108 31.7305V31.168H363.545V31.7305H364.108ZM353.842 30.7812V30.3945H353.455V30.7812H353.842ZM365.057 30.0078V29.6211L364.705 30.0078H365.057ZM362.033 29.7969L362.209 29.2344H361.647V29.7969H362.033ZM353.842 26.7031L353.244 25.9297V26.5273L353.842 26.7031ZM358.975 26.7031L357.639 26.1406L357.463 26.7031H358.975ZM360.698 25.7539L360.311 25.3672V25.7539H360.698ZM354.58 25.543L354.229 25.1562V25.543H354.58ZM355.74 25.543V25.1562H355.354V25.543H355.74ZM354.405 24.9805V24.5938L354.58 23.9961H354.018L353.455 25.1562H353.842L354.405 24.9805ZM356.303 24.7695L355.74 24.3828V24.7695H356.303ZM357.076 23.3984L356.514 23.2227V23.6094L357.076 23.3984ZM355.53 22.4492L355.74 21.8516H354.791V22.2383L355.53 22.4492ZM369.451 18.582L368.678 17.8086L368.291 18.582H369.451ZM359.748 18.3711L359.924 17.8086H359.151V18.1953L359.748 18.3711ZM350.01 18.3711V17.4219L349.448 17.2109V18.3711H350.01ZM356.69 15.4883V15.1016H356.303V15.4883H356.69ZM355.74 13.9414L355.916 13.3438H355.354L355.178 13.9414H355.74ZM357.463 12.0078V11.2344L356.865 11.0234L356.69 12.0078H357.463ZM357.076 9.47656L356.69 9.08984V9.47656H357.076Z" fill="#483D3F"/>
<path d="M305.317 37.3555L303.594 35.5977L303.419 36.3711L304.192 36.9688L301.696 36.7578L300.923 36.9688L300.571 36.3711L302.083 35.2109L302.469 34.4375L304.755 34.0508L305.88 34.2617L309.501 33.4883L309.712 33.875H310.45L312.946 32.8906L313.333 34.0508H314.071V33.6641L313.895 33.1016L316.743 32.3281L317.692 32.7148L318.641 32.5039V32.8906L319.802 33.2773V32.8906L319.591 32.1172H321.876L322.087 32.8906H322.649L323.423 31.3438L324.161 31.168L324.759 32.1172L325.497 32.3281V32.7148L325.321 33.1016L325.497 33.4883L324.372 35.5977C323.364 36.1133 322.286 36.3711 321.137 36.3711L320.751 36.1953L319.802 36.582L318.852 36.3711L317.516 36.582L316.743 36.1953L316.567 36.582H316.18L315.02 36.3711V35.9844H314.458V36.3711L311.997 36.7578L311.048 35.8086V36.582L309.712 36.7578V35.9844H308.938L308.552 36.9688L307.989 36.3711L306.653 37.1445L305.317 36.582L305.141 36.9688L305.317 37.3555ZM305.704 36.1953L304.93 35.8086V36.1953L305.317 36.582L305.704 36.1953ZM321.876 35.9844L321.524 35.5977V35.9844H321.876ZM305.141 35.4219V34.8242H304.544V35.4219H305.141ZM316.567 34.2617V33.6641H315.794V34.2617H316.567ZM316.743 33.2773V32.8906L315.969 32.5039V32.8906L316.743 33.2773ZM311.61 26.7031C310.344 26.3281 309.009 26.1992 307.602 26.3164L306.829 26.5273L304.368 26.1406V25.543L307.427 24.3828V25.3672H307.989L308.762 23.7852H309.712L311.048 23.9961C311.798 23.5977 312.618 23.4688 313.509 23.6094L313.684 24.1719H314.282C315.805 23.6562 317.387 23.2695 319.028 23.0117C318.864 24.1133 318.864 25.2148 319.028 26.3164H317.903L317.305 26.1406C316.673 26.5156 315.981 26.6445 315.231 26.5273L314.282 26.3164L312.946 26.7031H311.61ZM315.618 25.9297L315.02 25.7539V26.1406L315.618 25.9297ZM320.364 25.543V25.1562L319.977 24.3828H319.591V23.3984H319.977L320.751 25.543H320.364ZM304.544 16.6484L303.419 15.4883C305.317 15.2305 307.098 14.6445 308.762 13.7305L311.048 14.1172L311.61 13.9414V14.5039H312.384L312.559 13.7305H312.946L313.333 13.9414V14.5039H313.895C316.427 13.7305 319.028 13.0859 321.7 12.5703L322.262 13.9414L321.313 14.3281V14.7148L319.977 14.8906V15.4883C317.118 15.8398 314.259 16.0977 311.399 16.2617L310.661 16.0508L310.098 16.2617L307.989 16.0508L306.653 16.6484L305.88 16.2617C305.622 16.6367 305.177 16.7656 304.544 16.6484Z" fill="#483D3F"/>
<path d="M253.96 35.2461L252.8 34.6836L252.624 34.1211L252.8 33.3477C252.05 32.832 251.605 32.1172 251.464 31.2031L252.238 30.0781L251.464 29.0938L251.851 27.9336L252.413 27.1602L251.464 25.6484L253.187 25.0508V24.4883H252.238V23.5039L252.8 21.9922H252.062L251.675 22.168L251.464 21.3945L252.062 19.2852L252.624 18.8984V18.3359L252.238 16.7891C252.753 16.2734 252.941 15.5586 252.8 14.6445H252.413L252.624 14.082L252.062 13.3086L251.851 12.1484L251.288 10.9883H251.851V10.25L252.238 10.8125L252.8 10.9883V10.6016L252.624 9.86328L253.96 9.65234L254.136 9.08984H253.749L253.363 8.10547L253.96 7.92969L254.347 9.26562L254.909 9.47656V8.31641L254.698 7.71875L255.296 7.54297L255.472 7.92969H255.859L256.245 7.71875L256.632 7.92969L256.984 6.76953H256.421V6.38281H256.808L257.37 7.15625H257.933L258.144 6.55859H258.706V5.82031L260.218 5.60938V5.22266L260.042 4.66016L260.991 4.44922V3.88672H260.605L261.554 3.5L262.152 3.67578L262.327 2.90234H263.488V3.28906L263.277 4.0625H263.663V4.66016H264.226V5.99609H264.999L265.175 7.33203L263.839 8.70312L261.554 9.65234L261.202 9.47656L260.816 10.25L259.269 10.9883L259.093 12.1484H259.48L260.218 11.7617L260.991 12.5352L261.765 12.1484L262.327 12.5352L263.101 12.1484H263.839C264.495 11.5156 265.257 11.1992 266.124 11.1992V11.5859H265.562V11.9727L266.335 12.1484V13.9062H266.722L267.284 13.6953V13.1328L267.46 13.6953L266.722 14.082L266.511 16.4023L266.898 18.6875L266.124 20.0586L266.722 20.2344L266.898 21.3945L266.335 22.9414H265.948L265.773 23.8906L266.124 25.0508L265.773 25.8242L265.175 26.2109V26.7734L265.773 27.9336L265.386 29.0938C264.613 29.3516 264.355 29.9258 264.613 30.8164L264.823 31.9766H263.663L263.277 33.5234L262.152 33.7344L261.202 32.9609H261.765L260.991 32.1875V31.5898L261.378 31.4141V30.8164L261.202 30.2539H260.042V29.4805H258.531L258.32 30.0781L257.195 30.2539V29.8672L257.37 29.3047H256.632L256.421 30.6406L256.984 31.2031L256.245 32.5742H255.859L255.472 32.3633V32.9609L256.034 33.5234H256.632V33.9102L256.034 34.2969V34.6836L253.96 34.2969V34.6836V35.2461ZM253.573 34.4727V33.9102H253.011V34.4727H253.573ZM274.702 33.9102L274.316 33.7344L274.14 32.9609L272.031 32.3633V31.4141C274.445 30.5234 276.988 29.8203 279.659 29.3047V28.707H279.273L280.046 25.4375L281.171 25.2617V24.875L280.433 24.4883L280.609 23.8906H281.171V22.7305V21.3945H281.945V20.832L281.769 20.0586L282.156 19.2852L281.769 17.9492C282.261 16.4023 282.706 14.8555 283.105 13.3086V12.9219L282.718 11.7617L282.331 11.5859L281.945 10.8125L280.82 10.6016L280.433 11.5859L278.886 11.7617L277.761 11.5859L276.601 11.9727L275.476 10.8125L275.3 11.9727L273.964 12.1484L273.577 15.2422H273.015L272.804 15.8047L270.906 16.5781L269.956 15.8047L269.745 14.082L269.956 13.5195L269.745 11.9727C270.378 11.832 270.636 11.4453 270.519 10.8125L270.906 10.25L270.695 9.65234L271.081 8.10547C271.597 7.84766 271.796 7.40234 271.679 6.76953L272.417 3.67578H273.015L275.089 4.0625L275.863 3.88672L276.038 4.44922L275.863 5.04688L276.038 5.60938L275.652 7.54297L276.425 7.92969L276.988 9.86328L276.812 10.4258H277.198L278.148 9.26562L279.484 8.87891L280.222 9.08984L280.995 8.49219L281.769 8.70312L283.456 7.71875L284.23 8.10547L284.792 7.92969L285.179 8.49219H285.777L286.128 9.65234H286.726V10.0391L285.777 10.8125V11.375H286.515L286.726 10.6016L287.077 10.8125C286.445 11.3281 286.198 11.9727 286.339 12.7461L285.566 12.3594V12.9219L286.726 13.9062V14.4688L286.128 14.8555V15.418H286.515L287.077 15.0312V15.418L285.566 16.4023V17.3516H285.179V18.8984L286.128 20.6211H285.566V21.2188L285.39 21.7812L285.566 22.9414L284.441 23.3281V23.8906L285.179 24.1016V24.6641H284.792L284.23 24.4883L283.456 24.6641V25.4375L284.441 25.6484H285.179L284.23 26.3867L284.616 27.3711L285.179 27.9336H284.441V27.5469H284.054L283.667 28.5312L283.105 28.3203C282.706 28.8359 282.577 29.4805 282.718 30.2539H283.843V30.6406L282.156 31.0273L281.558 32.75L280.609 32.9609L280.222 32.1875H279.659V32.9609L279.097 32.75L276.988 33.7344V33.1367L275.3 32.75L274.913 33.7344L274.702 33.9102ZM256.632 29.0938V28.5312H256.034V28.918L256.632 29.0938ZM257.581 29.0938V28.5312H256.984V29.0938H257.581ZM261.554 28.918V28.3203L261.202 28.918H261.554ZM255.648 28.1445V27.5469L255.085 28.1445H255.648ZM258.32 27.7578V27.3711H257.933V27.7578H258.32ZM281.171 27.3711V26.7734H280.433V27.1602L281.171 27.3711ZM262.538 26.9844V26.2109C262.656 25.0625 262.902 23.9727 263.277 22.9414L263.101 22.3789H261.765V23.1172H261.378L261.202 22.5547H260.816L260.218 23.8906H259.656L259.093 23.7148L257.933 24.2773L257.195 23.7148L256.984 24.1016L255.859 24.4883L255.648 25.4375C256.163 25.8359 256.808 25.9648 257.581 25.8242L259.269 25.4375V26.0352L258.917 26.3867L259.48 26.5977C259.972 25.707 260.734 25.3906 261.765 25.6484V26.0352L261.378 26.9844H262.538ZM253.363 26.3867L252.8 25.8242V26.5977L253.363 26.3867ZM281.558 26.3867L280.995 25.6484V26.5977L281.558 26.3867ZM255.648 26.0352V25.4375H255.085V26.0352H255.648ZM284.054 23.1172L283.105 22.7305V23.3281L283.667 23.5039L284.054 23.1172ZM258.917 22.9414V22.5547H258.531V22.9414H258.917ZM259.656 22.7305L260.042 21.2188H259.656L259.269 22.7305H259.656ZM285.003 22.168L284.616 21.3945L284.054 21.2188V21.9922L285.003 22.168ZM278.71 21.9922L277.585 21.3945L276.812 21.6055V21.2188C275.921 20.9609 275.031 20.7031 274.14 20.4453L273.964 18.8984L274.316 18.5117H274.702L274.913 17.9492L275.476 17.7383C275.991 18.1367 276.566 18.2656 277.198 18.125V18.5117L276.038 18.8984V18.3359H275.476L274.913 19.4609L277.761 19.8477V20.2344H278.148V19.4609L277.761 18.8984L279.097 18.6875L279.273 19.8477L279.097 20.6211L279.659 21.0078L278.886 21.6055L278.71 21.9922ZM256.421 21.7812V20.6211H256.034L255.859 21.7812H256.421ZM263.101 20.832L263.488 19.6719H262.714V20.4453L262.538 20.832H263.101ZM261.202 19.8477L261.765 19.4609L261.941 20.4453H262.714V19.8477L262.538 18.6875L264.05 19.0742L264.437 15.2422L264.226 14.6445H263.839L263.488 15.418H262.327L261.378 15.0312L261.202 15.6289L259.48 15.8047L258.706 15.418L257.195 15.6289L256.632 15.418C256.116 16.4492 255.859 17.5391 255.859 18.6875L257.757 19.6719L258.144 19.4609C258.402 19.8594 258.777 19.9883 259.269 19.8477L259.48 19.0742H260.218L261.202 19.8477ZM278.886 19.8477V19.2852H278.323V19.8477H278.886ZM285.179 19.6719L283.667 18.8984V19.2852L285.179 19.6719ZM286.339 17.7383L286.128 16.9648H286.726V17.5625L286.339 17.7383ZM253.363 16.9648L253.573 16.0156H253.187L252.8 16.7891L253.363 16.9648ZM285.179 16.5781V16.0156H284.792L284.616 16.7891L285.179 16.5781ZM260.218 15.0312V14.4688H259.656V15.0312H260.218ZM253.363 13.5195V13.1328L253.011 13.5195H253.363ZM264.823 12.5352L264.05 12.1484V12.5352H264.823ZM256.632 11.5859V10.9883H256.034V11.5859H256.632ZM279.273 10.25L278.886 9.86328V10.25H279.273ZM285.566 10.25V9.86328H285.179V10.25H285.566ZM276.425 9.26562L276.601 8.49219H275.863V9.47656L276.425 9.26562ZM283.843 8.31641L283.281 8.10547V8.49219L283.843 8.31641ZM257.757 7.92969V7.33203H257.195V7.92969H257.757ZM259.656 6.76953V6.38281H259.269V6.76953H259.656Z" fill="#483D3F"/>
<path d="M211.456 38.1641C210.706 36.9922 210.261 35.6445 210.121 34.1211L210.507 32.5742H211.07V32.1875C210.179 31.1562 209.804 29.9375 209.945 28.5312L210.331 27.7578L210.894 27.5469L211.456 25.0508H211.843L213.003 23.3281L214.726 23.1172L214.902 22.168H215.886V22.7305H216.835L217.222 21.9922H218.347L219.121 23.5039L218.945 22.9414H218.347V24.2773L220.667 25.2617L221.054 26.7734L220.456 29.3047L221.23 31.0273L221.054 31.8008L220.843 32.1875L221.054 32.5742H220.456V33.1367L221.617 33.3477L221.792 35.2461L222.777 36.2305L222.179 37.3906L221.441 37.5664C220.785 36.793 219.953 36.5352 218.945 36.793L218.558 35.0703L216.835 34.4727L216.062 34.1211C215.289 34.6133 214.972 35.3164 215.113 36.2305L214.164 36.793H213.39V37.5664L211.456 38.1641ZM212.054 36.4062L212.441 35.6328H212.054L211.667 36.6172L212.054 36.4062ZM220.667 35.8438L220.281 35.457V35.8438H220.667ZM221.23 34.6836V34.1211H220.843V34.6836H221.23ZM213.566 34.4727L215.113 32.3633H215.499C215.617 31.7305 215.804 31.0859 216.062 30.4297L215.886 29.6914L216.624 29.3047L216.835 27.9336L216.624 27.5469L216.835 27.1602H217.609L217.996 25.4375L217.011 25.0508H217.398V24.4883H215.886C215.371 24.8633 214.796 25.0508 214.164 25.0508C213.132 26.457 212.429 27.9336 212.054 29.4805L212.23 30.4297H211.843V31.0273L212.054 32.75L211.667 33.9102C212.183 34.4258 212.816 34.6133 213.566 34.4727ZM211.281 29.0938L211.456 28.3203H210.894V29.0938H211.281ZM212.617 25.6484V25.0508H211.843L212.617 25.6484Z" fill="#483D3F"/>
<path d="M195.989 34.8594C195.473 34.3672 195.216 33.6641 195.216 32.75L195.778 31.4141C195.286 31.0156 195.098 30.4414 195.216 29.6914L194.829 28.707L195.216 27.5469H195.602V27.1602L195.216 26.9844V25.8242L196.376 21.7812L197.712 21.6055L198.45 22.9414L198.274 23.5039L198.661 25.4375L198.098 26.2109L198.274 28.3203H198.661C198.919 29.2344 199.106 30.1367 199.223 31.0273L198.661 31.9766H199.048L199.399 31.5898L199.048 32.5742L199.223 33.3477C198.966 33.8633 198.52 34.1211 197.887 34.1211L197.114 34.4727L196.552 34.2969L196.376 34.8594H195.989ZM197.712 33.7344V33.3477L196.376 32.9609V33.3477L197.712 33.7344ZM196.165 16.4023L195.04 15.8047L194.477 16.0156L194.266 15.2422H193.88V14.082H193.493V13.3086H193.88V14.082H194.266C194.641 13.4492 195.216 13.1328 195.989 13.1328L196.762 14.4688H197.712L196.762 15.0312L196.165 16.4023Z" fill="#483D3F"/>
<path d="M169.869 41.2227C169.377 40.5898 169.19 39.8164 169.307 38.9023L169.694 37.5664C169.553 34.8711 169.295 32.2461 168.92 29.6914C168.92 27.5117 169.049 25.3203 169.307 23.1172C169.424 21.8516 169.108 20.832 168.358 20.0586L167.795 19.8477L167.022 18.6875L169.869 19.4609C170.385 19.0859 170.959 18.957 171.592 19.0742L173.877 19.2852L174.264 19.0742H175.389V19.4609H175.987L176.936 19.0742L177.498 20.2344H178.061L178.834 20.0586C178.951 20.832 179.209 21.5352 179.608 22.168L179.397 22.9414H179.783L180.17 24.6641L179.959 26.2109C179.209 26.0938 178.647 26.2812 178.272 26.7734L177.112 29.0938L175.987 29.3047L175.776 28.707H175.213L174.826 29.4805H174.053L173.701 29.3047L173.104 28.918L172.928 29.6914H172.155V30.0781L171.416 28.918L170.819 28.707C170.983 30.2773 171.053 31.8242 171.03 33.3477L171.592 35.0703L171.205 37.7773L171.592 39.1133L170.643 40.6602H170.256V41.0469L169.869 41.2227ZM175.987 26.0352L176.549 25.2617C177.698 23.9727 178.201 22.3672 178.061 20.4453H177.674L177.323 21.0078H176.936L176.162 20.6211V20.2344H175.389L175.037 20.832H174.264L173.315 20.6211L172.365 20.832L172.155 22.3789H171.768V22.9414L171.979 23.8906L171.03 24.2773C171.24 25.0508 171.24 25.8242 171.03 26.5977C171.522 26.9727 172.096 27.1016 172.752 26.9844C173.76 26.5859 174.838 26.2695 175.987 26.0352ZM179.608 25.2617L178.834 24.6641V25.4375L179.608 25.2617ZM179.608 24.1016L179.221 23.7148V24.1016H179.608Z" fill="#483D3F"/>
<path d="M153.91 29.8672L151.414 28.918V28.3203H151.801V26.5977L151.238 24.2773L152.75 23.3281V22.7305L152.011 22.168L152.398 21.0078H152.011L151.414 21.2188L151.027 21.0078L150.851 19.8477L151.801 19.6719L152.574 19.8477L153.523 19.6719V20.0586H153.91L154.859 19.6719L155.633 19.8477L156.019 18.5117L156.582 18.3359L156.793 18.8984L157.355 19.0742L157.566 18.6875L158.515 18.5117L158.902 17.5625H160.801L162.734 19.6719L162.347 19.8477V20.4453C162.347 21.8516 162.605 23.1289 163.121 24.2773L162.523 25.4375H162.136L161.961 26.7734L161.187 26.9844V27.5469H160.027V27.9336L159.465 28.1445L159.078 29.3047L158.515 29.4805L157.918 29.0938C157.683 29.4922 157.238 29.6211 156.582 29.4805L156.019 29.3047L155.246 29.4805L154.472 29.3047C154.613 29.8203 154.426 30.0078 153.91 29.8672ZM157.742 27.3711L158.691 26.3867L160.414 25.2617C160.812 24.0898 160.941 22.8008 160.801 21.3945L159.289 20.6211L155.246 22.5547L154.683 22.3789C154.051 23.2695 153.863 24.3594 154.121 25.6484C154.613 26.1406 154.801 26.7734 154.683 27.5469L156.582 27.7578L157.742 27.3711ZM152.574 26.2109V25.8242H152.187V26.2109H152.574ZM154.297 23.1172V22.3789L153.91 21.6055L154.121 21.0078H153.523L152.574 21.3945V22.3789L153.523 22.7305L154.297 23.1172Z" fill="#483D3F"/>
<path d="M134.435 34.6484C133.919 33.6172 133.661 32.5156 133.661 31.3438L133.872 30.3945C133.755 28.9648 133.685 27.5469 133.661 26.1406L134.224 24.7695C133.731 24.3711 133.544 23.8555 133.661 23.2227L133.872 22.8359L133.661 22.4492L134.435 21.8516V20.9023H133.872V20.5156L134.224 19.918H133.485L131.938 20.3047V20.9023L130.04 21.0781C129.618 20.3984 129.044 19.8828 128.317 19.5312V18.1953C129.466 17.4219 130.743 17.0352 132.149 17.0352L133.485 17.5977L134.821 16.8242L134.997 16.0508L133.872 14.8906V14.3281L134.435 12.957L135.384 12.7812L135.56 13.3438L136.72 13.7305V14.1172H137.106V14.8906L137.669 15.1016V17.4219L139.392 17.9844V17.5977H141.466V20.3047H141.853L142.239 19.3555L142.063 18.7578L143.188 18.1953V18.582C142.556 19.0977 142.298 19.8008 142.415 20.6914L142.063 21.2891H141.079L139.778 21.0781L139.567 21.8516L139.392 21.0781H139.005L138.794 19.918L137.282 19.7422V21.0781C136.907 22.1094 136.72 23.2109 136.72 24.3828L135.771 24.7695V25.543L136.509 26.1406V27.4766L136.157 28.4609L137.106 28.8477L136.896 29.4102H136.509V29.7969L136.72 30.3945L136.157 31.3438H137.106L137.669 31.7305L139.392 31.5547L139.954 32.5039H139.181L139.005 33.2773L136.333 34.0508L135.771 33.6641L135.56 34.0508L134.435 34.6484ZM140.903 32.5039L140.341 31.3438H140.903V32.5039ZM140.517 20.6914V19.918H139.954V20.6914H140.517ZM140.13 19.3555H140.517L141.079 18.582L140.341 18.1953V18.7578L139.778 19.3555H140.13ZM135.173 12.0078V11.0234L135.384 10.6367L135.56 11.7969L135.173 12.0078Z" fill="#483D3F"/>
<path d="M112.709 37.5664L110.6 37.0039V36.4062H110.038L108.877 35.6328V35.0703H108.315L108.139 34.2969L107.752 34.1211V33.3477H108.139L108.702 33.7344L109.475 34.4727L112.499 35.457L113.096 35.2461L114.045 35.457C115.428 35.3164 116.635 34.6133 117.667 33.3477L118.229 31.9766L118.018 31.0273L118.229 30.4297L117.842 28.918L118.229 27.7578L116.717 27.5469V26.9844L117.667 26.5977V26.2109C116.776 26.3281 116.014 26.1406 115.381 25.6484L114.221 25.8242C113.706 25.1914 113.073 24.9336 112.323 25.0508L111.936 25.2617L110.038 24.4883V23.8906L110.213 23.3281H109.651L110.811 23.1172L111.163 21.9922H112.709L113.659 22.3789L114.221 21.0078C113.846 20.375 113.717 19.6016 113.834 18.6875L114.221 16.9648L113.272 16.7891V16.0156L114.784 15.2422L115.381 15.418V14.8555L114.221 14.293C114.479 13.1211 114.924 12.0898 115.557 11.1992H116.331V10.8125L115.733 9.86328H116.12L117.069 10.6016V10.0391L116.893 9.65234H117.28L118.018 9.86328L118.792 7.92969L119.354 7.33203C120.01 7.84766 120.713 8.30469 121.463 8.70312L121.85 10.0391L120.901 10.25L120.514 11.1992L119.952 10.0391L119.354 9.86328L119.002 11.375C117.713 12.1484 116.823 13.2383 116.331 14.6445H115.944V15.6289L116.506 18.3359L116.12 19.0742L115.17 19.2852V19.8477L115.944 20.0586L117.069 19.4609L118.018 22.168L117.842 22.7305H119.002L119.741 23.7148L120.338 23.3281L121.077 23.7148C121.077 23.0586 121.393 22.8008 122.026 22.9414V23.3281H121.639V23.8906H120.901V24.2773L121.077 24.875L120.514 25.2617C120.139 26.2695 119.952 27.3594 119.952 28.5312L120.69 28.707V29.0938L120.338 29.3047V30.0781L119.741 30.2539V31.0273H120.127V31.8008L119.354 34.2969L118.018 35.8438H117.456L116.717 35.6328L116.506 36.4062L116.717 37.0039L112.709 37.5664ZM118.792 29.4805L118.405 29.0938V29.4805H118.792ZM118.616 27.5469V27.1602L119.002 26.2109L118.229 26.0352L117.842 27.5469H118.616ZM114.221 25.2617V24.6641H113.659V25.2617H114.221ZM115.733 24.4883L115.557 24.1016H115.17L114.995 24.6641L115.733 24.4883ZM116.506 24.2773L117.456 24.1016V23.7148L115.944 23.3281V24.4883L116.506 24.2773ZM114.608 23.1172L114.784 22.3789H114.221V23.1172H114.608ZM123.573 14.293L123.186 14.082L122.975 12.7461L122.624 12.5352L122.237 11.7617L121.85 11.5859V10.9883L122.799 10.4258C123.549 11.1992 123.807 12.1602 123.573 13.3086L123.362 13.9062L123.573 14.293Z" fill="#483D3F"/>
<path d="M94.8164 38.1641C94.0664 36.9922 93.621 35.6445 93.4804 34.1211L93.8671 32.5742H94.4296V32.1875C93.539 31.1562 93.164 29.9375 93.3046 28.5312L93.6914 27.7578L94.2539 27.5469L94.8164 25.0508H95.2031L96.3632 23.3281L98.0859 23.1172L98.2617 22.168H99.246V22.7305H100.195L100.582 21.9922H101.707L102.48 23.5039L102.305 22.9414H101.707V24.2773L104.027 25.2617L104.414 26.7734L103.816 29.3047L104.59 31.0273L104.414 31.8008L104.203 32.1875L104.414 32.5742H103.816V33.1367L104.977 33.3477L105.152 35.2461L106.137 36.2305L105.539 37.3906L104.801 37.5664C104.144 36.793 103.312 36.5352 102.305 36.793L101.918 35.0703L100.195 34.4727L99.4218 34.1211C98.6484 34.6133 98.332 35.3164 98.4726 36.2305L97.5234 36.793H96.75V37.5664L94.8164 38.1641ZM95.414 36.4062L95.8007 35.6328H95.414L95.0273 36.6172L95.414 36.4062ZM104.027 35.8438L103.641 35.457V35.8438H104.027ZM104.59 34.6836V34.1211H104.203V34.6836H104.59ZM96.9257 34.4727L98.4726 32.3633H98.8593C98.9765 31.7305 99.164 31.0859 99.4218 30.4297L99.246 29.6914L99.9843 29.3047L100.195 27.9336L99.9843 27.5469L100.195 27.1602H100.969L101.355 25.4375L100.371 25.0508H100.758V24.4883H99.246C98.7304 24.8633 98.1562 25.0508 97.5234 25.0508C96.4921 26.457 95.789 27.9336 95.414 29.4805L95.5898 30.4297H95.2031V31.0273L95.414 32.75L95.0273 33.9102C95.5429 34.4258 96.1757 34.6133 96.9257 34.4727ZM94.6406 29.0938L94.8164 28.3203H94.2539V29.0938H94.6406ZM95.9765 25.6484V25.0508H95.2031L95.9765 25.6484Z" fill="#483D3F"/>
<path d="M73.4077 31.0273L72.2827 29.8672V28.5312L73.021 23.3281L72.8452 22.7305L73.2319 21.2188L73.021 19.8477L73.2319 19.2852L71.896 16.5781H72.6694L74.1812 18.125L74.7437 19.2852L76.0796 19.4609L76.2554 18.8984L77.9429 18.3359V16.7891L78.7163 16.5781L79.4897 17.3516V16.0156L79.2788 15.6289L81.1772 14.293L82.3022 16.4023L81.353 15.8047V16.4023L81.7397 17.1758L81.353 17.7383L80.0522 17.1758V18.125L79.4897 17.5625L78.3296 17.1758L78.1538 17.7383C78.9038 18.3711 79.7241 18.8164 80.6147 19.0742L79.6655 20.4453L78.7163 21.2188V21.7812L77.3804 21.9922L76.8179 23.5039L75.8687 23.8906V24.2773L76.0796 25.0508C75.3062 26.5977 74.8608 28.2734 74.7437 30.0781L75.1304 30.6406L74.3569 30.4297L73.4077 31.0273ZM78.1538 21.6055V20.832L77.3804 20.4453V21.6055H78.1538ZM81.353 15.418L80.7905 15.2422V15.6289L81.353 15.418Z" fill="#483D3F"/>
<path d="M59.2061 36.3711C57.917 35.8555 56.6396 35.4102 55.374 35.0352L54.6006 33.875H54.2139L53.8271 34.0508V33.4883H54.2139L54.8115 33.6641L55.1982 31.7305L54.0381 31.168V31.7305H53.6514V30.957L52.1045 30.0078L51.9287 29.2344L52.7021 28.6367V27.4766L51.7178 26.9141V27.3008H51.1553L50.9795 26.5273L52.1045 26.3164L52.7021 26.5273L52.8779 25.543L52.7021 24.9805L52.8779 23.3984L51.9287 22.8359L51.7178 22.2383H52.7021V21.6758L52.4912 20.9023L52.7021 20.3047L52.4912 19.7422L53.6514 17.8086L55.1982 17.4219C55.1982 16.7656 55.3857 16.1797 55.7607 15.6641L55.374 15.4883L55.7607 14.5039L58.4326 12.3945H58.9951L59.7686 12.7812L60.9287 12.1836L62.6514 12.7812L63.4248 14.8906L63.0381 15.875H62.6514V16.4375H63.2139V17.2109H62.8271L61.7021 16.2617L60.9287 16.4375L59.5928 15.6641L57.4834 16.8242C56.335 18.8867 55.5029 21.1484 54.9873 23.6094H54.6006V23.9961C54.6006 25.4258 54.8584 26.7148 55.374 27.8633L55.1982 28.6367L55.374 29.7969L56.9209 30.1836V31.3438H57.8701L56.9209 31.5547V32.1172L57.2725 32.7148H57.8701L58.2568 33.2773L59.9795 33.6641C60.7295 32.7734 61.8076 32.3867 63.2139 32.5039L63.9873 33.1016V33.4883H63.6006V33.875L63.9873 34.8242L63.4248 35.0352V35.4219H62.0889L61.3154 35.2109V35.8086L60.9287 35.2109H60.542L59.9795 36.3711H59.2061ZM58.9951 35.8086L58.4326 35.0352V35.5977L58.9951 35.8086ZM54.6006 29.0234L54.2139 28.0742H53.4756L53.0889 28.8477L54.6006 29.0234ZM61.3154 15.6641L60.9287 15.2773V15.6641H61.3154Z" fill="#483D3F"/>
<path d="M4.18359 32.5742V32.1875L4.74609 29.0938L4.35938 28.1445L2.10938 26.9844L1.89844 26.3867L4.74609 24.875L5.51953 25.2617L6.08203 23.3281H5.13281V22.168L5.51953 21.3945C5.63672 19.9883 5.32031 18.7695 4.57031 17.7383C2.92969 17.8789 1.47656 17.5625 0.210938 16.7891L0 16.0156L0.5625 14.6445H3.97266L4.74609 14.8555L5.30859 13.3086L4.92188 10.4258L6.43359 9.26562C7.32422 11.0703 7.76953 13.0625 7.76953 15.2422L8.33203 15.418L9.66797 14.8555L9.84375 15.6289H10.2305L10.6172 14.8555L11.3906 14.6445L11.0039 13.5195L11.1797 12.9219H10.0547C10.5 11.2812 10.6875 9.61719 10.6172 7.92969H11.5664L11.9531 6.76953L12.6914 8.31641H12.1289V8.87891L13.2539 9.08984V9.86328L13.8516 10.0391V10.6016L13.2539 10.9883V11.5859L14.0273 16.0156H14.4141L15.1523 15.6289L15.5391 16.4023L15.3633 17.3516L15.9258 18.6875L15.75 19.0742H15.3633L14.8008 18.8984C13.6523 19.5312 13.207 20.4922 13.4648 21.7812L13.6406 23.7148H15.75V24.4883L14.4141 24.875L14.0273 26.5977L14.2031 27.5469L13.8516 28.5312L14.0273 29.3047L13.8516 30.0781L14.0273 30.6406L13.6406 30.8164V31.4141L14.0273 32.1875L13.0781 32.5742L11.3906 32.1875L10.4414 32.3633L10.0547 32.1875V31.5898C10.5469 30.6992 10.7344 29.7383 10.6172 28.707L10.2305 27.9336H7.76953C7.39453 29.3633 6.94922 30.7812 6.43359 32.1875L5.30859 32.3633L4.74609 32.1875L4.18359 32.5742ZM9.49219 24.875C10.125 24.6172 10.7578 24.3594 11.3906 24.1016L11.5664 23.3281L11.0039 22.168L10.4414 21.2188L10.6172 19.0742H8.33203C8.16797 20.7617 7.98047 22.4375 7.76953 24.1016L9.49219 24.875ZM15.1523 18.3359V17.9492L14.8008 18.3359H15.1523ZM10.0547 17.1758V16.5781H9.49219V17.1758H10.0547ZM5.13281 15.418L4.74609 15.0312L4.57031 15.6289L5.13281 15.418ZM12.3398 12.9219L11.7422 12.7461V13.1328L12.3398 12.9219ZM13.8516 7.92969L13.6406 7.15625L14.5898 6.94531V7.92969H13.8516Z" fill="#483D3F"/>
<path d="M482.852 45.0771L481.587 43.9958L480.77 43.9748C480.524 43.7504 480.138 43.7116 479.611 43.8584L478.753 43.4646L478.7 42.9822L479.453 41.0522L479.387 40.4601L480.833 40.1676L480.795 39.8167L480.303 39.7376L480.264 39.3867L480.906 39.1829L480.879 38.9417L481.633 38.3924L482.008 39.0614L482.53 39.1371L482.228 39.4145L482.255 39.6557L482.937 39.8247L483.141 38.9365L482.283 38.5428L481.851 37.6359L482.343 37.4484L482.439 36.9495L482.767 36.9134L483.464 37.214L483.411 36.7315L482.824 36.0636L481.504 35.854L481.531 36.0952L480.726 36.1839L479.895 36.0314L479.827 35.4173L479.35 35.4699L479.037 35.6376C478.974 35.0674 478.593 34.6211 477.894 34.2986L476.735 34.1822L476.708 33.9409L477.364 33.8687L479 33.9325L479.079 34.6562L479.556 34.6037L479.816 33.9535L481.908 33.5009L482.546 33.5416L483.968 33.0298L484.186 33.3609L484.662 33.3084L485.223 32.6473C485.887 32.6481 486.424 32.5075 486.836 32.2254L487.474 32.266L488.103 31.9525L489.399 31.9429L490.028 31.6294L490.71 31.7983L490.684 31.5571C492.494 31.1948 494.236 30.7587 495.909 30.2487L496.126 30.5798L496.603 30.5273L496.55 30.0448L497.206 29.9725L497.396 30.3289L496.77 30.3979L496.809 30.7488L497.628 30.7917L498.006 31.4826L498.539 31.668L497.883 31.7402L497.8 32.3488L497.305 32.5143L497.183 32.7719L496.855 32.8081L496.828 32.5668L496.351 32.6194C496.623 33.0778 496.495 33.3804 495.969 33.5272L495.6 33.1906L495.123 33.2431L495.084 32.8922L495.341 32.4866L494.864 32.5391L493.978 33.2583L493.952 33.0171L493.445 33.0729L493.484 33.4238L492.53 33.5289L492.503 33.2877L492.876 32.2921L492.399 32.3447C491.805 32.9725 491.612 33.6819 491.819 34.4729L491.995 34.6977L491.236 33.5605L490.73 33.6163L490.848 34.6909L490.52 34.7271L490.183 34.409L489.528 34.4813L489.444 35.0899L488.147 35.366C488.318 35.8207 488.198 36.1964 487.789 36.4931L487.225 37.3988L486.435 37.619L486.324 37.9864L486.512 38.3208L486.278 39.2122L485.363 39.6682L485.325 39.3174L484.997 39.3535L484.547 39.6473L484.235 38.4608L483.758 38.5134L483.781 40.0869L483.467 40.2546L483.494 40.4958L483.971 40.4433L485.718 39.8734L487.026 39.9733C488.373 39.4253 489.853 38.9811 491.464 38.6407L491.953 38.6978L491.874 37.9741L491.553 36.4334L492.533 36.5695L492.796 35.9413L491.812 36.0497L491.759 35.5672L492.087 35.5311L492.769 35.7L492.728 35.3272L492.362 35.0125L494.338 35.1498L494.733 35.7278L495.564 35.8803L495.618 36.3628L495.507 36.7301L494.538 36.9701L495.885 37.4209L496.578 39.0538L497.23 39.226L497.989 41.4555L497.046 41.9367L497.1 42.4192L497.576 42.3667L497.63 42.8491L497.016 43.0278L496.158 42.634L496.131 42.3927C495.659 42.1193 495.099 42.0625 494.453 42.2225L493.854 42.5327L492.776 41.7859L491.972 41.8745L491.548 42.4096L491.071 42.4621L488.89 42.1032L488.642 42.8631L488.028 43.0417L487.333 42.7631L487.36 43.0043L487.536 43.2291L486.91 43.2981L485.572 43.2014C485.289 43.5581 484.875 43.7222 484.329 43.6936L484.397 44.3076L484.724 44.2715L483.631 44.7472L482.96 44.6879L482.852 45.0771ZM494.888 43.1513L494.545 43.0559L494.861 42.9101L494.888 43.1513ZM483.017 40.5484L482.294 40.0066L482.347 40.4891L483.017 40.5484ZM490.438 39.7304L490.397 39.3576L489.92 39.4102L489.961 39.783L490.438 39.7304ZM495.869 38.6435L495.828 38.2707L495.172 38.343L495.199 38.5842L495.869 38.6435ZM485.447 39.0597L485.379 38.4456L484.575 38.5343L484.628 39.0168L485.447 39.0597ZM484.703 38.0541L484.662 37.6813L484.334 37.7174L484.208 38.2196L484.703 38.0541ZM486.245 37.2626L486.206 36.9118L485.196 36.7789L485.222 37.0202L485.711 37.0772L485.738 37.3185L486.245 37.2626ZM486.328 36.6541L486.275 36.1716L485.429 35.8875L485.483 36.37L485.673 36.7264L486.328 36.6541ZM480.699 35.9427L480.181 35.6224L480.208 35.8637L480.699 35.9427ZM483.292 35.6569L483.225 35.0428L482.706 34.989L482.488 35.7456L483.292 35.6569ZM484.152 34.6965L483.797 34.4914L483.824 34.7326L484.152 34.6965ZM491.534 33.5277L491.508 33.2864L491.291 32.6888L490.814 32.7413L490.867 33.2238L491.057 33.5802L491.534 33.5277ZM496.038 32.7871L495.997 32.4143L495.669 32.4504L495.573 32.9493L496.038 32.7871ZM489.193 32.8091L489.139 32.3266L488.812 32.3627L488.686 32.8649L489.193 32.8091ZM497.568 31.886L497.529 31.5351L497.052 31.5877L497.091 31.9386L497.568 31.886ZM498.239 30.5911L498.201 30.2403L498.707 30.1844L498.746 30.5353L498.239 30.5911ZM482.736 30.6129L482.161 31.4134L481.959 30.9474L480.963 30.9461L480.99 31.1873L481.192 31.6534L480.539 31.4811L480.224 31.6269L480.036 31.2925L479.026 31.1596L479.079 31.6421L479.407 31.606L479.434 31.8472L479.106 31.8833L478.561 31.3218L478.233 31.358L478.344 30.9907L477.623 30.2043L477.707 29.5958L478.023 29.45L478.363 29.5235L478.39 29.7648L479.343 29.6596L479.934 28.9953L480.262 28.9591L480.601 29.0326L480.883 30.2224L481.211 30.1863L481.748 29.0394L481.093 29.1117L481.066 28.8704L481.722 28.7982L482.863 29.0275L483.492 28.714L483.645 28.4531L484.625 28.5892L484.721 28.0903L485.049 28.0541L485.128 28.7779L485.784 28.7056L485.704 27.9819L487.302 27.6948L487.546 28.2673L488.037 28.3463L487.931 27.3813L488.586 27.3091L489.224 27.3497L490.497 26.8543L490.524 27.0955L491.626 26.974L492.119 26.7866L492.321 27.2526L492.225 27.7515L492.553 27.7154L492.427 28.2176L493.232 28.1289L493.271 28.4798L492.847 29.0148L492.042 29.1035L491.729 29.2712L490.898 29.1187L490.951 29.6011L490.474 29.6537L489.804 29.5944L489.529 30.113L488.262 30.3858L489.341 29.7785L489.449 29.3893L489.121 29.4254L488.03 29.9231L487.907 30.1807L486.337 30.709C486.393 30.3033 486.139 30.0057 485.575 29.8163L484.061 29.4948L484.102 29.8676L484.43 29.8315L484.946 30.1298L485.178 30.5926L485.505 30.5565L485.559 31.0389L484.006 30.3665L484.033 30.6078L484.441 31.2953L484.113 31.3315L483.705 30.6439L483.377 30.68L483.199 30.4287L482.736 30.6129ZM482.954 31.2151L482.462 31.136L482.489 31.3773L482.954 31.2151ZM482.737 30.6174L482.71 30.3762L482.382 30.4123L482.409 30.6536L482.737 30.6174ZM487.237 30.1214L487.199 29.7705L486.722 29.8231L486.748 30.0643L487.237 30.1214ZM481.741 30.6162L481.715 30.3749L481.387 30.4111L481.413 30.6523L481.741 30.6162ZM480.407 30.275L479.915 30.1959L479.942 30.4372L480.407 30.275ZM487.172 29.5293L486.818 29.3242L486.844 29.5654L487.172 29.5293ZM492.179 28.9774L492.138 28.6046L491.81 28.6407L491.851 29.0136L492.179 28.9774ZM479.259 30.2682L479.233 30.027L478.905 30.0631L478.932 30.3043L479.259 30.2682ZM485.849 29.2977L485.811 28.9468L485.483 28.983L485.387 29.4819L485.849 29.2977ZM485.155 29.0191L485.116 28.6682L484.49 28.7372L484.529 29.0881L485.155 29.0191ZM493.018 27.5532L492.991 27.3119L493.099 26.9227L493.427 26.8866L493.796 27.2233L493.018 27.5532ZM488.801 27.8848L488.297 27.6961L488.338 28.0689L488.801 27.8848Z" fill="#483D3F"/>
<path d="M496.841 26L496.413 25.7025V25.51L496.53 25.23H496.316L496.005 25.3175L495.577 25.125L495.363 25.23L495.266 24.9325L495.48 24.6525L495.052 24.46L494.741 23.41L494.838 23.1125L494.624 22.7275L494.741 22.15L494.624 21.6775C494.844 20.9775 494.987 20.2775 495.052 19.5775L494.954 19.0875C495.227 18.3875 495.506 17.6875 495.791 16.9875L495.363 16.69L495.266 16.9875L492.737 17.2675V17.46C492.245 17.3317 491.927 17.4308 491.784 17.7575L491.998 18.1425H492.212L492.621 17.95L492.523 18.4225V18.8075L491.998 18.895L491.473 18.7025L491.356 19H491.045V19.28L491.998 19.4725L492.095 19.8575L492.951 20.05L493.048 20.33L493.36 20.435L493.476 20.82L493.36 21.205L492.835 20.9075L492.523 21.0125V21.2925L492.621 21.485L491.998 21.6775L491.57 21.59V21.87L491.687 22.255L491.57 22.64L491.784 23.41H491.57L491.162 23.2175V23.41L491.473 23.6025V23.9875L490.52 24.355L490.092 24.2675L489.684 24.355L489.353 24.2675L488.42 24.355L487.992 24.1625V23.795L488.206 23.305L487.992 22.535H488.206V22.8325H488.517L488.614 22.535L488.206 21.975L487.68 21.87V21.59L488.206 21.1C487.778 21.1 487.389 21.0067 487.039 20.82V21.0125H486.727L486.416 20.6275H486.202V20.33H486.514L486.63 19.77C487.291 19.8517 487.953 19.8517 488.614 19.77V18.51H488.828L489.256 18.615V18.1425L488.828 16.9875H488.303L487.894 16.69C488.024 17.075 487.914 17.3025 487.564 17.3725V16.9875L486.514 16.6025L486.202 16.69L485.677 16.4975L484.938 16.6025L484.102 16.4975V16.2175L486.825 15.5525L487.039 16.13H487.35L487.467 15.745L488.614 15.4475V15.8325H488.945L489.256 15.255L489.159 14.205L489.47 13.6275L489.256 13.2425L489.898 13.6275V14.1175H489.567V14.3975L490.209 14.485V14.2925L490.948 14.205V13.925L490.617 13.6275C490.98 13.6975 491.194 13.6042 491.259 13.3475L490.52 13.2425L490.092 13.3475L489.781 12.665H489.567L489.47 12.9625L489.353 12.5775L489.898 12.385L490.306 12.5775L490.52 12.105L490.948 12V12.1925L490.734 12.28L490.52 12.8575H490.734L491.356 12.28H491.687V12.4725L492.309 12.5775V12.9625L492.212 13.155L492.523 13.3475L492.095 13.435L491.687 13.6275L491.356 13.54L491.162 14.0125L491.57 14.1175L491.356 14.59L490.52 14.87V15.255L490.948 15.36L491.473 15.1675L491.687 15.745L492.309 15.4475L492.212 15.745H492.426L492.951 15.5525L493.885 15.745C494.598 15.675 495.305 15.5467 496.005 15.36L496.316 15.4475V15.255H497.62L498.359 15.4475V16.025C498.087 16.2817 497.983 16.6317 498.048 17.075L498.146 17.3725L498.262 17.565L498.146 18.1425L497.834 18.3175V18.615L498.146 18.7025L497.834 18.895V19.385L498.048 19.9625L497.62 20.435H497.834V22.0625L497.523 22.64L498.146 22.8325V23.025L498.048 23.305H498.359L498.476 23.8825C499.176 24.3258 499.948 24.5183 500.791 24.46L501.102 24.1625V24.6525H500.674L500.577 25.0375H500.052L498.844 25.615L497.483 26L497.055 25.895L496.841 26ZM492.426 18.7025L492.523 18.4225H492.095V18.615L492.426 18.7025ZM490.734 18.615V18.3175L490.948 17.95L490.306 17.7575V18.4225L490.734 18.615ZM491.998 18.23L491.57 18.0375V18.3175L491.998 18.23ZM498.048 17.845V17.18H497.737V17.845H498.048ZM490.306 17.46V17.18H490.092L489.995 17.46H490.306ZM489.781 15.745L489.353 15.64L489.256 15.9375H489.47L489.781 15.745ZM490.423 15.64V15.4475L489.781 15.255V15.5525L490.423 15.64ZM492.835 15.255V14.975H493.048V15.1675L492.835 15.255ZM491.784 15.1675V14.87L491.687 14.485L492.095 14.3975V14.87H492.309V15.0625L491.784 15.1675ZM491.162 14.59V14.2925H490.831L490.734 14.59H491.162ZM491.881 13.3475V13.155L491.473 12.9625L491.162 13.435L491.881 13.3475Z" fill="#483D3F"/>
<path d="M484.315 23L483.781 22.5916C483.847 22.329 483.735 22.1977 483.445 22.1977L483.129 22.2707L482.793 21.8768H482.259L481.943 21.1475L480.855 20.8266V20.6661H480.539V20.4327L480.658 20.1848L479.788 20.0243L479.472 18.9011L479.037 18.8136L478.918 18.3323L478.602 18.0989L478.72 17.8509H478.167L478.503 17.6175V17.3695L478.384 17.0486L478.602 16.7277L478.068 16.5673L477.949 16.013H477.534V15.8525H477.851V15.6045L477.732 15.2836L477.851 14.8023H477.534L477.416 15.0502H477.099V14.4814L477.534 14.4084V14L478.167 15.1232H478.503L478.819 15.0502L479.472 15.2107L479.57 15.6045L479.887 15.6921L480.104 15.2107L479.788 14.6418L480.005 14.1605H480.322L480.756 15.3712L480.658 15.6921C480.934 15.7407 481.112 15.9011 481.191 16.1734H480.855V16.4943L480.974 16.7277L480.658 17.0486L481.29 17.2966L481.508 18.0113H481.725L482.041 18.5802L482.595 18.9741L482.793 19.5429H483.01L483.346 19.47L483.445 19.7909L483.346 20.0243L484.413 20.4327L484.631 20.7536L485.599 20.9141V21.1475L487.102 21.7164V21.8768L486.252 21.9498V22.1102L486.351 22.3582L486.252 22.1977H485.817L485.501 22.5186H485.283V22.6791H484.532V22.9125L484.315 23ZM484.749 22.4311V22.1977H484.413V22.4311H484.749ZM470.952 22.2707V22.0373H470.636L470.319 22.1102L470.201 21.7893L470.734 21.7164L470.853 21.3079L470.319 21.1475L470.102 21.3955V21.235L470.319 20.987L470.636 20.6661L470.418 20.5932V20.1118L471.387 20.4327L471.505 20.1848L471.169 20.0243L470.952 19.222L471.07 18.9741L471.288 19.222H471.822V18.9011L472.355 18.6532L472.474 18.3323L472.138 18.2593L471.169 18.6532L471.822 18.2593L472.039 17.53L472.889 17.2091L473.324 17.9384L473.66 18.0113L473.759 17.778H474.51L475.38 17.9384V18.1718H474.727V18.3323L474.826 18.6532L474.51 19.1345L474.075 19.0616L473.858 19.5429L474.194 20.1848H473.976L473.858 19.8639L473.324 19.9514V20.1848H473.541V20.7536L473.443 21.0746H473.66L473.976 20.9141V21.1475H473.541V21.3955H473.008V21.7893L472.573 21.8768V22.0373L472.138 22.1977V22.0373H472.474V21.8768L471.604 21.7893V22.0373H471.07L470.952 22.2707ZM482.259 21.0746V20.8266H481.943V21.0746H482.259ZM472.889 20.5932V20.3452L472.138 20.2723V20.4327L472.889 20.5932ZM473.541 19.7034L473.66 19.3825H473.324V19.7034H473.541ZM480.223 19.47L480.005 19.3096V19.47H480.223ZM482.377 19.1345V18.9741L482.041 18.9011L481.943 19.1345H482.377ZM473.106 18.8136L472.672 18.5802V18.8136H473.106ZM479.037 18.2593L479.136 18.0113L478.819 17.9384V18.2593H479.037ZM472.889 18.1718L473.008 17.8509L472.672 17.778L472.474 18.2593L472.889 18.1718ZM474.51 18.0113L474.075 17.8509V18.0989L474.51 18.0113ZM480.658 17.9384V17.778H480.44V17.9384H480.658ZM473.443 17.4571L473.66 17.3695V17.1361H473.443V16.7277L473.541 16.3339H473.759C473.693 16.7618 473.838 17.0535 474.194 17.2091V17.0486H474.411V17.3695L473.443 17.4571ZM472.79 16.8152L472.889 16.4943H473.106V16.7277L472.79 16.8152ZM480.658 16.7277V16.4068L480.539 16.1734H480.322L479.887 16.2464V16.6548L480.658 16.7277ZM479.472 16.4943L479.887 15.9254L479.254 16.0859L479.136 16.4068L479.472 16.4943ZM480.855 16.0859L480.539 15.765L480.44 16.1734L480.855 16.0859ZM478.72 16.013V15.6921H478.384V16.013H478.72ZM479.57 15.8525V15.6921L479.136 15.5316V15.8525H479.57Z" fill="#483D3F"/>
<path d="M477.25 17L477.439 16.5574L476.785 16.4098L476.595 15.9672H476.406L476.131 16.3428L476.595 16.7049H475.941V16.4903H475.752L475.373 16.5574L475.098 16.4903L474.908 16.7049H474.719L474.254 16.4903V16.3428L474.529 16.2623V15.9672H474.34L474.065 16.0477L473.789 16.4903L473.307 16.6379L473.118 16.7049V16.0477H472.842L472.653 16.2623V15.9001L472.842 15.4575L472.274 15.31L472.102 15.377L474.822 15.082L475.373 15.1624C475.625 15.0104 475.907 14.9613 476.217 15.0149L476.406 15.082L476.595 14.8674H476.785V14.7198L476.217 14.4918L476.406 14.4247V14.2772C476.153 14.1252 476.062 13.9285 476.131 13.687L476.681 13.0969H476.406L476.217 12.8689H476.406V12.4262L474.994 12.1311V11.9031H474.719V12.0507H474.443C474.122 11.9076 473.996 11.6885 474.065 11.3934L474.151 11.2459H473.686V11.4605H473.496V11.608L473.686 11.9031H473.307L473.118 11.608L473.221 11.1654H473.032L472.756 11.2459L472.463 10.0656L473.496 9.9851C474.438 10.2802 475.471 10.4277 476.595 10.4277L476.871 9.9851H476.681V9.83756L476.974 9.77049V9.54247L476.871 9.03279C477.066 8.7377 477.163 8.4158 477.163 8.06706L477.439 8L477.818 8.06706L477.904 8.44262L478.093 8.50969L478.283 9.03279L477.714 9.18033V9.39493L478.196 9.47541V9.62295L478.093 9.83756L478.472 9.91803L478.558 10.4277L478.472 10.6557C479.218 10.8525 480.033 10.924 480.917 10.8703L481.089 10.8033L482.225 11.0984L482.311 11.4605L482.69 11.541L482.036 11.6885V12.3592L481.76 12.5738L481.382 12.6542L481.089 12.5738V12.8689L480.349 12.8018L480.073 12.8689L479.97 12.6542H479.78L479.04 12.8018V12.6542H478.661L478.369 12.7213L478.283 13.0969H478.007V13.2444L478.196 14.1297L477.904 14.7869L478.196 14.8674L478.369 14.7198C478.69 14.9613 479.069 15.1088 479.505 15.1624C479.757 15.0104 480.039 14.9613 480.349 15.0149L481.089 15.1624L481.192 15.8197H481.468V15.2295H482.036L482.415 15.31L482.879 15.2295L483.809 15.5246L483.999 15.9001L483.723 16.2623L484.102 16.3428V16.6379H483.534L482.966 16.4098V16.5574L483.258 16.7049V16.9329H483.069L482.879 16.7049H482.415V17H482.225L481.846 16.6379L481.657 16.7049L481.571 16.4903L481.192 16.4098L480.624 16.7854L480.435 16.4098H479.97L479.694 16.6379L479.591 16.3428H479.229L478.937 16.4098L478.661 16.3428V16.4903L478.093 16.2623V16.4098L478.196 16.7854L477.904 16.8525L477.439 16.7854L477.25 17ZM478.007 16.7049V16.5574L477.714 16.4903V16.7049H478.007ZM475.098 16.4098V16.1952H474.908L474.822 16.4098H475.098ZM481.089 16.3428V16.1148H480.813V16.3428H481.089ZM475.287 15.9672V15.6721H475.098L474.994 15.9001L475.287 15.9672ZM483.069 15.4575L482.776 15.377V15.5246L483.069 15.4575ZM476.974 14.4247V14.1967H476.681V14.4247H476.974ZM478.747 12.5067L478.472 12.3592L478.369 12.5738L478.747 12.5067ZM479.78 12.5738V12.4262H479.97V12.1311H479.694L479.316 12.1982L479.04 12.0507L478.937 12.2787C479.189 12.4754 479.471 12.5738 479.78 12.5738ZM480.349 12.1982L480.159 12.0507V12.1982H480.349ZM476.32 11.9836L476.217 11.608L475.941 11.541V11.7556L476.32 11.9836ZM475.562 11.9031V11.608H475.373L475.098 11.8361V12.0507H475.287L475.562 11.9031ZM475.476 11.4605L475.184 11.3934L474.822 11.6885L475.098 11.7556L475.476 11.4605ZM478.283 10.7228V10.3607L478.472 10.0656L478.093 9.9851L478.007 10.2131H477.818V10.5082L478.283 10.7228ZM477.439 9.54247L477.163 9.47541V9.62295L477.439 9.54247Z" fill="#483D3F"/>
<path d="M490.071 11.6962L489.306 10.2506L488.686 10.0863L487.703 10.4477L487.521 9.8892L487.703 9.36353L487.521 8.83786L487.921 8.11506C487.508 7.6332 487.375 7.03086 487.521 6.30806L486.318 6.11094L484.351 6.47234L483.768 8.83786L484.169 10.2506L481.983 10.612V10.2506L480.599 10.0863V9.00213H481V8.64073C480.465 8.15887 480.138 7.55653 480.016 6.83374C478.146 6.76803 476.3 6.71327 474.479 6.66946L473.896 6.83374L472.33 4.86247C474.297 4.3806 476.398 4.08491 478.632 3.97539L479.433 4.13967L480.198 3.05547L479.615 2.8912V1.4456L480.016 1.28133V0.919926L479.615 0.722799V0.3614H480.417L481.983 0.722799L481.801 1.4456L481.4 2.00412H481.801L482.566 1.807L483.368 2.8912L482.785 3.614L485.153 3.77827C486.464 3.77827 487.508 3.41687 488.286 2.69407L487.703 2.00412L487.921 1.4456L487.703 1.0842H488.504V0.3614L489.888 0.197127V0.558527L489.087 0.722799V1.28133L489.67 1.4456L489.888 1.0842L490.471 0.919926L490.872 0H491.273L491.673 2.5298L490.872 2.69407V3.2526H492.256L493.021 3.05547L494.224 3.2526L494.806 3.05547L495.389 3.2526L496.774 3.05547L497.393 3.2526L497.174 4.33679L497.393 5.05959L496.009 6.30806L495.79 5.78239L495.207 5.58527V6.30806H494.624L493.641 5.78239L493.422 6.30806L491.856 6.66946L491.673 9.19926L490.289 10.0863V10.612L491.054 10.8091L491.273 10.2506L491.455 10.8091L490.071 11.6962ZM482.967 9.36353V8.83786H482.165V9.36353H482.967ZM482.967 2.8912V2.33267H482.384V2.8912H482.967ZM490.071 2.5298L490.289 2.00412H489.488L490.071 2.5298ZM491.673 2.33267V1.807H491.054V2.33267H491.673Z" fill="#483D3F"/>
<path d="M476.821 27L476.994 26.5082L476.394 26.3443L476.221 25.8525H476.047L475.795 26.2697L476.221 26.6721H475.621V26.4337H475.448L475.1 26.5082L474.848 26.4337L474.674 26.6721H474.501L474.075 26.4337V26.2697L474.327 26.1803V25.8525H474.153L473.901 25.9419L473.648 26.4337L473.207 26.5976L473.033 26.6721V25.9419H472.78L472.607 26.1803V25.7779L472.78 24.3884L472.26 24.2245L472.102 24.299L474.595 23.9711L475.1 24.0605C475.332 23.8916 475.59 23.837 475.874 23.8966L476.047 23.9711L476.221 23.7327H476.394V23.5687L475.874 23.3154L476.047 23.2409V23.9747C475.816 23.8058 475.732 23.5872 475.795 23.3189L476.3 22.6632H476.047L475.874 22.4098H476.047V21.918L474.753 21.5902V21.3368H474.501V21.5007H474.248C473.954 21.3418 473.838 21.0984 473.901 20.7705L473.98 20.6066H473.554V20.845H473.38V21.0089L473.554 21.3368H473.207L473.033 21.0089L473.128 20.5171H472.954L472.702 20.6066L472.433 19.2951L473.38 19.2057C474.243 19.5335 475.19 19.6975 476.221 19.6975L476.473 19.2057H476.3V19.0417L476.568 18.9672V18.7139L476.473 18.1475C476.652 17.8197 476.742 17.462 476.742 17.0745L476.994 17L477.341 17.0745L477.42 17.4918L477.594 17.5663L477.768 18.1475L477.247 18.3115V18.5499L477.689 18.6393V18.8033L477.594 19.0417L477.941 19.1311L478.02 19.6975L477.941 19.9508C478.625 20.1694 479.372 20.2489 480.182 20.1893L480.34 20.1148L481.382 20.4426L481.46 20.845L481.808 20.9344L481.208 21.0984V21.8435L480.955 22.082L480.608 22.1714L480.34 22.082V22.4098L479.661 22.3353L479.409 22.4098L479.314 22.1714H479.141L478.462 22.3353V22.1714H478.115L477.846 22.2459L477.768 22.6632H477.515V22.8271L477.689 23.8107L477.42 23.6433L477.689 23.7327L477.846 23.5687C478.141 23.837 478.488 24.0009 478.888 24.0605C479.12 23.8916 479.377 23.837 479.661 23.8966L480.34 24.0605L480.435 24.7908H480.687V24.1351H481.208L481.555 24.2245L481.981 24.1351L482.834 24.4629L483.007 25.7779L482.755 26.1803L483.102 26.2697V26.5976H482.581L482.06 26.3443V26.5082L482.328 26.6721V26.9255H482.155L481.981 26.6721H481.555V27H481.382L481.034 26.5976L480.861 26.6721L480.782 26.4337L480.435 26.3443L479.914 26.7615L479.74 26.3443H479.314L479.062 26.5976L478.967 26.2697H478.636L478.367 26.3443L478.115 26.2697V26.4337L477.594 26.1803V26.3443L477.689 26.7615L477.42 26.8361L476.994 26.7615L476.821 27ZM477.515 26.6721V26.5082L477.247 26.4337V26.6721H477.515ZM474.848 26.3443V26.1058H474.674L474.595 26.3443H474.848ZM480.34 26.2697V26.0164H480.087V26.2697H480.34ZM475.021 25.8525V24.6269H474.848L474.753 25.7779L475.021 25.8525ZM482.155 24.3884L481.887 24.299V24.4629L482.155 24.3884ZM476.568 23.2409V23.8852H476.3V23.2409H476.568ZM478.194 22.0075L477.941 21.8435L477.846 22.082L478.194 22.0075ZM479.141 22.082V21.918H479.314V21.5902H479.062L478.714 21.6647L478.462 21.5007L478.367 21.7541C478.599 21.9727 478.856 22.082 479.141 22.082ZM479.661 21.6647L479.488 21.5007V21.6647H479.661ZM475.968 21.4262L475.874 21.0089L475.621 20.9344V21.1729L475.968 21.4262ZM475.274 21.3368V21.0089H475.1L474.848 21.2623V21.5007H475.021L475.274 21.3368ZM475.195 20.845L474.927 20.7705L474.595 21.0984L474.848 21.1729L475.195 20.845ZM477.768 20.0253V19.623L477.941 19.2951L477.594 19.2057L477.515 19.459H477.341V19.7869L477.768 20.0253ZM476.994 18.7139L476.742 18.6393V18.8033L476.994 18.7139Z" fill="#483D3F"/>
</svg>
