<svg width="248" height="90" viewBox="0 0 248 90" fill="none" xmlns="http://www.w3.org/2000/svg">
<path d="M198.159 62.854L198.282 61.2427L199.143 60.1994C199.916 59.5161 200.666 59.1966 201.393 59.2411L201.65 59.5307L201.939 59.2745C201.906 58.4589 202.301 57.8437 203.123 57.4291L203.842 57.0745L204.215 57.4958L204.636 57.1231L204.421 56.562L204.843 56.1893L206.615 56.1232L206.257 55.4538L207.408 54.1543C208.379 53.4831 209.374 52.9462 210.395 52.5437L212.148 50.758L214.25 49.3672L214.646 49.8148L215.763 49.0612L215.549 48.5002C217.607 47.4304 219.236 45.8946 220.438 43.8925L221.413 43.8276L221.348 42.8523L224.666 39.917L225.178 40.4962L226.908 44.7861L227.669 45.3805L228.009 46.3476L228.596 46.1096L228.729 48.0105L229.308 47.498L229.681 47.9193L230.035 48.6383L230.325 48.382L230.698 48.8033L230.276 49.1761L229.333 49.5418L229.788 50.6406L230.707 51.0952L230.417 51.3515L228.935 51.1612L228.513 51.534L228.713 52.3431L229.241 52.6743L228.605 53.7063L227.521 53.9141C226.997 54.8783 226.435 55.7986 225.833 56.6751L225.329 56.3703L224.908 56.743C225.327 57.217 225.558 57.779 225.602 58.4292L226.132 58.7107L225.843 58.967L224.345 59.0248L223.732 60.0833L222.656 59.7684L222.433 58.9329L222.143 59.1892L221.63 58.6099L221.209 58.9827L220.58 58.2718L219.86 56.6089L218.495 57.3473L217.941 57.0395L217.843 56.6101L218.132 56.3539L220.579 56.2543L221.027 55.8583L220.547 54.7332L219.694 55.2538L219.76 54.1621L219.388 53.7408L218.32 55.7178L217.808 55.1386L217.593 54.5775L216.277 55.7424L216.02 55.4527L216.468 55.0567L215.955 54.4775L216.245 54.2212L217.453 54.4196L217.129 53.2043L214.946 53.0708L214.623 53.873L214.25 53.4517L211.685 55.4866L211.38 55.991L211.124 55.7014L210.676 56.0975L210.395 56.6282L209.386 57.239L209.104 57.7697C206.788 59.8198 204.405 61.5836 201.957 63.0612L201.205 63.9616L200.557 63.5485L199.996 63.7633L199.847 64.1775L199.217 63.4666L198.995 62.6311L198.159 62.854ZM220.335 82.6643L220.541 81.7305L220.277 81.1664L221.319 80.0097L222.271 79.9184L222.188 79.2409L222.609 78.8682L223.982 78.4042L224.818 78.1813L224.991 77.7934L225.555 77.529L225.174 76.8332L225.622 76.4372L226.472 75.9662L226.754 75.4354L228.715 74.7334L228.631 74.0558L229.342 73.4268L230.038 73.046L229.036 71.9138L229.326 71.6575L229.07 71.3679L228.682 71.1948L227.812 69.9461L227.522 70.2024L227.009 69.6231L226.455 68.0949L225.412 67.2342L224.635 64.8705L225.654 63.6875L226.795 64.9776L227.116 66.2425L227.531 66.3924L227.745 66.9534L228.441 66.5725L228.185 66.2829L228.606 65.9102L229.16 66.218L229.45 65.9617L229.6 65.5475L229.789 66.9289L228.118 67.3747L228.374 67.6643L229.078 67.5579L228.616 68.2021L229.226 69.2107L230.641 68.4753L230.593 69.2693L230.965 69.6906L232.049 69.4828L231.594 70.4014L231.809 70.9625L232.776 70.6231L233.239 69.9789L236.218 68.0939L236.169 66.8704L235.763 66.9951L235.506 66.7054L236.086 66.1929L235.573 65.6137L235.863 65.3574L236.375 65.9366L236.665 65.6804L237.559 64.0913C236.731 64.3229 235.903 64.5546 235.076 64.7863L234.613 65.4305L234.124 64.8775L233.769 64.1585L233.238 63.877L233.057 62.7701L231.213 63.6038L231.469 63.8934L231.179 64.1497L230.502 64.2328L230.311 64.9185L229.904 65.0431L229.4 64.7383L228.971 64.8366L227.423 63.6711L227.215 62.5874L234.207 55.3687L235.174 55.0293L236.522 55.3856L236.969 54.9896L237.119 54.5754L237.797 54.4922L238.84 55.353L239.311 56.2036L239.759 55.8076L240.015 56.0972L240.727 57.4856L241.446 57.1311L242.067 57.5675L241.488 58.08L242 58.6593L242.29 58.403C242.646 59.089 243.151 59.6594 243.804 60.1144L243.499 60.6188L243.895 61.0664L244.55 60.957L244.773 61.7925L245.443 62.2319L245.591 63.8848L244.624 64.2241L244.839 64.7852L244.549 65.0415L244.011 65.2826L243.194 65.2077L241.984 67.0764L242.109 67.4825L241.819 67.7388L241.563 67.4491L241.115 67.8452L240.818 68.624L239.264 69.2015L239.37 69.9053L238.535 70.1282L237.749 71.5746L237.798 70.7805L237.691 70.0767L237.153 70.3178L237.41 70.6074L237.12 70.8637L236.443 70.9468L236.269 71.3347L236.922 72.0719L235.722 73.3684L235.078 72.9056L234.788 73.1619L235.135 74.4035L234.398 75.0558L233.769 74.3449L233.48 74.6012L232.356 77.0978L231.181 76.3535L230.76 76.7263L230.776 78.4956L229.907 79.2644L228.244 79.9846L227.342 81.2993L226.755 81.5373L226.183 82.3243L224.596 83.4477L224.314 83.9784L223.527 83.4073L222.27 84.0029L221.898 83.5817L221.543 82.8626L220.335 82.6643ZM221.17 82.4414L221.211 81.3729L220.921 81.6292L221.17 82.4414ZM225.671 81.7451L226.506 81.5222L225.738 80.6533L225.448 80.9096L225.671 81.7451ZM225.845 77.2727L226.134 77.0164L225.878 76.7268L225.588 76.9831L225.845 77.2727ZM226.447 67.8205L227.035 67.5824L226.266 66.7136L225.818 67.1096L226.447 67.8205ZM228.474 70.1111L228.507 69.5652L228.218 69.8215L228.474 70.1111ZM230.286 71.8407L230.707 71.468L230.311 71.0204L229.89 71.3931L230.286 71.8407ZM228.308 68.7561L228.201 68.0522L227.78 68.425L228.308 68.7561ZM219.497 58.4795L219.116 57.7838L219.405 57.5275L219.801 57.9751L219.497 58.4795ZM225.569 65.077L225.602 64.5311L225.313 64.7874L225.569 65.077ZM218.504 54.7577L219.098 53.9971L218.725 53.5758L218.146 54.0883L218.504 54.7577ZM220.67 57.2063L220.96 56.9501L220.704 56.6604L220.414 56.9167L220.67 57.2063ZM221.333 57.3713L222.168 57.1484L221.912 56.8588L220.802 57.0898L221.333 57.3713ZM230.452 67.0939L231.642 67.59L231.352 67.8463L230.452 67.0939ZM217.402 51.1787L217.692 50.9225L217.436 50.6328L217.146 50.8891L217.402 51.1787ZM218.676 52.3524L219.082 52.2278C219.713 52.7644 220.121 53.4203 220.306 54.1954L221.654 54.5518L221.994 55.5189L224.154 55.626L223.781 55.2048L223.277 54.9L224.063 54.674L223.69 54.2528L224.882 52.6818L224.626 52.3922L223.813 52.6414L223.301 52.0622L224.087 50.6159L224.716 51.3268L223.997 51.6813L224.253 51.9709L225.088 51.748L225.345 52.0377L225.469 52.4438L227.007 51.3174L226.28 50.1771L225.749 49.8956L226.189 49.2251C225.499 48.8343 225.361 48.3775 225.775 47.8549L226.553 48.1515L227.272 47.797L227.148 47.3909L227.437 47.1346L227.065 46.7134L225.65 47.4488L225.122 47.1177L224.675 47.5137L224.781 48.2176L224.385 47.77L223.3 45.9603L221.87 46.9438L222.233 47.9373L222.689 49.0361L223.253 48.7717L223.781 49.1028L223.491 49.3591L222.351 50.0864L222.607 50.376L222.317 50.6323L220.884 51.6655L221.141 51.9551L220.621 51.8984L220.289 50.4087L220.032 50.1191L218.692 50.0372L217.534 51.0622L218.047 51.6415L218.336 51.3852L218.148 52.0213L218.676 52.3524ZM222.399 53.3769L222.176 52.5414L222.944 53.4102L222.399 53.3769ZM221.447 49.3836L221.364 48.7061L221.943 48.1936L221.687 47.904L220.272 48.6394L220.529 48.929L221.447 49.3836ZM234.977 64.3569L235.399 63.9841L235.026 63.5629L234.605 63.9356L234.977 64.3569ZM234.638 63.3897L235.334 63.0089L234.961 62.5876L234.382 63.1001L234.638 63.3897ZM237.667 66.8125L237.7 66.2667L237.136 66.5311L237.667 66.8125ZM237.5 65.4575L238.053 64.9683L238.294 65.506C239.393 65.1912 240.425 64.6068 241.39 63.7526C240.855 62.1923 240.145 60.6297 239.261 59.0647L237.954 58.4369L237.457 57.6096L236.398 56.997L235.15 57.8671L235.349 58.6762L234.868 59.6182L235.506 60.6035L237.697 62.2318L237.351 63.0076L237.732 63.7033L237.104 65.0099L237.5 65.4575ZM235.507 62.6209L235.928 62.2482L235.555 61.8269L235.134 62.1997L235.507 62.6209ZM233.784 57.8085L234.479 57.4276L234.107 57.0063L233.271 57.2292L233.784 57.8085ZM225.122 47.1177L224.923 46.3085L224.343 46.821L224.833 47.3739L225.122 47.1177ZM227.439 49.1521L227.487 48.358L226.908 48.8706L227.439 49.1521ZM235.025 57.461L235.315 57.2047L235.623 56.6507L235.25 56.2294L234.686 56.4938L235.025 57.461ZM225.468 46.3419L225.758 46.0856L225.502 45.796L225.212 46.0522L225.468 46.3419ZM237.011 55.9385L237.044 55.3927L236.755 55.6489L237.011 55.9385ZM237.59 55.426L237.376 54.865L237.086 55.1212L237.59 55.426Z" fill="#483D3F"/>
<path d="M192.946 52.8472L193.625 52.2464L193.456 51.6832L192.092 51.1987L192.52 51.3095L193.125 50.9974L193.95 51.2462L194.739 50.7703L194.497 50.4957L193.036 50.5863L193.362 49.5861L194.386 50.3709L194.726 50.0705L194.476 48.11L195.073 48.784C196.013 47.9814 197.056 47.4597 198.2 47.2188L197.921 46.5307L198.512 45.5188L198.755 45.7934L198.261 46.2303L198.857 46.9044L199.351 46.4675L199.743 45.8534L199.53 44.6177L200.237 45.4165L200.576 45.1162L200.452 44.2915L200.791 43.9911L201.727 44.3648L202.671 43.7523L203.047 44.1767L203.571 43.7125L203.336 42.4518L202.969 41.3525L201.707 41.9791L200.021 41.0679L198.914 41.5579L198.163 41.0204L197.241 41.3466L196.888 40.9471L196.498 39.823L198.196 38.3211L199.457 37.6945L199.965 37.9574L199.625 38.2578L199.868 38.5324L200.658 38.0564L201.27 37.0695L201.151 37.6195L201.527 38.0439L201.866 37.7435L202.413 36.993L203.724 37.791L203.849 38.6157L204.713 37.8511L205.281 37.1255L205.635 37.5249L206.283 36.9514L206.769 37.5007L208.384 37.2735L208.908 36.8093L209.526 37.197L210.634 36.707L211.517 37.3943L212.35 36.657L212.889 36.8926L215.315 36.2145L215.933 36.6022L216.93 35.9874L217.644 35.8001L220.449 38.6593L219.616 39.3966L215.707 40.4515L215.178 40.1637L213.916 40.7902L213.409 40.5273L211.719 41.0431L210.333 40.845L209.544 41.321C207.94 43.3635 206.112 45.3814 204.06 47.3745L200.815 49.4897L197.169 53.2051L195.303 54.1437L194.367 53.77L194.221 52.9205L193.617 53.2326L193.86 53.5072L192.946 52.8472ZM195.4 53.5687L196.026 53.2816L195.651 52.8572L195.046 53.1693L195.4 53.5687ZM194.955 49.6453L195.744 49.1694L195.501 48.8947L194.962 48.6592L194.623 48.9595L194.955 49.6453ZM195.989 46.7719L196.218 46.3467L196.461 46.6213L195.989 46.7719ZM202.595 46.713L202.249 45.3275L201.91 45.6279L202.595 46.713ZM201.492 43.1041L202.547 42.9277L202.207 43.2281L201.492 43.1041ZM204.093 44.6752L204.618 44.211L204.418 43.675L203.607 44.126L204.093 44.6752ZM204.912 43.2381L204.898 42.5383L204.559 42.8386L204.912 43.2381ZM209.146 41.1829L209.825 40.5821L209.582 40.3075L208.925 40.622L209.146 41.1829Z" fill="#483D3F"/>
<path d="M168.011 45.8232L167.998 44.6003L167.16 44.1084L166.24 44.4399L166.542 43.503L166.882 43.0216L165.925 42.8977L165.508 42.3571L166.298 42.427L166.417 42.0589L164.278 40.5571L164.245 39.5123L163.931 39.2264L164.033 38.2247L163.664 38.1061L163.783 37.738L163.722 36.0932L163.02 35.8667L162.901 36.2348L161.613 36.4477L159.867 37.5102L159.499 37.3915L159.262 38.1277L156.266 37.5683L156.248 36.9347C158.004 35.3088 159.969 33.9848 162.146 32.9625L162.852 31.3434L161.818 30.1974L163.29 30.6719L163.463 30.1366L162.256 29.526L162.612 28.4217L163.302 27.4254L163.004 26.5167L162.636 26.398L162.755 26.03L163.123 26.1486L163.604 26.4885L163.978 26.0178L163.896 25.585L163.193 25.3585L163.376 24.7897L164.1 23.8041L163.704 23.0854L164.088 22.5813L164.076 21.3584L164.747 21.7964L165.503 20.5993L164.919 20.0048L164.8 20.3728L164.432 20.2542L164.55 19.8861L165.074 18.8358L164.122 18.1226L163.153 18.0322L163.035 18.4003L162.564 18.027C161.872 18.4934 161.068 18.5051 160.152 18.0621L159.47 17.6575L158.929 18.0742L157.535 19.8781C158.548 21.091 158.861 22.4109 158.475 23.8379L157.648 24.5687L156.794 24.6995L155.822 26.4547L155.785 27.2556L154.472 28.2359L153.854 27.6306L153.736 27.9987L153.802 29.0542L154.17 29.1728L154.991 29.0312L154.533 29.8808L154.517 30.5035L153.879 30.0763L153.641 30.8124L153.273 30.6938L153.09 31.2626L153.993 31.5538L153.584 32.8253C153.025 33.3349 152.649 33.8909 152.455 34.4932L151.167 34.7061L150.758 35.9776L149.973 35.3183L149.854 35.6864L149.486 35.5678L147.733 34.8181L147.36 35.2888L147.929 35.4721L148.157 37.1709L147.058 36.2257L146.154 35.9345L146.036 36.3025L145.82 35.8266L146.51 34.8303L146.818 33.304L147.287 32.4211L148.363 32.1769L148.682 31.8735L147.946 31.6362L148.129 31.0674L148.789 30.2826L148.923 29.2917L149.614 28.2954L149.565 27.8734L149.851 27.5592L150.788 27.8612L150.961 27.3258L149.808 26.5479L149.926 26.1799L150.444 25.7189L149.909 25.5463C149.184 25.7314 148.38 25.7431 147.497 25.5814L146.291 26.2272L146.41 25.8591L145.874 25.6865L144.062 25.6934L144.418 24.5892C145.74 23.3902 147.245 22.6562 148.932 22.3874C149.827 22.1339 150.775 22.0948 151.777 22.2702C152.608 20.8388 153.402 19.4078 154.158 17.9772L153.529 16.149L152.891 15.7217L152.772 16.0898L152.404 15.9712L151.555 15.5127L147.752 15.506L146.664 14.5274L146.064 14.5556L146.183 14.1875L148.534 12.5075L151.281 12.5803L151.162 12.9483L151.53 13.067C152.389 12.925 153.299 12.8122 154.262 12.7285L155.148 12.3861L155.385 11.65L155.759 11.1793L154.719 10.6227L155.026 9.09644L152.726 6.95134L152.708 6.31779L151.02 5.36733L151.155 4.37649C153.746 4.12834 156.373 4.00215 159.034 3.9979C161.724 3.97854 164.463 4.41824 167.252 5.31698L167.55 6.22569L167.918 6.34432L167.799 6.71239L166.106 6.35124L165.868 7.08738L166.404 7.25994L167.027 7.27598L167.611 7.87053L167.255 8.97475L166.351 8.68356L166.421 7.89349L166.053 7.77485L165.713 8.25631L164.895 7.58626L164.776 7.95433L164.621 9.12326L163.388 9.16889L163.301 8.29143L162.786 7.94078L162.446 8.42223L162.566 9.31047L161.83 9.0732L161.829 7.81689L161.347 7.47703L161.175 8.0124L161.159 8.63517L160.623 8.46261L160.575 8.04061L160.207 7.92198L159.65 8.96149L159.168 8.62162L158.764 9.30384C159.093 10.3457 159.011 11.4027 158.518 12.4749L157.708 13.8393L158.411 14.0658L159.045 14.0484L159.315 14.357L159.142 14.8924L159.711 15.0757L159.883 14.5404L160.419 14.7129L160.413 15.3022L160.982 15.4856L161.101 15.1175L162.393 15.3492L162.576 14.7804L163.312 15.0177L163.194 15.3857L164.465 15.7956L165.071 15.1781L167.364 15.511L167.941 14.2934L168.285 11.9663L168.015 11.6577L168.134 11.2897L168.603 10.4067L168.554 9.98467C169.751 9.55769 171.036 9.50413 172.411 9.82399L172.091 10.1274L172.573 10.4672L171.969 12.341L171.629 12.8225L171.613 13.4453L171.106 13.8728C171.225 14.724 171.145 15.5846 170.865 16.4546L172.802 17.8917L173.771 17.9821L174.442 18.4202L174.323 18.7883L175.541 19.3654L175.05 21.4604L175.002 21.0384L174.634 20.9198L174.011 20.9038L173.66 21.4187L171.264 20.831L170.214 20.3078L169.624 20.3026L168.949 21.7102L168.414 21.5376L168.23 22.1064L168.913 22.511L168.724 23.6692L168 24.6547C168.221 25.2677 168.146 25.9207 167.775 26.6137L167.906 27.4685L167.538 27.3499L167.354 27.9187L167.972 28.5241L171.643 27.6759L172.261 28.2813L173.634 27.6895L174.905 28.0993L174.923 28.7328L174.199 29.7184L172.268 30.0934L172.085 30.6622L171.716 30.5436L169.721 31.1194L168.966 32.3165L168.598 32.1979L168.306 33.1013L167.987 33.4047L168.29 33.7241L168.017 35.2611L168.915 36.1416L168.678 36.8777L169.148 37.251L169.291 39.3287L170.694 40.5933L170.575 40.9614L170.943 41.08L170.706 41.8161L172.026 42.648L171.907 43.016L173.006 43.9612L171.796 45.1963L170.827 45.1058L170.423 45.7881L168.529 45.3622L168.011 45.8232ZM150.034 36.9632L149.985 36.5412L150.52 36.7138L150.402 37.0818L150.034 36.9632ZM148.375 33.3997L148.612 32.6636L147.91 32.4371L147.672 33.1732L148.375 33.3997ZM164.406 37.7541L164.589 37.1852L164.074 36.8346L163.837 37.5707L164.406 37.7541ZM152.111 32.3508L152.23 31.9827L151.646 31.3882L151.409 32.1243L152.111 32.3508ZM153.269 32.5394L153.674 31.8572L152.668 31.3113L152.485 31.8801L153.269 32.5394ZM151.131 31.0375L151.569 30.3661L151.098 29.9928L150.796 30.9297L151.131 31.0375ZM152.758 30.3431L153.142 29.839L152.774 29.7204L152.174 29.7486L152.002 30.284L152.758 30.3431ZM147.366 24.7267L146.782 24.1321L146.663 24.5002L147.366 24.7267ZM154.763 27.3325L155 26.5963L154.632 26.4777L154.259 26.9484L154.763 27.3325ZM163.196 29.0163L163.569 28.5456L163.001 28.3623L162.828 28.8977L163.196 29.0163ZM168.017 25.2883L168.201 24.7194L167.833 24.6008L167.649 25.1697L168.017 25.2883ZM156.827 20.2409L156.145 19.8364L155.805 20.3178L156.173 20.4364L156.827 20.2409ZM157.195 20.3596L157.535 19.8781L156.827 20.2409L157.195 20.3596ZM164.559 22.9546L164.742 22.3857L164.207 22.2132L164.023 22.782L164.559 22.9546ZM155.793 19.095L156.452 18.3101L154.931 17.4136L154.759 17.949L154.992 19.0584L155.793 19.095ZM179.772 21.1355C178.985 20.2168 178.23 19.2349 177.508 18.1895L177.81 17.2526C177.165 17.1923 176.943 16.8499 177.144 16.2253C176.602 15.3857 176.415 14.513 176.584 13.607L177.357 13.0434L178.379 12.9666L179.049 12.1483C179.766 11.9855 180.533 11.9001 181.348 11.8919L181.224 12.8493L181.944 13.7093L183.045 15.9109L182.509 15.7383L182.337 16.2737L182.975 16.7009L182.737 17.4371L183.306 17.6204L183.705 17.5275L183.902 19.4378L183.048 19.5686L182.47 20.7862L181.502 20.6958L181.621 20.3277L181.253 20.2091L180.73 21.2594L179.772 21.1355ZM180.689 12.6768L180.272 12.1361L180.089 12.705L180.689 12.6768Z" fill="#483D3F"/>
<path d="M89.8984 31.5859L88.7734 30.9883V30.6016H88V29.6523C88.6562 27.9883 89.6758 26.6289 91.0586 25.5742L91.4453 24.2383H92.2188L92.8164 22.3047L93.5898 21.707C94.4805 19.1289 95.3711 16.6094 96.2617 14.1484H95.3125L95.1016 14.7461H94.3281L93.9414 13.5859H93.3789L93.2031 14.7461H92.6055L92.2188 13.9727H91.832L90.8828 14.5352L88.9492 14.1484V13.375L89.5469 13.1992L89.8984 11.8281H89.3359V11.4414L90.1094 11.2656L90.8828 11.6523L91.2695 11.8281L91.6562 11.4414L92.043 12.0391H92.6055C93.0039 11.3828 93.5781 11.125 94.3281 11.2656L94.9258 11.4414L95.3125 10.1055L93.7656 9.33203V8.73438L94.5391 8.55859L94.7148 7.96094H93.9414L94.1523 6.23828L93.7656 5.07812H92.9922V4.69141L93.2031 4.09375H92.8164V3.53125H93.3789L95.4883 4.09375L96.4727 3.70703L96.6484 3.32031L97.4219 3.14453C97.7969 5.06641 98.1836 6.92969 98.582 8.73438L98.1953 9.33203L99.1445 9.71875L100.902 9.50781L101.289 10.1055L103.188 10.4922V9.89453L103.961 10.1055L105.121 11.8281L105.684 12.0391L105.895 11.2656H106.668L106.844 10.2812L107.617 10.1055L108.777 7.96094L109.551 7.57422L109.938 6.23828H110.324L110.5 5.46484L111.273 4.86719L111.871 3.32031L112.258 3.32031V2.54688L112.82 2.16016L113.031 1.21094L113.98 1L114.367 2.16016L114.754 2.37109V2.93359L114.543 3.53125C115.012 5.125 116.043 6.15625 117.637 6.625L117.812 7.1875L119.57 8.17188L120.133 8.94531H120.73L121.293 9.50781L121.68 10.2813L121.293 11.8281H121.68L121.293 12.0391L120.906 13.1992L120.133 12.6016V13.5859L119.57 13.5859L118.41 12.2148L118.586 11.6523H118.199L117.637 11.8281L117.074 11.2656C117.074 9.97656 116.816 9.00391 116.301 8.34766V9.89453H115.914C115.258 9.37891 114.871 8.80469 114.754 8.17188L114.156 7.96094V8.34766H113.77L112.645 8.17188L112.434 9.33203L111.871 9.50781L111.66 10.4922L110.324 10.8789V11.4414L110.5 12.4258L109.938 12.6016V12.2148H109.551V12.9883H109.164V12.4258H108.602L108.391 13.7617L105.895 13.9727L105.508 13.7617L105.332 12.4258H103.961L103.574 12.6016L102.238 11.8281V12.6016L102.414 13.1992H103.188V13.5859L101.676 13.9727V13.375H100.902V13.9727L99.1445 13.5859L98.9688 16.082L99.7422 17.2422L100.305 17.4531V16.6797L102.414 16.4688L103.785 16.8555L104.172 17.4531H104.734L105.684 17.2422L107.055 20.1602L106.07 22.3047L106.281 23.0781H105.895V23.8516H105.121L104.945 24.8008L104.172 25.3984C104.172 26.4297 103.785 27.332 103.012 28.1055L102.238 28.2812V29.0547L101.465 29.2656V30.0391H100.691V30.6016L100.902 30.9883L98.3711 31.375L97.8086 29.8281L98.1953 28.8789L99.918 27.7188C101.324 25.1406 102.672 22.5625 103.961 19.9844C103.188 19.4688 102.297 19.2695 101.289 19.3867L97.8086 20.3711L97.2461 22.0938L95.875 24.4141L95.3125 24.625L95.1016 25.5742H94.7148C94.5977 26.4883 94.2812 27.332 93.7656 28.1055H92.9922L92.8164 28.8789H92.4297V29.2656L92.6055 30.0391L92.043 30.2148L91.4453 30.0391L90.8828 31.375L89.8984 31.5859ZM117.074 28.1055L117.25 26.9453H116.863L115.527 27.7188L113.98 26.9453L113.418 26.1719L112.645 25.5742V24.8008H111.66V25.3984L111.871 25.9609H111.484L110.5 25.3984L110.113 23.2539L108.777 23.0781L108.602 22.4805L109.727 22.6914L110.113 20.7578H111.66L112.82 21.1445H112.047V22.0938L113.98 22.6914L114.156 21.918H114.543V22.3047L114.367 23.4648H114.93L116.09 23.0781L117.812 24.0273L118.023 24.8008H118.586L119.184 24.625L119.359 25.5742L118.973 26.3477H119.57V26.7344H119.184L118.586 25.9609H118.023L117.812 27.1211H118.199V27.7188L117.074 28.1055ZM115.527 26.5586V25.9609H114.93L114.543 26.7344H114.93L115.527 26.5586ZM116.477 20.5469L115.527 19.9844L113.98 20.1602L114.367 19.9844V19.3867C113.734 19.3867 113.219 19.1875 112.82 18.7891L112.258 19L111.871 18.0156L110.5 17.8398L110.324 16.6797L111.098 16.4688L111.66 16.6797V15.6953L113.418 15.3086L114.754 16.6797C115.902 16.7969 116.992 17.1836 118.023 17.8398L117.461 18.0156V18.6133L118.199 19.2109L117.074 19.3867V20.1602H116.688L116.477 20.5469ZM115.914 19.3867V18.7891H115.316L115.141 19.3867H115.914ZM95.3125 8.34766L94.7148 8.17188V8.55859L95.3125 8.34766ZM112.434 7.96094V7.57422L111.871 7.39844V7.78516L112.434 7.96094Z" fill="#483D3F"/>
<path d="M45.2115 60.1561L43.6127 59.9206L42.6321 58.9892C42.0043 58.171 41.738 57.4005 41.8331 56.6775L42.1399 56.4421L41.9045 56.1353C41.0885 56.1115 40.5025 55.675 40.1462 54.8257L39.8427 54.0837L40.2889 53.7413L39.9465 53.295L39.3718 53.4701L39.0294 53.0238L39.0872 51.2512L38.3945 51.5612L37.1784 50.323C36.5765 49.3077 36.1105 48.2768 35.7801 47.2304L34.1211 45.3572L32.8804 43.1629L33.3546 42.7991L32.6807 41.6322L32.1061 41.8073C31.1825 39.6799 29.7641 37.947 27.8508 36.6086L27.8541 35.6312L26.8767 35.6279L24.1799 32.1137L24.7935 31.6428L29.1937 30.2161L29.8397 29.4987L30.8282 29.2277L30.6317 28.6251L32.5373 28.6252L32.0664 28.0116L32.5127 27.6692L33.2547 27.3657L33.0193 27.0589L33.4655 26.7164L33.808 27.1627L34.1069 28.1297L35.2349 27.7517L35.7525 26.867L35.9879 27.1738L35.6947 28.6396L36.0371 29.0859L36.8583 28.9432L37.2254 28.4399L38.2106 29.1463L38.3422 30.2418C39.2675 30.8316 40.1463 31.4571 40.9787 32.1183L40.6394 32.6002L40.9819 33.0464C41.4839 32.6612 42.0607 32.4696 42.7124 32.4718L43.0302 31.962L43.2656 32.2688L43.2189 33.7671L44.2319 34.4521L43.8427 35.5041L42.9937 35.6681L43.2291 35.9749L42.6155 36.4458L42.958 36.892L42.2049 37.4699L40.4959 38.0724L41.1373 39.4857L40.7915 40.0169L40.3563 40.085L40.1209 39.7782L40.1923 37.3304L39.8285 36.8562L38.6727 37.2557L39.1325 38.1437L38.048 38.0009L37.6018 38.3434L39.4995 39.546L38.8859 40.0168L38.3113 40.1919L39.3814 41.5865L39.0746 41.8219L38.7108 41.3477L38.0972 41.8186L37.8617 41.5118L38.1439 40.3203L36.909 40.559L36.6235 42.7279L37.4012 43.106L36.9549 43.4485L38.8059 46.1493L39.2878 46.4886L38.981 46.724L39.3448 47.1981L39.8546 47.516L40.3936 48.5648L40.9034 48.8826C42.7868 51.337 44.3801 53.8368 45.6832 56.3819L46.529 57.1953L46.0717 57.8121L46.2468 58.3868L46.6495 58.5652L45.8965 59.143L45.0475 59.3071L45.2115 60.1561ZM66.5209 39.4168L65.6037 39.1456L65.0226 39.37L63.9414 38.2498L63.9168 37.2938L63.2351 37.3294L62.8927 36.8832L62.5257 35.4809L62.3616 34.6319L61.9867 34.4321L61.7623 33.8509L61.0417 34.1823L60.6779 33.7082L60.2673 32.8267L59.7576 32.5089L59.194 30.504L58.5123 30.5397L57.9345 29.7866L57.6031 29.066L56.4038 29.9863L56.1683 29.6795L55.8615 29.915L55.6617 30.2898L54.3554 31.0707L54.5909 31.3775L53.9773 31.8484L52.4141 32.2945L51.4827 33.2752L49.0705 33.8854L47.9615 32.7866L49.3281 31.7379L50.6123 31.5058L50.7907 31.103L51.3654 30.9279L51.034 30.2073L50.7272 30.4427L50.3848 29.9965L50.7305 29.4653L50.4951 29.1585L50.0923 28.9801L51.4835 28.8874L51.8116 30.5854L52.1184 30.35L52.0614 29.6404L52.6717 30.147L53.7205 29.6081L53.0856 28.1455L53.8743 28.2493L54.3205 27.9068L54.1889 26.8113L55.0736 27.329L55.6483 27.1539L55.3772 26.1654L54.7669 25.6588L53.0943 22.5552L51.8704 22.5195L51.9663 22.9333L51.6595 23.1687L51.1887 22.5551L50.5751 23.026L50.3397 22.7192L50.9533 22.2483L50.7178 21.9415L49.195 20.9387C49.3683 21.7806 49.5417 22.6225 49.715 23.4644L50.3253 23.971L49.7396 24.4204L48.9976 24.7239L48.6798 25.2337L47.5629 25.3374L48.2659 27.2353L48.5727 26.9998L48.8081 27.3066L48.8438 27.9883L49.5144 28.227L49.6104 28.6408L49.2711 29.1227L49.3392 29.558L48.0686 31.0205L46.9731 31.1521L40.2597 23.6741L39.9887 22.6856L40.4382 21.3658L40.0744 20.8916L39.6716 20.7132L39.6359 20.0316L40.5674 19.0509L41.4488 18.6404L41.085 18.1662L41.3918 17.9308L42.8265 17.3173L42.523 16.5753L43.0017 15.9864L43.4726 16.6L44.0862 16.1291L43.8507 15.8223C44.5599 15.5145 45.1642 15.0508 45.6636 14.4312L46.1455 14.7704L46.6197 14.4066L46.5561 13.7463L47.4051 13.5822L47.8903 12.944L49.5494 12.9117L49.8205 13.9001L50.3952 13.725L50.6306 14.0318L50.8336 14.5851L50.7019 15.3952L52.4816 16.7327L52.8954 16.6367L53.1308 16.9435L52.824 17.1789L53.1879 17.6531L53.9441 18.0034L54.4117 19.5944L55.1213 19.5373L55.2853 20.3864L56.6733 21.2711L55.8846 21.1673L55.175 21.2244L55.378 21.7776L55.6848 21.5422L55.9203 21.849L55.9559 22.5307L56.3308 22.7305L57.1117 22.1312L58.3213 23.4187L57.8147 24.029L58.0501 24.3358L59.313 24.0758L59.9123 24.8567L59.1592 25.4346L59.3946 25.7414L61.8067 27.0367L60.9823 28.1568L61.3247 28.6031L63.0909 28.7102L63.7972 29.6306L64.3996 31.3397L65.6481 32.3314L65.8446 32.934L66.5899 33.5586L67.5997 35.221L68.1094 35.5389L67.4848 36.2841L67.9913 37.5793L67.5451 37.9218L66.803 38.2253L66.5209 39.4168ZM66.3568 38.5677L65.2937 38.4529L65.5292 38.7597L66.3568 38.5677ZM65.9763 34.0295L65.8122 33.1804L64.8918 33.8867L65.1272 34.1935L65.9763 34.0295ZM61.5269 33.5441L61.2915 33.2373L60.9847 33.4728L61.2201 33.7796L61.5269 33.5441ZM52.1398 32.2835L51.9433 31.6809L51.0229 32.3872L51.3867 32.8614L52.1398 32.2835ZM54.5663 30.4215L54.024 30.3501L54.2595 30.6569L54.5663 30.4215ZM56.4181 28.7345L56.0756 28.2883L55.6015 28.6521L55.9439 29.0984L56.4181 28.7345ZM53.2029 30.4928L52.4933 30.5498L52.8358 30.9961L53.2029 30.4928ZM42.3366 38.5654L41.616 38.8968L41.3805 38.59L41.8547 38.2262L42.3366 38.5654ZM49.3417 32.9683L48.7995 32.8969L49.0349 33.2037L49.3417 32.9683ZM38.5545 39.2962L37.8372 38.6502L37.391 38.9926L37.8618 39.6062L38.5545 39.2962ZM41.1484 37.3058L40.913 36.999L40.6062 37.2344L40.8416 37.5412L41.1484 37.3058ZM41.3592 36.6565L41.1951 35.8075L40.8883 36.0429L41.0414 37.1663L41.3592 36.6565ZM51.6944 28.2382L52.2723 27.0856L52.5077 27.3924L51.6944 28.2382ZM34.9074 40.1451L34.672 39.8383L34.3652 40.0737L34.6006 40.3805L34.9074 40.1451ZM36.1671 38.9569L36.0711 38.5431C36.6505 37.9507 37.3333 37.5893 38.1194 37.4587L38.569 36.1388L39.5574 35.8678L39.815 33.7203L39.3688 34.0627L39.0295 34.5446L38.859 33.7449L38.4127 34.0873L36.9288 32.7888L36.622 33.0242L36.8139 33.8518L36.2003 34.3227L34.8124 33.4379L35.5654 32.86L35.8689 33.602L36.1757 33.3666L36.0117 32.5176L36.3185 32.2822L36.7323 32.1862L35.716 30.5731L34.5277 31.219L34.2099 31.7288L33.5717 31.2436C33.1337 31.9048 32.6684 32.0107 32.1759 31.5614L32.5262 30.8051L32.2227 30.0631L31.8089 30.1591L31.5734 29.8523L31.1272 30.1948L31.7621 31.6574L31.395 32.1607L31.7588 32.6348L32.4684 32.5778L31.9942 32.9416L30.1133 33.8976L30.9946 35.3926L32.011 35.1001L33.1389 34.7221L32.9145 34.1409L33.2817 33.6376L33.5171 33.9444L34.1631 35.1327L34.4699 34.8972L34.7053 35.204L35.636 36.7056L35.9428 36.4702L35.85 36.9845L34.3407 37.2121L34.0339 37.4475L33.8587 38.7784L34.8004 40.0056L35.414 39.5348L35.1786 39.228L35.7999 39.4602L36.1671 38.9569ZM37.4489 35.3144L36.5998 35.4785L37.5202 34.7722L37.4489 35.3144ZM33.399 35.9849L32.7173 36.0205L32.2464 35.4069L31.9396 35.6424L32.5746 37.105L32.8813 36.8696L33.399 35.9849ZM49.2798 23.5325L48.9374 23.0862L48.4911 23.4287L48.8336 23.8749L49.2798 23.5325ZM48.2913 23.8035L47.9599 23.0829L47.5137 23.4254L47.9845 24.039L48.2913 23.8035ZM51.9171 21.0212L51.3749 20.9498L51.5993 21.531L51.9171 21.0212ZM50.5538 21.0925L50.1043 20.5068L50.6576 20.3038C50.4202 19.186 49.9092 18.1158 49.1244 17.0932C47.5306 17.5186 45.9223 18.1176 44.2994 18.8902L43.582 20.1498L42.722 20.5882L42.037 21.6013L42.8178 22.9076L43.639 22.7649L44.5451 23.3104L45.5725 22.7436L47.3497 20.6708L48.0995 21.0703L48.8201 20.7389L50.0796 21.4563L50.5538 21.0925ZM47.5851 22.8831L47.2426 22.4369L46.7964 22.7793L47.1388 23.2256L47.5851 22.8831ZM42.6641 24.2664L42.3327 23.5458L41.8864 23.8882L42.0505 24.7373L42.6641 24.2664ZM31.395 32.1607L30.5738 32.3033L31.0447 32.9169L31.6304 32.4675L31.395 32.1607ZM33.586 29.9918L32.7973 29.888L33.2682 30.5016L33.586 29.9918ZM42.404 23.0036L42.1686 22.6968L41.6374 22.351L41.1912 22.6935L41.4156 23.2746L42.404 23.0036ZM30.6452 31.7611L30.4098 31.4543L30.103 31.6897L30.3384 31.9965L30.6452 31.7611ZM41.0239 20.9163L40.4817 20.8449L40.7171 21.1517L41.0239 20.9163ZM40.5531 20.3027L39.9784 20.4778L40.2138 20.7846L40.5531 20.3027Z" fill="#483D3F"/>
<path d="M53.5241 53.6886L52.8597 53.2334L52.3826 53.048L51.7312 52.0708L51.5219 51.7981L51.3588 51.1748L50.5519 50.2774L50.6883 50.1728L50.5837 50.0364L50.181 49.794L49.9351 49.8842L49.5641 49.4008L49.3865 48.8871L48.7365 49.1693C48.5143 49.0509 48.2859 49.1211 48.0513 49.38L47.9625 49.5466L47.3868 49.7717L47.2395 49.4514C47.0368 49.5807 46.894 49.7625 46.8111 49.9968L46.2865 49.7494L46.4228 49.6448L46.3182 49.5085C45.8445 49.4387 45.4698 49.1813 45.194 48.7364L44.8118 48.9313L44.712 48.673L45.2099 48.1925L45.6492 48.072L45.4399 47.7993L45.0323 47.6788L45.1116 47.4998L44.9023 47.227L44.2984 47.1587L44.1684 46.707L43.9701 46.8592L43.8288 47.0858L43.4261 46.8433L43.2789 46.523L43.033 46.6132L42.8237 46.3405L42.6937 45.8888L42.0169 45.4431L42.7035 44.798L42.285 44.2526L42.6941 43.9387L42.5894 43.8023L42.7258 43.6977L43.1176 43.5153L42.9558 43.3045L43.0922 43.1999L42.7783 42.7908L43.292 42.6133L43.0669 42.0376L42.8879 41.9583L43.1606 41.749L43.4065 41.6588L43.3018 41.5225L43.0306 41.2973L43.3033 41.0881L43.1416 40.8773L42.9626 40.798C43.5451 40.7187 44.0874 40.7752 44.5896 40.9676L44.7513 41.1783C44.7024 42.2269 44.5135 43.2384 44.1847 44.2129L44.0483 44.3175L44.3052 44.6522L44.814 44.5966L44.9552 44.37C45.3463 44.5032 45.6846 44.388 45.9702 44.0245L45.7927 43.5108L46.2335 42.9559L46.4889 42.878C46.3536 42.3253 46.2215 41.7768 46.0926 41.2323L46.2289 41.1277L46.5939 41.0643L46.6985 41.2006L46.454 41.7034L46.5414 41.9712L46.7997 41.8714L46.9504 41.6573L47.4785 42.2171L47.7463 42.1298L47.9764 41.7366L48.081 41.8729L47.6258 42.5374L47.4736 42.339L47.3372 42.4437L47.0233 42.0346L46.7506 42.2439L46.595 42.58L46.7471 42.7783L47.2435 42.7322L47.3482 42.8686L47.4831 43.1983L47.8287 43.3664L48.0236 43.7487L47.9175 44.0467L48.0757 44.7919L47.9393 44.8965L47.6508 44.8028L47.3781 45.0121L47.5303 45.2104L47.6666 45.1058L47.933 45.4529L47.8283 45.3165L47.5556 45.5258L47.9742 46.0712L47.7758 46.2234L48.058 46.8735L48.2563 46.7213L48.0471 46.4486L48.5974 45.9081L48.943 46.0762L49.0794 45.9715L48.8398 45.5054L49.1002 45.3056L49.6392 45.4435L50.0483 45.1296L51.0558 44.6715L51.1921 44.5669L49.8598 44.191L49.7234 44.2956L49.4983 44.5668L48.8814 44.1736L49.0797 44.0214L49.3158 44.1751L49.7869 43.8136L50.0581 44.0388L50.1938 45.2936L50.5828 44.2861L50.8431 44.0864L50.9967 43.8503L50.9174 44.0293L51.1743 44.364C50.9194 44.4939 50.8618 44.6497 51.0013 44.8315L51.3469 44.9996L51.1045 45.4023L50.9998 45.2659L50.8649 44.9362L51.2492 44.6413L51.3965 44.9616L51.6202 45.1247L51.4219 45.2769L51.7358 45.686L51.5994 45.7906L51.344 45.8684L51.1903 46.1045L51.0857 45.9682L50.9494 46.0728C50.8942 46.5484 50.2741 47.5626 50.6757 47.8978C51.1663 48.1778 51.6019 48.5658 51.9824 49.0616L52.1297 49.3819L52.4326 49.366L52.5943 49.5768L52.9812 50.3632L52.8448 50.4678L52.997 50.6661L53.1334 50.5615L53.8747 52.8878L53.6495 53.1591L53.6922 53.343L53.5241 53.6886ZM50.3895 53.967L48.9069 54.1396L48.4264 53.6417L48.3584 53.1424L47.9335 53.1534L47.8462 52.8856L47.274 52.5762L46.9347 51.8518L46.7205 51.701L47.9621 51.4967C48.9631 51.9628 49.8331 52.6345 50.572 53.5118L50.6146 53.6957L50.3895 53.967ZM52.8984 51.0766L52.5845 50.6676L52.3738 50.8293L52.6877 51.2383L52.8984 51.0766ZM52.0247 51.1956L51.7678 50.8609L51.6315 50.9656L51.7202 51.6459L51.9186 51.4937L52.0247 51.1956ZM48.8231 53.3373L48.5677 53.4151L48.6723 53.5515L48.8231 53.3373ZM49.0229 52.7507L48.7819 52.719L48.8865 52.8553L49.0229 52.7507ZM51.8932 50.3314L51.684 50.0587L51.2496 50.0572L51.5842 49.8004L51.4321 49.6021L50.8627 49.2708L50.7154 48.9506L50.4696 49.0408L50.5425 49.4181L50.3917 49.6323L50.5534 49.843L50.7517 49.6908L50.961 49.9635L51.2129 50.4202L51.8932 50.3314ZM48.6772 52.5826L48.5726 52.4463L48.2428 52.5812L48.3475 52.7175L48.6772 52.5826ZM54.3976 46.4598L53.9632 46.4583L53.7381 45.8827L53.559 45.8034L53.4227 45.908L53.5749 46.1064L53.088 46.1649L52.8009 46.4837L51.6118 45.7811L51.4755 45.8857L51.3708 45.7494L51.7179 45.483C51.5403 45.2517 51.4844 44.9991 51.5502 44.7255L51.8497 44.3971L52.0639 44.5479L51.8482 44.8316L52.1572 45.3626L52.4031 45.2723L52.2207 44.8806L52.419 44.7284L52.8693 45.0328L53.1152 44.9426L52.963 44.7443L53.1895 44.8855L53.4861 45.426L54.2676 46.0081L54.585 45.8827L54.2979 46.2015L54.3976 46.4598ZM50.6376 48.6951L50.4759 48.4844L50.403 48.1071L49.9101 47.6187L49.7737 47.7234L49.989 48.5429L50.1983 48.8156L50.6376 48.6951ZM51.1087 48.3337L50.947 48.123L50.7486 48.2751L50.9103 48.4859L51.1087 48.3337ZM53.3973 45.5927L52.8534 45.5768L52.958 45.7131L53.3973 45.5927ZM52.5807 45.786L52.3714 45.5133L52.1255 45.6036L52.2033 45.859L52.5807 45.786ZM48.497 48.7031L48.3448 48.5048L48.015 48.6397L48.1767 48.8504L48.497 48.7031ZM48.0467 48.3987L47.8945 48.2004L47.6218 48.4096L47.774 48.608L48.0467 48.3987ZM49.8386 46.807L49.6913 46.4867L49.4359 46.5645L49.685 47.0431L49.8386 46.807ZM46.6177 49.1801L46.5131 49.0438L46.3767 49.1484L46.4814 49.2848L46.6177 49.1801ZM48.2465 47.8121L48.1419 47.6757L48.0055 47.7804L48.1101 47.9167L48.2465 47.8121ZM49.3567 46.7435L49.1474 46.4708L49.0001 46.1505L48.8018 46.3027L48.9367 46.6325L48.7383 46.7847L48.8905 46.9831L49.3567 46.7435ZM50.6101 45.3484L50.5055 45.212L50.3691 45.3167L50.4737 45.453L50.6101 45.3484ZM51.0811 44.9869L50.9765 44.8506L50.8402 44.9552L50.9448 45.0915L51.0811 44.9869ZM50.6289 44.7825L50.3879 44.7508L50.4925 44.8871L50.6289 44.7825ZM46.7276 47.2444L46.623 47.1081L46.4867 47.2127L46.5913 47.3491L46.7276 47.2444ZM47.4887 46.5422L47.0275 45.8129L46.6184 46.1268L46.7801 46.3375L46.9165 46.2329L47.0687 46.4312L47.1684 46.6895L47.4887 46.5422ZM50.2048 45.7185L50.1001 45.5821L49.9638 45.6868L50.0684 45.8231L50.2048 45.7185ZM45.7493 47.2271L45.5971 47.0288L45.2941 47.0446L45.1324 46.8339L44.9851 46.5136L44.5409 46.756L44.6931 46.9543L45.3099 47.3476L45.7493 47.2271ZM46.6453 46.0078L46.4835 45.797L46.2728 45.9587L46.4345 46.1695L46.6453 46.0078ZM47.2213 43.8325L46.9659 43.9103L47.0705 44.0467L47.2213 43.8325ZM46.9976 43.6694L46.893 43.533L46.7457 43.2127L46.411 43.4696L46.5727 43.6803L46.7869 43.8311L46.9976 43.6694ZM46.3366 43.5266L46.1274 43.2539L45.929 43.4061L46.0907 43.6169L46.3366 43.5266ZM42.8191 45.3593L42.7145 45.2229L42.3942 45.3702L42.4988 45.5066L42.8191 45.3593ZM47.5737 41.4941L47.469 41.3578L47.3912 41.1024L47.0931 40.9963L47.6054 41.2531L47.5737 41.4941ZM43.4107 44.5902C43.2047 44.2362 42.9991 44.1051 42.7938 44.197L42.8984 44.3333L43.4107 44.5902ZM43.6154 43.8817L43.4061 43.609L43.2078 43.7611L43.417 44.0339L43.6154 43.8817ZM43.8296 43.1855L43.6679 42.9748L43.4695 43.127L43.5742 43.2633L43.8296 43.1855ZM44.3021 42.3896L44.1404 42.1789L44.004 42.2835L44.0914 42.5513L44.3021 42.3896ZM43.7457 42.3833L43.584 42.1725L43.3857 42.3247L43.5474 42.5355L43.7457 42.3833ZM43.9311 41.9062L43.7789 41.7079L43.4318 41.9742L43.522 42.2201L43.9311 41.9062ZM43.5696 41.4351L43.4079 41.2244L43.1972 41.3861L43.3589 41.5969L43.5696 41.4351Z" fill="#483D3F"/>
<path d="M48.401 53.3425L48.6862 52.9594L49.088 53.1262L49.257 52.8991L50.0381 52.2365C49.9498 52.4428 49.8162 52.633 49.6372 52.8072L49.3949 53.0018L49.5426 53.222L49.6588 53.0659L49.7652 52.7922L50.2198 52.8881L50.5274 52.6319L50.8543 51.9049L51.2337 51.9447L51.7836 51.494L51.7521 51.1176C51.1733 50.8485 50.6437 50.6527 50.1634 50.5304L49.7521 50.952C49.5617 50.7368 49.3891 50.7332 49.2341 50.9413L49.372 51.044L49.203 51.271L48.9272 51.0657L49.2537 51.3792L48.21 52.6048L48.1564 52.8076L48.3794 53.0838L48.401 53.3425Z" fill="#483D3F"/>
<path d="M62.2508 46.992L60.9776 45.7435L60.5005 45.5581L60.4579 45.3742L60.2486 45.1015L60.0855 44.4782L59.2786 43.5808L59.415 43.4762L59.3104 43.3398L58.9077 43.0974L58.6618 43.1876L58.2908 42.7041L58.1132 42.1904L57.4632 42.4726C57.241 42.3542 57.0126 42.4245 56.778 42.6833L56.6892 42.8499L56.1135 43.0751L55.9662 42.7548C55.7634 42.8841 55.6207 43.0659 55.5378 43.3002L55.0132 43.0528L55.1495 42.9482L55.0449 42.8118C54.5712 42.742 54.1964 42.4847 53.9207 42.0398L53.5384 42.2346L53.4387 41.9764L53.9366 41.4958L54.3759 41.3754L54.1666 41.1026L53.759 40.9821L53.8383 40.8031L53.629 40.5304L53.0251 40.4621L52.8951 40.0104L52.6968 40.1625L52.5555 40.3891L52.1528 40.1467L52.0055 39.8264L51.7596 39.9166L51.5504 39.6439L51.4204 39.1922L50.7436 38.7465L51.4302 38.1014L51.0117 37.556L51.4208 37.2421L51.3161 37.1057L51.4525 37.0011L51.8442 36.8186L51.6825 36.6079L51.8189 36.5033L51.505 36.0942L52.0187 35.9166L51.7936 35.341L51.6146 35.2617L51.8873 35.0524L52.1332 34.9622L52.0285 34.8258L51.7573 34.6007L52.03 34.3914L51.8683 34.1807L51.6893 34.1014C52.2718 34.0221 52.8141 34.0786 53.3162 34.271L53.478 34.4817C53.4291 35.5302 53.2402 36.5418 52.9114 37.5163L52.775 37.6209L53.0319 37.9556L53.5406 37.9L53.6819 37.6734C54.073 37.8066 54.4113 37.6914 54.6969 37.3278L54.5194 36.8141L54.9601 36.2592L55.2155 36.1814C55.0803 35.6287 54.9482 35.0801 54.8193 34.5357L54.9556 34.431L55.3206 34.3676L55.4252 34.504L55.1807 35.0067L55.2681 35.2745L55.5263 35.1748L55.6771 34.9606L56.2052 35.5205L56.473 35.4331L56.7031 35.0399L56.8077 35.1763L56.3525 35.8407L56.2003 35.6424L56.0639 35.747L55.75 35.338L55.4773 35.5472L55.3216 35.8833L55.4738 36.0817L55.9702 36.0356L56.0749 36.1719L56.2098 36.5017L56.5554 36.6698L56.7502 37.052L56.6441 37.3501L56.8024 38.0953L56.666 38.1999L56.3775 38.1062L56.1048 38.3155L56.257 38.5138L56.3933 38.4092L56.6597 38.7563L56.555 38.6199L56.2823 38.8292L56.7008 39.3746L56.5025 39.5268L56.7847 40.1768L56.983 40.0247L56.7738 39.7519L57.3241 39.2115L57.6697 39.3795L57.8061 39.2749L57.5665 38.8088L57.8268 38.609L58.3659 38.7468L58.775 38.4329L58.9891 38.5837L59.1255 38.4791L58.5865 37.4943L58.4501 37.599L58.225 37.8702L57.6081 37.477L57.8064 37.3248L58.0425 37.4784L58.5136 37.117L58.7848 37.3421L59.1051 37.1948L59.3094 37.5895L59.5698 37.3897L59.7234 37.1536L59.6441 37.3326L59.901 37.6673C59.6461 37.7972 59.5885 37.9531 59.728 38.1349L60.0736 38.303L59.8312 38.7057L59.7265 38.5693L59.5916 38.2395L59.1826 38.5534L59.3299 38.8737L59.5535 39.0369L59.3552 39.1891L59.6691 39.5981L59.5328 39.7028L59.2774 39.7806L59.1237 40.0167L59.0191 39.8803L58.8827 39.985C58.8275 40.4606 59.0008 40.866 59.4024 41.2012C59.893 41.4812 60.3286 41.8691 60.7091 42.365L60.8564 42.6852L61.1593 42.6694L61.321 42.8801L61.7079 43.6665L61.5715 43.7712L61.7237 43.9695L61.86 43.8649L63.3947 45.5824L63.1696 45.8537L63.2122 46.0376L62.2508 46.992ZM65.5041 43.0184L65.2472 42.6837L64.8555 42.8661L64.7033 42.6678L64.9189 42.3842L65.2487 42.2493L64.9348 41.8402L65.1331 41.688L65.7183 42.3222L65.7609 42.5061L65.5358 42.7774L65.5041 43.0184ZM64.4161 42.9866L64.3115 42.8503L64.2213 42.6044L63.782 42.7248L63.4983 42.5092L63.2161 41.8592L62.8512 41.9226L61.1263 39.9571L61.1724 39.6066C61.738 39.317 62.2534 39.0988 62.7184 38.952L64.3119 40.9001C64.5033 40.6876 64.6688 40.6722 64.8083 40.854L64.6719 40.9587L64.8241 41.157L65.0968 40.9477L64.4845 41.5358L64.3799 41.3994L63.8965 41.7704C63.9355 42.095 64.0844 42.3746 64.3432 42.6093L64.5669 42.7724L64.4161 42.9866ZM61.6251 44.38L61.3112 43.9709L61.1005 44.1326L61.4144 44.5417L61.6251 44.38ZM60.7513 44.499L60.4945 44.1643L60.3582 44.2689L60.4469 44.9493L60.6453 44.7971L60.7513 44.499ZM64.0025 41.4723L63.7933 41.1996L63.6569 41.3043L63.7347 41.5597L64.0025 41.4723ZM60.6199 43.6348L60.4107 43.3621L59.9762 43.3606L60.3109 43.1038L60.1587 42.9054L59.5894 42.5742L59.4421 42.2539L59.1962 42.3441L59.2692 42.7215L59.1184 42.9357L59.2801 43.1464L59.4784 42.9942L60.481 42.6581L60.733 43.1147L60.6199 43.6348ZM63.1243 39.7632L62.6899 39.7617L62.4647 39.186L62.2857 39.1068L62.1494 39.2114L62.3016 39.4097L61.8147 39.4682L61.5276 39.787L60.3385 39.0845L60.2021 39.1891L60.0975 39.0528L60.4446 38.7864C60.267 38.555 60.2111 38.3025 60.2769 38.0288L60.5764 37.7005L60.7905 37.8513L60.5749 38.1349L60.8839 38.6659L61.1298 38.5757L60.9474 38.184L61.1457 38.0318L61.5959 38.3362L61.8418 38.246L61.6896 38.0476L61.9162 38.1889L62.2128 38.7294L62.9943 39.3115L63.3117 39.1861L63.0245 39.5049L63.1243 39.7632ZM59.3643 41.9985L59.2026 41.7878L59.1297 41.4104L58.6368 40.9221L58.5004 41.0267L58.7157 41.8463L58.925 42.119L59.3643 41.9985ZM59.8354 41.6371L59.6737 41.4263L59.4753 41.5785L59.637 41.7892L59.8354 41.6371ZM62.124 38.896L61.5801 38.8801L61.6847 39.0165L62.124 38.896ZM61.3074 39.0894L61.0981 38.8167L60.8522 38.9069L60.93 39.1623L61.3074 39.0894ZM57.2237 42.0065L57.0715 41.8082L56.7417 41.9431L56.9034 42.1538L57.2237 42.0065ZM56.7734 41.7021L56.6212 41.5037L56.3485 41.713L56.5007 41.9113L56.7734 41.7021ZM58.5653 40.1103L58.418 39.7901L58.1626 39.8679L58.4117 40.3464L58.5653 40.1103ZM55.3444 42.4835L55.2398 42.3471L55.1034 42.4518L55.2081 42.5881L55.3444 42.4835ZM56.9732 41.1155L56.8685 40.9791L56.7322 41.0837L56.8368 41.2201L56.9732 41.1155ZM58.0833 40.0469L57.8741 39.7742L57.7268 39.4539L57.5285 39.6061L57.6633 39.9359L57.465 40.0881L57.6172 40.2864L58.0833 40.0469ZM58.5435 39.2605L58.4388 39.1242L58.3025 39.2288L58.4071 39.3652L58.5435 39.2605ZM59.0145 38.8991L58.9099 38.7627L58.7735 38.8673L58.8781 39.0037L59.0145 38.8991ZM59.3555 38.0859L59.1146 38.0542L59.2192 38.1905L59.3555 38.0859ZM55.4543 40.5478L55.3497 40.4114L55.2133 40.5161L55.318 40.6524L55.4543 40.5478ZM56.2154 39.8456L55.7542 39.1163L55.3451 39.4302L55.5068 39.6409L55.6432 39.5363L55.7954 39.7346L55.8951 39.9929L56.2154 39.8456ZM59.116 37.6197L59.0114 37.4834L58.875 37.588L58.9797 37.7244L59.116 37.6197ZM54.476 40.5305L54.3238 40.3321L54.0208 40.348L53.8591 40.1372L53.7118 39.817L53.2676 40.0594L53.4198 40.2577L54.0366 40.6509L54.476 40.5305ZM55.3719 39.3111L55.2102 39.1004L54.9995 39.2621L55.1612 39.4728L55.3719 39.3111ZM55.948 37.1359L55.6926 37.2137L55.7972 37.3501L55.948 37.1359ZM55.7243 36.9727L55.6197 36.8364L55.4724 36.5161L55.1377 36.7729L55.2994 36.9837L55.5136 37.1344L55.7243 36.9727ZM55.0633 36.83L54.854 36.5573L54.6557 36.7095L54.8174 36.9202L55.0633 36.83ZM51.5458 38.6626L51.4412 38.5263L51.1209 38.6736L51.2255 38.8099L51.5458 38.6626ZM56.3004 34.7975L56.1957 34.6611L56.1179 34.4057L55.8198 34.2996L56.3321 34.5565L56.3004 34.7975ZM52.1374 37.8936C51.9314 37.5396 51.7257 37.4085 51.5205 37.5004L51.6251 37.6367L52.1374 37.8936ZM52.3421 37.185L52.1328 36.9123L51.9345 37.0645L52.1437 37.3372L52.3421 37.185ZM52.5563 36.4889L52.3946 36.2781L52.1962 36.4303L52.3009 36.5667L52.5563 36.4889ZM53.0288 35.693L52.8671 35.4823L52.7307 35.5869L52.818 35.8547L53.0288 35.693ZM52.4724 35.6866L52.3107 35.4759L52.1124 35.6281L52.2741 35.8388L52.4724 35.6866ZM52.6578 35.2096L52.5056 35.0112L52.1585 35.2776L52.2487 35.5235L52.6578 35.2096ZM52.2963 34.7385L52.1346 34.5278L51.9239 34.6895L52.0856 34.9002L52.2963 34.7385Z" fill="#483D3F"/>
<path d="M61.3534 43.053L61.668 44.512L61.9597 44.71L62.1387 44.6498C62.9407 43.8298 63.5254 42.8992 63.8929 41.8579L63.5699 40.6418L63.4404 40.8695L62.7521 41.277L62.4993 41.8763L62.2412 41.9891L62.293 42.4109L61.8026 42.5267L61.3534 43.053Z" fill="#483D3F"/>
<path d="M24.3053 86.3026L23.9731 86.1045L21.6042 84.0367L20.5909 83.8826L18.442 85.2208L17.8206 85.0958L17.9809 81.8757L18.7093 81.4096L17.3367 79.936L16.8505 80.7512L15.8541 80.157L15.3879 79.4287C14.2402 78.6077 13.0314 78.2552 11.7615 78.3711C11.0419 79.8521 10.0259 80.9381 8.7133 81.6289L7.94099 81.4139L7.05156 80.2284L8.79834 77.2996L9.37569 76.7434L8.33528 75.468L5.6613 74.3234L5.43925 72.4308C7.44541 72.5903 9.38449 73.2283 11.2565 74.3448L11.6956 73.9518L11.8968 72.5163L12.6511 72.7615L12.8492 72.4294L12.383 71.701L12.5981 70.9287L11.4338 70.6846L11.0105 70.2275L10.4342 71.1937C9.2533 69.9709 7.92017 68.9575 6.43484 68.1535L6.92106 67.3382L6.12275 66.4118L7.82946 66.5701L7.54133 67.0532L8.02443 67.3413L8.78185 66.4832L9.44612 66.8794L9.90322 66.4561L10.3863 66.7442L10.4123 67.4556L10.9256 67.7618L15.1262 69.3665L15.3243 69.0344L15.3703 68.2022L16.2327 68.2663L16.9579 68.9034L18.3934 69.1047L18.6355 69.4537L18.4374 69.7858L17.9983 70.1789C17.9535 71.4894 18.5507 72.3641 19.7899 72.8029L21.5406 73.6424L22.6211 71.8308L23.2853 72.227L22.9332 73.5724L24.2146 74.7869L25.1199 75.1222L25.7852 75.9284L26.5395 76.1736L27.1137 76.7207L27.6869 76.8579L27.6398 77.2801L28.1531 77.5862L29.0154 77.6502L28.8613 78.6636L27.6648 79.9148L27.3295 80.8201L26.9805 81.0621L26.4672 80.756C25.9544 79.8771 25.2251 79.2238 24.2794 78.7962L23.4171 78.7322L22.1565 80.8458C23.1923 81.9002 24.182 83.0089 25.1257 84.1721L24.7004 85.2284L24.2613 85.6214L24.3053 86.3026ZM20.412 77.7996C20.5148 77.124 20.6175 76.4485 20.7202 75.7729L20.146 75.2258L18.8615 75.1146L17.7581 75.1115L16.0063 73.862L14.8358 75.8246C16.201 76.8299 17.5442 77.8493 18.8654 78.8829L20.412 77.7996ZM17.6953 69.5888L17.3631 69.3908L17.5152 69.8908L17.6953 69.5888ZM14.0877 73.3727L13.5744 73.0665L13.2863 73.5496L13.7996 73.8558L14.0877 73.3727ZM10.0569 76.6994L9.52665 76.8335L9.94991 77.2906L10.0569 76.6994ZM11.6048 69.2311L11.1477 69.6544L11.4798 69.8524L11.6048 69.2311ZM8.09159 65.3756L7.31928 65.1606L7.62433 64.2373L8.46976 64.7415L8.09159 65.3756Z" fill="#483D3F"/>
</svg>
