<svg id="圖層_1" data-name="圖層 1" xmlns="http://www.w3.org/2000/svg" viewBox="0 0 370 456"><defs><style>.cls-1{fill:#6d6465;}</style></defs><title>compass</title><path class="cls-1" d="M362.08,381.39c-.52-.64-1.14-1.19-1.72-1.79-.86-1.21-1.67-2.46-2.59-3.62-13.43-17-27-33.79-40.3-50.85q-34.82-44.65-69.36-89.52a1,1,0,0,0-.35-.82c-1.26-1.3-2.44-2.69-3.79-3.89-23.24-20.46-46.16-41.27-68.24-63-14.6-14.35-29.09-28.82-43.63-43.23a55.65,55.65,0,0,0,.49-5.9c-.11-6,2.29-12,.43-18-.28-.69-.57-1.38-.85-2.08-.29-6.62-3.81-11.63-8.4-15.88-15.11-14-33.21-18-53.19-15.59-1.64.2-3.29,1.52-4.94-.57A90.8,90.8,0,0,0,57,57c-9.68-9.2-17.29-20.4-28.5-28.21-5-3.48-8.15-.68-11.54,1.27s-5.31,5.47-3,9.73c.49,2.1,2.39,2.86,3.85,4,8,11.82,17.16,22.79,26,34-.4,2.77-2.92,3.87-4.56,5.62-8.8,9.42-7.78,34.24-6.62,35.48a127.68,127.68,0,0,0,8.23,25l.73,2c1.54,2.58,1.21,4.37,4.28,7.92,7.8,5.55,15.89,10.16,26.06,8l.34.17h.38c5.52,10.62,11.15,21.19,16.49,31.9,1.66,3.34,3.67,1,5.4.77,2.48-.38.82-2.05.35-2.94-6.24-11.73-12.56-23.4-18.87-35.1.17-1.53-1.88-1.5-2-2.84a3.17,3.17,0,0,0,1.16-2c0-1.16-1.61-1.68-2.87-2.31-3.56-1.81-6.06-4.33-6.16-9,4.81,1,9.12.24,12.83-2.92a2.43,2.43,0,0,0,1,.17v0q30,56.57,63.74,111c6.9,11.11,13.41,22.48,21.27,33h0l1,1.07c9.85,31.38,20.85,62.37,31.49,93.48,2.06,6,4.16,12,6.25,18.08l-1.12.51c-1.15-2.09-2.37-4.16-3.46-6.3Q177.58,345.82,156,303.1c-.88-1.73-1.26-3.81-3-5a16.86,16.86,0,0,0-2.93-5.32c-4-7.27-8.07-14.53-12.07-21.81q-11.28-20.55-22.5-41.13c-1.1-2-2.41-4.06-5-2.82-2.82,1.38-1.43,3.6-.39,5.53,1.58,2.93,3.16,5.85,4.77,8.77,10.27,18.61,20.1,37.47,31,55.7a7.5,7.5,0,0,0,2.39,3.7c14.37,30.13,29.79,59.74,45.06,89.42,8,15.64,16.44,31.09,24.69,46.63.52,2.23,1.53,4.26,4.17,3.78,1.72-.32,3.5-1.42,1.85-3.79a8,8,0,0,0,0-1l-.45-.07c0-.09.05-.18.07-.26l.38.33c2.52-2.15,1.17-4.52.41-6.87q-15.51-48.19-31-96.39c-5.61-17.55-11-35.17-16.53-52.76a13.56,13.56,0,0,0,.1-1.54,5.5,5.5,0,0,0-1.9-4.5,34.33,34.33,0,0,0-5-8l-2.33-3.89a10.65,10.65,0,0,0-1.43-2.79,50.24,50.24,0,0,0-5.16-7.52c-1.08-1.86-2.13-3.74-3.24-5.58-8-13.36-16.65-26.35-23.88-40.18,7.5-2.7,15.05-5.27,22.46-8.19,2.5-1,3.92-.37,5.6,1.39q9.15,9.56,18.5,18.92c13.15,13.19,25.76,26.92,39.46,39.56a4.49,4.49,0,0,0,3,2.28c.44.49.86,1,1.34,1.47q53.22,50.76,107.28,100.59c5.29,4.86,10.06,10.38,16.34,14.1,3.22,3.52,6.18,7.35,9.79,10.4,1.47,1.25,4.13,4.11,6.49,1.28S363.56,383.2,362.08,381.39ZM26.68,36.48a3.26,3.26,0,0,1-2.37-2.77c-.06-.93.77-1.31,1.74-1.48,1.37.41,1.67,1.8,2.05,2.93A1.06,1.06,0,0,1,26.68,36.48Zm4.05,3.43c4,1,6.11,4,8,7.34C34.84,46.21,33.11,42.63,30.73,39.91ZM42.11,61.67a2.08,2.08,0,0,1-1.89-1.84c-.08-1.23,1-1.58,1.94-1.56a1.55,1.55,0,0,1,1.65,1.41A2,2,0,0,1,42.11,61.67ZM148.76,238.39c1.9-.94,2.59.79,3.47,2.19,2.58,4.07,5.2,8.12,7.81,12.17.05.1.09.21.14.31a52.63,52.63,0,0,0,4.66,7.21,5.41,5.41,0,0,0,.51.7c.72,1.09,1.73,2.1,2.34,3a2.82,2.82,0,0,1,.09,2.71l-1.55-.45-1.24-.36c-5.76-8.94-12.59-17.2-16.84-27.08C148.76,238.39,148.77,238.42,148.76,238.39Zm56.33-32.89a1.52,1.52,0,0,1,.73-1.13A3,3,0,0,1,207,204c2.88,2.91,6.79,4.77,8.76,8.61-.18.14-.36.28-.54.4a3,3,0,0,1-.84.46,1.86,1.86,0,0,1-1.29,0c-2-3-5.73-3.94-7.91-6.72A2.93,2.93,0,0,1,205.09,205.5Zm-3.62-3.79c.09-.2.19-.39.28-.58a1.56,1.56,0,0,0,.22.23,2,2,0,0,0,0-.74c1.65-.21,2.42.48,2.23,2.16a2.07,2.07,0,0,0-.75,0l.22.21-.71.32-1,.44-1.07-1Zm-79.19-92.47c1.3-1.25,2.54-2.53,2.67-4.52a5.94,5.94,0,0,0,.59-1.11,7.07,7.07,0,0,0,.46-3.42c0-.15,0-.3,0-.45a2.08,2.08,0,0,1,2-1.06,7.15,7.15,0,0,1,1,.09c.05.92.07,1,.09,1.29.15,4.83-2.34,8.65-5.18,12.37a8.42,8.42,0,0,0-.85.52,5.25,5.25,0,0,1-2.15,1.07,2.56,2.56,0,0,1-.87,0,.76.76,0,0,0-.36-.35.82.82,0,0,0-.28-.07C119.65,111.71,121,110.49,122.28,109.24ZM56.1,64.18c-5.12-1.22-5.31-1.4-6.53-5.6C52.33,59.7,53.53,61.92,56.1,64.18Zm-5,2.63c1.64-.2,3,.06,3.62,1.87a1.86,1.86,0,0,1-2.29,1.85c-1.2-.18-3.23,1.16-3.35-1.5C49,67.64,49.7,67,51.11,66.81ZM44.2,63.65c.26-1.63,2-1.38,3.18-1.73,1,.18,2.32.33,2,1.61a2.78,2.78,0,0,1-2.93,2.24C45.16,65.68,44,65,44.2,63.65ZM152,193.16c-7,2.52-14,5.09-21,7.64a1.57,1.57,0,0,0-.24-.21,1.81,1.81,0,0,0-.68-.37l-.87-1.52a1.81,1.81,0,0,0,0-.4c0-.1,0-.2,0-.3,3.88-1.15,7.76-2.28,11.59-3.58a94.74,94.74,0,0,0,11.25-4.53l.41,0,1,.06.28,0C155.5,192.3,153.64,192.59,152,193.16Zm-1.27-15.7c-12.07-12.62-24.18-25.2-36-38-3-3.27-6.17-4-8.15-1.7-2.6,3.05,0,5.16,1.68,7.34.72.91,1.62,1.67,2.43,2.51,4.62,4.78,9.6,9.22,14,14.28a285.46,285.46,0,0,0,23,23.26c-6.72,3.88-14.16,5.76-21.61,7.59-.06.14-.11.29-.16.43l-.07,0,.23-.38q-16.78-30.3-33.53-60.61c-2.13-3.85-4.56-5.71-8.59-2.48a8.55,8.55,0,0,0-1.43.05,12.53,12.53,0,0,1-2.22-.13c0-.15.07-.29.09-.43a3.73,3.73,0,0,0-2.86-2.49c-.94-.15-1,.14-2.06.7a5.8,5.8,0,0,1-2,.69,14.29,14.29,0,0,1-2.5.19c-9.45,0-28.57-6.3-33.16-15.09a1.5,1.5,0,1,1,2.65-1.39c2.61,5,11.23,9.21,19.23,11.54,1-.76,1.22-2.47.77-5.15l-.72-.43H60v0c0-.09-.07-.19-.11-.28.21.2.44.4.67.6,2.1-.36,2.71-2.25,3.78-3.68,5.52-7.38,12.76-11.39,22.11-11.3,3.81,0,7.62.53,11.43.09A.42.42,0,0,0,98,103a1.94,1.94,0,0,0,.22.68c.22,3,.08,1.72.33,4.68.29,3.37.28,8.66,5.6,8.24,5.5-.44,3.83-.69,5.22-4,.88-2.09.9-2.33,1.26-2.69,3.48,2.22,3.48,2.48,4.09,5.47a1.7,1.7,0,0,1,0,.22c-2.19,1.51-2.32,3.52-1,5.5s3.55,1.86,5.73,1.07c1.22-.44,2.29-1.41,3.65-1.48-.44,1.17-1,2.34-.36,3.57l-.18-.08c-4.37,1.58-5.31,3.63-3.27,7.27a24.9,24.9,0,0,0,4.58,5.25c12.71,12.71,25.36,25.48,38.18,38.09,2.18,2.14,2.29,3-.7,4.4C157.24,181.1,154.22,181.07,150.77,177.46ZM162,189.87a.68.68,0,0,0-.19-.19.46.46,0,0,0-.32-.12.47.47,0,0,0-.17,0,1,1,0,0,0-.32.18c-.5-1-2.25-2.07,0-3,1.61-.71,3.27-1.28,4.92-1.9l.06-.2a.25.25,0,0,0,0,.07l-.06.12.07,0c.62.67,1.24,1.34,1.87,2a3.85,3.85,0,0,0,0,.48v.12c0,.06,0,.12,0,.17Zm147.6,143.44q-39.6-37.26-79.13-74.6c-1.43-1.35-3-2.59-4.47-3.88a2.35,2.35,0,0,0,0-.26l-.28-.2a4.8,4.8,0,0,0-2.19-1.6l-1.35-1h-.38c-6-7.54-13.36-13.82-20-20.73-11-11.38-22.18-22.55-33.28-33.82-.79-.81-1.51-1.69-2.24-2.52,2.19-2.51,6.53-1.23,7.56-5l.06-.33c.07-.34.13-.68.19-1s.07-.38.11-.57c.47-1.05.93-1.44,1.41-1.44s1.26.65,2,1.35c12.42,11.52,24.83,23,37.38,34.43,7.1,6.42,14,13.1,21.72,18.76a1,1,0,0,0-.07.15l.18-.07q23.37,28.86,46.76,57.72c9.74,11.94,19.63,23.75,29.49,35.67C311,335.92,310.39,334.05,309.61,333.31Z"/><path class="cls-1" d="M114.8,216.23c1-6.6-3.24-13.7-9.82-16.32-3.26-5-7.86-1.94-11.94-2-3,.07-6.18.87-8.85-1.38h0c-5.1-1.35-10-1.55-14.49,2h0c-1.25,1.64-2.49,3.27-.53,5.22h0c-.49,2.65,1.58,5,.75,7.72h0c-.79.24-1.59.45-2.37.72-6.43,2.25-12.3,6.29-19.81,4.71-3.23-.68-5.75,1.74-6.54,5s-.89,6.52,2.51,8.91c5.4,3.78,11.61,2.29,16.16-4.13h0l.09-.1a61.5,61.5,0,0,0,6.8-2.67c4.58-2.41,8.37-2.54,10.85,2.42a2.79,2.79,0,0,0,.3.63c1.19,1.95,2.24,4,3.6,5.82,1.55,2.08,3.36,5.09,4.79-.22.32-1.2,1.36-2.2,2.07-3.29.44-.67.76-1.62,1.78-1.39,1.41.34.8,1.58.8,2.43a8.82,8.82,0,0,1-.58,2.21c2.43,1,4.52-.06,6.65-.85l11-7.92,1.93-1.22A7.59,7.59,0,0,0,114.8,216.23Zm-67.93,7.21a1.31,1.31,0,0,1-1.62-1.33c0-.89.7-1.38,1.66-1.3s1,.7,1.27,1.57C47.78,222.71,47.39,223.32,46.87,223.44ZM87,213.88l-.48,0-1.34-.13,0-.05-.07.05a2.18,2.18,0,0,1-.4-2.59,3.27,3.27,0,0,1,.29-.39c1.33.17,3.11-.85,3.86.88C89.51,213,87.92,213.34,87,213.88Zm-.44-12.09.49-.13c1.22,1.08,1.52,2.15,0,3.24a4.78,4.78,0,0,0-.53,0,7.09,7.09,0,0,0-4.74,1.55.38.38,0,0,0,0,.1l-.1,0c-1.8.82-3.06.5-3.55-1.41,0-.11-.06-.22-.08-.33L80,203.58l.26-.07Zm-.35,20.35,1.07-.39L89,221.1l.11.11.06-.17c1-.06,2.4-.89,2.82.73s-.78,1.82-1.82,2.16a1.82,1.82,0,0,0-1.18.81C87,225.1,86.29,223.94,86.22,222.14Zm13,2.21c.07-.18.13-.35.19-.53l-.17.17c.51-6.47-1.49-12.27-4.56-17.78-.23-.43-.48-.85-.73-1.28-.57-2.66,1.4-2.57,3-2.56,1.91,0,3.81.34,5.72.53a.59.59,0,0,0,0,.14.87.87,0,0,0,.15-.13c4.68,4.78,7.72,10,4.51,16.89a1.37,1.37,0,0,0-.51.08c0,.09.09.18.14.27l-.62.58-.23.21C103.69,221.86,102,224.2,99.24,224.35Z"/><path class="cls-1" d="M165.9,184.9a.36.36,0,0,0,0-.09h0A.24.24,0,0,0,165.9,184.9Z"/></svg>