<svg width="135" height="44" viewBox="0 0 135 44" fill="none" xmlns="http://www.w3.org/2000/svg">
<path fill-rule="evenodd" clip-rule="evenodd" d="M7.24276 17.6782C3.53367 22.0659 -1.12949 26.7432 0.246733 31.9459C1.65637 37.2749 5.74647 40.587 13.9571 43.0613C22.1678 45.5357 108.401 42.4418 114.164 41.5034C120.643 40.4485 128.62 41.6541 132.525 37.3275C136.558 32.8584 134.979 25.521 132.609 22.2628C128.879 17.1338 125.802 14.1359 120.568 10.3634C93.8807 -8.87365 30.6849 3.5005 18.5643 9.17282C12.8429 11.8504 10.5583 13.7561 7.24276 17.6782Z" fill="#D4AB8E"/>
<path d="M40.508 24.352H42.06V31.36H40.508V24.352ZM38.348 22.256V23.568H43.852V22.256H38.348ZM36.892 21.152H45.388V24.672H36.892V21.152ZM35.42 25.84H46.156V27.2H36.94V30.64H35.42V25.84ZM45.42 25.84H46.972V29.168C46.972 29.904 46.828 30.304 46.268 30.528C45.692 30.752 44.86 30.752 43.66 30.752C43.58 30.352 43.356 29.776 43.148 29.376C44.012 29.408 44.86 29.408 45.1 29.408C45.356 29.392 45.42 29.344 45.42 29.152V25.84ZM40.364 16.48H41.916V19.424H40.364V16.48ZM34.364 18.848H47.916V22.48H46.412V20.176H35.82V22.48H34.364V18.848ZM35.66 17.168L37.036 16.624C37.532 17.168 38.044 17.92 38.3 18.432L36.86 19.088C36.636 18.56 36.124 17.744 35.66 17.168ZM45.1 16.624L46.716 17.136C46.156 17.824 45.564 18.512 45.1 18.976L43.836 18.496C44.268 17.984 44.812 17.168 45.1 16.624ZM55.052 20.976V22.336H62.348V20.976H55.052ZM55.052 23.6V24.976H62.348V23.6H55.052ZM55.052 18.368V19.728H62.348V18.368H55.052ZM53.58 17.04H63.884V26.304H53.58V17.04ZM59.596 25.312H61.132V29.232C61.132 29.712 61.26 29.792 61.9 29.792C62.204 29.792 63.58 29.792 63.98 29.792C64.588 29.792 64.684 29.52 64.764 27.568C65.084 27.84 65.74 28.08 66.156 28.192C65.98 30.608 65.564 31.232 64.108 31.232C63.74 31.232 62.06 31.232 61.724 31.232C60.028 31.232 59.596 30.768 59.596 29.232V25.312ZM55.724 25.792H57.34C57.036 28.656 56.172 30.464 52.108 31.392C51.98 30.992 51.564 30.368 51.26 30.048C54.86 29.344 55.468 28.032 55.724 25.792ZM73.836 24.24H79.292V29.088H73.836V27.84H77.868V25.504H73.836V24.24ZM73.18 24.24H74.588V30.032H73.18V24.24ZM70.412 19.472H74.668V20.544H70.412V19.472ZM77.804 19.472H82.124V20.544H77.804V19.472ZM81.468 17.152H83.004V29.44C83.004 30.368 82.796 30.816 82.22 31.072C81.612 31.328 80.652 31.344 79.212 31.344C79.164 30.928 78.908 30.208 78.684 29.808C79.692 29.856 80.764 29.84 81.068 29.824C81.372 29.824 81.468 29.728 81.468 29.424V17.152ZM70.524 17.152H75.628V22.944H70.524V21.76H74.204V18.336H70.524V17.152ZM82.284 17.152V18.336H78.348V21.792H82.284V22.96H76.908V17.152H82.284ZM69.676 17.152H71.18V31.36H69.676V17.152ZM88.812 20.224V21.232H91.564V20.224H88.812ZM88.812 18.208V19.216H91.564V18.208H88.812ZM87.468 17.152H92.972V22.304H87.468V17.152ZM86.604 23.376H93.82V24.512H86.604V23.376ZM93.74 17.232H101.068V18.336H93.74V17.232ZM89.708 23.728H90.988V29.968L89.708 29.216V23.728ZM90.38 26.048H93.532V27.168H90.38V26.048ZM96.876 17.504L98.268 17.792C97.932 18.656 97.564 19.584 97.26 20.192L96.156 19.92C96.428 19.232 96.716 18.224 96.876 17.504ZM95.66 22.48V23.488H99.084V22.48H95.66ZM95.66 24.496V25.52H99.084V24.496H95.66ZM95.66 20.464V21.472H99.084V20.464H95.66ZM94.3 19.408H100.492V26.592H94.3V19.408ZM95.612 26.8L96.876 27.184C96.188 28.08 95.036 28.992 94.044 29.536C93.82 29.312 93.34 28.848 93.052 28.64C94.028 28.192 95.036 27.504 95.612 26.8ZM87.548 25.28H88.796C88.7 27.648 88.412 30.016 87.244 31.424C87.052 31.104 86.636 30.64 86.332 30.416C87.276 29.264 87.484 27.232 87.548 25.28ZM88.524 26.752C89.564 29.472 91.852 29.792 95.292 29.792C96.188 29.792 100.332 29.792 101.436 29.76C101.228 30.048 101.004 30.64 100.924 31.024H95.292C91.276 31.024 88.86 30.496 87.612 27.056L88.524 26.752ZM97.868 27.296L98.908 26.736C99.804 27.296 100.828 28.176 101.34 28.784L100.252 29.456C99.74 28.816 98.7 27.888 97.868 27.296Z" fill="#222222"/>
</svg>
