<svg width="335" height="338" viewBox="0 0 335 338" fill="none" xmlns="http://www.w3.org/2000/svg">
<path d="M129.603 45.1032C79.3555 58.3108 97.5167 72.0112 72.2055 90.4252C46.8943 108.839 62.239 147.731 48.0433 185.639C33.8476 223.547 60.1332 222.761 73.2542 249.669C122.662 299.491 133.003 293.237 171.181 289.124C209.359 285.011 291.208 255.787 288.93 175.586C314.019 78.1838 230.91 59.5002 203.755 45.4255C181.713 34.001 152.842 38.9948 129.603 45.1032Z" fill="white" fill-opacity="0.5" style="mix-blend-mode:soft-light"/>
<path d="M225.187 101.164C224.511 100.558 222.75 99.1383 222.129 98.783C222.058 98.7305 221.987 98.6813 221.909 98.6307C220.381 97.6396 218.663 96.7251 217.156 96.2274C214.1 95.0504 210.871 94.274 206.365 94.2513C198.636 94.2125 192.78 97.4915 189.66 100.245C183.491 105.688 179.79 113.262 180.74 125.632C182.07 134.92 179.105 144.933 179.798 152.59C180 154.888 181.144 157.651 184.325 159.837C184.325 159.837 194.623 163.466 206.258 163.466C217.893 163.466 229.764 159.165 229.764 159.165C234.723 157.326 234.805 154.205 234.844 152.389C234.908 149.998 234.581 148.142 233.868 145.808C232.99 142.898 231.38 136.989 231.585 126.54H231.587C231.96 123.524 231.821 119.143 231.753 117.459C231.518 111.621 229.049 105.025 225.306 101.274C225.271 101.239 225.229 101.201 225.187 101.164Z" fill="#645D5C"/>
<path d="M222.702 97.8022C219.934 95.827 216.518 94.5653 213.212 93.8372C209.528 93.0259 205.659 92.8882 201.93 93.4569C196.047 94.3543 190.621 97.2468 186.616 101.639C182.709 105.923 180.504 111.236 179.762 116.954C179.541 118.654 179.45 120.368 179.457 122.082C179.465 124.02 179.699 125.916 179.843 127.843C180.137 131.771 179.795 135.712 179.383 139.618C179.001 143.247 178.504 146.895 178.559 150.552C178.582 152.031 178.661 153.547 179.136 154.96C179.641 156.463 180.478 157.82 181.563 158.974C182.218 159.671 182.97 160.27 183.752 160.816C184.254 161.168 185.013 160.908 185.305 160.409C185.636 159.843 185.402 159.208 184.898 158.855C183.629 157.969 182.541 156.844 181.81 155.473C181.207 154.341 180.962 153.153 180.886 151.98C180.665 148.582 181.058 145.166 181.421 141.792C181.824 138.04 182.255 134.278 182.221 130.499C182.204 128.616 181.942 126.773 181.824 124.9C181.715 123.173 181.692 121.44 181.784 119.711C182.069 114.329 183.649 109 186.962 104.733C190.207 100.553 194.571 97.62 199.714 96.2381C206.046 94.5369 213.414 95.2891 219.232 98.3704C220.026 98.7909 220.824 99.2409 221.556 99.7631C222.056 100.119 222.82 99.8511 223.11 99.3558C223.443 98.7857 223.203 98.1594 222.702 97.8022Z" fill="#211715"/>
<path d="M230.065 160.259C232.471 159.347 234.648 157.89 235.544 155.379C236.268 153.352 236.061 150.839 235.742 148.775C235.432 146.777 234.728 144.87 234.249 142.91C233.772 140.964 233.417 138.977 233.182 136.997C232.77 133.529 232.656 130.03 232.72 126.54L231.887 127.634H231.889C232.415 127.452 232.659 127.07 232.722 126.539C233.114 123.264 233.092 119.838 232.834 116.55C232.53 112.668 231.436 108.824 229.626 105.375C228.679 103.57 227.49 101.756 225.99 100.36C224.921 99.3658 223.311 100.968 224.384 101.966C226.896 104.302 228.481 107.719 229.467 110.948C230.428 114.095 230.664 117.262 230.696 120.531C230.715 122.533 230.69 124.548 230.452 126.538L231.285 125.444H231.283C230.799 125.611 230.459 126.015 230.45 126.539C230.352 131.834 230.662 137.18 231.793 142.365C232.117 143.849 232.549 145.295 232.963 146.754C233.387 148.246 233.669 149.75 233.71 151.303C233.723 151.818 233.716 152.333 233.696 152.848C233.69 152.987 233.684 153.125 233.673 153.264C233.667 153.351 233.658 153.438 233.651 153.525C233.623 153.852 233.667 153.477 233.633 153.676C233.47 154.601 233.239 155.259 232.728 155.9C231.897 156.94 230.688 157.604 229.462 158.069C228.889 158.286 228.496 158.835 228.669 159.465C228.82 160.015 229.49 160.477 230.066 160.258L230.065 160.259Z" fill="#211715"/>
<path d="M247.796 220.103C249.565 218.971 251.005 217.347 251.561 215.346C252.097 213.419 252.35 209.462 252.054 207.484C250.057 194.133 248.69 185.827 245.326 173.632C244.339 170.054 242.033 165.311 239.754 162.383C238.531 160.813 237.104 159.427 235.482 158.212C233.36 156.554 230.816 155.248 228.22 154.139C227.979 154.037 227.707 154.04 227.468 154.146C219.606 157.616 211.332 159.962 201.824 159.074C198.645 158.777 194.394 157.416 191.987 154.654C191.726 154.355 191.307 154.253 190.938 154.397C189.182 155.078 187.503 155.785 185.784 156.549C184.207 157.249 182.945 158.138 181.663 159.17C179.79 160.674 178.517 162.86 177.718 165.121C176.317 169.067 175.277 173.148 174.524 177.269C173.592 182.383 172.774 186.844 171.525 191.873L171.239 193.362C174.07 193.459 176.374 193.537 177.899 193.586C179.017 193.621 179.956 194.433 180.15 195.535C180.914 199.874 181.678 204.282 182.452 208.742C185.293 204.436 187.106 200.107 189.223 195.961C190.075 197.689 191.061 199.356 191.867 201.106C192.371 202.2 192.747 203.313 193.075 204.47C193.137 204.688 193.21 204.901 193.291 205.112C193.819 206.478 193.745 208.804 194.787 211.27C196.235 210.331 197.732 209.47 199.268 208.688C201.194 207.709 203.351 206.838 205.456 207.292C208.144 207.874 209.446 209.061 212.114 209.714C214.065 210.194 215.124 209.716 216.81 209.705C219.173 214.258 220.197 221.825 220.242 223.113C222.625 223.078 233.726 222.903 237.319 222.538C240.153 222.249 243.06 222.186 245.716 221.156C246.436 220.877 247.138 220.524 247.795 220.104L247.796 220.103Z" fill="#6F595D"/>
<path d="M149.329 240.298C140.811 239.872 133.153 239.435 129.007 239.081C127.936 238.989 127.064 238.186 126.879 237.126C123.974 220.452 121.682 207.201 119.515 194.516C119.264 193.049 120.41 191.72 121.897 191.756C133.899 192.043 169.045 193.302 177.899 193.585C179.017 193.62 179.957 194.432 180.151 195.534C180.914 199.875 181.68 204.284 182.454 208.747C185.292 204.438 187.105 200.108 189.223 195.96C190.075 197.688 191.061 199.355 191.867 201.104C192.371 202.198 192.748 203.312 193.075 204.468C193.137 204.686 193.21 204.899 193.292 205.11C193.819 206.477 193.745 208.803 194.787 211.268C194 211.776 193.227 212.307 192.47 212.859C191.931 213.252 189.859 214.837 189.381 215.31C189.04 215.646 188.539 216.157 188.326 216.597C188.151 216.951 187.9 217.94 188.298 218.527C188.832 219.312 189.75 219.473 190.445 219.326C190.445 219.326 190.718 219.269 190.99 219.211L190.571 219.743C190.167 220.256 190.016 220.635 189.99 221.208C189.97 221.632 190.113 222.158 190.398 222.473C190.736 222.848 191.42 222.988 191.921 222.921C192.735 222.814 193.405 222.415 194.218 222.058C193.916 222.536 193.723 223.007 193.716 223.381C193.697 224.335 194.299 225.102 195.239 225.266C196.223 225.439 196.928 224.975 197.772 224.44C200.37 222.795 202.878 220.899 205.485 219.279C203.913 221.288 203.309 222.904 201.887 225.083C201.592 225.536 201.452 226.697 202.05 227.205C202.961 227.977 204.078 227.156 204.414 226.885C206.365 225.319 207.925 223.878 209.452 222.169C211.192 222.918 213.229 222.917 214.976 222.192C215.734 221.878 216.453 221.528 217.089 221.2C217.088 222.76 217.089 224.434 217.089 225.163C209.269 230.26 193.915 239.047 190.011 241.384C189.396 241.752 188.695 241.937 187.979 241.918C182.256 241.773 164.438 241.054 149.328 240.298L149.329 240.298Z" fill="white"/>
<path d="M216.437 224.235C209.601 228.679 202.518 232.752 195.479 236.863C194.117 237.658 192.754 238.453 191.393 239.25C190.289 239.897 189.166 240.806 187.84 240.78C185.684 240.737 183.528 240.645 181.373 240.565C174.437 240.309 167.502 240.013 160.568 239.698C153.194 239.363 145.821 239.009 138.452 238.581C135.734 238.423 133.015 238.259 130.299 238.05C129.832 238.014 129.289 238.042 128.842 237.899C127.781 237.559 127.848 236.105 127.692 235.207C127.191 232.327 126.689 229.446 126.189 226.565C124.439 216.493 122.698 206.42 120.973 196.344C120.882 195.811 120.791 195.279 120.7 194.745C120.624 194.3 120.547 193.917 120.775 193.513C121.149 192.851 121.812 192.889 122.477 192.906C123.746 192.937 125.014 192.972 126.283 193.009C129.603 193.104 132.923 193.208 136.243 193.315C144.059 193.566 151.874 193.833 159.689 194.101C165.57 194.303 171.451 194.511 177.332 194.702C177.946 194.722 178.551 194.734 178.894 195.343C179.15 195.797 179.159 196.425 179.248 196.931C179.377 197.663 179.505 198.396 179.633 199.128C180.145 202.056 180.654 204.984 181.161 207.912C182.194 213.866 183.225 219.82 184.277 225.771C184.795 228.701 185.318 231.63 185.848 234.558C185.957 235.162 186.692 235.503 187.245 235.351C187.88 235.176 188.147 234.56 188.038 233.954C185.835 221.789 183.764 209.601 181.63 197.425C181.399 196.103 181.346 194.621 180.399 193.58C179.657 192.764 178.659 192.474 177.592 192.44C176.553 192.406 175.514 192.372 174.475 192.337C171.445 192.235 168.414 192.131 165.384 192.027C157.443 191.754 149.503 191.481 141.562 191.219C135.037 191.004 128.505 190.707 121.977 190.623C120.755 190.608 119.626 191.16 118.934 192.178C118.18 193.287 118.358 194.463 118.57 195.705C118.985 198.128 119.4 200.552 119.817 202.976C120.693 208.078 121.573 213.179 122.456 218.28C123.442 223.971 124.431 229.663 125.422 235.354C125.654 236.687 125.713 238.134 126.698 239.164C127.446 239.946 128.405 240.169 129.441 240.254C130.597 240.349 131.755 240.431 132.913 240.509C139.839 240.977 146.774 241.317 153.708 241.65C161.318 242.016 168.931 242.35 176.544 242.652C179.355 242.764 182.167 242.871 184.978 242.965C185.932 242.997 186.886 243.034 187.84 243.053C189.55 243.087 190.84 242.21 192.244 241.385C199.15 237.333 206.089 233.336 212.909 229.14C214.477 228.176 216.039 227.2 217.583 226.197C218.804 225.404 217.667 223.436 216.436 224.236L216.437 224.235Z" fill="#211715"/>
<path d="M132.527 235.014C144.953 235.753 157.379 236.498 169.815 237.065C173.517 237.234 177.22 237.387 180.924 237.524C182.385 237.578 182.383 235.307 180.924 235.253C168.24 234.785 155.566 234.102 142.896 233.358C139.44 233.155 135.984 232.949 132.528 232.744C131.068 232.657 131.073 234.928 132.528 235.014H132.527Z" fill="#211715"/>
<path d="M194.648 153.542C195.647 153.15 196.729 152.721 198.05 152.137C198.34 152.009 198.595 151.836 198.84 151.631C200.92 152.184 202.645 152.273 203.588 152.283C204.734 152.296 206.931 152.217 209.501 151.418C213.477 150.18 215.993 147.949 217.528 146.559C218.109 146.033 218.785 145.37 219.501 144.561C219.941 146.15 220.701 148.001 221.451 149.52C221.906 150.441 225.472 153.182 227.321 154.213C219.502 157.646 211.273 159.957 201.824 159.074C198.646 158.778 194.395 157.417 191.987 154.655C191.979 154.645 191.97 154.635 191.961 154.626C191.985 154.617 191.998 154.612 191.998 154.612C192.892 154.227 193.736 153.9 194.648 153.542Z" fill="white"/>
<path d="M192.012 119.049C193.367 117.831 194.706 116.598 195.999 115.39C195.899 116.862 195.742 118.279 195.502 119.757C195.442 120.13 195.796 120.442 196.154 120.32C201.676 118.441 206.758 115.217 210.057 111.14C210.879 113.463 212.084 116.137 212.861 117.665C214.187 120.276 217.52 124.794 220.45 125.57C221.218 125.859 222.217 126.145 222.985 126.434C224.275 125.173 226.494 125.17 227.966 126.213C229.438 127.257 230.172 129.143 230.104 130.946C230.035 132.749 229.248 134.465 228.182 135.92C226.777 137.836 224.816 139.239 222.626 140.176C220.904 143.212 218.935 145.284 217.528 146.559C215.993 147.949 213.477 150.18 209.501 151.417C206.931 152.217 204.734 152.295 203.587 152.283C202.645 152.272 200.92 152.184 198.84 151.631C195.893 150.848 193.909 149.579 193.506 149.317C191.034 147.706 189.637 145.87 188.661 144.564C186.459 141.617 185.516 138.885 184.954 137.216C183.94 134.201 183.629 131.625 183.424 129.854C183.26 128.433 183.193 127.232 183.167 126.364C183.682 125.985 184.336 125.465 184.926 125.05C187.236 123.247 189.649 121.172 192.012 119.049Z" fill="white"/>
<path d="M228.359 186.464C230.039 192.635 231.571 198.845 232.957 205.088C233.273 206.514 235.463 205.911 235.147 204.485C233.762 198.241 232.228 192.031 230.549 185.861C230.165 184.452 227.974 185.05 228.359 186.464Z" fill="#211715"/>
<path d="M219.954 206.236C226.078 206.785 232.304 206.119 238.422 205.781C239.876 205.7 239.885 203.429 238.422 203.51C232.304 203.848 226.078 204.514 219.954 203.966C219.343 203.911 218.819 204.527 218.819 205.101C218.819 205.76 219.341 206.181 219.954 206.236Z" fill="#211715"/>
<path d="M185.045 179.05C185.296 179.995 185.29 181.01 185.369 181.982C185.457 183.075 185.519 184.171 185.594 185.265C185.742 187.43 185.934 189.61 186.438 191.725C186.946 193.856 187.86 195.84 188.875 197.771C189.859 199.641 190.916 201.475 191.586 203.487C191.929 204.514 192.312 205.565 192.51 206.632C192.725 207.79 192.873 208.952 193.179 210.092C193.558 211.502 195.75 210.904 195.369 209.489C195.095 208.465 194.939 207.424 194.762 206.382C194.607 205.466 194.308 204.622 194.044 203.736C193.417 201.633 192.47 199.691 191.44 197.761C190.44 195.887 189.432 194.016 188.847 191.962C188.266 189.921 188.046 187.812 187.895 185.702C187.806 184.462 187.739 183.221 187.639 181.981C187.544 180.807 187.537 179.588 187.234 178.446C186.859 177.035 184.668 177.633 185.044 179.049L185.045 179.05Z" fill="#211715"/>
<path d="M188.144 195.583C186.248 199.328 184.55 203.171 182.367 206.765C181.607 208.017 183.57 209.16 184.328 207.911C186.51 204.318 188.209 200.474 190.105 196.73C190.763 195.429 188.805 194.278 188.144 195.583Z" fill="#211715"/>
<path d="M218.408 144.86C218.806 146.273 219.346 147.641 219.946 148.979C220.148 149.428 220.33 149.917 220.617 150.32C220.866 150.671 221.163 150.982 221.474 151.277C222.994 152.718 224.751 154.02 226.556 155.081C227.819 155.823 228.963 153.861 227.703 153.12C226.037 152.142 224.543 151.037 223.154 149.741C222.902 149.505 222.663 149.26 222.44 148.996C222.516 149.086 222.556 149.187 222.48 149.032C222.443 148.956 222.4 148.881 222.362 148.805C222.217 148.509 222.077 148.21 221.942 147.91C221.408 146.727 220.95 145.506 220.598 144.257C220.203 142.852 218.011 143.449 218.408 144.86Z" fill="#211715"/>
<path d="M192.571 155.593C192.632 155.566 192.693 155.54 192.754 155.514C193.047 155.389 192.632 155.563 192.802 155.494C192.922 155.445 193.042 155.394 193.163 155.345C193.432 155.235 193.702 155.127 193.973 155.02C194.518 154.804 195.064 154.593 195.609 154.377C196.262 154.118 196.91 153.852 197.557 153.578C198.308 153.26 199.003 152.971 199.627 152.43C200.077 152.039 200.057 151.219 199.627 150.824C199.147 150.384 198.501 150.407 198.021 150.824C197.987 150.854 197.884 150.937 197.98 150.866C197.918 150.913 197.852 150.955 197.786 150.995C197.628 151.091 197.46 151.165 197.29 151.239C197.131 151.309 196.972 151.378 196.812 151.446C196.716 151.488 196.62 151.529 196.524 151.569C196.629 151.525 196.488 151.584 196.459 151.596C195.88 151.838 195.298 152.072 194.715 152.302C193.614 152.736 192.512 153.164 191.424 153.632C190.877 153.867 190.713 154.713 191.017 155.185C191.384 155.754 191.985 155.845 192.571 155.593Z" fill="#211715"/>
<path d="M223.787 127.237C224.775 126.321 226.412 126.427 227.439 127.229C228.67 128.19 229.114 129.895 228.937 131.392C228.499 135.07 225.263 137.795 222.076 139.186C221.514 139.431 221.385 140.254 221.668 140.739C222.008 141.319 222.658 141.393 223.222 141.147C226.573 139.684 229.446 137.07 230.72 133.585C231.922 130.295 230.942 126.001 227.401 124.655C225.632 123.981 223.571 124.343 222.182 125.631C221.108 126.627 222.717 128.231 223.787 127.237Z" fill="#211715"/>
<path d="M182.033 126.445C182.186 130.689 182.859 134.936 184.354 138.921C185.828 142.855 188.242 146.702 191.582 149.319C198.141 154.459 207.775 154.714 214.726 150.208C218.378 147.84 221.461 144.498 223.616 140.731C224.343 139.46 222.382 138.315 221.655 139.585C219.904 142.647 217.526 145.351 214.697 147.468C211.515 149.849 207.671 151.17 203.688 151.147C200.343 151.128 196.93 150.177 194.112 148.356C190.846 146.246 188.412 142.792 186.912 139.251C185.199 135.208 184.462 130.813 184.304 126.444C184.251 124.987 181.98 124.98 182.033 126.444L182.033 126.445Z" fill="#211715"/>
<path d="M209.007 111.572C210.056 114.478 211.246 117.507 212.982 120.082C214.597 122.477 216.707 125.106 219.386 126.354C219.941 126.613 220.61 126.51 220.94 125.947C221.227 125.455 221.091 124.653 220.532 124.393C218.147 123.282 216.278 120.948 214.854 118.803C213.27 116.418 212.165 113.65 211.197 110.969C210.989 110.392 210.425 110.004 209.801 110.176C209.244 110.329 208.798 110.993 209.008 111.572H209.007Z" fill="#211715"/>
<path d="M209.248 110.344C207.554 112.416 205.521 114.174 203.279 115.63C202.117 116.384 200.906 117.061 199.661 117.665C199.028 117.972 198.387 118.262 197.735 118.525C197.088 118.786 196.387 119.131 195.699 119.252H196.303C196.509 119.887 196.625 120.039 196.651 119.71C196.664 119.633 196.675 119.555 196.686 119.478C196.715 119.286 196.742 119.094 196.769 118.902C196.824 118.497 196.877 118.091 196.924 117.685C197.013 116.922 197.079 116.156 197.134 115.39C197.207 114.359 195.869 113.959 195.196 114.587C193.068 116.573 190.92 118.537 188.72 120.444C186.741 122.159 184.744 123.958 182.54 125.385C181.318 126.177 182.455 128.144 183.687 127.346C185.988 125.856 188.087 123.985 190.157 122.196C192.416 120.244 194.619 118.229 196.801 116.193L194.863 115.39C194.778 116.594 194.661 117.796 194.48 118.99C194.394 119.556 194.273 120.091 194.562 120.626C194.841 121.142 195.414 121.481 196.002 121.481C196.472 121.481 196.97 121.238 197.403 121.077C197.904 120.891 198.402 120.692 198.896 120.484C199.847 120.085 200.783 119.654 201.698 119.178C205.154 117.378 208.38 114.977 210.854 111.949C211.241 111.475 211.318 110.807 210.854 110.343C210.454 109.943 209.638 109.866 209.248 110.343L209.248 110.344Z" fill="#211715"/>
<path d="M189.991 221.371C189.988 221.316 189.988 221.262 189.991 221.209C190.017 220.636 190.168 220.257 190.572 219.744C190.572 219.744 190.782 219.478 190.991 219.212L190.446 219.327C189.751 219.474 188.833 219.313 188.299 218.528C187.901 217.941 188.152 216.952 188.327 216.597C188.54 216.157 189.041 215.647 189.382 215.311C189.86 214.838 191.932 213.253 192.471 212.86C194.624 211.289 196.899 209.894 199.27 208.687C201.195 207.708 203.352 206.838 205.458 207.292C208.145 207.874 209.447 209.061 212.115 209.713C213.994 210.176 215.047 209.749 216.629 209.708C218.179 212.696 219.153 216.982 219.652 219.939C219.453 219.998 219.324 220.037 219.324 220.037C218.649 220.322 216.942 221.379 214.977 222.194C213.23 222.918 211.193 222.919 209.453 222.17C207.926 223.88 206.366 225.321 204.415 226.887C204.079 227.158 202.962 227.979 202.051 227.206C201.453 226.699 201.593 225.538 201.888 225.085C203.31 222.906 203.914 221.29 205.486 219.281C202.879 220.901 200.371 222.797 197.773 224.442C196.929 224.976 196.224 225.441 195.24 225.268C194.3 225.104 193.698 224.337 193.717 223.383C193.724 223.008 193.917 222.536 194.221 222.057C193.731 222.285 193.44 222.42 193.44 222.42C192.941 222.652 192.463 222.852 191.922 222.923C191.42 222.989 190.737 222.849 190.399 222.475C190.149 222.199 190.009 221.761 189.991 221.372V221.371Z" fill="white"/>
<path d="M190.144 218.232C189.998 218.258 189.647 218.246 189.438 218.103C189.122 217.887 189.209 217.531 189.305 217.204C189.375 216.968 189.333 217.114 189.307 217.17C189.354 217.07 189.416 216.968 189.48 216.877C189.618 216.681 189.797 216.506 189.964 216.334C190.197 216.094 190.443 215.875 190.7 215.662C192.123 214.482 193.615 213.387 195.176 212.367C197.319 210.968 199.646 209.492 202.094 208.697C203.331 208.295 204.505 208.194 205.767 208.534C206.843 208.824 207.837 209.29 208.851 209.74C210.12 210.303 211.417 210.804 212.801 210.986C214.081 211.154 215.314 210.894 216.59 210.844C218.046 210.785 218.054 208.515 216.59 208.573C215.38 208.621 214.162 208.921 212.951 208.73C211.638 208.523 210.41 207.965 209.208 207.424C207.972 206.867 206.699 206.329 205.35 206.125C203.834 205.896 202.315 206.178 200.893 206.719C198.016 207.815 195.294 209.498 192.776 211.252C191.265 212.305 189.645 213.404 188.358 214.728C187.376 215.738 186.612 217.101 187.069 218.556C187.559 220.113 189.276 220.685 190.747 220.421C191.351 220.313 191.692 219.577 191.54 219.025C191.365 218.388 190.749 218.123 190.143 218.232L190.144 218.232Z" fill="#211715"/>
<path d="M198.219 212.421C196.115 213.685 194.118 215.159 192.196 216.684C190.54 217.998 188.259 219.751 188.986 222.184C189.269 223.134 190.012 223.817 190.991 224.001C192.07 224.203 193.043 223.844 194.013 223.4C194.57 223.144 194.708 222.338 194.42 221.846C194.085 221.274 193.426 221.182 192.866 221.439C192.589 221.566 192.312 221.676 192.015 221.751C191.781 221.809 191.629 221.822 191.465 221.785C191.415 221.773 191.177 221.677 191.255 221.716C191.318 221.748 191.213 221.67 191.193 221.629C191.124 221.487 191.103 221.313 191.135 221.07C191.121 221.173 191.179 220.91 191.192 220.872C191.165 220.948 191.293 220.684 191.332 220.623C191.395 220.524 191.527 220.241 191.641 220.18C191.573 220.216 191.454 220.397 191.592 220.25C191.641 220.198 191.687 220.143 191.737 220.091C191.845 219.975 191.959 219.865 192.074 219.756C193.545 218.362 195.009 217.329 196.673 216.158C197.553 215.54 198.444 214.935 199.365 214.381C200.617 213.629 199.476 211.665 198.219 212.42L198.219 212.421Z" fill="#211715"/>
<path d="M201.931 214.767C200.216 215.846 198.565 217.019 196.914 218.193C195.409 219.262 193.774 220.261 192.958 221.997C192.183 223.646 192.771 225.612 194.567 226.258C196.497 226.952 198.281 225.488 199.786 224.481C201.76 223.161 203.684 221.767 205.688 220.493C206.917 219.711 205.78 217.745 204.542 218.532C202.659 219.729 200.847 221.031 198.998 222.28C198.12 222.873 197.206 223.614 196.227 224.032C195.794 224.217 195.159 224.243 194.934 223.823C194.681 223.349 195.035 222.822 195.404 222.329C196.017 221.511 196.89 220.985 197.71 220.403C199.479 219.148 201.241 217.884 203.078 216.728C204.312 215.952 203.173 213.986 201.931 214.767H201.931Z" fill="#211715"/>
<path d="M204.17 219.153C203.348 220.278 202.685 221.495 201.999 222.704C201.353 223.842 200.398 224.924 200.508 226.314C200.572 227.11 200.903 227.815 201.58 228.266C202.227 228.697 203.069 228.763 203.798 228.516C204.386 228.317 204.855 227.983 205.333 227.597C205.92 227.124 206.499 226.639 207.064 226.14C208.269 225.076 209.405 223.94 210.468 222.734C210.874 222.274 210.921 221.581 210.468 221.128C210.055 220.715 209.27 220.666 208.863 221.128C208.053 222.047 207.202 222.928 206.307 223.764C205.843 224.198 205.368 224.62 204.885 225.033C204.652 225.232 204.416 225.429 204.179 225.624C204.048 225.732 203.916 225.839 203.784 225.946C203.732 225.988 203.672 226.054 203.612 226.085C203.684 226.048 203.837 225.925 203.673 226.035C203.518 226.14 203.362 226.236 203.197 226.325C203.028 226.415 203.293 226.322 203.097 226.358C203.03 226.37 202.966 226.395 202.898 226.407C203.056 226.38 202.939 226.427 202.889 226.393C202.9 226.401 203.139 226.485 202.874 226.39C202.868 226.388 202.713 226.319 202.799 226.365C202.929 226.433 202.727 226.232 202.853 226.434C202.783 226.322 202.791 226.22 202.812 226.379C202.811 226.369 202.77 226.247 202.776 226.245C202.759 226.161 202.76 226.185 202.78 226.315L202.773 226.22C202.775 226.126 202.775 226.032 202.777 225.937C202.781 225.723 202.783 225.923 202.772 225.967C202.783 225.925 202.788 225.881 202.8 225.839C202.813 225.8 202.826 225.758 202.834 225.717C202.875 225.53 202.828 225.736 202.804 225.775C202.88 225.652 202.955 225.527 203.033 225.404C203.369 224.877 203.685 224.338 203.993 223.794C204.667 222.603 205.322 221.408 206.131 220.3C206.493 219.805 206.215 219.034 205.724 218.746C205.149 218.41 204.533 218.657 204.17 219.154L204.17 219.153Z" fill="#211715"/>
<path d="M209.821 223.512C211.833 224.111 213.878 223.895 215.787 223.074C217.197 222.467 218.493 221.626 219.896 221.018C220.459 220.773 220.587 219.948 220.304 219.464C219.964 218.883 219.315 218.811 218.75 219.057C217.503 219.597 216.347 220.344 215.107 220.907C213.594 221.594 212.033 221.801 210.425 221.322C209.021 220.904 208.422 223.094 209.821 223.512Z" fill="#211715"/>
<path d="M172.62 192.175C173.489 188.666 174.216 185.127 174.882 181.575C175.549 178.023 176.156 174.484 177.088 170.997C177.551 169.262 178.075 167.542 178.664 165.846C179.163 164.412 179.795 163.034 180.698 161.806C182.657 159.143 185.796 157.728 188.751 156.494C189.507 156.178 190.278 155.896 191.029 155.574C191.187 155.506 191.365 155.498 191.157 155.428C191.224 155.45 191.362 155.656 191.411 155.708C191.684 155.998 191.976 156.27 192.282 156.525C193.395 157.45 194.631 158.17 195.962 158.735C198.738 159.915 201.664 160.298 204.661 160.381C211.317 160.566 217.888 159.14 224.08 156.766C224.764 156.504 225.443 156.231 226.118 155.95C226.516 155.784 226.913 155.616 227.308 155.446C227.796 155.235 227.761 155.166 228.229 155.372C229.77 156.051 231.283 156.801 232.719 157.682C235.402 159.328 237.808 161.47 239.588 164.077C241.34 166.642 242.757 169.499 243.765 172.436C244.787 175.416 245.48 178.543 246.211 181.606C247.624 187.524 248.727 193.505 249.688 199.512C249.952 201.159 250.207 202.808 250.458 204.458C250.693 206.005 250.98 207.401 251.031 208.845C251.079 210.193 251.007 211.551 250.857 212.891C250.73 214.021 250.543 215.198 250.001 216.211C248.638 218.757 245.896 220.134 243.172 220.715C241.456 221.081 239.7 221.179 237.957 221.339C237.061 221.422 236.166 221.501 235.267 221.552C230.896 221.8 226.513 221.871 222.137 221.946C221.505 221.957 220.874 221.967 220.242 221.977L221.378 223.112C221.311 221.476 220.984 219.818 220.67 218.215C220.188 215.745 219.567 213.272 218.611 210.939C218.102 209.695 217.527 208.469 216.702 207.4C216.328 206.915 215.726 206.655 215.148 206.993C214.672 207.272 214.364 208.057 214.741 208.546C216.553 210.894 217.374 213.951 218.045 216.795C218.366 218.155 218.633 219.528 218.848 220.908C218.891 221.184 218.931 221.46 218.969 221.736C218.929 221.444 218.981 221.835 218.988 221.889C219.002 221.997 219.015 222.105 219.027 222.213C219.061 222.511 219.094 222.811 219.106 223.112C219.131 223.718 219.606 224.257 220.242 224.247C224.388 224.186 228.535 224.106 232.678 223.943C234.873 223.856 237.051 223.687 239.239 223.497C242.617 223.202 246.092 222.764 248.911 220.712C250.142 219.815 251.237 218.709 251.961 217.356C252.629 216.108 252.887 214.77 253.068 213.382C253.249 211.983 253.338 210.566 253.31 209.155C253.279 207.591 252.979 206.046 252.745 204.503C251.777 198.112 250.757 191.725 249.399 185.404C248.721 182.247 247.962 179.108 247.138 175.986C246.291 172.779 245.288 169.71 243.781 166.743C242.301 163.828 240.471 161.082 238.046 158.865C235.444 156.485 232.4 154.728 229.181 153.325C228.747 153.136 228.329 152.926 227.843 152.928C227.365 152.93 226.955 153.139 226.529 153.325C225.765 153.658 224.995 153.978 224.22 154.285C222.674 154.897 221.107 155.458 219.518 155.95C216.33 156.938 213.048 157.655 209.72 157.952C206.521 158.239 203.105 158.327 199.951 157.634C198.584 157.334 197.238 156.895 195.99 156.256C195.369 155.939 194.763 155.58 194.202 155.164C193.631 154.74 193.195 154.201 192.669 153.734C191.939 153.086 191.07 153.129 190.216 153.464C189.294 153.827 188.379 154.203 187.467 154.589C185.823 155.283 184.186 155.965 182.706 156.976C181.302 157.935 180.002 158.998 178.966 160.354C177.975 161.651 177.248 163.111 176.687 164.639C174.112 171.654 173.169 179.054 171.632 186.328C171.261 188.082 170.861 189.829 170.43 191.57C170.079 192.989 172.268 193.594 172.62 192.173V192.175Z" fill="#211715"/>
<path d="M102.534 105.929C90.0228 110.287 82.0186 122.05 82.0186 135.339C82.0186 154.818 94.1637 167.131 113.418 167.131C119.569 167.131 124.935 165.93 129.413 163.692C132.599 164.996 135.005 165.921 139.13 167.424C138.092 163.502 137.591 161.507 136.684 158.353C141.96 152.847 144.817 144.971 144.817 135.34C144.817 118.401 131.913 104.135 113.413 104.135C109.512 104.135 105.863 104.77 102.534 105.93L102.534 105.929Z" fill="white"/>
<path d="M102.232 104.834C95.2382 107.292 89.2635 112.103 85.4651 118.483C81.6321 124.922 80.3453 132.419 81.1084 139.82C81.775 146.285 83.9555 152.556 88.1267 157.606C92.0737 162.385 97.6263 165.59 103.602 167.101C107.049 167.972 110.632 168.318 114.183 168.26C118.581 168.188 123.028 167.505 127.146 165.919C128.111 165.547 129.06 165.132 129.986 164.672L129.111 164.787C132.324 166.101 135.568 167.331 138.829 168.519C139.668 168.825 140.432 167.904 140.225 167.123C139.424 164.095 138.643 161.062 137.779 158.051L137.487 159.156C141.578 154.859 144.111 149.345 145.205 143.544C146.299 137.744 146.285 131.614 144.612 125.914C143.156 120.951 140.51 116.351 136.908 112.636C133.24 108.854 128.615 106.059 123.587 104.5C117.52 102.62 110.83 102.5 104.688 104.091C103.859 104.306 103.041 104.556 102.232 104.835C100.859 105.308 101.449 107.503 102.836 107.025C109.188 104.836 116.238 104.673 122.679 106.598C127.921 108.165 132.644 111.179 136.264 115.283C139.816 119.309 142.161 124.305 143.157 129.57C143.723 132.569 143.783 135.633 143.563 138.671C143.322 141.994 142.667 145.292 141.514 148.422C140.501 151.174 139.049 153.813 137.184 156.083C136.959 156.357 136.728 156.626 136.491 156.89C136.207 157.208 135.818 157.523 135.646 157.916C135.436 158.393 135.658 158.895 135.791 159.364C135.909 159.779 136.026 160.195 136.141 160.611C136.546 162.074 136.933 163.541 137.319 165.008C137.557 165.915 137.795 166.821 138.035 167.727L139.431 166.33C137.314 165.558 135.201 164.777 133.101 163.956C132.194 163.601 131.289 163.239 130.386 162.872C130.168 162.784 129.941 162.657 129.714 162.598C129.29 162.488 128.964 162.653 128.599 162.831C128.145 163.053 127.687 163.264 127.222 163.459C123.002 165.224 118.41 165.952 113.855 165.995C107.112 166.058 100.32 164.553 94.7528 160.665C89.6349 157.09 86.1336 151.631 84.4669 145.599C82.513 138.528 82.6246 130.744 85.3217 123.887C88.0633 116.916 93.4939 111.206 100.278 108.057C101.113 107.669 101.967 107.331 102.836 107.026C103.414 106.822 103.8 106.249 103.629 105.629C103.475 105.069 102.813 104.632 102.232 104.836L102.232 104.834Z" fill="#211715"/>
<path d="M123.605 127.021C116.767 127.02 105.065 127.043 99.8394 127.037C100.94 130.917 102.631 136.906 103.868 141.216C109.112 141.201 122.075 141.165 125.063 141.158C125.507 141.157 125.889 140.852 125.989 140.42C126.541 138.044 128.132 131.132 128.796 128.191C128.931 127.595 128.48 127.03 127.869 127.027C126.956 127.022 125.459 127.021 123.605 127.021Z" fill="#FFDA71"/>
<path d="M103.54 128.164C110.57 128.269 117.606 128.153 124.637 128.156C125.397 128.156 126.157 128.157 126.918 128.159C127.142 128.159 127.587 128.249 127.797 128.162C127.961 128.095 127.77 128.232 127.76 128.133L127.689 128.024C127.71 127.857 127.707 127.846 127.679 127.99C127.578 128.143 127.571 128.466 127.53 128.644C127.018 130.898 126.501 133.15 125.983 135.402C125.739 136.465 125.494 137.529 125.248 138.592C125.157 138.987 125.066 139.381 124.974 139.776C124.953 139.867 124.798 140.263 124.952 140.058C125.083 139.884 125.086 140.087 124.991 140.023C124.941 139.99 124.743 140.024 124.682 140.024C122.925 140.029 121.167 140.035 119.41 140.042C115.572 140.056 111.733 140.082 107.895 140.083C106.433 140.083 106.431 142.354 107.895 142.354C111.428 142.353 114.96 142.329 118.493 142.316C120.443 142.309 122.393 142.302 124.342 142.295C124.759 142.294 125.201 142.329 125.606 142.218C126.42 141.997 126.924 141.348 127.123 140.557C127.359 139.62 127.559 138.673 127.775 137.732C128.339 135.285 128.901 132.838 129.46 130.391C129.708 129.305 130.293 127.896 129.638 126.875C128.97 125.834 127.827 125.89 126.74 125.888C122.669 125.878 118.599 125.889 114.528 125.895C110.867 125.901 107.202 125.948 103.541 125.893C102.079 125.872 102.079 128.142 103.541 128.164H103.54Z" fill="#211715"/>
<path d="M106.87 134.969C111.555 134.969 116.241 134.945 120.927 134.932C121.641 134.93 122.355 134.927 123.069 134.927C124.531 134.927 124.533 132.656 123.069 132.656C118.56 132.657 114.051 132.682 109.542 132.693C108.651 132.696 107.761 132.698 106.87 132.698C105.408 132.698 105.406 134.969 106.87 134.969Z" fill="#211715"/>
<path d="M109.667 130.64C109.92 132.929 110.108 135.228 110.404 137.512C110.481 138.098 110.872 138.677 111.54 138.647C112.09 138.622 112.757 138.143 112.675 137.512C112.379 135.227 112.192 132.929 111.938 130.64C111.873 130.052 111.463 129.476 110.803 129.505C110.244 129.53 109.597 130.008 109.667 130.64Z" fill="#211715"/>
<path d="M118.12 130.64C117.93 132.999 117.732 135.357 117.574 137.719C117.534 138.312 118.124 138.88 118.709 138.854C119.358 138.825 119.802 138.355 119.845 137.719C120.003 135.357 120.201 132.999 120.39 130.64C120.438 130.046 119.834 129.479 119.255 129.505C118.599 129.534 118.171 130.004 118.12 130.64Z" fill="#211715"/>
<path d="M95.5915 124.452C96.1574 124.452 96.7237 124.454 97.2895 124.456C97.3595 124.456 98.0128 124.523 98.062 124.457C97.9575 124.598 97.8756 124.132 97.9234 124.454C97.9996 124.962 98.2186 125.488 98.3591 125.981C98.7773 127.454 99.1941 128.926 99.6114 130.399C100.603 133.898 101.593 137.398 102.594 140.894C102.98 142.242 103.366 143.589 103.761 144.934C103.96 145.61 104.102 146.365 104.635 146.866C105.262 147.456 106.052 147.436 106.849 147.437C109.945 147.442 113.041 147.448 116.136 147.454C118.942 147.458 121.749 147.466 124.555 147.467C126.016 147.467 126.019 145.196 124.555 145.196C118.929 145.196 113.303 145.178 107.677 145.168C107.208 145.167 106.641 145.078 106.18 145.165C105.843 145.229 106.388 145.159 106.246 145.321C106.264 145.3 106.182 145.109 106.171 145.071C106.097 144.824 106.024 144.577 105.951 144.33C105.55 142.964 105.157 141.596 104.766 140.227C103.759 136.708 102.762 133.186 101.764 129.664C101.313 128.072 100.863 126.48 100.41 124.888C100.209 124.183 100.075 123.368 99.5565 122.82C99.0158 122.249 98.3024 122.187 97.5643 122.185C96.9067 122.184 96.2491 122.181 95.5915 122.181C94.1302 122.18 94.1278 124.451 95.5915 124.452Z" fill="#211715"/>
<path d="M108.464 149.082C109.867 149.082 110.836 150.168 110.836 151.439C110.836 152.911 109.919 153.841 108.464 153.841C106.976 153.841 106.092 152.911 106.092 151.439C106.092 150.16 107.066 149.082 108.464 149.082Z" fill="#211715"/>
<path d="M122.011 149.082C123.414 149.082 124.383 150.168 124.383 151.439C124.383 152.911 123.466 153.841 122.011 153.841C120.523 153.841 119.639 152.911 119.639 151.439C119.639 150.16 120.614 149.082 122.011 149.082Z" fill="#211715"/>
<path d="M199.222 134.284C199.06 134.67 198.934 135.074 198.815 135.475C198.617 136.149 198.378 136.996 198.943 137.566C199.042 137.667 199.218 137.795 199.358 137.867C199.511 137.945 199.678 138.023 199.849 138.058C200.094 138.109 200.306 138.104 200.548 138.107C200.838 138.109 201.147 137.978 201.351 137.774C201.548 137.577 201.696 137.254 201.684 136.971C201.67 136.677 201.574 136.373 201.351 136.168C201.128 135.963 200.857 135.839 200.548 135.836C200.424 135.834 200.303 135.849 200.179 135.833L200.481 135.874C200.418 135.863 200.359 135.846 200.299 135.823L200.57 135.937C200.482 135.899 200.403 135.849 200.327 135.792L200.557 135.969C200.553 135.967 200.551 135.964 200.548 135.961L200.726 136.191C200.721 136.185 200.719 136.179 200.716 136.173L200.83 136.444C200.825 136.429 200.822 136.416 200.82 136.401L200.86 136.702C200.854 136.643 200.86 136.583 200.868 136.524L200.827 136.826C200.876 136.464 200.992 136.108 201.103 135.761C201.196 135.468 201.292 135.172 201.411 134.889C201.517 134.637 201.427 134.237 201.297 134.014C201.159 133.778 200.889 133.553 200.618 133.492C200.328 133.426 200.001 133.44 199.744 133.606L199.514 133.784C199.373 133.925 199.276 134.092 199.222 134.285L199.222 134.284Z" fill="#211715"/>
<path d="M190.722 129.299C190.401 130.307 190.544 132.643 192.381 132.877C194.815 132.909 195.007 130.092 194.217 128.751C193.57 127.652 191.607 127.162 190.722 129.299Z" fill="#211715"/>
<path d="M211.612 129.385C211.916 130.451 211.653 132.882 209.643 133.048C206.991 132.977 206.911 130.029 207.832 128.662C208.586 127.543 210.745 127.117 211.612 129.385H211.612Z" fill="#211715"/>
<path d="M198.187 144.34C199.285 144.713 200.516 144.772 201.664 144.658C202.964 144.529 204.237 144.22 205.393 143.596C205.917 143.314 206.125 142.546 205.801 142.042C205.458 141.511 204.807 141.333 204.247 141.635C204.143 141.691 204.038 141.745 203.932 141.796C203.929 141.797 203.671 141.914 203.819 141.849C203.951 141.792 203.766 141.869 203.742 141.879C203.493 141.975 203.238 142.058 202.981 142.129C202.717 142.202 202.45 142.262 202.18 142.312C202.116 142.324 202.052 142.335 201.988 142.345C201.963 142.349 201.756 142.383 201.898 142.361C202.041 142.339 201.833 142.368 201.808 142.371C201.727 142.38 201.647 142.389 201.566 142.396C201.049 142.442 200.528 142.449 200.01 142.408C199.935 142.402 199.861 142.394 199.786 142.387C199.589 142.369 199.824 142.399 199.826 142.395C199.82 142.409 199.519 142.343 199.488 142.337C199.251 142.29 199.018 142.228 198.79 142.15C198.227 141.959 197.524 142.369 197.393 142.943C197.25 143.572 197.584 144.135 198.186 144.34L198.187 144.34Z" fill="#211715"/>
</svg>
