<svg width="135" height="44" viewBox="0 0 135 44" fill="none" xmlns="http://www.w3.org/2000/svg">
<path fill-rule="evenodd" clip-rule="evenodd" d="M7.24276 17.6782C3.53367 22.0659 -1.12949 26.7432 0.246733 31.9459C1.65637 37.2749 5.74647 40.587 13.9571 43.0613C22.1678 45.5357 108.401 42.4418 114.164 41.5034C120.643 40.4485 128.62 41.6541 132.525 37.3275C136.558 32.8584 134.979 25.521 132.609 22.2628C128.879 17.1338 125.802 14.1359 120.568 10.3634C93.8807 -8.87365 30.6849 3.5005 18.5643 9.17282C12.8429 11.8504 10.5583 13.7561 7.24276 17.6782Z" fill="#D4AB8E"/>
<path d="M41.756 21.296H45.036V22.464H41.756V21.296ZM40.54 25.952H45.964V27.008H40.54V25.952ZM35.244 17.12H39.692V18.336H35.244V17.12ZM39.292 17.12H39.548L39.788 17.072L40.732 17.536C39.548 20.272 36.956 22.08 34.316 23.008C34.124 22.688 33.756 22.16 33.5 21.904C35.9 21.168 38.364 19.472 39.292 17.36V17.12ZM42.188 16.544C43.308 18.976 45.644 20.88 48.62 21.664C48.3 21.952 47.916 22.48 47.708 22.848C44.62 21.872 42.268 19.76 40.972 16.912L42.188 16.544ZM45.084 16.608L46.188 17.376C45.42 18.08 44.476 18.8 43.756 19.296L42.876 18.608C43.564 18.096 44.54 17.232 45.084 16.608ZM47.068 18.208L48.172 18.976C47.404 19.68 46.428 20.4 45.692 20.88L44.78 20.192C45.5 19.68 46.508 18.816 47.068 18.208ZM35.948 21.36H39.836V25.136H38.476V22.528H35.948V21.36ZM35.436 23.984H36.684C36.524 25.216 36.316 26.72 36.124 27.68H34.844C35.068 26.688 35.292 25.168 35.436 23.984ZM38.476 26.544H39.852C39.852 26.544 39.836 26.912 39.804 27.104C39.628 29.312 39.436 30.304 39.036 30.704C38.716 31.024 38.38 31.136 37.868 31.168C37.436 31.2 36.604 31.2 35.724 31.152C35.708 30.752 35.532 30.224 35.292 29.872C36.14 29.936 36.988 29.952 37.292 29.952C37.58 29.952 37.756 29.936 37.884 29.808C38.156 29.584 38.332 28.736 38.476 26.736V26.544ZM41.196 21.296H42.476V22.528C42.476 23.632 42.14 24.896 40.716 25.76C40.524 25.488 40.028 24.992 39.756 24.816C41.004 24.128 41.196 23.264 41.196 22.496V21.296ZM45.644 25.952H45.916L46.156 25.904L46.988 26.208C45.916 29.152 43.404 30.64 40.38 31.36C40.252 31.04 39.964 30.544 39.724 30.256C42.428 29.744 44.78 28.4 45.644 26.128V25.952ZM35.996 23.984H38.956V25.136H35.788L35.996 23.984ZM35.532 26.544H38.86V27.68H35.308L35.532 26.544ZM34.78 19.296L35.644 18.496C36.348 18.88 37.228 19.472 37.66 19.904L36.748 20.816C36.348 20.368 35.484 19.728 34.78 19.296ZM44.348 21.296H45.612V23.76C45.612 24.144 45.644 24.256 45.868 24.256C46.044 24.256 46.7 24.256 46.876 24.256C47.1 24.256 47.484 24.24 47.676 24.192C47.692 24.496 47.724 24.944 47.772 25.232C47.564 25.312 47.228 25.312 46.908 25.312C46.684 25.312 45.932 25.312 45.708 25.312C44.572 25.312 44.348 24.864 44.348 23.744V21.296ZM40.428 27.792L41.148 26.944C43.052 27.952 45.724 29.456 47.084 30.384L46.316 31.376C45.02 30.448 42.38 28.864 40.428 27.792ZM57.356 17.168H65.532V21.392H57.324V20.128H64.108V18.432H57.356V17.168ZM56.524 17.168H57.916V22.144C57.916 24.832 57.708 28.8 56.252 31.376C56.012 31.136 55.404 30.704 55.068 30.56C56.412 28.128 56.524 24.656 56.524 22.144V17.168ZM61.276 21.856H62.54V30.336H61.276V21.856ZM64.364 26.864H65.612V31.264H64.364V26.864ZM58.572 22.448H59.788V24.864H64.14V22.432H65.388V26.064H58.572V22.448ZM51.084 24.832C52.3 24.544 54.108 24.016 55.852 23.488L56.044 24.864C54.476 25.36 52.78 25.888 51.452 26.304L51.084 24.832ZM51.324 19.648H55.948V21.04H51.324V19.648ZM53.116 16.512H54.508V29.536C54.508 30.288 54.364 30.688 53.932 30.912C53.5 31.152 52.844 31.2 51.82 31.2C51.772 30.832 51.596 30.208 51.42 29.808C52.06 29.824 52.652 29.824 52.844 29.808C53.036 29.808 53.116 29.744 53.116 29.52V16.512ZM58.332 26.88H59.564V29.536H65.148V30.752H58.332V26.88ZM77.116 22.064H83.036V23.456H77.116V22.064ZM73.756 29.168H81.532V30.512H73.756V29.168ZM76.396 20.336H77.948V26.24H76.396V20.336ZM72.956 25.312H82.268V31.136H80.732V26.704H74.444V31.152H72.956V25.312ZM70.892 18.384H83.484V19.824H70.892V18.384ZM70.204 18.384H71.756V22.528C71.756 25.072 71.532 28.88 70.044 31.36C69.756 31.104 69.084 30.64 68.716 30.48C70.092 28.176 70.204 24.864 70.204 22.512V18.384ZM75.66 16.848L77.164 16.528C77.612 17.2 78.044 18.128 78.188 18.752L76.604 19.152C76.476 18.512 76.076 17.552 75.66 16.848ZM87.132 17.856H100.748V21.312H99.196V19.248H88.62V21.312H87.132V17.856ZM89.292 20.496H98.46V21.792H89.292V20.496ZM92.076 22.928L93.228 22.288C96.348 24.928 96.236 29.552 94.796 30.688C94.268 31.184 93.804 31.328 93.036 31.328C92.684 31.344 92.188 31.328 91.692 31.312C91.676 30.896 91.548 30.288 91.276 29.872C91.868 29.936 92.396 29.952 92.748 29.952C93.148 29.952 93.436 29.904 93.692 29.6C94.588 28.864 94.732 25.232 92.076 22.928ZM93.756 20.912L95.004 21.44C93.324 23.104 90.46 24.336 87.884 25.072C87.74 24.784 87.34 24.16 87.084 23.872C89.58 23.312 92.316 22.272 93.756 20.912ZM93.196 23.936L94.172 24.656C92.636 25.808 89.852 27.088 87.772 27.744C87.596 27.408 87.276 26.896 87.004 26.576C89.068 26.096 91.836 24.96 93.196 23.936ZM94.124 25.824L95.164 26.608C93.404 28.208 90.172 29.824 87.548 30.624C87.372 30.24 87.052 29.696 86.764 29.36C89.356 28.752 92.556 27.264 94.124 25.824ZM97.34 24.832C98.028 26.896 99.468 28.656 101.436 29.44C101.1 29.712 100.652 30.288 100.444 30.672C98.284 29.664 96.812 27.664 96.012 25.152L97.34 24.832ZM98.428 22.256L99.676 23.248C98.284 24.352 96.46 25.584 95.068 26.336L94.092 25.472C95.468 24.672 97.324 23.312 98.428 22.256ZM92.556 16.816L94.14 16.368C94.492 16.944 94.892 17.728 95.02 18.24L93.372 18.768C93.244 18.24 92.892 17.424 92.556 16.816Z" fill="#222222"/>
</svg>
