<svg width="135" height="44" viewBox="0 0 135 44" fill="none" xmlns="http://www.w3.org/2000/svg">
<path fill-rule="evenodd" clip-rule="evenodd" d="M7.24276 17.6782C3.53367 22.0659 -1.12949 26.7432 0.246733 31.9459C1.65637 37.2749 5.74647 40.587 13.9571 43.0613C22.1678 45.5357 108.401 42.4418 114.164 41.5034C120.643 40.4485 128.62 41.6541 132.525 37.3275C136.558 32.8584 134.979 25.521 132.609 22.2628C128.879 17.1338 125.802 14.1359 120.568 10.3634C93.8807 -8.87365 30.6849 3.5005 18.5643 9.17282C12.8429 11.8504 10.5583 13.7561 7.24276 17.6782Z" fill="#F3D075"/>
<path d="M42.364 17.512H43.804V26.76H42.364V17.512ZM38.476 26.12H46.396V27.4H38.476V26.12ZM44.412 21.256H46.924V22.504H44.412V21.256ZM39.356 21.256H41.788V22.504H39.356V21.256ZM38.652 23.816H41.868V25.096H38.652V23.816ZM38.652 19.112L39.996 19.544V24.696H38.652V19.112ZM41.148 17.944L42.076 19.032C41.148 19.432 40.108 19.784 39.324 19.976L38.652 19.112C39.404 18.856 40.524 18.312 41.148 17.944ZM45.98 26.12H46.284L46.54 26.072L47.5 26.504C45.964 30.056 42.332 31.688 38.252 32.376C38.124 31.992 37.82 31.368 37.564 31.032C41.356 30.552 44.764 29.112 45.98 26.328V26.12ZM40.908 27.144C42.284 29.176 45.164 30.536 48.636 31.016C48.3 31.336 47.9 31.96 47.692 32.344C44.108 31.72 41.244 30.104 39.612 27.608L40.908 27.144ZM44.332 18.664H47.644V25.112H44.332V23.832H46.332V19.928H44.332V18.664ZM33.612 25.864C34.764 25.528 36.46 24.936 38.108 24.344L38.364 25.704C36.876 26.264 35.276 26.856 33.996 27.32L33.612 25.864ZM33.804 20.648H38.156V22.04H33.804V20.648ZM35.484 17.528H36.892V30.536C36.892 31.272 36.732 31.672 36.316 31.912C35.884 32.152 35.244 32.2 34.268 32.2C34.236 31.816 34.06 31.192 33.868 30.776C34.476 30.808 35.036 30.808 35.228 30.792C35.42 30.792 35.484 30.744 35.484 30.536V17.528ZM53.564 18.264H63.804V22.984H53.468V21.96H62.316V19.304H53.564V18.264ZM60.364 24.696V26.056H63.612V24.696H60.364ZM58.94 23.672H65.1V27.064H58.94V23.672ZM51.548 20.12H63.036V21.128H51.548V20.12ZM63.004 20.024H65.932V21.208H63.004V20.024ZM51.996 23.672H57.964V24.76H51.996V23.672ZM51.404 27.928H65.996V29.176H51.404V27.928ZM61.244 26.904H62.748V30.904C62.748 31.64 62.572 31.976 61.996 32.168C61.42 32.36 60.556 32.36 59.244 32.36C59.164 31.992 58.956 31.48 58.764 31.128C59.692 31.176 60.652 31.16 60.908 31.16C61.18 31.144 61.244 31.08 61.244 30.856V26.904ZM54.22 24.072H55.644V26.376H54.22V24.072ZM51.708 26.232C53.356 26.168 55.852 26.008 58.252 25.848V26.952C55.932 27.128 53.532 27.288 51.804 27.416L51.708 26.232ZM54.092 29.752L55.116 28.888C55.98 29.384 57.036 30.184 57.548 30.776L56.46 31.72C55.996 31.112 54.972 30.296 54.092 29.752ZM74.796 25.688H83.468V27.032H74.796V25.688ZM80.236 26.472C81.036 27.976 82.556 29.608 83.916 30.44C83.58 30.712 83.1 31.224 82.876 31.592C81.5 30.552 79.996 28.648 79.148 26.888L80.236 26.472ZM76.684 21.912V23.304H81.628V21.912H76.684ZM76.684 19.352V20.728H81.628V19.352H76.684ZM75.34 18.136H83.036V24.52H75.34V18.136ZM78.092 26.376L79.228 26.776C78.364 28.744 76.812 30.68 75.212 31.688C74.988 31.336 74.524 30.792 74.204 30.52C75.74 29.704 77.292 28.024 78.092 26.376ZM78.476 18.76H79.788V23.944H79.868V32.344H78.396V23.944H78.476V18.76ZM69.548 22.36H74.348V23.528H69.548V22.36ZM69.548 24.488H74.348V25.656H69.548V24.488ZM68.876 20.184H74.876V21.416H68.876V20.184ZM70.204 26.664H74.46V31.416H70.204V30.184H73.132V27.896H70.204V26.664ZM69.532 26.664H70.844V32.136H69.532V26.664ZM70.652 18.008L71.82 17.432C72.284 18.088 72.78 18.952 73.036 19.528L71.82 20.216C71.596 19.624 71.084 18.68 70.652 18.008ZM95.98 25.08H97.484V31.544H95.98V25.08ZM92.124 30.648H101.212V31.976H92.124V30.648ZM92.972 27.496H100.556V28.776H92.972V27.496ZM94.524 19.544V22.248H98.972V19.544H94.524ZM93.116 18.264H100.428V23.544H93.116V18.264ZM99.804 23.96L100.748 25.096C98.668 25.64 95.532 25.944 92.956 26.04C92.908 25.72 92.748 25.208 92.604 24.888C95.116 24.744 98.092 24.44 99.804 23.96ZM89.1 18.904H90.572V32.328H89.1V18.904ZM86.62 22.008H92.444V23.416H86.62V22.008ZM89.18 22.568L90.092 22.952C89.468 25.224 88.252 28.056 87.02 29.576C86.876 29.144 86.54 28.52 86.284 28.152C87.42 26.872 88.636 24.456 89.18 22.568ZM91.596 17.704L92.636 18.872C91.052 19.496 88.812 19.928 86.924 20.168C86.844 19.848 86.652 19.336 86.476 19.016C88.3 18.712 90.38 18.248 91.596 17.704ZM90.524 24.136C90.924 24.472 92.38 25.976 92.7 26.344L91.82 27.544C91.436 26.84 90.332 25.336 89.836 24.744L90.524 24.136Z" fill="#222222"/>
</svg>
