<svg width="223" height="28" viewBox="0 0 223 28" fill="none" xmlns="http://www.w3.org/2000/svg">
<path d="M211.877 24.4121L211.619 23.6387L211.76 23.3809H212.018L212.135 23.0059H212.393V22.6074H211.619L211.244 22.2324L210.986 23.123H210.729V23.3809H210.471L210.354 23.7793L209.463 23.8965C208.619 23.6465 207.814 23.3027 207.049 22.8652L206.932 22.2324H207.189L207.307 21.0605L207.424 20.8027L207.189 20.2871L206.416 20.1699L206.158 20.9434C205.564 20.7715 205.104 20.9434 204.775 21.459L204.635 21.7168C204.041 21.9668 203.447 22.1777 202.854 22.3496L202.221 22.2324V22.748C201.471 22.8262 200.799 23.0371 200.205 23.3809L200.064 23.7793L198.682 24.1543L198.166 24.0371L197.65 24.1543L197.018 23.3809C198.205 22.0996 198.838 20.5527 198.916 18.7402C198.932 17.7871 198.854 16.8418 198.682 15.9043L199.807 15.6465L200.064 16.3027L201.096 16.5605L201.729 17.0762C201.635 16.5605 201.713 16.1309 201.963 15.7871C201.916 14.8809 201.877 13.9746 201.846 13.0684L202.104 12.5527L201.963 12.1543H202.221L202.736 12.2949L203.111 11.6387H202.736V11.8965H202.479L201.33 11.5215L200.838 11.7793L199.807 11.5215L199.572 11.8965H199.314V12.1543H198.283C197.268 10.6074 196.721 8.84961 196.643 6.88086L196.127 6.48242V5.9668H195.752V4.04492H196.268C196.939 4.29492 197.611 4.5918 198.283 4.93555L199.057 4.67773L199.174 4.93555H199.432V4.67773L199.807 4.30273L200.58 4.04492H200.838L201.471 4.41992L201.846 4.16211V4.41992H202.221L202.854 4.30273L203.252 4.41992L204.143 3.9043V4.16211H204.518H205.268L206.041 3.78711L206.299 3.64648L206.932 3.78711L207.424 3.64648V4.41992L207.822 4.56055V5.07617L207.564 5.70898L207.682 6.10742L207.189 6.88086H206.932C206.76 7.91211 206.463 8.81055 206.041 9.57617L206.299 9.83398H206.041L205.783 9.7168L205.268 10.748L204.002 11.123V12.2949C204.002 12.9824 203.83 13.5371 203.486 13.959L204.002 14.2168L204.143 14.6152H205.15C206.838 14.0059 208.572 13.6152 210.354 13.4434V13.8418L209.721 14.6152L208.947 14.873L208.455 14.7324L208.314 15.2715L207.682 15.1309C206.416 15.5684 205.104 15.959 203.744 16.3027L203.627 17.1934L203.885 18.623L203.744 18.998L204.893 19.5137C205.564 19.0918 206.33 18.9199 207.189 18.998V18.7402H207.939L208.08 18.2246H208.572V17.334L208.455 16.9355L209.346 16.4199V15.9043L209.721 16.5605H210.236L210.611 15.7871L211.244 15.6465L211.76 15.7871C212.088 15.1777 212.252 14.4824 212.252 13.7012H211.877V13.3262L212.65 12.9277L212.768 12.4121C212.518 11.6465 212.432 10.834 212.51 9.97461L212.135 9.83398L212.018 9.45898L211.502 9.31836V9.06055L210.729 8.94336L210.611 8.54492L209.721 8.28711V8.54492L209.838 8.94336H209.463L209.205 8.28711L209.346 7.77148L213.4 6.88086V6.62305L213.283 6.36523L213.4 6.62305H213.658L213.916 6.10742L213.658 5.9668V5.45117H213.283V5.19336L213.4 4.67773L213.143 3.9043C213.408 3.56055 213.494 3.16992 213.4 2.73242H213.775L214.174 2.87305L214.291 2.47461L214.174 2.2168L214.408 2.35742L215.182 2.47461L215.439 3.13086L216.33 3.5293V3.78711L216.189 4.41992L216.33 4.93555L216.447 5.33398L216.33 5.70898H216.588L216.963 6.22461H217.713L218.744 6.10742L219.236 6.36523L219.869 5.9668L220.76 6.22461V6.48242L221.393 6.62305V7.39648L221.158 8.16992L221.393 8.42773H220.643L220.127 8.0293L219.752 8.16992L219.236 7.91211L219.119 9.20117C219.119 9.88867 219.416 10.4434 220.01 10.8652L219.635 10.748L219.377 11.2637L219.635 11.3809V11.6387L218.979 12.0371V12.2949L219.752 12.9277L220.127 12.2949C220.049 12.8105 220.221 13.1074 220.643 13.1855L220.76 12.8105L220.525 11.8965L221.908 11.2637L222.682 11.5215L222.799 16.3027H222.424L222.283 15.9043L221.158 15.5293V16.3027L221.533 16.4199L221.65 16.9355L221.393 17.4512L221.533 17.9668L221.393 18.3652H221.65V18.8809C221.65 19.4746 221.486 19.9043 221.158 20.1699L220.9 19.7715H220.525V20.0293L221.018 21.2012L220.643 21.7168L220.01 21.459V21.7168L220.268 22.3496L219.869 22.4902L219.119 23.2637L218.346 23.3809L218.229 22.748L218.979 22.4902V22.0918H218.229V21.7168L218.346 20.1699H217.971V19.9121L218.229 19.3965H217.971V18.998H218.229L218.346 17.1934H217.854V16.9355L218.111 16.3027H217.455C217.549 15.4277 217.471 14.6074 217.221 13.8418L217.338 13.4434H216.822L216.705 11.5215L217.221 11.123V10.6074L216.705 10.3496L216.33 9.57617H216.705V9.31836C215.768 8.89648 214.752 8.68555 213.658 8.68555V9.20117L213.775 9.57617L214.408 9.7168C214.752 10.1387 214.885 10.6074 214.807 11.123C214.541 11.6387 214.455 12.2402 214.549 12.9277L215.064 13.7012L214.807 13.8418V14.0996C215.135 14.3496 215.26 14.6934 215.182 15.1309L215.064 15.9043L215.439 17.9668L215.299 18.3652L215.557 20.0293L215.439 21.0605L214.807 21.7168L214.666 23.0059H214.174C214.252 23.5215 214.041 23.8184 213.541 23.8965C212.947 23.9902 212.393 24.1621 211.877 24.4121ZM212.252 23.8965L211.877 23.7793V24.0371L212.252 23.8965ZM210.236 23.6387V23.3809H209.979V23.6387H210.236ZM212.135 21.9746L212.252 21.5762L211.361 20.9434V21.2012L211.619 21.9746H212.135ZM212.768 21.459L212.885 21.0605L212.252 20.9434V21.2012L212.768 21.459ZM220.01 21.459V20.9434H219.752L219.494 21.459H220.01ZM202.361 20.4277L201.963 18.8809H201.471V19.2559L201.588 19.6543H201.33L201.213 20.5449L202.361 20.4277ZM212.393 19.9121L212.51 19.5137L212.252 19.3965V19.1387L212.018 20.0293L212.393 19.9121ZM221.158 19.2559L220.76 18.8809V19.1387L221.158 19.2559ZM218.486 19.1387V18.8809H218.229V19.1387H218.486ZM212.252 18.7402V18.3652H211.877V18.7402H212.252ZM202.104 18.623V18.3652L201.846 17.8496L201.963 17.334H201.33L201.213 17.8496L201.33 18.623H202.104ZM221.275 18.4824V18.2246H221.018V18.4824H221.275ZM211.76 17.709L212.135 17.5918V17.334L211.619 17.1934L211.361 17.8496L211.76 17.709ZM221.158 17.1934L220.76 16.6777V17.0762L221.158 17.1934ZM199.314 16.6777L198.916 16.4199V16.8184L199.314 16.6777ZM221.275 15.3887V15.1309H220.9L220.643 15.6465H221.275V15.3887ZM222.049 15.2715V14.9902H221.791V15.2715H222.049ZM219.236 15.1309V14.6152H218.861L218.604 15.1309H219.236ZM221.791 14.873V14.6152H221.275V14.873L221.791 15.1309V14.873ZM218.111 14.3574L218.346 13.8418L217.713 14.4746L218.111 14.3574ZM217.596 12.6699L217.455 11.8965L217.08 12.4121L217.596 12.6699ZM200.322 12.5527L200.58 12.2949V12.5527H200.322ZM202.619 9.83398V9.57617C203.197 8.99805 203.83 8.48242 204.518 8.0293L204.635 7.51367L205.408 7.13867L205.783 5.70898L204.518 5.33398C203.252 5.24023 202.111 5.41211 201.096 5.84961L199.947 5.70898C199.432 6.05273 198.877 6.27148 198.283 6.36523V6.74023H198.541L198.682 7.25586L198.541 7.51367C198.713 7.85742 198.838 8.28711 198.916 8.80273C199.182 9.14648 199.4 9.53711 199.572 9.97461L199.947 10.0918C200.713 9.91992 201.385 9.66211 201.963 9.31836L202.619 9.83398ZM213.4 9.45898L213.541 8.68555H213.143V9.45898H213.4ZM216.33 8.42773L215.697 7.91211V8.28711L216.33 8.42773ZM220.01 7.39648L219.494 7.25586V7.51367L220.01 7.39648ZM206.041 5.70898V5.45117L205.666 5.33398V5.70898H206.041ZM204.143 5.19336L203.744 5.07617V5.33398L204.143 5.19336ZM214.291 4.93555L214.408 4.41992H214.033L213.658 4.56055V4.93555H214.291ZM215.557 4.67773V4.41992H215.299V4.67773H215.557Z" fill="black"/>
<path d="M186.598 26.873L186.34 26.3574H185.965L185.59 26.4746V26.2168L184.184 26.0996C183.605 25.9277 183.059 25.709 182.543 25.4434L182.168 25.584L180.785 25.0684V24.6699H180.27C178.926 24.3262 177.707 23.7246 176.613 22.8652L176.496 22.2324C175.902 22.1387 175.395 21.8809 174.973 21.459C174.473 22.9121 174.012 24.373 173.59 25.8418L172.441 26.2168L171.691 25.4434L171.809 24.8105L171.691 24.2949H172.066V23.8965L171.949 23.3809L172.066 23.123L172.582 23.0059V22.6074H172.184V22.2324C172.527 21.5449 172.785 20.8105 172.957 20.0293L173.332 19.9121C173.348 19.584 173.262 19.2793 173.074 18.998L173.449 18.3652L173.215 17.9668L174.223 16.4199H175.348L175.723 18.1074L176.871 18.7402L177.504 19.9121L177.762 20.0293L178.137 20.9434H178.395L178.629 20.8027L179.145 21.2012V21.834H179.52L180.785 22.3496V23.0059H181.16L181.91 22.8652L183.574 23.6387L184.066 23.8965L184.441 23.7793L184.582 24.2949H185.59L186.457 24.1543L187.09 24.4121C187.715 24.3809 188.348 24.3418 188.988 24.2949L189.504 24.5527L189.996 24.2949L190.629 24.4121L191.262 24.2949L191.402 25.7012L190.887 26.2168L190.137 26.3574L189.762 26.2168L188.73 26.4746L188.355 26.2168L188.238 26.6152H187.723L187.488 26.4746L187.09 26.2168L186.973 26.7324L186.598 26.873ZM190.77 25.584L190.395 25.4434V25.7012L190.77 25.584ZM186.082 24.6699L185.707 24.2949L185.449 24.8105L186.082 24.6699ZM179.637 22.748L179.262 22.3496V22.6074L179.637 22.748ZM183.176 21.9746C182.754 21.5371 182.254 21.3184 181.676 21.3184L181.535 20.6855L181.301 19.9121H181.043V19.5137L181.301 18.4824H181.043C181.371 17.9668 181.582 17.4121 181.676 16.8184H181.301L181.043 17.1934L180.902 16.6777L181.418 16.4199L181.535 15.6465H180.902V14.9902L181.676 14.873V14.4746L181.16 14.3574V13.4434H181.418V12.9277L180.785 11.8965L179.895 12.1543L181.418 11.5215L181.535 11.2637H182.426V11.0059L181.535 10.8652L180.785 11.123L181.043 11.0059V10.6074L180.41 10.0918V10.748L179.262 10.8652L178.887 11.8965H179.145L178.629 11.6387L178.512 11.123L178.887 11.0059L179.004 10.6074H178.254L177.996 11.3809L178.137 12.0371L177.363 12.4121L177.246 12.8105H176.613V13.4434H176.238L175.98 12.8105L175.605 12.6699V12.2949H175.348V11.7793H175.09L174.973 11.0059L175.488 10.8652L175.605 10.3496H175.09L174.973 9.97461L175.23 8.68555L174.973 8.54492L174.855 7.6543L175.488 7.51367V7.25586H175.23V6.99805L175.488 6.62305H174.855V5.9668L176.121 5.07617L176.355 4.16211C176.949 3.74023 177.668 3.56836 178.512 3.64648V3.38867H178.887V3.64648L178.77 4.16211L179.52 3.27148H180.035V3.5293C180.535 3.56055 180.996 3.42773 181.418 3.13086V3.38867H181.793V3.64648L181.676 4.04492L182.309 4.30273L182.426 3.64648L183.059 3.38867L183.316 3.9043L183.691 4.04492V3.78711L183.574 3.38867L183.949 2.99023H184.441L184.699 3.5293H185.332L185.449 2.99023L186.223 2.87305V2.61523H186.598C186.598 3.22461 186.809 3.70117 187.23 4.04492C186.887 4.29492 186.504 4.38086 186.082 4.30273V4.67773L187.23 4.81836L186.855 6.36523C187.184 6.61523 187.309 6.99805 187.23 7.51367H187.488L187.863 8.42773L188.496 8.80273L188.73 9.7168L187.98 9.57617L187.605 10.6074L187.488 11.123L186.973 11.2637L186.855 11.5215L185.59 11.6387V11.3809L184.816 11.123V10.8652L185.074 10.3496L184.699 10.2324L184.184 10.6074V11.0059L184.582 11.7793L184.441 12.1543L184.582 12.5527H184.184V12.8105L184.582 13.0684L184.699 13.959L185.449 14.6152H186.082V15.3887L185.215 16.0449L184.582 15.5293L184.324 16.6777H184.582V17.1934H185.074L185.215 16.6777L185.848 16.5605L185.965 16.3027L186.223 15.9043L186.973 15.7871V15.5293H187.23L187.723 15.7871V15.2715H188.238V15.7871H188.613L188.988 16.1621L189.129 15.7871L188.988 15.5293L189.129 15.2715C189.129 15.6934 189.293 15.9512 189.621 16.0449L189.879 14.9902H190.137L190.395 16.1621L190.254 16.4199L189.363 16.5605L188.988 16.4199L188.871 16.8184L189.621 17.0762V17.334L188.988 17.4512V17.1934H188.613V17.4512L187.605 16.6777L187.09 17.334H187.348V17.5918L186.457 17.8496L186.223 17.709L186.457 17.5918L186.855 16.4199H186.598L185.707 17.0762L185.449 17.4512L184.699 17.709L183.574 17.4512V17.709L184.184 18.2246V18.4824L183.316 19.1387L183.176 19.5137H183.434L183.809 19.3965L184.184 19.5137L183.316 19.9121L183.176 20.4277H183.434L184.441 20.2871L184.582 20.6855L184.324 20.8027L183.949 21.3184H183.434V20.9434H183.176L182.941 21.459L183.176 21.9746ZM176.73 19.9121L176.871 19.3965H176.496L176.121 19.5137V19.9121H176.73ZM182.543 20.0293V19.6543H181.91V20.0293H182.543ZM175.863 19.6543V19.3965H175.605V19.6543H175.863ZM182.309 19.2559V18.998L181.793 18.7402V18.998L182.309 19.2559ZM183.316 16.1621V15.7871H182.684V16.0449L183.316 16.1621ZM183.176 15.6465V15.1309H182.684V15.5293L183.176 15.6465ZM181.91 15.2715V14.873H181.535V15.1309L181.91 15.2715ZM184.582 15.3887V15.1309L184.957 14.9902L185.074 14.3574H184.816L184.582 14.873H184.184V15.3887H184.582ZM185.848 15.1309L185.332 14.873L185.215 15.2715L185.59 15.1309H185.848ZM182.801 14.6152V14.2168H182.426V14.6152H182.801ZM182.309 13.959L181.91 13.8418V14.0996L182.309 13.959ZM182.543 13.584L182.801 12.9277H182.051L181.91 13.1855L181.793 13.4434H182.168V13.7012L182.543 13.584ZM176.121 11.7793L176.238 11.3809H175.98L175.723 11.8965L176.121 11.7793ZM185.848 11.0059L185.449 10.748V11.0059H185.848ZM179.262 10.6074L179.402 9.7168L179.262 9.45898H179.004L178.77 10.0918L179.262 10.6074ZM182.941 10.6074V10.2324L183.316 9.83398H183.574L184.066 9.57617V9.31836L183.949 9.06055L184.582 9.20117L184.957 8.54492L184.582 8.42773L184.441 8.0293L184.957 7.39648H184.441L184.324 6.88086L184.582 6.36523H185.449V6.10742L184.441 5.84961V4.67773L183.434 4.56055C183.012 4.81055 182.551 4.93555 182.051 4.93555L181.418 4.16211L180.902 3.64648V4.04492L181.16 4.67773L181.535 4.93555L181.043 4.81836V4.56055H180.785C180.441 4.81055 180.02 4.89648 179.52 4.81836L179.402 5.07617H179.145L178.77 4.56055L177.879 4.30273L177.762 6.62305L177.363 6.74023V7.91211L177.762 8.68555L177.363 9.45898L177.996 9.57617L178.137 9.97461H178.629L178.77 9.45898L179.004 9.20117H179.402L180.035 9.45898V9.06055L180.785 9.31836V9.7168L181.418 9.83398L181.676 9.06055L182.051 9.45898H182.684V9.7168H182.426L182.309 10.3496L182.941 10.6074ZM184.441 10.2324L184.957 9.45898H184.324L184.066 10.3496L184.441 10.2324ZM182.309 9.97461V9.45898H181.676V9.7168L182.309 9.97461ZM180.527 9.57617V9.20117H180.035V9.57617H180.527ZM185.449 8.16992L185.074 7.91211V8.16992H185.449ZM175.723 8.0293L175.348 7.91211V8.16992L175.723 8.0293ZM176.871 7.6543V7.25586H176.496V7.6543H176.871ZM186.598 6.88086V6.62305H186.34V6.88086H186.598ZM186.223 6.36523L185.965 5.84961H185.59V6.22461L186.223 6.36523ZM178.395 5.9668L178.137 5.19336L178.254 4.93555H178.629L178.77 5.84961L178.395 5.9668ZM186.457 5.84961L186.598 5.33398L185.707 5.07617V5.33398L186.082 5.5918V5.9668L186.457 5.84961ZM184.957 5.84961V5.45117H184.582V5.84961H184.957ZM184.816 4.56055L184.441 4.04492V4.41992L184.816 4.56055ZM186.082 3.38867V2.99023H185.707V3.38867H186.082Z" fill="black"/>
<path d="M157.849 27.1304L157.989 26.6148L157.731 25.3257L158.364 25.0679C158.239 24.5523 158.114 24.0367 157.989 23.5211L158.247 23.1226L157.731 23.0054L157.356 23.1226L155.2 22.607V22.3492H154.825V22.8648H154.567L154.45 22.3492L154.075 22.232V21.7164H153.817L153.442 22.3492L153.067 22.4898L152.669 21.7164L152.81 21.3179H152.177L151.802 21.4586L151.661 21.0601C151.333 20.982 151.208 20.7242 151.286 20.2867L151.802 19.7711C153.817 20.5523 155.755 21.4117 157.614 22.3492L157.989 21.0601L158.247 20.8023V20.5445L157.614 19.2554L158.247 19.1382V18.7398H157.989V18.9976H157.731L157.614 18.7398L157.849 18.482L156.724 17.4507H156.208L155.575 17.5914C155.075 17.0757 154.489 16.8179 153.817 16.8179L153.56 17.1929L153.302 17.7086H152.669L152.552 16.0445L152.81 15.6461L154.31 15.5289L154.708 15.7867C154.786 15.4429 155.036 15.3101 155.458 15.3882V15.6461H155.974V15.1304H156.349L156.841 15.2711L157.356 14.9898L157.989 15.3882L158.106 14.732L157.474 14.6148V14.2164L158.997 13.7007L159.114 13.1851H158.481V12.8101L158.739 12.0367L158.364 11.8961V12.1539H158.106L157.989 11.7789H157.614L156.841 12.0367L155.833 11.3804L155.575 10.4898L154.45 11.6382H154.075L153.935 11.0054H153.56L153.817 9.97418H154.31L156.091 10.232L156.466 10.0914L156.583 10.607H156.981V10.3492H158.856L159.372 10.8648V10.3492H159.63L161.388 10.8648L161.903 10.607L162.794 11.1226C162.95 11.3882 163.2 11.5211 163.544 11.5211V11.8961H163.919V11.5211H164.177L164.927 11.8961V12.1539H165.302L165.56 12.0367V12.5523H165.067V12.8101L165.442 13.4429H164.927V13.7007H164.552V13.4429H164.177C163.661 13.7086 163.114 13.8414 162.536 13.8414L161.528 14.4742L161.388 14.9898C161.81 15.2554 161.981 15.607 161.903 16.0445L162.021 16.3023L162.536 16.4195L163.802 15.9039L163.919 16.3023H164.177L165.067 16.1617L165.185 16.4195H165.56L165.935 17.5914H165.442V17.8492L165.935 17.9664V18.2242L165.56 18.3648L165.442 18.7398L165.185 17.9664H164.669L164.435 18.9976H164.036L163.802 18.6226H163.028L162.911 19.1382H162.653L162.021 18.9976L161.763 19.5132L161.903 20.4273C161.481 20.3336 161.224 20.4586 161.13 20.8023V21.3179L161.528 21.5757V22.3492L161.763 22.607L161.528 23.3804H161.013L160.896 23.8961L161.013 24.2945L160.122 24.4117V24.9273H160.896L161.271 24.6695L161.013 25.4429L160.521 25.5836L160.38 26.357C159.536 26.7007 158.692 26.9586 157.849 27.1304ZM159.747 26.2164L159.888 25.8414H159.489V26.2164H159.747ZM146.739 24.0367C146.661 23.5211 146.364 23.3023 145.849 23.3804L145.614 22.4898L145.216 22.3492V21.8336L145.731 20.0289L145.614 19.2554L145.849 18.2242L145.731 17.7086H145.989V17.3336L145.731 16.5601L145.989 16.0445H145.731V15.6461L145.989 14.0992L145.731 13.4429L145.216 13.3257L144.981 13.8414H144.091V13.5836H143.716C143.716 14.3492 143.544 14.9117 143.2 15.2711L142.942 14.357H142.567L141.442 14.732C140.927 14.5601 140.63 14.2164 140.552 13.7007L144.583 9.20075L144.841 8.80231L145.614 8.28668L145.849 7.77106C146.271 7.25543 146.817 6.91168 147.489 6.73981L147.63 5.96637H149.646L150.021 6.482H150.536V7.13825L150.161 7.25543L149.763 8.28668H149.388L148.755 8.1695L148.638 8.5445L149.271 8.68512V9.20075H149.013L148.521 8.94293L148.38 9.31793H148.638V9.57575L148.122 10.8648L148.521 13.0679L148.263 13.9586L148.521 14.4742L148.38 15.5289L148.122 16.0445L148.38 16.1617L148.521 16.8179H148.005V17.1929H148.521V17.4507L148.263 18.107H148.005L147.888 18.8804L148.521 19.3961L148.122 19.5132V19.7711L148.263 20.1695H147.747V20.4273L148.122 20.9429L147.63 21.0601V21.3179L148.005 21.5757L148.122 21.9742H147.63L147.489 23.0054L147.255 22.4898H146.856V22.8648H147.114V23.1226L146.739 24.0367ZM160.896 23.0054L160.638 22.7476V23.0054H160.896ZM158.739 22.8648L158.856 22.4898L157.989 22.3492V22.7476L158.739 22.8648ZM153.56 21.2007L153.185 21.0601V21.3179L153.56 21.2007ZM164.036 18.3648L163.661 17.9664V18.482L164.036 18.3648ZM163.286 18.2242L163.403 17.8492L162.794 17.3336V17.5914L163.286 18.2242ZM153.935 17.7086V17.3336L154.31 17.1929V17.5914L153.935 17.7086ZM161.903 17.7086L161.646 17.4507V17.7086H161.903ZM156.466 17.0757L156.583 16.6773L156.208 16.5601V17.0757H156.466ZM153.56 16.9351L153.7 16.4195H153.185V16.9351H153.56ZM164.036 17.0757V16.8179L163.544 16.5601V16.8179L164.036 17.0757ZM153.067 16.5601L153.185 16.1617H152.81L152.669 16.6773L153.067 16.5601ZM161.528 13.8414L161.646 13.4429H161.388L161.13 13.9586L161.528 13.8414ZM162.536 13.7007L162.794 13.5836V13.1851H162.536L162.278 13.8414L162.536 13.7007ZM163.802 13.4429V13.0679L163.286 12.8101V13.1851L163.802 13.4429ZM160.38 13.1851L160.638 12.5523H160.38L159.372 12.8101V13.3257L160.005 13.4429L160.38 13.1851ZM161.763 13.0679V12.8101L161.646 12.0367H161.388L161.013 12.1539V12.5523L161.763 13.0679ZM164.81 12.4117L164.435 12.1539V12.5523L164.81 12.4117ZM161.013 9.45856L160.38 9.06012C160.474 8.63825 160.349 8.42731 160.005 8.42731L159.255 8.80231L159.114 8.28668H158.622V8.5445H158.364L158.247 8.02887L157.216 7.65387V7.91168L157.356 8.28668L156.724 8.42731L156.091 7.65387L155.2 7.39606V6.99762L155.458 6.22418L155.083 6.107V5.84918H154.31V5.59137C154.481 3.77887 154.864 2.01325 155.458 0.294497L156.208 0.0366848L157.356 0.294497L157.989 0.153872L158.622 0.411685V0.669497H158.997L159.255 0.0366848H163.661V0.294497H163.919C164.091 0.0288723 164.388 -0.0570652 164.81 0.0366848L165.067 1.06793L164.81 2.09918L164.927 2.47418L164.81 2.87262H165.185L164.435 4.81793L164.036 5.07575L163.919 5.45075L162.536 6.22418L162.396 6.62262L161.528 6.36481V6.107L162.278 6.22418V5.84918L161.646 5.70856V5.45075L162.021 5.07575L161.646 4.93512V4.56012L161.903 3.64606L161.763 3.27106L161.013 4.30231L160.521 4.4195L159.114 4.0445L158.622 4.16168V4.56012L157.099 4.81793V5.19293L155.974 5.33356V5.84918C157.567 6.61481 159.286 6.99762 161.13 6.99762V7.25543H161.388L161.763 7.13825C162.778 7.482 163.794 7.77887 164.81 8.02887V8.68512L163.544 9.06012L163.286 8.94293L161.903 9.31793L161.763 8.5445H161.388V8.94293L161.013 9.06012V9.45856ZM148.38 8.80231L148.122 8.5445V8.80231H148.38ZM147.747 7.91168L147.888 7.51325L147.489 7.39606L147.372 7.77106L147.747 7.91168ZM143.716 7.51325V6.88043L143.083 6.62262L142.825 6.107L142.45 5.96637L142.31 6.482L142.45 6.88043L142.075 6.99762L141.935 6.62262L142.075 5.84918C142.575 5.75543 143.036 5.53668 143.458 5.19293L144.091 5.45075V5.19293L143.716 4.56012H144.091V4.30231H143.575L144.349 4.0445L144.724 4.30231C145.052 3.69293 145.177 2.99762 145.099 2.21637L146.106 2.09918L146.364 1.44293L146.856 1.18512L146.997 0.92731H147.372L147.747 1.06793L148.38 0.810122L149.271 1.44293V1.70075H149.528V1.95856H150.021V2.357L149.646 3.13043L148.005 3.38825V3.64606H148.38C148.302 4.08356 148.052 4.25543 147.63 4.16168L147.489 4.93512C147.161 5.40387 146.747 5.74762 146.247 5.96637L145.849 5.19293H145.474L145.216 6.88043L143.974 6.99762L143.716 7.51325ZM144.841 6.22418V5.84918L143.716 5.59137L143.458 6.22418L144.466 6.36481L144.841 6.22418ZM155.575 5.59137V5.33356L155.341 5.59137H155.575ZM158.364 4.16168L158.106 3.90387V4.16168H158.364ZM160.896 4.0445L160.521 3.90387V4.16168L160.896 4.0445ZM158.106 3.64606V3.38825H157.849V3.64606H158.106ZM147.888 3.38825L147.63 2.87262L148.005 2.732L148.38 2.87262L148.638 2.61481L149.271 2.98981L149.388 2.357L149.271 1.70075L147.888 1.32575L147.747 1.58356L146.622 1.70075L146.481 2.21637L146.739 2.87262H147.255L147.372 3.64606H147.888V3.38825ZM161.271 3.27106L161.013 2.98981L160.896 3.38825L161.271 3.27106ZM146.106 3.13043L146.364 2.47418H146.106L145.731 3.13043H146.106ZM162.161 2.21637V1.95856C161.646 1.61481 161.099 1.40387 160.521 1.32575L160.896 0.810122H160.005L159.747 0.92731L159.63 0.669497H159.372L158.997 0.92731L158.364 0.669497L158.247 1.44293C158.997 1.88043 159.794 2.13825 160.638 2.21637L161.013 2.09918L162.161 2.21637ZM164.294 1.58356L163.919 1.44293V1.70075L164.294 1.58356ZM161.763 1.18512L161.13 0.810122V1.18512H161.763ZM162.278 1.18512V0.92731L161.903 0.810122V1.06793L162.278 1.18512ZM164.552 0.92731V0.55231H164.294V0.92731H164.552ZM157.614 0.810122L157.216 0.669497V0.92731L157.614 0.810122Z" fill="black"/>
<path d="M129.687 21.834L129.546 21.459L129.921 21.3184V20.8027H129.288L129.171 21.3184L129.288 21.5762H129.03C128.187 21.4043 127.335 21.2793 126.476 21.2012L126.358 20.6855H125.983L125.843 19.5137L126.218 18.998L125.843 18.8809L125.21 19.9121L125.069 19.5137L125.21 18.998L124.694 18.623L124.577 18.2246L124.694 17.5918H124.319L124.062 17.709C123.968 16.8496 123.796 16.0371 123.546 15.2715L124.062 15.7871L124.179 15.3887L123.804 14.9902V13.959L123.429 13.8418V13.584L123.288 13.3262L123.804 13.1855L123.921 12.8105L123.546 12.5527V11.6387L123.804 11.123H124.319L124.437 10.6074L125.726 10.3496L125.983 11.123H126.358V11.3809L125.983 11.5215L125.726 11.123H125.468L125.327 11.5215L125.468 11.8965L126.101 12.0371V12.6699L125.726 14.0996L125.843 14.4746H126.616L126.733 15.1309C127.077 15.2246 127.21 15.4824 127.132 15.9043L126.991 16.1621L127.366 16.3027L127.132 16.8184L127.507 16.9355L127.624 17.709V17.4512H127.366L126.874 17.5918V17.9668L126.991 18.3652H127.249L128.14 18.1074L128.772 18.3652L128.913 18.7402L129.687 19.2559L129.429 19.9121H129.804L130.694 19.7715C131.71 19.5996 132.647 19.3027 133.507 18.8809V19.2559H132.991L132.874 19.9121L132.358 20.0293L132.218 20.4277L132.358 20.8027H131.468L131.069 20.6855L130.835 21.2012L130.437 21.3184L130.179 21.7168L129.921 21.5762L129.687 21.834ZM131.069 21.5762V21.3184H131.468V21.5762H131.069ZM118.062 21.0605C117.64 20.8105 117.171 20.6387 116.655 20.5449L117.171 20.4277V20.0293H116.772V19.2559L117.03 18.3652L116.655 18.2246V17.5918L117.03 17.4512V17.1934C116.78 16.7715 116.694 16.3027 116.772 15.7871C116.694 14.7402 117.038 13.873 117.804 13.1855L118.952 12.5527L118.835 12.9277L119.21 14.0996L118.694 14.2168V14.4746L118.835 14.9902L118.694 15.3887L119.327 15.5293L119.468 16.9355H118.319V17.1934L119.069 17.8496L118.952 18.2246H119.21L119.069 18.7402H119.468L119.585 18.998L118.835 19.2559L118.577 19.6543H118.952L118.835 20.0293L118.062 20.1699L117.921 20.6855L118.319 20.8027L118.062 21.0605ZM127.366 20.8027L126.733 20.4277V19.9121H126.358V20.5449L126.476 21.0605H126.733L127.366 20.8027ZM130.694 20.4277L130.179 19.9121V20.2871L130.694 20.4277ZM127.882 20.1699L127.507 19.9121V20.1699H127.882ZM129.546 20.2871V20.0293H129.288V20.2871H129.546ZM128.772 20.0293L128.913 19.6543H129.171V19.1387H128.772L128.397 19.9121L128.772 20.0293ZM128.772 18.998V18.623L128.397 18.998H128.772ZM118.694 18.4824L118.319 18.3652V18.623L118.694 18.4824ZM126.218 18.3652V17.709H125.843L125.726 18.2246L126.218 18.3652ZM125.21 17.9668L125.327 17.5918H124.952V18.1074L125.21 17.9668ZM126.476 17.4512V17.0762H126.101V17.334L126.476 17.4512ZM125.468 16.4199L124.835 15.9043V16.3027L125.468 16.4199ZM118.835 16.4199V16.0449H118.437V16.3027L118.835 16.4199ZM126.874 15.5293L126.476 15.3887V15.6465L126.874 15.5293ZM126.476 15.1309V14.873L126.101 14.7324V14.9902L126.476 15.1309ZM125.585 14.0996V13.7012H125.21V14.0996H125.585ZM129.546 12.9277L128.913 12.1543L128.772 11.2637L128.397 11.123C127.804 10.0137 127.46 8.81055 127.366 7.51367L127.624 6.88086L128.022 6.74023L128.538 6.99805L129.171 6.88086V7.13867L128.022 7.25586V7.51367C128.616 7.60742 128.999 7.82617 129.171 8.16992L129.03 8.54492L130.319 9.20117V9.45898H129.429L129.03 9.31836V9.06055H128.655V9.31836L129.03 9.83398H129.429L129.804 10.3496H130.694L130.952 11.0059H131.21V11.2637L130.835 11.3809L130.694 12.0371H131.069V12.2949L130.835 12.6699L129.546 12.9277ZM124.179 12.5527V12.1543H123.804V12.5527H124.179ZM130.319 11.6387L130.062 11.3809V11.6387H130.319ZM134.397 11.3809L134.538 10.8652H134.022C133.757 9.31836 133.499 7.77148 133.249 6.22461L133.624 5.07617H133.882L134.28 5.33398L134.397 5.07617H134.655V5.70898L134.397 6.62305H134.655V6.36523H134.913L135.171 6.48242L135.288 7.51367L135.687 8.0293H135.429L134.913 7.6543V7.91211L135.546 8.68555L135.288 9.20117H135.687V9.83398C135.343 9.92773 135.124 10.1855 135.03 10.6074L134.655 11.3809H134.397Z" fill="black"/>
<path d="M88.915 22.373L88.1416 21.998L88.0244 21.623L88.1416 21.1074C87.6416 20.7637 87.3447 20.2871 87.251 19.6777L87.7666 18.9277L87.251 18.2715L87.5088 17.498L87.8838 16.9824L87.251 15.9746L88.3994 15.5762V15.2012H87.7666V14.5449L88.1416 13.5371H87.6494L87.3916 13.6543L87.251 13.1387L87.6494 11.7324L88.0244 11.4746V11.0996L87.7666 10.0684C88.1104 9.72461 88.2354 9.24805 88.1416 8.63867H87.8838L88.0244 8.26367L87.6494 7.74805L87.5088 6.97461L87.1338 6.20117H87.5088V5.70898L87.7666 6.08398L88.1416 6.20117V5.94336L88.0244 5.45117L88.915 5.31055L89.0322 4.93555H88.7744L88.5166 4.2793L88.915 4.16211L89.1729 5.05273L89.5479 5.19336V4.41992L89.4072 4.02148L89.8057 3.9043L89.9229 4.16211H90.1807L90.4385 4.02148L90.6963 4.16211L90.9307 3.38867H90.5557V3.13086H90.8135L91.1885 3.64648H91.5635L91.7041 3.24805H92.0791V2.75586L93.0869 2.61523V2.35742L92.9697 1.98242L93.6025 1.8418V1.4668H93.3447L93.9775 1.20898L94.376 1.32617L94.4932 0.810547H95.2666V1.06836L95.126 1.58398H95.3838V1.98242H95.7588V2.87305H96.2744L96.3916 3.76367L95.501 4.67773L93.9775 5.31055L93.7432 5.19336L93.4854 5.70898L92.4541 6.20117L92.3369 6.97461H92.5947L93.0869 6.7168L93.6025 7.23242L94.1182 6.97461L94.4932 7.23242L95.0088 6.97461H95.501C95.9385 6.55273 96.4463 6.3418 97.0244 6.3418V6.59961H96.6494V6.85742L97.165 6.97461V8.14648H97.4229L97.7979 8.00586V7.63086L97.915 8.00586L97.4229 8.26367L97.2822 9.81055L97.54 11.334L97.0244 12.248L97.4229 12.3652L97.54 13.1387L97.165 14.1699H96.9072L96.79 14.8027L97.0244 15.5762L96.79 16.0918L96.3916 16.3496V16.7246L96.79 17.498L96.5322 18.2715C96.0166 18.4434 95.8447 18.8262 96.0166 19.4199L96.1572 20.1934H95.3838L95.126 21.2246L94.376 21.3652L93.7432 20.8496H94.1182L93.6025 20.334V19.9355L93.8604 19.8184V19.4199L93.7432 19.0449H92.9697V18.5293H91.9619L91.8213 18.9277L91.0713 19.0449V18.7871L91.1885 18.4121H90.6963L90.5557 19.3027L90.9307 19.6777L90.4385 20.5918H90.1807L89.9229 20.4512V20.8496L90.2979 21.2246H90.6963V21.4824L90.2979 21.7402V21.998L88.915 21.7402V21.998V22.373ZM88.6572 21.8574V21.4824H88.2822V21.8574H88.6572ZM102.743 21.4824L102.485 21.3652L102.368 20.8496L100.962 20.4512V19.8184C102.571 19.2246 104.267 18.7559 106.048 18.4121V18.0137H105.79L106.306 15.834L107.056 15.7168V15.459L106.563 15.2012L106.681 14.8027H107.056V14.0293V13.1387H107.571V12.7637L107.454 12.248L107.712 11.7324L107.454 10.8418C107.782 9.81055 108.079 8.7793 108.345 7.74805V7.49023L108.087 6.7168L107.829 6.59961L107.571 6.08398L106.821 5.94336L106.563 6.59961L105.532 6.7168L104.782 6.59961L104.009 6.85742L103.259 6.08398L103.142 6.85742L102.251 6.97461L101.993 9.03711H101.618L101.478 9.41211L100.212 9.92773L99.5791 9.41211L99.4385 8.26367L99.5791 7.88867L99.4385 6.85742C99.8604 6.76367 100.032 6.50586 99.9541 6.08398L100.212 5.70898L100.071 5.31055L100.329 4.2793C100.673 4.10742 100.806 3.81055 100.728 3.38867L101.22 1.32617H101.618L103.001 1.58398L103.517 1.4668L103.634 1.8418L103.517 2.24023L103.634 2.61523L103.376 3.9043L103.892 4.16211L104.267 5.45117L104.149 5.82617H104.407L105.04 5.05273L105.931 4.79492L106.423 4.93555L106.938 4.53711L107.454 4.67773L108.579 4.02148L109.095 4.2793L109.47 4.16211L109.728 4.53711H110.126L110.36 5.31055H110.759V5.56836L110.126 6.08398V6.45898H110.618L110.759 5.94336L110.993 6.08398C110.571 6.42773 110.407 6.85742 110.501 7.37305L109.985 7.11523V7.49023L110.759 8.14648V8.52148L110.36 8.7793V9.1543H110.618L110.993 8.89648V9.1543L109.985 9.81055V10.4434H109.728V11.4746L110.36 12.623H109.985V13.0215L109.868 13.3965L109.985 14.1699L109.235 14.4277V14.8027L109.728 14.9434V15.3184H109.47L109.095 15.2012L108.579 15.3184V15.834L109.235 15.9746H109.728L109.095 16.4668L109.353 17.123L109.728 17.498H109.235V17.2402H108.978L108.72 17.8965L108.345 17.7559C108.079 18.0996 107.993 18.5293 108.087 19.0449H108.837V19.3027L107.712 19.5605L107.313 20.709L106.681 20.8496L106.423 20.334H106.048V20.8496L105.673 20.709L104.267 21.3652V20.9668L103.142 20.709L102.884 21.3652L102.743 21.4824ZM90.6963 18.2715V17.8965H90.2979V18.1543L90.6963 18.2715ZM91.3291 18.2715V17.8965H90.9307V18.2715H91.3291ZM93.9775 18.1543V17.7559L93.7432 18.1543H93.9775ZM90.04 17.6387V17.2402L89.665 17.6387H90.04ZM91.8213 17.3809V17.123H91.5635V17.3809H91.8213ZM107.056 17.123V16.7246H106.563V16.9824L107.056 17.123ZM94.6338 16.8652V16.3496C94.7119 15.584 94.876 14.8574 95.126 14.1699L95.0088 13.7949H94.1182V14.2871H93.8604L93.7432 13.9121H93.4854L93.0869 14.8027H92.7119L92.3369 14.6855L91.5635 15.0605L91.0713 14.6855L90.9307 14.9434L90.1807 15.2012L90.04 15.834C90.3838 16.0996 90.8135 16.1855 91.3291 16.0918L92.4541 15.834V16.2324L92.2197 16.4668L92.5947 16.6074C92.9229 16.0137 93.4307 15.8027 94.1182 15.9746V16.2324L93.8604 16.8652H94.6338ZM88.5166 16.4668L88.1416 16.0918V16.6074L88.5166 16.4668ZM107.313 16.4668L106.938 15.9746V16.6074L107.313 16.4668ZM90.04 16.2324V15.834H89.665V16.2324H90.04ZM108.978 14.2871L108.345 14.0293V14.4277L108.72 14.5449L108.978 14.2871ZM92.2197 14.1699V13.9121H91.9619V14.1699H92.2197ZM92.7119 14.0293L92.9697 13.0215H92.7119L92.4541 14.0293H92.7119ZM109.61 13.6543L109.353 13.1387L108.978 13.0215V13.5371L109.61 13.6543ZM105.415 13.5371L104.665 13.1387L104.149 13.2793V13.0215C103.556 12.8496 102.962 12.6777 102.368 12.5059L102.251 11.4746L102.485 11.2168H102.743L102.884 10.8418L103.259 10.7012C103.603 10.9668 103.985 11.0527 104.407 10.959V11.2168L103.634 11.4746V11.0996H103.259L102.884 11.8496L104.782 12.1074V12.3652H105.04V11.8496L104.782 11.4746L105.673 11.334L105.79 12.1074L105.673 12.623L106.048 12.8809L105.532 13.2793L105.415 13.5371ZM90.5557 13.3965V12.623H90.2979L90.1807 13.3965H90.5557ZM95.0088 12.7637L95.2666 11.9902H94.751V12.5059L94.6338 12.7637H95.0088ZM93.7432 12.1074L94.1182 11.8496L94.2354 12.5059H94.751V12.1074L94.6338 11.334L95.6416 11.5918L95.8994 9.03711L95.7588 8.63867H95.501L95.2666 9.1543H94.4932L93.8604 8.89648L93.7432 9.29492L92.5947 9.41211L92.0791 9.1543L91.0713 9.29492L90.6963 9.1543C90.3525 9.8418 90.1807 10.5684 90.1807 11.334L91.4463 11.9902L91.7041 11.8496C91.876 12.1152 92.126 12.2012 92.4541 12.1074L92.5947 11.5918H93.0869L93.7432 12.1074ZM105.532 12.1074V11.7324H105.157V12.1074H105.532ZM109.728 11.9902L108.72 11.4746V11.7324L109.728 11.9902ZM110.501 10.7012L110.36 10.1855H110.759V10.584L110.501 10.7012ZM88.5166 10.1855L88.6572 9.55273H88.3994L88.1416 10.0684L88.5166 10.1855ZM109.728 9.92773V9.55273H109.47L109.353 10.0684L109.728 9.92773ZM93.0869 8.89648V8.52148H92.7119V8.89648H93.0869ZM88.5166 7.88867V7.63086L88.2822 7.88867H88.5166ZM96.1572 7.23242L95.6416 6.97461V7.23242H96.1572ZM90.6963 6.59961V6.20117H90.2979V6.59961H90.6963ZM105.79 5.70898L105.532 5.45117V5.70898H105.79ZM109.985 5.70898V5.45117H109.728V5.70898H109.985ZM103.892 5.05273L104.009 4.53711H103.517V5.19336L103.892 5.05273ZM108.837 4.41992L108.462 4.2793V4.53711L108.837 4.41992ZM91.4463 4.16211V3.76367H91.0713V4.16211H91.4463ZM92.7119 3.38867V3.13086H92.4541V3.38867H92.7119Z" fill="black"/>
<path d="M70.9473 27.1309L70.4551 26.2402L70.9473 25.4668L71.6035 25.209V24.9512L71.4629 24.5527L71.9785 24.1777V23.6621L71.7207 23.1465L72.2363 23.0293L72.3535 21.8574H72.6113L72.8691 21.998V21.7402L72.7285 20.8496L71.8379 20.709L71.3457 20.9668L70.3145 20.709L70.1973 21.1074L69.3066 21.3652L67.9004 20.709V20.9668L67.2676 20.5918V20.9668L66.8926 20.334L67.9004 20.0762L68.791 20.1934C69.6504 20.0215 70.4551 19.7637 71.2051 19.4199L71.8379 19.5605V19.8184H72.0957L72.6113 19.6777L72.9863 20.334L73.7598 20.4512V19.9355L72.8691 19.3027L72.7285 18.9277H72.9863L73.3613 19.0449V18.7871C72.7676 18.3652 72.5176 17.8105 72.6113 17.123L71.9785 15.459L71.6035 15.3184C71.3379 15.834 71.2051 16.3496 71.2051 16.8652H70.9473L70.8301 16.3496H70.5723C70.2441 16.6934 69.8223 16.8652 69.3066 16.8652L69.1895 17.3809H69.5645L68.791 17.7559V18.1543L68.5566 18.0137L68.791 17.498L68.5566 16.9824H68.2988L67.666 17.7559L67.2676 17.8965L67.0332 17.7559L66.002 17.8965L65.3691 17.7559L65.7441 17.3809L65.8848 16.9824L66.7754 16.7246L67.2676 16.0918H68.1582V15.5762L68.5566 15.3184L68.6738 14.9434H69.1895L69.3066 14.2871L69.9395 14.1699V13.6543H70.1973V13.0215L69.8223 12.5059H69.4238L68.9316 12.623L67.0332 12.248L66.8926 11.7324C68.252 11.1387 69.6895 10.7559 71.2051 10.584L71.7207 10.959L71.8379 10.7012H72.3535L72.6113 11.2168H72.9863L73.127 10.8418L74.0176 10.7012C74.3457 11.2168 74.8066 11.4277 75.4004 11.334V11.5918L76.0332 11.8496L75.6582 11.9902V12.623L75.7754 12.8809L75.4004 12.5059L75.0254 12.3652L74.7676 13.0215L74.1348 13.1387V13.5371L74.6504 13.9121V14.9434C75.0723 14.9434 75.4082 15.0684 75.6582 15.3184V15.5762L75.2832 15.7168L74.8848 15.5762V16.0918C75.4004 15.9199 75.7832 16.0449 76.0332 16.4668L76.291 17.6387H76.9238C78.1895 16.8262 79.3301 15.8418 80.3457 14.6855L81.752 14.5449L82.127 15.3184L81.4941 16.2324L80.9785 16.0918V16.3496L81.1191 16.7246L80.3457 16.8652L79.5957 16.6074L79.3379 17.2402L78.8223 17.7559L79.3379 17.8965H79.7129V18.7871L79.5957 19.1621L80.4863 19.4199V19.6777H80.9785L80.7441 19.8184V20.1934L81.6348 20.4512L82.2676 20.334L82.3848 20.9668L83.6504 21.2246L83.9082 21.8574L83.3926 22.373H82.6426L82.3848 22.6309L82.2676 22.1152L81.8691 21.998L81.4941 22.8887L81.377 22.5137L80.6035 22.2559L80.3457 21.7402L79.9707 21.623C79.4707 21.623 79.1738 21.7871 79.0801 22.1152L79.2207 22.5137H78.5879V22.2559H78.9629V21.998L78.7051 21.4824H78.3301V21.8574H78.0723L77.9316 21.2246H77.5566L77.2988 21.623L76.0332 21.8574V22.1152H75.541V22.373L76.0332 23.5449H75.541L75.2832 24.4355H75.0254V24.9512L75.1426 25.209H74.6504V25.4668L74.8848 25.7246L74.252 26.3574V27.0137L73.7598 26.7559L73.6191 27.1309H73.2441V26.873L72.3535 26.6152V26.873L71.8379 27.0137L70.9473 27.1309ZM74.1348 26.0996V25.7246H73.7598V25.9824L74.1348 26.0996ZM68.1582 24.5527C67.9082 24.2246 67.5332 24.0996 67.0332 24.1777V23.8027H66.6348L66.2598 23.6621V23.4043C67.6191 23.3262 68.9316 23.1152 70.1973 22.7715L70.8301 22.8887L70.5723 23.0293V23.4043L70.9473 23.8027L70.8301 24.1777H70.1973L70.3145 23.8027L69.8223 23.6621L69.6816 23.9199H69.0488V24.1777L68.416 24.5527H68.1582ZM67.5254 23.9199V23.5449H67.1504V23.8027L67.5254 23.9199ZM68.5566 23.9199V23.6621H68.041V23.9199H68.5566ZM75.541 23.1465V22.7715H75.1426V23.1465H75.541ZM83.6504 21.998V21.4824H83.2754L83.0176 21.998H83.6504ZM77.0645 21.4824L77.1816 21.1074H76.9238L76.8066 21.4824H77.0645ZM78.4473 20.9668V20.709H78.1895V20.9668H78.4473ZM77.8145 20.709L77.9316 20.1934L77.5566 20.0762V20.709H77.8145ZM79.2207 20.5918L78.9629 20.334L78.8223 20.709L79.2207 20.5918ZM76.8066 20.4512V20.0762H76.4082V20.4512H76.8066ZM74.1348 19.6777V19.4199L73.6191 19.1621V19.6777H74.1348ZM73.7598 18.7871V18.0137L74.0176 17.498L73.502 17.3809L73.127 18.5293L73.7598 18.7871ZM74.6504 18.1543L74.252 18.0137V18.2715L74.6504 18.1543ZM74.5098 16.3496L74.3926 15.7168H74.1348L74.0176 16.0918L74.1348 16.4668L74.5098 16.3496ZM70.9473 15.9746L71.0879 15.5762H70.8301L70.7129 15.9746H70.9473ZM81.6348 15.9746L81.752 14.8027H81.377L80.8613 14.9434V15.5762H81.2363L81.6348 15.9746ZM64.4785 15.2012L64.3613 14.6855H63.9629V14.9434L63.7285 14.8027L63.9629 14.5449L62.8379 14.0293L62.5801 13.6543L62.6973 13.3965L62.5801 12.623L62.9551 12.5059V11.9902L62.8379 11.334H63.5879V10.959L62.9551 10.3262V10.0684L63.7285 9.81055V9.41211L63.2129 9.29492H63.5879L63.8457 8.4043H63.5879L63.4707 8.63867H63.2129V8.26367L63.7285 7.88867L63.8457 7.23242L63.3301 6.97461L63.8457 6.59961V5.05273L64.4785 4.93555L65.627 6.08398C67.4395 6.25586 69.2598 6.16992 71.0879 5.82617L71.4629 6.3418H71.7207L74.6504 5.82617L74.8848 5.94336V6.20117H75.1426V5.94336H75.541L75.916 6.20117L78.7051 5.56836V6.45898L78.4473 7.23242L79.2207 7.49023H79.5957H79.3379V8.00586H78.9629V8.26367L79.3379 8.52148V8.7793L79.5957 9.03711V9.55273L79.8535 9.92773L79.7129 10.3262L79.3379 10.4434L79.2207 11.0996L78.7051 11.334L78.1895 11.2168L77.8145 11.5918L77.4395 11.0996H77.0645L76.666 11.2168L76.1738 9.81055L76.291 9.1543H76.666V8.7793L76.0332 8.00586H75.7754V7.49023L74.0176 7.23242L73.7598 7.88867L73.6191 7.49023L73.2441 7.23242L72.7285 6.97461L72.6113 7.63086L72.7285 8.14648C72.2285 7.70898 71.6816 7.53711 71.0879 7.63086V8.14648H70.7129L70.1973 7.37305L70.4551 7.11523L69.9395 6.85742L69.5645 7.63086L69.9395 8.00586H69.6816L69.1895 7.23242H68.791V8.00586L68.5566 7.74805C67.7441 7.88867 66.9395 7.88867 66.1426 7.74805L65.8848 8.4043L66.002 8.7793L65.7441 10.4434L65.8848 11.2168L65.7441 11.5918H65.4863V11.9902L65.3691 12.623L65.7441 12.7637V14.4277L65.627 14.9434L64.4785 15.2012ZM64.8535 14.8027L64.6191 14.5449V14.8027H64.8535ZM74.252 14.0293L74.3926 13.6543H74.0176V14.0293H74.252ZM63.5879 12.1074V11.7324H63.2129V12.1074H63.5879ZM79.3379 10.3262L79.4551 9.66992H78.9629L78.8223 10.0684L79.3379 10.3262ZM78.4473 8.52148V8.14648H78.0723V8.52148H78.4473ZM70.8301 6.85742V6.45898H70.5723L70.4551 6.97461L70.8301 6.85742ZM73.6191 6.97461V6.59961H73.2441V6.97461H73.6191ZM70.9473 6.3418L70.7129 6.08398V6.3418H70.9473ZM73.877 4.79492L72.6113 4.02148L72.3535 4.16211L72.2363 3.50586L71.4629 3.38867V3.01367H71.9785V2.75586L71.8379 2.24023L71.9785 1.72461L71.6035 1.4668L72.0957 1.20898L72.4707 1.32617L72.8691 1.20898L73.127 1.72461L75.541 4.16211H74.252L73.877 4.79492Z" fill="black"/>
<path d="M37.6523 22.4902L36.8789 22.3496V22.0918L37.0195 21.834C37.6914 21.3184 38.4102 21.0215 39.1758 20.9434L39.4336 19.9121H40.0664L40.3008 19.1387L41.332 18.998V18.623H41.0742L40.4414 18.7402L40.8164 18.2246L40.6992 17.4512L41.4492 17.334V16.4199H41.0742H41.4492L41.5898 14.873H41.9648L42.082 14.0996L41.9648 13.7012L42.5977 11.8965H42.9727V11.6387L42.7148 11.5215V11.2637H42.9727V10.8652L41.4492 10.748L41.0742 10.8652L40.3008 10.748C39.8789 11.1699 39.418 11.4277 38.918 11.5215L38.7773 10.8652L37.5117 10.6074V11.123L38.1445 11.3809L37.7695 11.5215L37.6523 11.123H37.1367V11.3809L35.7305 11.6387V11.3809L36.8789 10.6074L37.0195 10.2324H36.5039L35.9883 10.4902C35.2227 10.5684 34.6758 10.3496 34.3477 9.83398C35.6133 8.97461 37.0898 8.63086 38.7773 8.80273L39.668 9.20117L40.6992 9.06055L41.0742 9.20117L42.082 8.94336V9.31836H42.3398L42.8555 9.06055V9.31836H43.1133L43.2305 8.68555L42.8555 8.0293H43.1133V7.39648L43.2305 7.13867L42.7148 6.88086V6.62305H43.1133L43.6055 6.74023V5.84961C43.1523 5.86523 42.7305 5.99023 42.3398 6.22461V5.33398L42.8555 5.45117L42.9727 4.93555H43.4883L43.7461 5.45117L44.1211 5.5918L44.2383 4.81836H44.7539L44.8711 5.9668L45.1289 6.22461L45.0117 6.74023L45.5273 6.88086L45.7617 8.28711L45.6445 8.54492L45.5273 8.80273L45.9023 9.31836H46.1602V9.57617H46.5352L46.9102 9.20117C47.9258 9.37305 48.9023 9.58398 49.8398 9.83398L50.332 9.7168L50.8477 9.97461L51.9961 9.83398L52.8867 10.0918V10.3496H53.2617H53.0039V10.6074L53.1445 11.0059L52.7461 11.3809L51.8555 11.5215L50.332 11.2637V11.5215H49.6992L47.6836 11.0059V10.748H47.168V11.123H46.793L46.418 11.0059L46.1602 11.5215H45.6445V11.7793H44.7539V12.0371L45.5273 12.4121C45.7773 13.7871 46.3242 15.0371 47.168 16.1621L47.543 16.3027L48.3164 17.5918L48.6914 17.709V18.2246L49.6992 18.3652L49.957 19.1387L50.4727 19.3965V19.7715L50.2148 20.2871L49.207 20.6855C48.7852 20.4199 48.2773 20.334 47.6836 20.4277L47.0508 19.3965L46.6523 19.2559V19.6543L46.1602 18.623L45.9023 18.4824V18.2246L46.0195 17.8496L45.9023 17.1934H45.6445L45.3867 17.9668H45.1289L44.6367 17.1934L43.8633 16.9355L43.4883 17.9668L43.1133 18.1074C42.9414 19.0449 42.4727 19.8574 41.707 20.5449L40.957 20.8027L40.8164 21.5762C40.0508 21.8418 39.293 22.0996 38.543 22.3496L38.0273 22.2324L37.6523 22.4902ZM49.0664 20.0293V19.6543H48.6914V20.0293H49.0664ZM42.2227 19.3965V19.1387H41.9648V19.3965H42.2227ZM49.6992 18.8809V18.623L49.4648 18.8809H49.6992ZM47.6836 18.7402L47.8008 18.3652H47.4258V18.7402H47.6836ZM42.2227 16.6777L41.8242 16.1621V16.5605L42.2227 16.6777ZM45.6445 16.6777L44.7539 16.3027L44.6367 16.6777H45.6445ZM46.793 16.0449L46.5352 15.7871V16.0449H46.793ZM42.7148 15.9043L42.4805 15.6465V15.9043H42.7148ZM43.4883 15.9043V15.6465H43.2305V15.9043H43.4883ZM42.5977 15.5293V15.2715L42.7148 14.873H42.3398L41.9648 15.6465H42.2227L42.5977 15.5293ZM43.8633 15.3887L43.4883 15.1309V15.3887H43.8633ZM44.3789 14.4746L44.0039 14.3574V14.6152L44.3789 14.4746ZM43.3477 13.8418L43.4883 13.4434H42.8555V13.7012L43.3477 13.8418ZM52.6289 11.2637L52.1133 10.748L51.8555 11.2637H52.6289ZM46.1602 11.123L46.2773 10.748H45.7617V11.0059L46.1602 11.123ZM39.668 11.123V10.4902L39.293 10.3496V11.123H39.668ZM44.1211 9.20117V8.94336H43.8633V9.20117H44.1211ZM43.4883 8.16992L43.6055 7.77148H43.2305L43.1133 8.16992H43.4883ZM44.6367 6.88086V6.36523L44.2383 6.22461L44.1211 6.88086H44.6367ZM44.3789 5.19336L44.1211 4.93555V5.19336H44.3789Z" fill="black"/>
<path d="M3.75684 20.5918V20.334L4.13184 18.2715L3.87402 17.6387L2.37402 16.8652L2.2334 16.4668L4.13184 15.459L4.64746 15.7168L5.02246 14.4277H4.38965V13.6543L4.64746 13.1387C4.72559 12.2012 4.51465 11.3887 4.01465 10.7012C2.9209 10.7949 1.95215 10.584 1.1084 10.0684L0.967773 9.55273L1.34277 8.63867H3.61621L4.13184 8.7793L4.50684 7.74805L4.24902 5.82617L5.25684 5.05273C5.85059 6.25586 6.14746 7.58398 6.14746 9.03711L6.52246 9.1543L7.41309 8.7793L7.53027 9.29492H7.78809L8.0459 8.7793L8.56152 8.63867L8.30371 7.88867L8.4209 7.49023H7.6709C7.96777 6.39648 8.09277 5.28711 8.0459 4.16211H8.67871L8.93652 3.38867L9.42871 4.41992H9.05371V4.79492L9.80371 4.93555V5.45117L10.2021 5.56836V5.94336L9.80371 6.20117V6.59961L10.3193 9.55273H10.5771L11.0693 9.29492L11.3271 9.81055L11.21 10.4434L11.585 11.334L11.4678 11.5918H11.21L10.835 11.4746C10.0693 11.8965 9.77246 12.5371 9.94434 13.3965L10.0615 14.6855H11.4678V15.2012L10.5771 15.459L10.3193 16.6074L10.4365 17.2402L10.2021 17.8965L10.3193 18.4121L10.2021 18.9277L10.3193 19.3027L10.0615 19.4199V19.8184L10.3193 20.334L9.68652 20.5918L8.56152 20.334L7.92871 20.4512L7.6709 20.334V19.9355C7.99902 19.3418 8.12402 18.7012 8.0459 18.0137L7.78809 17.498H6.14746C5.89746 18.4512 5.60059 19.3965 5.25684 20.334L4.50684 20.4512L4.13184 20.334L3.75684 20.5918ZM7.2959 15.459C7.71777 15.2871 8.13965 15.1152 8.56152 14.9434L8.67871 14.4277L8.30371 13.6543L7.92871 13.0215L8.0459 11.5918H6.52246C6.41309 12.7168 6.28809 13.834 6.14746 14.9434L7.2959 15.459ZM11.0693 11.0996V10.8418L10.835 11.0996H11.0693ZM7.6709 10.3262V9.92773H7.2959V10.3262H7.6709ZM4.38965 9.1543L4.13184 8.89648L4.01465 9.29492L4.38965 9.1543ZM9.19434 7.49023L8.7959 7.37305V7.63086L9.19434 7.49023ZM10.2021 4.16211L10.0615 3.64648L10.6943 3.50586V4.16211H10.2021Z" fill="black"/>
</svg>
