<svg width="353" height="44" viewBox="0 0 353 44" fill="none" xmlns="http://www.w3.org/2000/svg">
<path d="M317.445 43.7578L316.672 43.1602L316.496 40.1016L316.672 39.3281H316.285C316.543 37.4766 316.543 35.6133 316.285 33.7383L317.059 32.1914L316.883 31.6289L317.059 31.0312H317.621L320.68 32.5781L323.352 32.4023L324.125 32.7891L325.25 32.4023L325.812 32.5781L326.41 32.4023L326.586 32.9648H326.973L327.535 32.7891L327.922 35.0742C328.297 35.5898 328.426 36.293 328.309 37.1836L328.098 38.168C328.496 38.4258 328.625 38.8125 328.484 39.3281L327.148 39.5039L326.586 41.0508L323.914 42C322.016 42.1406 320.234 42.7266 318.57 43.7578L317.832 43.5469L317.445 43.7578ZM349.648 40.2773L349.262 39.3281L348.875 39.1172L347.926 37.0078H347.363L346.59 37.1836C345.957 36.5508 345.254 36.1758 344.48 36.0586L343.355 32.1914V31.6289L342.582 30.4688L342.793 29.8711C342.535 28.7227 342.336 27.5742 342.195 26.4258L342.406 25.8281H341.809L341.07 25.4414L339.91 26.0391H338.961V26.4258L339.172 26.9883L338.223 27.5859L338.012 28.1484L338.223 28.7461H337.625L337.836 29.6953L337.238 30.2578L336.113 30.6445V31.0312L335.164 31.2422C334.648 31.875 333.945 32.0625 333.055 31.8047L332.668 29.4844L333.266 26.9883L332.316 26.2148C332.434 25.4648 332.234 24.9609 331.719 24.7031H331.156L330.98 25.0898H330.383L329.82 24.4922V25.4414L328.695 24.8789L328.484 24.3164L329.258 23.7188L329.434 22.7695C330.582 22.2539 331.789 21.9258 333.055 21.7852L333.617 17.7422L333.441 17.1797C333.559 16.2891 333.816 15.457 334.215 14.6836L333.266 13.5234L327.359 12.75L327.148 11.9766C328.414 11.0859 329.809 10.5703 331.332 10.4297L331.93 10.6406L332.492 10.4297L336.289 11.2031L336.887 11.0273V11.5898C339.324 11.1914 341.668 11.4492 343.918 12.3633C344.809 11.8477 345.758 11.6602 346.766 11.8008C347.211 12.668 347.281 13.5586 346.977 14.4727H347.363V14.8594L346.766 15.0703V16.6172L347.152 17.5664C347.035 18.082 346.66 18.2695 346.027 18.1289V18.5156L347.152 18.9023V19.8867H346.379V20.4492L346.977 20.8359L347.363 22.9453L347.152 23.7188L347.363 24.3164L347.152 25.2656C347.293 27.9609 348.055 30.3984 349.438 32.5781L350 32.7891L350.598 31.2422L352.496 29.8711L352.883 32.7891L352.285 35.6719L351.934 36.0586L352.109 36.6211H351.723V37.3945L352.496 37.7812V38.5547L352.109 40.1016L351.547 40.2773V39.5039H351.16L350.387 39.8906V40.2773H349.648ZM317.059 39.3281V38.7305H316.496V39.3281H317.059ZM324.125 38.9414C324.5 37.6523 324.617 36.3047 324.477 34.8984H323.352L320.117 35.0742L319.555 36.4453H320.117L319.344 36.6211V37.0078L319.555 37.7812H320.117L320.504 38.9414L323.141 39.3281L324.125 38.9414ZM351.723 37.957L351.547 37.5703H351.16V38.168L351.723 37.957ZM345.43 35.6719L344.867 35.2852V35.6719H345.43ZM322.965 29.0977L322.402 28.3594H320.855L320.504 28.5352L319.344 27.9727L318.781 26.8125L318.957 26.0391L317.621 23.543L316.496 23.1562L315.934 23.332V22.9453L317.621 21.0469H318.781L320.293 21.7852V22.1719H320.855L321.84 21.9961C322.965 22.2539 324.102 22.4414 325.25 22.5586L325.812 22.3828L327.148 22.7695V23.1562L326.41 24.8789L325.812 25.0898V24.7031H324.863V25.0898H324.125L323.141 24.8789L322.016 25.0898L320.68 24.8789V25.2656C321.828 25.8984 323.164 26.1562 324.688 26.0391L325.812 26.6016V27.1992H326.41V26.6016H326.973L327.746 26.9883V27.375L327.535 27.7617L326.762 28.5352L325.426 28.7461L324.863 28.5352L324.688 29.0977H322.965ZM324.863 28.5352V28.1484H324.477V28.5352H324.863ZM341.457 24.3164L340.859 23.7188V24.4922L341.457 24.3164ZM340.121 22.5586V21.9961H340.508C340.883 22.6289 341.387 22.8867 342.02 22.7695C342.535 20.332 342.98 17.8945 343.355 15.457L342.406 15.2461L341.07 15.6328C340.039 15 338.961 14.6836 337.836 14.6836L337.625 14.0859H336.887L336.676 14.6836H335.34V15.2461L335.902 17.0039H336.289L335.727 19.1133L336.676 19.6758H335.727V20.2734L336.676 20.6602L337.062 21.3984C338.211 21.6562 339.23 22.043 340.121 22.5586ZM323.914 19.5L322.965 18.9023L321.84 19.1133L320.293 18.9023L318.957 19.2891L318.008 18.9023L316.883 19.1133L314.984 18.1289L314.773 17.3555H314L315.336 16.2305L316.496 16.0195L318.219 16.6172C318.711 16.2188 318.898 15.7031 318.781 15.0703H319.168V13.6992L318.781 12.5742L319.344 12.3633C319.602 11.4727 319.918 10.5703 320.293 9.65625H319.906L319.555 10.043L319.906 9.86719L320.117 8.32031L320.293 7.93359L320.117 7.37109L321.066 6.21094L322.789 6L322.965 7.16016C322.215 9.99609 321.898 12.9492 322.016 16.0195C323.023 16.6758 324.16 16.875 325.426 16.6172L326.762 16.2305L327.535 16.4062L328.484 16.0195L329.258 16.2305V16.793L329.047 17.1797C328.93 17.8125 328.684 18.3867 328.309 18.9023L327.148 19.1133L326.023 18.9023L325.074 19.2891L324.688 19.1133H324.301L323.914 19.5Z" fill="#483D3F"/>
<path d="M270.023 42.2114V41.6138L269.074 41.438L268.687 41.2271L267.773 41.6138L267.175 41.438L267.949 40.8403L268.125 40.2778H268.511V39.6802L270.234 38.3442L271.359 38.1333V37.1841H271.746L273.257 36.4106V36.0239H273.644V35.2505L274.769 35.4263L276.281 34.2661L276.457 33.7036C275.589 33.188 274.71 32.731 273.82 32.3325L273.433 32.9302V32.1567L274.593 31.77L274.945 29.4497L274.207 29.6255L273.82 28.6763L274.382 26.5317L274.207 25.9692L275.156 25.5825L276.281 25.7583L276.843 24.8091H276.457L275.718 24.9849L275.507 24.0005L274.593 23.6138L274.382 21.8911L274.945 20.3442L274.593 20.1333L275.332 20.3442L276.457 19.9575V19.5708L276.281 18.7974L277.054 18.1997L277.23 16.6528H277.617L278.355 16.8638L278.566 16.2661L278.355 15.4927H278.953V14.9302L278.566 13.3833H278.953L279.128 13.9458L279.867 14.1567V13.77L279.128 12.0122L279.515 11.2388L280.253 9.69189L279.304 9.51611V8.53174H279.691L279.867 7.37158L279.304 7.1958L278.742 8.53174L278.179 8.35596V7.96924H277.617C276.843 8.48486 276.527 9.12939 276.667 9.90283H276.281L275.894 12.0122L274.769 12.3989L273.644 11.2388L273.433 9.69189L273.644 9.12939L273.433 8.53174L274.593 7.96924L274.769 7.1958L274.593 6.59814L275.156 4.84033H276.457L276.843 5.61377C277.476 6.15283 278.179 6.42236 278.953 6.42236L282.925 5.43799L283.488 5.61377L284.05 5.22705L287.285 4.27783L287.847 4.66455C288.48 4.0083 289.3 3.68018 290.308 3.68018L290.871 4.66455L291.82 5.05127V5.61377L292.945 5.82471V6.21143L292.769 6.80908H293.156L292.593 7.1958V7.7583H293.507L292.382 8.14502V8.53174L292.593 8.91846L291.996 9.12939L291.644 9.90283H291.046L290.695 10.8521C288.914 11.2505 287.46 12.2817 286.335 13.9458L286.125 14.7192L287.285 14.9302L288.585 16.2661H288.972L289.183 17.0396L288.972 17.6372L289.183 18.0239L290.097 17.6372V18.1997L291.046 18.7974L291.257 19.5708H290.097V19.9575L289.359 19.5708L289.183 19.9575L288.796 18.9731H288.41L288.023 20.3442H287.636L287.285 19.5708L287.46 18.9731H287.074L286.335 19.3599V19.9575L286.511 20.3442C285.761 20.0864 285.316 20.2739 285.175 20.9067L286.335 21.6802L287.074 21.2935L286.687 21.5044L286.335 23.2271C286.968 23.7427 287.156 24.5278 286.898 25.5825L287.636 26.145V26.7427L287.46 27.1294L286.687 27.5161V26.7427H285.773C285.75 27.7505 286.125 28.5825 286.898 29.2388L286.511 30.2231L286.687 30.9966L286.125 31.1724L285.949 31.9458H284.437L283.664 33.106L280.464 33.4927L280.253 32.5435L279.515 32.3325L279.304 33.3169L279.515 33.7036L278.566 33.8794L278.355 33.106H277.792L277.054 35.4263L278.179 36.0239V36.5864L278.003 36.9731H277.23L277.054 36.4106H276.457V37.1841L276.667 37.5708L275.718 37.3599L275.332 38.52L275.156 39.2935H274.769V38.1333H274.207L273.996 38.9067L274.207 40.0669L273.82 39.2935H273.046V39.8911L273.257 40.2778L272.308 41.8247H271.921V41.2271H271.183L270.023 42.2114ZM284.437 42.2114V41.6138L284.613 40.8403H285V40.2778H284.437L283.101 41.0513L282.925 40.2778L283.277 39.8911L283.101 38.1333L283.488 37.3599H282.539L285.773 35.813L287.285 36.1997V36.5864H287.847L287.46 37.3599L288.234 37.5708L289.183 38.731C289.792 38.731 290.296 39.0474 290.695 39.6802L291.046 40.6646H291.433L291.996 41.6138L292.769 41.8247L286.125 42.2114L285.386 41.8247L284.437 42.2114ZM276.843 34.8638L276.667 34.4771H276.281V35.0396L276.843 34.8638ZM278.355 32.7192V32.3325L278.179 31.77H277.617L277.406 32.9302H277.792L278.355 32.7192ZM281.765 32.3325V31.9458L281.589 31.3833L282.925 30.7856L283.488 29.4497L282.925 29.2388L282.363 30.2231L282.714 29.063H283.101V28.2896H282.714L282.539 27.1294L281.976 26.9185L281.027 27.1294L280.816 28.0786H280.078L279.867 27.3052H279.128C277.863 27.4458 276.914 27.9028 276.281 28.6763L276.843 29.6255L276.105 30.2231V30.6099C276.972 31.3833 278.109 31.6411 279.515 31.3833V32.1567H280.078L280.64 31.5591L281.027 32.3325H281.765ZM285.773 29.063L285.386 28.6763V29.063H285.773ZM284.824 28.2896L284.437 28.0786V28.4653L284.824 28.2896ZM280.816 27.1294V26.356L281.976 26.145L283.664 26.5317V25.9692L282.714 25.3716V24.4224L281.765 24.2114V23.8247L282.539 22.6646H282.925V22.0669H282.539V21.2935L280.253 21.1177L279.691 21.2935L278.003 20.52C277.488 21.2935 277.23 22.1958 277.23 23.2271L277.406 23.8247H279.515L280.253 24.4224L280.464 23.438H281.027L281.203 24.9849H280.816L278.179 24.5981L277.617 24.8091V25.9692L278.355 26.356L279.691 26.145L280.253 26.356V27.1294H280.816ZM285.562 25.9692V24.8091L284.05 24.4224V24.8091L285 25.5825V25.9692H285.562ZM277.23 24.0005V23.438H276.667V23.8247L277.23 24.0005ZM285 23.438V22.8403L283.875 22.2778V22.8403L285 23.438ZM283.488 22.8403L282.925 22.6646V23.0513L283.488 22.8403ZM262.464 21.2935L261.867 19.9575L263.414 19.1841L263.589 18.7974C265.488 17.3677 267.632 16.5239 270.023 16.2661C270.656 15.7505 271.476 15.4341 272.484 15.3169L272.695 16.0903L271.746 16.6528L269.847 17.4263L269.285 18.0239V17.6372H268.898L268.511 18.4106H268.898C267.117 19.4419 265.218 20.2153 263.203 20.731L263.027 21.2935H262.464ZM277.054 21.5044V20.9067H276.457V21.5044H277.054ZM275.894 21.1177V20.52H275.332V21.1177H275.894ZM281.414 20.1333L281.765 19.1841H281.203L280.816 19.9575L281.414 20.1333ZM286.125 19.3599L287.074 19.1841L287.847 18.7974V18.4106H286.898V18.0239H287.46V17.6372L286.335 17.4263V17.0396H285L285.175 16.2661L284.613 16.0903L284.05 15.4927L283.101 15.8794L282.714 15.7036L281.589 14.7192L281.203 15.7036L281.976 16.0903V15.7036L280.816 18.0239L281.414 18.1997L281.976 18.0239L282.363 18.9731L282.925 19.1841L284.824 18.4106L285.175 19.5708L286.125 19.3599ZM279.304 19.1841V18.5864H278.742V19.1841H279.304ZM280.253 18.0239L281.027 16.2661H280.253L279.691 17.813L280.253 18.0239ZM278.742 17.813V17.4263L278.003 17.0396V17.813H278.742ZM281.027 13.1724V12.7856L280.816 12.0122H280.253L280.078 13.1724H281.027ZM284.613 12.6099V11.6255L284.824 10.8521L285.949 10.4653L288.023 8.91846V8.35596L287.074 7.7583L286.687 7.96924L285.949 7.37158L284.824 6.42236L284.437 7.96924H283.488L283.277 7.1958L282.363 6.98486V6.59814H281.589L280.464 6.80908L280.253 7.7583H280.816L281.765 7.37158L282.152 7.58252V8.35596L281.203 8.53174V8.91846L283.664 9.30518V11.2388L282.925 12.6099L284.05 12.9966L284.613 12.6099ZM281.976 12.3989V12.0122L281.027 11.4497V11.8364L281.976 12.3989ZM282.714 11.2388L282.925 10.6763L281.976 10.2896L281.765 9.69189L280.816 9.51611L280.464 10.4653C281.214 10.606 281.964 10.8638 282.714 11.2388ZM269.46 11.063L265.488 9.90283L265.277 9.30518H264.152V8.74268C265.417 7.31299 267 6.79736 268.898 7.1958L270.41 7.58252V8.35596H271.183L271.535 8.14502V8.53174L270.796 10.2896L270.234 10.4653V10.0786H269.847L269.46 11.063ZM290.097 9.69189L289.746 9.30518V9.69189H290.097ZM280.816 8.91846V8.35596H280.078V8.91846H280.816ZM292.382 6.98486V6.42236H291.82V6.98486H292.382Z" fill="#483D3F"/>
<path d="M208.865 36.2979L207.529 35.9111L207.318 35.3135H208.091L208.865 35.5244V35.1377H209.814L209.99 34.1533H209.603L207.916 34.54L206.966 34.3643V33.7666H206.58L208.091 33.2041V32.6416L209.814 32.4307L210.939 32.8174L211.15 32.2549L214.56 31.6572L215.72 31.8682L216.669 31.4814L216.845 28.5986L216.107 28.2119V27.4385H215.72L215.333 28.5986H213.822L213.048 28.2119L211.712 28.3877L210.939 28.2119L209.427 28.5986L208.478 28.001V27.6143L206.369 27.0518L206.193 26.4541L206.966 26.665L207.318 26.4541L208.267 27.0518V25.8916H210.201L210.939 26.2783V25.8916H211.712V26.2783H212.099L213.435 25.5049V25.8916H213.998L214.771 25.6807L215.509 25.8916L216.669 24.5557L216.283 23.3955L215.509 23.1846V22.6221H215.123L214.384 23.1846V23.958H213.611L212.837 23.3955V23.0088H211.712L211.537 23.7822H210.763L210.201 23.5713L209.427 23.7822V23.3955L209.99 22.2354L208.654 22.0244L208.091 20.8994L209.251 20.3018V19.915L208.478 19.5283V19.915L208.267 17.8057L208.478 16.8564L208.091 16.083H208.478V13.7627L208.654 13.376L208.478 11.2666L209.814 10.6689V10.1064L210.552 9.89551L210.763 10.4932L211.537 10.6689L213.048 10.4932L213.611 10.6689L216.107 10.4932L216.458 8.55957L215.896 8.17285L215.333 7.22363L214.173 6.83691L213.998 7.39941L213.224 7.61035L211.888 7.22363L210.763 7.61035L210.201 7.39941L209.603 7.78613V7.0127H209.041L208.865 7.61035L207.705 7.78613L207.529 6.83691H206.966V7.39941H206.58V6.83691H206.193V5.85254L206.369 5.46582L207.529 5.29004L208.091 5.46582L209.041 5.29004L210.201 5.46582L212.486 4.72754V5.29004H213.048V4.72754H213.611L214.771 4.90332L216.458 3.74316L216.669 3.18066L215.509 2.96973V2.40723L216.107 1.42285C217.373 1.68066 218.451 2.00879 219.341 2.40723V2.02051H219.904L219.13 2.40723L218.955 3.18066L219.341 3.9541L220.466 4.12988L221.416 3.74316V4.34082H222.013L222.189 3.56738H222.576V4.34082H223.138L223.314 3.74316H223.701L224.474 3.35645V4.34082H224.861L224.298 5.85254L223.525 6.23926L223.314 5.46582L222.576 6.23926H222.013H221.24L220.291 7.39941L220.466 7.99707L220.291 9.71973L218.955 9.89551V10.4932H219.341L222.751 10.1064L224.474 11.2666V12.8135H224.861L225.037 14.3252H224.298V14.9229L225.423 15.0986V15.6963L224.861 16.083V16.6455L225.599 17.0322V16.083L227.146 16.8564L227.708 17.8057L228.869 17.9814V16.8564L230.205 16.4697V16.8564C231.212 16.458 232.162 16.2002 233.052 16.083L233.228 14.9229L232.841 13.9385L231.892 13.5518V13.165C232.619 13.0947 233.251 13.2939 233.791 13.7627L234.388 12.9893L234.775 13.5518H233.791L233.615 14.7119L234.177 14.9229L234.775 14.3252C234.892 15.3564 235.208 16.2002 235.724 16.8564L236.076 16.6455V17.208H237.06L237.236 17.8057L238.185 17.9814L238.361 17.208L238.009 16.4697L239.134 16.8564L240.47 16.4697V17.8057L240.083 19.1416L240.47 20.5127H240.083V21.0752H240.681C241.126 23.0439 241.126 25.0361 240.681 27.0518L241.244 28.7744L240.681 30.708L241.033 32.0439H240.294L240.083 32.6416L240.294 33.3799L238.958 33.7666L238.361 33.9775L238.185 32.8174L238.361 32.2549L238.009 30.8838L238.748 27.0518L238.361 25.1182L238.572 24.3447L237.798 20.8994V20.3018H237.06L235.724 20.8994V21.4619H234.775V22.0244L234.951 23.958L233.615 24.3447L233.439 25.5049H234.001L234.177 24.7314H235.126V25.2939L234.775 26.8408L234.001 27.0518L233.791 28.001H233.228V28.7744H232.841L232.279 28.5986L231.892 29.3369H232.666V29.7236C233.298 29.6064 233.615 29.8057 233.615 30.3213L232.841 30.708L232.49 31.2705C231.974 31.6689 231.4 31.7979 230.767 31.6572L229.044 31.0947L228.869 29.7236L229.431 29.5479V28.3877H229.994C229.994 27.4971 230.123 26.7236 230.38 26.0674L230.767 26.2783L230.943 25.2939L231.33 25.1182V24.1689L230.767 23.0088L230.943 22.2354H230.556V21.8486L230.943 20.5127L229.431 20.3018V19.915H228.658L228.095 19.3525L227.919 19.915H226.373L225.599 19.5283C224.732 19.9268 223.912 20.3838 223.138 20.8994V21.4619L223.912 21.8486L224.087 22.4111H223.701L223.314 22.2354L222.013 23.0088V23.3955H220.853V23.7822H220.291L220.08 24.5557L219.728 24.9072L219.904 25.6807H220.677L221.24 25.5049L222.189 25.8916L222.576 27.0518L223.314 27.4385V28.7744H222.576L222.189 28.2119H221.626V28.9502H221.24L220.466 28.5986L220.291 29.7236L219.904 29.9346V30.3213C220.419 30.6963 220.607 31.2705 220.466 32.0439H221.029L221.24 33.3799C220.091 33.3799 219.33 33.7666 218.955 34.54H219.517L220.291 34.1533L220.466 34.751C218.943 35.0088 217.49 35.3252 216.107 35.7002L214.56 35.1377L214.173 35.5244L212.662 34.9268V35.9111L210.939 36.0869L210.376 35.9111C210.001 36.2861 209.498 36.415 208.865 36.2979ZM213.435 34.3643V33.9775L212.275 33.5908V34.54H212.837L213.435 34.3643ZM216.458 33.5908V32.9932L215.896 33.5908H216.458ZM214.173 33.3799V32.8174H214.56V32.2549H214.173L213.611 33.3799H214.173ZM215.896 32.4307V32.0439H215.509V32.4307H215.896ZM219.904 31.8682L219.517 31.4814L219.341 32.0439L219.904 31.8682ZM219.517 29.9346V29.3369H218.955V29.9346H219.517ZM224.087 28.001L223.912 27.4385L224.087 26.8408H223.314V26.4541L224.087 26.2783V28.001ZM211.712 27.8252V27.4385L211.15 27.2275V27.8252H211.712ZM210.376 27.4385V27.0518H209.99V27.4385H210.376ZM213.224 27.2275L213.611 25.8916H213.224L212.662 27.4385L213.224 27.2275ZM209.427 27.0518V26.665H209.041V27.0518H209.427ZM232.841 23.1846L232.49 23.0088V23.3955L232.841 23.1846ZM220.291 21.251L220.853 21.0752V21.4619H221.416L222.576 21.0752V20.5127L222.189 17.4189H221.416V17.0322H220.853L220.677 17.5947L220.08 17.9814L219.904 19.5283L218.955 19.915L218.744 20.5127H219.13L219.728 20.3018L219.904 20.6885L218.955 21.8486H219.341L220.291 21.251ZM216.107 20.6885C216.107 19.2822 215.978 18.0049 215.72 16.8564H215.123L214.771 17.208L212.486 16.8564L212.099 18.7549H211.537V19.3525H212.275V19.915L212.099 20.6885L213.822 20.8994L214.771 20.6885H216.107ZM217.056 20.8994V20.5127L216.845 19.7393H216.283V20.3018L216.458 20.8994H217.056ZM218.392 20.126V19.7393H218.005V20.126H218.392ZM210.376 19.915V19.3525H209.99L209.814 20.126L210.376 19.915ZM230.556 19.7393L230.38 18.9658H229.818V19.3525L230.556 19.7393ZM227.919 19.1416L228.095 18.3682H227.708L227.533 19.1416H227.919ZM216.845 19.1416V18.5791H216.283V19.1416H216.845ZM230.767 19.1416V18.7549L230.205 17.8057H229.431V18.5791L230.767 19.1416ZM209.041 18.3682V17.9814H208.654V18.3682H209.041ZM227.146 18.1924V17.4189H226.759L226.583 17.9814L227.146 18.1924ZM236.462 17.9814L235.9 17.8057V18.1924L236.462 17.9814ZM231.154 17.9814V17.4189H230.556V17.9814H231.154ZM232.666 17.5947L233.228 16.6455H232.49L232.103 17.5947H232.666ZM227.919 17.0322L227.533 16.2588H228.095L228.271 16.8564L227.919 17.0322ZM214.56 16.083V15.4854H214.173V16.083H214.56ZM232.279 15.6963L231.892 15.4854V14.3252H232.279L232.666 15.3096L232.279 15.6963ZM221.626 15.6963V15.3096C222.001 14.6533 222.13 13.9385 222.013 13.165L220.853 12.04H220.291V12.9893H219.904L219.341 12.8135L219.13 13.376L219.517 13.5518C219.4 14.3252 219.587 14.8408 220.08 15.0986H220.853V15.6963H221.626ZM211.326 15.3096L210.763 14.9229V15.4854L211.326 15.3096ZM214.173 15.4854V14.9229L215.896 14.5361L216.107 13.5518L215.72 12.8135L212.837 12.6025L211.712 13.165V13.5518L212.099 15.0986L214.173 15.4854ZM217.232 14.7119L216.845 14.3252L216.669 14.9229L217.232 14.7119ZM224.298 12.8135V12.4268H223.912V12.8135H224.298ZM232.49 12.6025L233.439 11.4424V10.8799L233.228 9.89551H232.841V9.33301L233.228 8.38379L234.001 10.2822L234.951 10.6689V11.2666H234.388C234.13 11.8994 233.685 12.3447 233.052 12.6025H232.49ZM218.181 10.2822L218.568 9.12207L217.619 8.94629L217.443 9.71973H216.845V10.1064L217.619 10.4932L218.181 10.2822ZM208.865 6.4502V5.67676H208.478L208.267 6.23926L208.865 6.4502ZM219.517 4.72754V3.9541H219.13L218.955 4.5166L219.517 4.72754ZM217.443 3.9541L217.056 3.56738V3.9541H217.443ZM218.568 3.74316V3.18066H218.005V3.74316H218.568ZM211.15 2.40723L210.201 1.80957L209.99 0.473633L212.662 0.297852L211.712 0.68457V1.24707L212.099 2.02051L211.15 2.40723ZM219.517 1.24707C217.619 0.731445 215.591 0.473633 213.435 0.473633C216.341 0.379883 219.259 0.321289 222.189 0.297852L220.853 1.03613L219.904 0.68457L219.517 1.24707Z" fill="#483D3F"/>
<path d="M180.929 36.3398L179.98 36.1289L178.82 34.793H178.257L177.484 35.7422L176.886 34.4062L176.324 34.1953L175.375 35.5664H174.39L173.828 35.3555L172.667 35.5664L172.105 35.3555C171.449 35.7539 170.734 35.8828 169.96 35.7422L168.625 35.5664V35.1797L169.187 34.9688L169.398 34.4062H169.011L168.414 34.582V34.1953L168.625 33.4219L168.414 32.6484H169.011L170.171 32.8594V32.2617H169.574V31.875H168.625V31.4883L168.8 30.9258L169.785 31.3125L169.96 32.0859H170.558V31.1016L169.785 30.7148V30.3281H170.171L171.718 30.7148V30.3281L170.171 29.7656L169.187 28.6055L169.96 28.3945V28.0078L169.785 27.6211L169.96 28.0078H170.347L170.558 26.0742L169.785 25.8984V25.5117L171.507 25.125L170.945 26.6719H171.332L171.894 25.5117C173.3 25.1133 174.718 24.7852 176.148 24.5273V24.1406L174.988 23.7539L174.601 22.7695H174.214V22.207L174.39 21.6094L174.003 20.6602L173.441 20.4492L172.843 20.6602L170.347 19.5L169.785 18.5156L172.105 17.9531V18.3398H172.667L174.003 16.9688H174.601L174.988 17.9531H175.55V17.1797L175.375 16.0195H174.777L174.988 15.2461L174.214 14.6484V14.2617C172.55 14.2617 171.003 13.9453 169.574 13.3125V12.9258C171.496 12.4102 173.429 11.9531 175.375 11.5547L178.046 12.3281V11.9414H178.433L179.031 12.1523L179.804 11.9414L180.753 12.5391L181.703 12.3281L182.687 12.5391L184.234 12.1523L185.183 13.4883L185.359 13.1016L185.57 13.4883L184.796 14.4727H184.023L182.687 13.875L181.14 14.2617L180.191 13.875L177.871 14.6484V14.0859H177.273L176.324 14.4727V14.8594L177.871 16.1953L178.257 16.0195C178.117 16.9102 178.304 17.6836 178.82 18.3398H179.417L179.98 18.1289L180.542 18.3398L181.703 18.1289L182.687 18.9023V20.0625L181.527 20.2734L180.542 20.8359L179.98 23.3672L178.644 23.543V23.9297H178.257V24.5273L177.484 24.7031V24.1406H177.097L176.324 24.9141H174.988L174.39 25.3008L175.164 25.8984L176.324 25.6875L177.097 25.8984L177.484 26.0742L178.046 25.8984V26.6719H178.433L180.191 25.8984L183.074 26.6719L183.25 27.2344L182.687 27.832V28.2188L183.46 29.5547L182.687 29.3789V29.7656L183.46 30.3281C183.203 31.3594 183.46 32.0742 184.234 32.4727L184.585 33.6328L184.023 34.793H183.46L183.25 35.3555L180.929 36.3398ZM154.386 35.7422L153.402 35.1797C155.722 33.6328 158.23 32.4727 160.925 31.6992L161.101 32.6484L156.109 34.582L155.722 34.4062L155.16 35.3555L154.386 35.7422ZM175.375 34.9688L174.777 34.793V35.3555H175.375V34.9688ZM170.171 34.4062V33.6328H169.187V34.4062H170.171ZM175.55 34.4062V33.6328H175.164L174.777 34.4062H175.55ZM175.55 32.8594L176.148 32.6484L177.871 33.0352L179.98 31.875L180.367 28.6055L179.207 28.2188L176.886 27.832V28.3945H176.324L175.375 28.2188L174.003 28.9922L173.828 28.6055H173.441L173.054 29.3789L173.23 30.1523H173.617L174.003 29.5547H175.164L174.003 30.5391L173.617 31.4883H174.214V32.0859L173.23 31.875V32.8594H174.214L174.988 32.6484V32.2617L175.55 32.8594ZM171.507 32.2617L173.23 31.4883L173.441 30.5391H173.054L172.457 31.3125L172.105 31.6992L170.558 31.875V32.2617H171.507ZM172.281 31.3125V30.5391L172.457 29.9414L171.718 31.3125H172.281ZM183.25 31.1016V30.5391H182.687V31.1016H183.25ZM171.718 29.7656H172.667V29.168L171.507 28.2188L170.945 29.7656H171.718ZM170.734 28.9922V28.6055H170.347V28.9922H170.734ZM173.054 28.3945V28.0078L173.617 26.2852H173.23V26.6719H172.843L172.457 28.3945H173.054ZM169.398 26.8477L169.574 26.4609L169.785 26.8477H169.398ZM178.644 23.3672V22.7695H178.257V23.3672H178.644ZM156.32 22.9805L153.402 21.6094V21.2227L156.882 19.6758L157.656 19.5L159.765 19.8867V20.2734L160.714 20.4492V21.8203L159.378 22.207L157.656 22.9805L156.671 22.5938L156.32 22.9805ZM159.378 20.8359L159.589 20.2734L158.992 20.0625L158.816 21.0469L159.378 20.8359ZM171.718 19.8867V19.2891H171.121V19.8867H171.718ZM173.828 18.9023L174.214 17.5664L173.617 17.3555L173.23 19.1133L173.828 18.9023ZM176.5 17.9531V17.3555L176.148 17.9531H176.5ZM178.046 17.1797V16.582L176.886 16.4062V17.1797H178.046ZM160.363 15.8086L159.589 15.6328L159.378 15.0352C158.605 15.1758 157.96 15.0469 157.445 14.6484L157.269 14.0859L156.32 13.875V13.4883H155.933L155.335 13.6992L154.773 12.7148C155.546 11.9414 156.507 11.2969 157.656 10.7812H158.992L159.203 11.3789L161.488 11.9414L162.261 12.9258L163.035 12.3281V12.7148L162.472 14.2617H163.246V14.6484L161.699 15.0352L161.312 15.8086H160.363ZM176.5 14.2617L175.55 13.4883L175.375 14.2617H176.5Z" fill="#483D3F"/>
<path d="M125.748 42.2109L125.15 42V41.0508L125.361 39.6797L124.974 38.3438L125.361 37.1836L125.15 35.6367C125.408 33.9492 125.595 32.3086 125.712 30.7148C125.853 29.0977 126.052 27.4453 126.31 25.7578L126.099 24.7734L126.697 24.5977V24H125.923V23.6133L126.099 22.8398C125.865 22.3242 125.419 22.1367 124.763 22.2773L124.025 20.7305L124.974 20.5195V20.1328L123.462 19.7461L123.076 20.5195L121.916 21.293L121.74 22.0664H122.478V22.4531L120.791 22.8398V23.4375L120.966 23.8242H121.353V23.2266H121.74L121.916 24H121.353L121.177 24.9844L121.529 25.3711L120.404 26.1445V26.5312L120.791 27.3047L120.58 28.4648H120.966V28.8516L121.529 29.4492L121.177 30.0117L121.353 30.6094L120.404 30.3984L120.193 31.1719H120.58L121.529 32.1562V32.9297L120.966 33.1055L120.017 32.9297L118.892 33.3164V33.7031L118.294 34.8633H117.908V35.25V34.6523V33.4922H117.345V31.9453H117.732L117.908 33.3164H118.681V32.9297L118.505 32.332L118.681 31.7695L117.556 31.1719V30.3984L118.505 29.8359V29.0625H118.119L117.732 29.2383V28.8516L118.505 28.4648L118.681 27.9023H117.556L118.294 27.0938V26.5312L117.345 24.9844H117.732L117.908 24.3867L119.068 24V23.4375L118.681 22.0664H117.908V21.1172L118.892 19.7461L118.119 18.0234L118.681 17.8125L120.193 18.4102L120.404 18.9727H121.177L121.353 18.0234L120.791 17.6367L120.017 17.0391V16.6523H119.244V17.0391H118.681V16.6523H119.455L119.63 15.4922L119.455 14.543L120.017 13.7695H120.404L121.74 14.332V13.5586H120.966V12.7852L120.404 12.6094L120.017 11.4492L120.58 11.2383V10.6758H121.177L122.302 11.0625L122.865 10.8516L124.763 11.4492L125.361 11.2383L126.31 11.625L126.873 11.4492V12.2227H127.259L127.646 11.4492H128.595L129.931 12.0117L129.72 12.7852H130.318V13.1719L130.88 12.3984L130.669 11.8359L131.83 11.625V12.0117L131.443 12.7852H131.83L131.443 14.1562H132.005L132.603 13.1719L132.779 14.332H132.005L131.83 16.6523H130.669L130.494 16.0898H130.107L129.158 16.2656L128.982 15.7031H128.384L127.822 15.8789L126.099 15.3164V16.4766C125.466 16.0781 124.775 15.9492 124.025 16.0898L123.638 15.3164L122.865 15.1055V14.7188L123.076 14.1562L122.865 13.5586H122.302C122.021 14.3555 122.08 15.1289 122.478 15.8789L120.966 16.0898L120.404 15.8789V16.2656C120.779 16.9219 121.283 17.1797 121.916 17.0391V17.8125L121.74 18.5859L123.076 18.7969V18.4102L123.462 18.7969L124.025 18.1992H124.412L124.587 19.1836H124.974L125.748 18.1992H126.31V18.5859H125.748V18.9727L126.099 20.3438H126.486L127.048 18.9727H127.646V18.4102L129.544 18.1992L129.72 18.9727H130.318L130.494 18.1992L131.443 18.5859L131.83 18.4102L132.216 18.9727L132.779 19.5703L132.392 20.7305L132.779 21.6797L131.654 21.8906V22.4531L132.005 23.2266L130.669 22.4531V21.6797L130.107 21.5039C130.248 20.8477 130.06 20.4609 129.544 20.3438L129.369 21.5039L129.544 21.8906H129.158V22.2773L129.369 23.4375L128.982 24L129.369 24.2109L128.771 24.7734V24H128.033L127.822 25.9336H128.771L129.369 25.7578V26.3203H128.384V26.707L129.158 28.4648L128.595 27.6914L128.033 27.5156L127.435 25.1602L126.873 24.9844L126.486 25.7578C126.861 26.2734 127.119 26.918 127.259 27.6914L128.208 28.2891V28.6758H127.822V29.0625L128.595 30.7852L127.822 30.9961V31.5586L128.771 34.0898L128.384 34.8633L128.982 35.0391L129.158 36.4102L128.771 37.1836H128.384V37.7461C128.783 38.4023 128.912 39.1172 128.771 39.8906L128.384 41.2266C127.376 41.2266 126.498 41.5547 125.748 42.2109ZM107.08 40.8398L106.869 40.0664H106.482L106.306 38.7305L106.693 37.7461H106.13V36.9727L106.482 36.0234H105.919V35.4258L106.693 35.25V34.4766L107.642 33.8789L107.818 33.3164H107.431L106.482 33.4922L106.13 32.543L106.693 31.5586L105.533 31.3828V30.9961L106.13 30.0117L105.744 29.8359V29.0625H106.13V28.6758L105.357 28.4648L104.97 29.4492H103.634L102.509 29.2383L101.912 30.3984L102.298 31.1719L102.123 31.9453L103.248 32.1562L103.634 31.3828V32.7188L101.912 33.1055L101.349 34.0898L100.224 34.2656L99.2397 32.7188H98.5015C98.2437 32.3438 97.7983 32.1562 97.1655 32.1562V31.3828L97.5522 30.3984C98.3022 29.8828 99.1929 29.5664 100.224 29.4492V29.0625H100.962L101.525 28.4648L102.685 29.0625V28.2891H103.072V27.5156H103.634L104.197 27.6914L104.794 26.3203L106.13 26.5312L106.306 25.9336L105.744 24.9844L104.97 24.7734V24H104.583L103.634 24.5977L102.685 24.3867L101.912 24.7734L100.576 24.3867L100.013 24.5977V24.9844H99.4507L98.6772 24.5977L98.2905 23.4375L97.728 23.2266L97.5522 24.3867H97.1655V24L97.3413 23.0508H97.728V22.2773H98.5015V21.8906H98.8882L99.4507 22.2773L99.6265 21.5039H100.224L100.787 21.6797L100.962 21.1172H101.349L101.173 21.5039L102.123 22.0664L102.861 21.1172L104.021 21.293L104.408 21.1172L104.583 21.8906H104.97L106.306 21.293L106.869 19.1836L106.13 17.6367L105.533 17.4258L105.357 16.6523H104.97L104.021 17.8125H105.146L104.197 18.1992L103.072 18.0234L102.123 18.1992L101.525 18.0234L100.787 17.4258L100.224 17.6367L99.4507 17.4258V17.0391H101.173V16.2656L100.576 16.0898L100.013 16.2656V15.8789H99.6265L99.2397 16.4766H98.6772L98.2905 15.8789H97.728L98.5015 15.4922L99.064 14.9297L99.8374 15.1055L101.525 14.543L101.912 13.3828L102.685 12.7852L101.736 12.6094L101.349 12.7852L101.912 12.6094V12.2227H102.509L104.408 13.5586V12.9961L104.583 14.332L105.146 14.543L105.744 14.9297L108.205 14.7188L108.416 15.4922H109.154L109.365 14.332L109.927 14.1562V13.3828H109.541V12.6094L109.716 12.0117L108.978 10.4648L107.818 10.0781V10.8516H106.482L105.919 10.6758V10.2891L104.583 10.0781V11.2383H103.072L102.509 10.0781L101.525 9.90234V10.6758L100.013 10.4648L99.2397 10.8516L99.064 10.0781L98.5015 9.90234L98.2905 10.2891H97.728V9.90234L98.5015 9.51562L98.8882 8.91797L99.6265 9.30469L100.224 9.90234L100.787 8.53125L99.4507 8.14453L100.576 7.93359L101.525 8.70703L103.634 7.75781L104.794 8.14453V7.75781L104.583 7.16016L104.97 6.38672L106.13 5.61328L106.306 5.22656H106.693V5.61328H107.431L107.642 4.66406H109.927V5.4375L109.716 6.59766L110.103 7.93359L110.701 8.32031H111.263V7.37109L112.599 7.75781V7.37109H113.548L113.724 9.69141H114.111L114.287 11.0625H113.337L112.599 12.0117L111.65 12.2227L111.439 12.7852L112.212 13.1719L111.65 13.3828V13.7695L112.775 14.1562V14.9297H113.935L115.06 14.543L115.623 15.7031L115.447 16.2656L115.623 17.25L114.673 17.4258L114.111 17.25L113.162 17.4258V17.8125L112.212 17.4258L111.826 18.0234L110.876 17.4258L110.103 17.8125L109.365 18.5859L107.431 17.6367L107.08 19.1836H107.818V19.7461H108.205V20.1328L108.029 20.7305L108.205 21.293H108.767L109.154 20.5195L108.978 20.1328L110.103 21.6797H111.052V21.293H112.001V20.7305H112.388C112.388 21.6211 112.646 22.1953 113.162 22.4531V21.5039H113.724V21.8906L114.673 22.2773L116.22 22.6641L116.607 23.6133H116.009V24L116.607 24.3867V24.9844L116.009 25.1602L115.833 25.5469L114.673 26.1445L113.724 25.7578L113.337 24.5977L114.111 22.6641H113.724C113.232 23.2969 112.986 24 112.986 24.7734H112.212L111.65 24.3867V25.1602L110.701 25.5469L110.49 24.7734H110.103L109.365 26.3203L111.263 29.0625L111.052 29.4492L113.162 29.625L113.724 30.6094L114.111 30.7852L114.287 31.5586L115.06 31.7695L115.447 33.1055L114.673 32.9297V34.0898H114.287V33.3164L113.548 34.0898H112.986L112.775 33.4922L112.001 33.3164L111.826 32.332L111.263 32.1562L110.314 32.332V32.7188L109.716 31.9453L109.927 31.1719L109.154 30.9961L108.416 31.9453L107.255 32.332V32.7188L108.416 33.1055V33.4922L108.029 34.2656L108.978 35.25V36.1992L108.591 37.957L109.365 38.9062H108.591L108.029 38.7305V39.1172L108.205 39.6797H107.818V40.0664L108.029 40.6641L107.08 40.8398ZM107.818 39.8906V39.293H107.255V39.8906H107.818ZM128.033 39.1172V38.7305H127.646V39.1172H128.033ZM127.435 38.3438L126.873 38.1328V38.5195L127.435 38.3438ZM128.033 37.1836L127.646 36.7969V37.1836H128.033ZM125.748 36.9727L125.361 36.5859V36.9727H125.748ZM107.255 36.9727V36.4102H106.482V36.9727H107.255ZM108.205 36.4102L107.642 35.8125V36.1992L108.205 36.4102ZM128.384 35.25L127.822 34.6523V35.0391L128.384 35.25ZM119.63 34.8633L119.455 34.0898L120.791 33.7031V34.0898L119.63 34.8633ZM127.822 34.2656V33.7031H127.259V34.0898L127.822 34.2656ZM101.349 33.4922V32.9297H100.787V33.4922H101.349ZM113.724 33.3164V32.9297L114.673 31.7695L114.111 31.5586L113.935 31.9453L113.162 32.332L112.986 33.1055L113.724 33.3164ZM120.193 31.7695V30.7852H119.63V31.5586L120.193 31.7695ZM108.416 31.1719L108.767 30.2227H107.642V30.7852L107.818 31.3828L108.416 31.1719ZM106.693 30.6094V30.2227H106.306V30.6094H106.693ZM120.017 30.6094L120.404 29.4492L120.966 28.8516H120.404L119.63 29.4492L119.455 30.7852L120.017 30.6094ZM101.736 30.3984L101.349 29.625L100.013 29.4492V29.8359L101.736 30.3984ZM106.13 28.0781L105.533 26.918H104.97V27.3047L105.357 28.0781H106.13ZM119.455 27.6914V26.918H118.892V27.6914H119.455ZM119.068 25.7578L119.455 24.9844H119.068L118.681 25.7578H119.068ZM115.447 25.5469V24.5977H115.06L114.884 25.5469H115.447ZM108.978 24.5977V24H108.416V24.5977H108.978ZM111.826 24V23.2266H111.263V24L111.65 24.3867L111.826 24ZM127.822 22.6641L128.033 22.0664L127.048 21.6797L126.873 22.6641H127.822ZM109.365 22.6641V21.8906L108.767 21.6797L108.591 22.6641H109.365ZM128.771 22.2773V21.6797H128.208V22.2773H128.771ZM120.193 21.8906L121.177 21.1172H120.58L120.017 21.293L119.455 20.5195H118.505V21.1172L118.681 21.6797L120.193 21.8906ZM125.748 21.5039L125.923 20.3438H125.361V21.5039H125.748ZM120.58 20.5195L120.791 19.3594L119.244 19.1836V19.7461L120.58 20.5195ZM121.529 20.5195L121.74 19.957H121.353L121.177 20.5195H121.529ZM107.818 20.5195V19.7461H107.431L107.255 20.3438L107.818 20.5195ZM127.822 19.7461V19.1836H127.435V19.7461H127.822ZM107.255 18.0234V17.4258L106.306 16.6523V17.0391L106.693 18.0234H107.255ZM107.08 16.2656V15.4922H106.306V15.8789L107.08 16.2656ZM114.673 16.2656V15.7031L115.06 14.9297H114.498L113.548 15.7031L113.935 15.8789V16.2656H114.673ZM121.916 16.0898V15.3164C121.423 15.1758 120.919 14.9766 120.404 14.7188V15.1055L120.58 15.4922H120.966V15.8789L121.916 16.0898ZM111.052 15.4922L111.439 14.7188H110.701L110.314 14.9297L111.052 15.4922ZM124.763 15.4922C125.279 14.9766 125.537 14.2734 125.537 13.3828L124.763 13.1719C124.646 13.9453 124.4 14.6602 124.025 15.3164L124.763 15.4922ZM130.669 15.4922L130.88 14.9297H130.318V15.4922H130.669ZM128.771 15.3164L128.384 14.9297V15.3164H128.771ZM127.822 14.9297L128.595 14.332V13.1719L128.033 12.9961L127.646 14.543L127.048 15.1055L127.822 14.9297ZM102.685 14.7188L102.861 14.1562L102.123 13.9453V14.543L102.685 14.7188ZM103.81 14.7188L104.021 13.9453L103.458 13.1719H102.861V13.5586L103.81 14.7188ZM120.193 14.7188L119.63 14.543V15.1055H120.193V14.7188ZM129.544 14.543L128.982 14.332V14.7188L129.544 14.543ZM123.814 14.1562L123.251 13.9453V14.332L123.814 14.1562ZM122.126 13.5586V12.9961H121.74V13.5586H122.126ZM121.353 12.0117L120.966 11.625V12.0117H121.353ZM112.775 11.2383L112.388 10.8516V11.2383H112.775ZM113.935 10.8516L114.111 10.2891H113.548V10.8516H113.935ZM109.927 9.90234L109.154 9.51562V10.0781L109.927 9.90234ZM108.029 9.69141L107.255 8.91797V9.30469L108.029 9.69141ZM114.498 9.69141V9.30469L114.287 8.91797L115.06 8.14453V8.91797L114.884 9.69141H114.498ZM113.162 9.30469V8.91797H112.775V9.30469H113.162ZM112.212 8.53125V8.14453L111.439 7.75781V8.14453L112.212 8.53125ZM109.365 7.37109L109.716 6.59766H108.767V7.54688L109.365 7.37109ZM107.431 6.38672V5.61328L106.306 5.4375V5.82422L107.431 6.38672Z" fill="#483D3F"/>
<path d="M55.8708 43.7397L55.6951 43.353L56.0818 41.8062H55.4841V41.0327L56.4333 40.4702V39.6968H55.8708L55.6951 38.5366L56.0818 36.814H55.3083V36.4272L55.4841 35.8296H54.7107V36.2163H54.324L53.3748 35.8296L52.8123 36.0405L52.6013 36.603H51.863L51.2654 36.0405L50.7029 36.2163V36.603H50.3162L49.5427 36.4272C48.6521 36.8022 47.7029 36.9312 46.6951 36.814L44.9724 36.4272L44.3748 36.603L43.4255 36.2163V35.8296H44.199L46.0974 35.0913L46.4841 35.2671C47.3748 35.0093 48.1482 34.6226 48.8044 34.1069L50.3162 34.3179L50.7029 32.771L50.1404 31.4351L50.3162 30.6616H51.0896V30.2749L50.5271 30.064L50.1404 28.9038L50.8787 28.5171V27.9546L49.9294 27.3921V27.9546L49.7537 26.7944L49.9294 25.8452H50.7029V25.4585L49.9294 25.0718L49.7537 24.2983H50.5271V23.7358H50.1404V21.978L50.7029 21.8022V21.2046L49.9294 20.6421V20.2554L48.9802 20.0444L48.4177 20.2554L47.8201 20.0444L46.0974 21.0288V20.6421L46.3083 20.0444L46.8708 19.8687V18.5327L46.6951 18.146H46.0974L45.7107 18.9194L45.324 20.6421L45.1482 19.8687H44.3748L43.988 20.2554V19.6929L45.324 18.9194L46.0974 17.1616H47.2576V17.5483H48.031V18.146H48.5935C49.6248 17.3726 50.7732 17.0444 52.0388 17.1616L52.6013 17.3726V17.7593L52.4255 18.5327H52.8123L53.3748 17.5483L53.9724 17.3726L54.1482 17.9351L54.7107 18.146V17.5483L57.4177 16.9858L60.4763 17.3726L61.4255 16.9858L63.7107 17.5483V17.1616L63.324 16.0015H63.7107V16.5991H64.0974L64.4841 15.6499L62.5857 15.2632L62.199 16.0015L61.0388 15.2632L60.4763 16.3882L59.5271 16.0015L58.5427 16.3882L57.8044 15.2632L56.4333 14.6655V15.439L56.0818 14.8765L55.4841 14.6655L55.0974 15.439L53.7615 14.6655L53.5857 13.7163H54.7107V13.3296L52.8123 12.5562L53.199 12.3452L53.7615 12.5562V11.7827L53.199 10.8335H53.5857V10.4468C53.0701 9.53271 52.8708 8.57178 52.988 7.56396L53.9724 3.13428C60.1599 3.62646 66.406 3.62646 72.7107 3.13428L73.0974 5.41943H72.5349V5.80615L72.9216 6.57959L72.324 6.79053V7.35303L72.5349 8.51318L73.0974 8.68896V11.2202L72.7107 11.7827L73.0974 12.5562L72.9216 12.9429H72.324V12.1694H71.3748L71.199 13.3296H70.6013L70.2498 13.1187L70.988 12.9429V12.3452L70.2498 12.1694V11.2202L70.6013 9.4624L70.4255 8.68896L71.3748 3.521H70.988L70.4255 3.87256L69.6521 3.69678L69.4763 4.0835H69.0896L67.5427 3.31006C67.1677 3.82568 66.6638 4.01318 66.031 3.87256L65.0818 3.521L61.988 4.0835L61.6013 3.87256L60.6521 3.31006V3.69678L58.9294 4.0835L56.6443 3.87256C55.8708 4.52881 55.5544 5.30225 55.6951 6.19287L57.031 6.96631V7.35303H57.5935L58.3669 7.17725L58.7537 7.73975L60.0896 7.91553L62.199 7.35303L62.5857 7.56396L63.324 7.17725L64.0974 7.35303L64.6951 7.17725V7.56396H65.4333V6.96631H67.3669L67.7537 7.73975H68.3162L68.5271 6.57959H69.2654V7.17725L69.863 7.73975L68.1404 8.51318L67.9294 8.8999H67.5427L66.8044 8.12646L66.2068 8.30225V9.07568H65.6443L64.3083 9.67334L62.199 9.07568V9.4624C61.5896 9.90771 60.9451 9.97803 60.2654 9.67334L59.7029 10.2358L59.1404 10.0601V9.67334H58.3669L57.5935 9.28662V8.8999H57.031L55.4841 9.07568V10.4468L55.8708 11.7827L55.4841 13.3296C57.1013 12.7905 58.6951 12.8491 60.2654 13.5054L61.4255 13.3296L61.988 13.5054L64.6951 13.1187C65.8435 13.2593 66.9216 13.5171 67.9294 13.8921V13.3296L68.8787 13.1187L69.0896 13.7163L69.2654 14.103H68.8787L68.7029 15.8257H67.9294L66.8044 15.439V16.0015L66.4177 15.439H66.031L65.2576 16.3882L64.4841 16.5991V16.9858L65.8201 17.7593L67.5427 18.3218L68.7029 18.146L70.4255 18.5327V18.9194H70.988V18.5327L70.8123 19.4819L71.9724 19.8687V19.4819L71.7615 18.9194L72.9216 18.5327L73.4841 18.7085L75.2068 18.3218L75.9802 19.4819H75.2068V20.6421L74.2576 21.0288L74.0818 21.5913L74.2576 22.189H73.4841L72.9216 21.0288L72.324 20.8179V21.8022H71.199L70.4255 20.6421H69.863V21.2046L70.4255 21.978H70.0388L68.1404 21.8022L68.3162 21.2046L66.9802 21.0288L66.2068 20.4312V21.0288H65.8201L63.5349 20.0444L63.324 19.4819L62.199 20.4312H61.8123L61.2498 19.6929L59.3162 19.0952L58.7537 20.0444L58.9294 20.4312H57.5935L57.031 19.6929H56.2576L56.8201 21.0288H57.4177V21.8022L57.5935 22.7515L58.3669 23.1382H59.3162L60.0896 22.9624V23.5249L61.0388 23.7358V25.0718H60.6521V26.7944H59.1404L58.9294 26.021H58.3669L57.9802 26.7944L59.1404 27.1812V28.3413L60.6521 28.728V29.2905L59.8787 29.5015L59.7029 31.0483L60.6521 31.2241L60.863 33.3335L60.6521 33.9312L60.863 34.7046L60.4763 35.6538H61.0388V36.0405L60.6521 36.814H61.0388V37.5874L60.4763 38.7476L60.0896 38.9233L59.1404 39.3101V39.8726L61.2498 40.0835V41.2437L60.863 42.0171H60.4763L60.6521 41.2437L59.1404 40.4702V41.0327L59.5271 41.6304H58.9294V42.9663H59.5271L61.0388 42.5796L61.2498 43.7397H60.863V43.1772H59.7029L59.5271 43.7397H57.031V43.1772H56.2576V43.7397H55.8708ZM58.156 43.353L57.5935 43.1772V43.564L58.156 43.353ZM58.5427 41.6304L57.9802 40.8569L57.4177 41.8062L58.5427 41.6304ZM72.324 40.4702V40.0835L71.7615 38.7476C70.613 38.3491 69.5349 37.8921 68.5271 37.3765V36.814L68.8787 36.2163L67.7537 36.814L67.3669 37.5874L66.9802 38.5366L65.8201 38.7476L65.4333 37.7632L65.0818 37.5874V36.9897L65.8201 36.814V36.4272L65.4333 35.8296H65.8201L66.5935 36.4272L67.156 36.2163V35.6538L66.9802 35.2671H67.7537V34.8804L67.3669 34.3179L67.5427 33.7202L67.3669 33.3335L68.3162 32.9468V32.5601L66.9802 32.3843C67.238 31.6108 67.0505 31.1655 66.4177 31.0483L66.2068 31.7866L65.6443 29.8882H65.0818L64.8708 30.8374H64.4841L64.0974 29.5015H63.7107L62.3748 29.8882V29.1147L62.9724 28.9038L63.1482 28.3413H62.199V27.9546L62.3748 27.3921L63.324 27.1812L63.9216 27.3921L64.8708 26.7944L64.6951 27.5679C65.4451 27.5444 66.1482 27.3569 66.8044 27.0054L67.5427 27.1812L67.7537 26.2319L68.7029 26.021V26.7944H69.4763V26.4077H70.0388L71.199 26.7944V26.4077H71.5857L72.9216 26.6187V26.2319H73.8708L74.6443 26.7944L74.8201 27.5679L75.8044 28.5171H76.3669L76.5427 30.064H75.8044L75.031 29.8882V30.4507L75.4177 31.2241H74.4333V32.3843L74.2576 33.5444H73.8708L73.3083 33.3335L73.0974 34.1069L72.7107 34.7046H73.3083L73.8708 34.4937C74.6443 35.5249 75.0896 36.6851 75.2068 37.9741L75.031 38.5366L75.5935 38.7476L74.8201 38.9233L74.4333 40.0835L73.4841 39.3101L72.9216 39.521L72.7107 40.4702H72.324ZM59.5271 38.5366L59.7029 38.1499L60.0896 37.3765L59.1404 36.603L58.9294 36.0405H58.5427L58.156 36.9897L58.5427 38.1499H58.156L57.2068 37.7632V38.1499L58.9294 38.9233L59.5271 38.5366ZM59.8787 34.8804L59.5271 34.4937V34.8804H59.8787ZM53.5857 34.4937V34.1069H53.199V34.4937H53.5857ZM58.3669 34.1069L57.9802 33.7202V34.1069H58.3669ZM59.3162 33.7202V32.9468L58.5427 32.771V33.7202H59.3162ZM56.2576 33.3335L57.2068 33.1577V32.5601L56.2576 32.3843C56.1404 30.978 55.6951 29.7593 54.9216 28.728H53.9724L53.5857 30.2749L54.1482 31.0483L53.9724 31.6108H53.5857V32.1733L54.1482 33.5444L56.2576 33.3335ZM73.8708 32.5601L73.3083 32.3843V32.771L73.8708 32.5601ZM58.3669 32.1733V31.6108H57.8044V32.1733H58.3669ZM74.0818 31.7866L73.4841 31.6108V31.9976L74.0818 31.7866ZM70.6013 31.4351L70.8123 30.6616L70.2498 30.2749V29.8882L70.6013 29.5015L69.0896 28.9038V28.3413H68.5271V29.1147L67.5427 28.1304H66.8044L66.2068 29.6772L67.156 29.8882V30.6616H67.7537L68.3162 30.4507V31.6108L70.0388 31.7866L70.6013 31.4351ZM52.4255 30.8374L52.8123 30.064L52.0388 29.8882L51.2654 31.2241H51.863L52.4255 30.8374ZM64.8708 29.1147V28.3413L63.9216 28.1304L63.324 28.3413V28.9038L64.8708 29.1147ZM55.8708 28.9038V28.3413L54.5349 27.9546V28.728L55.8708 28.9038ZM69.2654 27.7437L69.4763 27.1812L68.3162 27.0054V27.5679L69.2654 27.7437ZM57.4177 27.5679L57.5935 26.6187L56.8201 26.2319L56.4333 27.5679H57.4177ZM55.0974 27.3921L56.2576 26.6187V26.021L56.0818 24.4741L56.4333 23.7358L56.0818 23.3491L56.8201 21.978L56.2576 21.5913V21.2046H56.6443V20.6421H55.8708L54.9216 18.7085H54.324V19.4819H53.5857L52.988 18.7085H52.2498L51.863 19.3062L51.0896 19.0952L50.8787 19.8687C51.3943 20.2437 51.6521 20.8882 51.6521 21.8022C52.1677 22.5757 52.9412 22.8921 53.9724 22.7515V23.1382L55.0974 22.9624L55.3083 23.5249H54.7107V23.9116L55.4841 24.0874V24.4741L54.9216 24.6851L54.1482 24.2983V24.6851H53.5857V24.0874H52.8123L52.6013 25.0718L53.199 26.4077L52.988 27.1812L55.0974 27.3921ZM68.3162 26.7944V26.2319H67.7537V26.7944H68.3162ZM57.9802 25.4585L58.156 24.8608H57.4177V25.6343L57.9802 25.4585ZM58.3669 24.8608L58.7537 24.0874H59.1404V23.3491L57.4177 23.1382V23.9116L58.3669 24.8608ZM59.3162 22.3647L58.5427 21.5913L60.0896 20.8179V20.4312L59.8787 19.8687H60.4763V20.8179H60.0896L59.8787 22.3647H59.3162ZM53.199 20.8179L52.6013 20.6421V20.0444H52.988L53.199 20.8179ZM68.7029 20.2554L68.3162 19.8687V20.2554H68.7029ZM67.3669 20.0444L66.4177 19.4819V20.2554L67.3669 20.4312V20.0444ZM73.6951 19.8687V19.4819H73.3083V19.8687H73.6951ZM61.8123 19.3062L61.2498 18.9194V19.3062H61.8123ZM47.6443 19.0952L47.2576 18.7085V19.0952H47.6443ZM61.988 18.9194V18.5327L61.8123 17.1616H61.4255L61.0388 18.3218L61.988 18.9194ZM48.2068 18.7085V18.3218L47.4333 17.9351V18.7085H48.2068ZM57.4177 18.3218L57.031 17.9351L56.8201 18.5327L57.4177 18.3218ZM60.4763 18.146L60.0896 17.7593V18.146H60.4763ZM68.3162 15.0522L67.5427 14.6655L67.3669 15.2632L68.3162 15.0522ZM61.2498 15.0522V14.2788H60.6521V15.0522H61.2498ZM55.3083 14.8765V14.4897L54.5349 14.2788L54.324 14.8765H55.3083ZM57.8044 8.30225L57.2068 7.56396V8.12646L57.8044 8.30225Z" fill="#483D3F"/>
<path d="M5.17041 36.3394V35.9526L5.73291 32.8589L5.34619 31.9097L3.09619 30.7495L2.88525 30.1519L5.73291 28.6401L6.50635 29.0269L7.06885 27.0933H6.11963V25.9331L6.50635 25.1597C6.62354 23.7534 6.30713 22.5347 5.55713 21.5034C3.9165 21.644 2.46338 21.3276 1.19775 20.5542L0.986816 19.7808L1.54932 18.4097H4.95947L5.73291 18.6206L6.29541 17.0737L5.90869 14.1909L7.42041 13.0308C8.31104 14.8354 8.75635 16.8276 8.75635 19.0073L9.31885 19.1831L10.6548 18.6206L10.8306 19.394H11.2173L11.604 18.6206L12.3774 18.4097L11.9907 17.2847L12.1665 16.687H11.0415C11.4868 15.0464 11.6743 13.3823 11.604 11.6948H12.5532L12.9399 10.5347L13.6782 12.0815H13.1157V12.644L14.2407 12.855V13.6284L14.8384 13.8042V14.3667L14.2407 14.7534V15.3511L15.0142 19.7808H15.4009L16.1392 19.394L16.5259 20.1675L16.3501 21.1167L16.9126 22.4526L16.7368 22.8394H16.3501L15.7876 22.6636C14.6392 23.2964 14.1938 24.2573 14.4517 25.5464L14.6274 27.48H16.7368V28.2534L15.4009 28.6401L15.0142 30.3628L15.1899 31.312L14.8384 32.2964L15.0142 33.0698L14.8384 33.8433L15.0142 34.4058L14.6274 34.5815V35.1792L15.0142 35.9526L14.0649 36.3394L12.3774 35.9526L11.4282 36.1284L11.0415 35.9526V35.355C11.5337 34.4644 11.7212 33.5034 11.604 32.4722L11.2173 31.6987H8.75635C8.38135 33.1284 7.93604 34.5464 7.42041 35.9526L6.29541 36.1284L5.73291 35.9526L5.17041 36.3394ZM10.479 28.6401C11.1118 28.3823 11.7446 28.1245 12.3774 27.8667L12.5532 27.0933L11.9907 25.9331L11.4282 24.9839L11.604 22.8394H9.31885C9.15479 24.5269 8.96729 26.2026 8.75635 27.8667L10.479 28.6401ZM16.1392 22.1011V21.7144L15.7876 22.1011H16.1392ZM11.0415 20.9409V20.3433H10.479V20.9409H11.0415ZM6.11963 19.1831L5.73291 18.7964L5.55713 19.394L6.11963 19.1831ZM13.3267 16.687L12.729 16.5112V16.8979L13.3267 16.687ZM14.8384 11.6948L14.6274 10.9214L15.5767 10.7104V11.6948H14.8384Z" fill="#483D3F"/>
</svg>
