<svg width="310" height="40" viewBox="0 0 310 40" fill="none" xmlns="http://www.w3.org/2000/svg">
<path d="M305.527 39.7461V39.3594H305.141L304.578 39.5703L303.805 39.1836V38.1992L304.367 37.0391L304.754 35.1406H305.141V34.543H304.578L303.805 34.7539L303.207 34.543L302.645 34.7539L302.258 33.7695H301.66L301.273 33.9805L300.711 32.6445L302.434 32.0469C302.949 32.4453 303.535 32.5742 304.191 32.4336V31.4844L303.594 30.8867L303.805 30.3242H303.031L302.82 31.4844L302.047 29.5508H301.484L301.273 30.5L298.777 30.1133L298.566 31.0977H298.004L297.406 30.3242H296.457C295.941 30.6992 295.684 31.2148 295.684 31.8711L297.406 32.4336L298.18 32.2578L298.566 33.9805L298.391 34.543L297.617 34.7539V35.3164H297.23L297.02 34.7539L295.684 34.543L295.859 33.7695L294.523 33.5938C294.898 32.7031 295.027 31.8008 294.91 30.8867C294.395 30.2539 293.68 30.0664 292.766 30.3242L291.992 29.9375L290.832 30.7109V29.9375H290.445L289.672 31.0977H290.059L289.109 31.4844L287.914 31.2734L286.191 31.4844V31.8711L287.352 32.2578V32.9961L286.578 33.9805H286.191C286.309 34.8711 285.98 35.6445 285.207 36.3008L284.258 36.6875L283.66 37.8125L283.098 38.0234L282.711 38.9727H280.953V38.4102H280.566L279.793 38.7969C279.16 38.2812 278.902 37.6367 279.02 36.8633C280.309 35.5742 281.34 34.2266 282.113 32.8203L285.207 32.2578L285.418 31.6602L286.191 31.2734L286.367 30.5H285.98V30.1133L286.965 29.9375C287.598 28.5312 288.113 27.1133 288.512 25.6836L289.109 25.5078V25.1211L288.898 24.5586L290.656 23.0117V22.4141H290.27L289.672 22.625L288.512 22.2383L288.125 22.4141L286.754 21.8516V22.4141C284.574 22.4141 282.711 22.8711 281.164 23.7852L281.727 23.9609V24.3477L280.566 24.5586L281.727 25.8945V26.457L281.34 27.6172H280.953C280.836 28.6484 280.648 29.5508 280.391 30.3242L280.566 31.2734L279.617 30.8867V31.2734L278.457 32.8203H279.02V33.207H278.457L277.684 32.9961L277.297 34.543L274.59 35.3164L274.379 34.9297H273.992L273.219 35.5273L273.043 34.7539L273.816 34.1562V33.7695H274.59L274.977 32.4336H275.363C275.223 31.6602 275.352 31.0156 275.75 30.5L276.137 30.3242L276.523 29.3398C277.414 26.3867 277.93 23.3164 278.07 20.1289L277.859 16.2617L278.07 15.3125C277.555 14.3984 277.297 13.4375 277.297 12.4297L277.859 11.6562H278.633L281.164 12.4297L281.727 12.2188L282.5 12.6055L282.711 11.6562L285.207 11.0586L285.805 11.2695L286.754 10.2852L287.141 9.33594C287.539 8.70312 288.125 8.44531 288.898 8.5625C291.477 9.71094 294.184 10.4844 297.02 10.8828V11.832H297.617V11.0586L298.566 10.8828L298.953 11.832H299.34V10.4961L298.777 8.94922C299.949 9.37109 301.109 9.42969 302.258 9.125L302.82 9.51172L304.965 9.33594L305.527 8.77344L307.109 9.33594L307.285 10.1094H307.672V10.6719L301.484 11.6562L300.113 11.4453V11.832L300.5 12.043V12.4297H299.938L299.727 13.168H299.164V14.1523L300.324 14.3281V14.7148L299.551 14.9258V15.4883H300.324L301.098 14.7148H302.258V14.3281L301.484 13.9414L301.66 12.9922L302.258 13.7656L302.82 14.1523H303.418V13.5547L304.367 13.3789L303.98 14.1523L304.754 14.5391V14.9258H306.125L306.301 16.0859L306.125 16.6484L306.898 17.0352L307.109 17.5977L306.688 19.1445L307.285 20.1289L306.688 20.3047V21.0781C304.766 20.8906 302.832 20.8906 300.887 21.0781V20.6914H300.324L300.113 21.2539L298.777 21.4648L298.566 20.9023H297.617C296.844 21.5352 295.871 21.7227 294.699 21.4648V21.8516H293.926L293.363 21.6406L292.59 23.0117C292.191 23.6445 292.062 24.3477 292.203 25.1211L292.977 25.6836L294.312 25.1211L294.91 25.6836L295.086 25.1211L296.633 24.9102L297.793 25.5078L298.18 24.7344H299.164L299.727 24.9102L300.887 24.5586L301.66 24.7344V25.8945H301.098L300.324 25.6836L300.113 26.2812L299.551 26.0703V25.2969H298.953V25.8945L299.164 26.457L298.004 26.668L297.793 25.8945H297.23V26.668L295.473 27.0547L294.523 26.457C293.609 26.8555 292.578 27.1133 291.43 27.2305L291.043 28.3906L291.992 28.9531L295.086 28.6016L295.684 28.7773L297.23 28.3906L298.004 28.6016L298.777 28.3906L299.551 28.6016L299.938 28.0039L300.887 27.8281L303.207 28.7773L303.594 28.0039L303.98 28.6016H304.965C305.223 28.9766 305.609 29.0938 306.125 28.9531L307.496 28.7773L308.445 29.1641L308.656 29.7266H309.043L309.219 31.2734L308.832 32.0469H308.445V32.6445L308.656 33.5938L308.445 34.1562H308.059V34.543L308.445 34.7539V35.1406L308.27 36.4766L307.496 37.0391C307.051 37.6719 306.98 38.3164 307.285 38.9727L306.688 39.1836V38.4102H306.125L305.527 39.7461ZM283.273 38.0234V37.25H282.711V38.0234H283.273ZM291.043 37.6367C290.527 37.2383 289.941 37.0391 289.285 37.0391L289.109 36.0898H288.688V35.5273L289.109 34.7539L288.688 33.207C289.227 32.6914 289.883 32.5039 290.656 32.6445L292.203 32.9961V33.5938L291.992 34.543L292.203 35.3164L291.605 37.4258L291.043 37.6367ZM290.27 35.1406V34.7539L289.883 33.7695H289.285V34.543L290.27 35.1406ZM283.484 33.5938L283.66 32.9961H283.098L282.711 33.207V33.5938H283.484ZM302.258 33.207L301.66 32.9961V33.3828L302.258 33.207ZM305.141 32.8203V31.6602H304.754L304.578 32.8203H305.141ZM292.203 31.6602V31.2734H292.59V31.6602H292.203ZM304.754 30.5L304.965 29.7266L304.191 29.5508L303.98 30.3242L304.754 30.5ZM299.164 29.5508L298.391 28.7773V29.3398L299.164 29.5508ZM292.977 26.668V26.2812H292.59V26.668H292.977ZM302.82 25.2969L302.645 24.7344H303.031L302.82 25.2969ZM284.258 21.2539L286.367 20.6914L286.965 20.9023L287.914 20.6914L288.301 20.9023L288.688 19.3555L288.301 18.1953L288.512 17.2109L287.527 16.8594L287.352 17.4219L287.527 17.9844L285.594 18.3711V18.7578H285.207L285.031 17.9844L284.258 17.8086L282.324 18.582C282.184 18.0664 281.797 17.8672 281.164 17.9844V18.582L281.551 19.3555H281.938V19.918L281.727 20.6914H282.113L282.5 21.2539H284.258ZM280.566 20.6914V20.1289H280.004V20.6914H280.566ZM295.297 19.918L296.633 19.3555L297.406 19.7422L297.793 18.7578C296.902 18.6406 296.129 18.3242 295.473 17.8086L295.297 17.2109L293.363 17.0352C292.848 17.4102 292.648 17.9844 292.766 18.7578L293.363 19.7422L295.297 19.918ZM299.164 19.918L298.566 19.3555V19.7422L299.164 19.918ZM301.66 18.9688C301.566 17.75 301.766 16.5898 302.258 15.4883L301.484 15.1016C301.344 16.2734 301.016 17.3633 300.5 18.3711L301.66 18.9688ZM283.484 17.9844V17.4219H282.887V17.8086L283.484 17.9844ZM297.02 17.5977L296.457 17.4219V17.8086L297.02 17.5977ZM291.816 17.0352L291.43 16.6484V17.0352H291.816ZM286.367 17.0352V15.6992L288.125 14.9258L288.688 13.5547L288.125 13.3789L286.754 13.168C284.574 13.6836 282.383 14.1406 280.18 14.5391V14.9258L280.953 15.3125L281.551 16.0859H282.711L283.484 15.875V16.2617H283.871L285.594 15.6992V17.0352H286.367ZM294.699 16.8594L294.91 15.4883H294.523L294.137 16.2617L294.699 16.8594ZM292.977 15.6992V14.7148H293.363L294.137 15.3125L294.312 14.5391H295.297L295.473 13.3789L294.699 12.8164L292.379 13.168L291.043 12.9922L289.672 13.3789V14.1523L290.445 14.3281V15.3125H290.832L291.992 15.1016L292.203 15.6992H292.977ZM289.672 13.3789L289.285 12.9922L289.109 13.5547L289.672 13.3789ZM287.914 12.9922V12.6055L287.141 12.4297V12.8164L287.914 12.9922ZM286.367 12.2188V11.6562H285.805V12.2188H286.367ZM296.246 11.6562L295.684 11.0586V11.4453L296.246 11.6562ZM289.285 9.89844V9.33594H288.688V9.89844H289.285ZM288.512 9.33594V8.77344H287.914V9.33594H288.512ZM292.977 8.77344V8.38672H292.379L291.816 8.5625L291.43 8.38672V7.01562L291.992 5.46875L290.27 5.29297L289.285 5.67969L288.301 5.29297L286.965 5.85547L286.754 6.83984L285.031 7.01562V7.61328H284.434L283.484 7.22656L282.113 7.61328L281.34 5.85547H280.566L279.23 6.24219L278.633 6.06641L278.07 6.24219L276.91 6.06641L273.992 6.83984L273.43 6.45312V6.06641C276.125 5.03516 279.09 4.51953 282.324 4.51953V3.95703L281.551 3.74609L281.34 3.18359C281.738 2.66797 281.867 2.02344 281.727 1.25L281.551 0.300781H281.938L282.113 1.03906H282.5V0.300781H283.871C284.504 0.417969 285.078 0.664062 285.594 1.03906V2.02344L284.82 1.42578V2.58594H285.207L284.047 2.97266V4.13281H285.418L289.672 3.35938L290.445 3.74609L292.203 3.18359L292.766 3.35938L293.75 0.6875L294.312 0.476562L294.523 1.25L295.297 1.42578L295.859 1.25L296.457 2.19922H296.844L297.02 1.25H297.617L298.18 1.42578V1.8125L297.23 2.19922L296.633 2.58594C297.148 3.24219 297.793 3.5 298.566 3.35938L299.727 3.18359L302.047 3.74609C303.336 3.23047 304.754 3.04297 306.301 3.18359L306.512 3.95703C307.168 3.81641 307.496 4.00391 307.496 4.51953L306.688 5.08203V5.67969L305.738 6.06641C303.277 5.90234 300.828 5.70312 298.391 5.46875L296.844 6.06641C296.844 6.83984 296.586 7.28516 296.07 7.40234L295.297 6.62891H294.523V7.40234H295.473V7.78906L294.91 8V8.38672L292.977 8.77344ZM295.473 3.35938L296.07 2.97266V2.58594L294.91 2.41016L294.699 3.18359L295.473 3.35938ZM282.5 3.35938V2.97266H283.273V2.58594L282.711 2.41016L281.938 3.18359L282.5 3.35938ZM284.258 1.25L284.434 0.6875H283.484V1.42578L284.258 1.25Z" fill="#483D3F"/>
<path d="M243.526 38.1992L242.366 36.6875L242.964 33.7695L242.577 32.6445L242.753 31.0977L242.577 30.5L242.753 29.9375L242.19 28.6016L242.577 27.6172L241.979 26.0703L242.366 24.5586L242.19 23.9609L242.577 23.7852V23.3984L241.804 19.7422L240.432 19.5312V20.1289C239.167 19.6133 238.018 19.2266 236.987 18.9688L235.265 19.918L235.054 20.5156L235.651 21.2539L235.44 22.8008L234.28 22.2383L234.104 22.8008C234.479 23.457 235.054 23.7852 235.827 23.7852L236.038 24.3477L236.39 24.5586L235.44 25.5078L235.827 26.0703H236.6L235.651 26.457V27.0547H236.214L236.987 28.3906H237.374L236.038 29.7266V30.5L236.776 30.3242L236.214 32.2578L236.39 32.8203V33.3828L236.987 33.7695L236.214 33.207L236.39 32.4336L235.827 31.8711L236.038 31.4844H235.054L234.667 32.4336L235.44 32.9961L235.827 34.3672L236.776 34.7539L236.987 35.3164L236.038 35.1406L235.651 36.0898H235.054L233.893 35.7031V36.3008H232.944L231.608 36.4766L230.624 36.0898L229.675 36.4766L226.581 35.3164V34.543H226.194L225.034 34.9297L224.858 34.1562L226.792 33.7695L227.354 33.9805L229.85 33.5938C229.991 32.7031 230.12 31.8711 230.237 31.0977H230.624V30.1133H230.061L229.85 28.6016L229.675 28.0039H230.061V28.7773H230.448L231.608 28.0039L231.784 27.4414H231.222L230.448 27.6172L229.288 26.8438V26.457L229.85 26.2812V25.6836H229.464L229.288 24.5586H228.128L227.354 24.9102L226.968 24.7344L226.405 25.8945H226.018L225.632 25.1211H224.647V25.5078L224.858 26.0703H224.472C224.097 24.8047 223.968 23.3984 224.085 21.8516L226.018 21.4648L226.581 20.6914L228.515 20.1289L228.901 18.7578H229.675V18.3711L228.901 17.9844L228.304 16.2617L226.194 15.875L224.085 16.0859V13.3789L224.261 12.8164L224.085 11.832L224.472 11.6562L225.034 12.8164L226.018 12.9922L226.581 12.8164L227.179 12.9922L227.565 12.2188H227.952V10.8828L230.448 11.2695L231.397 11.0586V10.4961L230.448 10.2852L229.85 10.4961L229.464 9.51172H229.85L230.237 8L229.85 7.22656L230.448 7.01562L230.835 4.51953L230.448 3.95703H230.835V4.34375L231.784 4.51953V4.13281L230.624 3.35938V2.97266L231.222 2.79688V2.02344L230.624 1.63672V1.25L231.011 0.300781H235.44L235.651 1.03906L235.44 1.8125L236.6 2.19922L236.038 2.79688V3.74609L236.214 4.34375L235.44 4.51953L235.265 5.29297L235.827 5.46875L236.038 6.62891L235.827 7.40234L236.214 8H235.44V8.38672L236.39 8.5625V9.125L235.44 9.72266L235.054 10.8828L236.39 11.0586L236.987 12.6055L236.776 13.168H237.374V13.7656H236.6V14.3281H236.987V14.7148L236.6 15.4883L235.651 16.2617V17.0352L236.987 17.2109L237.374 15.875L238.921 15.6992V15.1016L238.147 14.9258L237.936 12.8164H238.323L239.694 13.5547L240.081 12.9922L240.432 12.4297H239.694H240.081V11.6562L240.643 10.4961L241.804 9.51172C242.061 8.50391 242.448 7.54297 242.964 6.62891H243.526V6.24219L243.35 5.67969L245.249 2.02344L246.233 1.63672L247.007 1.8125L248.132 1.63672L249.679 2.58594V3.18359L250.452 3.57031L250.663 5.08203L249.503 7.78906L249.679 8.38672L248.729 8.5625V8.94922L248.905 9.51172H248.343V10.2852L248.518 10.8828L248.132 12.043L250.276 12.2188L251.436 12.043L251.823 9.125H252.386C252.643 8.11719 253.159 7.22656 253.932 6.45312L255.093 5.29297H256.604L256.991 6.24219H256.429L255.866 7.78906L256.042 8.17578L255.268 9.89844H254.706V10.6719C255.479 11.1875 256.311 11.4453 257.202 11.4453L258.925 10.8828L259.698 11.4453L261.245 10.8828L261.632 11.6562C261.116 11.9141 260.917 12.3594 261.034 12.9922H260.647L258.749 12.2188V12.8164L256.604 13.3789L256.429 14.7148L256.042 15.3125H256.604L256.429 16.0859L255.093 16.4727L254.882 17.2109L255.655 17.8086L255.866 18.7578H257.378C258.667 18.5 259.956 18.1836 261.245 17.8086V18.582L261.034 19.1445H261.632L262.018 18.9688C261.62 19.4844 261.034 19.6719 260.261 19.5312V20.1289H260.858L259.909 20.5156L259.136 20.1289L258.749 20.9023C257.718 21.0195 256.815 21.4648 256.042 22.2383L255.866 22.625H255.479L254.706 22.4141V22.8008L255.866 23.7852C256.757 24.043 257.718 24.2305 258.749 24.3477L259.909 23.9609L260.472 24.1719L261.421 23.7852L262.018 24.7344L260.647 24.9102V25.2969H260.085V25.6836H259.698L259.136 25.5078L258.749 26.2812L257.764 26.668L257.202 26.457L256.815 27.2305L256.218 27.4414V28.0039L256.604 28.7773L254.882 29.5508L254.495 30.7109L257.378 31.0977L259.698 30.7109L262.968 31.4844L263.565 32.2578V32.8203L262.968 32.9961L262.792 33.7695H262.194L262.018 32.4336H261.421V34.1562L261.632 34.7539L260.858 34.3672L260.085 35.5273H259.522L256.604 34.7539L255.093 35.1406L254.882 34.3672L254.108 34.1562L253.546 34.9297H252.948V33.9805H252.561L251.999 34.7539H250.839L249.679 33.5938H250.065V32.6445L249.292 32.4336L249.116 32.9961H247.956L247.78 32.0469H248.343V32.6445H248.729L249.292 31.8711H249.89V31.2734H251.05V30.8867L250.839 27.2305L249.292 26.457L248.905 27.2305H248.518L248.132 26.0703L247.956 25.5078H248.729L248.905 26.2812H249.292L249.89 24.7344L250.452 24.9102C251.108 24.418 251.366 23.7148 251.225 22.8008L250.452 21.2539L249.89 21.0781L249.116 21.2539L247.956 20.6914L247.393 21.4648H246.796L246.022 21.2539L245.636 22.2383L245.847 23.0117L245.636 23.9609L246.233 25.2969L247.393 25.6836V26.2812L246.233 26.668L245.46 26.2812V26.668L246.233 27.4414L246.796 28.7773L246.022 30.1133L246.409 31.2734H245.249V32.0469H245.636L246.233 31.8711L247.007 32.9961L247.393 34.543L245.847 35.5273L245.073 36.0898V36.4766L245.249 37.0391C244.358 37.0391 243.784 37.2969 243.526 37.8125V38.1992ZM245.636 35.3164V34.7539H245.073V35.1406L245.636 35.3164ZM248.518 35.1406L248.132 34.9297L248.905 34.7539L249.292 34.9297L248.518 35.1406ZM253.932 34.1562V33.5938H253.335V34.1562H253.932ZM231.784 32.4336L231.397 32.0469V32.4336H231.784ZM244.089 29.1641V28.7773L243.35 28.3906V28.7773L244.089 29.1641ZM255.093 28.9531L256.042 28.6016V28.2148L254.882 28.0039L254.495 28.7773L255.093 28.9531ZM235.651 27.8281V27.2305H235.054V27.8281H235.651ZM231.995 27.0547V26.457H231.397V27.0547H231.995ZM229.85 23.9609V23.5742L229.288 23.3984V23.7852L229.85 23.9609ZM252.386 22.625V22.0273H251.823L251.225 22.2383V22.8008H251.612L252.386 22.625ZM235.265 21.2539L235.054 20.6914H234.28V21.0781L235.265 21.2539ZM258.538 20.6914V20.1289H257.975V20.5156L258.538 20.6914ZM236.214 19.1445L235.827 18.7578V19.1445H236.214ZM247.569 18.9688L250.663 18.3711L251.436 13.3789H250.839L249.89 13.5547L249.116 13.3789C248.085 13.6367 247.054 13.9531 246.022 14.3281L245.847 14.9258H246.233V15.3125C245.577 15.6875 245.249 16.2617 245.249 17.0352L245.46 18.1953L245.249 19.1445L246.022 19.5312L247.569 18.9688ZM255.268 18.9688V18.3711H254.108L253.932 18.9688H255.268ZM262.405 17.9844V17.5977H262.792V17.9844H262.405ZM235.651 17.4219V17.0352H235.265V17.4219H235.651ZM255.479 15.1016L255.866 14.1523H255.479L254.882 15.3125L255.479 15.1016ZM226.792 15.1016V14.7148L227.565 14.1523L226.968 13.9414V13.3789H226.405L226.018 14.7148L226.792 15.1016ZM253.932 14.1523L253.159 13.7656V14.3281L253.932 14.1523ZM255.093 13.9414L254.495 13.7656V14.1523L255.093 13.9414ZM260.472 12.043V11.4453H260.085L259.909 12.043H260.472ZM231.222 10.1094L230.624 9.51172V9.89844L231.222 10.1094ZM244.475 5.85547L243.913 5.67969V6.06641L244.475 5.85547ZM236.038 4.13281V3.57031H235.265V4.13281H236.038ZM232.733 2.02344V1.42578H231.995V2.02344H232.733Z" fill="#483D3F"/>
<path d="M183.812 39.9219L183.637 38.7617L183.812 37.2148H183.25V35.668L184.023 34.1211L183.074 33.7344V32.9609L183.461 31.2383L184.023 30.4648L183.461 30.2539L183.25 28.5312L183.461 27.7578L182.301 27.1602C181.809 27.8164 181.176 28.0156 180.402 27.7578V28.5312L179.453 28.707L179.277 29.4805L178.152 29.6914L177.555 29.4805C177.812 30.3945 177.566 30.9805 176.816 31.2383L176.043 29.6914L177.379 28.3203V27.7578L178.504 27.5469L178.715 26.7734L180.402 25.8242C181.035 24.793 181.855 23.9492 182.863 23.293L183.812 22.9062L184.023 21.7461L184.375 21.3594L184.199 19.8125L184.375 18.0547L183.637 17.668L183.461 18.2656H182.512L181.352 18.0547C181.352 18.7109 181.035 19.0391 180.402 19.0391C179.395 18.3828 178.328 17.9961 177.203 17.8789L176.641 16.332C178.773 15.418 180.977 14.5742 183.25 13.8008L183.812 14.0117V13.4141L184.762 12.8516L184.973 10.3203L184.762 9.54688L185.535 9.16016L185.711 7.82422L185.148 7.61328L184.973 8.38672H184.023L183.25 8L182.688 8.21094V8.98438L181.738 9.37109L181.352 10.1445H180.789L180.227 9.93359V10.3203L180.402 10.707L178.328 10.3203L178.152 9.16016L178.715 8.38672L179.84 8L180.051 7.05078L181.914 6.27734V5.89062H183.074V5.50391C184.082 4.84766 185.219 4.51953 186.484 4.51953V3.92188H185.922C187.047 3.80469 188.184 3.61719 189.332 3.35938L191.793 5.67969C190.785 5.67969 189.766 5.87891 188.734 6.27734V6.66406L187.047 7.22656L186.871 8.77344H186.484V9.54688H187.223L187.434 11.3047L187.223 12.0781H187.785C188.301 11.6797 188.875 11.5508 189.508 11.6914V11.3047H190.07L189.332 11.4805V11.8672L191.02 12.4648L191.195 14.5742H191.582V14.9609L190.281 15.9453L189.508 15.5586L189.332 16.332H188.559L187.996 18.4414C188.629 19.2148 189.449 19.543 190.457 19.4258L191.02 20.1992C192.543 21.2305 194.125 22.0625 195.766 22.6953L196.152 24.0664C195.262 24.4648 194.312 24.7227 193.305 24.8398V25.2266C191.289 25.1797 189.578 24.4766 188.172 23.1172V22.5195H187.785L187.609 26.3867L187.785 26.9844H187.223V27.5469L187.434 29.0938H187.047V30.4648L187.434 32.0117L187.047 33.5586C187.422 34.707 187.551 35.9258 187.434 37.2148L187.996 37.8125L186.66 38.7617L186.484 39.1484C185.477 39.0312 184.586 39.2891 183.812 39.9219ZM192.145 35.668V35.2812L192.355 34.7188L192.145 34.1211L193.691 33.7344L193.867 32.9609C194.758 32.8438 195.637 32.6562 196.504 32.3984L197.277 32.5742C199.035 32.3164 200.676 31.8008 202.199 31.0273V30.4648L202.023 29.3047L202.375 28.3203L201.637 28.1445L201.461 27.7578L201.637 26.7734C201.121 26.2578 200.43 26.0703 199.562 26.2109C199.562 26.7266 199.246 26.9844 198.613 26.9844L197.102 26.5977C196.586 26.9727 195.953 27.1016 195.203 26.9844L194.043 26.7734L194.641 26.5977V26.2109L195.766 25.6133H196.328V26H196.891L197.102 25.4375L199.562 24.8398L200.125 25.2266L201.25 24.2773L201.461 22.9062H201.074V22.1328L201.25 21.5352L200.863 20.375L200.301 19.9883H199.738V20.375L196.504 20.9727L195.766 19.9883L196.152 19.4258C198.66 18.3945 201.238 17.6562 203.887 17.2109C206.559 16.7422 209.219 16.3203 211.867 15.9453L212.641 17.1055L211.094 17.2812L210.918 17.8789L208.633 19.0391L207.684 18.8281L206.383 19.4258V19.8125L206.559 20.7617L206.383 21.5352L206.734 21.9219L205.434 22.1328L204.871 21.9219V22.5195C206.371 22.918 207.883 23.1758 209.406 23.293L209.793 24.6641L209.195 25.4375L209.793 26L208.457 26.3867L207.895 28.707L206.945 29.4805L208.457 29.8672L208.633 30.4648C209.523 30.4648 210.227 30.7812 210.742 31.4141V30.4648H211.305L212.816 31.2383V30.6406L212.641 30.0781L213.941 30.8516V31.2383H214.504H212.992V31.8008L213.766 32.5742L212.641 32.3984V33.1719L213.555 33.7344C210.156 34.25 206.746 34.3203 203.324 33.9453V34.332C202.574 34.332 201.883 34.4609 201.25 34.7188L200.512 34.1211V34.8945H200.125L198.965 34.5078L198.227 34.7188L196.891 33.5586L196.715 34.8945H194.816C193.809 34.8945 192.918 35.1523 192.145 35.668ZM194.816 34.332V33.9453H194.43V34.332H194.816ZM204.273 32.1875L203.922 31.8008V32.1875H204.273ZM207.508 32.0117V31.625L206.945 31.4141L206.734 32.0117H207.508ZM205.996 31.8008V31.2383H205.434V31.8008H205.996ZM206.559 28.5312L207.332 28.1445L207.895 28.3203V27.5469L206.945 27.3711V27.7578H206.383L206.172 28.5312H206.559ZM202.375 27.9336V27.3711H201.812V27.9336H202.375ZM184.199 27.5469L183.637 26.9844V27.7578L184.199 27.5469ZM211.094 24.8398L211.305 24.4531L211.48 24.8398H211.094ZM202.199 24.6641L201.461 24.2773V24.8398L202.199 24.6641ZM191.406 23.5039L190.844 23.293V23.6797L191.406 23.5039ZM202.375 23.293V22.9062L202.023 23.293H202.375ZM207.121 19.0391L207.332 18.4414H206.734V19.0391H207.121ZM190.457 15.1719L189.895 14.9609V15.3477L190.457 15.1719ZM197.102 14.9609L196.891 14.1875H196.504L195.941 14.3984L194.641 14.0117C195.25 14.0117 195.555 13.7539 195.555 13.2383L194.992 12.4648L194.43 11.3047L194.816 10.5312L194.043 10.1445V9.75781H194.43V7.61328L195.203 7.4375L195.379 6.83984C197.91 5.80859 200.441 4.83594 202.973 3.92188L203.148 4.51953H203.535L203.922 3.74609L204.66 3.53516L206.945 3.74609C208.07 3.08984 209.336 2.76172 210.742 2.76172L210.918 3.53516H211.305L211.691 3.35938V3.74609L211.305 5.11719L210.742 5.29297V5.67969L211.094 7.05078L210.742 8.38672L209.793 9.37109V9.93359L210.742 10.5312V10.918L209.793 11.3047L209.406 12.0781L208.457 12.2539L208.281 12.6406C206.617 13.1562 204.848 13.4844 202.973 13.625L201.812 13.4141L201.25 13.625V14.1875H200.688L199.352 13.625V14.3984L197.664 14.5742V14.9609H197.102ZM195.941 12.8516L195.555 12.4648V12.8516H195.941ZM204.66 11.4805L205.047 10.5312H205.434C205.926 9.24219 206.301 7.88281 206.559 6.45312C205.809 5.9375 204.988 5.75 204.098 5.89062L203.535 6.06641L202.586 5.89062L202.199 6.66406H200.688L200.125 6.45312L199.562 7.4375H198.965V7.82422L197.664 8.38672L197.453 9.16016H197.84L198.613 8.98438L198.965 9.54688L198.789 10.3203H199.914V10.707L199.176 11.0938L198.965 11.6914L202.199 11.8672L204.66 11.4805ZM197.664 10.707L197.84 10.1445H197.277V10.707H197.664ZM209.195 9.75781L208.633 9.16016V9.54688L209.195 9.75781ZM196.891 8.98438L197.102 8.38672H196.152V8.77344L196.891 8.98438ZM206.945 5.89062V5.29297H206.383V5.89062H206.945ZM210.145 4.51953L210.355 3.92188H209.969L209.793 4.51953H210.145Z" fill="#483D3F"/>
<path d="M152.953 35.5273L152.391 35.3164V34.543H151.793L151.617 32.8203H151.02V32.4336L151.195 31.8711H150.809L151.02 31.0977H152.004L152.18 29.1641L152.566 30.1133L153.164 30.3242L152.777 31.2734L153.938 31.6602V30.8867H154.922L156.082 31.4844V30.8867L154.535 30.1133V29.7266L156.645 28.7773L157.031 28.0039H157.629L158.227 28.2148V27.8281L157.84 27.6172V27.2305L158.227 27.4414V27.8281H158.789V27.4414H159.176L160.16 27.6172L160.371 26.668H161.145L161.32 28.3906H160.16L159.562 28.0039L159 28.9531L158.613 28.6016L158.016 30.7109L157.242 31.4844H156.855L156.258 32.8203L154.711 33.3828L154.324 34.3672L152.953 34.7539V35.5273ZM159 34.7539L158.789 33.9805L159.387 34.7539H159ZM161.707 34.3672L162.094 33.9805V34.3672H161.707ZM159.773 34.1562L159.562 33.5938L160.371 33.207V32.6445L159.387 31.4844L159.984 30.8867L159.562 30.5H159.984V29.3398L160.934 29.9375L162.094 29.3398V29.7266L160.934 30.1133L160.758 30.7109H160.16V31.2734L160.934 33.5938L160.758 33.9805L159.773 34.1562ZM162.094 33.5938V32.8203H162.48L162.094 33.5938ZM140.297 32.9961L140.121 32.4336H139.734L139.137 32.6445L138.961 32.0469C138.305 32.1875 137.848 32 137.59 31.4844L137.379 30.3242L137.59 29.7266L137.379 29.1641L137.59 28.2148C137.332 26.5273 137.004 24.8516 136.605 23.1875L137.379 22.625C137.262 21.9688 137.461 21.5117 137.977 21.2539H138.574C139.09 21.6523 139.348 22.168 139.348 22.8008L141.105 23.1875V22.2383L140.297 21.6406V20.9023L141.105 20.6914L142.652 21.2539V21.8516H143.039C143.953 21.5938 144.797 21.3359 145.57 21.0781V20.6914H145.957L146.941 21.4648V21.0781H147.328V22.625H147.891L147.117 24.5586L147.504 24.7344V25.5078L148.102 25.8945L147.715 26.457H147.328L146.73 26.2812V27.0547L146.941 27.6172H147.504L147.891 27.4414C148.289 28.2148 148.488 28.9766 148.488 29.7266L147.117 29.9375L146.73 31.2734L145.746 31.4844L144.797 31.0977L144.41 31.8711L144.973 32.4336L143.25 32.6445L141.105 32.4336L140.297 32.9961ZM153.938 32.6445L154.113 32.0469L152.777 31.8711L152.566 32.8203L153.938 32.6445ZM161.145 32.2578V31.6602H161.918L162.094 32.0469L161.145 32.2578ZM169.301 30.5L167.754 29.9375L167.543 29.3398L162.902 25.6836H161.531V26.2812V25.8945H160.16L159.773 26.457L158.613 26.8438V26.457H159V26.0703L158.613 25.5078L159.387 25.6836V25.1211L158.789 24.9102L158.402 23.3984L157.031 23.0117L155.484 23.1875L155.098 21.4648H154.535L154.113 22.8008L153.34 23.1875L152.777 22.2383C152.004 22.2383 151.289 21.9805 150.633 21.4648V20.9023H151.02V19.7422L150.809 19.3555H151.195L151.406 20.1289H151.793L153.34 19.918L153.938 20.1289V19.3555L156.258 19.1445L156.469 19.918H157.031L157.453 19.7422L157.629 20.1289H158.016L158.227 18.9688L158.402 19.3555H159L159.387 18.582H158.789V18.1953L159.176 16.8594L158.227 16.6484C158.344 15.875 158.086 15.4297 157.453 15.3125L157.031 15.4883L156.469 14.5391H156.082L155.309 14.9258V15.3125L155.695 15.4883V15.875H155.098L153.938 15.3125L153.551 14.1523L153.727 13.168H154.113L154.324 13.9414H155.098V13.3789L157.453 12.9922L157.629 12.4297H158.402L159.176 12.6055L159.387 11.832L159.176 10.6719H158.613L158.016 10.8828V9.89844H158.402V9.125L157.629 8.77344V8.38672H156.469L156.258 8.94922L155.484 9.125L155.098 10.1094L154.324 10.2852L154.113 11.2695L154.324 11.832L153.938 12.6055H153.164L152.953 13.168H151.793L151.406 12.4297C151.406 10.9531 151.406 9.47656 151.406 8L151.02 6.06641L151.617 2.19922L152.777 1.8125L152.953 1.25L154.535 1.03906V1.42578L156.082 1.8125L156.258 0.476562C157.336 0.195312 158.379 0.265625 159.387 0.6875V0.300781C160.301 0.371094 161.203 0.558594 162.094 0.863281L162.305 0.300781H166.98L167.156 0.863281L166.98 1.25H166.594V1.63672C167.109 3.30078 167.297 5.16406 167.156 7.22656L166.594 9.125L167.156 11.2695C166.523 11.6445 166.266 12.1602 166.383 12.8164H167.156V13.3789L166.207 14.1523V14.9258L166.383 15.3125L164.238 15.6992L164.062 15.1016H163.465L163.078 15.6992L162.094 17.0352L161.145 16.6484V17.9844L161.918 18.9688L162.48 19.1445L163.078 18.9688V18.3711L164.449 18.9688L165.434 18.582V19.3555H165.996L166.207 18.1953L166.77 17.9844L167.754 18.9688H166.98V19.7422L167.754 19.918V20.3047L165.996 21.0781V21.6406H166.594V22.0273L165.996 22.2383L165.012 21.6406L164.449 21.0781C164.449 21.7109 164.25 22.2852 163.852 22.8008H162.691V23.3984L162.902 23.9609H163.289L163.852 23.7852C165.422 25.3086 167.109 26.6562 168.914 27.8281L169.512 28.0039L170.672 28.9531L171.059 30.1133C170.543 30.5117 169.957 30.6406 169.301 30.5ZM139.137 29.9375L138.574 29.7266V30.1133L139.137 29.9375ZM144.797 29.7266V29.1641H144.199V29.7266H144.797ZM153.727 29.5508L153.34 28.6016L154.113 29.3398L153.727 29.5508ZM142.266 29.3398L143.25 28.9531L144.41 29.1641L145.184 28.7773C145.113 27.418 145.242 26.0703 145.57 24.7344L145.184 24.5586V23.7852L145.746 23.5742V23.1875L144.41 23.0117L144.023 23.7852H143.637V23.3984L144.199 23.1875V22.4141L143.25 22.2383L141.668 23.0117L141.492 23.5742L140.719 23.9609L140.508 24.3477L140.297 24.9102L140.895 27.8281L141.492 28.9531L142.266 29.3398ZM154.711 28.9531L154.535 28.3906L155.309 28.0039L155.695 27.2305H156.258L156.082 28.6016L154.711 28.9531ZM140.508 28.0039V27.4414H139.91V28.0039H140.508ZM146.555 27.2305V26.668H145.957V27.2305H146.555ZM138.188 26.457V25.8945H137.59V26.457H138.188ZM160.371 25.6836V24.9102H159.984L159.773 25.5078L160.371 25.6836ZM139.91 25.2969L139.523 24.9102V25.2969H139.91ZM145.746 22.8008V21.4648H144.797V21.8516L145.184 22.8008H145.746ZM156.469 22.8008V22.2383L155.484 22.0273V22.4141L156.469 22.8008ZM157.453 22.625V22.2383L157.629 21.6406L157.031 21.4648L156.645 22.625H157.453ZM141.492 22.0273V21.6406L140.895 21.4648V22.0273H141.492ZM167.156 21.8516V21.4648H167.543V21.8516H167.156ZM152.18 20.6914L151.617 20.5156V20.9023L152.18 20.6914ZM164.625 20.5156V20.1289L164.836 19.3555L164.238 19.1445L163.852 19.918L164.062 20.5156H164.625ZM163.078 20.1289L163.289 19.5312H162.902L162.48 20.3047L163.078 20.1289ZM162.305 19.918V19.3555H161.918V19.918H162.305ZM161.145 19.7422V18.582H160.547L159.984 18.7578V19.3555L161.145 19.7422ZM136.992 18.9688V18.1953L136.605 17.0352L140.297 16.2617L140.895 16.6484L141.105 15.6992H141.492V16.0859H142.055V15.6992H142.441L143.039 15.875L144.023 15.4883L144.586 15.6992L145.184 15.4883L146.555 16.8594L146.168 17.0352L145.957 17.9844H145.359C144.844 17.6094 144.27 17.4805 143.637 17.5977V17.9844L141.879 18.3711L137.801 17.9844V18.3711L136.992 18.9688ZM165.012 14.5391L164.449 14.3281V14.7148L165.012 14.5391ZM163.465 14.3281L162.691 13.5547V13.9414L163.465 14.3281ZM165.609 14.1523V13.7656H165.223V14.1523H165.609ZM157.453 13.7656V13.3789H157.031V13.7656H157.453ZM161.32 12.8164L164.238 11.832C164.309 10.3086 164.379 8.77344 164.449 7.22656H164.062L163.289 7.40234L162.094 7.01562V7.40234L162.305 8L159.387 9.33594V9.89844L160.547 10.8828L160.758 9.89844L161.707 9.72266L162.094 9.89844L162.305 10.8828L162.094 11.2695V10.2852H161.707L160.758 10.6719V11.0586H160.16L159.773 10.8828L159.562 11.4453L161.32 12.8164ZM137.203 12.4297L136.605 12.2188V11.4453C138.691 10.6719 140.836 10.1562 143.039 9.89844L144.586 10.1094L146.168 9.72266L146.941 10.1094L147.117 10.8828L146.168 11.2695L145.746 12.043L143.25 12.2188L142.441 11.832L140.508 12.043L139.734 11.832L139.523 12.2188H138.961L138.188 12.043L137.203 12.4297ZM154.711 9.51172V8.94922H154.113L153.938 9.51172H154.711ZM165.82 8.94922L165.223 8.38672V8.94922H165.82ZM157.453 8.17578V7.61328H156.855V8L157.453 8.17578ZM139.523 6.83984V6.24219L136.219 5.85547L136.043 4.13281C137.074 3.75781 138.234 3.62891 139.523 3.74609L139.91 0.863281H140.895V0.300781H142.055L142.266 0.6875H142.652L142.828 0.300781H143.426L144.199 2.97266L147.117 3.18359L148.277 2.97266L148.875 3.57031L149.086 2.97266L149.648 2.79688L149.859 3.95703L149.473 4.73047H149.086C149.203 5.36328 149.004 5.73828 148.488 5.85547L147.504 5.67969V6.06641L147.715 6.62891H147.117L145.746 6.06641L144.973 6.24219L144.199 6.45312L143.426 6.24219V6.62891L141.879 6.24219L141.105 6.62891V6.06641L141.281 5.46875L140.297 4.73047C140.438 5.62109 140.18 6.32422 139.523 6.83984ZM162.305 6.62891L162.902 5.85547L164.449 5.67969L164.836 2.41016L163.289 2.02344V2.41016L163.852 3.74609H162.902L161.918 2.97266L161.707 3.57031L161.918 4.34375L161.145 4.73047V5.29297L161.918 5.67969L161.531 5.85547V6.45312L162.305 6.62891ZM153.938 6.45312L154.113 5.85547H153.551L153.34 6.45312H153.938ZM159.562 6.24219L159.773 5.29297L158.402 5.08203L157.84 5.29297L156.855 2.79688L155.484 2.41016V3.57031L156.258 3.95703V4.34375H155.871L154.711 3.95703L153.938 5.46875L154.113 6.06641C155.027 6.44141 156.07 6.57031 157.242 6.45312L159 5.85547L159.562 6.24219ZM144.199 6.06641L145.184 5.85547V5.29297L143.039 4.90625V5.29297L143.812 5.67969L144.199 6.06641ZM148.102 4.13281V3.74609L147.504 3.57031V3.95703L148.102 4.13281ZM154.324 3.35938V2.97266H153.938V3.35938H154.324ZM157.242 2.19922V1.8125L156.855 0.863281H156.258V1.8125L157.242 2.19922ZM161.145 1.63672L160.758 1.25V1.63672H161.145Z" fill="#483D3F"/>
<path d="M94.3789 38.9102L93.2539 37.75L93.043 36.4141C93.043 35.3828 93.3008 34.6094 93.8164 34.0938H94.2031V33.707C93.5703 33.1914 93.3711 32.4883 93.6055 31.5977L93.8164 30.8242H94.3789V30.2617L93.8164 30.0508V29.4883L94.9414 28.1172L94.2031 27.9414L93.9922 26.2187C94.1328 25.0469 94.3906 23.9453 94.7656 22.9141L94.5898 20.418L94.9414 17.9219H95.5391L95.7148 16.5859L95.1523 16.375C95.7148 14.125 95.6445 11.8867 94.9414 9.66016L95.5391 8.88672L94.7656 8.28906V3.85938H95.5391L99.8984 5.40625L100.848 5.23047L101.797 5.61719L102.008 5.01953L103.52 6.17969V5.40625H104.082L104.855 5.61719V5.23047H105.418V5.79297L105.066 6.74219L106.191 7.12891L107.141 6.74219V7.12891L106.016 8.11328V8.67578L106.754 9.0625L107.352 8.88672L107.703 10.0469L107.141 10.9961C107.516 12.0273 107.832 13.0586 108.09 14.0898L107.527 14.2656V14.8281C108.16 14.8281 108.734 15.0273 109.25 15.4258L109.812 15.2148V15.6016L108.863 16.7617L109.25 17.9219L108.301 18.5195L107.527 18.1328V18.5195H106.754V19.082H105.805L104.082 18.5195L103.73 20.0312L103.133 20.2422L102.746 20.0312V19.6445L104.293 17.7461V17.1484L103.133 16.7617L102.957 17.7461L102.184 16.9727H101.621L102.395 19.082H101.621L101.059 18.8711V20.6289H100.672V20.0312H99.8984V19.6445L100.848 18.8711L99.7227 18.3086L98.1758 19.8555L98.5625 20.6289H98L97.8242 23.8984L98 24.4609H97.6133V25.0586L97.8242 25.6211L97.6133 26.7812L97.8242 27.3437C97.8242 30.4375 97.5664 33.3906 97.0508 36.2031L97.2266 37.3633L96.4883 37.5742L96.2773 38.1367L96.4883 38.5234H95.5391L94.7656 38.1367L94.3789 38.9102ZM123.91 35.4297L123.348 34.6562L122.75 34.4805L122.574 32.9336L123.137 32.1602L122.574 31.7734V31.2109L123.137 29.875L123.523 29.1016L123.348 28.7148L123.523 28.1172L122.75 27.9414V27.3437L122.961 26.3945L122.75 25.832L123.523 23.8984L122.961 23.5117V22.5625L123.137 21.7891H121.625V21.4023H121.238L120.852 21.5781L119.34 21.4023V21.7891H118.566L117.055 21.1914L115.719 21.4023L113.434 20.418L113.223 18.8711H114.945L116.105 19.4687L116.492 19.2578L117.055 19.4687L117.23 18.6953H116.844V18.1328L117.441 17.9219V17.5352L117.23 17.1484L118.391 17.9219L117.617 19.4687H118.004L118.391 18.8711L118.566 19.6445L119.727 19.8555L120.113 18.3086L120.676 18.8711H121.238L121.801 17.9219L122.188 18.8711L122.75 19.082L123.137 18.1328L122.961 17.3594L123.523 13.8789L122.574 13.1055L122.398 13.4922H122.012V12.7187H121.238V12.332H122.012V11.9453L121.414 10.2227C121.039 10.9961 120.664 11.7695 120.289 12.543L120.465 13.3164H119.727L118.953 13.1055L118.391 13.3164L117.441 12.7187L116.844 14.6523H117.23V15.0391L116.844 15.6016L117.23 16.1992L117.055 16.5859L116.492 16.7617L116.281 17.1484L114.383 17.5352L113.434 16.9727L112.66 6.95312L113.047 6.00391L114.207 5.23047V4.63281L113.996 4.24609L114.383 3.68359L115.719 3.47266L116.668 3.68359V3.08594H117.055L118.566 3.47266L118.777 2.69922L119.516 2.52344V3.29688H120.289V2.91016C121.039 3.09766 121.801 3.09766 122.574 2.91016L122.75 3.47266H123.348L123.699 2.91016L124.473 3.29688L125.246 3.08594L126.582 4.07031L126.195 5.01953L126.758 5.23047V5.61719L126.582 6.17969L125.984 6.74219L126.582 8.88672L126.969 9.0625V9.44922H126.582V10.0469L126.969 10.7852L126.371 12.332L126.969 12.7187L126.582 13.4922L127.145 15.0391L126.582 14.4766L125.984 14.0898L125.809 14.6523H126.195V15.0391L125.809 15.6016L125.984 15.9883H126.969L127.145 17.7461L126.371 17.9219V18.3086L127.531 18.8711V19.8555H126.582V20.2422L127.707 22.7383L126.371 23.125V23.6875L127.707 24.8477V26.0078L127.145 27.7305L127.531 29.2773L127.32 29.875L127.531 30.8242L127.32 32.7578L127.531 33.3203L126.582 33.5312L126.195 34.8672H125.633L124.859 34.6562L123.91 35.4297ZM124.297 34.6562L123.523 33.918V34.3047L124.297 34.6562ZM126.758 30.8242L127.145 30.0508H125.984V30.4375L126.758 30.8242ZM123.523 27.7305V27.3437H123.137V27.7305H123.523ZM116.844 21.0156L117.055 20.418H115.895V21.0156H116.844ZM119.902 21.0156L119.516 20.6289V21.0156H119.902ZM122.398 20.8047V20.2422H121.801V20.8047H122.398ZM118.777 20.2422L118.18 19.8555V20.418L118.777 20.2422ZM105.242 20.0312L104.469 19.8555V19.4687H105.066L105.242 20.0312ZM114.207 19.8555L113.82 19.4687V19.8555H114.207ZM101.797 18.3086L101.621 17.3594H101.059V18.1328L101.797 18.3086ZM105.066 18.3086V17.9219H104.68V18.3086H105.066ZM105.629 17.9219L106.016 17.1484H105.629L105.066 18.1328L105.629 17.9219ZM118.953 17.5352L120.113 16.9727V17.3594L118.953 17.5352ZM98.3867 16.7617V16.375H98V16.7617H98.3867ZM100.109 16.5859L100.285 16.1992C101.105 16.082 101.867 16.2109 102.57 16.5859L103.73 15.8125L104.68 16.1992L106.191 14.6523H105.629L105.066 14.8281L105.418 14.0898H104.855L104.469 12.1562H104.082L103.73 12.9297H102.957L102.395 11.3828H103.344L103.133 12.1562H103.52L103.906 11.3828H104.293L104.68 11.5586L104.855 9.66016L103.52 9.44922L102.957 9.66016L102.746 8.88672C101.996 9.14453 101.562 8.94531 101.445 8.28906L102.184 7.90234L102.395 7.12891L102.008 6.95312V6.56641H101.445L101.059 8.11328L100.461 8.28906V8.88672L101.059 9.27344H100.461L98.3867 8.88672L98.1758 10.6094L99.1602 10.9961L100.285 11.3828L100.461 10.7852L101.059 10.6094V10.9961L100.848 12.332H101.234V12.7187L101.059 14.4766H101.445L101.059 14.8281L99.7227 14.0898H99.3359L98.3867 15.0391V16.5859H99.1602V16.1992L99.5117 16.7617L100.109 16.5859ZM103.344 14.4766L102.57 14.0898H103.73L103.344 14.4766ZM99.7227 12.543L99.1602 12.1562V11.3828H98.7734L98.3867 12.9297H98.7734L99.7227 12.543ZM119.902 12.332V11.7695H119.34V12.332H119.902ZM118.953 11.9453L119.129 11.1719H118.566V11.9453H118.953ZM123.523 11.9453L123.137 11.5586L122.961 12.1562L123.523 11.9453ZM122.398 11.1719V10.4336L122.961 10.6094C123.453 9.57812 123.699 8.41797 123.699 7.12891C122.176 6.49609 120.535 5.99219 118.777 5.61719L117.441 6.17969L116.492 6.00391L115.332 6.39062L115.156 7.90234L115.895 8.28906L116.281 9.27344L117.441 9.44922L120.113 8.88672L120.465 9.66016L121.238 9.83594L121.801 11.1719H122.398ZM118.953 10.7852V10.2227H118.391V10.7852H118.953ZM114.207 8.88672L114.383 8.11328H113.82L113.434 8.88672H114.207ZM100.461 8.28906L99.7227 7.90234V8.67578H100.461V8.28906ZM103.52 7.90234L102.957 7.33984V8.11328L103.52 7.90234ZM114.77 7.72656V7.33984L114.559 6.74219H113.996L113.82 7.33984L114.77 7.72656ZM100.109 7.51562V7.12891H99.7227V7.51562H100.109ZM114.945 5.23047L114.559 4.84375V5.23047H114.945ZM114.945 4.45703L114.383 4.24609V4.63281L114.945 4.45703Z" fill="#483D3F"/>
<path d="M104.911 38.8398L104.661 38.0742L104.395 37.6367L104.473 36.4648V36.1211L104.723 35.5273L104.63 34.3242H104.802V34.1523L104.63 33.7148L104.38 33.6367V33.0273L104.552 32.5117L103.864 32.3398C103.76 32.1107 103.536 32.0273 103.192 32.0898L103.02 32.168L102.427 31.9961L102.505 31.6523C102.265 31.6315 102.041 31.6888 101.833 31.8242L101.567 31.3086H101.739V31.1367C101.406 30.793 101.265 30.3607 101.317 29.8398L100.895 29.7617L100.973 29.4961L101.661 29.418L102.083 29.5898V29.2461L101.833 28.9023L102.005 28.8086V28.4648L101.567 28.043L101.739 27.6055H101.489L101.239 27.6992L101.067 27.2617L101.145 26.918L100.895 26.8398V26.4961L101.067 26.0586L100.802 25.293L101.739 25.1992V24.5117H102.255V24.3398H102.427L102.848 24.4336V24.168H103.02V23.6523L103.536 23.8242L103.708 23.2305L103.614 23.0586H103.958L104.208 23.1367V22.9648L104.13 22.6211H104.473V22.3555L104.38 22.1836C104.89 22.4753 105.286 22.8503 105.567 23.3086V23.5742C104.89 24.3763 104.124 25.0638 103.27 25.6367H103.098V26.0586L103.536 26.3242L103.786 26.2305C104.015 26.5742 104.354 26.6888 104.802 26.5742L104.973 26.0586L105.661 25.8867L105.911 25.9805C106.14 25.4596 106.369 24.944 106.598 24.4336H106.77L107.098 24.6055V24.7773L106.598 25.0273L106.505 25.293L106.77 25.3711L107.02 25.293L107.098 26.0586L107.364 26.1523L107.786 25.9805V26.1523L107.02 26.4023V26.1523H106.848V25.6367H106.505L106.177 25.8086V26.0586L106.598 26.3242V26.4961L106.505 26.8398L106.677 27.1836L106.598 27.6055L106.333 27.7773L106.005 28.4648H105.833L105.661 28.2148H105.317V28.4648H105.489V28.9023V28.7305H105.145V29.418H104.895L104.723 30.1055H104.973V29.7617L105.739 29.668L105.911 30.0117H106.083L106.177 29.4961H106.505L106.848 29.9336H107.364L108.442 30.1836H108.614L107.786 29.0742H107.614L107.27 29.1523L107.02 28.4648H107.27L107.364 28.7305H107.958L108.036 29.0742L107.38 30.1523L108.302 29.5898H108.63L108.895 29.4961L108.723 29.5898V30.0117C108.442 29.9596 108.302 30.0482 108.302 30.2773L108.473 30.6211L108.036 30.793V30.6211L108.13 30.2773H108.614L108.536 30.6211L108.614 30.8867H108.364V31.4023H108.192L107.942 31.3086L107.677 31.4023V31.2305H107.505C107.171 31.5742 106.062 32.0013 106.177 32.5117C106.395 33.0326 106.505 33.6055 106.505 34.2305L106.427 34.5742L106.677 34.7461V35.0117L106.505 35.8711H106.333V36.1211H106.505L105.677 38.418L105.333 38.4961L105.255 38.668L104.911 38.8398ZM102.255 37.1523L100.973 36.3867L100.895 35.6992L101.145 35.2617L100.802 35.0117L100.895 34.7461L100.63 34.1523L100.802 33.3711L100.723 33.1211L101.833 33.7148C102.343 34.694 102.624 35.7565 102.677 36.9023L102.598 37.0742L102.255 37.1523ZM106.005 36.3867V35.8711H105.739V36.3867H106.005ZM105.239 35.9492V35.5273H105.067L104.723 36.1211H104.973L105.239 35.9492ZM101.395 35.6992L101.145 35.6055V35.7773L101.395 35.6992ZM101.911 35.3555L101.739 35.1836V35.3555H101.911ZM105.661 35.1836V34.8398L105.317 34.5742H105.739V34.3242L105.489 33.7148L105.567 33.3711L105.317 33.293L105.145 33.6367L104.895 33.7148V33.9805H105.145V34.3242L105.067 34.8398L105.661 35.1836ZM101.739 35.0117V34.8398L101.395 34.7461V34.918L101.739 35.0117ZM110.005 33.6367L109.661 33.3711L109.833 32.7773L109.739 32.6055H109.567V32.8555L109.145 32.6055L108.723 32.6836L108.208 31.4023H108.036V31.2305H108.473C108.473 30.9388 108.583 30.7044 108.802 30.5273L109.239 30.4492L109.317 30.6992L108.973 30.793L108.895 31.4023L109.145 31.4805L109.239 31.0586H109.489L109.661 31.5742L109.911 31.6523V31.4023L110.005 31.6523L109.911 32.2617L110.177 33.1992L110.505 33.293L110.083 33.3711L110.005 33.6367ZM105.661 33.1211V32.8555L105.833 32.5117L105.739 31.8242H105.567L105.239 32.6055V32.9492L105.661 33.1211ZM106.255 33.1211V32.8555H106.005V33.1211H106.255ZM109.739 32.3398L109.317 31.9961V32.168L109.739 32.3398ZM108.973 31.9961V31.6523L108.723 31.5742L108.63 31.8242L108.973 31.9961ZM103.958 31.8242V31.5742L103.614 31.4805V31.7461L103.958 31.8242ZM103.786 31.3086V31.0586H103.442V31.3086H103.786ZM106.177 31.1367L106.255 30.793L106.005 30.6992L105.911 31.2305L106.177 31.1367ZM102.177 31.0586V30.8867H102.005V31.0586H102.177ZM104.302 30.9648V30.793H104.13V30.9648H104.302ZM105.833 30.793V30.4492L105.911 30.1055H105.661L105.567 30.4492H105.317V30.6992L105.833 30.793ZM107.677 30.4492V30.2773H107.505V30.4492H107.677ZM108.27 30.4492V30.2773H108.098V30.4492H108.27ZM108.036 30.0117L107.864 29.8398V30.0117H108.036ZM103.442 29.5898V29.418H103.27V29.5898H103.442ZM104.473 29.4961L104.552 28.6367H104.036V28.9023H104.208V29.1523L104.13 29.418L104.473 29.4961ZM107.13 30.4961V30.3242H106.958V30.4961H107.13ZM102.677 28.9805V28.7305L102.427 28.5586V28.293L102.505 27.9492L102.005 27.8711V28.1211L102.255 28.8086L102.677 28.9805ZM104.13 28.5586V28.293H103.864V28.5586H104.13ZM105.911 27.1836L105.661 27.0898V27.2617L105.911 27.1836ZM105.833 26.918V26.7461L105.911 26.4023H105.489V26.668L105.567 26.918H105.833ZM105.395 26.4023V26.0586H105.145V26.3242L105.395 26.4023ZM101.489 25.7148V25.543L101.145 25.4648V25.6367L101.489 25.7148ZM107.614 25.543V25.3711L107.708 25.1211L107.536 24.8555L107.786 25.3711L107.614 25.543ZM102.427 25.4648C102.479 25.0586 102.395 24.8294 102.177 24.7773V24.9492L102.427 25.4648ZM103.02 25.0273V24.6836H102.77V25.0273H103.02ZM103.614 24.6055V24.3398H103.364V24.5117L103.614 24.6055ZM104.473 24.2617V23.9961H104.302L104.208 24.2617H104.473ZM104.036 23.918V23.6523H103.786V23.918H104.036ZM104.473 23.6523V23.4023H104.036L103.958 23.6523H104.473ZM104.473 23.0586V22.793H104.208V23.0586H104.473Z" fill="#483D3F"/>
<path d="M101.057 35.4464L101.517 35.3161L101.734 35.693L102.006 35.6158L103.029 35.5656C102.834 35.6755 102.612 35.7451 102.364 35.7743L102.053 35.7811L102.036 36.0458L102.224 35.9927L102.474 35.8403L102.777 36.1931L103.177 36.1771L103.879 35.7994L104.155 36.062L104.866 36.0391L105.07 35.7214C104.775 35.1555 104.474 34.6778 104.167 34.2883L103.584 34.3725C103.564 34.0858 103.43 33.9778 103.18 34.0486L103.227 34.214L102.955 34.2912L102.861 33.9605L102.929 34.408L101.355 34.7449L101.189 34.8731L101.198 35.228L101.057 35.4464Z" fill="#483D3F"/>
<path d="M115.911 38.8398L115.661 37.0742L115.395 36.6367L115.473 36.4648V36.1211L115.723 35.5273L115.63 34.3242H115.802V34.1523L115.63 33.7148L115.38 33.6367V33.0273L115.552 32.5117L114.864 32.3398C114.76 32.1107 114.536 32.0273 114.192 32.0898L114.02 32.168L113.427 31.9961L113.505 31.6523C113.265 31.6315 113.041 31.6888 112.833 31.8242L112.567 31.3086H112.739V31.1367C112.406 30.793 112.265 30.3607 112.317 29.8398L111.895 29.7617L111.973 29.4961L112.661 29.418L113.083 29.5898V29.2461L112.833 28.9023L113.005 28.8086V28.4648L112.567 28.043L112.739 27.6055H112.489L112.239 27.6992L112.067 27.2617L112.145 26.918L111.895 26.8398V26.4961L112.067 26.0586L111.802 25.293L112.739 25.1992V24.5117H113.255V24.3398H113.427L113.848 24.4336V24.168H114.02V23.6523L114.536 23.8242L114.708 23.2305L114.614 23.0586H114.958L115.208 23.1367V22.9648L115.13 22.6211H115.473V22.3555L115.38 22.1836C115.89 22.4753 116.286 22.8503 116.567 23.3086V23.5742C115.89 24.3763 115.124 25.0638 114.27 25.6367H114.098V26.0586L114.536 26.3242L114.786 26.2305C115.015 26.5742 115.354 26.6888 115.802 26.5742L115.973 26.0586L116.661 25.8867L116.911 25.9805C117.14 25.4596 117.369 24.944 117.598 24.4336H117.77L118.098 24.6055V24.7773L117.598 25.0273L117.505 25.293L117.77 25.3711L118.02 25.293L118.098 26.0586L118.364 26.1523L118.786 25.9805V26.1523L118.02 26.4023V26.1523H117.848V25.6367H117.505L117.177 25.8086V26.0586L117.598 26.3242V26.4961L117.505 26.8398L117.677 27.1836L117.598 27.6055L117.333 27.7773L117.005 28.4648H116.833L116.661 28.2148H116.317V28.4648H116.489V28.9023V28.7305H116.145V29.418H115.895L115.723 30.1055H115.973V29.7617L116.739 29.668L116.911 30.0117H117.083L117.177 29.4961H117.505L117.848 29.9336H118.364L118.442 30.1836H118.614L118.786 29.0742H118.614L118.27 29.1523L118.02 28.4648H118.27L118.364 28.7305H118.958L119.036 29.0742L119.38 29.1523L119.302 29.5898H119.63L119.895 29.4961L119.723 29.5898V30.0117C119.442 29.9596 119.302 30.0482 119.302 30.2773L119.473 30.6211L119.036 30.793V30.6211L119.13 30.2773H118.614L118.536 30.6211L118.614 30.8867H118.364V31.4023H118.192L117.942 31.3086L117.677 31.4023V31.2305H117.505C117.171 31.5742 117.062 32.0013 117.177 32.5117C117.395 33.0326 117.505 33.6055 117.505 34.2305L117.427 34.5742L117.677 34.7461V35.0117L117.505 35.8711H117.333V36.1211H117.505L117.677 38.418L117.333 38.4961L117.255 38.668L115.911 38.8398ZM120.911 37.668V37.2461L120.489 37.1523V36.9023L120.833 36.8086L121.177 36.9023V36.3867H121.427L121.505 37.2461L121.427 37.418L121.083 37.4961L120.911 37.668ZM120.067 36.9805V36.8086L120.145 36.5586L119.723 36.3867L119.63 36.043L119.802 35.3555L119.473 35.1836L119.302 32.5742L119.552 32.3242C120.177 32.4388 120.718 32.5794 121.177 32.7461L121.255 35.2617C121.536 35.2096 121.677 35.2982 121.677 35.5273H121.505V35.7773H121.848L121.005 35.8711V35.6992H120.395C120.229 35.9805 120.177 36.293 120.239 36.6367L120.317 36.9023L120.067 36.9805ZM117.005 36.3867V35.8711H116.739V36.3867H117.005ZM116.239 35.9492V35.5273H116.067L115.723 36.1211H115.973L116.239 35.9492ZM120.661 35.5273V35.1836H120.489L120.395 35.4336L120.661 35.5273ZM116.661 35.1836V34.8398L116.317 34.5742H116.739V34.3242L116.489 33.7148L116.567 33.3711L116.317 33.293L116.145 33.6367L115.895 33.7148V33.9805H116.145L117.145 34.3242L117.067 34.8398L116.661 35.1836ZM121.005 33.6367L120.661 33.3711L120.833 32.7773L120.739 32.6055H120.567V32.8555L120.145 32.6055L119.723 32.6836L119.208 31.4023H119.036V31.2305H119.473C119.473 30.9388 119.583 30.7044 119.802 30.5273L120.239 30.4492L120.317 30.6992L119.973 30.793L119.895 31.4023L120.145 31.4805L120.239 31.0586H120.489L120.661 31.5742L120.911 31.6523V31.4023L121.005 31.6523L120.911 32.2617L121.177 33.1992L121.505 33.293L121.083 33.3711L121.005 33.6367ZM116.661 33.1211V32.8555L116.833 32.5117L116.739 31.8242H116.567L116.239 32.6055V32.9492L116.661 33.1211ZM117.255 33.1211V32.8555H117.005V33.1211H117.255ZM120.739 32.3398L120.317 31.9961V32.168L120.739 32.3398ZM119.973 31.9961V31.6523L119.723 31.5742L119.63 31.8242L119.973 31.9961ZM114.958 31.8242V31.5742L114.614 31.4805V31.7461L114.958 31.8242ZM114.786 31.3086V31.0586H114.442V31.3086H114.786ZM117.177 31.1367L117.255 30.793L117.005 30.6992L116.911 31.2305L117.177 31.1367ZM113.177 31.0586V30.8867H113.005V31.0586H113.177ZM115.302 30.9648V30.793H115.13V30.9648H115.302ZM116.833 30.793V30.4492L116.911 30.1055H116.661L116.567 30.4492H116.317V30.6992L116.833 30.793ZM117.677 30.4492V30.2773H117.505V30.4492H117.677ZM118.27 30.4492V30.2773H118.098V30.4492H118.27ZM119.036 30.0117L118.864 29.8398V30.0117H119.036ZM114.442 29.5898V29.418H114.27V29.5898H114.442ZM115.473 29.4961L115.552 28.6367H115.036V28.9023H115.208V29.1523L115.13 29.418L115.473 29.4961ZM119.13 29.4961V29.3242H118.958V29.4961H119.13ZM113.677 28.9805V28.7305L113.427 28.5586V28.293L113.505 27.9492L113.005 27.8711V28.1211L113.255 28.8086L113.677 28.9805ZM115.13 28.5586V28.293H114.864V28.5586H115.13ZM116.911 27.1836L116.661 27.0898V27.2617L116.911 27.1836ZM116.833 26.918V26.7461L116.911 26.4023H116.489V26.668L116.567 26.918H116.833ZM116.395 26.4023V26.0586H116.145V26.3242L116.395 26.4023ZM112.489 25.7148V25.543L112.145 25.4648V25.6367L112.489 25.7148ZM118.614 25.543V25.3711L118.708 25.1211L118.536 24.8555L118.786 25.3711L118.614 25.543ZM113.427 25.4648C113.479 25.0586 113.395 24.8294 113.177 24.7773V24.9492L113.427 25.4648ZM114.02 25.0273V24.6836H113.77V25.0273H114.02ZM114.614 24.6055V24.3398H114.364V24.5117L114.614 24.6055ZM115.473 24.2617V23.9961H115.302L115.208 24.2617H115.473ZM115.036 23.918V23.6523H114.786V23.918H115.036ZM115.473 23.6523V23.4023H115.036L114.958 23.6523H115.473ZM115.473 23.0586V22.793H115.208V23.0586H115.473Z" fill="#483D3F"/>
<path d="M117.597 35.1685L116.958 36.5176L117.069 36.8522L117.248 36.9134C118.383 36.7512 119.414 36.3689 120.339 35.7665L120.823 34.605L120.582 34.7069L119.788 34.6111L119.222 34.9327L118.949 34.865L118.733 35.2312L118.274 35.0245L117.597 35.1685Z" fill="#483D3F"/>
<path d="M64.2805 33.5586L64.0695 32.9609L64.843 32.7852V32.3984L64.0695 32.1875V31.625L63.3312 31.0273L64.0695 30.2539V29.8672L63.6828 29.4805H64.4562V28.918L62.9445 28.5312L63.507 25.8242L62.9445 25.4375C62.5695 24.2656 61.9367 23.1641 61.0461 22.1328C60.4133 21.6172 59.7219 21.418 58.9719 21.5352L58.1984 23.1172L58.0226 23.6797C58.6555 24.1953 58.843 24.8398 58.5851 25.6133L58.0226 26.3867L58.5851 27.9336L58.3742 28.3203H57.425V28.707L58.0226 29.8672H57.425L56.6867 29.6914L55.5617 30.0781L54.9641 29.8672L53.8391 30.2539V29.0938L53.6633 28.5312L54.4016 28.3203C54.2844 27.5469 54.4719 26.9727 54.9641 26.5977L55.7375 26.3867V25.8242L54.2258 25.4375L54.0148 23.8906L53.4523 23.6797L53.2766 23.1172L53.6633 22.5195V23.5039L54.6125 23.8906V23.5039H55.175V23.8906H55.5617L56.6867 23.5039V22.9062H54.9641V21.9219L55.175 20.7617H54.7883L51.9406 22.5195L51.7648 21.9219H51.2023L50.8156 23.6797H49.6906L49.4797 24.4531L48.9172 25.0508L48.3547 25.2266L48.1437 25.6133L47.4055 25.8242L47.0187 26.2109V25.8242L47.1945 25.0508H46.632V25.8242H45.8937V25.4375L46.0695 24.8398H45.507L44.9445 25.4375V24.6641L44.7336 23.6797C45.2492 23.1641 45.882 22.8359 46.632 22.6953L46.843 21.5352L47.0187 20.9727H47.4055V20.5859L49.4797 20.375C49.2219 19.2266 49.5383 18.582 50.4289 18.4414L51.7648 18.8281V18.4414L50.9914 17.668H51.5539V17.2812H52.1516L53.1008 17.668V17.1055L52.8898 16.7188C53.5226 16.8359 53.8391 16.6367 53.8391 16.1211L53.6633 15.3477L53.8391 14.7852H53.1008V14.3984L53.2766 13.4141L52.5031 13.0273L51.2023 13.2383C49.3039 12.8398 47.4055 12.3242 45.507 11.6914V11.3047L47.4055 10.918L47.5812 10.5312C48.4016 10.7422 49.2219 10.7422 50.0422 10.5312L50.8156 10.918L51.5539 10.707L52.1516 10.918L53.4523 10.5312L54.0148 11.0938L54.4016 9.75781L54.2258 8.38672L54.0148 7.61328L54.6125 5.67969L53.8391 4.90625V4.13281C54.7297 4.25 55.4914 4.12109 56.1242 3.74609L56.3 4.30859L56.1242 4.90625C56.6164 5.5625 57.2492 5.76172 58.0226 5.50391L58.3742 5.29297V5.67969L58.0226 6.66406L58.1984 7.22656L57.0734 7.61328V8.21094H57.8117V9.37109L58.3742 9.75781L58.1984 10.1445H57.8117V10.707L58.1984 11.4805H58.5851L58.7609 11.0938H59.1476C59.7805 11.4922 60.5422 11.6211 61.4328 11.4805V12.0781L62.7336 11.3047L63.1203 12.0781L62.382 12.2539V12.8516H62.9445L63.8937 12.2539L64.4562 10.5312H63.6828L63.1203 10.707L63.8937 10.5312V10.1445L65.0187 9.93359L65.4055 8.59766L64.4562 8L65.1945 8.21094C65.7101 7.55469 66.4133 7.35547 67.3039 7.61328L68.6047 8.21094L70.1516 7.61328L69.5539 7.82422V8.38672L69.9406 9.37109L69.7648 9.93359L68.8156 10.3203L68.6047 12.0781L68.2531 11.3047L67.6906 9.93359H66.7414V10.3203L65.5812 10.707L65.0187 10.5312V11.0938L65.1945 12.2539H66.3547V13.0273L66.9172 13.2383V13.625H67.6906L68.0422 12.8516L68.8156 13.2383L69.2023 13.8008C71.7101 13.6836 73.9836 13.9414 76.0226 14.5742L76.7609 14.1875C77.1359 12.7812 77.5812 11.4336 78.0969 10.1445L76.1984 9.75781L75.425 9.93359L75.0734 9.37109H74.5109L73.7375 9.93359L72.9641 9.75781L72.2258 9.93359V9.37109H71.8391L70.8898 9.75781L70.7141 8.59766L70.8898 8L72.0148 8.38672L72.9641 8L73.175 7.4375H73.5617L75.0734 7.82422V7.4375L76.7609 8.21094L77.3234 7.05078L78.2726 6.83984L79.0461 7.4375L79.2219 8L79.7844 8.21094L79.9953 7.61328H80.7336L80.9445 7.05078H81.3312L82.0695 7.22656L82.843 6.66406L83.0187 7.22656L82.4562 7.4375L82.0695 8.38672L82.2805 9.75781C81.132 11.1641 80.7453 12.8398 81.1203 14.7852L81.507 18.4414L81.3312 18.8281L80.5578 18.6523V19.0391L80.7336 19.6016L81.507 19.8125L81.6828 20.9727L81.3312 21.7461L82.0695 21.5352V22.5195C81.5773 23.0352 81.3898 23.6797 81.507 24.4531L81.8937 25.0508L81.6828 26.2109C82.3156 26.9844 82.7023 27.8867 82.843 28.918L81.8937 30.8516L81.6828 30.0781L81.8937 29.4805H81.1203L80.9445 30.6406L80.382 30.8516V31.4141H79.4328V32.0117H78.6594C77.7687 31.4961 76.8195 31.2383 75.8117 31.2383L74.8625 31.625C73.7375 30.5938 72.4836 29.8789 71.1008 29.4805L70.8898 28.707H70.5031L70.3273 29.3047L70.5031 30.2539H71.2766L71.6633 31.0273L70.1516 30.8516L69.7648 30.2539H68.9914L68.4289 30.4648L67.6906 31.625L67.8664 32.1875C67.1164 32.4453 66.3547 32.7031 65.5812 32.9609L65.4055 33.3477L64.2805 33.5586ZM67.3039 31.625L66.5305 31.2383V31.8008L67.3039 31.625ZM54.6125 29.6914L54.2258 29.3047V29.6914H54.6125ZM56.5109 29.0938L56.6867 28.5312H55.9133V28.918L56.5109 29.0938ZM78.2726 28.5312V28.1445L77.3234 27.7578L77.9211 27.3711L78.0969 26.2109L77.1476 24.2773H76.1984V23.293L76.3742 22.5195H75.8117L75.425 23.1172L73.5617 23.293V23.6797C73.5617 23.0234 73.3039 22.6367 72.7883 22.5195L71.6633 22.9062L71.2766 22.6953L70.7141 21.5352L69.9406 21.3594V21.7461L70.3273 21.9219L69.7648 22.1328L68.9914 23.1172L68.8156 23.6797L68.2531 22.6953H67.6906L67.4797 24.2773L67.6906 24.8398L68.0422 25.2266C67.6672 25.4844 67.55 25.8711 67.6906 26.3867L67.3039 26.9844L71.8391 27.5469L72.4016 27.3711L72.7883 28.1445L73.3508 28.3203L75.8117 27.9336C76.5851 28.332 77.4055 28.5312 78.2726 28.5312ZM70.7141 28.3203V27.9336H70.3273V28.3203H70.7141ZM58.3742 27.5469L57.8117 27.3711L57.6359 27.9336H58.3742V27.5469ZM55.3508 25.0508V24.0664L55.175 23.6797H54.7883V24.4531L54.6125 25.0508H55.3508ZM48.5305 23.5039L48.7414 22.9062L47.968 22.5195V23.293L48.5305 23.5039ZM50.8156 23.5039V21.3594H50.4289L50.0422 22.1328L50.2531 22.6953H49.4797V23.293L50.8156 23.5039ZM61.9953 22.3086L62.1711 21.3594H61.4328V22.1328L61.9953 22.3086ZM74.5109 22.3086L73.7375 21.7461V22.1328L74.5109 22.3086ZM52.7141 22.1328V21.5352H52.1516V22.1328H52.7141ZM73.3508 21.7461V21.1484H72.9641V21.7461H73.3508ZM53.1008 21.1484L53.2766 20.7617L53.6633 20.1992L54.7883 19.9883V19.4258L54.0148 19.0391L53.2766 19.4258V18.6523H52.5031V19.0391L52.7141 19.9883L52.5031 20.375L51.5539 19.9883L51.3781 20.9727L50.9914 21.5352L51.7648 21.7461L53.1008 21.1484ZM58.9719 21.1484V20.7617H58.5851V21.1484H58.9719ZM49.6906 20.9727L48.9172 20.5859V21.1484L49.6906 20.9727ZM64.843 20.7617L63.8937 20.1992V20.7617H64.843ZM71.2766 20.7617L70.7141 20.5859V20.9727L71.2766 20.7617ZM56.6867 20.7617V20.1992H55.9133V20.7617H56.6867ZM60.4836 20.7617V19.9883H59.9211V20.7617H60.4836ZM74.3 20.7617L77.7101 20.375V19.9883L77.1476 19.0391L77.3234 17.2812L75.6359 17.4922L73.9133 16.7188L72.9641 16.1211V17.1055C72.3312 16.332 71.5812 16.0039 70.7141 16.1211L69.5539 17.4922L69.7648 17.8789L68.0422 17.1055L67.3039 17.8789H68.4289V18.2656H67.6906V18.8281L68.6047 19.2148L68.9914 19.8125C70.7726 19.9297 72.5422 20.2461 74.3 20.7617ZM50.9914 20.1992L50.6047 19.8125V20.1992H50.9914ZM58.7609 20.375V19.9883L58.1984 19.8125V20.1992L58.7609 20.375ZM63.1203 20.1992V19.6016L62.9445 19.0391L63.3312 18.0547L62.7336 17.8789L62.5578 16.5078L62.9445 16.332L63.1203 16.8945H63.507L64.0695 15.7344L63.3312 15.3477L62.5578 15.1719L63.6828 14.7852C63.5656 14.1289 63.7648 13.8008 64.2805 13.8008L65.1945 14.0117L65.968 13.2383C65.3351 12.7227 64.6437 12.4648 63.8937 12.4648V13.0273L62.7336 13.625L62.5578 14.3984L61.7844 13.625V12.8516L60.8351 13.8008L60.2726 13.0273L59.7101 12.8516V13.625H58.5851L58.1984 16.1211L59.9211 17.8789V18.2656L63.1203 20.1992ZM64.632 19.8125L64.0695 19.4258V19.9883L64.632 19.8125ZM50.6047 19.6016L50.4289 18.8281H49.8664V19.8125L50.6047 19.9883V19.6016ZM67.093 19.8125V19.2148L67.3039 18.4414H66.9172L66.5305 19.8125H67.093ZM55.3508 18.2656L54.7883 17.668L54.6125 18.4414L55.3508 18.2656ZM65.5812 17.4922V17.1055L65.0187 16.8945V17.2812L65.5812 17.4922ZM69.9406 16.332V15.7344H69.3781V16.332H69.9406ZM57.8117 14.1875L56.8625 13.625V14.0117L57.8117 14.1875ZM67.093 12.0781L66.9172 11.4805H67.3039L67.093 12.0781ZM80.9445 12.0781V11.4805H80.382V12.0781H80.9445ZM67.093 9.93359V9.16016L65.968 10.1445L66.7414 10.3203L67.093 9.93359ZM72.7883 9.37109L72.4016 8.98438V9.37109H72.7883ZM74.1242 9.16016V8.77344L73.7375 8H73.175V8.59766L74.1242 9.16016ZM77.9211 7.82422L78.0969 7.22656H77.7101L77.3234 8L77.9211 7.82422ZM58.0226 7.22656V6.66406H57.425V7.22656H58.0226Z" fill="#483D3F"/>
<path d="M4.96484 31.0977V30.7109L5.52734 27.6172L5.14062 26.668L2.89062 25.5078L2.67969 24.9102L5.52734 23.3984L6.30078 23.7852L6.86328 21.8516H5.91406V20.6914L6.30078 19.918C6.41797 18.5117 6.10156 17.293 5.35156 16.2617C3.71094 16.4023 2.25781 16.0859 0.992188 15.3125L0.78125 14.5391L1.34375 13.168H4.75391L5.52734 13.3789L6.08984 11.832L5.70312 8.94922L7.21484 7.78906C8.10547 9.59375 8.55078 11.5859 8.55078 13.7656L9.11328 13.9414L10.4492 13.3789L10.625 14.1523H11.0117L11.3984 13.3789L12.1719 13.168L11.7852 12.043L11.9609 11.4453H10.8359C11.2812 9.80469 11.4688 8.14062 11.3984 6.45312H12.3477L12.7344 5.29297L13.4727 6.83984H12.9102V7.40234L14.0352 7.61328V8.38672L14.6328 8.5625V9.125L14.0352 9.51172V10.1094L14.8086 14.5391H15.1953L15.9336 14.1523L16.3203 14.9258L16.1445 15.875L16.707 17.2109L16.5312 17.5977H16.1445L15.582 17.4219C14.4336 18.0547 13.9883 19.0156 14.2461 20.3047L14.4219 22.2383H16.5312V23.0117L15.1953 23.3984L14.8086 25.1211L14.9844 26.0703L14.6328 27.0547L14.8086 27.8281L14.6328 28.6016L14.8086 29.1641L14.4219 29.3398V29.9375L14.8086 30.7109L13.8594 31.0977L12.1719 30.7109L11.2227 30.8867L10.8359 30.7109V30.1133C11.3281 29.2227 11.5156 28.2617 11.3984 27.2305L11.0117 26.457H8.55078C8.17578 27.8867 7.73047 29.3047 7.21484 30.7109L6.08984 30.8867L5.52734 30.7109L4.96484 31.0977ZM10.2734 23.3984C10.9062 23.1406 11.5391 22.8828 12.1719 22.625L12.3477 21.8516L11.7852 20.6914L11.2227 19.7422L11.3984 17.5977H9.11328C8.94922 19.2852 8.76172 20.9609 8.55078 22.625L10.2734 23.3984ZM15.9336 16.8594V16.4727L15.582 16.8594H15.9336ZM10.8359 15.6992V15.1016H10.2734V15.6992H10.8359ZM5.91406 13.9414L5.52734 13.5547L5.35156 14.1523L5.91406 13.9414ZM13.1211 11.4453L12.5234 11.2695V11.6562L13.1211 11.4453ZM14.6328 6.45312L14.4219 5.67969L15.3711 5.46875V6.45312H14.6328Z" fill="#483D3F"/>
</svg>
