<svg width="192" height="39" viewBox="0 0 192 39" fill="none" xmlns="http://www.w3.org/2000/svg">
<path d="M4.42773 31.4023V31.0156L4.99023 27.9219L4.60352 26.9727L2.35352 25.8125L2.14258 25.2148L4.99023 23.7031L5.76367 24.0898L6.32617 22.1562H5.37695V20.9961L5.76367 20.2227C5.88086 18.8164 5.56445 17.5977 4.81445 16.5664C3.17383 16.707 1.7207 16.3906 0.455078 15.6172L0.244141 14.8438L0.806641 13.4727H4.2168L4.99023 13.6836L5.55273 12.1367L5.16602 9.25391L6.67773 8.09375C7.56836 9.89844 8.01367 11.8906 8.01367 14.0703L8.57617 14.2461L9.91211 13.6836L10.0879 14.457H10.4746L10.8613 13.6836L11.6348 13.4727L11.248 12.3477L11.4238 11.75H10.2988C10.7441 10.1094 10.9316 8.44531 10.8613 6.75781H11.8105L12.1973 5.59766L12.9355 7.14453H12.373V7.70703L13.498 7.91797V8.69141L14.0957 8.86719V9.42969L13.498 9.81641V10.4141L14.2715 14.8438H14.6582L15.3965 14.457L15.7832 15.2305L15.6074 16.1797L16.1699 17.5156L15.9941 17.9023H15.6074L15.0449 17.7266C13.8965 18.3594 13.4512 19.3203 13.709 20.6094L13.8848 22.543H15.9941V23.3164L14.6582 23.7031L14.2715 25.4258L14.4473 26.375L14.0957 27.3594L14.2715 28.1328L14.0957 28.9062L14.2715 29.4688L13.8848 29.6445V30.2422L14.2715 31.0156L13.3223 31.4023L11.6348 31.0156L10.6855 31.1914L10.2988 31.0156V30.418C10.791 29.5273 10.9785 28.5664 10.8613 27.5352L10.4746 26.7617H8.01367C7.63867 28.1914 7.19336 29.6094 6.67773 31.0156L5.55273 31.1914L4.99023 31.0156L4.42773 31.4023ZM9.73633 23.7031C10.3691 23.4453 11.002 23.1875 11.6348 22.9297L11.8105 22.1562L11.248 20.9961L10.6855 20.0469L10.8613 17.9023H8.57617C8.41211 19.5898 8.22461 21.2656 8.01367 22.9297L9.73633 23.7031ZM15.3965 17.1641V16.7773L15.0449 17.1641H15.3965ZM10.2988 16.0039V15.4062H9.73633V16.0039H10.2988ZM5.37695 14.2461L4.99023 13.8594L4.81445 14.457L5.37695 14.2461ZM12.584 11.75L11.9863 11.5742V11.9609L12.584 11.75ZM14.0957 6.75781L13.8848 5.98438L14.834 5.77344V6.75781H14.0957Z" fill="#483D3F"/>
<path d="M54.1851 34.6367L53.2359 34.4258L52.0757 33.0898H51.5132L50.7398 34.0391L50.1421 32.7031L49.5796 32.4922L48.6304 33.8633H47.646L47.0835 33.6523L45.9234 33.8633L45.3609 33.6523C44.7046 34.0508 43.9898 34.1797 43.2163 34.0391L41.8804 33.8633V33.4766L42.4429 33.2656L42.6538 32.7031H42.2671L41.6695 32.8789V32.4922L41.8804 31.7188L41.6695 30.9453H42.2671L43.4273 31.1562V30.5586H42.8296V30.1719H41.8804V29.7852L42.0562 29.2227L43.0406 29.6094L43.2163 30.3828H43.814V29.3984L43.0406 29.0117V28.625H43.4273L44.9742 29.0117V28.625L43.4273 28.0625L42.4429 26.9023L43.2163 26.6914V26.3047H43.6031L43.814 24.3711L43.0406 24.1953V23.8086L44.7632 23.4219L44.2007 24.9688H44.5874L45.1499 23.8086C46.5562 23.4102 47.9742 23.082 49.4038 22.8242V22.4375L48.2437 22.0508L47.857 21.0664H47.4702V20.5039L47.646 19.9062L47.2593 18.957L46.6968 18.7461L46.0992 18.957L43.6031 17.7969L43.0406 16.8125L45.3609 16.25V16.6367H45.9234L47.2593 15.2656H47.857L48.2437 16.25H48.8062V15.4766L48.6304 14.3164H48.0327L48.2437 13.543L47.4702 12.9453V12.5586C45.8062 12.5586 44.2593 12.2422 42.8296 11.6094V11.2227C44.7515 10.707 46.6851 10.25 48.6304 9.85156L51.3023 10.625V10.2383H51.689L52.2867 10.4492L53.0601 10.2383L54.0093 10.8359L54.9585 10.625L55.9429 10.8359L57.4898 10.4492L58.439 11.7852L58.6148 11.3984L58.8257 11.7852L58.0523 12.7695H57.2788L55.9429 12.1719L54.396 12.5586L53.4468 12.1719L51.1265 12.9453V12.3828H50.5288L49.5796 12.7695V13.1562L51.1265 14.4922L51.5132 14.3164C51.3726 15.207 51.5601 15.9805 52.0757 16.6367H52.6734L53.2359 16.4258L53.7984 16.6367L54.9585 16.4258L55.9429 17.1992V18.3594L54.7827 18.5703L53.7984 19.1328L53.2359 21.6641L51.8999 21.8398V22.2266H51.5132V22.8242L50.7398 23V22.4375H50.3531L49.5796 23.2109H48.2437L47.646 23.5977L48.4195 24.1953L49.5796 23.9844L50.3531 24.1953L50.7398 24.3711L51.3023 24.1953V24.9688H51.689L53.4468 24.1953L56.3296 24.9688L56.5054 25.5312L55.9429 26.1289V26.5156L56.7163 27.8516L55.9429 27.6758V28.0625L56.7163 28.625C56.4585 29.6562 56.7163 30.3711 57.4898 30.7695L57.8413 31.9297L57.2788 33.0898H56.7163L56.5054 33.6523L54.1851 34.6367ZM27.6421 34.0391L26.6577 33.4766C28.9781 31.9297 31.4859 30.7695 34.1812 29.9961L34.357 30.9453L29.3648 32.8789L28.9781 32.7031L28.4156 33.6523L27.6421 34.0391ZM48.6304 33.2656L48.0327 33.0898V33.6523H48.6304V33.2656ZM43.4273 32.7031V31.9297H42.4429V32.7031H43.4273ZM48.8062 32.7031V31.9297H48.4195L48.0327 32.7031H48.8062ZM48.8062 31.1562L49.4038 30.9453L51.1265 31.332L53.2359 30.1719L53.6226 26.9023L52.4624 26.5156L50.1421 26.1289V26.6914H49.5796L48.6304 26.5156L47.2593 27.2891L47.0835 26.9023H46.6968L46.3101 27.6758L46.4859 28.4492H46.8726L47.2593 27.8516H48.4195L47.2593 28.8359L46.8726 29.7852H47.4702V30.3828L46.4859 30.1719V31.1562H47.4702L48.2437 30.9453V30.5586L48.8062 31.1562ZM44.7632 30.5586L46.4859 29.7852L46.6968 28.8359H46.3101L45.7124 29.6094L45.3609 29.9961L43.814 30.1719V30.5586H44.7632ZM45.5367 29.6094V28.8359L45.7124 28.2383L44.9742 29.6094H45.5367ZM56.5054 29.3984V28.8359H55.9429V29.3984H56.5054ZM45.9234 28.0625V27.4648L44.7632 26.5156L44.2007 28.0625H45.9234ZM43.9898 27.2891V26.9023H43.6031V27.2891H43.9898ZM46.3101 26.6914V26.3047L46.8726 24.582H46.4859V24.9688H46.0992L45.7124 26.6914H46.3101ZM42.6538 25.1445L42.8296 24.7578L43.0406 25.1445H42.6538ZM51.8999 21.6641V21.0664H51.5132V21.6641H51.8999ZM29.5757 21.2773L26.6577 19.9062V19.5195L30.1382 17.9727L30.9117 17.7969L33.021 18.1836V18.5703L33.9702 18.7461V20.1172L32.6343 20.5039L30.9117 21.2773L29.9273 20.8906L29.5757 21.2773ZM32.6343 19.1328L32.8452 18.5703L32.2476 18.3594L32.0718 19.3438L32.6343 19.1328ZM44.9742 18.1836V17.5859H44.3765V18.1836H44.9742ZM47.0835 17.1992L47.4702 15.8633L46.8726 15.6523L46.4859 17.4102L47.0835 17.1992ZM49.7554 16.25V15.6523L49.4038 16.25H49.7554ZM51.3023 15.4766V14.8789L50.1421 14.7031V15.4766H51.3023ZM33.6187 14.1055L32.8452 13.9297L32.6343 13.332C31.8609 13.4727 31.2163 13.3438 30.7007 12.9453L30.5249 12.3828L29.5757 12.1719V11.7852H29.189L28.5913 11.9961L28.0288 11.0117C28.8023 10.2383 29.7632 9.59375 30.9117 9.07812H32.2476L32.4585 9.67578L34.7437 10.2383L35.5171 11.2227L36.2906 10.625V11.0117L35.7281 12.5586H36.5015V12.9453L34.9546 13.332L34.5679 14.1055H33.6187ZM49.7554 12.5586L48.8062 11.7852L48.6304 12.5586H49.7554Z" fill="#483D3F"/>
<path d="M69.5244 36.6055L68.1885 36.2188L67.9776 35.6211H68.751L69.5244 35.832V35.4453H70.4737L70.6494 34.4609H70.2627L68.5752 34.8477L67.626 34.6719V34.0742H67.2393L68.751 33.5117V32.9492L70.4737 32.7383L71.5987 33.125L71.8096 32.5625L75.2198 31.9648L76.3799 32.1758L77.3291 31.7891L77.5049 28.9062L76.7666 28.5195V27.7461H76.3799L75.9932 28.9062H74.4815L73.708 28.5195L72.3721 28.6953L71.5987 28.5195L70.0869 28.9062L69.1377 28.3086V27.9219L67.0284 27.3594L66.8526 26.7617L67.626 26.9727L67.9776 26.7617L68.9268 27.3594V26.1992H70.8604L71.5987 26.5859V26.1992H72.3721V26.5859H72.7588L74.0948 25.8125V26.1992H74.6573L75.4307 25.9883L76.169 26.1992L77.3291 24.8633L76.9424 23.7031L76.169 23.4922V22.9297H75.7823L75.044 23.4922V24.2656H74.2705L73.4971 23.7031V23.3164H72.3721L72.1963 24.0898H71.4229L70.8604 23.8789L70.0869 24.0898V23.7031L70.6494 22.543L69.3135 22.332L68.751 21.207L69.9112 20.6094V20.2227L69.1377 19.8359V20.2227L68.9268 18.1133L69.1377 17.1641L68.751 16.3906H69.1377V14.0703L69.3135 13.6836L69.1377 11.5742L70.4737 10.9766V10.4141L71.2119 10.2031L71.4229 10.8008L72.1963 10.9766L73.708 10.8008L74.2705 10.9766L76.7666 10.8008L77.1182 8.86719L76.5557 8.48047L75.9932 7.53125L74.833 7.14453L74.6573 7.70703L73.8838 7.91797L72.5479 7.53125L71.4229 7.91797L70.8604 7.70703L70.2627 8.09375V7.32031H69.7002L69.5244 7.91797L68.3643 8.09375L68.1885 7.14453H67.626V7.70703H67.2393V7.14453H66.8526V6.16016L67.0284 5.77344L68.1885 5.59766L68.751 5.77344L69.7002 5.59766L70.8604 5.77344L73.1455 5.03516V5.59766H73.708V5.03516H74.2705L75.4307 5.21094L77.1182 4.05078L77.3291 3.48828L76.169 3.27734V2.71484L76.7666 1.73047C78.0323 1.98828 79.1104 2.31641 80.001 2.71484V2.32812H80.5635L79.7901 2.71484L79.6143 3.48828L80.001 4.26172L81.126 4.4375L82.0752 4.05078V4.64844H82.6729L82.8487 3.875H83.2354V4.64844H83.7979L83.9737 4.05078H84.3604L85.1338 3.66406V4.64844H85.5205L84.958 6.16016L84.1846 6.54688L83.9737 5.77344L83.2354 6.54688H81.8994L80.9502 7.70703L81.126 8.30469L80.9502 10.0273L79.6143 10.2031V10.8008H80.001L83.4112 10.4141L85.1338 11.5742V13.1211H85.5205L85.6963 14.6328H84.958V15.2305L86.083 15.4062V16.0039L85.5205 16.3906V16.9531L86.2588 17.3398V16.3906L87.8057 17.1641L88.3682 18.1133L89.5284 18.2891V17.1641L90.8643 16.7773V17.1641C91.8721 16.7656 92.8213 16.5078 93.7119 16.3906L93.8877 15.2305L93.501 14.2461L92.5518 13.8594V13.4727C93.2784 13.4023 93.9112 13.6016 94.4502 14.0703L95.0479 13.2969L95.4346 13.8594H94.4502L94.2744 15.0195L94.8369 15.2305L95.4346 14.6328C95.5518 15.6641 95.8682 16.5078 96.3838 17.1641L96.7354 16.9531V17.5156H97.7198L97.8955 18.1133L98.8448 18.2891L99.0205 17.5156L98.669 16.7773L99.794 17.1641L101.13 16.7773V18.1133L100.743 19.4492L101.13 20.8203H100.743V21.3828H101.341C101.786 23.3516 101.786 25.3438 101.341 27.3594L101.903 29.082L101.341 31.0156L101.692 32.3516H100.954L100.743 32.9492L100.954 33.6875L99.6182 34.0742L99.0205 34.2852L98.8448 33.125L99.0205 32.5625L98.669 31.1914L99.4073 27.3594L99.0205 25.4258L99.2315 24.6523L98.458 21.207V20.6094H97.7198L96.3838 21.207V21.7695H95.4346V22.332L95.6104 24.2656L94.2744 24.6523L94.0987 25.8125H94.6612L94.8369 25.0391H95.7862V25.6016L95.4346 27.1484L94.6612 27.3594L94.4502 28.3086H93.8877V29.082H93.501L92.9385 28.9062L92.5518 29.6445H93.3252V30.0312C93.958 29.9141 94.2744 30.1133 94.2744 30.6289L93.501 31.0156L93.1494 31.5781C92.6338 31.9766 92.0596 32.1055 91.4268 31.9648L89.7041 31.4023L89.5284 30.0312L90.0909 29.8555V28.6953H90.6534C90.6534 27.8047 90.7823 27.0312 91.0401 26.375L91.4268 26.5859L91.6026 25.6016L91.9893 25.4258V24.4766L91.4268 23.3164L91.6026 22.543H91.2159V22.1562L91.6026 20.8203L90.0909 20.6094V20.2227H89.3174L88.7549 19.6602L88.5791 20.2227H87.0323L86.2588 19.8359C85.3916 20.2344 84.5713 20.6914 83.7979 21.207V21.7695L84.5713 22.1562L84.7471 22.7188H84.3604L83.9737 22.543L82.6729 23.3164V23.7031H81.5127V24.0898H80.9502L80.7393 24.8633L80.3877 25.2148L80.5635 25.9883H81.3369L81.8994 25.8125L82.8487 26.1992L83.2354 27.3594L83.9737 27.7461V29.082H83.2354L82.8487 28.5195H82.2862V29.2578H81.8994L81.126 28.9062L80.9502 30.0312L80.5635 30.2422V30.6289C81.0791 31.0039 81.2666 31.5781 81.126 32.3516H81.6885L81.8994 33.6875C80.751 33.6875 79.9893 34.0742 79.6143 34.8477H80.1768L80.9502 34.4609L81.126 35.0586C79.6026 35.3164 78.1494 35.6328 76.7666 36.0078L75.2198 35.4453L74.833 35.832L73.3213 35.2344V36.2188L71.5987 36.3945L71.0362 36.2188C70.6612 36.5938 70.1573 36.7227 69.5244 36.6055ZM74.0948 34.6719V34.2852L72.9346 33.8984V34.8477H73.4971L74.0948 34.6719ZM77.1182 33.8984V33.3008L76.5557 33.8984H77.1182ZM74.833 33.6875V33.125H75.2198V32.5625H74.833L74.2705 33.6875H74.833ZM76.5557 32.7383V32.3516H76.169V32.7383H76.5557ZM80.5635 32.1758L80.1768 31.7891L80.001 32.3516L80.5635 32.1758ZM80.1768 30.2422V29.6445H79.6143V30.2422H80.1768ZM84.7471 28.3086L84.5713 27.7461L84.7471 27.1484H83.9737V26.7617L84.7471 26.5859V28.3086ZM72.3721 28.1328V27.7461L71.8096 27.5352V28.1328H72.3721ZM71.0362 27.7461V27.3594H70.6494V27.7461H71.0362ZM73.8838 27.5352L74.2705 26.1992H73.8838L73.3213 27.7461L73.8838 27.5352ZM70.0869 27.3594V26.9727H69.7002V27.3594H70.0869ZM93.501 23.4922L93.1494 23.3164V23.7031L93.501 23.4922ZM80.9502 21.5586L81.5127 21.3828V21.7695H82.0752L83.2354 21.3828V20.8203L82.8487 17.7266H82.0752V17.3398H81.5127L81.3369 17.9023L80.7393 18.2891L80.5635 19.8359L79.6143 20.2227L79.4034 20.8203H79.7901L80.3877 20.6094L80.5635 20.9961L79.6143 22.1562H80.001L80.9502 21.5586ZM76.7666 20.9961C76.7666 19.5898 76.6377 18.3125 76.3799 17.1641H75.7823L75.4307 17.5156L73.1455 17.1641L72.7588 19.0625H72.1963V19.6602H72.9346V20.2227L72.7588 20.9961L74.4815 21.207L75.4307 20.9961H76.7666ZM77.7159 21.207V20.8203L77.5049 20.0469H76.9424V20.6094L77.1182 21.207H77.7159ZM79.0518 20.4336V20.0469H78.6651V20.4336H79.0518ZM71.0362 20.2227V19.6602H70.6494L70.4737 20.4336L71.0362 20.2227ZM91.2159 20.0469L91.0401 19.2734H90.4776V19.6602L91.2159 20.0469ZM88.5791 19.4492L88.7549 18.6758H88.3682L88.1924 19.4492H88.5791ZM77.5049 19.4492V18.8867H76.9424V19.4492H77.5049ZM91.4268 19.4492V19.0625L90.8643 18.1133H90.0909V18.8867L91.4268 19.4492ZM69.7002 18.6758V18.2891H69.3135V18.6758H69.7002ZM87.8057 18.5V17.7266H87.419L87.2432 18.2891L87.8057 18.5ZM97.1221 18.2891L96.5596 18.1133V18.5L97.1221 18.2891ZM91.8135 18.2891V17.7266H91.2159V18.2891H91.8135ZM93.3252 17.9023L93.8877 16.9531H93.1494L92.7627 17.9023H93.3252ZM88.5791 17.3398L88.1924 16.5664H88.7549L88.9307 17.1641L88.5791 17.3398ZM75.2198 16.3906V15.793H74.833V16.3906H75.2198ZM92.9385 16.0039L92.5518 15.793V14.6328H92.9385L93.3252 15.6172L92.9385 16.0039ZM82.2862 16.0039V15.6172C82.6612 14.9609 82.7901 14.2461 82.6729 13.4727L81.5127 12.3477H80.9502V13.2969H80.5635L80.001 13.1211L79.7901 13.6836L80.1768 13.8594C80.0596 14.6328 80.2471 15.1484 80.7393 15.4062H81.5127V16.0039H82.2862ZM71.9854 15.6172L71.4229 15.2305V15.793L71.9854 15.6172ZM74.833 15.793V15.2305L76.5557 14.8438L76.7666 13.8594L76.3799 13.1211L73.4971 12.9102L72.3721 13.4727V13.8594L72.7588 15.4062L74.833 15.793ZM77.8916 15.0195L77.5049 14.6328L77.3291 15.2305L77.8916 15.0195ZM84.958 13.1211V12.7344H84.5713V13.1211H84.958ZM93.1494 12.9102L94.0987 11.75V11.1875L93.8877 10.2031H93.501V9.64062L93.8877 8.69141L94.6612 10.5898L95.6104 10.9766V11.5742H95.0479C94.7901 12.207 94.3448 12.6523 93.7119 12.9102H93.1494ZM78.8409 10.5898L79.2276 9.42969L78.2784 9.25391L78.1026 10.0273H77.5049V10.4141L78.2784 10.8008L78.8409 10.5898ZM69.5244 6.75781V5.98438H69.1377L68.9268 6.54688L69.5244 6.75781ZM80.1768 5.03516V4.26172H79.7901L79.6143 4.82422L80.1768 5.03516ZM78.1026 4.26172L77.7159 3.875V4.26172H78.1026ZM79.2276 4.05078V3.48828H78.6651V4.05078H79.2276ZM71.8096 2.71484L70.8604 2.11719L70.6494 0.78125L73.3213 0.605469L72.3721 0.992188V1.55469L72.7588 2.32812L71.8096 2.71484ZM80.1768 1.55469C78.2784 1.03906 76.251 0.78125 74.0948 0.78125C77.001 0.6875 79.919 0.628906 82.8487 0.605469L81.5127 1.34375L80.5635 0.992188L80.1768 1.55469Z" fill="#483D3F"/>
<path d="M141.711 37.5547L140.762 36.9922L140.165 37.168L138.266 35.832L136.544 35.4453L135.77 35.832L135.559 34.8477H134.997V35.4453H133.836V34.4609L132.114 34.8477L131.762 34.0742H130.602V33.3008H129.829V34.0742H129.442L128.106 33.8984V33.5117H127.544L127.157 34.0742V32.7383H127.719V32.3516L127.544 31.9648L128.106 32.1758L128.879 31.4023H129.266V31.0156L128.282 30.6289L127.93 29.8555H128.879V29.2578L127.719 29.082L127.333 27.3594L127.544 26.9727L127.719 26.5859L127.333 25.2148H126.946L126.77 23.7031H127.157L127.333 22.543L127.157 21.9453H127.93V21.207C127.415 20.4336 127.157 19.5898 127.157 18.6758L127.333 18.1133L126.559 15.4062C125.669 15.4062 125.036 15.1484 124.661 14.6328H125.61V14.2461L125.434 13.6836L127.719 13.2969L128.879 13.6836V13.2969L128.493 12.7344H129.829L131.165 13.4727V13.8594H131.551C132.583 13.3672 133.731 13.0508 134.997 12.9102L135.77 11.5742L135.559 10.8008L136.157 10.9766L136.544 9.25391L136.157 9.07812V8.69141L137.493 8.09375V8.48047H138.055C138.571 7.84766 139.215 7.66016 139.989 7.91797V7.53125L140.165 8.30469L139.778 8.48047L138.829 8.09375V8.48047L139.391 9.64062L139.989 9.81641V9.25391H140.376L141.114 10.8008L140.938 12.3477L141.501 13.1211L143.223 13.2969L143.61 12.7344L143.821 13.1211H144.383L145.719 12.5234L146.106 12.7344V13.1211L145.93 13.6836L146.106 14.2461H146.493L145.93 14.6328V15.2305L147.266 15.6172V16.0039H146.493V16.3906L146.879 17.1641L147.266 17.3398V17.7266H146.879V18.1133L147.055 18.6758L146.669 20.6094L147.266 20.9961V21.5586L146.669 22.332H146.106V22.9297H146.493L146.669 25.0391C146.294 25.5547 145.79 25.7422 145.157 25.6016V26.375C144.383 26.375 143.68 26.5742 143.047 26.9727C142.274 26.1992 142.016 25.2383 142.274 24.0898C142.79 21.6523 143.047 19.0859 143.047 16.3906L140.938 15.793L140.762 16.3906L140.165 16.7773V17.5156L140.376 18.2891L138.266 19.2734L138.055 19.6602H137.669L136.333 18.8867L134.821 19.0625V18.6758L135.383 18.5V18.1133L134.223 16.7773V16.3906H133.836L133.274 17.7266H131.376V18.5H132.501V18.8867L131.938 19.0625V19.8359L132.711 20.0469L132.887 20.8203L132.501 22.332H131.938V23.1055L132.501 24.8633H131.938V25.4258H132.325V25.9883L131.762 26.5859L132.501 26.9727L132.887 27.9219L132.114 27.7461L131.762 28.6953L132.501 28.9062L132.887 30.0312H132.325L131.762 29.8555V30.2422C133.286 31.0156 134.903 31.4727 136.614 31.6133C138.348 31.7305 139.977 32.0469 141.501 32.5625L142.274 32.3516L142.485 32.9492H143.223L143.61 32.7383C144.383 32.9961 145.215 33.2539 146.106 33.5117V33.8984L145.719 34.8477C144.829 35.3633 143.868 35.8203 142.836 36.2188L141.711 37.5547ZM128.493 33.125V32.5625H127.93V33.125H128.493ZM112.602 28.6953C111.711 28.3203 110.751 28.0625 109.719 27.9219V28.3086H109.333L108.946 28.1328V27.7461H109.333L109.719 26.7617L114.887 25.0391V24.2656L115.098 23.3164L114.711 23.1055V22.7188L114.887 21.7695H115.274V21.207L114.887 20.0469L115.098 18.1133L111.829 16.5664L111.653 16.0039L110.669 15.793L110.282 14.457L111.829 14.2461C112.977 14.6445 114.254 14.7734 115.661 14.6328L115.836 13.4727H116.223L116.047 12.3477L116.434 11.5742H116.047V11.1875L117.383 10.8008V10.2031L116.61 9.81641V10.2031H116.223L116.821 10.0273V9.64062H118.333L118.93 12.3477H119.493V12.9102H119.879V13.2969L119.106 13.8594V14.457C121.028 14.832 122.879 15.2773 124.661 15.793C124.919 16.707 125.106 17.6094 125.223 18.5L124.836 18.6758L124.485 17.5156H123.887L122.376 17.7266V18.1133L120.442 18.5L119.493 17.7266V18.2891L119.669 19.4492H120.055V20.6094C119.422 21.0078 119.165 21.5234 119.282 22.1562L119.879 23.7031L121.602 23.8789L122.376 23.7031V24.8633L121.04 25.2148C120.641 25.7305 119.997 25.9883 119.106 25.9883V26.7617H118.157L117.559 26.5859L116.434 27.5352L115.661 27.3594C115.145 27.7344 114.512 27.8633 113.762 27.7461L112.602 28.6953ZM111.829 27.9219V27.5352H111.442V27.9219H111.829ZM130.391 27.9219L130.602 27.1484H130.215L129.442 26.5859V26.9727L129.829 28.1328L130.391 27.9219ZM128.282 26.1992V25.8125L127.719 25.6016V25.9883L128.282 26.1992ZM129.055 24.8633L129.442 23.8789L128.493 23.7031V25.0391L129.055 24.8633ZM128.106 24.8633V24.0898L127.544 23.8789V24.8633H128.106ZM130.778 23.3164V22.332H130.215V23.1055L130.778 23.3164ZM131.938 22.1562V21.7695L132.114 21.207L131.165 20.8203L130.778 21.5586V21.9453L131.938 22.1562ZM119.282 20.6094V20.2227L118.719 20.0469L118.544 20.6094H119.282ZM129.829 20.2227L128.493 19.2734V19.6602L128.879 20.4336L129.829 20.2227ZM131.551 20.2227V19.2734L130.989 18.8867L130.391 18.5V19.0625L130.989 20.0469L131.551 20.2227ZM138.442 18.6758L138.055 18.2891V18.6758H138.442ZM139.391 17.7266L138.653 17.3398V17.9023L139.391 17.7266ZM128.493 17.5156L127.719 16.7773V17.5156H128.493ZM131.165 17.7266V17.1641L130.602 16.9531V16.5664H130.04V17.7266H131.165ZM128.106 16.5664V16.0039H127.544V16.5664H128.106ZM132.114 12.7344L130.602 12.3477V11.75H130.989L131.938 12.1367V11.75C131.165 11.375 130.461 10.9883 129.829 10.5898H130.215L130.989 10.9766L132.114 10.5898L132.325 11.1875H133.274L134.047 10.8008L133.274 10.9766V11.9609H132.887L132.501 11.75C132.641 12.2656 132.512 12.5938 132.114 12.7344ZM137.879 11.75V11.3633H137.493V11.75H137.879ZM140.762 10.8008L139.215 10.5898V11.1875H139.778L140.762 10.8008ZM139.04 10.0273V9.25391H138.266V9.64062L139.04 10.0273ZM131.376 9.64062V8.69141L131.551 7.53125L132.325 7.70703V8.09375L131.938 8.86719L131.762 9.64062H131.376ZM137.493 9.64062L137.106 9.25391V9.64062H137.493ZM134.047 9.25391L133.485 9.07812H134.223L134.047 9.25391ZM129.653 8.86719L129.442 7.91797H130.391L130.778 8.86719H129.653ZM133.485 8.30469V7.91797L133.661 7.53125L133.485 8.30469ZM130.391 7.32031L130.602 6.93359L130.778 7.32031H130.391ZM131.938 6.75781L132.325 6.37109V6.75781H131.938Z" fill="#483D3F"/>
<path d="M178.104 36.0383V35.1473H177.754L176.894 35.4974L176.544 32.697L177.054 30.3917H176.544V29.5325L177.054 28.6415C176.587 28.3021 176.417 27.8354 176.544 27.2414L177.404 26.8913V26.3822L176.863 26.1913V25.8412L176.353 25.6503L176.194 23.3909L176.544 22.3408C177.351 21.9802 178.263 21.7998 179.281 21.7998L178.263 22.3408L178.072 22.85L178.263 23.741L179.472 24.2501L180.14 24.091C180.946 24.5577 179.705 24.3385 180.872 24.2112L181.381 24.0521L182.05 24.2112C182.177 23.0444 182.474 21.9413 182.941 20.9018C182.474 20.6684 182.294 20.2547 182.4 19.6607L182.591 19.3107H182.941V18.8015H182.591L182.24 17.5605L182.622 14.1025L182.272 13.2433L182.431 12.3523L182.272 11.4931H182.622V10.9522C182.262 10.146 182.145 9.27621 182.272 8.34277H181.922V7.9609L182.272 7.26083L182.081 6.75168L182.272 6.40164H182.972V6.0516L182.272 5.70156V5.16059L184.5 4.81055V5.70156L184.15 7.8018C184.617 8.86252 184.914 9.97628 185.041 11.1431C186.059 11.3764 187.088 11.6098 188.128 11.8432L189.337 11.6522L190.196 11.8432L190.896 11.6522L191.405 11.8432V13.0524L190.387 13.9434L189.687 13.4024V13.7525L189.178 13.9434V14.6435H188.828L188.478 14.4526L187.268 13.7525L186.409 14.2934L185.359 14.1025V14.4526L185.734 14.7672H185.384L185.359 14.8026H184.85V15.6936L185.327 17.4014L185.677 18.6106L185.168 18.8015V19.3107C185.868 19.7774 186.155 20.4244 186.027 21.2518L185.168 22.3019L184.309 21.9519L183.1 23.8612L183.8 24.2112L186.536 23.8612L186.027 24.4022V24.7522H186.377L186.918 24.5613V24.9113H187.427V24.4022H187.937L188.637 24.7522L189.846 24.4022L191.055 24.9113V25.2614L190.864 25.8023L191.723 26.1524V26.5024H191.214V28.0935H190.864V28.4435C191.204 28.9103 191.32 29.43 191.214 30.0028L191.564 30.1937V30.7029H190.864L190.355 31.06L190.196 31.9581L191.405 32.3081L191.755 33.5492L190.355 34.0583L190.196 34.7584H189.846V34.0583H189.146L188.987 35.1084H187.937L187.268 34.7584L186.568 34.0583L186.059 35.4585H185.359C183.28 35.4585 183.556 35.561 181.731 34.9882H180.872L178.104 36.0383ZM188.287 33.8992L187.618 33.3582V34.0583L188.287 33.8992ZM183.1 32.8491C184.373 32.8491 185.582 32.6688 186.727 32.3081C187.427 32.6688 186.865 33.1355 187.777 33.0082L188.287 32.149V30.7029L188.637 27.3934L187.427 26.5024V26.8524C185.858 26.6827 185.667 26.216 184.118 26.1524V25.6114H183.609L183.259 25.4523L182.05 25.9933C181.371 25.6326 182.803 25.8943 181.89 26.0003L180.681 26.5413L180.49 26.8913H180.14V27.2414L180.49 28.2915H179.981V28.8325H180.49L180.84 30.5827L180.522 32.1879L181.031 32.347V32.697L180.013 32.499L180.522 32.3081L181.031 32.499L181.89 32.3081L183.1 32.8491ZM177.563 29.5325L177.213 29.1825V29.5325H177.563ZM191.055 27.9026L190.355 27.5525V27.9026L191.055 28.2526V27.9026ZM179.981 26.8913V26.5413L179.281 26.1913L179.122 27.0823H179.472L179.981 26.8913ZM188.637 26.6933L187.937 25.9614V26.5024L188.637 26.6933ZM177.913 23.741V23.2H177.213V23.741H177.913ZM183.609 22.461L183.1 22.3019V22.652L183.609 22.461ZM188.478 13.7525L188.637 13.2433H187.968V13.9434L188.478 13.7525Z" fill="#483D3F"/>
<path d="M153.185 38.301C152.748 38.174 152.589 37.8248 152.708 37.2534H152.381L152.232 36.555L152.53 34.809H152.857L153.036 33.7614L152.053 33.063L151.755 31.1582L151.904 30.4598C152.659 30.354 153.354 30.2376 153.989 30.1106V29.6027H153.334V29.2535L153.84 29.063C154.376 29.4228 154.962 29.5392 155.597 29.4122L155.746 28.7138H156.074L156.223 29.2535L156.878 29.4122V29.9519L156.729 30.4598L157.027 30.809H156.55V31.5074H156.878L157.205 31.3487L156.878 32.555C157.414 33.4862 157.732 34.5338 157.831 35.6979L156.878 35.3487L156.55 35.5074V35.8566H156.878V36.2058L155.746 37.7613H154.644C154.307 37.4227 153.82 37.3063 153.185 37.4121V37.9518V38.301ZM161.226 37.6026L160.571 37.0947L159.618 37.2534V36.7455L159.767 36.2058L159.111 35.8566L159.29 34.9994C158.853 33.9624 158.635 32.809 158.635 31.5392L160.422 30.8408L160.898 30.9995L162.03 29.9519H164.889V29.4122L164.264 28.3964L163.609 28.2059V28.5551L164.115 29.063H163.46C163.023 28.3858 162.804 27.5816 162.804 26.6504H163.132L163.787 26.8091L164.413 26.6504L165.872 26.8091L166.021 26.3012L165.872 25.952L166.021 25.6028L165.544 24.5552L164.889 24.3965L164.413 24.5552L163.609 24.0473L162.983 24.5552L163.311 24.3965V24.0473L162.507 23.8568V23.3489L161.196 22.9997L160.898 23.8568H160.571V23.3489H160.243L159.767 22.8092V23.1584H159.439V22.8092L160.571 21.7616C161.742 21.7193 162.924 21.6663 164.115 21.6029L165.217 22.1108L165.693 20.7457H166.825V20.3965L165.544 20.0473V19.6981L165.693 19.1585L165.395 18.6505H165.068L164.74 19.1585H164.413L164.264 18.6505L163.132 18.4601V18.8093V18.1109H162.656L162.507 18.4601V18.1109H162.179L162 19.3489H161.524L160.72 18.9997L159.916 19.3489L159.111 19.1585C159.012 18.587 158.695 18.3013 158.158 18.3013V16.7458L158.307 16.2061L157.831 15.6982L158.635 13.603H158.307L157.831 13.7935V13.2538L158.01 11.5078L157.682 11.3491L157.533 10.1427L157.205 9.95226L156.729 8.20626L156.878 6.65073L157.354 6.492V6.1428H156.729V5.7936L157.533 5.4444V4.90473H156.729V4.3968L157.533 3.50793L158.486 3.19047L159.29 3.3492L160.72 3.19047L160.898 3.6984L163.132 3.85713L163.936 3.6984V3.3492L164.264 3.85713L164.115 4.3968H163.609V4.90473H164.115L164.74 4.55553L164.889 3.50793L165.395 3.6984L165.693 3H166.021L166.2 3.50793H166.676V4.0476H167.004L167.153 5.0952H167.629L167.957 4.0476L168.433 3.85713V3.50793H168.761L170.041 4.20633V3.6984H169.714V3.3492H171.322L171.65 4.746L170.845 5.0952L170.041 4.746L169.892 5.60313L169.088 5.95233L168.91 6.65073L169.088 7.15866L168.284 7.34913L168.106 8.04753L169.237 8.90466V9.44433L167.629 9.79353V10.3015H167.957L168.106 11.1586H168.582L169.088 10.9999V10.6507L169.386 10.9999H169.714L170.19 10.8094C171.044 11.1692 171.908 11.402 172.781 11.5078L173.079 10.6507L172.93 10.1427L173.258 9.09513L173.079 8.74593L173.883 5.95233L174.211 5.7936V5.25393L173.734 4.746L174.211 4.55553C174.31 4.08993 174.628 3.92062 175.164 4.0476V3.6984L176.296 3.19047L176.444 4.3968L175.968 4.55553V4.90473L176.623 5.4444L176.147 5.7936V6.1428L176.623 6.492L175.491 7.15866V8.20626L175.819 8.90466L175.968 9.25386L175.491 10.6507L175.819 12.9046C175.382 14.8728 175.164 16.9045 175.164 18.9997L175.491 19.6981H175.164V20.2061L175.343 20.9045C174.37 21.0314 173.407 21.2642 172.454 21.6029L171.977 21.2537L171.799 20.9045L172.126 18.6505L170.994 18.4601C170.677 19.3913 170.409 20.3859 170.19 21.4441L169.565 22.3013H170.369L170.518 22.8092L172.93 23.1584L173.079 24.5552C172.345 25.1266 171.491 25.2959 170.518 25.0631L170.041 26.1107L168.582 26.3012V26.8091L171.173 27.3488L171.322 28.7138H171.65L172.275 28.3964L172.454 29.4122L169.088 29.9519L168.433 30.4598L165.544 29.9519L164.919 30.6503L163.936 30.1424L165.693 29.4122L165.217 29.2535V29.6027L163.787 31.19L164.264 31.3487V31.6979L164.115 32.3963L164.413 33.7931L163.609 35.5391H162.804L162.328 35.3487C162.447 36.2799 162.08 37.0312 161.226 37.6026ZM173.913 37.2851V36.9359L173.764 36.5867H173.437L173.109 36.7772C172.672 36.4174 172.513 35.9518 172.632 35.3804H172.305V35.0312L172.781 34.049L172.454 33.5411L171.799 33.3506V32.6522L172.126 32.1443C171.709 31.8057 171.55 31.3401 171.65 30.7475L175.343 29.5412L175.491 30.2396L175.194 30.7475H176.147L175.343 30.938V31.4459C175.343 32.0173 175.561 32.303 175.998 32.303L176.474 31.4459H176.951V31.7951L176.474 32.1443V32.6522H176.951L177.1 33.3506H176.474V34.049H177.1L176.951 35.0312L175.343 35.3804V36.0788L175.521 37.1264H175.194L174.568 36.9359L173.913 37.2851ZM155.746 36.9042L155.27 36.3645L154.942 37.0629L155.746 36.9042ZM174.717 36.0788L174.062 35.8883V36.2375L174.717 36.0788ZM166.825 37.0947C166.289 35.9518 166.13 34.682 166.348 33.2852L166.825 33.1265V32.2376L168.91 31.5392L169.386 32.2376H169.863L170.041 31.7297L169.565 31.5392V31.19H170.19L170.845 31.5392L170.994 33.1265L169.863 32.936V33.6344L170.518 34.1423V35.0312L170.041 35.1899L169.088 34.8407L168.284 35.5391L168.106 36.2375L167.153 36.428L166.825 37.0947ZM156.55 34.9994V34.6502L155.419 34.301V34.809L156.55 34.9994ZM160.571 34.301V33.4439H160.094L159.916 34.301H160.571ZM157.027 33.9518L157.205 33.4122H156.878L156.729 33.9518H157.027ZM161.047 33.0947L161.226 32.555H160.72V33.0947H161.047ZM155.419 33.2534V32.9042L155.27 32.3646L155.746 32.2058L156.401 32.555V31.8566L155.419 31.1582V30.4598H154.942L154.793 31.1582L154.942 32.0471L154.793 32.9042L155.419 33.2534ZM153.036 32.7138L153.185 32.2058H152.857L152.53 32.9042L153.036 32.7138ZM173.734 31.9539V31.2872H173.258V32.1443L173.734 31.9539ZM170.518 32.5868L170.667 32.2376L170.19 32.5868H170.518ZM174.866 30.938L175.015 29.8904H174.39V30.2396L174.538 31.0967L174.866 30.938ZM153.989 30.9995V30.6503L153.334 30.4598V30.809L153.989 30.9995ZM156.401 30.9995V30.3011L156.223 29.9519H155.746V30.6503L156.401 30.9995ZM155.419 30.3011V29.9519L154.466 29.6027V29.9519L155.419 30.3011ZM158.814 30.3011L158.158 29.9519L157.533 30.1106V29.7614L158.814 29.6027L159.439 29.7614V30.1106L158.814 30.3011ZM160.094 29.9519L159.916 29.2535L161.047 29.063L161.196 27.5075L160.571 27.1583V27.698H160.243V27.3488H159.767V27.8567L160.094 28.7138H159.618L158.486 27.8567C159.121 27.2853 159.866 26.9996 160.72 26.9996V26.6504L162 26.4599V27.5075L161.851 29.7614H161.524L160.898 29.6027L160.094 29.9519ZM162.328 29.9519V29.6027L162.507 29.2535L162.804 29.7614L162.328 29.9519ZM173.079 29.4122L173.258 28.3964L173.734 28.2059V28.9043L173.079 29.4122ZM165.693 28.5551V28.0472L165.217 28.5551H165.693ZM172.781 28.0472L172.454 27.8567L172.781 27.698V28.0472ZM165.693 27.8567V27.3488H165.217V27.8567H165.693ZM161.524 24.9044L161.196 24.7457V24.3965L161.524 24.9044ZM159.767 24.7457L159.916 24.0473L160.094 24.5552L159.767 24.7457ZM164.115 23.5076V23.1584H163.787V23.5076H164.115ZM167.957 22.1108V21.4441H167.48V22.1108H167.957ZM167.778 20.3965L167.48 20.0473V20.3965H167.778ZM164.591 18.3013L164.74 17.6029L164.264 16.9045H163.787L163.609 17.7934L164.591 18.3013ZM163.132 16.7458L162.804 16.3966V16.7458H163.132ZM172.603 16.7458L172.454 16.2061L172.781 15.1585L172.603 14.6506L172.781 13.9522L172.454 12.9046L171.799 12.7459L170.994 13.603V13.9522H170.369V14.4601L170.518 14.8093H170.19L169.565 14.4601V15.8569L169.714 16.2061H170.845L171.65 16.3966V16.9045L172.603 16.7458ZM163.311 16.2061L164.115 15.8569L165.544 16.0474L165.872 14.8093L164.889 12.5554L163.609 12.2062V12.7459H163.936V13.0951H163.609L162 12.0475L161.524 13.2538L161.702 13.7935L161.524 14.8093L161.702 15.349L162.656 15.8569L163.311 16.2061ZM168.284 14.9998L168.582 14.3014H168.106L167.778 15.1585L168.284 14.9998ZM167.48 14.4601V13.9522H167.153L167.004 14.6506L167.48 14.4601ZM165.068 11.857V11.5078H164.74V11.857H165.068ZM175.015 11.3491V10.4919H174.687L174.538 11.1586L175.015 11.3491ZM165.068 10.9999V10.6507H164.74V10.9999H165.068ZM165.693 10.3015L166.021 9.09513L165.872 8.55546L166.2 8.04753L166.497 7.50786L165.872 7.34913V6.30153L163.609 5.95233V6.30153L163.132 6.492L162.804 5.7936H162.328V6.1428L162.656 6.99993C162.02 6.99993 161.484 7.16924 161.047 7.50786V8.04753L161.702 8.55546L161.851 9.09513L164.413 9.60306V10.1427L165.693 10.3015ZM166.825 9.44433L166.2 8.90466V9.60306L166.825 9.44433ZM170.19 8.74593L170.041 7.69833H169.714V6.8412H170.041L170.369 6.99993V7.69833L170.19 8.74593ZM157.533 8.55546V8.20626L158.486 7.69833L158.635 6.8412L158.158 6.65073L158.01 7.34913L157.354 7.50786L157.027 8.04753V8.39673L157.533 8.55546ZM168.106 8.39673V8.04753L167.48 7.69833V8.04753L168.106 8.39673ZM160.898 7.34913V6.8412H160.243L160.094 7.34913H160.898ZM162.179 5.60313V5.25393L162.328 4.746H161.375V5.25393L162.179 5.60313ZM163.311 5.60313V5.0952H162.804V5.60313H163.311ZM165.544 5.0952L166.021 4.0476H165.544L165.068 5.25393L165.544 5.0952ZM172.454 4.90473V4.3968L172.126 3H172.603L172.781 3.50793L172.454 4.3968H172.781V4.90473H172.454ZM173.407 4.3968L173.079 4.20633V3.85713L173.883 3.50793V3.85713L173.407 4.3968Z" fill="#483D3F"/>
</svg>
