<svg width="400" height="461" viewBox="0 0 400 461" fill="none" xmlns="http://www.w3.org/2000/svg">
<path d="M33.0075 254.335C30.9958 277.141 19.1763 298.48 14.1614 320.755C14.693 375.451 46.6362 408.194 69.5291 416.078C91.7537 423.731 114.757 427.17 135.048 439.789C154.508 451.89 176.726 463.75 199.988 457.437C234.946 447.95 261.145 421.022 282.568 393.089C313.455 352.816 366.326 362.894 385.064 316.634C389.303 306.168 408.464 282.922 393.019 243.524C387.001 221.35 379.839 199.145 376.738 176.331C371.324 136.499 367.226 103.711 339.325 71.8697C319.439 49.1746 288.366 36.8775 261.381 24.9653C229.244 10.7789 192.53 -8.16762 157.485 7.49405C140.335 15.1584 130.526 30.4864 118.573 44.1757C107.572 56.7752 95.0678 63.7046 79.1139 68.0343C64.8708 71.8998 50.4617 75.3935 36.3305 79.6455C30.3541 81.4438 21.5171 86.959 18.3255 92.5283C11.1964 104.968 6.79147 121.653 3.09613 135.649L2.83867 136.624C-2.12355 155.408 11.716 173.753 18.58 190.37C26.4742 209.482 34.8633 233.296 33.0075 254.335Z" stroke="#483D3F" stroke-opacity="0.6" stroke-width="2" stroke-linecap="round"/>
</svg>
