<svg width="74" height="72" viewBox="0 0 74 72" fill="none" xmlns="http://www.w3.org/2000/svg">
<g filter="url(#filter0_d_527_452)">
<path fill-rule="evenodd" clip-rule="evenodd" d="M35.7365 2.50374C42.6354 2.57095 49.6265 3.737 55.23 7.75089C60.8522 11.7782 64.4855 17.935 66.4993 24.5398C68.484 31.0489 68.4563 37.9571 66.4198 44.4503C64.3661 50.9986 60.7274 57.142 55.0562 61.0264C49.4719 64.8511 42.5072 65.6921 35.7365 65.4661C29.1561 65.2464 22.8422 63.3648 17.3344 59.767C11.6012 56.0218 6.25419 51.2473 4.05814 44.7727C1.84819 38.2571 3.35027 31.2458 5.43709 24.6899C7.53687 18.0934 10.3705 11.4645 15.9645 7.36836C21.5735 3.26126 28.7783 2.43595 35.7365 2.50374Z" fill="#483D3F"/>
</g>
<defs>
<filter id="filter0_d_527_452" x="0.967773" y="0.5" width="73" height="71" filterUnits="userSpaceOnUse" color-interpolation-filters="sRGB">
<feFlood flood-opacity="0" result="BackgroundImageFix"/>
<feColorMatrix in="SourceAlpha" type="matrix" values="0 0 0 0 0 0 0 0 0 0 0 0 0 0 0 0 0 0 127 0" result="hardAlpha"/>
<feOffset dx="2" dy="2"/>
<feGaussianBlur stdDeviation="2"/>
<feComposite in2="hardAlpha" operator="out"/>
<feColorMatrix type="matrix" values="0 0 0 0 0 0 0 0 0 0 0 0 0 0 0 0 0 0 0.25 0"/>
<feBlend mode="normal" in2="BackgroundImageFix" result="effect1_dropShadow_527_452"/>
<feBlend mode="normal" in="SourceGraphic" in2="effect1_dropShadow_527_452" result="shape"/>
</filter>
</defs>
</svg>
